<svg xmlns="http://www.w3.org/2000/svg" viewBox="0 0 306.07 467.11"><defs><style>.cls-1{isolation:isolate;}.cls-2{fill:#00e3e8;opacity:0.2;}.cls-3{fill:#3fd0d8;}.cls-4{fill:#56dae8;}.cls-5{fill:#646277;}.cls-6{opacity:0.15;}.cls-10,.cls-6{mix-blend-mode:multiply;}.cls-7{fill:#413f56;}.cls-8{fill:#524f63;}.cls-9{fill:#2d9ca8;}.cls-10{opacity:0.35;}</style></defs><title>Blender_Empty</title><g class="cls-1"><g id="Layer_2" data-name="Layer 2"><g id="Layer_1-2" data-name="Layer 1"><polygon class="cls-2" points="94.94 237.75 67.37 0 256.56 0 228.98 237.75 94.94 237.75"/><path class="cls-3" d="M89.84,193.78c-4.88-1.58-10.08-3.38-15.29-5.37-37.08-14.18-38.74-24.05-38.8-24.47L22.86,62.89a4.65,4.65,0,0,1,1.3-3.49,9,9,0,0,1,5.58-2.8L73.29,51,70.66,28.35,26.85,33.94A31.65,31.65,0,0,0,7,44.32,27.37,27.37,0,0,0,.21,65.78L13.1,166.83c2.06,16.16,19,29.8,53.3,42.91,9.41,3.6,18.67,6.58,26.32,8.84Z"/><polygon class="cls-4" points="256.56 0 228.98 237.75 94.94 237.75 67.37 0 48.4 0 77.59 252.99 246.34 252.99 275.52 0 256.56 0"/><rect class="cls-5" x="77.67" y="252.99" width="168.58" height="41.88"/><polygon class="cls-4" points="263.47 63.21 306.07 0 268.15 0 263.47 63.21"/><rect class="cls-6" x="77.67" y="273.92" width="168.58" height="20.94"/><path class="cls-4" d="M130.59,249.37a2.86,2.86,0,0,1-2.83-2.54L114.36,125a2.86,2.86,0,1,1,5.68-.62l13.4,121.79a2.86,2.86,0,0,1-2.53,3.15Z"/><path class="cls-4" d="M193.33,249.37l-.32,0a2.86,2.86,0,0,1-2.53-3.15l13.4-121.79a2.86,2.86,0,1,1,5.68.62l-13.4,121.79A2.86,2.86,0,0,1,193.33,249.37Z"/><rect class="cls-7" x="56.17" y="438.56" width="28.55" height="28.55" rx="2" ry="2"/><rect class="cls-7" x="245.86" y="438.56" width="28.55" height="28.55" rx="2" ry="2"/><rect class="cls-6" x="56.17" y="455.37" width="28.55" height="5.71"/><rect class="cls-6" x="245.86" y="455.37" width="28.55" height="5.71"/><path class="cls-3" d="M284.88,431.26H39L55,316A26.74,26.74,0,0,1,81.52,293H242.4A26.74,26.74,0,0,1,268.89,316Z"/><rect class="cls-8" x="39.05" y="431.26" width="245.84" height="24.11"/><rect class="cls-4" x="76.95" y="314.53" width="170.02" height="29.18" rx="4" ry="4"/><circle class="cls-9" cx="161.96" cy="389.35" r="33.58"/><circle class="cls-4" cx="161.96" cy="389.35" r="23.43"/><circle class="cls-8" cx="161.96" cy="389.35" r="15.34"/><rect class="cls-10" x="159.94" y="374" width="4.04" height="30.68" rx="1.06" ry="1.06"/><rect class="cls-9" x="90.4" y="323.36" width="24.84" height="11.71" rx="2" ry="2"/><rect class="cls-9" x="129.78" y="323.27" width="24.84" height="11.71" rx="2" ry="2"/><rect class="cls-9" x="169.15" y="323.17" width="24.84" height="11.71" rx="2" ry="2"/><rect class="cls-9" x="208.53" y="323.08" width="24.84" height="11.71" rx="2" ry="2"/></g></g></g></svg>