<svg xmlns="http://www.w3.org/2000/svg" viewBox="0 0 194.69 57.23"><defs><style>.cls-1{fill:#54bfe0;}.cls-2{fill:#8a4d36;}.cls-3{fill:#b86b3b;}.cls-4{fill:#a1593b;}.cls-5{fill:#f2e8d1;}.cls-6{fill:#f0a363;}.cls-7{fill:#f2cfb0;}</style></defs><title>ChocBar</title><g id="Layer_2" data-name="Layer 2"><g id="Layer_1-2" data-name="Layer 1"><path class="cls-1" d="M58.67,37.06V52.83a4.38,4.38,0,0,1-4.38,4.38H36.14a4.38,4.38,0,0,1-4.38-4.38V37.06a4.39,4.39,0,0,1,4.38-4.38H54.28A4.39,4.39,0,0,1,58.67,37.06Z"/><path class="cls-2" d="M58.67,37.06V52.83a4.38,4.38,0,0,1-4.38,4.38H40.56A4.19,4.19,0,0,1,36.85,53V36.86A4.19,4.19,0,0,1,39.53,33a3.77,3.77,0,0,1,1.12-.27H54.28A4.39,4.39,0,0,1,58.67,37.06Z"/><rect class="cls-2" x="16.78" y="32.67" width="37.75" height="24.56"/><rect class="cls-3" y="32.67" width="31.76" height="24.56" rx="4.2" ry="4.2"/><path class="cls-4" d="M58.67,37.06V39.3l0,0a3.4,3.4,0,0,0-2.32-.91,3.34,3.34,0,0,0-1.8.52,3.1,3.1,0,0,0-1.46,2.61v3a3.21,3.21,0,0,1-3.27,3.13,3.35,3.35,0,0,1-2.32-.91,3,3,0,0,1-1-2.22v-3a3,3,0,0,0-1-2.22,3.41,3.41,0,0,0-2.32-.91A3.21,3.21,0,0,0,40,41.5v3a3.2,3.2,0,0,1-3.11,3.13h-.16a3.35,3.35,0,0,1-2.32-.91,3.09,3.09,0,0,1-1-2.22v-3a3.08,3.08,0,0,0-1-2.22,3.47,3.47,0,0,0-.68-.5V36.86a4.22,4.22,0,0,0-4.2-4.2H41l-.4,0H54.28A4.39,4.39,0,0,1,58.67,37.06Z"/><path class="cls-5" d="M30,36.86V53a2.45,2.45,0,0,1-2.44,2.44H4.2A2.44,2.44,0,0,1,1.76,53V36.86A2.44,2.44,0,0,1,4.2,34.42H27.57A2.45,2.45,0,0,1,30,36.86Z"/><path class="cls-6" d="M27.57,34.42H4.2a2.44,2.44,0,0,0-2.44,2.44v4.29H4.13a3.22,3.22,0,0,0,6.27,1,1.69,1.69,0,0,0,3-1h9a2.57,2.57,0,1,0,5.15,0H30V36.86A2.45,2.45,0,0,0,27.57,34.42Z"/><circle class="cls-7" cx="6.26" cy="49.75" r="3.23"/><circle class="cls-7" cx="11.73" cy="52.48" r="2.08"/><circle class="cls-7" cx="16.93" cy="48.49" r="3.29"/><circle class="cls-7" cx="20.82" cy="49.75" r="2.46"/><path class="cls-7" d="M30,49.95V53a2.45,2.45,0,0,1-2.44,2.44h-1A3.24,3.24,0,0,1,25.41,53a3.28,3.28,0,0,1,3.06-3.28h.24A3.33,3.33,0,0,1,30,49.95Z"/><path class="cls-7" d="M30,46.36v4.25a2.18,2.18,0,0,1-1.54-.92A2.14,2.14,0,0,1,30,46.36Z"/><path class="cls-7" d="M19.76,55.48H15a2.41,2.41,0,0,1,4.78,0Z"/><circle class="cls-7" cx="25.03" cy="46.9" r="1.59"/><path class="cls-7" d="M4.72,50.08a2.15,2.15,0,0,1-2.14,2.14A2.08,2.08,0,0,1,1.76,52V48.11a2.23,2.23,0,0,1,.83-.17,2.26,2.26,0,0,1,.88.18A2.15,2.15,0,0,1,4.72,50.08Z"/><path class="cls-1" d="M126.68,37.06V52.83a4.38,4.38,0,0,1-4.38,4.38H104.15a4.38,4.38,0,0,1-4.38-4.38V37.06a4.39,4.39,0,0,1,4.38-4.38H122.3A4.39,4.39,0,0,1,126.68,37.06Z"/><path class="cls-2" d="M126.68,37.06V52.83a4.38,4.38,0,0,1-4.38,4.38H108.58A4.19,4.19,0,0,1,104.86,53V36.86A4.19,4.19,0,0,1,107.54,33a3.77,3.77,0,0,1,1.12-.27H122.3A4.39,4.39,0,0,1,126.68,37.06Z"/><rect class="cls-2" x="84.79" y="32.67" width="37.75" height="24.56"/><path class="cls-3" d="M99.77,53a4.19,4.19,0,0,1-4.2,4.19H72.21A4.19,4.19,0,0,1,68,53V36.87a4.2,4.2,0,0,1,4.2-4.2H95.58a4.2,4.2,0,0,1,4.2,4.2Z"/><path class="cls-4" d="M126.68,37.06V39.3l0,0a3.4,3.4,0,0,0-2.32-.91,3.34,3.34,0,0,0-1.8.52,3.1,3.1,0,0,0-1.46,2.61v3a3.21,3.21,0,0,1-3.27,3.13,3.35,3.35,0,0,1-2.32-.91,3,3,0,0,1-1-2.22v-3a3,3,0,0,0-1-2.22,3.41,3.41,0,0,0-2.32-.91A3.21,3.21,0,0,0,108,41.5v3a3.2,3.2,0,0,1-3.11,3.13h-.16a3.35,3.35,0,0,1-2.32-.91,3.09,3.09,0,0,1-1-2.22v-3a3.08,3.08,0,0,0-1-2.22,3.47,3.47,0,0,0-.68-.5V36.86a4.22,4.22,0,0,0-4.2-4.2h13.48l-.4,0H122.3A4.39,4.39,0,0,1,126.68,37.06Z"/><path class="cls-5" d="M98,36.86V53a2.45,2.45,0,0,1-2.44,2.44H72.21A2.44,2.44,0,0,1,69.77,53V36.86a2.44,2.44,0,0,1,2.44-2.44H95.58A2.45,2.45,0,0,1,98,36.86Z"/><path class="cls-6" d="M95.58,34.42H72.21a2.44,2.44,0,0,0-2.44,2.44v4.29h2.37a3.22,3.22,0,0,0,6.27,1,1.69,1.69,0,0,0,3-1h9a2.57,2.57,0,1,0,5.15,0H98V36.86A2.45,2.45,0,0,0,95.58,34.42Z"/><circle class="cls-7" cx="74.27" cy="49.75" r="3.23"/><circle class="cls-7" cx="79.75" cy="52.48" r="2.08"/><circle class="cls-7" cx="84.95" cy="48.49" r="3.29"/><circle class="cls-7" cx="88.83" cy="49.75" r="2.46"/><path class="cls-7" d="M98,49.95V53a2.45,2.45,0,0,1-2.44,2.44h-1A3.24,3.24,0,0,1,93.42,53a3.28,3.28,0,0,1,3.06-3.28h.24A3.33,3.33,0,0,1,98,49.95Z"/><path class="cls-7" d="M98,46.36v4.25a2.18,2.18,0,0,1-1.54-.92A2.14,2.14,0,0,1,98,46.36Z"/><path class="cls-7" d="M87.77,55.48H83a2.41,2.41,0,0,1,4.78,0Z"/><circle class="cls-7" cx="93.05" cy="46.9" r="1.59"/><path class="cls-7" d="M72.74,50.08a2.15,2.15,0,0,1-2.14,2.14,2.08,2.08,0,0,1-.83-.17V48.11a2.23,2.23,0,0,1,.83-.17,2.26,2.26,0,0,1,.88.18A2.15,2.15,0,0,1,72.74,50.08Z"/><path class="cls-1" d="M194.69,37.06V52.83a4.38,4.38,0,0,1-4.38,4.38H172.17a4.38,4.38,0,0,1-4.38-4.38V37.06a4.39,4.39,0,0,1,4.38-4.38h18.15A4.39,4.39,0,0,1,194.69,37.06Z"/><path class="cls-2" d="M194.69,37.06V52.83a4.38,4.38,0,0,1-4.38,4.38H176.59A4.19,4.19,0,0,1,172.88,53V36.86A4.19,4.19,0,0,1,175.56,33a3.77,3.77,0,0,1,1.12-.27h13.64A4.39,4.39,0,0,1,194.69,37.06Z"/><rect class="cls-2" x="152.81" y="32.67" width="37.75" height="24.56"/><rect class="cls-3" x="136.03" y="32.67" width="31.76" height="24.56" rx="4.2" ry="4.2"/><path class="cls-4" d="M194.69,37.06V39.3l0,0a3.4,3.4,0,0,0-2.32-.91,3.34,3.34,0,0,0-1.8.52,3.1,3.1,0,0,0-1.46,2.61v3a3.21,3.21,0,0,1-3.27,3.13,3.35,3.35,0,0,1-2.32-.91,3,3,0,0,1-1-2.22v-3a3,3,0,0,0-1-2.22,3.41,3.41,0,0,0-2.32-.91A3.21,3.21,0,0,0,176,41.5v3a3.2,3.2,0,0,1-3.11,3.13h-.16a3.35,3.35,0,0,1-2.32-.91,3.09,3.09,0,0,1-1-2.22v-3a3.08,3.08,0,0,0-1-2.22,3.47,3.47,0,0,0-.68-.5V36.86a4.22,4.22,0,0,0-4.2-4.2h13.48l-.4,0h13.64A4.39,4.39,0,0,1,194.69,37.06Z"/><path class="cls-5" d="M166,36.86V53a2.45,2.45,0,0,1-2.44,2.44H140.23A2.44,2.44,0,0,1,137.78,53V36.86a2.44,2.44,0,0,1,2.44-2.44h23.37A2.45,2.45,0,0,1,166,36.86Z"/><path class="cls-6" d="M163.59,34.42H140.23a2.44,2.44,0,0,0-2.44,2.44v4.29h2.37a3.22,3.22,0,0,0,6.27,1,1.69,1.69,0,0,0,3-1h9a2.57,2.57,0,1,0,5.15,0H166V36.86A2.45,2.45,0,0,0,163.59,34.42Z"/><circle class="cls-7" cx="142.29" cy="49.75" r="3.23"/><circle class="cls-7" cx="147.76" cy="52.48" r="2.08"/><circle class="cls-7" cx="152.96" cy="48.49" r="3.29"/><circle class="cls-7" cx="156.85" cy="49.75" r="2.46"/><path class="cls-7" d="M166,49.95V53a2.45,2.45,0,0,1-2.44,2.44h-1A3.24,3.24,0,0,1,161.44,53a3.28,3.28,0,0,1,3.06-3.28h.24A3.33,3.33,0,0,1,166,49.95Z"/><path class="cls-7" d="M166,46.36v4.25a2.18,2.18,0,0,1-1.54-.92A2.14,2.14,0,0,1,166,46.36Z"/><path class="cls-7" d="M155.79,55.48H151a2.41,2.41,0,0,1,4.78,0Z"/><circle class="cls-7" cx="161.06" cy="46.9" r="1.59"/><path class="cls-7" d="M140.75,50.08a2.15,2.15,0,0,1-2.14,2.14,2.08,2.08,0,0,1-.83-.17V48.11a2.23,2.23,0,0,1,.83-.17,2.26,2.26,0,0,1,.88.18A2.15,2.15,0,0,1,140.75,50.08Z"/><path class="cls-1" d="M95.07,4.4V20.16a4.38,4.38,0,0,1-4.38,4.38H72.54a4.38,4.38,0,0,1-4.38-4.38V4.4A4.39,4.39,0,0,1,72.54,0H90.69A4.39,4.39,0,0,1,95.07,4.4Z"/><path class="cls-2" d="M95.07,4.4V20.16a4.38,4.38,0,0,1-4.38,4.38H77a4.19,4.19,0,0,1-3.71-4.17V4.2A4.19,4.19,0,0,1,75.93.29,3.77,3.77,0,0,1,77.05,0H90.69A4.39,4.39,0,0,1,95.07,4.4Z"/><rect class="cls-2" x="53.18" width="37.75" height="24.56"/><path class="cls-3" d="M68.16,20.38A4.19,4.19,0,0,1,64,24.57H40.6a4.19,4.19,0,0,1-4.2-4.19V4.2A4.2,4.2,0,0,1,40.6,0H64a4.2,4.2,0,0,1,4.2,4.2Z"/><path class="cls-4" d="M95.07,4.4V6.63l0,0a3.4,3.4,0,0,0-2.32-.91,3.34,3.34,0,0,0-1.8.52,3.1,3.1,0,0,0-1.46,2.61v3a3.21,3.21,0,0,1-3.27,3.13A3.35,3.35,0,0,1,83.87,14a3,3,0,0,1-1-2.22v-3a3,3,0,0,0-1-2.22,3.41,3.41,0,0,0-2.32-.91,3.21,3.21,0,0,0-3.27,3.13v3a3.2,3.2,0,0,1-3.11,3.13h-.16A3.35,3.35,0,0,1,70.77,14a3.09,3.09,0,0,1-1-2.22v-3a3.08,3.08,0,0,0-1-2.22,3.47,3.47,0,0,0-.68-.5V4.2A4.22,4.22,0,0,0,64,0H77.45l-.4,0H90.69A4.39,4.39,0,0,1,95.07,4.4Z"/><path class="cls-5" d="M66.41,4.2V20.37A2.45,2.45,0,0,1,64,22.82H40.6a2.44,2.44,0,0,1-2.44-2.44V4.2A2.44,2.44,0,0,1,40.6,1.75H64A2.45,2.45,0,0,1,66.41,4.2Z"/><path class="cls-6" d="M64,1.75H40.6A2.44,2.44,0,0,0,38.16,4.2V8.49h2.37a3.22,3.22,0,0,0,6.27,1,1.69,1.69,0,0,0,3-1h9a2.57,2.57,0,1,0,5.15,0h2.4V4.2A2.45,2.45,0,0,0,64,1.75Z"/><circle class="cls-7" cx="42.66" cy="17.08" r="3.23"/><circle class="cls-7" cx="48.13" cy="19.82" r="2.08"/><circle class="cls-7" cx="53.33" cy="15.82" r="3.29"/><circle class="cls-7" cx="57.22" cy="17.08" r="2.46"/><path class="cls-7" d="M66.41,17.28v3.09A2.45,2.45,0,0,1,64,22.82H63a3.24,3.24,0,0,1-1.16-2.51A3.28,3.28,0,0,1,64.87,17h.24A3.33,3.33,0,0,1,66.41,17.28Z"/><path class="cls-7" d="M66.41,13.7v4.25A2.18,2.18,0,0,1,64.87,17a2.14,2.14,0,0,1,1.54-3.33Z"/><path class="cls-7" d="M56.16,22.82H51.38a2.41,2.41,0,0,1,4.78,0Z"/><circle class="cls-7" cx="61.44" cy="14.23" r="1.59"/><path class="cls-7" d="M41.13,17.41A2.15,2.15,0,0,1,39,19.55a2.08,2.08,0,0,1-.83-.17V15.44a2.23,2.23,0,0,1,.83-.17,2.26,2.26,0,0,1,.88.18A2.15,2.15,0,0,1,41.13,17.41Z"/><path class="cls-1" d="M163.08,4.4V20.16a4.38,4.38,0,0,1-4.38,4.38H140.56a4.38,4.38,0,0,1-4.38-4.38V4.4A4.39,4.39,0,0,1,140.56,0H158.7A4.39,4.39,0,0,1,163.08,4.4Z"/><path class="cls-2" d="M163.08,4.4V20.16a4.38,4.38,0,0,1-4.38,4.38H145a4.19,4.19,0,0,1-3.71-4.17V4.2A4.19,4.19,0,0,1,143.95.29,3.77,3.77,0,0,1,145.06,0H158.7A4.39,4.39,0,0,1,163.08,4.4Z"/><rect class="cls-2" x="121.2" width="37.75" height="24.56"/><path class="cls-3" d="M136.17,20.38a4.19,4.19,0,0,1-4.2,4.19H108.61a4.19,4.19,0,0,1-4.2-4.19V4.2a4.2,4.2,0,0,1,4.2-4.2H132a4.2,4.2,0,0,1,4.2,4.2Z"/><path class="cls-4" d="M163.08,4.4V6.63l0,0a3.4,3.4,0,0,0-2.32-.91,3.34,3.34,0,0,0-1.8.52,3.1,3.1,0,0,0-1.46,2.61v3a3.21,3.21,0,0,1-3.27,3.13,3.35,3.35,0,0,1-2.32-.91,3,3,0,0,1-1-2.22v-3a3,3,0,0,0-1-2.22,3.41,3.41,0,0,0-2.32-.91,3.21,3.21,0,0,0-3.27,3.13v3a3.2,3.2,0,0,1-3.11,3.13h-.16a3.35,3.35,0,0,1-2.32-.91,3.09,3.09,0,0,1-1-2.22v-3a3.08,3.08,0,0,0-1-2.22,3.47,3.47,0,0,0-.68-.5V4.2A4.22,4.22,0,0,0,132,0h13.48l-.4,0H158.7A4.39,4.39,0,0,1,163.08,4.4Z"/><path class="cls-5" d="M134.42,4.2V20.37A2.45,2.45,0,0,1,132,22.82H108.62a2.44,2.44,0,0,1-2.44-2.44V4.2a2.44,2.44,0,0,1,2.44-2.44H132A2.45,2.45,0,0,1,134.42,4.2Z"/><path class="cls-6" d="M132,1.75H108.62a2.44,2.44,0,0,0-2.44,2.44V8.49h2.37a3.22,3.22,0,0,0,6.27,1,1.69,1.69,0,0,0,3-1h9a2.57,2.57,0,1,0,5.15,0h2.4V4.2A2.45,2.45,0,0,0,132,1.75Z"/><circle class="cls-7" cx="110.68" cy="17.08" r="3.23"/><circle class="cls-7" cx="116.15" cy="19.82" r="2.08"/><circle class="cls-7" cx="121.35" cy="15.82" r="3.29"/><circle class="cls-7" cx="125.24" cy="17.08" r="2.46"/><path class="cls-7" d="M134.42,17.28v3.09A2.45,2.45,0,0,1,132,22.82h-1a3.24,3.24,0,0,1-1.16-2.51A3.28,3.28,0,0,1,132.88,17h.24A3.33,3.33,0,0,1,134.42,17.28Z"/><path class="cls-7" d="M134.42,13.7v4.25a2.18,2.18,0,0,1-1.54-.92,2.14,2.14,0,0,1,1.54-3.33Z"/><path class="cls-7" d="M124.18,22.82h-4.78a2.41,2.41,0,0,1,4.78,0Z"/><circle class="cls-7" cx="129.45" cy="14.23" r="1.59"/><path class="cls-7" d="M109.14,17.41A2.15,2.15,0,0,1,107,19.55a2.08,2.08,0,0,1-.83-.17V15.44a2.23,2.23,0,0,1,.83-.17,2.26,2.26,0,0,1,.88.18A2.15,2.15,0,0,1,109.14,17.41Z"/></g></g></svg>