<svg xmlns="http://www.w3.org/2000/svg" viewBox="0 0 224.25 141.86"><defs><style>.cls-1{fill:#ffc84b;}.cls-2{fill:#ffa83a;}</style></defs><title>Cheese</title><g id="Layer_2" data-name="Layer 2"><g id="Layer_1-2" data-name="Layer 1"><rect class="cls-1" x="155.6" y="79.92" width="68.65" height="61.94"/><rect class="cls-2" x="123.91" y="79.92" width="31.7" height="61.94"/><circle class="cls-2" cx="172.8" cy="126.03" r="7.88"/><circle class="cls-2" cx="176.74" cy="98.67" r="5.29"/><circle class="cls-1" cx="142.86" cy="113.73" r="7.31"/><circle class="cls-1" cx="133.85" cy="93.38" r="3.39"/><circle class="cls-2" cx="202.95" cy="104.45" r="11.07"/><rect class="cls-1" x="31.7" y="79.92" width="68.65" height="61.94"/><rect class="cls-2" y="79.92" width="31.7" height="61.94"/><circle class="cls-2" cx="48.9" cy="126.03" r="7.88"/><circle class="cls-2" cx="52.84" cy="98.67" r="5.29"/><circle class="cls-1" cx="18.96" cy="113.73" r="7.31"/><circle class="cls-1" cx="9.94" cy="93.38" r="3.39"/><circle class="cls-2" cx="79.05" cy="104.45" r="11.07"/><rect class="cls-1" x="93.88" width="68.65" height="61.94"/><rect class="cls-2" x="62.18" width="31.7" height="61.94"/><circle class="cls-2" cx="111.08" cy="46.11" r="7.88"/><circle class="cls-2" cx="115.02" cy="18.75" r="5.29"/><circle class="cls-1" cx="81.14" cy="33.81" r="7.31"/><circle class="cls-1" cx="72.12" cy="13.46" r="3.39"/><circle class="cls-2" cx="141.22" cy="24.53" r="11.07"/></g></g></svg>