<svg xmlns="http://www.w3.org/2000/svg" viewBox="0 0 494.4 492.68"><defs><style>.cls-1{isolation:isolate;}.cls-2{fill:#82a63b;}.cls-3{fill:#dbd9bf;}.cls-3,.cls-5{mix-blend-mode:multiply;}.cls-4{fill:#ed7a1f;}.cls-5{fill:#dec4a3;}.cls-6{fill:#ffad00;}</style></defs><title>Oranges</title><g class="cls-1"><g id="Layer_2" data-name="Layer 2"><g id="Layer_1-2" data-name="Layer 1"><path class="cls-2" d="M215,425.88a28,28,0,0,0,23.15-8.79,26.64,26.64,0,0,0,6.3-23.52,27.94,27.94,0,0,0-23.12,8.8A26.69,26.69,0,0,0,215,425.88Z"/><path class="cls-3" d="M215,425.87a27.94,27.94,0,0,0,23.15-8.78,26.67,26.67,0,0,0,6.3-23.52l-10.13,11.31,6.33.86L232.24,407Z"/><path class="cls-4" d="M255.65,451.2a41.48,41.48,0,1,1-41.48-41.48A41.28,41.28,0,0,1,255.65,451.2Z"/><path class="cls-5" d="M249.27,473.31a41.41,41.41,0,0,1-27,18.56c-7.21-10.67-8.09-26.23-8.09-33.33Z"/><path class="cls-6" d="M192.8,434a3.1,3.1,0,1,1-3.1-3.1A3.1,3.1,0,0,1,192.8,434Z"/><circle class="cls-6" cx="195.45" cy="440.94" r="1.38"/><circle class="cls-6" cx="201.45" cy="420.96" r="2.12"/><path class="cls-2" d="M453.78,195.69a28,28,0,0,0,23.15-8.79,26.64,26.64,0,0,0,6.3-23.52,27.94,27.94,0,0,0-23.12,8.8A26.69,26.69,0,0,0,453.78,195.69Z"/><path class="cls-3" d="M453.79,195.69a27.94,27.94,0,0,0,23.15-8.78,26.67,26.67,0,0,0,6.3-23.52L473.11,174.7l6.33.86L471,176.83Z"/><path class="cls-4" d="M494.4,221a41.48,41.48,0,1,1-41.48-41.48A41.28,41.28,0,0,1,494.4,221Z"/><path class="cls-5" d="M488,243.13a41.41,41.41,0,0,1-27,18.56c-7.21-10.67-8.09-26.23-8.09-33.33Z"/><path class="cls-6" d="M431.56,203.77a3.1,3.1,0,1,1-3.1-3.1A3.1,3.1,0,0,1,431.56,203.77Z"/><circle class="cls-6" cx="434.21" cy="210.76" r="1.38"/><circle class="cls-6" cx="440.2" cy="190.78" r="2.12"/><path class="cls-2" d="M42.34,124.15a28,28,0,0,0,23.15-8.79,26.64,26.64,0,0,0,6.3-23.52,27.94,27.94,0,0,0-23.12,8.8A26.69,26.69,0,0,0,42.34,124.15Z"/><path class="cls-3" d="M42.34,124.14a27.94,27.94,0,0,0,23.15-8.78,26.67,26.67,0,0,0,6.3-23.52L61.66,103.16,68,104l-8.44,1.26Z"/><path class="cls-4" d="M83,149.47A41.48,41.48,0,1,1,41.47,108,41.28,41.28,0,0,1,83,149.47Z"/><path class="cls-5" d="M76.57,171.58a41.41,41.41,0,0,1-27,18.56c-7.21-10.67-8.09-26.23-8.09-33.33Z"/><path class="cls-6" d="M20.11,132.22a3.1,3.1,0,1,1-3.1-3.1A3.1,3.1,0,0,1,20.11,132.22Z"/><circle class="cls-6" cx="22.76" cy="139.21" r="1.38"/><circle class="cls-6" cx="28.75" cy="119.23" r="2.12"/><path class="cls-2" d="M285,32.42a28,28,0,0,0,23.15-8.79A26.64,26.64,0,0,0,314.44.1a27.94,27.94,0,0,0-23.12,8.8A26.69,26.69,0,0,0,285,32.42Z"/><path class="cls-3" d="M285,32.41a27.94,27.94,0,0,0,23.15-8.78A26.67,26.67,0,0,0,314.45.11L304.32,11.43l6.33.86-8.44,1.26Z"/><path class="cls-4" d="M325.61,57.74a41.48,41.48,0,1,1-41.48-41.48A41.28,41.28,0,0,1,325.61,57.74Z"/><path class="cls-5" d="M319.23,79.85a41.41,41.41,0,0,1-27,18.56c-7.21-10.67-8.09-26.23-8.09-33.33Z"/><path class="cls-6" d="M262.77,40.49a3.1,3.1,0,1,1-3.1-3.1A3.1,3.1,0,0,1,262.77,40.49Z"/><circle class="cls-6" cx="265.42" cy="47.48" r="1.38"/><circle class="cls-6" cx="271.41" cy="27.5" r="2.12"/></g></g></g></svg>