<svg xmlns="http://www.w3.org/2000/svg" viewBox="0 0 496.49 157.85"><defs><style>.cls-1{fill:#be8d4a;}.cls-2{fill:#b08143;}.cls-3{fill:#b88848;}.cls-4{fill:#d6a361;}.cls-5{fill:#ab7d41;}.cls-6{fill:#b84500;}</style></defs><title>Potatos</title><g id="Layer_2" data-name="Layer 2"><g id="Layer_1-2" data-name="Layer 1"><path class="cls-1" d="M215.81,63.59c.26-1,1.16-1.07,2-.73-3.61-9.59-12.47-18.79-22.31-21.87a24.19,24.19,0,0,0-7.68-1.23.72.72,0,0,1-.31,1,1.52,1.52,0,0,1-2.08-.86,15.47,15.47,0,0,0-6,2.48,16.47,16.47,0,0,0-7.06,9.67,1.07,1.07,0,0,1,1,.44,1.48,1.48,0,0,1-.24,1.68.89.89,0,0,1-1.25-.16,16.19,16.19,0,0,0-.32,1.78,29.73,29.73,0,0,0-.1,6.83c.47-.31.87-.17,1.25.46.27.45.52.91.73,1.35-.42.73-.9.79-1.57.28l-.18-.15A37.78,37.78,0,0,0,183,86.68a1.76,1.76,0,0,1,.44-.22c1.09-.31,1.73.92,2.16,1.78,0,.09,0,.23-.16.36a16.79,16.79,0,0,0,8.92,2.89,20.18,20.18,0,0,0,10.73-2.72c-.51-.68,0-2.22.92-2.24.56,0,.86.56,1,1.07v.09a7.81,7.81,0,0,0,.79-.47c4-2.48,7.88-6.19,9.76-10.09a16.13,16.13,0,0,0,1.26-10.84C217.44,66.89,215.41,65,215.81,63.59Z"/><path class="cls-2" d="M187.52,40.79a.72.72,0,0,0,.31-1c-.79,0-1.59.09-2.4.18A1.52,1.52,0,0,0,187.52,40.79Z"/><path class="cls-2" d="M206,86.52c-.9,0-1.43,1.56-.92,2.24.64-.34,1.28-.7,1.9-1.09v-.09C206.9,87.08,206.6,86.51,206,86.52Z"/><path class="cls-2" d="M173.13,54.21a1.48,1.48,0,0,0,.24-1.68,1.07,1.07,0,0,0-1-.44c-.19.66-.37,1.34-.51,2A.89.89,0,0,0,173.13,54.21Z"/><path class="cls-2" d="M173.44,64.47c-.21-.44-.46-.9-.73-1.35-.38-.64-.77-.77-1.25-.46.05.65.13,1.28.23,1.94l.18.15C172.55,65.26,173,65.19,173.44,64.47Z"/><path class="cls-2" d="M185.64,88.24c-.43-.86-1.06-2.09-2.16-1.78a1.76,1.76,0,0,0-.44.22c.79.69,1.6,1.31,2.44,1.92C185.61,88.47,185.68,88.32,185.64,88.24Z"/><path class="cls-2" d="M215.81,63.59c-.4,1.42,1.63,3.3,3,2.69a30.58,30.58,0,0,0-1-3.43C217,62.52,216.07,62.59,215.81,63.59Z"/><path class="cls-2" d="M191.21,53.89a2.38,2.38,0,0,0,1.15-.17c1.73-.55,2.57-3,0-3.27C190.74,50.26,189.54,53.72,191.21,53.89Z"/><path class="cls-2" d="M209.14,67.58c.66-1.69-1-4.51-2.18-2.53-.49.79,0,1.81.39,2.55C207.9,68.54,208.6,69,209.14,67.58Z"/><path class="cls-2" d="M183.39,63.69a1.67,1.67,0,0,0-2.66-1.53c-.79.68-1.12,2.48.19,3.08A1.78,1.78,0,0,0,183.39,63.69Z"/><path class="cls-2" d="M198.08,81.81a3.19,3.19,0,0,0,.12-1c0-2.1-1.86-1.72-2.36-.27C195.18,82.45,197.5,83.9,198.08,81.81Z"/><path class="cls-2" d="M184,51c-.23-1.2-2.89-2.26-2.77.06.06,1.35.63,1.51,1.58,1.21S184.06,51.45,184,51Z"/><path class="cls-2" d="M198.38,68.65c.86-2-2.37-4.29-3-1.89a2.39,2.39,0,0,0,.36,2C196.47,69.71,197.76,70.06,198.38,68.65Z"/><path class="cls-2" d="M201.17,46.51c.55-1.53-2-3.12-2.41-1.69S200.62,48,201.17,46.51Z"/><path class="cls-2" d="M208.77,56.29c1-1.45-1.39-4.39-2.48-2C205.51,56,207.61,58,208.77,56.29Z"/><path class="cls-2" d="M183.53,78.06c-1.62.18-3.2-3.39-1.07-3.55a1.8,1.8,0,0,1,1.56,1C184.63,76.54,184.66,78,183.53,78.06Z"/><path class="cls-2" d="M206.79,80.11a1.46,1.46,0,0,1-1.45-1.73,1.41,1.41,0,0,1,2-1.15c1.33.43,1.75,1.64,1.3,2.33C208.35,80,207.56,80.11,206.79,80.11Z"/><path class="cls-2" d="M199.09,59.3c-.79,0-.76-1.38.14-1.07S199.79,59.32,199.09,59.3Z"/><path class="cls-2" d="M188,84.76c-.81,0-.64-1.43.24-1.11S188.67,84.8,188,84.76Z"/><path class="cls-2" d="M177.52,48.26c-1.25-.12-1.2-2.42.24-1.82S178.62,48.34,177.52,48.26Z"/><path class="cls-2" d="M211.79,75.54a.68.68,0,1,1,.25-1.31C213.09,74.55,212.67,75.54,211.79,75.54Z"/><path class="cls-2" d="M196.94,45c-.77,0-.77-1.35.12-1S197.64,45,196.94,45Z"/><path class="cls-1" d="M423.31,77.77c1-.13,1.41.68,1.43,1.6,7.56-6.91,12.82-18.55,12-28.84a24.11,24.11,0,0,0-1.7-7.58A.72.72,0,0,1,434,43a1.52,1.52,0,0,1,0-2.25,15.53,15.53,0,0,0-4.52-4.66,16.55,16.55,0,0,0-11.6-3,1.07,1.07,0,0,1,0,1.08,1.5,1.5,0,0,1-1.65.4.87.87,0,0,1-.3-1.21,15.29,15.29,0,0,0-1.78.35,29.62,29.62,0,0,0-6.37,2.45c.46.33.47.74,0,1.33a15.16,15.16,0,0,1-1,1.19c-.82-.12-1.06-.55-.83-1.36,0-.09,0-.15.07-.23a37.78,37.78,0,0,0-16.3,18.72,1.58,1.58,0,0,1,.37.34c.69.9-.21,1.94-.86,2.65-.06.08-.22.07-.38,0a16.76,16.76,0,0,0,.62,9.35,20.19,20.19,0,0,0,6.51,9c.44-.73,2.06-.81,2.41,0,.23.51-.2,1-.62,1.3l-.08,0c.24.2.49.39.73.56,3.79,2.8,8.68,5,13,5.32a16.15,16.15,0,0,0,10.53-2.86C420.85,80.51,421.85,77.93,423.31,77.77Z"/><path class="cls-2" d="M434,43a.72.72,0,0,0,1.09-.09c-.31-.73-.67-1.45-1.06-2.16A1.52,1.52,0,0,0,434,43Z"/><path class="cls-2" d="M398.38,77.21c-.35-.84-2-.76-2.41,0,.56.47,1.12.93,1.71,1.36l.08,0C398.18,78.21,398.62,77.72,398.38,77.21Z"/><path class="cls-2" d="M416.19,34.66a1.5,1.5,0,0,0,1.65-.4,1.07,1.07,0,0,0,0-1.08c-.7.07-1.37.15-2,.27A.87.87,0,0,0,416.19,34.66Z"/><path class="cls-2" d="M406.77,38.77a15.16,15.16,0,0,0,1-1.19c.45-.59.44-1,0-1.33-.59.28-1.15.6-1.72.93,0,.08,0,.14-.07.23C405.71,38.21,405.95,38.64,406.77,38.77Z"/><path class="cls-2" d="M389.22,58.89c.65-.72,1.55-1.75.86-2.65a1.58,1.58,0,0,0-.37-.34c-.34,1-.62,2-.87,3C389,59,389.16,59,389.22,58.89Z"/><path class="cls-2" d="M423.31,77.77c-1.46.16-2.46,2.74-1.38,3.8a32.75,32.75,0,0,0,2.81-2.2C424.73,78.46,424.33,77.65,423.31,77.77Z"/><path class="cls-2" d="M423.19,51.33a2.62,2.62,0,0,0,.59,1c1.15,1.4,3.7,1.28,3-1.25C426.39,49.55,422.73,49.73,423.19,51.33Z"/><path class="cls-2" d="M417.13,73.07c1.8,0,3.81-2.62,1.54-3-.91-.16-1.69.65-2.22,1.3C415.77,72.28,415.62,73.08,417.13,73.07Z"/><path class="cls-2" d="M411.19,47.71a1.67,1.67,0,0,0,.43-3c-.93-.48-2.7-.12-2.78,1.32A1.78,1.78,0,0,0,411.19,47.71Z"/><path class="cls-2" d="M399.8,68.07a3.76,3.76,0,0,0,1-.24c2-.75.91-2.37-.63-2.3C398.15,65.62,397.66,68.3,399.8,68.07Z"/><path class="cls-2" d="M423.19,43.52c1-.65,1-3.52-1.07-2.54-1.23.55-1.18,1.14-.54,1.91S422.8,43.78,423.19,43.52Z"/><path class="cls-2" d="M412.14,63.46c2.15.08,3.1-3.78.64-3.47a2.41,2.41,0,0,0-1.7,1.06C410.45,62.08,410.6,63.42,412.14,63.46Z"/><path class="cls-2" d="M433.74,57.85c1.62-.07,2.16-3,.67-2.87S432.12,57.9,433.74,57.85Z"/><path class="cls-2" d="M427.47,68.53c1.71.36,3.57-2.93.95-3.05C426.58,65.37,425.47,68.09,427.47,68.53Z"/><path class="cls-2" d="M397.89,53.17c-.77-1.44,2-4.23,2.92-2.31a1.76,1.76,0,0,1-.38,1.83C399.72,53.63,398.41,54.18,397.89,53.17Z"/><path class="cls-2" d="M404.63,75.52a1.47,1.47,0,0,1,1.07-2A1.42,1.42,0,0,1,407.51,75c.09,1.4-.87,2.24-1.69,2.08C405.28,76.95,404.91,76.23,404.63,75.52Z"/><path class="cls-2" d="M421.09,60.66c-.25-.76,1-1.21,1.06-.27S421.33,61.31,421.09,60.66Z"/><path class="cls-2" d="M393.33,59.79c-.28-.76,1.09-1.12,1.12-.18S393.55,60.44,393.33,59.79Z"/><path class="cls-2" d="M423.35,36.53c-.36-1.21,1.79-2,1.77-.44S423.68,37.59,423.35,36.53Z"/><path class="cls-2" d="M410.73,78.47a.67.67,0,1,1,1.29-.24C412.12,79.31,411.06,79.29,410.73,78.47Z"/><path class="cls-2" d="M433.58,53.34c-.24-.72,1-1.2,1-.27S433.81,54,433.58,53.34Z"/><path class="cls-1" d="M424.63,115.14c.68-.87,1.59-.55,2.29.14.56-11-4.22-23.85-12.59-31.11a26.23,26.23,0,0,0-7-4.5.78.78,0,0,1-.76.9,1.65,1.65,0,0,1-1.69-1.75,16.54,16.54,0,0,0-6.95-.13,17.72,17.72,0,0,0-11.1,6.49,1.15,1.15,0,0,1,.77.86,1.58,1.58,0,0,1-1,1.55c-.5.19-1-.18-1.15-.69a15.28,15.28,0,0,0-1.08,1.62,32.1,32.1,0,0,0-3,6.68c.61-.1.93.21,1,1,.07.56.13,1.12.14,1.65-.73.53-1.22.38-1.66-.4l-.12-.24c-2.44,8.76-1.81,18.85,1.69,26.61a1.48,1.48,0,0,1,.54,0c1.21.17,1.31,1.64,1.36,2.67,0,.11-.12.22-.31.28a18,18,0,0,0,7.53,6.68c3.71,1.91,7.76,2.2,11.74,1.92-.22-.89,1-2.18,1.86-1.82.56.23.6.92.51,1.47l0,.08c.33,0,.67-.08,1-.13,5-.71,10.41-2.7,13.94-5.74a17.32,17.32,0,0,0,5.89-10.13C424.82,119.08,423.62,116.36,424.63,115.14Z"/><path class="cls-2" d="M406.54,80.56a.78.78,0,0,0,.76-.9c-.79-.32-1.6-.6-2.45-.85A1.65,1.65,0,0,0,406.54,80.56Z"/><path class="cls-2" d="M405.17,133.53c-.9-.36-2.08.93-1.86,1.82.77-.07,1.55-.14,2.33-.26l0-.08C405.77,134.45,405.73,133.76,405.17,133.53Z"/><path class="cls-2" d="M386.62,87.59a1.58,1.58,0,0,0,1-1.55,1.15,1.15,0,0,0-.77-.86c-.48.57-.94,1.17-1.34,1.72C385.67,87.41,386.12,87.78,386.62,87.59Z"/><path class="cls-2" d="M382.53,97.84c0-.54-.07-1.09-.14-1.65-.11-.79-.42-1.1-1-1-.22.66-.41,1.32-.6,2l.12.24C381.31,98.23,381.81,98.37,382.53,97.84Z"/><path class="cls-2" d="M384.34,126.47c-.05-1-.15-2.51-1.36-2.67a1.48,1.48,0,0,0-.54,0c.49,1,1,2,1.59,2.93C384.22,126.68,384.35,126.57,384.34,126.47Z"/><path class="cls-2" d="M424.63,115.14c-1,1.23.19,3.95,1.81,3.95a34.47,34.47,0,0,0,.47-3.81C426.23,114.58,425.31,114.27,424.63,115.14Z"/><path class="cls-2" d="M404.56,95a2.85,2.85,0,0,0,1.21.33c1.94.2,3.79-1.81,1.37-3.25C405.66,91.26,403,94.16,404.56,95Z"/><path class="cls-2" d="M416.34,116.21c1.37-1.38.94-4.87-1.05-3.43-.82.57-.8,1.77-.71,2.68C414.71,116.63,415.21,117.36,416.34,116.21Z"/><path class="cls-2" d="M392.67,101.33a1.8,1.8,0,0,0-2-2.64c-1.07.33-2.15,2-1.14,3.11A1.92,1.92,0,0,0,392.67,101.33Z"/><path class="cls-2" d="M399.35,125.48a3.89,3.89,0,0,0,.54-.91c.93-2-1.09-2.49-2.21-1.27C396.23,124.86,397.89,127.28,399.35,125.48Z"/><path class="cls-2" d="M398.66,89.07c.3-1.28-1.87-3.47-2.74-1.13-.53,1.35,0,1.76,1,1.86S398.56,89.57,398.66,89.07Z"/><path class="cls-2" d="M405.29,112.64c1.7-1.57-.5-5.23-2.13-3.14a2.61,2.61,0,0,0-.49,2.1C403,112.86,404.07,113.77,405.29,112.64Z"/><path class="cls-2" d="M417.54,92c1.19-1.28-.62-3.93-1.66-2.7S416.34,93.31,417.54,92Z"/><path class="cls-2" d="M420.82,104.94c1.58-1,.51-4.94-1.59-3C417.75,103.2,418.95,106.11,420.82,104.94Z"/><path class="cls-2" d="M386.63,115.55c-1.67-.51-1.7-4.71.47-4a1.9,1.9,0,0,1,1.09,1.68C388.37,114.53,387.8,115.93,386.63,115.55Z"/><path class="cls-2" d="M408.67,127.53a1.58,1.58,0,0,1-.69-2.33,1.53,1.53,0,0,1,2.46-.27c1.12,1,1,2.37.28,2.87C410.24,128.12,409.41,127.86,408.67,127.53Z"/><path class="cls-2" d="M410,103.75c-.76-.39-.14-1.68.6-1S410.68,104.06,410,103.75Z"/><path class="cls-2" d="M388.15,124.05c-.79-.36,0-1.69.72-1S388.82,124.39,388.15,124.05Z"/><path class="cls-2" d="M393.5,83.61c-1.19-.65-.16-2.89,1-1.67S394.55,84.17,393.5,83.61Z"/><path class="cls-2" d="M415.55,125.18a.73.73,0,1,1,.8-1.17C417.24,124.75,416.4,125.55,415.55,125.18Z"/><path class="cls-2" d="M414,88.73c-.73-.37-.17-1.66.57-1S414.68,89.06,414,88.73Z"/><path class="cls-3" d="M250.14,40.76c.79-.83,1.72-.46,2.41.34,1.42-11.63-2.67-25.62-11-33.93a27.4,27.4,0,0,0-7.12-5.3.82.82,0,0,1-.87.87,1.72,1.72,0,0,1-1.66-2,17.9,17.9,0,0,0-7.37-.69,18.89,18.89,0,0,0-12.27,6.08,1.2,1.2,0,0,1,.79,1,1.77,1.77,0,0,1-1.16,1.58c-.55.17-1-.27-1.17-.83-.47.55-.89,1.11-1.28,1.63a33.69,33.69,0,0,0-3.69,6.87c.65-.06.94.29,1,1.15a12.23,12.23,0,0,1,0,1.75c-.81.48-1.32.29-1.73-.56a1.32,1.32,0,0,0-.11-.26c-3.25,9.11-3.32,19.86-.2,28.35a1.2,1.2,0,0,1,.56,0c1.28.29,1.26,1.83,1.25,2.93,0,.14-.14.21-.37.27a19.28,19.28,0,0,0,7.53,7.64c3.75,2.3,8.05,2.93,12.27,2.92-.15-1,1.2-2.21,2.1-1.77.59.27.58,1,.44,1.61a.52.52,0,0,0-.05.1l1.07-.07c5.36-.39,11.24-2.1,15.19-5.05a18.33,18.33,0,0,0,7-10.29C250.05,45,249,42,250.14,40.76Z"/><path class="cls-1" d="M233.58,2.73a.82.82,0,0,0,.87-.87A24.44,24.44,0,0,0,231.92.78,1.72,1.72,0,0,0,233.58,2.73Z"/><path class="cls-1" d="M228.11,58.81c-.91-.44-2.26.82-2.1,1.77.84,0,1.67,0,2.5-.07a.52.52,0,0,1,.05-.1C228.69,59.83,228.69,59.08,228.11,58.81Z"/><path class="cls-1" d="M211.91,8.7a1.77,1.77,0,0,0,1.16-1.58,1.2,1.2,0,0,0-.79-1c-.55.55-1.07,1.13-1.54,1.7C210.93,8.43,211.36,8.87,211.91,8.7Z"/><path class="cls-1" d="M206.8,19.27a12.23,12.23,0,0,0,0-1.75c-.07-.86-.36-1.21-1-1.15-.29.67-.55,1.39-.8,2.08a1.32,1.32,0,0,1,.11.26C205.48,19.56,206,19.75,206.8,19.27Z"/><path class="cls-1" d="M206.57,49.75c0-1.11,0-2.65-1.25-2.93a1.2,1.2,0,0,0-.56,0A32.25,32.25,0,0,0,206.2,50C206.43,50,206.56,49.88,206.57,49.75Z"/><path class="cls-1" d="M250.14,40.76C249,42,250.05,45,251.77,45.09a34.07,34.07,0,0,0,.78-4C251.86,40.3,250.93,39.93,250.14,40.76Z"/><path class="cls-1" d="M230.36,18a3.6,3.6,0,0,0,1.28.44c2,.35,4.16-1.66,1.69-3.36C231.84,14,228.77,16.9,230.36,18Z"/><path class="cls-1" d="M241.28,41.28c1.56-1.35,1.36-5.1-.86-3.72-.93.56-1,1.83-1,2.8C239.53,41.6,240,42.41,241.28,41.28Z"/><path class="cls-1" d="M217.31,23.74a1.93,1.93,0,0,0-1.92-3C214.23,21,213,22.68,214,24A2.09,2.09,0,0,0,217.31,23.74Z"/><path class="cls-1" d="M222.56,49.84a4.1,4.1,0,0,0,.63-.95c1.15-2.08-1-2.71-2.24-1.51C219.29,49,220.85,51.63,222.56,49.84Z"/><path class="cls-1" d="M224.58,11.17c.4-1.33-1.72-3.81-2.84-1.39-.66,1.4-.17,1.84,1,2.05S224.43,11.67,224.58,11.17Z"/><path class="cls-1" d="M229.81,36.69c1.93-1.54-.11-5.59-2-3.5a2.59,2.59,0,0,0-.64,2.18C227.33,36.73,228.44,37.79,229.81,36.69Z"/><path class="cls-1" d="M244.38,15.75c1.35-1.26-.37-4.21-1.59-3S243,17,244.38,15.75Z"/><path class="cls-1" d="M246.88,29.66c1.73-1,.9-5.16-1.47-3.33C243.75,27.6,244.8,30.77,246.88,29.66Z"/><path class="cls-1" d="M209.81,38.35c-1.69-.68-1.44-5.13.81-4.17a2,2,0,0,1,1,1.87C211.73,37.38,211,38.83,209.81,38.35Z"/><path class="cls-1" d="M232.28,52.71a1.63,1.63,0,0,1-.55-2.49,1.58,1.58,0,0,1,2.62-.13c1.14,1.13.91,2.57.11,3.06C233.9,53.45,233,53.11,232.28,52.71Z"/><path class="cls-1" d="M235.49,27.59c-.78-.45,0-1.77.73-1S236.19,28,235.49,27.59Z"/><path class="cls-1" d="M210.79,47.48c-.81-.46.12-1.79.82-1S211.47,47.87,210.79,47.48Z"/><path class="cls-1" d="M219.5,5c-1.2-.77.09-3.05,1.22-1.7S220.58,5.67,219.5,5Z"/><path class="cls-1" d="M239.76,50.72a.78.78,0,1,1,.94-1.2C241.59,50.41,240.66,51.21,239.76,50.72Z"/><path class="cls-1" d="M240.89,12c-.77-.46-.08-1.76.66-1S241.56,12.36,240.89,12Z"/><path class="cls-4" d="M106.08,36.41c.28.73-.22,1.19-.93,1.36,6.67,4.42,16.47,6.15,24.09,3.62a19.17,19.17,0,0,0,5.4-2.75.59.59,0,0,1-.28-.81,1.17,1.17,0,0,1,1.71-.39,12.64,12.64,0,0,0,2.66-4.32,12.81,12.81,0,0,0,0-9.33.82.82,0,0,1-.83.17,1.17,1.17,0,0,1-.62-1.17c.07-.39.47-.53.88-.47a14.06,14.06,0,0,0-.62-1.28,24.36,24.36,0,0,0-3.06-4.35c-.17.43-.47.49-1,.28a11.38,11.38,0,0,1-1.07-.52c-.06-.64.22-.9.88-.89l.19,0a29.4,29.4,0,0,0-17.27-8.74,1.82,1.82,0,0,1-.16.34c-.56.68-1.54.2-2.2-.15-.06,0-.08-.14-.06-.29a13.06,13.06,0,0,0-7,2.27,15.76,15.76,0,0,0-5.52,6.61c.63.19,1,1.43.44,1.84-.34.27-.8,0-1.11-.23,0,0,0,0-.05-.06-.1.22-.16.46-.27.68a20.72,20.72,0,0,0-1.54,10.82,12.35,12.35,0,0,0,4.17,7.4C103.52,35.08,105.69,35.33,106.08,36.41Z"/><path class="cls-1" d="M134.37,37.83a.59.59,0,0,0,.28.81,17,17,0,0,0,1.43-1.2A1.17,1.17,0,0,0,134.37,37.83Z"/><path class="cls-1" d="M101.76,17.45c.55-.41.19-1.65-.44-1.84-.24.53-.5,1-.72,1.56,0,0,0,0,.05.06C101,17.48,101.42,17.72,101.76,17.45Z"/><path class="cls-1" d="M137.32,22.79a1.17,1.17,0,0,0,.62,1.17.82.82,0,0,0,.83-.17c-.18-.51-.36-1-.57-1.47C137.78,22.27,137.39,22.4,137.32,22.79Z"/><path class="cls-1" d="M132.42,16.45a11.38,11.38,0,0,0,1.07.52c.55.22.85.15,1-.28l-1-1.12-.19,0C132.63,15.55,132.36,15.8,132.42,16.45Z"/><path class="cls-1" d="M113.85,7c.66.35,1.64.83,2.2.15a1.82,1.82,0,0,0,.16-.34,17.33,17.33,0,0,0-2.42-.1C113.77,6.88,113.78,7,113.85,7Z"/><path class="cls-1" d="M106.08,36.41c-.4-1.08-2.57-1.33-3.13-.33a16.17,16.17,0,0,0,2.2,1.69C105.86,37.6,106.37,37.14,106.08,36.41Z"/><path class="cls-1" d="M126.05,31.26a2.06,2.06,0,0,0-.67.64c-.84,1.14-.25,3,1.53,2.06C128,33.35,127.19,30.6,126.05,31.26Z"/><path class="cls-1" d="M108.48,30.84c.34,1.36,2.67,2.38,2.52.6-.06-.73-.82-1.17-1.42-1.44C108.81,29.66,108.18,29.7,108.48,30.84Z"/><path class="cls-1" d="M126.51,21.53a1.31,1.31,0,0,0,2.38-.27c.2-.79-.42-2.06-1.53-1.86A1.41,1.41,0,0,0,126.51,21.53Z"/><path class="cls-1" d="M108.93,16.79a3.12,3.12,0,0,0,.39.68c.92,1.32,1.94.21,1.6-.93C110.47,15.06,108.34,15.2,108.93,16.79Z"/><path class="cls-1" d="M132,29.78c.67.65,2.84.12,1.72-1.31-.67-.81-1.09-.66-1.57,0S131.7,29.52,132,29.78Z"/><path class="cls-1" d="M114.77,25.24c.36,1.63,3.45,1.61,2.76-.18A1.76,1.76,0,0,0,116.39,24C115.52,23.69,114.51,24,114.77,25.24Z"/><path class="cls-1" d="M123.14,40.48c.36,1.23,2.7,1.06,2.3,0S122.78,39.27,123.14,40.48Z"/><path class="cls-1" d="M113.87,37.79c.06,1.36,2.89,2.12,2.49.11C116.08,36.51,113.82,36.18,113.87,37.79Z"/><path class="cls-1" d="M119.83,12.47c.93-.83,3.56.69,2.31,1.77a1.39,1.39,0,0,1-1.46.08C119.84,14,119.19,13.07,119.83,12.47Z"/><path class="cls-1" d="M104.23,21.85a1.13,1.13,0,0,1,1.7.44,1.1,1.1,0,0,1-.74,1.63c-1,.33-1.85-.22-1.88-.86C103.29,22.6,103.74,22.19,104.23,21.85Z"/><path class="cls-1" d="M118.59,31.47c.51-.35,1.1.51.41.74S118.16,31.76,118.59,31.47Z"/><path class="cls-1" d="M114,10.31c.51-.35,1.05.61.38.81S113.51,10.61,114,10.31Z"/><path class="cls-1" d="M137.29,28.55c.84-.5,1.85,1,.68,1.25S136.55,29,137.29,28.55Z"/><path class="cls-1" d="M103.16,27a.52.52,0,1,1,.44.91C102.79,28.24,102.59,27.42,103.16,27Z"/><path class="cls-1" d="M126.51,39.5c.5-.33,1.11.51.39.72S126.07,39.8,126.51,39.5Z"/><path class="cls-4" d="M32.19,103.84c-.78-.11-1-.76-.78-1.46-7,3.87-13.08,11.75-14.37,19.69a19,19,0,0,0-.06,6.06.6.6,0,0,1,.85.13,1.18,1.18,0,0,1-.45,1.7A12.63,12.63,0,0,0,20,134.3a12.83,12.83,0,0,0,8.26,4.34.84.84,0,0,1,.23-.81,1.18,1.18,0,0,1,1.32,0,.7.7,0,0,1,0,1,11.1,11.1,0,0,0,1.43.05,23.89,23.89,0,0,0,5.27-.7c-.3-.35-.22-.65.23-1a10.81,10.81,0,0,1,1-.71c.58.24.69.61.37,1.2l-.11.15A29.4,29.4,0,0,0,53.72,126.5a1.21,1.21,0,0,1-.23-.31c-.33-.8.53-1.46,1.15-1.87.05,0,.16,0,.29.08a13.07,13.07,0,0,0,1.2-7.22,15.8,15.8,0,0,0-3.3-7.95c-.47.47-1.72.22-1.84-.46-.08-.43.35-.72.72-.88h.07c-.14-.19-.32-.37-.49-.56A20.69,20.69,0,0,0,42.42,101a12.35,12.35,0,0,0-8.49.27C34.55,102.17,33.34,104,32.19,103.84Z"/><path class="cls-1" d="M17.83,128.25a.6.6,0,0,0-.85-.13,15.6,15.6,0,0,0,.4,1.83A1.18,1.18,0,0,0,17.83,128.25Z"/><path class="cls-1" d="M51,108.78c.12.68,1.37.93,1.84.46-.35-.46-.7-.92-1.05-1.35h-.07C51.34,108.06,50.91,108.35,51,108.78Z"/><path class="cls-1" d="M29.8,137.82a1.18,1.18,0,0,0-1.32,0,.84.84,0,0,0-.23.81,14,14,0,0,0,1.56.17A.7.7,0,0,0,29.8,137.82Z"/><path class="cls-1" d="M37.7,136.41a10.81,10.81,0,0,0-1,.71c-.45.39-.54.69-.23,1,.49-.14,1-.25,1.46-.4l.11-.15C38.39,137,38.28,136.66,37.7,136.41Z"/><path class="cls-1" d="M54.64,124.32c-.63.41-1.49,1.07-1.15,1.87a1.21,1.21,0,0,0,.23.31,17.76,17.76,0,0,0,1.21-2.1C54.81,124.31,54.7,124.28,54.64,124.32Z"/><path class="cls-1" d="M32.19,103.84c1.15.14,2.36-1.67,1.75-2.62a17,17,0,0,0-2.53,1.16C31.24,103.08,31.41,103.74,32.19,103.84Z"/><path class="cls-1" d="M27.51,123.92a2.29,2.29,0,0,0-.26-.89c-.62-1.27-2.58-1.64-2.53.41C24.74,124.69,27.56,125.23,27.51,123.92Z"/><path class="cls-1" d="M36,108.54c-1.36-.33-3.35,1.27-1.7,1.95.67.3,1.42-.19,1.94-.6S37.17,108.8,36,108.54Z"/><path class="cls-1" d="M35.92,128.82a1.31,1.31,0,0,0-.85,2.24,1.48,1.48,0,0,0,2.35-.49A1.4,1.4,0,0,0,35.92,128.82Z"/><path class="cls-1" d="M48.26,115.44a2.94,2.94,0,0,0-.78,0c-1.61.19-1.09,1.62.08,1.84C49.08,117.61,49.94,115.66,48.26,115.44Z"/><path class="cls-1" d="M26.08,129.85c-.9.3-1.42,2.46.37,2.13,1-.21,1.08-.66.75-1.37S26.42,129.72,26.08,129.85Z"/><path class="cls-1" d="M38.07,116.69c-1.61-.43-3,2.31-1.12,2.54a1.75,1.75,0,0,0,1.47-.51C39.1,118.09,39.25,117,38.07,116.69Z"/><path class="cls-1" d="M20.68,117.08c-1.26-.27-2.2,1.89-1,2S21.92,117.3,20.68,117.08Z"/><path class="cls-1" d="M27.35,110.09c-1.21-.57-3.21,1.57-1.24,2.16C27.48,112.65,28.81,110.79,27.35,110.09Z"/><path class="cls-1" d="M47,127.11c.31,1.21-2.27,2.83-2.64,1.22A1.41,1.41,0,0,1,45,127C45.72,126.43,46.81,126.26,47,127.11Z"/><path class="cls-1" d="M46,108.92a1.14,1.14,0,0,1-1.17,1.31,1.1,1.1,0,0,1-1.11-1.41c.17-1.07,1.06-1.54,1.63-1.27C45.72,107.75,45.87,108.34,46,108.92Z"/><path class="cls-1" d="M30.78,117.2c.08.63-1,.75-.85,0S30.71,116.68,30.78,117.2Z"/><path class="cls-1" d="M51.67,122.89c.08.62-1,.65-.88,0S51.62,122.36,51.67,122.89Z"/><path class="cls-1" d="M24.7,135.12c.06,1-1.72,1.2-1.42,0S24.64,134.27,24.7,135.12Z"/><path class="cls-1" d="M41.85,105.58c.12.78-1.17.87-1,0S41.78,104.89,41.85,105.58Z"/><path class="cls-1" d="M20,120.51c.06.6-1,.74-.81,0S19.93,120,20,120.51Z"/><path class="cls-4" d="M433.82,79c.28.73-.22,1.19-.93,1.37,6.66,4.41,16.47,6.14,24.09,3.61a19.44,19.44,0,0,0,5.41-2.75.59.59,0,0,1-.29-.81,1.17,1.17,0,0,1,1.71-.39,12.51,12.51,0,0,0,2.65-4.32,12.87,12.87,0,0,0,0-9.33.84.84,0,0,1-.83.17,1.19,1.19,0,0,1-.63-1.17c.08-.39.49-.52.88-.46a10.81,10.81,0,0,0-.62-1.29,23.6,23.6,0,0,0-3.05-4.34c-.17.43-.46.5-1,.28a11.26,11.26,0,0,1-1.08-.53c-.06-.64.23-.89.89-.88a.8.8,0,0,1,.18,0,29.4,29.4,0,0,0-17.27-8.75,1.38,1.38,0,0,1-.17.35c-.55.67-1.53.21-2.19-.16-.07,0-.08-.14-.07-.29a13,13,0,0,0-7,2.27,15.7,15.7,0,0,0-5.52,6.6c.64.19,1,1.42.44,1.84-.34.26-.8,0-1.11-.23,0,0,0,0-.05-.06-.09.22-.17.46-.26.68a20.72,20.72,0,0,0-1.54,10.82,12.4,12.4,0,0,0,4.17,7.4C431.26,77.67,433.43,77.9,433.82,79Z"/><path class="cls-1" d="M462.11,80.41a.59.59,0,0,0,.29.81,14.83,14.83,0,0,0,1.42-1.2A1.17,1.17,0,0,0,462.11,80.41Z"/><path class="cls-1" d="M429.5,60c.55-.42.2-1.65-.44-1.84-.24.52-.5,1-.72,1.56,0,0,0,0,.05.06C428.7,60.07,429.15,60.3,429.5,60Z"/><path class="cls-1" d="M465,65.37a1.19,1.19,0,0,0,.63,1.17.84.84,0,0,0,.83-.17,15.43,15.43,0,0,0-.57-1.47C465.54,64.86,465.13,65,465,65.37Z"/><path class="cls-1" d="M460.15,59a11.26,11.26,0,0,0,1.08.53c.55.22.85.15,1-.28-.35-.37-.68-.76-1-1.11a.8.8,0,0,0-.18,0C460.38,58.14,460.1,58.39,460.15,59Z"/><path class="cls-1" d="M441.59,49.6c.66.37,1.63.83,2.19.16a1.38,1.38,0,0,0,.17-.35,17.48,17.48,0,0,0-2.42-.1C441.5,49.47,441.52,49.58,441.59,49.6Z"/><path class="cls-1" d="M433.82,79c-.4-1.09-2.56-1.33-3.13-.34a17.07,17.07,0,0,0,2.2,1.71C433.6,80.19,434.1,79.72,433.82,79Z"/><path class="cls-1" d="M453.78,73.84a2.36,2.36,0,0,0-.66.64c-.84,1.14-.26,3,1.53,2.06C455.75,75.93,454.93,73.18,453.78,73.84Z"/><path class="cls-1" d="M436.23,73.42c.34,1.36,2.67,2.38,2.53.61-.06-.73-.83-1.17-1.44-1.45C436.55,72.24,435.92,72.28,436.23,73.42Z"/><path class="cls-1" d="M454.25,64.11a1.31,1.31,0,0,0,2.37-.28c.2-.79-.41-2.06-1.52-1.86A1.41,1.41,0,0,0,454.25,64.11Z"/><path class="cls-1" d="M436.67,59.37a2.62,2.62,0,0,0,.38.67c.91,1.34,1.94.22,1.59-.92C438.21,57.64,436.08,57.78,436.67,59.37Z"/><path class="cls-1" d="M459.71,72.36c.67.67,2.83.12,1.71-1.3-.67-.82-1.08-.66-1.56,0S459.44,72.11,459.71,72.36Z"/><path class="cls-1" d="M442.51,67.82c.36,1.62,3.46,1.62,2.76-.19a1.8,1.8,0,0,0-1.14-1.07C443.25,66.27,442.25,66.62,442.51,67.82Z"/><path class="cls-1" d="M450.89,83.06c.35,1.24,2.69,1.06,2.3,0S450.52,81.87,450.89,83.06Z"/><path class="cls-1" d="M441.61,80.38c.05,1.35,2.88,2.12,2.49.11C443.82,79.09,441.55,78.76,441.61,80.38Z"/><path class="cls-1" d="M447.57,55c.93-.83,3.57.7,2.3,1.77a1.38,1.38,0,0,1-1.45.08C447.59,56.54,446.92,55.65,447.57,55Z"/><path class="cls-1" d="M432,64.43a1.13,1.13,0,0,1,1.7.43,1.09,1.09,0,0,1-.74,1.64c-1,.34-1.85-.22-1.88-.85C431,65.18,431.48,64.78,432,64.43Z"/><path class="cls-1" d="M446.33,74.05c.51-.35,1.09.52.41.74S445.9,74.35,446.33,74.05Z"/><path class="cls-1" d="M441.7,52.9c.51-.36,1.06.6.37.79S441.26,53.19,441.7,52.9Z"/><path class="cls-1" d="M465,71.14c.84-.51,1.85,1,.67,1.25S464.29,71.59,465,71.14Z"/><path class="cls-1" d="M430.89,69.62c.64-.47,1.32.64.45.91S430.32,70,430.89,69.62Z"/><path class="cls-1" d="M454.26,82.08c.5-.33,1.1.5.39.71S453.81,82.39,454.26,82.08Z"/><path class="cls-4" d="M200.22,17.11c-.21-.76.33-1.17,1-1.29-6.29-4.92-15.92-7.44-23.73-5.51a19.3,19.3,0,0,0-5.61,2.31.56.56,0,0,1,.23.82,1.18,1.18,0,0,1-1.74.27,12.29,12.29,0,0,0-3,4.1,13,13,0,0,0-.75,9.3.8.8,0,0,1,.82-.12,1.15,1.15,0,0,1,.53,1.23c-.09.38-.49.49-.9.39.17.48.34.92.51,1.32a24.68,24.68,0,0,0,2.72,4.59c.2-.42.49-.46,1-.19.36.17.71.39,1,.59,0,.66-.28.9-1,.82l-.18,0a29.49,29.49,0,0,0,16.52,10.11.88.88,0,0,1,.22-.33c.61-.66,1.51-.1,2.15.32.07,0,.08.16,0,.29a13,13,0,0,0,7.12-1.7,15.55,15.55,0,0,0,6-6.16c-.61-.24-.86-1.5-.29-1.86.37-.26.79,0,1.09.3a.15.15,0,0,0,.05.07l.33-.65a20.75,20.75,0,0,0,2.39-10.67,12.39,12.39,0,0,0-3.56-7.72C202.67,18.66,200.54,18.23,200.22,17.11Z"/><path class="cls-1" d="M172.15,13.44a.56.56,0,0,0-.23-.82,13.48,13.48,0,0,0-1.52,1.09A1.18,1.18,0,0,0,172.15,13.44Z"/><path class="cls-1" d="M203,36.36c-.57.37-.33,1.62.29,1.86.3-.51.57-1,.85-1.5a.15.15,0,0,1-.05-.07C203.83,36.39,203.4,36.1,203,36.36Z"/><path class="cls-1" d="M168,28.21a1.15,1.15,0,0,0-.53-1.23.8.8,0,0,0-.82.12c.15.51.29,1,.45,1.5C167.5,28.7,167.91,28.59,168,28.21Z"/><path class="cls-1" d="M172.4,34.91c-.33-.2-.68-.42-1-.59-.54-.27-.83-.23-1,.19.3.4.61.81.94,1.18l.18,0C172.11,35.81,172.4,35.57,172.4,34.91Z"/><path class="cls-1" d="M190.15,45.79c-.64-.42-1.54-1-2.15-.32a.88.88,0,0,0-.22.33,18.24,18.24,0,0,0,2.4.28C190.22,45.95,190.22,45.83,190.15,45.79Z"/><path class="cls-1" d="M200.22,17.11c.32,1.12,2.45,1.54,3.11.58a23,23,0,0,0-2.07-1.88C200.55,15.94,200,16.36,200.22,17.11Z"/><path class="cls-1" d="M179.93,20.67a2.57,2.57,0,0,0,.69-.58c.93-1.09.5-3-1.36-2.18C178.13,18.42,178.72,21.23,179.93,20.67Z"/><path class="cls-1" d="M197.42,22.48c-.25-1.4-2.52-2.59-2.49-.81,0,.73.74,1.22,1.31,1.55C197,23.63,197.61,23.65,197.42,22.48Z"/><path class="cls-1" d="M178.7,30.35a1.31,1.31,0,0,0-2.4.06c-.25.78.26,2.1,1.39,2A1.4,1.4,0,0,0,178.7,30.35Z"/><path class="cls-1" d="M195.83,36.44a3,3,0,0,0-.33-.69c-.79-1.41-1.91-.38-1.66.79C194.15,38.05,196.29,38.09,195.83,36.44Z"/><path class="cls-1" d="M173.92,21.67c-.64-.71-2.84-.34-1.83,1.16.6.88,1,.75,1.55.17S174.17,22,173.92,21.67Z"/><path class="cls-1" d="M190.69,27.56c-.22-1.64-3.32-1.9-2.77,0A2,2,0,0,0,189,28.7C189.83,29.05,190.84,28.78,190.69,27.56Z"/><path class="cls-1" d="M183.56,11.69c-.27-1.23-2.6-1.28-2.31-.13S183.81,12.92,183.56,11.69Z"/><path class="cls-1" d="M192.56,15.12c.07-1.36-2.69-2.35-2.46-.31C190.27,16.23,192.5,16.73,192.56,15.12Z"/><path class="cls-1" d="M184.62,39.87c-1,.76-3.5-1-2.18-1.93a1.41,1.41,0,0,1,1.46,0C184.72,38.41,185.31,39.34,184.62,39.87Z"/><path class="cls-1" d="M200.92,31.78a1.12,1.12,0,0,1-1.64-.57,1.08,1.08,0,0,1,.85-1.58c1-.25,1.83.38,1.82,1C201.94,31.1,201.44,31.47,200.92,31.78Z"/><path class="cls-1" d="M187.34,21c-.54.32-1-.6-.31-.77S187.83,20.79,187.34,21Z"/><path class="cls-1" d="M190.3,42.49c-.54.33-1-.68-.28-.84A.44.44,0,0,1,190.3,42.49Z"/><path class="cls-1" d="M168.49,22.46c-.86.44-1.76-1.11-.56-1.29S169.27,22.08,168.49,22.46Z"/><path class="cls-1" d="M202.4,26.7a.52.52,0,1,1-.36-1C202.85,25.52,203,26.35,202.4,26.7Z"/><path class="cls-1" d="M180.12,12.41c-.54.28-1.06-.59-.35-.74S180.57,12.14,180.12,12.41Z"/><path class="cls-4" d="M67.23,92.93c1.06-.27,1.63.52,1.78,1.51,7.19-8.64,11.13-22.08,8.76-33.15a27.61,27.61,0,0,0-3-8,.8.8,0,0,1-1.16.29,1.65,1.65,0,0,1-.32-2.46,17.32,17.32,0,0,0-5.62-4.41,18.28,18.28,0,0,0-13.06-1.45,1.14,1.14,0,0,1,.13,1.16,1.64,1.64,0,0,1-1.75.69c-.52-.15-.66-.72-.51-1.29-.68.22-1.31.44-1.88.67A34.71,34.71,0,0,0,44,50.12c.59.3.65.72.24,1.47A16,16,0,0,1,43.35,53c-.91,0-1.24-.44-1.09-1.39,0-.05,0-.15,0-.24A41.61,41.61,0,0,0,27.37,74.21a1.38,1.38,0,0,1,.46.33c.9.89.07,2.13-.55,3,0,.1-.21.1-.4,0A18.41,18.41,0,0,0,29,87.67a21.88,21.88,0,0,0,8.41,8.75c.37-.86,2.14-1.15,2.64-.34.33.53-.07,1.13-.47,1.52a.24.24,0,0,0-.1.07c.27.16.6.32.9.49,4.53,2.46,10.16,4.14,14.9,3.81a17.45,17.45,0,0,0,11-4.69C65,96.32,65.64,93.34,67.23,92.93Z"/><path class="cls-1" d="M73.59,53.59a.8.8,0,0,0,1.16-.29,16.64,16.64,0,0,0-1.48-2.17A1.65,1.65,0,0,0,73.59,53.59Z"/><path class="cls-1" d="M40,96.08c-.5-.82-2.27-.52-2.64.34.7.44,1.38.84,2.07,1.25a.24.24,0,0,1,.1-.07C40,97.21,40.36,96.61,40,96.08Z"/><path class="cls-1" d="M53,47.12a1.64,1.64,0,0,0,1.75-.69,1.14,1.14,0,0,0-.13-1.16c-.73.19-1.47.36-2.13.57C52.31,46.4,52.45,47,53,47.12Z"/><path class="cls-1" d="M43.35,53a16,16,0,0,0,.88-1.44c.41-.75.36-1.16-.24-1.47-.56.41-1.15.82-1.71,1.28,0,.09,0,.19,0,.24C42.11,52.59,42.44,53,43.35,53Z"/><path class="cls-1" d="M27.29,77.55c.62-.87,1.45-2.12.55-3a1.38,1.38,0,0,0-.46-.33,27.09,27.09,0,0,0-.49,3.37C27.07,77.65,27.25,77.65,27.29,77.55Z"/><path class="cls-1" d="M67.23,92.93c-1.59.41-2.27,3.39-1,4.35A32.28,32.28,0,0,0,69,94.44C68.86,93.45,68.29,92.67,67.23,92.93Z"/><path class="cls-1" d="M63.08,64.22a3.54,3.54,0,0,0,.79,1c1.49,1.36,4.25.84,3.12-1.82C66.32,61.79,62.34,62.51,63.08,64.22Z"/><path class="cls-1" d="M59.78,88.75c2-.29,3.77-3.43,1.24-3.46-1,0-1.74,1-2.24,1.77C58.18,88.1,58.15,89,59.78,88.75Z"/><path class="cls-1" d="M49.52,62.08a1.84,1.84,0,0,0,0-3.37c-1.09-.4-3,.27-2.84,1.86A2,2,0,0,0,49.52,62.08Z"/><path class="cls-1" d="M40.21,85.94a4.74,4.74,0,0,0,1-.44c2-1.07.63-2.69-1-2.38C38,83.51,37.87,86.51,40.21,85.94Z"/><path class="cls-1" d="M61.94,55.73c1-.87.59-4-1.56-2.62-1.26.81-1.1,1.41-.31,2.18S61.52,56.07,61.94,55.73Z"/><path class="cls-1" d="M52.92,79.07c2.32-.23,2.81-4.59.16-3.9a2.76,2.76,0,0,0-1.68,1.44C50.87,77.81,51.21,79.23,52.92,79.07Z"/><path class="cls-1" d="M75.57,69.71c1.75-.32,1.9-3.6.28-3.23S73.82,70,75.57,69.71Z"/><path class="cls-1" d="M70.36,82.26c1.91.14,3.41-3.69.54-3.46C68.9,79,68.1,82.09,70.36,82.26Z"/><path class="cls-1" d="M35.87,70c-1-1.46,1.49-4.89,2.81-3a2,2,0,0,1-.12,2.06C37.91,70.22,36.59,71,35.87,70Z"/><path class="cls-1" d="M46.56,93.31a1.59,1.59,0,0,1,.87-2.3,1.52,1.52,0,0,1,2.17,1.26c.32,1.49-.61,2.57-1.51,2.53C47.48,94.76,47,94,46.56,93.31Z"/><path class="cls-1" d="M62.24,74.65c-.43-.76.9-1.43,1.1-.41S62.59,75.35,62.24,74.65Z"/><path class="cls-1" d="M31.93,77.9c-.43-.77,1-1.38,1.19-.36S32.23,78.57,31.93,77.9Z"/><path class="cls-1" d="M61.06,48.07c-.58-1.24,1.64-2.43,1.84-.74S61.55,49.18,61.06,48.07Z"/><path class="cls-1" d="M53.64,95.59A.74.74,0,1,1,55,95.13C55.28,96.28,54.11,96.43,53.64,95.59Z"/><path class="cls-1" d="M74.71,64.86c-.37-.77.87-1.48,1-.47S75.06,65.49,74.71,64.86Z"/><path class="cls-3" d="M303.06,32.57c-1.08-.58-.94-1.68-.29-2.6-12.45,1.58-25.92,9.5-32.41,20.32a29.78,29.78,0,0,0-3.64,8.8.85.85,0,0,1,1.14.65A1.82,1.82,0,0,1,266.24,62a19.35,19.35,0,0,0,1.24,7.85A20.27,20.27,0,0,0,277,81a1.35,1.35,0,0,1,.78-1.06,1.82,1.82,0,0,1,1.94.78c.34.53,0,1.09-.54,1.43a20.94,20.94,0,0,0,2,.91,35.7,35.7,0,0,0,8.11,2c-.25-.64,0-1.07.91-1.36.57-.17,1.22-.33,1.82-.47.71.71.67,1.29-.12,2a1,1,0,0,0-.24.18c10.31,1,21.5-1.74,29.52-7.21a1.22,1.22,0,0,1-.14-.58c-.06-1.42,1.56-1.8,2.73-2.06.12,0,.24.07.35.29a20.56,20.56,0,0,0,6-9.82c1.41-4.5.93-9.09-.19-13.51-.93.41-2.61-.66-2.39-1.72.14-.68.91-.87,1.58-.87,0,0,.05,0,.08,0-.11-.37-.23-.73-.33-1.07-1.82-5.48-5.13-11.14-9.23-14.5a19.58,19.58,0,0,0-12.53-4.57C307.48,31.58,304.65,33.46,303.06,32.57Z"/><path class="cls-5" d="M267.86,59.74a.85.85,0,0,0-1.14-.65,28.33,28.33,0,0,0-.47,2.88A1.82,1.82,0,0,0,267.86,59.74Z"/><path class="cls-5" d="M327.58,50.77c-.22,1.06,1.45,2.13,2.39,1.72-.21-.88-.46-1.72-.73-2.58,0,0-.06,0-.08,0C328.49,49.91,327.72,50.09,327.58,50.77Z"/><path class="cls-5" d="M279.71,80.71a1.82,1.82,0,0,0-1.94-.78A1.35,1.35,0,0,0,277,81c.73.41,1.48.83,2.18,1.15C279.71,81.81,280,81.24,279.71,80.71Z"/><path class="cls-5" d="M292,83.25c-.6.14-1.25.3-1.82.47-.87.3-1.16.72-.91,1.36.76.14,1.57.22,2.37.3a1,1,0,0,1,.24-.18C292.72,84.54,292.75,84,292,83.25Z"/><path class="cls-5" d="M323.81,75.55c-1.18.25-2.79.63-2.73,2.06a1.22,1.22,0,0,0,.14.58,33.09,33.09,0,0,0,3-2.35C324,75.62,323.93,75.52,323.81,75.55Z"/><path class="cls-5" d="M303.06,32.57c1.59.89,4.42-1,4.08-2.8a37.46,37.46,0,0,0-4.37.2C302.12,30.89,302,32,303.06,32.57Z"/><path class="cls-5" d="M284.52,59.1a3.38,3.38,0,0,0,.13-1.44c-.17-2.21-2.81-3.88-3.92-.87C280,58.61,283.83,61.06,284.52,59.1Z"/><path class="cls-5" d="M305.92,41.65c-1.83-1.26-5.67-.1-3.65,1.86.81.82,2.16.55,3.16.26C306.71,43.42,307.43,42.7,305.92,41.65Z"/><path class="cls-5" d="M293.94,71.17a2.06,2.06,0,0,0-2.58,2.75c.59,1.15,2.62,2,3.73.66A2.21,2.21,0,0,0,293.94,71.17Z"/><path class="cls-5" d="M319.71,58.89a4.79,4.79,0,0,0-1.15-.43c-2.46-.64-2.54,1.73-1,2.74C319.65,62.51,322,60.16,319.71,58.89Z"/><path class="cls-5" d="M279,66.88c-1.47-.05-3.51,2.8-.71,3.31,1.61.32,2-.31,1.88-1.53S279.55,66.93,279,66.88Z"/><path class="cls-5" d="M304.13,54.78c-2.11-1.6-5.79,1.59-3.11,3a2.86,2.86,0,0,0,2.44.13C304.82,57.36,305.63,55.91,304.13,54.78Z"/><path class="cls-5" d="M278.56,45.12c-1.66-1.09-4.29,1.47-2.69,2.4S280.23,46.22,278.56,45.12Z"/><path class="cls-5" d="M292.37,38.87c-1.46-1.54-5.6.4-3.09,2.39C291.05,42.67,294.08,40.75,292.37,38.87Z"/><path class="cls-5" d="M311.1,75.15c-.26,2-5,2.82-4.58.25a2.27,2.27,0,0,1,1.69-1.58C309.59,73.41,311.3,73.77,311.1,75.15Z"/><path class="cls-5" d="M320.15,48a1.77,1.77,0,0,1-2.45,1.23,1.72,1.72,0,0,1-.81-2.7c.88-1.47,2.43-1.63,3.15-.88C320.51,46.14,320.37,47.14,320.15,48Z"/><path class="cls-5" d="M293.19,51.26c-.27.93-1.83.51-1.22-.49S293.41,50.44,293.19,51.26Z"/><path class="cls-5" d="M320.33,71.74c-.27.95-1.9.34-1.26-.6S320.56,70.92,320.33,71.74Z"/><path class="cls-5" d="M273.87,73.79c-.49,1.47-3.2.71-2.07-.82S274.31,72.49,273.87,73.79Z"/><path class="cls-5" d="M316.13,40.78a.83.83,0,1,1-1.48-.67C315.32,39,316.4,39.73,316.13,40.78Z"/><path class="cls-5" d="M275.55,49.73c-.27.93-1.82.53-1.21-.44S275.78,48.93,275.55,49.73Z"/><path class="cls-3" d="M365.55,96.77c0-1.23,1.06-1.61,2.17-1.46-7.14-10.31-20.38-18.61-33-19.38a29.79,29.79,0,0,0-9.48.83.84.84,0,0,1-.06,1.3,1.81,1.81,0,0,1-2.72-.39,19.48,19.48,0,0,0-6.4,4.72A20.3,20.3,0,0,0,310.55,96a1.32,1.32,0,0,1,1.31.2,1.81,1.81,0,0,1,.2,2.08c-.32.55-1,.51-1.53.19a21.61,21.61,0,0,0,.14,2.23,35.57,35.57,0,0,0,1.94,8.13c.46-.52,1-.46,1.63.19.42.44.86.93,1.26,1.39-.3,1-.84,1.19-1.79.8a.82.82,0,0,0-.27-.14c3.86,9.61,11.47,18.28,20,22.86a1.31,1.31,0,0,1,.46-.38c1.23-.7,2.31.56,3.08,1.48.08.1,0,.26-.09.45a20.55,20.55,0,0,0,11.47.79c4.65-.84,8.5-3.38,11.91-6.41-.8-.64-.62-2.62.43-2.92.67-.2,1.18.4,1.5,1,0,0,0,0,0,.06.28-.26.54-.54.81-.79,4-4.14,7.5-9.68,8.6-14.87a19.64,19.64,0,0,0-1.73-13.24C368.47,100.23,365.49,98.58,365.55,96.77Z"/><path class="cls-5" d="M325.2,78.06a.84.84,0,0,0,.06-1.3,25.39,25.39,0,0,0-2.78.91A1.81,1.81,0,0,0,325.2,78.06Z"/><path class="cls-5" d="M360.72,126.92c-1,.29-1.23,2.28-.43,2.92.68-.59,1.32-1.21,1.95-1.84,0,0,0-.05,0-.06C361.9,127.31,361.39,126.72,360.72,126.92Z"/><path class="cls-5" d="M312.06,98.25a1.81,1.81,0,0,0-.2-2.08,1.32,1.32,0,0,0-1.31-.2c0,.84-.05,1.69,0,2.46C311.09,98.77,311.74,98.8,312.06,98.25Z"/><path class="cls-5" d="M315.5,110.38c-.4-.46-.84-1-1.26-1.39-.66-.65-1.17-.71-1.63-.19.23.74.53,1.5.82,2.24a.82.82,0,0,1,.27.14C314.66,111.57,315.2,111.34,315.5,110.38Z"/><path class="cls-5" d="M337,135c-.77-.92-1.85-2.18-3.08-1.48a1.31,1.31,0,0,0-.46.38,30,30,0,0,0,3.45,1.55C337,135.25,337.08,135.1,337,135Z"/><path class="cls-5" d="M365.55,96.77c-.06,1.82,2.92,3.46,4.36,2.32a35.31,35.31,0,0,0-2.19-3.78C366.61,95.15,365.57,95.54,365.55,96.77Z"/><path class="cls-5" d="M333.45,92.55A3.54,3.54,0,0,0,334.8,92c1.88-1.17,2.15-4.28-1-3.89C331.83,88.34,331.41,92.85,333.45,92.55Z"/><path class="cls-5" d="M358.81,103.49c.28-2.21-2.53-5.07-3.33-2.37-.35,1.09.51,2.17,1.23,2.92C357.61,105,358.58,105.31,358.81,103.49Z"/><path class="cls-5" d="M327.08,106.49a2.06,2.06,0,0,0-3.63-1c-.74,1.06-.59,3.26,1.14,3.61A2.19,2.19,0,0,0,327.08,106.49Z"/><path class="cls-5" d="M349.89,123.67a4.6,4.6,0,0,0-.16-1.22c-.57-2.47-2.7-1.45-2.87.4C346.64,125.3,349.82,126.32,349.89,123.67Z"/><path class="cls-5" d="M324,91.24c-.63-1.34-4.1-1.82-3.26.89.44,1.57,1.18,1.61,2.22,1S324.21,91.76,324,91.24Z"/><path class="cls-5" d="M346.34,108c.45-2.6-4.07-4.4-4.11-1.35a2.89,2.89,0,0,0,1,2.22C344.38,109.76,346,109.82,346.34,108Z"/><path class="cls-5" d="M343.11,80.81c.19-2-3.29-3.13-3.37-1.27S342.9,82.81,343.11,80.81Z"/><path class="cls-5" d="M355,90.19c.7-2-2.94-4.8-3.55-1.64C351,90.77,354.14,92.56,355,90.19Z"/><path class="cls-5" d="M331.48,123.54c-1.85.67-4.79-3.11-2.33-4a2.28,2.28,0,0,1,2.18.78C332.32,121.39,332.8,123.08,331.48,123.54Z"/><path class="cls-5" d="M359.71,119.06a1.78,1.78,0,0,1-2.21-1.61,1.72,1.72,0,0,1,2-2c1.72.1,2.57,1.42,2.24,2.39C361.56,118.5,360.61,118.84,359.71,119.06Z"/><path class="cls-5" d="M344.42,96.62c-.95.2-1.29-1.39-.14-1.31S345.25,96.45,344.42,96.62Z"/><path class="cls-5" d="M338.77,130.16c-1,.21-1.19-1.52,0-1.39S339.6,130,338.77,130.16Z"/><path class="cls-5" d="M315.51,89.88c-1.52.25-2.11-2.5-.23-2.21C317,87.91,316.87,89.68,315.51,89.88Z"/><path class="cls-5" d="M364.29,112.15a.83.83,0,1,1-.08-1.63C365.54,110.59,365.35,111.91,364.29,112.15Z"/><path class="cls-5" d="M337.64,80.27c-1,.19-1.31-1.37-.19-1.27S338.44,80.11,337.64,80.27Z"/><path class="cls-1" d="M222.82,130.24c1.08-.13,1.54.73,1.54,1.72,8.08-7.46,13.66-20,12.78-31a25.37,25.37,0,0,0-1.89-8.11.76.76,0,0,1-1.14.09,1.61,1.61,0,0,1,0-2.4,16.89,16.89,0,0,0-4.88-5,17.78,17.78,0,0,0-12.46-3.11,1.16,1.16,0,0,1,0,1.15A1.66,1.66,0,0,1,215,84c-.5-.2-.55-.78-.35-1.32-.66.12-1.33.26-1.91.41a32.18,32.18,0,0,0-6.82,2.65c.49.36.5.8,0,1.44a13.07,13.07,0,0,1-1,1.28c-.86-.12-1.14-.57-.9-1.47,0-.08.05-.15.08-.24a40.56,40.56,0,0,0-17.4,20.17,1.22,1.22,0,0,1,.39.37c.76,1-.19,2.07-.9,2.85-.07.09-.22.06-.4,0a18,18,0,0,0,.72,10,21.41,21.41,0,0,0,7,9.57c.46-.78,2.2-.88,2.58,0,.26.55-.2,1.08-.68,1.42l-.09,0c.28.19.55.39.82.6,4.06,3,9.33,5.32,14,5.63a17.33,17.33,0,0,0,11.29-3.11C220.2,133.22,221.25,130.42,222.82,130.24Z"/><path class="cls-2" d="M234.11,92.93a.76.76,0,0,0,1.14-.09,17.4,17.4,0,0,0-1.13-2.31A1.61,1.61,0,0,0,234.11,92.93Z"/><path class="cls-2" d="M196.07,129.76c-.38-.89-2.13-.79-2.58,0,.6.5,1.21,1,1.81,1.46l.09,0C195.87,130.84,196.33,130.31,196.07,129.76Z"/><path class="cls-2" d="M215,84a1.66,1.66,0,0,0,1.77-.44,1.16,1.16,0,0,0,0-1.15c-.75.05-1.47.16-2.15.27C214.43,83.24,214.48,83.82,215,84Z"/><path class="cls-2" d="M204.87,88.47a13.07,13.07,0,0,0,1-1.28c.49-.64.48-1.08,0-1.44-.63.33-1.24.66-1.85,1,0,.09-.06.16-.08.24C203.73,87.9,204,88.35,204.87,88.47Z"/><path class="cls-2" d="M186.14,110.16c.71-.78,1.66-1.88.9-2.85a1.22,1.22,0,0,0-.39-.37,27,27,0,0,0-.91,3.2C185.92,110.22,186.07,110.25,186.14,110.16Z"/><path class="cls-2" d="M222.82,130.24c-1.57.18-2.62,3-1.45,4.09a32.57,32.57,0,0,0,3-2.37C224.36,131,223.9,130.11,222.82,130.24Z"/><path class="cls-2" d="M222.55,101.88a3.63,3.63,0,0,0,.64,1.09c1.26,1.49,4,1.35,3.24-1.36C226,99.94,222.06,100.13,222.55,101.88Z"/><path class="cls-2" d="M216.19,125.22c1.93,0,4.05-2.79,1.63-3.19-1-.16-1.83.73-2.39,1.42C214.7,124.4,214.55,125.23,216.19,125.22Z"/><path class="cls-2" d="M209.67,98.06a1.81,1.81,0,0,0,.45-3.28c-1-.52-2.91-.11-3,1.41A1.91,1.91,0,0,0,209.67,98.06Z"/><path class="cls-2" d="M197.56,119.95a4.68,4.68,0,0,0,1-.27c2.1-.8.95-2.54-.69-2.46C195.76,117.33,195.26,120.23,197.56,119.95Z"/><path class="cls-2" d="M222.54,93.51c1.09-.7,1.09-3.79-1.18-2.73-1.3.6-1.24,1.23-.54,2S222.11,93.78,222.54,93.51Z"/><path class="cls-2" d="M210.74,115c2.34.07,3.34-4.08.71-3.74a2.47,2.47,0,0,0-1.81,1.16C208.95,113.47,209.1,114.9,210.74,115Z"/><path class="cls-2" d="M233.93,108.81c1.74-.08,2.31-3.23.7-3.07S232.17,108.89,233.93,108.81Z"/><path class="cls-2" d="M227.26,120.31c1.82.36,3.79-3.16,1-3.28C226.27,116.92,225.08,119.86,227.26,120.31Z"/><path class="cls-2" d="M195.42,104c-.82-1.54,2.09-4.55,3.11-2.49a1.89,1.89,0,0,1-.39,2C197.4,104.43,196,105,195.42,104Z"/><path class="cls-2" d="M202.76,127.93a1.58,1.58,0,0,1,1.12-2.13,1.51,1.51,0,0,1,2,1.51c.13,1.51-.9,2.4-1.79,2.26C203.48,129.46,203.07,128.7,202.76,127.93Z"/><path class="cls-2" d="M220.35,111.9c-.28-.82,1.07-1.29,1.12-.27S220.61,112.6,220.35,111.9Z"/><path class="cls-2" d="M190.57,111.11c-.3-.83,1.17-1.2,1.21-.2S190.84,111.8,190.57,111.11Z"/><path class="cls-2" d="M222.66,86c-.38-1.3,1.91-2.14,1.91-.48S223,87.14,222.66,86Z"/><path class="cls-2" d="M209.34,131.07a.72.72,0,1,1,1.38-.29C210.83,132,209.68,131.94,209.34,131.07Z"/><path class="cls-2" d="M233.71,104c-.26-.81,1-1.32,1.09-.3S234,104.68,233.71,104Z"/><path class="cls-1" d="M123.45,54.31c.33-1.12,1.36-1.2,2.34-.76-3.9-11.14-13.83-22-25.08-25.82a28.33,28.33,0,0,0-8.78-1.61.85.85,0,0,1-.41,1.18,1.76,1.76,0,0,1-2.37-1,18.32,18.32,0,0,0-7,2.66,19.2,19.2,0,0,0-8.39,10.94,1.25,1.25,0,0,1,1.13.52,1.71,1.71,0,0,1-.34,1.94c-.41.4-1,.2-1.44-.21-.17.7-.3,1.4-.42,2a34.48,34.48,0,0,0-.3,7.85c.57-.36,1-.16,1.44.59.3.51.55,1,.81,1.58-.52.82-1.06.88-1.83.27l-.22-.19C73.75,63.93,78.48,73.67,85.08,80a1.84,1.84,0,0,1,.51-.23c1.29-.34,2,1.09,2.43,2.1.07.11,0,.27-.18.39A19.49,19.49,0,0,0,98,85.83c4.43.39,8.58-.94,12.41-2.84-.58-.79.09-2.54,1.11-2.55.65,0,1,.67,1.12,1.26a.37.37,0,0,0,0,.1c.31-.18.61-.36.93-.53,4.65-2.76,9.22-6.9,11.49-11.35a18.55,18.55,0,0,0,1.75-12.43C125.23,58.17,122.94,55.95,123.45,54.31Z"/><path class="cls-2" d="M91.53,27.3a.85.85,0,0,0,.41-1.18,22,22,0,0,0-2.78.15A1.76,1.76,0,0,0,91.53,27.3Z"/><path class="cls-2" d="M111.55,80.44c-1,0-1.69,1.76-1.11,2.55.74-.39,1.48-.77,2.23-1.18a.37.37,0,0,1,0-.1C112.55,81.12,112.21,80.44,111.55,80.44Z"/><path class="cls-2" d="M74.58,42.32a1.71,1.71,0,0,0,.34-1.94,1.25,1.25,0,0,0-1.13-.52c-.25.76-.46,1.53-.65,2.25C73.57,42.53,74.17,42.72,74.58,42.32Z"/><path class="cls-2" d="M74.68,54.16c-.26-.53-.52-1.07-.81-1.58-.44-.74-.87-.94-1.44-.59.06.75.12,1.5.21,2.24l.22.19C73.62,55,74.17,55,74.68,54.16Z"/><path class="cls-2" d="M88,81.85c-.46-1-1.14-2.44-2.43-2.1a1.84,1.84,0,0,0-.51.23,31.57,31.57,0,0,0,2.76,2.26C88,82.12,88.09,82,88,81.85Z"/><path class="cls-2" d="M123.45,54.31c-.51,1.64,1.79,3.86,3.4,3.2a30.74,30.74,0,0,0-1.06-4C124.81,53.11,123.78,53.19,123.45,54.31Z"/><path class="cls-2" d="M95.42,42.49a3.35,3.35,0,0,0,1.33-.18c2-.59,3-3.33,0-3.77C95,38.27,93.48,42.23,95.42,42.49Z"/><path class="cls-2" d="M115.67,58.72c.81-1.92-1-5.21-2.43-3-.57.93-.08,2.12.39,3C114.23,59.8,115,60.31,115.67,58.72Z"/><path class="cls-2" d="M86.17,53.52a2,2,0,0,0-3.05-1.83c-.93.77-1.34,2.82.14,3.55A2.07,2.07,0,0,0,86.17,53.52Z"/><path class="cls-2" d="M102.54,74.8a4.19,4.19,0,0,0,.17-1.14c.11-2.4-2.1-2-2.7-.36C99.18,75.46,101.82,77.21,102.54,74.8Z"/><path class="cls-2" d="M87.14,38.93c-.2-1.4-3.25-2.69-3.18,0,0,1.55.68,1.73,1.78,1.41S87.24,39.48,87.14,38.93Z"/><path class="cls-2" d="M103.25,59.67c1.06-2.25-2.59-5-3.39-2.27a2.78,2.78,0,0,0,.38,2.27C101,60.82,102.51,61.28,103.25,59.67Z"/><path class="cls-2" d="M107.09,34.26c.67-1.76-2.19-3.66-2.74-2S106.41,36,107.09,34.26Z"/><path class="cls-2" d="M115.56,45.73c1.15-1.65-1.47-5.09-2.81-2.38C111.81,45.26,114.19,47.65,115.56,45.73Z"/><path class="cls-2" d="M85.89,70.11c-1.85.13-3.59-4-1.13-4.15a2,2,0,0,1,1.78,1.22C87.19,68.35,87.21,70,85.89,70.11Z"/><path class="cls-2" d="M112.61,73.07a1.65,1.65,0,0,1-1.61-2,1.59,1.59,0,0,1,2.32-1.27c1.5.52,2,1.92,1.45,2.71C114.41,73,113.47,73.08,112.61,73.07Z"/><path class="cls-2" d="M104.33,48.92c-.9-.06-.8-1.59.22-1.22S105.14,49,104.33,48.92Z"/><path class="cls-2" d="M90.84,77.92c-.91-.06-.68-1.67.31-1.28S91.65,78,90.84,77.92Z"/><path class="cls-2" d="M79.81,35.59c-1.44-.17-1.3-2.8.34-2.08C81.63,34.17,81.07,35.73,79.81,35.59Z"/><path class="cls-2" d="M118.49,68a.79.79,0,1,1,.32-1.52C120,66.85,119.51,68,118.49,68Z"/><path class="cls-2" d="M102.26,32.41c-.89-.08-.86-1.59.14-1.21S103,32.45,102.26,32.41Z"/><path class="cls-1" d="M87.75,128.18c1.14-.21,1.69.68,1.74,1.74,8.14-8.55,13.26-22.33,11.57-34.08a28.38,28.38,0,0,0-2.57-8.55.84.84,0,0,1-1.23.16,1.73,1.73,0,0,1-.16-2.57,18.58,18.58,0,0,0-5.55-5A19.22,19.22,0,0,0,78,77.41a1.22,1.22,0,0,1,0,1.24,1.7,1.7,0,0,1-1.87.59c-.55-.19-.65-.81-.47-1.38-.7.17-1.39.37-2,.56a34.89,34.89,0,0,0-7.13,3.3c.57.35.6.83.15,1.55-.33.5-.7,1-1,1.44-1-.08-1.26-.54-1.08-1.5a1.5,1.5,0,0,0,.08-.27C56.54,88.33,50,97,47.42,105.73a1.6,1.6,0,0,1,.44.35c.89,1-.08,2.25-.75,3.11-.08.11-.26.11-.44,0a19.43,19.43,0,0,0,1.46,10.7c1.67,4.13,4.73,7.21,8.18,9.77.43-.88,2.29-1.08,2.77-.18.3.58-.13,1.19-.62,1.58a.31.31,0,0,0-.09,0c.3.19.6.37.9.59,4.58,2.89,10.35,5.06,15.34,5.06a18.62,18.62,0,0,0,11.86-4.1C85.13,131.55,86.06,128.48,87.75,128.18Z"/><path class="cls-2" d="M97.26,87.46a.84.84,0,0,0,1.23-.16,22.15,22.15,0,0,0-1.4-2.41A1.73,1.73,0,0,0,97.26,87.46Z"/><path class="cls-2" d="M59.07,129.51c-.47-.9-2.34-.7-2.77.18.68.48,1.35,1,2.06,1.45a.31.31,0,0,1,.09,0C58.93,130.7,59.36,130.09,59.07,129.51Z"/><path class="cls-2" d="M76.16,79.23A1.7,1.7,0,0,0,78,78.65a1.22,1.22,0,0,0,0-1.24c-.79.12-1.56.28-2.29.45C75.51,78.42,75.62,79,76.16,79.23Z"/><path class="cls-2" d="M65.66,84.71c.35-.46.72-.94,1-1.44.45-.72.43-1.2-.15-1.55-.64.39-1.28.79-1.9,1.22a1.5,1.5,0,0,1-.08.27C64.4,84.16,64.71,84.63,65.66,84.71Z"/><path class="cls-2" d="M47.1,109.2c.68-.87,1.64-2.13.75-3.11a1.6,1.6,0,0,0-.44-.35,33.25,33.25,0,0,0-.76,3.49C46.85,109.3,47,109.31,47.1,109.2Z"/><path class="cls-2" d="M87.75,128.18c-1.69.3-2.62,3.37-1.3,4.5a30.83,30.83,0,0,0,3-2.75C89.44,128.86,88.89,128,87.75,128.18Z"/><path class="cls-2" d="M85.5,97.85A3.13,3.13,0,0,0,86.27,99c1.43,1.52,4.35,1.19,3.37-1.68C89.05,95.53,84.85,96,85.5,97.85Z"/><path class="cls-2" d="M80.28,123.28c2.07-.17,4.17-3.29,1.55-3.53-1.09-.09-1.92.89-2.46,1.69C78.66,122.48,78.55,123.4,80.28,123.28Z"/><path class="cls-2" d="M71.47,94.64a2,2,0,0,0,.24-3.54c-1.1-.49-3.11.09-3.1,1.74A2.06,2.06,0,0,0,71.47,94.64Z"/><path class="cls-2" d="M60,118.91a3.7,3.7,0,0,0,1.09-.37c2.18-1,.82-2.77-.91-2.57C57.86,116.22,57.51,119.36,60,118.91Z"/><path class="cls-2" d="M84.9,88.87c1.15-.82.91-4.12-1.45-2.83-1.37.73-1.24,1.39-.45,2.22S84.46,89.2,84.9,88.87Z"/><path class="cls-2" d="M73.77,112.66c2.49-.09,3.28-4.6.48-4.07A2.84,2.84,0,0,0,72.4,110C71.74,111.19,72,112.73,73.77,112.66Z"/><path class="cls-2" d="M98.14,104.49c1.87-.2,2.26-3.62.53-3.35S96.29,104.68,98.14,104.49Z"/><path class="cls-2" d="M91.79,117.25c2,.28,3.86-3.63.84-3.58C90.51,113.71,89.46,116.91,91.79,117.25Z"/><path class="cls-2" d="M56.58,102c-1-1.58,1.95-5,3.17-2.89a2,2,0,0,1-.27,2.14C58.73,102.31,57.28,103.08,56.58,102Z"/><path class="cls-2" d="M66.12,127.09a1.67,1.67,0,0,1,1-2.35,1.61,1.61,0,0,1,2.19,1.5c.22,1.58-.82,2.63-1.75,2.51C67,128.68,66.5,127.86,66.12,127.09Z"/><path class="cls-2" d="M83.84,108.71c-.36-.82,1-1.44,1.17-.36S84.16,109.46,83.84,108.71Z"/><path class="cls-2" d="M51.87,109.92c-.35-.84,1.19-1.36,1.29-.3S52.21,110.66,51.87,109.92Z"/><path class="cls-2" d="M84.53,80.8c-.51-1.36,1.9-2.42,2-.63C86.62,81.79,85,82,84.53,80.8Z"/><path class="cls-2" d="M73.34,130a.78.78,0,1,1,1.49-.41C75,130.83,73.77,130.93,73.34,130Z"/><path class="cls-2" d="M97.6,99.35c-.33-.83,1-1.49,1.14-.43S97.91,100.06,97.6,99.35Z"/><path class="cls-1" d="M189.94,107.6c.33-1.11,1.37-1.2,2.34-.77-3.9-11.13-13.84-22-25.07-25.82a28.24,28.24,0,0,0-8.78-1.61.83.83,0,0,1-.41,1.17,1.74,1.74,0,0,1-2.37-1,18.32,18.32,0,0,0-7,2.67,19.22,19.22,0,0,0-8.39,10.94,1.26,1.26,0,0,1,1.13.53,1.7,1.7,0,0,1-.33,1.93c-.41.4-1,.2-1.44-.21-.17.71-.3,1.41-.42,2a35,35,0,0,0-.31,7.85c.57-.35,1-.15,1.45.57.3.52.55,1.06.81,1.59-.51.82-1.07.88-1.83.27a1.82,1.82,0,0,0-.21-.19c1.11,9.69,5.83,19.43,12.44,25.73a1.87,1.87,0,0,1,.51-.23c1.28-.34,2,1.1,2.42,2.1.08.11,0,.28-.18.4a19.41,19.41,0,0,0,10.2,3.57c4.43.41,8.58-.93,12.42-2.82-.59-.79.08-2.54,1.1-2.56.66,0,1,.67,1.12,1.27a.43.43,0,0,0,0,.11c.31-.18.62-.37.94-.53,4.65-2.76,9.22-6.9,11.49-11.36a18.57,18.57,0,0,0,1.75-12.42C191.74,111.46,189.44,109.23,189.94,107.6Z"/><path class="cls-2" d="M158,80.57a.83.83,0,0,0,.41-1.17,22,22,0,0,0-2.78.14A1.74,1.74,0,0,0,158,80.57Z"/><path class="cls-2" d="M178,133.73c-1,0-1.69,1.77-1.1,2.56.74-.39,1.48-.77,2.22-1.18a.43.43,0,0,1,0-.11C179,134.4,178.7,133.73,178,133.73Z"/><path class="cls-2" d="M141.08,95.61a1.7,1.7,0,0,0,.33-1.93,1.26,1.26,0,0,0-1.13-.53c-.24.77-.45,1.53-.64,2.25C140.06,95.82,140.67,96,141.08,95.61Z"/><path class="cls-2" d="M141.18,107.45c-.26-.52-.51-1.07-.81-1.59-.44-.73-.88-.93-1.45-.57.06.75.13,1.5.22,2.25a1.82,1.82,0,0,1,.21.19C140.11,108.33,140.67,108.26,141.18,107.45Z"/><path class="cls-2" d="M154.51,135.13c-.45-1-1.14-2.43-2.42-2.1a1.87,1.87,0,0,0-.51.23,32.77,32.77,0,0,0,2.75,2.26C154.5,135.41,154.59,135.25,154.51,135.13Z"/><path class="cls-2" d="M189.94,107.6c-.5,1.63,1.8,3.86,3.41,3.2a32,32,0,0,0-1.06-4C191.31,106.4,190.27,106.49,189.94,107.6Z"/><path class="cls-2" d="M161.91,95.78a3.3,3.3,0,0,0,1.33-.18c2-.58,3.05-3.32,0-3.77C161.46,91.56,160,95.53,161.91,95.78Z"/><path class="cls-2" d="M182.17,112c.8-1.93-1-5.21-2.44-3-.57.93-.08,2.12.39,3C180.72,113.09,181.49,113.6,182.17,112Z"/><path class="cls-2" d="M152.66,106.81a2,2,0,0,0-3-1.83c-.95.76-1.35,2.81.13,3.55A2.07,2.07,0,0,0,152.66,106.81Z"/><path class="cls-2" d="M169,128.1a4,4,0,0,0,.17-1.14c.11-2.4-2.09-2-2.7-.36C165.67,128.74,168.31,130.5,169,128.1Z"/><path class="cls-2" d="M153.64,92.22c-.2-1.4-3.25-2.69-3.18,0,0,1.56.68,1.73,1.78,1.4S153.73,92.77,153.64,92.22Z"/><path class="cls-2" d="M169.75,113c1.05-2.26-2.6-5-3.39-2.27a2.79,2.79,0,0,0,.38,2.27C167.51,114.11,169,114.57,169.75,113Z"/><path class="cls-2" d="M173.59,87.55c.66-1.76-2.2-3.66-2.75-2S172.9,89.29,173.59,87.55Z"/><path class="cls-2" d="M182.05,99c1.15-1.64-1.48-5.09-2.81-2.37C178.31,98.54,180.68,100.94,182.05,99Z"/><path class="cls-2" d="M152.38,123.4c-1.86.13-3.59-4-1.13-4.15a2,2,0,0,1,1.77,1.22C153.68,121.64,153.71,123.28,152.38,123.4Z"/><path class="cls-2" d="M179.1,126.35a1.65,1.65,0,0,1-1.61-2,1.6,1.6,0,0,1,2.32-1.28c1.52.52,2,1.93,1.45,2.72C180.91,126.32,180,126.37,179.1,126.35Z"/><path class="cls-2" d="M170.83,102.21c-.9-.05-.8-1.58.22-1.21S171.64,102.26,170.83,102.21Z"/><path class="cls-2" d="M157.33,131.21c-.91-.06-.68-1.67.32-1.29S158.14,131.25,157.33,131.21Z"/><path class="cls-2" d="M146.3,88.89c-1.44-.17-1.29-2.8.34-2.08S147.58,89,146.3,88.89Z"/><path class="cls-2" d="M185,121.25a.79.79,0,1,1,.31-1.52C186.48,120.14,186,121.29,185,121.25Z"/><path class="cls-2" d="M168.76,85.7c-.89-.09-.87-1.59.14-1.21S169.52,85.74,168.76,85.7Z"/><path class="cls-4" d="M278.81,82.93c1.33-.74,2.36.13,2.87,1.43,6.61-13.81,7.36-32.85.55-46.68a36.81,36.81,0,0,0-6.61-9.52,1.07,1.07,0,0,1-1.45.72,2.23,2.23,0,0,1-1.2-3.11,23.81,23.81,0,0,0-8.88-3.9c-6.55-1.7-12.63-.22-17.71,2.38a1.56,1.56,0,0,1,.55,1.5,2.18,2.18,0,0,1-2.07,1.48c-.74,0-1.11-.71-1.11-1.51-.82.49-1.57,1-2.26,1.5a45,45,0,0,0-7.45,7c.84.18,1.07.76.79,1.85a19.35,19.35,0,0,1-.71,2.18c-1.23.28-1.77-.17-1.91-1.41,0-.14,0-.25,0-.37-7.82,9.91-12.39,23.22-12.08,35a1.69,1.69,0,0,1,.69.27c1.49.87.8,2.8.31,4.15-.05.16-.25.19-.54.19.86,5.2,2.93,8.73,6.11,12.61,3.72,4.42,8.73,7,14,8.76.21-1.25,2.41-2.27,3.36-1.34.6.57.28,1.5-.14,2.19a.34.34,0,0,0-.08.09l1.35.35c6.79,1.75,14.78,2.11,20.93.1A23.9,23.9,0,0,0,279,89C276.95,88.13,276.88,84,278.81,82.93Z"/><path class="cls-1" d="M274.16,28.88a1.07,1.07,0,0,0,1.45-.72,29.12,29.12,0,0,0-2.66-2.4A2.23,2.23,0,0,0,274.16,28.88Z"/><path class="cls-1" d="M244,96.08c-1-.93-3.15.08-3.36,1.34,1,.33,2.09.64,3.14.94a.34.34,0,0,1,.08-.09C244.27,97.59,244.59,96.65,244,96.08Z"/><path class="cls-1" d="M244.84,27.22a2.18,2.18,0,0,0,2.07-1.48,1.56,1.56,0,0,0-.55-1.5c-.93.45-1.8,1-2.62,1.46C243.74,26.5,244.1,27.21,244.84,27.22Z"/><path class="cls-1" d="M234.1,38.19a19.35,19.35,0,0,0,.71-2.18c.28-1.09.06-1.67-.79-1.85-.65.72-1.25,1.47-1.87,2.24,0,.12,0,.23,0,.37C232.33,38,232.88,38.47,234.1,38.19Z"/><path class="cls-1" d="M221.07,75.86c.5-1.35,1.18-3.28-.31-4.15a1.69,1.69,0,0,0-.69-.27,41.39,41.39,0,0,0,.46,4.61C220.82,76.05,221,76,221.07,75.86Z"/><path class="cls-1" d="M278.81,82.93c-1.93,1-1.86,5.2.2,6a37,37,0,0,0,2.67-4.59C281.17,83.06,280.14,82.19,278.81,82.93Z"/><path class="cls-1" d="M263.85,46.4a4.13,4.13,0,0,0,1.37,1.08c2.39,1.28,5.86-.29,3.51-3.42C267.31,42.13,262.3,44.42,263.85,46.4Z"/><path class="cls-1" d="M267.63,79.87c2.49-1,3.81-5.74.47-5-1.35.31-2,1.87-2.35,3.08C265.31,79.54,265.54,80.74,267.63,79.87Z"/><path class="cls-1" d="M245.24,48.11a2.5,2.5,0,0,0-1.12-4.44c-1.55-.17-3.8,1.33-3.11,3.36A2.66,2.66,0,0,0,245.24,48.11Z"/><path class="cls-1" d="M240.86,82.64a6,6,0,0,0,1.19-.87c2.29-2.13-.09-3.79-2.16-2.83C237.17,80.19,238,84.17,240.86,82.64Z"/><path class="cls-1" d="M259.52,35.59c1-1.46-.55-5.45-2.92-2.91-1.4,1.45-1,2.21.33,2.93S259.09,36.16,259.52,35.59Z"/><path class="cls-1" d="M255.35,69.41c3-1.12,2.2-7-1-5.2a3.47,3.47,0,0,0-1.75,2.42C252.22,68.4,253.19,70.16,255.35,69.41Z"/><path class="cls-1" d="M282.12,49.52c2.22-1,1.33-5.38-.72-4.34C279.52,46.13,279.9,50.5,282.12,49.52Z"/><path class="cls-1" d="M279.42,67.8c2.56-.45,3.28-6-.42-4.74C276.41,64,276.38,68.34,279.42,67.8Z"/><path class="cls-1" d="M229.85,63.09c-1.82-1.56.37-7,2.74-4.83a2.62,2.62,0,0,1,.52,2.74C232.65,62.7,231.14,64.2,229.85,63.09Z"/><path class="cls-1" d="M251.7,90.26a2.18,2.18,0,0,1,.35-3.33,2.09,2.09,0,0,1,3.3,1c.94,1.87.05,3.59-1.15,3.83C253.38,91.87,252.47,91.09,251.7,90.26Z"/><path class="cls-1" d="M266.18,60.47c-.79-.87.7-2.21,1.3-.92S266.86,61.26,266.18,60.47Z"/><path class="cls-1" d="M227.25,74.8c-.79-.87.89-2.15,1.45-.87S227.95,75.58,227.25,74.8Z"/><path class="cls-1" d="M255.8,25.81c-1.18-1.47,1.36-3.76,2.19-1.62S256.84,27.1,255.8,25.81Z"/><path class="cls-1" d="M261.8,90.94a1,1,0,1,1,1.64-1.1C264.18,91.3,262.7,91.91,261.8,90.94Z"/><path class="cls-1" d="M279.38,43.39c-.75-.88.66-2.23,1.23-1S280.06,44.15,279.38,43.39Z"/><path class="cls-4" d="M300.94,129c1-.53,1.73.1,2.1,1.05,4.83-10.08,5.38-24,.4-34.09a26.87,26.87,0,0,0-4.83-7,.79.79,0,0,1-1.07.52,1.63,1.63,0,0,1-.88-2.27,17.42,17.42,0,0,0-6.48-2.86,18,18,0,0,0-12.93,1.75,1.13,1.13,0,0,1,.41,1.09,1.59,1.59,0,0,1-1.52,1.08c-.54,0-.8-.52-.8-1.1-.6.37-1.15.74-1.66,1.09a32.85,32.85,0,0,0-5.45,5.09c.62.12.78.55.58,1.34a13.19,13.19,0,0,1-.52,1.59c-.89.2-1.29-.12-1.39-1,0-.11,0-.19,0-.28A41.41,41.41,0,0,0,258,120.57a1.16,1.16,0,0,1,.51.2c1.09.63.59,2,.23,3,0,.12-.18.14-.39.14a18.27,18.27,0,0,0,4.45,9.22,22,22,0,0,0,10.22,6.39c.15-.92,1.75-1.66,2.44-1,.45.42.21,1.1-.1,1.59a.41.41,0,0,1-.06.08c.33.08.65.17,1,.25,5,1.28,10.79,1.53,15.28.08a17.5,17.5,0,0,0,9.46-7.2C299.58,132.76,299.53,129.72,300.94,129Z"/><path class="cls-1" d="M297.54,89.49a.79.79,0,0,0,1.07-.52,19.77,19.77,0,0,0-1.95-1.75A1.63,1.63,0,0,0,297.54,89.49Z"/><path class="cls-1" d="M275.51,138.57c-.69-.68-2.3.05-2.44,1,.75.24,1.53.47,2.28.69a.41.41,0,0,0,.06-.08C275.72,139.67,276,139,275.51,138.57Z"/><path class="cls-1" d="M276.14,88.27a1.59,1.59,0,0,0,1.52-1.08,1.13,1.13,0,0,0-.41-1.09c-.68.33-1.31.7-1.91,1.07C275.34,87.75,275.59,88.27,276.14,88.27Z"/><path class="cls-1" d="M268.29,96.28a13.19,13.19,0,0,0,.52-1.59c.2-.79,0-1.22-.58-1.34-.46.52-.92,1.06-1.36,1.63,0,.08,0,.17,0,.28C267,96.16,267.4,96.49,268.29,96.28Z"/><path class="cls-1" d="M258.78,123.79c.36-1,.86-2.39-.23-3a1.16,1.16,0,0,0-.51-.2,29.48,29.48,0,0,0,.35,3.36C258.6,123.94,258.74,123.91,258.78,123.79Z"/><path class="cls-1" d="M300.94,129c-1.41.77-1.36,3.8.14,4.4a27.8,27.8,0,0,0,2-3.35C302.67,129.06,301.92,128.43,300.94,129Z"/><path class="cls-1" d="M290,102.28a3.18,3.18,0,0,0,1,.79c1.75.93,4.28-.21,2.56-2.5C292.54,99.16,288.89,100.84,290,102.28Z"/><path class="cls-1" d="M292.78,126.72c1.82-.76,2.78-4.18.35-3.63-1,.23-1.43,1.37-1.72,2.24C291.08,126.48,291.25,127.36,292.78,126.72Z"/><path class="cls-1" d="M276.43,103.53a1.83,1.83,0,0,0-.83-3.25c-1.13-.12-2.77,1-2.26,2.46A2,2,0,0,0,276.43,103.53Z"/><path class="cls-1" d="M273.23,128.74a4.16,4.16,0,0,0,.87-.63c1.67-1.54-.06-2.76-1.57-2.06C270.54,127,271.14,129.87,273.23,128.74Z"/><path class="cls-1" d="M286.85,94.39c.76-1.07-.39-4-2.13-2.12-1,1.05-.73,1.61.24,2.13S286.55,94.8,286.85,94.39Z"/><path class="cls-1" d="M283.81,119.08c2.22-.82,1.6-5.1-.76-3.8a2.55,2.55,0,0,0-1.28,1.77C281.52,118.35,282.23,119.64,283.81,119.08Z"/><path class="cls-1" d="M303.36,104.56c1.61-.74,1-3.93-.52-3.16S301.75,105.28,303.36,104.56Z"/><path class="cls-1" d="M301.38,117.91c1.87-.33,2.39-4.39-.3-3.46C299.18,115.11,299.17,118.3,301.38,117.91Z"/><path class="cls-1" d="M265.18,114.48c-1.33-1.15.27-5.08,2-3.54a1.9,1.9,0,0,1,.38,2C267.23,114.18,266.13,115.28,265.18,114.48Z"/><path class="cls-1" d="M281.15,134.32a1.6,1.6,0,0,1,.26-2.44,1.52,1.52,0,0,1,2.4.7c.69,1.36,0,2.62-.83,2.79C282.38,135.48,281.7,134.91,281.15,134.32Z"/><path class="cls-1" d="M291.72,112.56c-.57-.63.52-1.61,1-.67S292.21,113.13,291.72,112.56Z"/><path class="cls-1" d="M263.28,123c-.57-.63.66-1.57,1.08-.63S263.79,123.6,263.28,123Z"/><path class="cls-1" d="M284.14,87.24c-.87-1.08,1-2.75,1.59-1.18S284.89,88.18,284.14,87.24Z"/><path class="cls-1" d="M288.52,134.81c-.76-.79.61-1.95,1.2-.82S289.17,135.52,288.52,134.81Z"/><path class="cls-1" d="M301.35,100.09c-.55-.64.49-1.64.91-.7S301.85,100.64,301.35,100.09Z"/><path class="cls-4" d="M378.14,34.25c-.78-1.31,0-2.36,1.33-2.91-14-6.09-33.11-6.12-46.67,1.2a36.74,36.74,0,0,0-9.27,7,1.08,1.08,0,0,1,.78,1.42,2.24,2.24,0,0,1-3.07,1.33,23.88,23.88,0,0,0-3.57,9c-1.46,6.61.26,12.63,3.06,17.6a1.55,1.55,0,0,1,1.47-.61,2.18,2.18,0,0,1,1.56,2c0,.74-.67,1.13-1.47,1.16.52.8,1.08,1.52,1.59,2.21a44.6,44.6,0,0,0,7.23,7.18c.15-.85.71-1.09,1.82-.85a18.33,18.33,0,0,1,2.2.63c.32,1.2-.1,1.77-1.33,2l-.38.05c10.21,7.44,23.67,11.52,35.47,10.75a1.93,1.93,0,0,1,.24-.7c.81-1.51,2.77-.9,4.13-.47.17.05.21.25.22.54,5.16-1.05,8.62-3.25,12.37-6.58,4.29-3.89,6.68-9,8.22-14.31-1.25-.16-2.35-2.32-1.45-3.31.55-.63,1.49-.34,2.18.06l.1.08c.09-.47.2-.9.3-1.37,1.49-6.85,1.54-14.85-.7-20.92a23.84,23.84,0,0,0-10.33-12.58C383.41,35.91,379.26,36.13,378.14,34.25Z"/><path class="cls-1" d="M324.31,40.93a1.08,1.08,0,0,0-.78-1.42,28.53,28.53,0,0,0-2.29,2.75A2.24,2.24,0,0,0,324.31,40.93Z"/><path class="cls-1" d="M392.6,68.54c-.9,1,.21,3.16,1.45,3.31.3-1,.57-2.13.83-3.16l-.1-.08C394.09,68.21,393.15,67.91,392.6,68.54Z"/><path class="cls-1" d="M323.75,70.29a2.18,2.18,0,0,0-1.56-2,1.55,1.55,0,0,0-1.47.61c.49.91,1,1.77,1.56,2.57C323.08,71.43,323.77,71,323.75,70.29Z"/><path class="cls-1" d="M335.12,80.62a18.33,18.33,0,0,0-2.2-.63c-1.1-.24-1.67,0-1.82.85.74.62,1.51,1.2,2.31,1.79l.38-.05C335,82.39,335.44,81.82,335.12,80.62Z"/><path class="cls-1" d="M373.25,92.2c-1.36-.43-3.32-1-4.13.47a1.93,1.93,0,0,0-.24.7,39.92,39.92,0,0,0,4.59-.63C373.46,92.46,373.42,92.25,373.25,92.2Z"/><path class="cls-1" d="M378.14,34.25c1.12,1.88,5.27,1.66,6-.43a36.88,36.88,0,0,0-4.69-2.48C378.18,31.89,377.36,32.94,378.14,34.25Z"/><path class="cls-1" d="M342.19,50.58a4.25,4.25,0,0,0,1-1.41c1.18-2.44-.52-5.85-3.56-3.39C337.8,47.28,340.28,52.2,342.19,50.58Z"/><path class="cls-1" d="M375.5,45.53c-1.15-2.45-5.88-3.6-5-.28.36,1.34,1.95,1.89,3.16,2.23C375.26,47.87,376.43,47.59,375.5,45.53Z"/><path class="cls-1" d="M344.6,69.1a2.5,2.5,0,0,0-4.39,1.29c-.11,1.56,1.47,3.76,3.49,3A2.67,2.67,0,0,0,344.6,69.1Z"/><path class="cls-1" d="M379.29,72.19a6.55,6.55,0,0,0-.93-1.17c-2.2-2.2-3.78.24-2.74,2.27C377,76,380.92,75,379.29,72.19Z"/><path class="cls-1" d="M331.56,55.31c-1.5-1-5.42.75-2.8,3,1.5,1.34,2.25.92,2.92-.44S332.15,55.71,331.56,55.31Z"/><path class="cls-1" d="M365.51,58.2c-1.23-3-7.07-1.93-5.16,1.23a3.48,3.48,0,0,0,2.48,1.65C364.62,61.37,366.34,60.33,365.51,58.2Z"/><path class="cls-1" d="M344.62,32.2c-1.08-2.18-5.43-1.12-4.3.87S345.69,34.38,344.62,32.2Z"/><path class="cls-1" d="M363,34.21c-.55-2.54-6.15-3-4.73.61C359.28,37.37,363.64,37.22,363,34.21Z"/><path class="cls-1" d="M360.16,83.93c-1.5,1.88-7-.11-4.94-2.56a2.63,2.63,0,0,1,2.73-.63C359.67,81.14,361.23,82.59,360.16,83.93Z"/><path class="cls-1" d="M386.48,61.06a2.17,2.17,0,0,1-3.33-.22A2.09,2.09,0,0,1,384,57.5c1.83-1,3.59-.19,3.87,1C388,59.32,387.28,60.27,386.48,61.06Z"/><path class="cls-1" d="M356.18,47.72c-.84.81-2.24-.61-1-1.26S356.94,47,356.18,47.72Z"/><path class="cls-1" d="M372,86.08c-.85.82-2.17-.82-.93-1.42S372.72,85.35,372,86.08Z"/><path class="cls-1" d="M321.92,59.4c-1.43,1.23-3.8-1.22-1.7-2.13S323.17,58.31,321.92,59.4Z"/><path class="cls-1" d="M386.78,50.95a1,1,0,1,1-1.17-1.61C387.06,48.55,387.72,50,386.78,50.95Z"/><path class="cls-1" d="M338.61,35.18c-.84.78-2.26-.59-1-1.2S339.34,34.47,338.61,35.18Z"/><path class="cls-4" d="M467.76,131.6c1.22-.06,1.66.93,1.57,2,9.63-7.66,16.86-21.17,16.8-33.56a29.72,29.72,0,0,0-1.45-9.22.87.87,0,0,1-1.31,0,1.81,1.81,0,0,1,.22-2.68,19.13,19.13,0,0,0-5-5.94,19.77,19.77,0,0,0-13.65-4.5,1.24,1.24,0,0,1-.14,1.28,1.75,1.75,0,0,1-2,.34c-.54-.26-.55-.9-.27-1.47-.76.06-1.49.18-2.16.29a36.81,36.81,0,0,0-7.83,2.41c.54.44.51.93-.08,1.61a14.49,14.49,0,0,1-1.28,1.33c-1-.22-1.22-.74-.89-1.69,0-.11.07-.2.11-.28-9.14,4.42-17.12,12.44-21,21.1a1.45,1.45,0,0,1,.4.44c.77,1.14-.4,2.3-1.23,3.11-.1.1-.26.05-.46-.06a20.24,20.24,0,0,0,0,11.27c1.14,4.51,3.87,8.14,7.05,11.25.59-.83,2.54-.8,2.9.22.24.62-.32,1.18-.87,1.53l-.09,0c.29.24.57.49.85.73,4.3,3.65,10,6.71,15.12,7.41A19.09,19.09,0,0,0,465.78,136C464.58,134.71,466,131.69,467.76,131.6Z"/><path class="cls-1" d="M483.37,90.88a.87.87,0,0,0,1.31,0,22.84,22.84,0,0,0-1.08-2.67A1.81,1.81,0,0,0,483.37,90.88Z"/><path class="cls-1" d="M437.95,128.89c-.36-1-2.31-1-2.9-.22.63.6,1.29,1.2,1.94,1.78l.09,0C437.63,130.08,438.19,129.52,437.95,128.89Z"/><path class="cls-1" d="M462.76,79.37a1.75,1.75,0,0,0,2-.34,1.24,1.24,0,0,0,.14-1.28c-.83,0-1.65.06-2.42.14C462.21,78.47,462.22,79.11,462.76,79.37Z"/><path class="cls-1" d="M451.13,83.54a14.49,14.49,0,0,0,1.28-1.33c.59-.69.63-1.18.08-1.61-.72.3-1.42.62-2.14,1,0,.08-.06.18-.11.28C449.91,82.79,450.15,83.32,451.13,83.54Z"/><path class="cls-1" d="M428.48,106.22c.82-.81,2-2,1.23-3.11a1.45,1.45,0,0,0-.4-.44,31.66,31.66,0,0,0-1.28,3.49C428.22,106.27,428.38,106.32,428.48,106.22Z"/><path class="cls-1" d="M467.76,131.6c-1.77.09-3.18,3.11-2,4.43a29.09,29.09,0,0,0,3.55-2.39C469.41,132.53,469,131.54,467.76,131.6Z"/><path class="cls-1" d="M469.77,99.92a3.41,3.41,0,0,0,.61,1.28c1.28,1.75,4.34,1.84,3.74-1.25C473.76,98.06,469.34,98,469.77,99.92Z"/><path class="cls-1" d="M460.74,125.47c2.18.11,4.78-2.81,2.1-3.44-1.09-.24-2.08.68-2.78,1.41C459.18,124.41,458.93,125.35,460.74,125.47Z"/><path class="cls-1" d="M455.71,94.63a2,2,0,0,0,.75-3.62c-1.06-.67-3.21-.37-3.43,1.35A2.15,2.15,0,0,0,455.71,94.63Z"/><path class="cls-1" d="M440.4,118.07a4.6,4.6,0,0,0,1.17-.22c2.4-.73,1.27-2.77-.57-2.8C438.6,115,437.81,118.17,440.4,118.07Z"/><path class="cls-1" d="M470.43,90.58c1.27-.68,1.52-4.13-1.09-3.13-1.52.55-1.5,1.25-.79,2.23S469.92,90.86,470.43,90.58Z"/><path class="cls-1" d="M455.53,113.59c2.59.25,4.05-4.29,1.08-4.13a2.77,2.77,0,0,0-2.11,1.14C453.63,111.75,453.71,113.37,455.53,113.59Z"/><path class="cls-1" d="M481.88,108.6c2,.06,2.85-3.43,1-3.39C481.2,105.23,479.94,108.54,481.88,108.6Z"/><path class="cls-1" d="M473.52,120.87c2,.57,4.48-3.2,1.36-3.57C472.67,117,471.13,120.19,473.52,120.87Z"/><path class="cls-1" d="M439.31,100.06c-.77-1.77,2.71-4.9,3.68-2.54a2.13,2.13,0,0,1-.58,2.18C441.47,100.76,439.86,101.32,439.31,100.06Z"/><path class="cls-1" d="M445.57,127.39A1.75,1.75,0,0,1,447,125.1a1.68,1.68,0,0,1,2,1.84c0,1.68-1.22,2.62-2.17,2.37C446.22,129.14,445.84,128.25,445.57,127.39Z"/><path class="cls-1" d="M466.51,110.93c-.26-.9,1.28-1.36,1.26-.21S466.72,111.73,466.51,110.93Z"/><path class="cls-1" d="M433.32,107.62c-.26-.92,1.4-1.24,1.36-.13S433.54,108.43,433.32,107.62Z"/><path class="cls-1" d="M471.18,82.21c-.33-1.48,2.3-2.24,2.15-.41S471.48,83.51,471.18,82.21Z"/><path class="cls-1" d="M452.64,131.43a.81.81,0,1,1,1.58-.22C454.23,132.52,452.95,132.44,452.64,131.43Z"/><path class="cls-1" d="M482,103.21c-.23-.9,1.27-1.39,1.23-.26S482.28,104,482,103.21Z"/><path class="cls-4" d="M156.38,91.05c1.39.07,1.79,1.23,1.6,2.49,11.79-7.85,21.39-22.65,22.5-36.86A33.87,33.87,0,0,0,179.73,46a1,1,0,0,1-1.49-.11,2.07,2.07,0,0,1,.49-3.06,21.57,21.57,0,0,0-5.19-7.31A22.83,22.83,0,0,0,158.3,29a1.42,1.42,0,0,1-.25,1.47,2.12,2.12,0,0,1-2.36.2c-.59-.38-.53-1.12-.17-1.75-.88,0-1.74.06-2.5.11a41.4,41.4,0,0,0-9.22,2c.58.55.49,1.1-.25,1.83A16.13,16.13,0,0,1,142,34.32c-1.08-.36-1.33-1-.85-2a1.56,1.56,0,0,0,.15-.3c-10.93,4.2-20.85,12.61-26.17,22.17a1.91,1.91,0,0,1,.42.52c.74,1.41-.7,2.61-1.72,3.47-.12.08-.31,0-.52-.13-1.78,4.55-1.8,8.35-1.09,12.94.84,5.26,3.65,9.71,7,13.57.75-.89,3-.64,3.29.54.22.74-.48,1.34-1.13,1.66l-.12,0,.91.92c4.58,4.6,10.77,8.65,16.61,10a22.11,22.11,0,0,0,15-1.67C152.44,94.3,154.32,91,156.38,91.05Z"/><path class="cls-1" d="M178.24,45.86a1,1,0,0,0,1.49.11,27.53,27.53,0,0,0-1-3.17A2.07,2.07,0,0,0,178.24,45.86Z"/><path class="cls-1" d="M122.44,85.06c-.31-1.18-2.54-1.43-3.29-.54.66.76,1.35,1.51,2,2.24l.12,0C122,86.4,122.66,85.8,122.44,85.06Z"/><path class="cls-1" d="M155.68,30.69a2.12,2.12,0,0,0,2.36-.2A1.42,1.42,0,0,0,158.3,29c-.94-.06-1.88-.08-2.78-.08C155.15,29.57,155.1,30.31,155.68,30.69Z"/><path class="cls-1" d="M142,34.32a16.13,16.13,0,0,0,1.59-1.41c.74-.74.83-1.28.25-1.83-.84.27-1.7.58-2.54.9a1.56,1.56,0,0,1-.15.3C140.63,33.34,140.87,34,142,34.32Z"/><path class="cls-1" d="M113.77,58.14c1-.86,2.47-2.06,1.72-3.47a1.91,1.91,0,0,0-.42-.52A35.2,35.2,0,0,0,113.25,58C113.47,58.17,113.65,58.22,113.77,58.14Z"/><path class="cls-1" d="M156.38,91.05c-2.06-.08-3.95,3.25-2.7,4.91a39.09,39.09,0,0,0,4.3-2.42C158.17,92.28,157.77,91.12,156.38,91.05Z"/><path class="cls-1" d="M161.73,54.93a4,4,0,0,0,.61,1.51c1.28,2.14,4.8,2.53,4.4-1.08C166.51,53.18,161.45,52.62,161.73,54.93Z"/><path class="cls-1" d="M148.91,83.33c2.48.37,5.76-2.76,2.74-3.71-1.22-.41-2.46.53-3.32,1.33C147.24,82,146.86,83,148.91,83.33Z"/><path class="cls-1" d="M146.13,47.48a2.33,2.33,0,0,0,1.21-4.09c-1.15-.85-3.66-.72-4.07,1.22A2.5,2.5,0,0,0,146.13,47.48Z"/><path class="cls-1" d="M126.3,72.88a4.76,4.76,0,0,0,1.37-.16c2.83-.58,1.73-3-.39-3.25C124.53,69.18,123.32,72.74,126.3,72.88Z"/><path class="cls-1" d="M163.42,44.26c1.51-.68,2.13-4.58-1-3.7-1.8.5-1.83,1.29-1.12,2.5S162.81,44.52,163.42,44.26Z"/><path class="cls-1" d="M144.11,69.18c2.92.56,5-4.51,1.61-4.62a3.19,3.19,0,0,0-2.51,1.12C142.1,66.92,142,68.79,144.11,69.18Z"/><path class="cls-1" d="M174.8,66c2.23.26,3.6-3.65,1.49-3.79C174.35,62.13,172.59,65.78,174.8,66Z"/><path class="cls-1" d="M164,79.31c2.25.85,5.46-3.24,1.9-4C163.43,74.82,161.34,78.29,164,79.31Z"/><path class="cls-1" d="M126.8,52.11c-.71-2.08,3.58-5.35,4.47-2.53a2.44,2.44,0,0,1-.87,2.42C129.21,53.12,127.32,53.61,126.8,52.11Z"/><path class="cls-1" d="M131.33,84.07a2,2,0,0,1,1.87-2.47,1.93,1.93,0,0,1,2.18,2.31c-.16,1.94-1.65,2.88-2.73,2.51C131.93,86.15,131.55,85.09,131.33,84.07Z"/><path class="cls-1" d="M156.94,67.21c-.21-1.07,1.61-1.41,1.48-.1S157.12,68.16,156.94,67.21Z"/><path class="cls-1" d="M119.2,60.22c-.22-1.09,1.74-1.28,1.57,0S119.37,61.15,119.2,60.22Z"/><path class="cls-1" d="M165.08,34.73c-.23-1.74,2.86-2.35,2.52-.24C167.28,36.43,165.31,36.25,165.08,34.73Z"/><path class="cls-1" d="M139,89.38a.94.94,0,1,1,1.85-.08C140.78,90.81,139.32,90.58,139,89.38Z"/><path class="cls-1" d="M175.52,59.86c-.18-1.06,1.57-1.45,1.42-.18S175.68,60.78,175.52,59.86Z"/><path class="cls-4" d="M140.77,101.52c-.06-1.24.93-1.72,2.07-1.66-8.1-9.79-22.2-17-35-16.64a30.19,30.19,0,0,0-9.48,1.67.88.88,0,0,1,0,1.33,1.85,1.85,0,0,1-2.77-.15,19.54,19.54,0,0,0-6,5.31,20.55,20.55,0,0,0-4.35,14.19,1.29,1.29,0,0,1,1.34.09,1.89,1.89,0,0,1,.39,2.09c-.28.56-.93.57-1.53.3.09.79.22,1.55.33,2.22a37.26,37.26,0,0,0,2.65,8c.44-.57.93-.54,1.67.05a13.51,13.51,0,0,1,1.4,1.29c-.22,1-.75,1.27-1.73.95a1.81,1.81,0,0,0-.29-.1c4.75,9.36,13.18,17.42,22.21,21.28a2,2,0,0,1,.42-.44c1.19-.79,2.39.39,3.25,1.23.09.1.06.27-.06.48a20.92,20.92,0,0,0,11.65-.22c4.61-1.24,8.32-4.17,11.46-7.5-.87-.59-.85-2.6.17-3,.64-.26,1.24.31,1.59.86a.84.84,0,0,1,0,.1l.74-.89c3.68-4.51,6.72-10.42,7.34-15.75a19.88,19.88,0,0,0-2.88-13.21C144,104.74,140.88,103.36,140.77,101.52Z"/><path class="cls-1" d="M98.41,86.22a.88.88,0,0,0,0-1.33,24.26,24.26,0,0,0-2.74,1.18A1.85,1.85,0,0,0,98.41,86.22Z"/><path class="cls-1" d="M138.58,132.35c-1,.4-1,2.41-.17,3,.61-.67,1.22-1.35,1.8-2a.84.84,0,0,0,0-.1C139.82,132.66,139.22,132.09,138.58,132.35Z"/><path class="cls-1" d="M87,107.76a1.89,1.89,0,0,0-.39-2.09,1.29,1.29,0,0,0-1.34-.09c0,.85.1,1.69.19,2.48C86,108.33,86.69,108.32,87,107.76Z"/><path class="cls-1" d="M91.49,119.67a13.51,13.51,0,0,0-1.4-1.29c-.73-.59-1.22-.62-1.67-.05.33.72.68,1.46,1,2.19a1.81,1.81,0,0,1,.29.1C90.74,120.93,91.28,120.67,91.49,119.67Z"/><path class="cls-1" d="M115.36,142.59c-.86-.84-2.07-2-3.25-1.23a2,2,0,0,0-.42.44,31.05,31.05,0,0,0,3.62,1.27C115.42,142.86,115.45,142.69,115.36,142.59Z"/><path class="cls-1" d="M140.77,101.52c.11,1.84,3.27,3.22,4.64,1.94a36.66,36.66,0,0,0-2.57-3.6C141.7,99.81,140.7,100.28,140.77,101.52Z"/><path class="cls-1" d="M108,100.11a3.58,3.58,0,0,0,1.29-.69c1.79-1.34,1.81-4.52-1.36-3.82C106,96,106,100.58,108,100.11Z"/><path class="cls-1" d="M134.57,108.9c.09-2.25-3-4.89-3.57-2.11-.25,1.14.71,2.16,1.49,2.83C133.51,110.52,134.49,110.77,134.57,108.9Z"/><path class="cls-1" d="M102.86,114.72a2.09,2.09,0,0,0-3.76-.7c-.66,1.11-.31,3.33,1.47,3.52A2.24,2.24,0,0,0,102.86,114.72Z"/><path class="cls-1" d="M127.36,130a4.36,4.36,0,0,0-.27-1.21c-.79-2.46-2.87-1.25-2.87.65C124.22,132,127.5,132.72,127.36,130Z"/><path class="cls-1" d="M98.37,99.6c-.74-1.29-4.29-1.47-3.22,1.2.62,1.56,1.33,1.51,2.34.77S98.66,100.11,98.37,99.6Z"/><path class="cls-1" d="M122.41,114.5c.22-2.65-4.5-4.08-4.28-1a2.84,2.84,0,0,0,1.23,2.13C120.57,116.51,122.24,116.41,122.41,114.5Z"/><path class="cls-1" d="M116.74,87.4c0-2-3.6-2.87-3.52-1C113.29,88.18,116.72,89.42,116.74,87.4Z"/><path class="cls-1" d="M129.59,95.81c.54-2.08-3.4-4.57-3.73-1.32C125.63,96.74,128.92,98.27,129.59,95.81Z"/><path class="cls-1" d="M108.78,131.53c-1.79.83-5.1-2.69-2.67-3.76a2.22,2.22,0,0,1,2.25.57C109.46,129.29,110.06,130.93,108.78,131.53Z"/><path class="cls-1" d="M136.87,124.52a1.79,1.79,0,0,1-2.38-1.43,1.73,1.73,0,0,1,1.85-2.17c1.75,0,2.72,1.22,2.49,2.21C138.66,123.79,137.76,124.22,136.87,124.52Z"/><path class="cls-1" d="M119.45,103.24c-.93.29-1.4-1.31-.23-1.31S120.28,103,119.45,103.24Z"/><path class="cls-1" d="M116.72,137.56c-.95.3-1.31-1.42-.17-1.4S117.54,137.32,116.72,137.56Z"/><path class="cls-1" d="M89.71,99c-1.52.37-2.36-2.34-.45-2.22S91,98.66,89.71,99Z"/><path class="cls-1" d="M140.89,117.14a.85.85,0,1,1-.25-1.64C142,115.46,141.93,116.78,140.89,117.14Z"/><path class="cls-1" d="M111.16,87.34c-.92.26-1.44-1.26-.29-1.25S112,87.11,111.16,87.34Z"/><rect class="cls-6" x="0.05" y="68.79" width="13.31" height="74.67"/><rect class="cls-6" x="45.19" y="68.79" width="28.21" height="74.67"/><rect class="cls-6" x="107.33" y="68.79" width="28.22" height="74.67"/><rect class="cls-6" x="169.5" y="68.79" width="28.18" height="74.67"/><polygon class="cls-6" points="231.63 68.79 231.62 143.46 259.82 143.46 259.82 68.79 231.63 68.79"/><rect class="cls-6" x="293.76" y="68.79" width="28.19" height="74.67"/><polygon class="cls-6" points="355.91 68.79 355.89 143.46 384.11 143.46 384.11 68.79 355.91 68.79"/><rect class="cls-6" x="418.04" y="68.79" width="28.21" height="74.67"/><rect class="cls-6" x="481.25" y="68.79" width="15.24" height="74.67"/><rect class="cls-6" y="135.28" width="496.48" height="22.57"/><rect class="cls-6" x="0.01" y="96.8" width="496.48" height="16.7"/><rect class="cls-6" x="0.01" y="60.73" width="496.48" height="16.13"/></g></g></svg>