<svg xmlns="http://www.w3.org/2000/svg" viewBox="0 0 188.87 248.6"><defs><style>.cls-1{fill:#c7c45d;}.cls-2{fill:#3e472b;}.cls-3{fill:#7a993b;}</style></defs><title>Avocados</title><g id="Layer_2" data-name="Layer 2"><g id="Layer_1-2" data-name="Layer 1"><rect class="cls-1" x="32.95" y="38.57" width="4.57" height="8.37"/><path class="cls-2" d="M61.76,81.94h0l-.18-.52h0L52.12,54.5h0a17.9,17.9,0,0,0-34.2,0h0L8.45,81.41h0l-.18.52h0a28.28,28.28,0,1,0,53.49,0Z"/><circle class="cls-3" cx="28.28" cy="55.55" r="4.3"/><rect class="cls-1" x="158.53" width="4.57" height="8.37"/><path class="cls-2" d="M187.33,43.37h0l-.18-.52h0l-9.46-26.91h0a17.9,17.9,0,0,0-34.2,0h0L134,42.84h0l-.18.52h0a28.28,28.28,0,1,0,53.49,0Z"/><circle class="cls-3" cx="153.86" cy="16.98" r="4.3"/><rect class="cls-1" x="26.22" y="167.75" width="4.57" height="8.37"/><path class="cls-2" d="M55,211.12h0l-.18-.52h0l-9.46-26.91h0a17.9,17.9,0,0,0-34.2,0h0L1.72,210.59h0l-.18.52h0a28.28,28.28,0,1,0,53.49,0Z"/><circle class="cls-3" cx="21.55" cy="184.73" r="4.3"/></g></g></svg>