<svg xmlns="http://www.w3.org/2000/svg" viewBox="0 0 120.79 128.62"><defs><style>.cls-1{fill:#6e9e42;}.cls-2{fill:#fd8f33;}.cls-3{fill:#fda833;}</style></defs><title>Carrots</title><g id="Layer_2" data-name="Layer 2"><g id="Layer_1-2" data-name="Layer 1"><polygon class="cls-1" points="5.51 24.95 3.39 0.9 5.01 0 9.6 15.78 10.49 15.83 10.05 2.24 11.34 1.85 13.24 2.85 15.2 15.72 16.54 6.83 17.6 6.99 18.5 16.05 22.69 0.56 24.76 1.46 24.76 4.76 20.79 25.9 5.51 24.95"/><circle class="cls-2" cx="13.57" cy="32.78" r="13.57"/><circle class="cls-2" cx="13.57" cy="121.07" r="7.55"/><polygon class="cls-2" points="27.12 33.56 27.08 34.18 25.12 62.76 24.81 67.25 24.59 70.48 24.28 74.97 21.13 121.06 6.02 121.06 5.06 107.08 4.74 102.6 0.99 47.78 0.68 43.3 0.02 33.71 27.12 33.56"/><path class="cls-3" d="M.68,43.3H10a2.25,2.25,0,0,1,2.24,2.24,2,2,0,0,1-.13.74A2.22,2.22,0,0,1,10,47.78H1Z"/><path class="cls-3" d="M16.31,62.76h8.81l-.31,4.48h-8.5a2.24,2.24,0,1,1,0-4.48Z"/><path class="cls-3" d="M20,70.49h4.62L24.28,75H20a2.24,2.24,0,0,1,0-4.48Z"/><path class="cls-3" d="M4.74,102.6H9.46a2.24,2.24,0,1,1,0,4.47H5.06Z"/><polygon class="cls-1" points="52.34 24.95 50.21 0.9 51.84 0 56.42 15.78 57.32 15.83 56.87 2.24 58.16 1.85 60.06 2.85 62.02 15.72 63.36 6.83 64.42 6.99 65.32 16.05 69.51 0.56 71.58 1.46 71.58 4.76 67.61 25.9 52.34 24.95"/><circle class="cls-2" cx="60.4" cy="32.78" r="13.57"/><circle class="cls-2" cx="60.4" cy="121.07" r="7.55"/><polygon class="cls-2" points="73.94 33.56 73.9 34.18 71.94 62.76 71.64 67.25 71.42 70.48 71.11 74.97 67.96 121.06 52.84 121.06 51.88 107.08 51.57 102.6 47.81 47.78 47.5 43.3 46.85 33.71 73.94 33.56"/><path class="cls-3" d="M47.5,43.3h9.31a2.25,2.25,0,0,1,2.24,2.24,2,2,0,0,1-.13.74,2.22,2.22,0,0,1-2.11,1.5h-9Z"/><path class="cls-3" d="M63.13,62.76h8.81l-.31,4.48h-8.5a2.24,2.24,0,0,1,0-4.48Z"/><path class="cls-3" d="M66.8,70.49h4.62L71.11,75H66.8a2.24,2.24,0,0,1,0-4.48Z"/><path class="cls-3" d="M51.57,102.6h4.71a2.24,2.24,0,1,1,0,4.47h-4.4Z"/><polygon class="cls-1" points="99.16 24.95 97.04 0.9 98.66 0 103.25 15.78 104.14 15.83 103.7 2.24 104.99 1.85 106.89 2.85 108.85 15.72 110.19 6.83 111.25 6.99 112.15 16.05 116.34 0.56 118.41 1.46 118.41 4.76 114.44 25.9 99.16 24.95"/><circle class="cls-2" cx="107.22" cy="32.78" r="13.57"/><circle class="cls-2" cx="107.22" cy="121.07" r="7.55"/><polygon class="cls-2" points="120.77 33.56 120.73 34.18 118.77 62.76 118.46 67.25 118.24 70.48 117.93 74.97 114.78 121.06 99.67 121.06 98.71 107.08 98.39 102.6 94.64 47.78 94.33 43.3 93.67 33.71 120.77 33.56"/><path class="cls-3" d="M94.33,43.3h9.31a2.25,2.25,0,0,1,2.24,2.24,2,2,0,0,1-.13.74,2.22,2.22,0,0,1-2.11,1.5h-9Z"/><path class="cls-3" d="M110,62.76h8.81l-.31,4.48H110a2.24,2.24,0,0,1,0-4.48Z"/><path class="cls-3" d="M113.62,70.49h4.62L117.93,75h-4.31a2.24,2.24,0,0,1,0-4.48Z"/><path class="cls-3" d="M98.39,102.6h4.71a2.24,2.24,0,1,1,0,4.47h-4.4Z"/></g></g></svg>