<svg xmlns="http://www.w3.org/2000/svg" viewBox="0 0 126.05 130.68"><defs><style>.cls-1{fill:#b8b8b8;}.cls-2{fill:#d4d4d4;}.cls-3{fill:#878787;}.cls-4{fill:#1f1f1f;}.cls-5{fill:#cdcdcd;}.cls-6{fill:#fff;}.cls-7{fill:#fbfbfb;}.cls-8{fill:#b3b3b3;}.cls-9{fill:#202020;}.cls-10{fill:#857c91;}.cls-11{fill:#938a9f;}.cls-12{fill:#6c6479;}.cls-13{fill:#393045;}.cls-14{fill:#8f879c;}.cls-15{fill:#a8a0b5;}.cls-16{fill:#a69eb3;}.cls-17{fill:#827a8f;}.cls-18{fill:#393146;}</style></defs><title>ResultHappyMediumOff</title><g id="Layer_2" data-name="Layer 2"><g id="moosh"><path class="cls-1" d="M75.79,102.92s0,.08,0,.21l.1,0c0-.16,0-.23-.05-.23M48,101.32l-.06,0,.06,0m14.47-1-.19.11.19-.11m-8.72-.13a8.61,8.61,0,0,1,2,.23,8.59,8.59,0,0,0-2-.23m-.07,0h0m16-1.57c5.56,0,11.73,2.41,14.44,6.75-2.72-4.34-8.88-6.73-14.44-6.75m-.07,0h0m14.56-22.4h0M41.63,74.85h0m-.16,0h0M75.9,74.5h0m-25-.09h0m8.28,0h0m8.44-.69h0m-.27,0h0m6,0a3.66,3.66,0,0,0,2.37.85,3.66,3.66,0,0,1-2.37-.85m-19.86-.38-.14.13.14-.13m2.68-.8A2.87,2.87,0,0,0,59,74.37a2.88,2.88,0,0,1-2.84-1.91M71,72l-.07.11-.13.17.13-.17L71,72m9.54-.11a5.08,5.08,0,0,1-3.86,2.57h0a5.08,5.08,0,0,0,3.86-2.57c0,.09,0,.19,0,.28a11,11,0,0,1,.24,1.53,3.09,3.09,0,0,0,3.31,2.6,3.09,3.09,0,0,1-3.31-2.6,11,11,0,0,0-.24-1.53c0-.09,0-.19,0-.28m-42.7-1.13-.07.13a2.91,2.91,0,0,0-.17.5c-.28,1.08-.1,2.24-.9,3.12a4.15,4.15,0,0,1-2.57,1.22,6,6,0,0,1-.74,0,6,6,0,0,0,.74,0,4.15,4.15,0,0,0,2.57-1.22c.8-.88.62-2,.9-3.12a2.91,2.91,0,0,1,.17-.5l.07-.13c.23.72.74,2.07.83,2.27a4.84,4.84,0,0,0,.28.53,2.9,2.9,0,0,0,2.39,1.32A2.9,2.9,0,0,1,39,73.53,4.84,4.84,0,0,1,38.7,73c-.09-.2-.6-1.55-.83-2.27m8-.38-.13.33.13-.33c.75,2,2.7,4,4.81,4.06-2.11-.06-4.06-2-4.81-4.06m26,0h0v0m-8.21-.63a5.36,5.36,0,0,0,.4,1.39,3.29,3.29,0,0,0,3.08,2.62,3.29,3.29,0,0,1-3.08-2.62,5.16,5.16,0,0,1-.39-1.39h0m48.35,5.66a2.18,2.18,0,0,1-2.33-1.66,2.51,2.51,0,0,1,1.91-3.11,2.84,2.84,0,0,1,.68-.09,2.09,2.09,0,0,1,2.05,1.81,2.2,2.2,0,0,1-1.5,3,4.36,4.36,0,0,1-.81.08m-79,.4a4,4,0,0,1-2.78-1.44A10.09,10.09,0,0,1,28.92,72c0-.08-.07-.19-.13-.28.46-.11.93-.22,1.39-.31a147.67,147.67,0,0,1,29.7-3H60c1.06,0,2.11,0,3.17,0h1.28c4.93.14,9.86.5,14.76,1.07l1.19.15v0h.23q3.79.48,7.55,1.12l.16,0,.06,0h.06l1.62.28q2.87.52,5.72,1.13l.93.21A21.82,21.82,0,0,0,95.28,75l-.1.13h0l-.21.24-.07.07-.17.16-.07.06a3.93,3.93,0,0,1-.53.38l0,0-.26.13,0,0a4.23,4.23,0,0,1-1,.31h0a4.28,4.28,0,0,1-.78.07,4.29,4.29,0,0,0,.78-.07h0a4.23,4.23,0,0,0,1-.31l0,0,.26-.13,0,0a3.93,3.93,0,0,0,.53-.38l.07-.06.17-.16.07-.07.21-.24h0l.1-.13a21.82,21.82,0,0,1,1.47-2.41,19.1,19.1,0,0,1,7.58,3.14A7.68,7.68,0,0,1,107.1,79a5.94,5.94,0,0,1,.4,2.23c0,2.93-1.73,6.2-3.13,8.74a30.91,30.91,0,0,1-5,6.69,39.76,39.76,0,0,1-13,8.46c-.63.26-1.26.5-1.89.71-1.29.44-2.58.81-3.89,1.13l.92.32c-2.51.52-5,1.07-7.51,1.63l-.41-.3A50.14,50.14,0,0,1,62,110a55.6,55.6,0,0,1-17.48-2.86l-.07-.07-.06,0q-2.34-.79-4.6-1.77a51.07,51.07,0,0,1-11.83-7.19c-6.41-5.24-13.41-14.08-7-22,2-2.43,4.88-3.65,7.87-4.39.05.09.09.21.13.28a10.09,10.09,0,0,0,1.38,2.25,4,4,0,0,0,2.78,1.44M17.2,70.66a7.54,7.54,0,0,1-2-.32c-2.91-.82-4.9-2.19-4.44-4.21C12,62.31,12.85,59,15.83,59a5.84,5.84,0,0,1,1.83.34c3.49,1.17,4.43,4.27,3.6,7.71-.6,2.48-2,3.64-4.06,3.64m95.46-2.79c-1.59,0-2.68-.9-3.14-2.81-.64-2.65.08-5,2.78-5.95a4.5,4.5,0,0,1,1.41-.26c2.3,0,2.93,2.58,4,5.53.35,1.56-1.18,2.61-3.42,3.25a5.86,5.86,0,0,1-1.58.24m11.12-10.72-.06-.07-.08-.09.14.17m-8.92-2.24,0,0,0,0m-3.75,1.33c-1.11,0-1.73-.73-2.09-2-.49-1.71.71-2.33,1.66-3.08h.08c1.73,0,2.93.6,3.3,2.24s-.72,2.36-2.15,2.71a3.33,3.33,0,0,1-.81.11m11.55-6.32-.06,0-.06,0,.06,0,.06,0M19.21,55.58a4.36,4.36,0,0,1-1-.14c-1.84-.46-3.29-1.31-2.78-3.52s2-2.9,4.29-2.9h.1c1.23,1,2.79,1.79,2.15,4-.46,1.61-1.27,2.55-2.71,2.55m20.45,1.19h-.08c-7,0-11.83-5.1-11.77-12.31.05-6.9,4.69-12.28,10.65-12.28h.23c7.9.18,13.15,5.72,13,12.55a12.3,12.3,0,0,1-3.44,8.63,5.74,5.74,0,0,1-1.78,1.45,12.36,12.36,0,0,1-6.85,2m46.62.93h-.13c-7.21-.05-12.54-5.59-12.59-13.08s5.26-13,12.78-13h.06c7.92,0,12.9,5.11,12.87,13.12a13.83,13.83,0,0,1-2.05,7.5,5.64,5.64,0,0,1-4,3.76,14,14,0,0,1-7,1.72M76.18,23.51a18.89,18.89,0,0,1,8.42-2.17c.43,0,.87,0,1.3,0a16.61,16.61,0,0,1,6,1A10.94,10.94,0,0,1,96.8,26a3,3,0,0,1,.64,1.81,2.52,2.52,0,0,1-.53,1.55,2.86,2.86,0,0,1-1.49,1h0l-.25,0a.93.93,0,0,1-.85-.56A7,7,0,0,0,91.81,27a10.47,10.47,0,0,0-3.52-1.56,20.37,20.37,0,0,0-4.47-.47,32.66,32.66,0,0,0-8.36,1.19h0l-.24,0a.92.92,0,0,1-.68-.3.94.94,0,0,1-.25-.63.91.91,0,0,1,.4-.75h0c.49-.34,1-.66,1.5-1m-47,6.68h-.09a2.8,2.8,0,0,1-1.82-.85,2.56,2.56,0,0,1-.67-1.75,3.15,3.15,0,0,1,.34-1.4,11.18,11.18,0,0,1,4.75-4.79,17.64,17.64,0,0,1,6.4-2,29.29,29.29,0,0,1,3.41-.22,15.48,15.48,0,0,1,5.26.84l-.22.61.22-.61q.84.3,1.65.67a.92.92,0,0,1,.54.84,1,1,0,0,1-.24.63.93.93,0,0,1-.68.31H48c-1-.08-2-.12-3-.12a25,25,0,0,0-9.72,1.73,10.41,10.41,0,0,0-3.18,2.17,7,7,0,0,0-1.95,3.22h0a.93.93,0,0,1-.9.71M62.89,0C22.86,0,0,32.85,0,67.66a63,63,0,0,0,126,0C126,32.85,105.6,0,62.89,0"/><path class="cls-1" d="M7,98.31l-.72,0,.72.13v-.17"/><path class="cls-2" d="M80.54,107c-2.14.54-4.3,1-6.48,1.52l-.52.13.41.3c2.5-.56,5-1.12,7.51-1.63l-.92-.32"/><path class="cls-3" d="M41.55,20.49a28.09,28.09,0,0,0-3.26.22,16.33,16.33,0,0,0-5.93,1.82,9.85,9.85,0,0,0-4.22,4.23,1.86,1.86,0,0,0-.21.83,1.27,1.27,0,0,0,.33.88,1.4,1.4,0,0,0,.71.4,8.48,8.48,0,0,1,2.2-3.51,11.76,11.76,0,0,1,3.58-2.45A26.28,26.28,0,0,1,45,21.07h.9a14.62,14.62,0,0,0-4.31-.59"/><path class="cls-3" d="M29,28.86a1.4,1.4,0,0,1-.71-.4,1.27,1.27,0,0,1-.33-.88,1.86,1.86,0,0,1,.21-.83,9.85,9.85,0,0,1,4.22-4.23,16.33,16.33,0,0,1,5.93-1.82,28.09,28.09,0,0,1,3.26-.22,14.62,14.62,0,0,1,4.31.59H45A26.28,26.28,0,0,0,34.74,22.9a11.76,11.76,0,0,0-3.58,2.45A8.48,8.48,0,0,0,29,28.86M41.55,19.2a29.29,29.29,0,0,0-3.41.22,17.64,17.64,0,0,0-6.4,2A11.18,11.18,0,0,0,27,26.18a3.15,3.15,0,0,0-.34,1.4,2.56,2.56,0,0,0,.67,1.75,2.8,2.8,0,0,0,1.82.85h.09a.93.93,0,0,0,.9-.71h0a7,7,0,0,1,1.95-3.22,10.41,10.41,0,0,1,3.18-2.17A25,25,0,0,1,45,22.35c1,0,2,0,3,.13h.09a.93.93,0,0,0,.68-.31,1,1,0,0,0,.24-.63.92.92,0,0,0-.54-.84q-.81-.37-1.65-.67l-.22.61-.16.45.16-.45.22-.61a15.48,15.48,0,0,0-5.26-.84"/><path class="cls-3" d="M95.06,29.06h0m-9.15-6.48q-.61,0-1.22,0a18.41,18.41,0,0,0-7.38,1.73,32.07,32.07,0,0,1,6.5-.71,21.52,21.52,0,0,1,4.76.5,11.73,11.73,0,0,1,4,1.76A8.44,8.44,0,0,1,95.34,29a1.45,1.45,0,0,0,.55-.42,1.21,1.21,0,0,0,.26-.76,1.75,1.75,0,0,0-.38-1,9.66,9.66,0,0,0-4.35-3.19,15.38,15.38,0,0,0-5.51-1"/><path class="cls-3" d="M95.06,29.06h0m-17.74-4.7a18.41,18.41,0,0,1,7.38-1.73q.6,0,1.22,0a15.38,15.38,0,0,1,5.51,1,9.66,9.66,0,0,1,4.35,3.19,1.75,1.75,0,0,1,.38,1,1.21,1.21,0,0,1-.26.76,1.45,1.45,0,0,1-.55.42,8.44,8.44,0,0,0-2.8-3.05,11.73,11.73,0,0,0-4-1.76,21.52,21.52,0,0,0-4.76-.5,32.07,32.07,0,0,0-6.5.71m8.59-3.06c-.44,0-.87,0-1.3,0a18.89,18.89,0,0,0-8.42,2.17c-.51.3-1,.62-1.5,1h0a.91.91,0,0,0-.4.75.94.94,0,0,0,.25.63.92.92,0,0,0,.68.3l.24,0h0a32.66,32.66,0,0,1,8.36-1.19,20.37,20.37,0,0,1,4.47.47A10.47,10.47,0,0,1,91.81,27a7,7,0,0,1,2.49,2.81.93.93,0,0,0,.85.56l.25,0h0a2.86,2.86,0,0,0,1.49-1,2.52,2.52,0,0,0,.53-1.55A3,3,0,0,0,96.8,26a10.94,10.94,0,0,0-4.91-3.62,16.61,16.61,0,0,0-6-1"/><path class="cls-4" d="M55.46,69.54c-.06.2-.11.39-.11.4a6,6,0,0,1-.4,1.19,6.6,6.6,0,0,1-1.42,2.08l0,0-.14.13a3.79,3.79,0,0,1-2.44,1h-.19c-2.11-.06-4.06-2-4.81-4.06l-.13.33c-.79,2-1.66,4.14-4.15,4.17h-.27A2.9,2.9,0,0,1,39,73.53,4.84,4.84,0,0,1,38.7,73c-.09-.2-.6-1.55-.83-2.27l-.07.13a2.91,2.91,0,0,0-.17.5c-.28,1.08-.1,2.24-.9,3.12a4.15,4.15,0,0,1-2.57,1.22,6,6,0,0,1-.74,0h-.33a4,4,0,0,1-2.78-1.44A10.09,10.09,0,0,1,28.92,72c0-.08-.07-.19-.13-.28-3,.75-5.89,2-7.87,4.39-6.42,7.91.58,16.75,7,22a51.07,51.07,0,0,0,11.83,7.19,40,40,0,0,1,7.35-3.65l.87-.34.06,0a17.74,17.74,0,0,1,5.57-1.08h.18a8.59,8.59,0,0,1,2,.23l.1,0a15.87,15.87,0,0,1,3.8,1.59c.91-.58,1.84-1.11,2.63-1.6l.19-.11a14.14,14.14,0,0,1,7.11-1.7h.1c5.56,0,11.73,2.41,14.44,6.75.1.15.19.31.28.47.63-.22,1.26-.45,1.89-.71a39.76,39.76,0,0,0,13-8.46,30.91,30.91,0,0,0,5-6.69c1.41-2.54,3.09-5.81,3.13-8.74a5.94,5.94,0,0,0-.4-2.23,7.68,7.68,0,0,0-2.77-3.35,19.1,19.1,0,0,0-7.58-3.14A21.82,21.82,0,0,0,95.28,75l-.1.13h0l-.21.24-.07.07-.17.16-.07.06a3.93,3.93,0,0,1-.53.38l0,0-.26.13,0,0a4.23,4.23,0,0,1-1,.31h0a4.29,4.29,0,0,1-.78.07h-.24a4.11,4.11,0,0,1-.65-.09h0l-.29-.08h0a3.22,3.22,0,0,1-.56-.24l0,0L90,76,90,76a2.93,2.93,0,0,1-.43-.38l0-.05-.14-.17,0-.06-.15-.23h0a2.71,2.71,0,0,1-.12-.27l0-.08-.07-.22,0-.08a3.05,3.05,0,0,1-.06-.31c0-.17-.05-.34-.08-.5v0c0-.16-.07-.31-.11-.44h0l0-.16v0c0-.27,0-.53,0-.8a12.72,12.72,0,0,1-1.37,2.64A3.51,3.51,0,0,1,85,76.19a4.48,4.48,0,0,1-.76.07h-.05a3.09,3.09,0,0,1-3.31-2.6,11,11,0,0,0-.24-1.53c0-.09,0-.19,0-.28a5.08,5.08,0,0,1-3.86,2.57h-.06a5.44,5.44,0,0,1-.74.06h-.19a3.66,3.66,0,0,1-2.37-.85l-.06-.06a5.52,5.52,0,0,1-1.36-3.27v0h-.08A14.52,14.52,0,0,0,71,72l-.07.11-.13.17a4.31,4.31,0,0,1-3.21,1.45h-.42a3.29,3.29,0,0,1-3.08-2.62,5.36,5.36,0,0,1-.4-1.39h0a22.47,22.47,0,0,0-1.1,2.61l-.07.13,0,.06a4,4,0,0,1-3.32,1.91H59a2.87,2.87,0,0,1-2.84-1.91l0-.12a6.41,6.41,0,0,0-.42-1.12c-.09-.45-.19-.89-.28-1.33l0-.17v-.18"/><path class="cls-5" d="M75.85,103.15l-.1,0c0-.13,0-.21,0-.21s0,.07.05.23m-6.21-4.49h0a14.14,14.14,0,0,0-7.11,1.7l-.19.11c-.8.5-1.72,1-2.63,1.6a15.87,15.87,0,0,0-3.8-1.59l-.1,0a8.61,8.61,0,0,0-2-.23h-.18A17.74,17.74,0,0,0,48,101.32l-.06,0-.87.34a40,40,0,0,0-7.35,3.65q2.25,1,4.6,1.77l.06,0,.07.07A55.6,55.6,0,0,0,62,110a50.14,50.14,0,0,0,11.59-1.33l.52-.13c2.18-.54,4.34-1,6.48-1.52,1.3-.33,2.6-.69,3.89-1.13-.09-.16-.18-.32-.28-.47-2.72-4.34-8.88-6.73-14.44-6.75h-.07"/><path class="cls-6" d="M59.89,68.46a147.67,147.67,0,0,0-29.7,3c-.46.09-.93.2-1.39.31.05.09.09.21.13.28a10.09,10.09,0,0,0,1.38,2.25,4,4,0,0,0,2.78,1.44h.33a6,6,0,0,0,.74,0,4.15,4.15,0,0,0,2.57-1.22c.8-.88.62-2,.9-3.12a2.91,2.91,0,0,1,.17-.5l.07-.13c.23.72.74,2.07.83,2.27a4.84,4.84,0,0,0,.28.53,2.9,2.9,0,0,0,2.39,1.32h.27c2.5,0,3.36-2.14,4.15-4.17l.13-.33c.75,2,2.7,4,4.81,4.06h.19a3.79,3.79,0,0,0,2.44-1l.14-.13,0,0a6.6,6.6,0,0,0,1.42-2.08,6,6,0,0,0,.4-1.19s0-.2.11-.4v.18l0,.17c.1.44.2.89.28,1.33a6.41,6.41,0,0,1,.42,1.12l0,.13A2.88,2.88,0,0,0,59,74.37h.19a4,4,0,0,0,3.32-1.91l0-.06.07-.13a22.47,22.47,0,0,1,1.1-2.61h0a5.16,5.16,0,0,0,.39,1.39,3.29,3.29,0,0,0,3.08,2.62h.42a4.31,4.31,0,0,0,3.21-1.45l.13-.17L71,72a14.52,14.52,0,0,1,.82-1.66h.08v0a5.52,5.52,0,0,0,1.36,3.27l.06.06a3.66,3.66,0,0,0,2.37.85h.19a5.44,5.44,0,0,0,.74-.06h.06a5.08,5.08,0,0,0,3.86-2.57c0,.09,0,.19,0,.28a11,11,0,0,1,.24,1.53,3.09,3.09,0,0,0,3.31,2.6h.05a4.48,4.48,0,0,0,.76-.07,3.51,3.51,0,0,0,2.23-1.42,12.72,12.72,0,0,0,1.37-2.64c0,.27,0,.53,0,.8v0l0,.16h0c0,.14.08.29.11.44v0c0,.16.06.32.08.5a3.05,3.05,0,0,0,.06.31l0,.08.07.22,0,.08a2.71,2.71,0,0,0,.12.27h0l.15.23,0,.06.14.17,0,.05A2.93,2.93,0,0,0,90,76L90,76l.21.13,0,0a3.22,3.22,0,0,0,.56.24h0l.29.08h0a4.11,4.11,0,0,0,.65.09h.24a4.28,4.28,0,0,0,.78-.07h0a4.23,4.23,0,0,0,1-.31l0,0,.26-.13,0,0a3.93,3.93,0,0,0,.53-.38l.07-.06.17-.16.07-.07.21-.24h0l.1-.13a21.82,21.82,0,0,1,1.47-2.41l-.93-.21Q93,71.74,90.1,71.22l-1.62-.28h-.06l-.06,0-.16,0q-3.76-.64-7.55-1.12h-.23v0l-1.19-.15c-4.9-.57-9.83-.93-14.76-1.07H63.2c-1.06,0-2.11,0-3.17,0h-.14"/><path class="cls-7" d="M86.34,31.61c-7.52,0-12.83,5.41-12.78,13s5.39,13,12.59,13.08h.13a14,14,0,0,0,7-1.72,5.69,5.69,0,0,1-1.26.14,6.94,6.94,0,0,1-6.48-5.71,6.68,6.68,0,0,1,6.4-8H92a5.37,5.37,0,0,1,3.27,1.08h.16a2.31,2.31,0,0,1,2,3.42,8.93,8.93,0,0,1-.23,5.33,13.83,13.83,0,0,0,2.05-7.5c0-8-5-13.1-12.87-13.12h-.06"/><path class="cls-7" d="M38.45,32.19c-6,0-10.59,5.38-10.65,12.28-.06,7.21,4.79,12.27,11.77,12.31h.08a12.36,12.36,0,0,0,6.85-2,5.23,5.23,0,0,1-2.42.58A6.2,6.2,0,0,1,42,55a6.3,6.3,0,0,1-4-5.21,5.82,5.82,0,0,1,8.77-5.63,2.67,2.67,0,0,1,.55-.06,2.57,2.57,0,0,1,2.3,3.73,6.36,6.36,0,0,1-1.28,5.52,12.3,12.3,0,0,0,3.44-8.63c.11-6.83-5.14-12.37-13-12.55h-.23"/><polyline class="cls-8" points="114.81 54.87 114.86 54.91 114.81 54.87"/><polyline class="cls-8" points="122.54 49.85 122.6 49.89 122.66 49.93 122.6 49.89 122.54 49.85"/><polyline class="cls-8" points="123.63 56.99 123.71 57.08 123.78 57.15 123.63 56.99"/><path class="cls-1" d="M43.73,43.36a5.83,5.83,0,0,0-5.79,6.45A6.3,6.3,0,0,0,42,55a6.2,6.2,0,0,0,2.12.39,5.23,5.23,0,0,0,2.42-.58,5.74,5.74,0,0,0,1.78-1.45,6.36,6.36,0,0,0,1.28-5.52,2.57,2.57,0,0,1-1.8,1.36A4,4,0,0,1,44,53.39a4.13,4.13,0,0,1-1.41-.26,4.2,4.2,0,0,1-2.69-3.47,3.89,3.89,0,0,1,3.86-4.3,3.81,3.81,0,0,1,1.21.2,2.58,2.58,0,0,1,1.75-1.36,5.85,5.85,0,0,0-3-.83"/><path class="cls-9" d="M43.75,45.35a3.89,3.89,0,0,0-3.86,4.3,4.2,4.2,0,0,0,2.69,3.47,4.13,4.13,0,0,0,1.41.26,4,4,0,0,0,3.77-4.17,2.54,2.54,0,0,1-.5,0A2.57,2.57,0,0,1,45,45.55a3.81,3.81,0,0,0-1.21-.2"/><path class="cls-6" d="M47.26,44.13a2.67,2.67,0,0,0-.55.06,2.57,2.57,0,0,0,.55,5.08,2.54,2.54,0,0,0,.5,0,2.57,2.57,0,0,0-.5-5.09"/><path class="cls-1" d="M91.91,42.4a6.68,6.68,0,0,0-6.4,8A6.94,6.94,0,0,0,92,56.13a5.38,5.38,0,0,0,5.22-3.89,8.93,8.93,0,0,0,.23-5.33,2.31,2.31,0,0,1-1.83,1.18c.51,2.62-.78,5.8-3.75,5.8A4.67,4.67,0,0,1,87.5,50a4.49,4.49,0,0,1,4.3-5.38h.05a3.81,3.81,0,0,1,1.43.28,2.31,2.31,0,0,1,2-1.46A5.37,5.37,0,0,0,92,42.41h-.07"/><path class="cls-9" d="M91.79,44.66A4.49,4.49,0,0,0,87.5,50a4.67,4.67,0,0,0,4.35,3.84c3,0,4.27-3.17,3.75-5.8h-.18a2.31,2.31,0,0,1-2.15-3.15,3.81,3.81,0,0,0-1.43-.28h-.05"/><path class="cls-6" d="M95.42,43.48h-.16a2.3,2.3,0,0,0,.16,4.6h.18a2.3,2.3,0,0,0-.18-4.6"/><path class="cls-2" d="M113.71,58.85a4.5,4.5,0,0,0-1.41.26c-2.69.9-3.42,3.3-2.78,5.95.46,1.92,1.55,2.81,3.14,2.81a5.86,5.86,0,0,0,1.58-.24c2.24-.64,3.78-1.69,3.42-3.25-1-2.95-1.65-5.53-4-5.53"/><path class="cls-2" d="M110.76,51.19h-.08c-.95.75-2.15,1.38-1.66,3.08.35,1.24,1,2,2.09,2a3.33,3.33,0,0,0,.81-.11c1.42-.35,2.54-1,2.15-2.71s-1.58-2.24-3.3-2.24"/><path class="cls-2" d="M112.34,70.48a2.84,2.84,0,0,0-.68.09,2.51,2.51,0,0,0-1.91,3.11,2.18,2.18,0,0,0,2.33,1.66,4.36,4.36,0,0,0,.81-.08,2.2,2.2,0,0,0,1.5-3,2.09,2.09,0,0,0-2.05-1.81"/><path class="cls-2" d="M15.83,59c-3,0-3.79,3.34-5.12,7.17-.46,2,1.53,3.39,4.44,4.21a7.54,7.54,0,0,0,2,.32c2.06,0,3.46-1.16,4.06-3.64.83-3.44-.11-6.54-3.6-7.71A5.84,5.84,0,0,0,15.83,59"/><path class="cls-2" d="M19.66,49c-2.24,0-3.8.78-4.29,2.9s.94,3.06,2.78,3.52a4.36,4.36,0,0,0,1,.14c1.44,0,2.25-.95,2.71-2.55.63-2.21-.92-3-2.15-4h-.1"/><path class="cls-10" d="M75.79,102.92s0,.08,0,.21l.1,0c0-.16,0-.23-.05-.23m-22-2.69a8.68,8.68,0,0,1,1.94.21,8.67,8.67,0,0,0-1.94-.21m2.4-27.77A2.87,2.87,0,0,0,59,74.37a2.88,2.88,0,0,1-2.84-1.91m15.76-2.14h0m0,0h0v0m-8.21-.63s0,0,0,0A5.53,5.53,0,0,0,64.1,71a5.32,5.32,0,0,1-.37-1.27s0,0,0,0h0M109.66,73a2.51,2.51,0,0,1,2-2.46,2.84,2.84,0,0,1,.68-.09,2.09,2.09,0,0,1,2.05,1.81,3.76,3.76,0,0,1,.12.91,2.11,2.11,0,0,1-1.63,2.05,4.36,4.36,0,0,1-.81.08,2.18,2.18,0,0,1-2.33-1.66,2.71,2.71,0,0,1-.08-.65M28.8,71.76h0c.46-.11.93-.22,1.39-.31a147.67,147.67,0,0,1,29.7-3H60c1.06,0,2.11,0,3.17,0h1.28c4.93.14,9.86.5,14.76,1.07l1.19.15h0v0h.23q3.79.48,7.55,1.12l.16,0,.06,0h.06l1.62.28q2.87.52,5.72,1.13l.93.21h0a19.1,19.1,0,0,1,7.58,3.14A7.68,7.68,0,0,1,107.1,79a5.94,5.94,0,0,1,.4,2.16s0,.05,0,.08c0,2.93-1.73,6.2-3.13,8.74a30.91,30.91,0,0,1-5,6.69,39.76,39.76,0,0,1-13,8.46c-.63.26-1.26.5-1.89.71-1.29.44-2.58.81-3.89,1.13l.92.32h0c-2.51.52-5,1.07-7.51,1.63l-.41-.3A50.14,50.14,0,0,1,62,110a55.6,55.6,0,0,1-17.48-2.86l-.07-.07-.06,0q-2.34-.79-4.6-1.77a51.07,51.07,0,0,1-11.83-7.19c-4.61-3.77-9.52-9.39-9.54-15.2a10.54,10.54,0,0,1,2.54-6.8c2-2.43,4.88-3.65,7.87-4.39h0M10.65,66.68a2.57,2.57,0,0,1,.07-.55C12,62.31,12.85,59,15.83,59a5.84,5.84,0,0,1,1.83.34,5.37,5.37,0,0,1,3.88,5.44A9.58,9.58,0,0,1,21.26,67c-.6,2.48-2,3.64-4.06,3.64a7.54,7.54,0,0,1-2-.32c-2.64-.74-4.52-1.94-4.51-3.66m98.66-3.37a4.15,4.15,0,0,1,3-4.2,4.5,4.5,0,0,1,1.41-.26h0c2.26,0,2.89,2.55,3.9,5.46l0,.07a2,2,0,0,1,.05.42c0,1.33-1.44,2.25-3.48,2.82a5.86,5.86,0,0,1-1.58.24c-1.59,0-2.68-.9-3.14-2.81a7.38,7.38,0,0,1-.22-1.75m14.47-6.16-.14-.17.08.09.06.07m-8.92-2.24,0,0,0,0m-6-1.36c0-1.18,1-1.72,1.77-2.36h.08c1.73,0,2.93.6,3.3,2.24a2.84,2.84,0,0,1,.08.66c0,1.22-1,1.75-2.23,2.06a3.33,3.33,0,0,1-.81.11c-1.11,0-1.73-.73-2.09-2a2.69,2.69,0,0,1-.11-.73m13.75-3.62-.06,0-.06,0,.06,0,.06,0M15.27,52.78a3.71,3.71,0,0,1,.1-.85c.49-2.12,2-2.9,4.29-2.9h.1c1,.82,2.31,1.53,2.3,3.06a3.49,3.49,0,0,1-.15.94c-.46,1.61-1.27,2.55-2.71,2.55a4.36,4.36,0,0,1-1-.14c-1.58-.39-2.87-1.08-2.88-2.66M27.8,44.63c0-.06,0-.11,0-.17.05-6.9,4.69-12.28,10.65-12.28h.23c7.81.18,13,5.59,13,12.31,0,.08,0,.16,0,.24a12.3,12.3,0,0,1-3.44,8.63,5.74,5.74,0,0,1-1.78,1.45,12.36,12.36,0,0,1-6.85,2h-.08c-6.93,0-11.75-5-11.77-12.14m45.76-.09c0-7.56,5.29-12.93,12.78-12.93h.06c7.92,0,12.9,5.11,12.87,13.12h0a13.83,13.83,0,0,1-2.05,7.5,5.64,5.64,0,0,1-4,3.76,14,14,0,0,1-7,1.72h-.13c-7.21-.05-12.54-5.59-12.59-13.08,0,0,0-.06,0-.09m1.13-20.08h0c.49-.34,1-.66,1.5-1a18.89,18.89,0,0,1,8.42-2.17c.43,0,.87,0,1.3,0a16.61,16.61,0,0,1,6,1A10.94,10.94,0,0,1,96.8,26a3,3,0,0,1,.64,1.81h0a2.52,2.52,0,0,1-.53,1.55,2.86,2.86,0,0,1-1.49,1h0l-.25,0a.93.93,0,0,1-.85-.56A7,7,0,0,0,91.81,27a10.47,10.47,0,0,0-3.52-1.56,20.37,20.37,0,0,0-4.47-.47,32.66,32.66,0,0,0-8.36,1.19h0l-.24,0a.92.92,0,0,1-.68-.3.94.94,0,0,1-.25-.63v0a.92.92,0,0,1,.4-.73h0m-48,3.12h0a3.15,3.15,0,0,1,.34-1.4,11.18,11.18,0,0,1,4.75-4.79,17.64,17.64,0,0,1,6.4-2,29.29,29.29,0,0,1,3.41-.22,15.48,15.48,0,0,1,5.26.84h0q.84.3,1.65.67a.93.93,0,0,1,.54.81v0a1,1,0,0,1-.24.63.93.93,0,0,1-.68.31H48c-1-.08-2-.12-3-.12h0A25.33,25.33,0,0,0,35.52,24l-.27.12a10.41,10.41,0,0,0-3.18,2.17,7,7,0,0,0-1.95,3.22h0a.93.93,0,0,1-.9.71h-.09a2.8,2.8,0,0,1-1.82-.85,2.56,2.56,0,0,1-.67-1.75h0M62.89,0C22.86,0,0,32.85,0,67.66a63,63,0,0,0,126,0C126,32.85,105.6,0,62.89,0"/><path class="cls-10" d="M7,98.31l-.72,0,.72.13v-.17"/><path class="cls-11" d="M80.54,107c-2.14.54-4.3,1-6.48,1.52l-.52.13.41.3c2.5-.56,5-1.12,7.51-1.63h0l-.92-.32h0"/><path class="cls-12" d="M41.55,20.49a28.09,28.09,0,0,0-3.26.22,16.33,16.33,0,0,0-5.93,1.82,9.85,9.85,0,0,0-4.22,4.23,1.86,1.86,0,0,0-.21.83,1.27,1.27,0,0,0,.33.88,1.4,1.4,0,0,0,.71.4,8.48,8.48,0,0,1,2.2-3.51,11.76,11.76,0,0,1,3.58-2.45A26.28,26.28,0,0,1,45,21.07h.9a14.62,14.62,0,0,0-4.31-.59"/><path class="cls-12" d="M27.92,27.58h0a1.86,1.86,0,0,1,.21-.83,9.85,9.85,0,0,1,4.22-4.23,16.33,16.33,0,0,1,5.93-1.82,28.09,28.09,0,0,1,3.26-.22,14.62,14.62,0,0,1,4.31.59H45A26.28,26.28,0,0,0,34.74,22.9a11.76,11.76,0,0,0-3.58,2.45A8.48,8.48,0,0,0,29,28.86a1.4,1.4,0,0,1-.71-.4,1.27,1.27,0,0,1-.33-.88M41.55,19.2a29.29,29.29,0,0,0-3.41.22,17.64,17.64,0,0,0-6.4,2A11.18,11.18,0,0,0,27,26.18a3.15,3.15,0,0,0-.34,1.4h0a2.56,2.56,0,0,0,.67,1.75,2.8,2.8,0,0,0,1.82.85h.09a.93.93,0,0,0,.9-.71h0a7,7,0,0,1,1.95-3.22,10.41,10.41,0,0,1,3.18-2.17l.27-.12A25.33,25.33,0,0,1,45,22.35h0c1,0,2,0,3,.13h.09a.93.93,0,0,0,.68-.31,1,1,0,0,0,.24-.63v0a.93.93,0,0,0-.54-.81q-.81-.37-1.65-.67h0l-.22.61-.16.45.16-.45.22-.61a15.48,15.48,0,0,0-5.26-.84"/><path class="cls-12" d="M95.06,29.06h0m-9.15-6.48q-.61,0-1.22,0a18.41,18.41,0,0,0-7.38,1.73,32.07,32.07,0,0,1,6.5-.71,21.52,21.52,0,0,1,4.76.5,11.73,11.73,0,0,1,4,1.76A8.44,8.44,0,0,1,95.34,29a1.45,1.45,0,0,0,.55-.42,1.21,1.21,0,0,0,.26-.76,1.75,1.75,0,0,0-.38-1,9.66,9.66,0,0,0-4.35-3.19,15.38,15.38,0,0,0-5.51-1"/><path class="cls-12" d="M95.06,29.06h0m-17.74-4.7a18.41,18.41,0,0,1,7.38-1.73q.6,0,1.22,0a15.38,15.38,0,0,1,5.51,1,9.66,9.66,0,0,1,4.35,3.19,1.75,1.75,0,0,1,.38,1h0a1.21,1.21,0,0,1-.26.76,1.45,1.45,0,0,1-.55.42,8.44,8.44,0,0,0-2.8-3.05,11.73,11.73,0,0,0-4-1.76,21.52,21.52,0,0,0-4.76-.5,32.07,32.07,0,0,0-6.5.71h0m8.59-3.06c-.44,0-.87,0-1.3,0a18.89,18.89,0,0,0-8.42,2.17c-.51.3-1,.62-1.5,1h0a.92.92,0,0,0-.4.73v0a.94.94,0,0,0,.25.63.92.92,0,0,0,.68.3l.24,0h0a32.66,32.66,0,0,1,8.36-1.19,20.37,20.37,0,0,1,4.47.47A10.47,10.47,0,0,1,91.81,27a7,7,0,0,1,2.49,2.81.93.93,0,0,0,.85.56l.25,0h0a2.86,2.86,0,0,0,1.49-1,2.52,2.52,0,0,0,.53-1.55h0A3,3,0,0,0,96.8,26a10.94,10.94,0,0,0-4.91-3.62,16.61,16.61,0,0,0-6-1"/><path class="cls-13" d="M55.46,69.54c-.06.2-.11.39-.11.4a6,6,0,0,1-.4,1.19,6.6,6.6,0,0,1-1.42,2.08l0,0-.14.13a3.79,3.79,0,0,1-2.44,1h-.19c-2.11-.06-4.06-2-4.81-4.06l-.13.33c-.79,2-1.66,4.14-4.15,4.17h-.27A2.9,2.9,0,0,1,39,73.53,4.84,4.84,0,0,1,38.7,73c-.09-.2-.6-1.55-.83-2.27l-.07.13a2.91,2.91,0,0,0-.17.5c-.28,1.08-.1,2.24-.9,3.12a4.15,4.15,0,0,1-2.57,1.22,6,6,0,0,1-.74,0h-.33a4,4,0,0,1-2.78-1.44A10.09,10.09,0,0,1,28.92,72c0-.08-.07-.19-.13-.28h0c-3,.75-5.89,2-7.87,4.39a10.54,10.54,0,0,0-2.54,6.8c0,5.8,4.93,11.43,9.54,15.2a51.07,51.07,0,0,0,11.83,7.19h0a40,40,0,0,1,7.35-3.65l.87-.34.06,0a17.74,17.74,0,0,1,5.57-1.08h.18a8.67,8.67,0,0,1,1.94.21h.06l.1,0a15.87,15.87,0,0,1,3.8,1.59c.91-.58,1.84-1.11,2.63-1.6l.19-.11a14.14,14.14,0,0,1,7.11-1.7h.1c5.56,0,11.73,2.41,14.44,6.75.1.15.19.31.28.47h0c.63-.22,1.26-.45,1.89-.71a39.76,39.76,0,0,0,13-8.46,30.91,30.91,0,0,0,5-6.69c1.41-2.54,3.09-5.81,3.13-8.74,0,0,0-.05,0-.08a5.94,5.94,0,0,0-.4-2.16,7.68,7.68,0,0,0-2.77-3.35,19.1,19.1,0,0,0-7.58-3.14h0A21.82,21.82,0,0,0,95.28,75l-.1.13h0l-.21.24-.07.07-.17.16-.07.06a3.93,3.93,0,0,1-.53.38l0,0-.26.13,0,0a4.23,4.23,0,0,1-1,.31h0a4.28,4.28,0,0,1-.78.07h-.24a4.11,4.11,0,0,1-.65-.09h0l-.29-.08h0a3.22,3.22,0,0,1-.56-.24l0,0L90,76,90,76a2.93,2.93,0,0,1-.43-.38l0-.05-.14-.17,0-.06-.15-.23h0a2.71,2.71,0,0,1-.12-.27l0-.08-.07-.22,0-.08a3.05,3.05,0,0,1-.06-.31c0-.17-.05-.34-.08-.5v0c0-.16-.07-.31-.11-.44h0l0-.16v0c0-.27,0-.53,0-.8a12.72,12.72,0,0,1-1.37,2.64A3.51,3.51,0,0,1,85,76.19a4.48,4.48,0,0,1-.76.07h-.05a3.09,3.09,0,0,1-3.31-2.6,11,11,0,0,0-.24-1.53c0-.09,0-.19,0-.28a5.08,5.08,0,0,1-3.86,2.57h-.06a5.44,5.44,0,0,1-.74.06h-.19a3.66,3.66,0,0,1-2.37-.85l-.06-.06a5.52,5.52,0,0,1-1.36-3.27h0v0h-.08A14.52,14.52,0,0,0,71,72l-.07.11-.13.17a4.31,4.31,0,0,1-3.21,1.45h-.42a3.29,3.29,0,0,1-3.08-2.62l0-.06a5.53,5.53,0,0,1-.38-1.28s0,0,0,0h0a22.47,22.47,0,0,0-1.1,2.61l-.07.13,0,.06a4,4,0,0,1-3.32,1.91H59a2.87,2.87,0,0,1-2.84-1.91h0l0-.12a6.41,6.41,0,0,0-.42-1.12c-.09-.45-.19-.89-.28-1.33h0l0-.17v-.18"/><path class="cls-14" d="M75.74,103.13h0c0-.13,0-.21,0-.21s0,.07.05.23h0l-.1,0m-6.11-4.47h0a14.14,14.14,0,0,0-7.11,1.7l-.19.11c-.8.5-1.72,1-2.63,1.6a15.87,15.87,0,0,0-3.8-1.59l-.1,0h-.06a8.68,8.68,0,0,0-1.94-.21h-.18A17.74,17.74,0,0,0,48,101.32l-.06,0-.87.34a40,40,0,0,0-7.35,3.65h0q2.25,1,4.6,1.77l.06,0,.07.07A55.6,55.6,0,0,0,62,110a50.14,50.14,0,0,0,11.59-1.33l.52-.13c2.18-.54,4.34-1,6.48-1.52,1.3-.33,2.6-.69,3.89-1.13h0c-.09-.16-.18-.32-.28-.47-2.72-4.34-8.88-6.73-14.44-6.75h-.07"/><path class="cls-15" d="M60,68.46h-.14a147.67,147.67,0,0,0-29.7,3c-.46.09-.93.2-1.39.31h0c.05.09.09.21.13.28a10.09,10.09,0,0,0,1.38,2.25,4,4,0,0,0,2.78,1.44h.33a6,6,0,0,0,.74,0,4.15,4.15,0,0,0,2.57-1.22c.8-.88.62-2,.9-3.12a2.91,2.91,0,0,1,.17-.5l.07-.13c.23.72.74,2.07.83,2.27a4.84,4.84,0,0,0,.28.53,2.9,2.9,0,0,0,2.39,1.32h.27c2.5,0,3.36-2.14,4.15-4.17l.13-.33c.75,2,2.7,4,4.81,4.06h.19a3.79,3.79,0,0,0,2.44-1l.14-.13,0,0a6.6,6.6,0,0,0,1.42-2.08,6,6,0,0,0,.4-1.19s0-.2.11-.4v.18l0,.17h0c.1.44.2.89.28,1.33a6.41,6.41,0,0,1,.42,1.12l0,.13A2.88,2.88,0,0,0,59,74.37h.19a4,4,0,0,0,3.32-1.91l0-.06.07-.13a22.47,22.47,0,0,1,1.1-2.61h0s0,0,0,0a5.92,5.92,0,0,0,.4,1.34,3.29,3.29,0,0,0,3.08,2.62h.42a4.31,4.31,0,0,0,3.21-1.45l.13-.17L71,72a14.52,14.52,0,0,1,.82-1.66h.08v0h0a5.52,5.52,0,0,0,1.36,3.27l.06.06a3.66,3.66,0,0,0,2.37.85h.19a5.44,5.44,0,0,0,.74-.06h.06a5.08,5.08,0,0,0,3.86-2.57c0,.09,0,.19,0,.28a11,11,0,0,1,.24,1.53,3.09,3.09,0,0,0,3.31,2.6h.05a4.48,4.48,0,0,0,.76-.07,3.51,3.51,0,0,0,2.23-1.42,12.72,12.72,0,0,0,1.37-2.64c0,.27,0,.53,0,.8v0l0,.16h0c0,.14.08.29.11.44v0c0,.16.06.32.08.5a3.05,3.05,0,0,0,.06.31l0,.08.07.22,0,.08a2.71,2.71,0,0,0,.12.27h0l.15.23,0,.06.14.17,0,.05A2.93,2.93,0,0,0,90,76L90,76l.21.13,0,0a3.22,3.22,0,0,0,.56.24h0l.29.08h0a4.11,4.11,0,0,0,.65.09h.24a4.28,4.28,0,0,0,.78-.07h0a4.23,4.23,0,0,0,1-.31l0,0,.26-.13,0,0a3.93,3.93,0,0,0,.53-.38l.07-.06.17-.16.07-.07.21-.24h0l.1-.13a21.82,21.82,0,0,1,1.47-2.41h0l-.93-.21Q93,71.74,90.1,71.22l-1.62-.28h-.06l-.06,0-.16,0q-3.76-.64-7.55-1.12h-.23v0l-1.19-.15c-4.9-.57-9.83-.93-14.76-1.07H63.2c-1.06,0-2.11,0-3.17,0"/><path class="cls-16" d="M86.39,31.61h-.06c-7.49,0-12.79,5.37-12.78,12.93,0,0,0,.06,0,.09.05,7.49,5.39,13,12.59,13.08h.13a14,14,0,0,0,7-1.72,5.69,5.69,0,0,1-1.26.14,6.94,6.94,0,0,1-6.48-5.71,7.48,7.48,0,0,1-.11-1.33,6.64,6.64,0,0,1,6.52-6.69H92a5.37,5.37,0,0,1,3.27,1.08h.16a2.3,2.3,0,0,1,2.3,2.3h0a2.3,2.3,0,0,1-.29,1.12,8.94,8.94,0,0,1-.23,5.33,13.83,13.83,0,0,0,2.05-7.5h0c0-8-5-13.1-12.87-13.12"/><path class="cls-16" d="M38.45,32.19c-6,0-10.59,5.38-10.65,12.28,0,.06,0,.11,0,.17,0,7.12,4.84,12.1,11.77,12.14h.08a12.36,12.36,0,0,0,6.85-2,5.23,5.23,0,0,1-2.42.58A6.2,6.2,0,0,1,42,55a6.3,6.3,0,0,1-4-5.21q0-.31,0-.6a5.82,5.82,0,0,1,8.8-5h0a2.67,2.67,0,0,1,.55-.06,2.57,2.57,0,0,1,2.57,2.57h0a2.56,2.56,0,0,1-.27,1.16,5.93,5.93,0,0,1,.18,1.47,6.46,6.46,0,0,1-1.46,4.05,12.3,12.3,0,0,0,3.44-8.63c0-.08,0-.16,0-.24,0-6.72-5.24-12.13-13-12.31h-.23"/><polyline class="cls-17" points="114.81 54.87 114.86 54.91 114.81 54.87"/><polyline class="cls-17" points="122.54 49.85 122.6 49.89 122.66 49.93 122.6 49.89 122.54 49.85"/><polyline class="cls-17" points="123.63 56.99 123.78 57.15 123.71 57.08 123.63 56.99"/><path class="cls-10" d="M43.73,43.36a5.82,5.82,0,0,0-5.82,5.85q0,.3,0,.6A6.3,6.3,0,0,0,42,55a6.2,6.2,0,0,0,2.12.39,5.23,5.23,0,0,0,2.42-.58,5.74,5.74,0,0,0,1.78-1.45,6.46,6.46,0,0,0,1.46-4.05,5.93,5.93,0,0,0-.18-1.47h0a2.57,2.57,0,0,1-1.8,1.36s0,.07,0,.1A4,4,0,0,1,44,53.39a4.13,4.13,0,0,1-1.41-.26,4.2,4.2,0,0,1-2.69-3.47q0-.2,0-.4a3.88,3.88,0,0,1,3.88-3.9,3.81,3.81,0,0,1,1.21.2h0a2.58,2.58,0,0,1,1.75-1.36,5.85,5.85,0,0,0-3-.83"/><path class="cls-18" d="M43.75,45.35a3.88,3.88,0,0,0-3.88,3.9q0,.2,0,.4a4.2,4.2,0,0,0,2.69,3.47,4.13,4.13,0,0,0,1.41.26,4,4,0,0,0,3.77-4.07s0-.07,0-.1h0a2.54,2.54,0,0,1-.5,0,2.57,2.57,0,0,1-2.57-2.57h0A2.56,2.56,0,0,1,45,45.55a3.81,3.81,0,0,0-1.21-.2"/><path class="cls-15" d="M47.26,44.13a2.67,2.67,0,0,0-.55.06h0A2.58,2.58,0,0,0,45,45.55h0a2.56,2.56,0,0,0-.27,1.15h0a2.57,2.57,0,0,0,2.57,2.57,2.54,2.54,0,0,0,.5,0,2.57,2.57,0,0,0,2.07-2.52h0a2.57,2.57,0,0,0-2.57-2.57"/><path class="cls-10" d="M91.91,42.4a6.64,6.64,0,0,0-6.52,6.69,7.48,7.48,0,0,0,.11,1.33A6.94,6.94,0,0,0,92,56.13a5.38,5.38,0,0,0,5.22-3.89,8.94,8.94,0,0,0,.23-5.33h0a2.31,2.31,0,0,1-1.83,1.18,6,6,0,0,1,.11,1.13c0,2.32-1.31,4.67-3.86,4.67A4.67,4.67,0,0,1,87.5,50a5,5,0,0,1-.08-.89,4.46,4.46,0,0,1,4.37-4.49h.05a3.81,3.81,0,0,1,1.43.28h0a2.31,2.31,0,0,1,2-1.46A5.37,5.37,0,0,0,92,42.41h-.07"/><path class="cls-18" d="M91.85,44.66h-.05a4.46,4.46,0,0,0-4.37,4.49,5,5,0,0,0,.08.89,4.67,4.67,0,0,0,4.35,3.84c2.56,0,3.87-2.34,3.86-4.67a6,6,0,0,0-.11-1.13h-.18a2.31,2.31,0,0,1-2.31-2.31h0a2.3,2.3,0,0,1,.16-.84,3.81,3.81,0,0,0-1.43-.28"/><path class="cls-15" d="M95.42,43.48h-.16a2.31,2.31,0,0,0-2,1.46h0a2.3,2.3,0,0,0-.16.84h0a2.31,2.31,0,0,0,2.31,2.31h.18a2.3,2.3,0,0,0,2.12-2.3h0a2.3,2.3,0,0,0-2.3-2.3"/><path class="cls-11" d="M113.71,58.85h0a4.5,4.5,0,0,0-1.41.26,4.15,4.15,0,0,0-3,4.2,7.38,7.38,0,0,0,.22,1.75c.46,1.92,1.55,2.81,3.14,2.81a5.86,5.86,0,0,0,1.58-.24c2-.58,3.48-1.5,3.48-2.82a2,2,0,0,0-.05-.42l0-.07c-1-2.91-1.64-5.44-3.9-5.46h0"/><path class="cls-11" d="M110.76,51.19h-.08c-.8.63-1.78,1.18-1.77,2.36a2.69,2.69,0,0,0,.11.73c.35,1.24,1,2,2.09,2a3.33,3.33,0,0,0,.81-.11c1.22-.3,2.22-.83,2.23-2.06a2.84,2.84,0,0,0-.08-.66c-.38-1.63-1.58-2.24-3.3-2.24"/><path class="cls-11" d="M112.34,70.48a2.84,2.84,0,0,0-.68.09,2.51,2.51,0,0,0-2,2.46,2.71,2.71,0,0,0,.08.65,2.18,2.18,0,0,0,2.33,1.66,4.36,4.36,0,0,0,.81-.08,2.11,2.11,0,0,0,1.63-2.05,3.76,3.76,0,0,0-.12-.91,2.09,2.09,0,0,0-2.05-1.81"/><path class="cls-11" d="M15.83,59c-3,0-3.79,3.34-5.12,7.17a2.57,2.57,0,0,0-.07.55c0,1.72,1.87,2.91,4.51,3.66a7.54,7.54,0,0,0,2,.32c2.06,0,3.46-1.16,4.06-3.64a9.58,9.58,0,0,0,.28-2.27,5.37,5.37,0,0,0-3.88-5.44A5.84,5.84,0,0,0,15.83,59"/><path class="cls-11" d="M19.76,49h-.1c-2.24,0-3.8.78-4.29,2.9a3.71,3.71,0,0,0-.1.85c0,1.58,1.3,2.27,2.88,2.66a4.36,4.36,0,0,0,1,.14c1.44,0,2.25-.95,2.71-2.55a3.49,3.49,0,0,0,.15-.94c0-1.53-1.26-2.23-2.3-3.06"/></g></g></svg>