<svg xmlns="http://www.w3.org/2000/svg" viewBox="0 0 73.15 75.84"><defs><style>.cls-1{isolation:isolate;}.cls-2{fill:#05ab8c;}.cls-3{fill:#9cbf6e;}.cls-10,.cls-4{fill:#231f20;}.cls-4{stroke:#231f20;stroke-miterlimit:10;stroke-width:0.75px;opacity:0.3;mix-blend-mode:multiply;}.cls-5{fill:#241d1f;}.cls-6{fill:#e77c8d;}.cls-7{fill:#fff;}.cls-8{fill:#f8f9f4;}.cls-9{fill:#944f90;}.cls-11{fill:#b6dad0;opacity:0.6;}</style></defs><title>ResultHappySmallOn</title><g class="cls-1"><g id="Layer_2" data-name="Layer 2"><g id="text"><path class="cls-2" d="M0,39.27C0,19.07,13.27,0,36.5,0,61.28,0,73.15,19.07,73.15,39.27A36.58,36.58,0,0,1,0,39.27Z"/><path class="cls-2" d="M4.06,57.05l-.42,0,.42.07v0S4.06,57.07,4.06,57.05Z"/><path class="cls-3" d="M42.91,63.24c1.45-.33,2.9-.65,4.36-.95-6.87-2.41-11.11-4-11.11-4S39.22,60.48,42.91,63.24Z"/><path class="cls-4" d="M27,12a10.6,10.6,0,0,0-4.87-.34c-2.45.28-5,1.4-6.18,3.71a1.17,1.17,0,0,0,.95,1.79.17.17,0,0,0,.18-.13,5.57,5.57,0,0,1,3.19-3.38,16.42,16.42,0,0,1,7.58-1,.17.17,0,0,0,.08-.32Q27.51,12.15,27,12Z"/><path class="cls-4" d="M44.4,14a10.6,10.6,0,0,1,4.73-1.21c2.46-.16,5.21.47,6.75,2.54a1.17,1.17,0,0,1-.61,1.93.17.17,0,0,1-.2-.1,5.57,5.57,0,0,0-3.75-2.75,16.42,16.42,0,0,0-7.62.42.17.17,0,0,1-.14-.3Q44,14.22,44.4,14Z"/><path class="cls-5" d="M62.15,45.88a4.46,4.46,0,0,0-1.61-1.95,11.11,11.11,0,0,0-4.4-1.82,13,13,0,0,0-.85,1.4l-.06.08h0l-.12.14,0,0-.1.1,0,0a2.2,2.2,0,0,1-.31.22h0l-.15.08h0a2.38,2.38,0,0,1-.55.18h0a2.42,2.42,0,0,1-.59,0h0a2.29,2.29,0,0,1-.38-.05h0l-.17,0h0a2,2,0,0,1-.33-.14h0l-.12-.08,0,0a1.62,1.62,0,0,1-.25-.22l0,0-.08-.1,0,0-.08-.14h0l-.07-.15,0,0,0-.12v-.05a1.67,1.67,0,0,1,0-.18c0-.1,0-.2,0-.29h0q0-.14-.06-.26h0l0-.09h0c0-.16,0-.31,0-.47a7.3,7.3,0,0,1-.79,1.53,2,2,0,0,1-1.29.82,1.9,1.9,0,0,1-2.4-1.47,6.31,6.31,0,0,0-.14-.89V41.7a3,3,0,0,1-2.24,1.49,2.34,2.34,0,0,1-2-.49,3.2,3.2,0,0,1-.79-1.89l.2-.42.09-.18h-.39l0,.15h0l.07.35a8.72,8.72,0,0,0-.52,1l0,.06a2.51,2.51,0,0,1-2.18.93,1.91,1.91,0,0,1-1.79-1.52c0-.14-.28-.69-.23-.84a13.09,13.09,0,0,0-.65,1.55l0,.08c-.86,1.51-3.28,1.55-3.72,0a3.79,3.79,0,0,0-.24-.65c-.05-.26-.11-.52-.16-.77a.91.91,0,0,1,0-.1v-.1c0,.11-.06.22-.06.23a3.49,3.49,0,0,1-.23.69,3.85,3.85,0,0,1-.82,1.21c-1.71,1.65-3.8,0-4.42-1.67-.5,1.28-1,2.68-2.64,2.61a1.68,1.68,0,0,1-1.39-.77,2.72,2.72,0,0,1-.16-.31c-.05-.12-.35-.9-.48-1.32l0,.08a1.72,1.72,0,0,0-.1.29c-.16.63-.06,1.3-.52,1.81a2.4,2.4,0,0,1-1.49.71,3.17,3.17,0,0,1-.62,0,2.34,2.34,0,0,1-1.62-.84,5.9,5.9,0,0,1-.8-1.31s0-.11-.07-.16a8.19,8.19,0,0,0-4.57,2.55c-3.73,4.59.34,9.72,4.06,12.76a29.66,29.66,0,0,0,6.87,4.17A23.27,23.27,0,0,1,27.34,59a8.89,8.89,0,0,1,5.09-.69,9.17,9.17,0,0,1,2.2.92c.53-.34,1.07-.64,1.53-.93,3.51-2.2,10.63-.85,12.83,3.14.37-.13.73-.26,1.1-.41a23.09,23.09,0,0,0,7.57-4.91,17.88,17.88,0,0,0,2.9-3.88,11.87,11.87,0,0,0,1.82-5.07A3.43,3.43,0,0,0,62.15,45.88Z"/><path class="cls-6" d="M36.16,58.31c-.46.29-1,.59-1.53.93a9.17,9.17,0,0,0-2.2-.92,8.89,8.89,0,0,0-5.09.69,23.27,23.27,0,0,0-4.26,2.12q1.31.57,2.67,1l0,0,0,0A31.07,31.07,0,0,0,43,63c2-.51,4-.87,6-1.54C46.79,57.46,39.68,56.11,36.16,58.31ZM44,59.85c0-.15,0-.18.06,0Z"/><path class="cls-7" d="M51.31,41.17h0l-.09,0Q49,40.77,46.8,40.5h-.12L46,40.4q-4.26-.5-8.56-.63h-.74l-1.84,0a85.77,85.77,0,0,0-17.32,1.73l-.81.18c0,.05.05.12.07.16a5.9,5.9,0,0,0,.8,1.31,2.34,2.34,0,0,0,1.62.84,3.17,3.17,0,0,0,.62,0,2.4,2.4,0,0,0,1.49-.71c.46-.51.36-1.18.52-1.81a1.72,1.72,0,0,1,.1-.29L22,41c.13.42.43,1.2.48,1.32a2.72,2.72,0,0,0,.16.31,1.68,1.68,0,0,0,1.39.77c1.65.07,2.14-1.33,2.64-2.61.62,1.71,2.71,3.32,4.42,1.67a3.85,3.85,0,0,0,.82-1.21,3.49,3.49,0,0,0,.23-.69s0-.12.06-.23v.1a.91.91,0,0,0,0,.1c.06.26.11.51.16.77a3.79,3.79,0,0,1,.24.65c.44,1.59,2.86,1.55,3.72,0l0-.08A12.91,12.91,0,0,1,37,40.43h0a3,3,0,0,0,.23.8A1.91,1.91,0,0,0,39,42.76a2.51,2.51,0,0,0,2.18-.93l0-.06a8.4,8.4,0,0,1,.48-1h0a3.2,3.2,0,0,0,.79,1.89,2.34,2.34,0,0,0,2,.49,3,3,0,0,0,2.24-1.49v.16a6.31,6.31,0,0,1,.14.89,1.9,1.9,0,0,0,2.4,1.47,2,2,0,0,0,1.29-.82,7.3,7.3,0,0,0,.79-1.53c0,.16,0,.31,0,.47h0l0,.09h0c0,.08,0,.17.06.26h0c0,.09,0,.19,0,.29a1.67,1.67,0,0,0,0,.18v.05l0,.12,0,0,.07.15h0l.08.14,0,0,.08.1,0,0a1.62,1.62,0,0,0,.25.22l0,0,.12.08h0a2,2,0,0,0,.33.14h0l.17,0h0a2.29,2.29,0,0,0,.38.05h0a2.42,2.42,0,0,0,.59,0h0a2.39,2.39,0,0,0,.56-.18h0l.15-.08h0a2.2,2.2,0,0,0,.31-.22l0,0,.1-.1,0,0,.12-.14h0l.06-.08a13,13,0,0,1,.85-1.4L55.61,42q-1.65-.35-3.32-.65l-.94-.16"/><path class="cls-8" d="M57.61,26A7.13,7.13,0,0,1,50,33.49a7.3,7.3,0,0,1-7.31-7.59,7.17,7.17,0,0,1,7.45-7.56C54.73,18.36,57.63,21.31,57.61,26Z"/><path class="cls-8" d="M23,32.95c-4.06,0-6.87-3-6.83-7.14s2.79-7.21,6.31-7.12C27,18.79,30.08,22,30,26A6.8,6.8,0,0,1,23,32.95Z"/><path class="cls-9" d="M66.63,31.84l0,0Z"/><path class="cls-9" d="M71.15,29l0,0,0,0,0,0Z"/><path class="cls-9" d="M71.8,33.13l0-.06.08.1Z"/><path class="cls-2" d="M27.27,25.74A3.38,3.38,0,0,0,22,28.91a3.66,3.66,0,0,0,2.34,3C28.18,33.31,30.65,28,27.27,25.74Z"/><path class="cls-10" d="M26.65,26.7a2.26,2.26,0,0,0-3.5,2.11,2.44,2.44,0,0,0,1.56,2C27.26,31.76,28.91,28.19,26.65,26.7Z"/><circle class="cls-7" cx="27.43" cy="27.1" r="1.49"/><path class="cls-2" d="M53.38,24.61a3.88,3.88,0,0,0-3.76,4.65,4,4,0,0,0,3.76,3.31C57.75,32.57,57.92,24.66,53.38,24.61Z"/><path class="cls-10" d="M53.3,25.92A2.6,2.6,0,0,0,50.78,29a2.71,2.71,0,0,0,2.53,2.23C56.24,31.27,56.35,26,53.3,25.92Z"/><circle class="cls-7" cx="55.38" cy="26.57" r="1.34"/><path class="cls-11" d="M68.28,37.36c.21.9-.69,1.52-2,1.89s-2.39,0-2.74-1.49,0-2.93,1.61-3.45C67.21,33.63,67.58,35.35,68.28,37.36Z"/><path class="cls-11" d="M64.23,29.71c1,0,1.75.33,2,1.3s-.42,1.37-1.25,1.57-1.43-.2-1.68-1.08S63.68,30.14,64.23,29.71Z"/><path class="cls-11" d="M65.51,43.67c-.8.15-1.61,0-1.82-.92A1.46,1.46,0,0,1,64.8,41a1.22,1.22,0,0,1,1.59,1A1.27,1.27,0,0,1,65.51,43.67Z"/><path class="cls-11" d="M6.22,38.38c-.27,1.17.89,2,2.58,2.44,1.85.52,3.1-.06,3.55-1.93s-.06-3.8-2.09-4.48C7.61,33.53,7.12,35.76,6.22,38.38Z"/><path class="cls-11" d="M11.47,28.45c-1.33,0-2.26.43-2.55,1.68s.54,1.77,1.62,2c1.23.31,1.85-.26,2.18-1.4S12.18,29,11.47,28.45Z"/></g></g></g></svg>