<svg xmlns="http://www.w3.org/2000/svg" viewBox="0 0 126.05 130.68"><defs><style>.cls-1{isolation:isolate;}.cls-2{fill:#05ab8c;}.cls-3{fill:#9cbf6e;}.cls-10,.cls-4{fill:#231f20;}.cls-4{stroke:#231f20;stroke-miterlimit:10;stroke-width:1.29px;opacity:0.3;mix-blend-mode:multiply;}.cls-5{fill:#241d1f;}.cls-6{fill:#e77c8d;}.cls-7{fill:#fff;}.cls-8{fill:#f8f9f4;}.cls-9{fill:#944f90;}.cls-11{fill:#b6dad0;opacity:0.6;}</style></defs><title>ResultHappyMediumOn</title><g class="cls-1"><g id="Layer_2" data-name="Layer 2"><g id="moosh"><path class="cls-2" d="M0,67.66C0,32.85,22.86,0,62.89,0,105.6,0,126,32.85,126,67.66a63,63,0,1,1-126,0Z"/><path class="cls-2" d="M7,98.31l-.72,0,.72.13V98.4S7,98.34,7,98.31Z"/><path class="cls-3" d="M73.95,109c2.5-.56,5-1.11,7.51-1.63-11.84-4.15-19.15-6.87-19.15-6.87S67.58,104.21,73.95,109Z"/><path class="cls-4" d="M46.6,20.65a18.26,18.26,0,0,0-8.39-.58c-4.21.49-8.69,2.42-10.66,6.4a2,2,0,0,0,1.64,3.08.29.29,0,0,0,.31-.22c.61-2.6,3.19-4.84,5.5-5.83,4-1.69,8.77-2,13.05-1.65a.29.29,0,0,0,.14-.54Q47.41,20.94,46.6,20.65Z"/><path class="cls-4" d="M76.51,24.07A18.26,18.26,0,0,1,84.65,22c4.23-.28,9,.81,11.64,4.37a2,2,0,0,1-1.05,3.33.29.29,0,0,1-.34-.17c-1.07-2.44-4-4.19-6.46-4.74-4.19-1-9-.39-13.14.73a.29.29,0,0,1-.24-.51Q75.76,24.5,76.51,24.07Z"/><path class="cls-5" d="M107.09,79a7.69,7.69,0,0,0-2.77-3.35,19.15,19.15,0,0,0-7.58-3.14A22.41,22.41,0,0,0,95.28,75l-.09.13h0l-.21.24-.07.07-.17.16-.07.06a3.8,3.8,0,0,1-.53.38l0,0-.26.13,0,0a4.11,4.11,0,0,1-1,.31h0a4.17,4.17,0,0,1-1,.07h0a3.94,3.94,0,0,1-.65-.09h0l-.29-.08h0a3.37,3.37,0,0,1-.56-.24l0,0L90,76,90,76a2.78,2.78,0,0,1-.43-.38l0-.05-.14-.17,0-.06a2.58,2.58,0,0,1-.15-.23h0a2.6,2.6,0,0,1-.12-.26l0-.08q0-.1-.07-.21l0-.09a2.87,2.87,0,0,1-.06-.31c0-.18,0-.34-.08-.5v0q0-.23-.11-.44h0l0-.16v0c0-.27,0-.54,0-.8a12.58,12.58,0,0,1-1.37,2.64A3.52,3.52,0,0,1,85,76.19c-1.79.34-3.93-.51-4.13-2.53a10.87,10.87,0,0,0-.25-1.53c0-.09,0-.19,0-.28a5.09,5.09,0,0,1-3.86,2.57,4,4,0,0,1-3.42-.84,5.51,5.51,0,0,1-1.36-3.26l.35-.73.15-.31-.66,0,0,.27h0l.12.6A15,15,0,0,0,71,72l-.07.11a4.32,4.32,0,0,1-3.75,1.61,3.29,3.29,0,0,1-3.08-2.62c-.09-.24-.48-1.19-.39-1.45a22.56,22.56,0,0,0-1.13,2.66l-.07.13c-1.48,2.6-5.65,2.67-6.41-.07a6.54,6.54,0,0,0-.42-1.12c-.09-.45-.19-.89-.28-1.33a1.57,1.57,0,0,1,0-.17v-.18c-.06.2-.11.39-.11.4a6,6,0,0,1-.4,1.2,6.63,6.63,0,0,1-1.42,2.08c-3,2.85-6.54.07-7.62-2.87-.86,2.2-1.7,4.62-4.55,4.5A2.89,2.89,0,0,1,39,73.53,4.68,4.68,0,0,1,38.7,73c-.09-.2-.6-1.55-.83-2.27l-.07.13a3,3,0,0,0-.17.49c-.28,1.08-.1,2.24-.9,3.12a4.14,4.14,0,0,1-2.57,1.22,5.47,5.47,0,0,1-1.07,0,4,4,0,0,1-2.78-1.44A10.16,10.16,0,0,1,28.92,72c0-.08-.07-.19-.13-.28-3,.74-5.89,2-7.87,4.39-6.42,7.91.58,16.75,7,22a51.1,51.1,0,0,0,11.83,7.19,40.09,40.09,0,0,1,7.35-3.65c2.48-1,6.12-1.88,8.77-1.19a15.81,15.81,0,0,1,3.8,1.59c.92-.58,1.84-1.1,2.64-1.6,6.06-3.78,18.32-1.47,22.11,5.41.63-.22,1.26-.45,1.89-.71a39.79,39.79,0,0,0,13-8.47,30.82,30.82,0,0,0,5-6.69c1.41-2.54,3.09-5.81,3.13-8.74A5.91,5.91,0,0,0,107.09,79Z"/><path class="cls-6" d="M62.31,100.48c-.8.5-1.72,1-2.64,1.6a15.81,15.81,0,0,0-3.8-1.59c-2.65-.69-6.29.15-8.77,1.19a40.09,40.09,0,0,0-7.35,3.65q2.25,1,4.6,1.77l.06,0,.07.07a53.54,53.54,0,0,0,29.58,1.4c3.51-.88,7-1.49,10.36-2.66C80.63,99,68.37,96.69,62.31,100.48Zm13.43,2.66c0-.26.06-.31.1,0Z"/><path class="cls-7" d="M88.41,70.94l-.06,0-.16,0q-3.76-.64-7.55-1.11h-.23v0l-1.2-.15q-7.35-.86-14.75-1.08h-.65l-.63,0q-1.58,0-3.17,0a147.8,147.8,0,0,0-29.85,3c-.46.1-.93.2-1.39.32.05.09.09.21.13.28a10.16,10.16,0,0,0,1.38,2.25,4,4,0,0,0,2.78,1.44,5.47,5.47,0,0,0,1.07,0,4.14,4.14,0,0,0,2.57-1.22c.8-.88.62-2,.9-3.12a3,3,0,0,1,.17-.49l.07-.13c.22.72.74,2.07.83,2.27a4.68,4.68,0,0,0,.28.53,2.89,2.89,0,0,0,2.39,1.32c2.85.12,3.69-2.3,4.55-4.5,1.07,2.95,4.66,5.73,7.62,2.87a6.63,6.63,0,0,0,1.42-2.08,6,6,0,0,0,.4-1.2s.05-.2.11-.4v.18a1.57,1.57,0,0,0,0,.17c.1.44.19.89.28,1.33a6.54,6.54,0,0,1,.42,1.12c.76,2.74,4.93,2.67,6.41.07l.07-.13a22.25,22.25,0,0,1,1.1-2.61h0a5.19,5.19,0,0,0,.4,1.39,3.29,3.29,0,0,0,3.08,2.62A4.32,4.32,0,0,0,71,72.07L71,72a14.47,14.47,0,0,1,.82-1.66h.08v0a5.51,5.51,0,0,0,1.36,3.26,4,4,0,0,0,3.42.84,5.09,5.09,0,0,0,3.86-2.57c0,.09,0,.19,0,.28a10.87,10.87,0,0,1,.25,1.53c.19,2,2.33,2.86,4.13,2.53a3.52,3.52,0,0,0,2.23-1.42,12.58,12.58,0,0,0,1.37-2.64c0,.27,0,.54,0,.8v0l0,.16h0q.06.21.11.44v0c0,.16.06.32.08.5a2.87,2.87,0,0,0,.06.31l0,.09q0,.11.07.21l0,.08a2.6,2.6,0,0,0,.12.26h0a2.58,2.58,0,0,0,.15.23l0,.06.14.17,0,.05A2.78,2.78,0,0,0,90,76L90,76l.21.13,0,0a3.37,3.37,0,0,0,.56.24h0l.29.08h0a3.94,3.94,0,0,0,.65.09h0a4.18,4.18,0,0,0,1-.07h0a4.11,4.11,0,0,0,1-.31l0,0,.26-.13,0,0a3.8,3.8,0,0,0,.53-.38l.07-.06.17-.16.07-.07.21-.24h0l.09-.13a22.41,22.41,0,0,1,1.47-2.41l-.93-.2Q93,71.74,90.1,71.22l-1.62-.28"/><path class="cls-8" d="M99.26,44.73c0,7.84-5.27,13-13.11,13-7.21-.05-12.54-5.59-12.59-13.07s5.29-13,12.84-13C94.31,31.64,99.3,36.72,99.26,44.73Z"/><path class="cls-8" d="M39.57,56.77c-7,0-11.83-5.1-11.77-12.31.05-7,4.81-12.42,10.88-12.28,7.9.19,13.16,5.72,13,12.55C51.61,51.82,46.55,56.81,39.57,56.77Z"/><path class="cls-9" d="M114.81,54.87l0,0Z"/><path class="cls-9" d="M122.6,49.89l-.06,0,.06,0,.06,0Z"/><path class="cls-9" d="M123.71,57.08l-.08-.09.14.17Z"/><path class="cls-2" d="M47,44.35a5.83,5.83,0,0,0-9,5.46A6.3,6.3,0,0,0,42,55C48.55,57.4,52.81,48.18,47,44.35Z"/><path class="cls-10" d="M45.92,46a3.89,3.89,0,0,0-6,3.64,4.2,4.2,0,0,0,2.69,3.47C47,54.72,49.81,48.57,45.92,46Z"/><circle class="cls-7" cx="47.26" cy="46.69" r="2.57"/><path class="cls-2" d="M92,42.41a6.68,6.68,0,0,0-6.48,8A6.94,6.94,0,0,0,92,56.13C99.51,56.13,99.8,42.5,92,42.41Z"/><path class="cls-10" d="M91.85,44.66A4.49,4.49,0,0,0,87.49,50a4.66,4.66,0,0,0,4.36,3.83C96.9,53.87,97.1,44.72,91.85,44.66Z"/><circle class="cls-7" cx="95.42" cy="45.78" r="2.3"/><path class="cls-11" d="M117.66,64.38c.36,1.56-1.18,2.61-3.42,3.25-2.45.69-4.11-.07-4.71-2.57-.64-2.66.08-5.05,2.78-6C115.8,57.94,116.45,60.91,117.66,64.38Z"/><path class="cls-11" d="M110.68,51.19c1.77,0,3,.57,3.39,2.23s-.72,2.36-2.15,2.71c-1.63.41-2.47-.35-2.9-1.86C108.53,52.57,109.73,51.94,110.68,51.19Z"/><path class="cls-11" d="M112.88,75.25c-1.37.25-2.77-.08-3.14-1.58a2.52,2.52,0,0,1,1.91-3.11,2.1,2.1,0,0,1,2.74,1.72A2.2,2.2,0,0,1,112.88,75.25Z"/><path class="cls-11" d="M10.71,66.13c-.46,2,1.53,3.39,4.44,4.21,3.18.9,5.33-.1,6.11-3.33.83-3.44-.11-6.55-3.6-7.71C13.12,57.78,12.28,61.63,10.71,66.13Z"/><path class="cls-11" d="M19.76,49c-2.3,0-3.9.74-4.39,2.9s.94,3.06,2.78,3.52c2.12.53,3.2-.45,3.76-2.41C22.55,50.82,21,50,19.76,49Z"/></g></g></g></svg>