<svg xmlns="http://www.w3.org/2000/svg" viewBox="0 0 73.15 75.84"><defs><style>.cls-1{fill:#767676;}.cls-2{fill:#f8f8f8;}.cls-3{fill:#202020;}.cls-4{fill:#fff;}.cls-5{fill:#1f1f1f;}.cls-6{fill:#bbb;}.cls-7{fill:#fcfcfc;}.cls-8{fill:#909090;}.cls-9{fill:#d5d5d5;}.cls-10{fill:#8f8f8f;}.cls-11{fill:#ababab;}</style></defs><title>ResultNeutralSmallOff</title><g id="Layer_2" data-name="Layer 2"><g id="text"><path class="cls-1" d="M0,39.27C0,19.07,13.27,0,36.5,0,61.29,0,73.15,19.07,73.15,39.27A36.58,36.58,0,1,1,0,39.27"/><path class="cls-2" d="M57.61,29.43A7.13,7.13,0,0,1,50,37a7.31,7.31,0,0,1-7.31-7.59c0-4.43,3.08-5.08,7.46-5.06,4.6,0,7.48.47,7.46,5.12"/><path class="cls-2" d="M23,36.42c-4.05,0-6.86-3-6.83-7.14s2.79-6.17,6.31-6.08c4.58.11,7.63,2.28,7.57,6.24a6.79,6.79,0,0,1-7.05,7"/><path class="cls-1" d="M24.72,28.52a3.38,3.38,0,0,0-5.25,3.17,3.66,3.66,0,0,0,2.34,3c3.82,1.39,6.3-4,2.91-6.19"/><path class="cls-3" d="M24.11,29.48a2.25,2.25,0,0,0-3.5,2.11,2.44,2.44,0,0,0,1.56,2c2.55.92,4.2-2.64,1.94-4.13"/><path class="cls-4" d="M26.37,29.88a1.49,1.49,0,1,1-1.49-1.49,1.49,1.49,0,0,1,1.49,1.49"/><path class="cls-1" d="M50.84,27.39A3.87,3.87,0,0,0,47.08,32a4,4,0,0,0,3.76,3.31c4.36,0,4.53-7.91,0-8"/><path class="cls-3" d="M50.76,28.69a2.6,2.6,0,0,0-2.52,3.12A2.71,2.71,0,0,0,50.76,34c2.93,0,3-5.31,0-5.35"/><path class="cls-4" d="M54.17,29.34A1.34,1.34,0,1,1,52.83,28a1.34,1.34,0,0,1,1.34,1.34"/><path class="cls-5" d="M56.73,56.07l.24-.92a8.34,8.34,0,0,0-1.13-.26A2.67,2.67,0,0,0,55,55a3.18,3.18,0,0,1-.69.09c-.64,0-1.28-.21-1.93-.23-2.91-.06-5.82,0-8.73,0H37.07a22,22,0,0,1-5.24.37c-1-.06-2-.23-3-.37H22.53c-2.56.16-5.13.35-7.7.39a1.21,1.21,0,0,0-.25,1l.2,0c3.61,0,7.22.21,10.83.13,1.6,0,3.18-.06,4.78.06s3.11.3,4.67.31a23.34,23.34,0,0,0,4.64-.55,19.39,19.39,0,0,1,4.6-.4,62,62,0,0,1,9.52,1.12,4.64,4.64,0,0,0,1.67.19c.41-.08.63-.43,1-.65l.24-.13,0-.19"/><path class="cls-6" d="M43.63,54.84l5.82,0c1,0,1.94,0,2.91,0,.65,0,1.29.22,1.93.23h0A3.28,3.28,0,0,0,55,55a3.27,3.27,0,0,1,.68-.09h.19a8.34,8.34,0,0,1,1.13.26l-.24.92,0,.19-.24.13c-.35.21-.57.57-1,.65a1.76,1.76,0,0,1-.33,0,7,7,0,0,1-1.34-.22,62,62,0,0,0-9.52-1.12l-.71,0a20.38,20.38,0,0,0-3.89.41,23.86,23.86,0,0,1-4.52.55h-.12c-1.56,0-3.12-.2-4.67-.31-.9-.07-1.8-.09-2.69-.09l-2.09,0-1.73,0c-3,0-6.07-.15-9.1-.15l-.2,0a1.21,1.21,0,0,1,.25-1c2.57,0,5.13-.23,7.7-.39h6.27c1,.14,2,.3,3,.37q.55,0,1.09,0a23.62,23.62,0,0,0,4.14-.4h6.56M65,43.72a1.26,1.26,0,0,1-1.35-1A1.46,1.46,0,0,1,64.8,41a1.61,1.61,0,0,1,.4-.05A1.21,1.21,0,0,1,66.38,42a1.27,1.27,0,0,1-.87,1.72,2.57,2.57,0,0,1-.47,0M10,41a4.39,4.39,0,0,1-1.19-.18c-1.69-.48-2.85-1.27-2.58-2.44.77-2.22,1.24-4.16,3-4.16a3.37,3.37,0,0,1,1.06.2c2,.68,2.57,2.48,2.09,4.48A2.33,2.33,0,0,1,10,41m55.4-1.62a1.8,1.8,0,0,1-1.82-1.63c-.37-1.54,0-2.93,1.61-3.45a2.59,2.59,0,0,1,.82-.15c1.34,0,1.7,1.5,2.29,3.21.21.9-.69,1.51-2,1.88a3.4,3.4,0,0,1-.92.14m-.9-6.75c-.64,0-1-.43-1.21-1.15-.28-1,.41-1.35,1-1.79h0c1,0,1.71.35,1.92,1.3s-.42,1.37-1.25,1.57a1.92,1.92,0,0,1-.47.06m-53.33-.38a2.53,2.53,0,0,1-.61-.08c-1.07-.27-1.91-.76-1.62-2s1.19-1.68,2.49-1.68h.06c.71.57,1.62,1,1.25,2.32-.27.93-.74,1.48-1.57,1.48M50.07,37H50a7.31,7.31,0,0,1-7.31-7.59c0-4.38,3-5.06,7.31-5.06h.15c4.6,0,7.48.47,7.46,5.12A7.13,7.13,0,0,1,50.07,37M23,36.42h0c-4.05,0-6.86-3-6.83-7.14a5.73,5.73,0,0,1,6.12-6.09h.2c4.58.11,7.63,2.28,7.57,6.24a6.79,6.79,0,0,1-7,7M44.4,19a1.44,1.44,0,0,1-1.11-.49,1.59,1.59,0,0,1-.37-1A1.49,1.49,0,0,1,43.84,16l.06,0H44c2.12,0,4.25,0,6.38,0,1.57,0,3.14,0,4.71.09a22.19,22.19,0,0,1,3.56.39l.11,0,.08.08a1.63,1.63,0,0,1,.45,1.13,1.5,1.5,0,0,1-.58,1.22l-.15.11-.17,0-.81-.21a15.33,15.33,0,0,0-3.63-.34H53a34.16,34.16,0,0,0-4.47.29c-.67.1-1.35.2-2,.29H44.4m-28.63-1a1.44,1.44,0,0,1-1.11-.49,1.59,1.59,0,0,1-.37-1,1.62,1.62,0,0,1,0-.4l.06-.26.27,0c2.81-.22,5.62-.43,8.44-.56h0l2.38,0h.07l.06,0a1.42,1.42,0,0,0,.27.07H26l.39,0h0c.54,0,1,.17,1.43.2a3,3,0,0,1,1.84.76l-.25.28h0l.25-.28a1.38,1.38,0,0,1,.49,1,1.52,1.52,0,0,1-.49,1.08,1.63,1.63,0,0,1-1.12.47h0a1.5,1.5,0,0,1-.89-.3h-.14a7.58,7.58,0,0,1-.8-.09c-.39-.08-.81,0-1.33-.13s-.88-.3-1.21-.34h0a2,2,0,0,0-.33,0c-.33,0-.7.05-1.08.06h-7M36.5,0C13.27,0,0,19.07,0,39.27a36.58,36.58,0,1,0,73.15,0C73.15,19.07,61.29,0,36.5,0"/><path class="cls-7" d="M50.84,35.35A4,4,0,0,1,47.08,32a3.88,3.88,0,0,1,3.72-4.65h0a3.12,3.12,0,0,1,1.9.62h.1A1.34,1.34,0,0,1,54,30c.64,2.32-.46,5.36-3.16,5.36m-.84-11c-4.3,0-7.34.69-7.31,5.06A7.31,7.31,0,0,0,50,37h.07a7.13,7.13,0,0,0,7.54-7.53c0-4.65-2.87-5.1-7.46-5.12H50"/><path class="cls-7" d="M23,34.93a3.6,3.6,0,0,1-1.23-.23,3.66,3.66,0,0,1-2.34-3,3.38,3.38,0,0,1,5.09-3.26,1.49,1.49,0,0,1,1.65,2.13A3.49,3.49,0,0,1,23,34.93m-.79-11.74a5.73,5.73,0,0,0-6.12,6.09c0,4.18,2.78,7.12,6.83,7.14h0a6.79,6.79,0,0,0,7-7c.06-4-3-6.14-7.57-6.24h-.2"/><path class="cls-6" d="M22.83,27.94a3.38,3.38,0,0,0-3.36,3.74,3.66,3.66,0,0,0,2.34,3,3.6,3.6,0,0,0,1.23.23,3.49,3.49,0,0,0,3.18-4.38,1.49,1.49,0,0,1-1,.79A2.3,2.3,0,0,1,23,33.76a2.39,2.39,0,0,1-.82-.15,2.44,2.44,0,0,1-1.56-2,2.25,2.25,0,0,1,2.94-2.38,1.49,1.49,0,0,1,1-.79,3.4,3.4,0,0,0-1.73-.48"/><path class="cls-8" d="M22.84,29.1a2.25,2.25,0,0,0-2.24,2.5,2.44,2.44,0,0,0,1.56,2,2.39,2.39,0,0,0,.82.15,2.3,2.3,0,0,0,2.19-2.42l-.29,0a1.49,1.49,0,0,1-1.33-2.16,2.24,2.24,0,0,0-.7-.11"/><path class="cls-4" d="M24.88,28.39a1.49,1.49,0,0,0,0,3l.29,0a1.49,1.49,0,0,0-.29-3"/><path class="cls-6" d="M50.79,27.39A3.88,3.88,0,0,0,47.08,32a4,4,0,0,0,3.76,3.31c2.7,0,3.8-3,3.16-5.36a1.34,1.34,0,0,1-1.06.69c.3,1.52-.45,3.36-2.18,3.36a2.71,2.71,0,0,1-2.53-2.23,2.6,2.6,0,0,1,2.5-3.12h0a2.22,2.22,0,0,1,.83.16A1.34,1.34,0,0,1,52.74,28a3.12,3.12,0,0,0-1.9-.62h0"/><path class="cls-8" d="M50.73,28.69a2.6,2.6,0,0,0-2.5,3.12A2.71,2.71,0,0,0,50.76,34c1.73,0,2.47-1.84,2.18-3.36h-.1a1.34,1.34,0,0,1-1.25-1.83,2.22,2.22,0,0,0-.83-.16h0"/><path class="cls-4" d="M52.83,28h-.1a1.34,1.34,0,0,0,.1,2.67h.1a1.34,1.34,0,0,0-.1-2.67"/><path class="cls-9" d="M66,34.15a2.59,2.59,0,0,0-.82.15c-1.56.52-2,1.91-1.61,3.45a1.8,1.8,0,0,0,1.82,1.63,3.4,3.4,0,0,0,.92-.14c1.3-.37,2.19-1,2-1.88-.59-1.71-1-3.21-2.29-3.21"/><path class="cls-9" d="M64.27,29.71h0c-.55.44-1.25.8-1,1.79.21.72.57,1.15,1.21,1.15a1.92,1.92,0,0,0,.47-.06c.83-.21,1.47-.59,1.25-1.57s-.92-1.3-1.92-1.3"/><path class="cls-9" d="M65.19,40.9a1.61,1.61,0,0,0-.4.05,1.46,1.46,0,0,0-1.11,1.8,1.26,1.26,0,0,0,1.35,1,2.57,2.57,0,0,0,.47,0A1.27,1.27,0,0,0,66.38,42a1.21,1.21,0,0,0-1.19-1.05"/><path class="cls-9" d="M9.19,34.22c-1.73,0-2.2,1.94-3,4.16-.27,1.17.89,2,2.58,2.44A4.39,4.39,0,0,0,10,41a2.33,2.33,0,0,0,2.35-2.11c.48-2-.06-3.8-2.09-4.48a3.37,3.37,0,0,0-1.06-.2"/><path class="cls-9" d="M11.41,28.45c-1.3,0-2.21.45-2.49,1.68s.55,1.77,1.62,2a2.53,2.53,0,0,0,.61.08c.84,0,1.31-.55,1.57-1.48.37-1.28-.54-1.75-1.25-2.32h-.06"/><path class="cls-10" d="M49.45,54.81l-5.82,0H37.07a23.62,23.62,0,0,1-4.14.4q-.55,0-1.09,0c-1-.06-2-.23-3-.37H22.53c-2.56.16-5.13.35-7.7.39a1.21,1.21,0,0,0-.25,1l.2,0c3,0,6.06.15,9.1.15l1.73,0,2.09,0c.9,0,1.79,0,2.69.09,1.56.12,3.11.3,4.67.31h.12a23.86,23.86,0,0,0,4.52-.55,20.38,20.38,0,0,1,3.89-.41l.71,0a62,62,0,0,1,9.52,1.12,7,7,0,0,0,1.34.22,1.76,1.76,0,0,0,.33,0c.41-.08.63-.43,1-.65l.24-.13,0-.19.24-.92a8.34,8.34,0,0,0-1.13-.26h-.19A3.27,3.27,0,0,0,55,55a3.28,3.28,0,0,1-.66.09h0c-.64,0-1.28-.21-1.93-.23-1,0-1.94,0-2.91,0"/><path class="cls-11" d="M25.46,15.88l-2.31,0h0c-2.7.12-5.41.32-8.11.53a.85.85,0,0,0,.19.52.7.7,0,0,0,.56.23h7c.31,0,.69-.05,1.09-.05a2.87,2.87,0,0,1,.46,0h0c.5.09.89.29,1.22.35s.83,0,1.35.13c.21,0,.45.05.71.08h.27l.15,0,.06.05a.75.75,0,0,0,.49.19.9.9,0,0,0,.6-.26.78.78,0,0,0,.26-.55.64.64,0,0,0-.25-.48l.25-.28h0l-.25.28a2.21,2.21,0,0,0-1.4-.57c-.53,0-1-.19-1.4-.2h0L26,16h-.17a1.94,1.94,0,0,1-.36-.08"/><path class="cls-11" d="M25.58,15.14h-.07l-2.38,0h0c-2.82.12-5.63.34-8.44.56l-.27,0-.06.26a1.62,1.62,0,0,0,0,.4,1.59,1.59,0,0,0,.37,1,1.44,1.44,0,0,0,1.11.49h7c.38,0,.76-.06,1.08-.06a2,2,0,0,1,.33,0h0c.33,0,.72.25,1.21.34s.95,0,1.33.13a7.58,7.58,0,0,0,.8.09h.14a1.5,1.5,0,0,0,.89.3h0a1.63,1.63,0,0,0,1.12-.47,1.52,1.52,0,0,0,.49-1.08,1.38,1.38,0,0,0-.49-1l-.25.28-.25.28a.64.64,0,0,1,.25.48.78.78,0,0,1-.26.55.9.9,0,0,1-.6.26.75.75,0,0,1-.49-.19L28,17.77l-.15,0H27.6c-.27,0-.5,0-.71-.08-.52-.1-1-.06-1.35-.13s-.73-.26-1.22-.35h0a2.87,2.87,0,0,0-.46,0c-.4,0-.77.05-1.09.05h-7a.7.7,0,0,1-.56-.23.85.85,0,0,1-.19-.52c2.7-.21,5.41-.41,8.11-.53h0l2.31,0a1.94,1.94,0,0,0,.36.08H26l.38,0h0c.41,0,.87.15,1.4.2a2.21,2.21,0,0,1,1.4.57l.25-.28.25-.28a3,3,0,0,0-1.84-.76c-.42,0-.89-.18-1.43-.2h0l-.39,0h-.08a1.42,1.42,0,0,1-.27-.07l-.06,0"/><path class="cls-11" d="M50.36,16.69c-2.1,0-4.2,0-6.3,0a.77.77,0,0,0-.39.71.85.85,0,0,0,.19.55.69.69,0,0,0,.56.23h2l2-.28A34.29,34.29,0,0,1,53,17.65h.94a16,16,0,0,1,3.8.36l.64.16a.83.83,0,0,0,.16-.51.91.91,0,0,0-.17-.53A22.2,22.2,0,0,0,55,16.78c-1.55-.07-3.11-.09-4.68-.09"/><path class="cls-11" d="M44.06,16.74c2.1,0,4.21,0,6.3,0,1.56,0,3.12,0,4.68.09a22.2,22.2,0,0,1,3.31.35.91.91,0,0,1,.17.53.83.83,0,0,1-.16.51L57.72,18a16,16,0,0,0-3.8-.36H53a34.29,34.29,0,0,0-4.57.29l-2,.28h-2a.69.69,0,0,1-.56-.23.85.85,0,0,1-.19-.55.77.77,0,0,1,.39-.71m6.3-.79c-2.13,0-4.26,0-6.38,0h-.07l-.06,0a1.49,1.49,0,0,0-.92,1.43,1.59,1.59,0,0,0,.37,1A1.44,1.44,0,0,0,44.4,19h2.09c.68-.09,1.36-.19,2-.29A34.16,34.16,0,0,1,53,18.4h.93a15.33,15.33,0,0,1,3.63.34l.81.21.17,0,.15-.11a1.5,1.5,0,0,0,.58-1.22,1.63,1.63,0,0,0-.45-1.13l-.08-.08-.11,0A22.19,22.19,0,0,0,55.07,16c-1.57-.07-3.14-.09-4.71-.09"/></g></g></svg>