<svg xmlns="http://www.w3.org/2000/svg" viewBox="0 0 126.05 130.68"><defs><style>.cls-1{fill:#b8b8b8;}.cls-2{fill:#fbfbfb;}.cls-3{fill:#202020;}.cls-4{fill:#fff;}.cls-5{fill:#d4d4d4;}.cls-6{fill:#1f1f1f;}.cls-7{fill:#878787;}.cls-8{fill:#857c91;}.cls-9{fill:#a69eb3;}.cls-10{fill:#393146;}.cls-11{fill:#a8a0b5;}.cls-12{fill:#938a9f;}.cls-13{fill:#393045;}.cls-14{fill:#6c6479;}</style></defs><title>ResultNeutralMediumOff</title><g id="Layer_2" data-name="Layer 2"><g id="moosh"><path class="cls-1" d="M75.56,94.49l4.76,0,4.9,0c1.67,0,3.34,0,5,0,1.11,0,2.22.38,3.32.39h.05a5.67,5.67,0,0,0,1.14-.16,5.77,5.77,0,0,1,1.17-.16l.34,0a14.42,14.42,0,0,1,1.94.44l-.42,1.59a1.12,1.12,0,0,0,0,.33,3.79,3.79,0,0,0-.42.22c-.6.36-1,1-1.69,1.12a3.15,3.15,0,0,1-.55,0A12,12,0,0,1,92.73,98,106.67,106.67,0,0,0,76.33,96l-1.24,0a35,35,0,0,0-6.69.71,41.15,41.15,0,0,1-7.8.95H60.4c-2.69,0-5.37-.34-8.05-.53C50.78,97,49.23,97,47.67,97c-1.18,0-2.36,0-3.56,0q-1.51,0-3,0c-5.22,0-10.43-.25-15.64-.26a1.41,1.41,0,0,0-.35,0,2.09,2.09,0,0,1,.44-1.67c4.43-.07,8.84-.4,13.26-.67h10.8c1.75.23,3.48.52,5.24.63q.94.06,1.89.06a40.58,40.58,0,0,0,7.14-.69H75.56m36.51-19.16a2.18,2.18,0,0,1-2.33-1.66,2.51,2.51,0,0,1,1.91-3.11,2.87,2.87,0,0,1,.68-.09,2.09,2.09,0,0,1,2.05,1.81,2.19,2.19,0,0,1-1.5,3,4.32,4.32,0,0,1-.81.08M17.2,70.66a7.56,7.56,0,0,1-2-.32c-2.91-.82-4.9-2.19-4.44-4.21C12,62.31,12.85,59,15.83,59a5.85,5.85,0,0,1,1.83.34c3.49,1.17,4.42,4.27,3.6,7.71-.59,2.48-2,3.64-4.06,3.64m95.46-2.79c-1.59,0-2.67-.9-3.13-2.81-.64-2.65.09-5,2.78-5.95a4.51,4.51,0,0,1,1.41-.26c2.31,0,2.93,2.58,4,5.53.36,1.56-1.18,2.61-3.42,3.25a5.85,5.85,0,0,1-1.58.24m-1.55-11.63c-1.11,0-1.74-.73-2.09-2-.49-1.71.71-2.33,1.66-3.08h.08c1.73,0,2.93.6,3.31,2.24s-.72,2.36-2.15,2.71a3.33,3.33,0,0,1-.81.11m-91.9-.66a4.37,4.37,0,0,1-1-.14c-1.84-.46-3.29-1.31-2.79-3.52s2-2.9,4.29-2.9h.1c1.23,1,2.79,1.79,2.15,4-.46,1.61-1.27,2.55-2.71,2.55m67.07,8.1h-.13c-7.2-.05-12.54-5.59-12.59-13.08s5.18-8.72,12.58-8.72h.27c7.92,0,12.89.81,12.85,8.83,0,7.8-5.22,13-13,13m-46.62-.93h-.08c-7,0-11.83-5.1-11.77-12.31C27.85,43.59,32.43,40,38.34,40h.34c7.9.19,13.15,3.93,13,10.76-.12,7.05-5.13,12-12.07,12M76.51,32.69a2.48,2.48,0,0,1-1.91-.85A2.74,2.74,0,0,1,74,30.06a2.83,2.83,0,0,1,.38-1.44,2.39,2.39,0,0,1,1.2-1l.11,0h.12c3.66,0,7.33-.08,11-.08,2.7,0,5.4,0,8.11.15a38,38,0,0,1,6.13.67l.19,0,.14.14a2.8,2.8,0,0,1,.77,2,2.57,2.57,0,0,1-1,2.11l-.25.18-.3-.09c-.47-.13-.93-.25-1.4-.37a26.2,26.2,0,0,0-6.2-.58H91.3a58.45,58.45,0,0,0-7.7.49c-1.16.17-2.32.34-3.5.5h-3.6M27.18,30.9a2.48,2.48,0,0,1-1.91-.85,2.76,2.76,0,0,1-.64-1.79,2.88,2.88,0,0,1,.09-.7l.11-.45.46,0c4.84-.38,9.68-.75,14.54-1h0l4.1,0h.11l.11,0a2.78,2.78,0,0,0,.47.12h.15c.16,0,.37,0,.65,0h.08c.94,0,1.75.29,2.47.35a5.14,5.14,0,0,1,3.16,1.3l-.43.48.43-.48a2.39,2.39,0,0,1,.85,1.8,2.62,2.62,0,0,1-.85,1.87,2.82,2.82,0,0,1-1.93.8h0a2.57,2.57,0,0,1-1.52-.51l-.25,0a13.44,13.44,0,0,1-1.39-.16c-.67-.14-1.4-.07-2.3-.22s-1.52-.51-2.09-.59h0a3.58,3.58,0,0,0-.58,0h0c-.56,0-1.19.09-1.85.1H27.18M62.88,0C22.86,0,0,32.85,0,67.66a63,63,0,1,0,126,0C126,32.85,105.6,0,62.88,0"/><path class="cls-2" d="M87.6,60.91a6.94,6.94,0,0,1-6.48-5.71,6.68,6.68,0,0,1,6.4-8h.07a5.39,5.39,0,0,1,3.27,1.08H91a2.3,2.3,0,0,1,2,3.42c1.1,4-.79,9.23-5.45,9.23m-1.46-19c-7.4,0-12.64,1.19-12.58,8.72s5.39,13,12.59,13.08h.13c7.77,0,13-5.17,13-13,0-8-4.93-8.8-12.85-8.83h-.27"/><path class="cls-2" d="M39.69,60.19a6.21,6.21,0,0,1-2.12-.39,6.31,6.31,0,0,1-4-5.21A5.82,5.82,0,0,1,42.32,49a2.68,2.68,0,0,1,.55-.06,2.57,2.57,0,0,1,2.29,3.73c.89,3.51-1.63,7.55-5.48,7.55M38.34,40c-5.9,0-10.48,3.63-10.53,10.49-.06,7.21,4.79,12.27,11.77,12.31h.08c6.94,0,12-5,12.07-12,.11-6.83-5.14-10.57-13-10.76h-.34"/><path class="cls-1" d="M39.34,48.14a5.83,5.83,0,0,0-5.79,6.45,6.31,6.31,0,0,0,4,5.21,6.21,6.21,0,0,0,2.12.39c3.85,0,6.37-4,5.48-7.55A2.58,2.58,0,0,1,43.37,54a4,4,0,0,1-3.77,4.17,4.13,4.13,0,0,1-1.41-.26,4.19,4.19,0,0,1-2.69-3.47,3.88,3.88,0,0,1,3.86-4.3,3.83,3.83,0,0,1,1.21.2A2.59,2.59,0,0,1,42.32,49a5.86,5.86,0,0,0-3-.83"/><path class="cls-3" d="M39.36,50.14a3.88,3.88,0,0,0-3.86,4.3,4.19,4.19,0,0,0,2.69,3.47,4.13,4.13,0,0,0,1.41.26A4,4,0,0,0,43.37,54a2.52,2.52,0,0,1-.5,0,2.57,2.57,0,0,1-2.3-3.72,3.83,3.83,0,0,0-1.21-.2"/><path class="cls-4" d="M42.87,48.91a2.68,2.68,0,0,0-.55.06,2.57,2.57,0,0,0,.55,5.08,2.52,2.52,0,0,0,.5,0,2.57,2.57,0,0,0-.5-5.09"/><path class="cls-1" d="M87.52,47.19a6.68,6.68,0,0,0-6.4,8,6.94,6.94,0,0,0,6.48,5.71c4.65,0,6.54-5.22,5.45-9.23a2.3,2.3,0,0,1-1.83,1.18c.51,2.62-.78,5.8-3.75,5.8a4.67,4.67,0,0,1-4.36-3.84,4.49,4.49,0,0,1,4.3-5.38h.05a3.81,3.81,0,0,1,1.43.28,2.3,2.3,0,0,1,2-1.46,5.39,5.39,0,0,0-3.27-1.08h-.07"/><path class="cls-3" d="M87.41,49.44a4.49,4.49,0,0,0-4.3,5.38,4.67,4.67,0,0,0,4.36,3.84c3,0,4.27-3.17,3.75-5.8H91a2.3,2.3,0,0,1-2.15-3.15,3.81,3.81,0,0,0-1.43-.28h-.05"/><path class="cls-4" d="M91,48.26h-.17a2.3,2.3,0,0,0,.17,4.6h.18a2.3,2.3,0,0,0-.18-4.6"/><path class="cls-5" d="M113.71,58.85a4.51,4.51,0,0,0-1.41.26c-2.69.9-3.41,3.3-2.78,5.95.46,1.92,1.55,2.81,3.13,2.81a5.85,5.85,0,0,0,1.58-.24c2.25-.64,3.78-1.69,3.42-3.25-1-2.95-1.65-5.53-4-5.53"/><path class="cls-5" d="M110.76,51.19h-.08c-.95.75-2.15,1.38-1.66,3.08.35,1.24,1,2,2.09,2a3.33,3.33,0,0,0,.81-.11c1.42-.35,2.54-1,2.15-2.71s-1.58-2.24-3.31-2.24"/><path class="cls-5" d="M112.33,70.48a2.87,2.87,0,0,0-.68.09,2.51,2.51,0,0,0-1.91,3.11,2.18,2.18,0,0,0,2.33,1.66,4.32,4.32,0,0,0,.81-.08,2.19,2.19,0,0,0,1.5-3,2.09,2.09,0,0,0-2.05-1.81"/><path class="cls-5" d="M15.83,59c-3,0-3.8,3.34-5.12,7.17-.46,2,1.53,3.39,4.44,4.21a7.56,7.56,0,0,0,2,.32c2.06,0,3.47-1.16,4.06-3.64.83-3.44-.11-6.54-3.6-7.71A5.85,5.85,0,0,0,15.83,59"/><path class="cls-5" d="M19.66,49c-2.24,0-3.8.78-4.29,2.9s.94,3.06,2.79,3.52a4.37,4.37,0,0,0,1,.14c1.44,0,2.25-.95,2.71-2.55.64-2.21-.93-3-2.15-4h-.1"/><path class="cls-6" d="M85.21,94.45l-4.9,0-4.76,0H63.88a40.58,40.58,0,0,1-7.14.69q-.94,0-1.89-.06c-1.76-.11-3.5-.4-5.24-.63H38.81c-4.42.27-8.83.61-13.26.67a2.09,2.09,0,0,0-.44,1.67,1.41,1.41,0,0,1,.35,0c5.21,0,10.43.26,15.64.26q1.51,0,3,0c1.19,0,2.37,0,3.56,0,1.56,0,3.11,0,4.68.16,2.68.2,5.36.51,8.05.53h.19a41.15,41.15,0,0,0,7.8-.95A35,35,0,0,1,75.09,96l1.24,0A106.67,106.67,0,0,1,92.73,98a12,12,0,0,0,2.32.38,3.15,3.15,0,0,0,.55,0c.71-.13,1.09-.75,1.69-1.12a3.79,3.79,0,0,1,.42-.22,1.12,1.12,0,0,1,0-.33L98.17,95a14.42,14.42,0,0,0-1.94-.44l-.34,0a5.77,5.77,0,0,0-1.17.16,5.67,5.67,0,0,1-1.14.16h-.05c-1.09,0-2.2-.37-3.32-.39-1.67,0-3.34,0-5,0"/><path class="cls-7" d="M43.87,27.37l-4,0c-4.65.2-9.29.55-13.95.91a1.47,1.47,0,0,0,.33.89,1.2,1.2,0,0,0,1,.4h12c.54,0,1.19-.1,1.88-.1a4.64,4.64,0,0,1,.78.06h0c.86.15,1.53.51,2.11.59s1.43.05,2.33.22a12.47,12.47,0,0,0,1.26.14h.34l.09,0,.26.07.11.09a1.31,1.31,0,0,0,.85.33h0a1.55,1.55,0,0,0,1-.45,1.36,1.36,0,0,0,.45-.94,1.09,1.09,0,0,0-.42-.83l.43-.48-.43.48a3.83,3.83,0,0,0-2.42-1c-.92-.08-1.7-.33-2.4-.34h-.05c-.16,0-.38,0-.65,0l-.3,0h0a3.5,3.5,0,0,1-.61-.15"/><path class="cls-7" d="M44.06,26.08H44l-4.1,0h0c-4.86.21-9.71.58-14.54,1l-.46,0-.11.45a2.88,2.88,0,0,0-.09.7,2.76,2.76,0,0,0,.64,1.79,2.48,2.48,0,0,0,1.91.85H39.23c.66,0,1.3-.1,1.85-.1h0a3.58,3.58,0,0,1,.58,0h0c.57.08,1.24.44,2.09.59s1.63.08,2.3.22a13.44,13.44,0,0,0,1.39.16l.25,0a2.57,2.57,0,0,0,1.52.51h0a2.82,2.82,0,0,0,1.93-.8A2.62,2.62,0,0,0,52,29.66a2.39,2.39,0,0,0-.85-1.8l-.43.48-.43.48a1.09,1.09,0,0,1,.42.83,1.36,1.36,0,0,1-.45.94,1.55,1.55,0,0,1-1,.45h0a1.31,1.31,0,0,1-.85-.33l-.11-.09L48,30.56l-.09,0h-.34a12.47,12.47,0,0,1-1.26-.14c-.9-.17-1.65-.1-2.33-.22s-1.25-.45-2.11-.59h0a4.64,4.64,0,0,0-.78-.06c-.69,0-1.34.1-1.88.1h-12a1.2,1.2,0,0,1-1-.4,1.47,1.47,0,0,1-.33-.89c4.65-.36,9.3-.71,13.95-.91l4,0a3.5,3.5,0,0,0,.61.15h0l.3,0c.28,0,.49,0,.65,0h.05c.7,0,1.49.26,2.4.34a3.83,3.83,0,0,1,2.42,1l.43-.48.43-.48A5.14,5.14,0,0,0,48,26.56c-.72-.05-1.53-.31-2.47-.35h-.08c-.28,0-.5,0-.65,0h-.15a2.78,2.78,0,0,1-.47-.12l-.11,0"/><path class="cls-7" d="M86.79,28.76c-3.62,0-7.24.06-10.88.08a1.1,1.1,0,0,0-.46.44,1.52,1.52,0,0,0-.2.78,1.46,1.46,0,0,0,.32.95,1.2,1.2,0,0,0,1,.4H80c1.14-.15,2.28-.32,3.44-.49a59.72,59.72,0,0,1,7.87-.51h1.6a27.63,27.63,0,0,1,6.57.62l1.1.28a1.42,1.42,0,0,0,.27-.87,1.57,1.57,0,0,0-.28-.92,37.65,37.65,0,0,0-5.71-.6c-2.68-.12-5.36-.15-8.05-.15"/><path class="cls-7" d="M75.91,28.84c3.63,0,7.26-.08,10.88-.08,2.69,0,5.37,0,8.05.15a37.65,37.65,0,0,1,5.71.6,1.57,1.57,0,0,1,.28.92,1.42,1.42,0,0,1-.27.87L99.46,31a27.63,27.63,0,0,0-6.57-.62h-1.6a59.72,59.72,0,0,0-7.87.51c-1.15.16-2.3.34-3.44.49H76.53a1.2,1.2,0,0,1-1-.4,1.46,1.46,0,0,1-.32-.95,1.52,1.52,0,0,1,.2-.78,1.1,1.1,0,0,1,.46-.44m10.88-1.36c-3.68,0-7.35.06-11,.08h-.12l-.11,0a2.39,2.39,0,0,0-1.2,1A2.83,2.83,0,0,0,74,30.06a2.74,2.74,0,0,0,.64,1.79,2.48,2.48,0,0,0,1.91.85h3.6c1.17-.15,2.34-.33,3.5-.5a58.45,58.45,0,0,1,7.7-.49H93a26.2,26.2,0,0,1,6.2.58c.47.11.94.23,1.4.37l.3.09.25-.18a2.57,2.57,0,0,0,1-2.11,2.8,2.8,0,0,0-.77-2l-.14-.14-.19,0a38,38,0,0,0-6.13-.67c-2.71-.12-5.41-.15-8.11-.15"/><path class="cls-8" d="M75.56,94.49l4.76,0,4.9,0c1.67,0,3.34,0,5,0,1.11,0,2.22.38,3.32.39h.05a5.67,5.67,0,0,0,1.14-.16,5.77,5.77,0,0,1,1.17-.16l.34,0a14.42,14.42,0,0,1,1.94.44h0l-.42,1.59a1.09,1.09,0,0,0,0,.29v0h0a3.79,3.79,0,0,0-.42.22c-.6.36-1,1-1.69,1.12a3.15,3.15,0,0,1-.55,0A12,12,0,0,1,92.73,98,106.67,106.67,0,0,0,76.33,96l-1.24,0a35,35,0,0,0-6.69.71,41.15,41.15,0,0,1-7.8.95H60.4c-2.69,0-5.37-.34-8.05-.53C50.78,97,49.23,97,47.67,97c-1.18,0-2.36,0-3.56,0q-1.51,0-3,0c-5.22,0-10.43-.25-15.64-.26a1.41,1.41,0,0,0-.35,0,2.18,2.18,0,0,1,0-.33,2.06,2.06,0,0,1,.47-1.34c4.43-.07,8.84-.4,13.26-.67h10.8c1.75.23,3.48.52,5.24.63q.94.06,1.89.06a40.58,40.58,0,0,0,7.14-.69H75.56M109.66,73a2.51,2.51,0,0,1,2-2.46,2.87,2.87,0,0,1,.68-.09,2.09,2.09,0,0,1,2.05,1.81,3.74,3.74,0,0,1,.13.91,2.11,2.11,0,0,1-1.63,2.05,4.32,4.32,0,0,1-.81.08,2.18,2.18,0,0,1-2.33-1.66,2.73,2.73,0,0,1-.08-.65m-99-6.35a2.55,2.55,0,0,1,.07-.55C12,62.31,12.85,59,15.83,59a5.85,5.85,0,0,1,1.83.34,5.37,5.37,0,0,1,3.88,5.44A9.62,9.62,0,0,1,21.26,67c-.59,2.48-2,3.64-4.06,3.64a7.56,7.56,0,0,1-2-.32c-2.63-.74-4.52-1.94-4.5-3.66m98.66-3.37a4.15,4.15,0,0,1,3-4.2,4.51,4.51,0,0,1,1.41-.26h0c2.26,0,2.89,2.55,3.9,5.46l0,.07a2,2,0,0,1,.05.42c0,1.33-1.44,2.25-3.48,2.82a5.85,5.85,0,0,1-1.58.24c-1.59,0-2.67-.9-3.13-2.81a7.39,7.39,0,0,1-.22-1.75m-.4-9.76c0-1.18,1-1.72,1.77-2.36h.08c1.73,0,2.93.6,3.31,2.24a2.86,2.86,0,0,1,.08.66c0,1.22-1,1.75-2.23,2.06a3.33,3.33,0,0,1-.81.11c-1.11,0-1.74-.73-2.09-2a2.69,2.69,0,0,1-.11-.73m-93.63-.81a3.76,3.76,0,0,1,.1-.81c.49-2.12,2-2.9,4.29-2.9h.1c1,.82,2.31,1.53,2.3,3.06a3.48,3.48,0,0,1-.15.94c-.46,1.61-1.27,2.55-2.71,2.55a4.37,4.37,0,0,1-1-.14c-1.6-.4-2.9-1.09-2.89-2.71m58.28-2.21c0-7.46,5.21-8.63,12.58-8.63h.27c7.89,0,12.85.81,12.85,8.73v.09c0,7.8-5.22,13-13,13h-.13c-7.2-.05-12.54-5.59-12.59-13.08v-.09m-45.76.1c0-.06,0-.11,0-.17C27.85,43.59,32.43,40,38.34,40h.34c7.81.18,13,3.84,13,10.52q0,.12,0,.24c-.12,7.05-5.13,12-12.07,12h-.08c-6.93,0-11.75-5-11.77-12.14M74,30.06h0a2.83,2.83,0,0,1,.38-1.44,2.39,2.39,0,0,1,1.2-1l.11,0h.12c3.66,0,7.33-.08,11-.08,2.7,0,5.4,0,8.11.15a38,38,0,0,1,6.13.67l.19,0,.14.14a2.8,2.8,0,0,1,.77,2h0a2.57,2.57,0,0,1-1,2.11l-.25.18-.3-.09c-.47-.13-.93-.25-1.4-.37a26.2,26.2,0,0,0-6.2-.58H91.3a58.45,58.45,0,0,0-7.7.49c-1.16.17-2.32.34-3.5.5h-3.6a2.48,2.48,0,0,1-1.91-.85A2.74,2.74,0,0,1,74,30.06h0m-49.34-1.8h0a2.88,2.88,0,0,1,.09-.7l.11-.45.46,0c4.84-.38,9.68-.75,14.54-1h0l4.1,0h.11l.11,0a2.78,2.78,0,0,0,.47.12h.15c.16,0,.37,0,.65,0h.08c.94,0,1.75.29,2.47.35a5.14,5.14,0,0,1,3.16,1.3h0a2.39,2.39,0,0,1,.85,1.8h0a2.62,2.62,0,0,1-.85,1.87,2.82,2.82,0,0,1-1.93.8h0a2.57,2.57,0,0,1-1.52-.51l-.25,0a13.44,13.44,0,0,1-1.39-.16c-.67-.14-1.4-.07-2.3-.22s-1.52-.51-2.09-.59h0a3.58,3.58,0,0,0-.58,0h0c-.56,0-1.19.09-1.85.1H27.18a2.48,2.48,0,0,1-1.91-.85,2.76,2.76,0,0,1-.64-1.79h0M62.88,0C22.86,0,0,32.85,0,67.66a63,63,0,1,0,126,0C126,32.85,105.6,0,62.88,0"/><path class="cls-9" d="M81,53.88a6.63,6.63,0,0,1,6.51-6.69h.07a5.39,5.39,0,0,1,3.27,1.08H91a2.31,2.31,0,0,1,2.3,2.31h0A2.3,2.3,0,0,1,93,51.69a8.75,8.75,0,0,1,.3,2.29c0,3.46-1.95,6.94-5.75,6.94a6.94,6.94,0,0,1-6.48-5.71A7.46,7.46,0,0,1,81,53.88m5.4-12h-.27c-7.38,0-12.6,1.18-12.58,8.63v.09c.05,7.49,5.39,13,12.59,13.08h.13c7.77,0,13-5.17,13-13v-.09c0-7.93-5-8.7-12.85-8.73"/><path class="cls-9" d="M33.52,54a5.81,5.81,0,0,1,8.8-5h0a2.68,2.68,0,0,1,.55-.06,2.57,2.57,0,0,1,2.57,2.57h0a2.57,2.57,0,0,1-.28,1.16,5.9,5.9,0,0,1,.18,1.42c0,3.1-2.32,6.13-5.66,6.13a6.21,6.21,0,0,1-2.12-.39,6.31,6.31,0,0,1-4-5.21q0-.3,0-.6m4.82-14c-5.9,0-10.48,3.63-10.53,10.49,0,.06,0,.11,0,.17,0,7.12,4.84,12.1,11.77,12.14h.08c6.94,0,12-5,12.07-12q0-.12,0-.24c0-6.68-5.24-10.34-13-10.52h-.34"/><path class="cls-8" d="M39.34,48.14A5.82,5.82,0,0,0,33.52,54q0,.3,0,.6a6.31,6.31,0,0,0,4,5.21,6.21,6.21,0,0,0,2.12.39c3.34,0,5.68-3,5.66-6.13a5.9,5.9,0,0,0-.18-1.42h0A2.58,2.58,0,0,1,43.37,54s0,.07,0,.1a4,4,0,0,1-3.77,4.07,4.13,4.13,0,0,1-1.41-.26,4.19,4.19,0,0,1-2.69-3.47c0-.14,0-.27,0-.4a3.88,3.88,0,0,1,3.88-3.9,3.83,3.83,0,0,1,1.21.2h0A2.59,2.59,0,0,1,42.32,49a5.86,5.86,0,0,0-3-.83"/><path class="cls-10" d="M39.36,50.14A3.88,3.88,0,0,0,35.48,54c0,.13,0,.27,0,.4a4.19,4.19,0,0,0,2.69,3.47,4.13,4.13,0,0,0,1.41.26,4,4,0,0,0,3.77-4.07s0-.07,0-.1h0a2.52,2.52,0,0,1-.5,0,2.57,2.57,0,0,1-2.57-2.57h0a2.57,2.57,0,0,1,.27-1.15,3.83,3.83,0,0,0-1.21-.2"/><path class="cls-11" d="M42.87,48.91a2.68,2.68,0,0,0-.55.06h0a2.59,2.59,0,0,0-1.75,1.36h0a2.57,2.57,0,0,0-.27,1.15h0a2.57,2.57,0,0,0,2.57,2.57,2.52,2.52,0,0,0,.5,0,2.57,2.57,0,0,0,2.07-2.52h0a2.57,2.57,0,0,0-2.57-2.57"/><path class="cls-8" d="M87.59,47.19h-.07A6.63,6.63,0,0,0,81,53.88a7.46,7.46,0,0,0,.11,1.33,6.94,6.94,0,0,0,6.48,5.71c3.8,0,5.76-3.48,5.75-6.94a8.75,8.75,0,0,0-.3-2.29h0a2.3,2.3,0,0,1-1.83,1.18A6,6,0,0,1,91.32,54c0,2.32-1.31,4.67-3.86,4.67a4.67,4.67,0,0,1-4.36-3.84,5,5,0,0,1-.08-.89,4.46,4.46,0,0,1,4.38-4.49h.05a3.81,3.81,0,0,1,1.43.28h0a2.3,2.3,0,0,1,2-1.46,5.39,5.39,0,0,0-3.27-1.08"/><path class="cls-10" d="M87.41,49.44A4.46,4.46,0,0,0,83,53.94a5,5,0,0,0,.08.89,4.67,4.67,0,0,0,4.36,3.84c2.56,0,3.87-2.34,3.86-4.67a6,6,0,0,0-.11-1.13H91a2.31,2.31,0,0,1-2.31-2.3h0a2.29,2.29,0,0,1,.16-.84,3.81,3.81,0,0,0-1.43-.28h-.05"/><path class="cls-11" d="M91,48.26h-.17a2.3,2.3,0,0,0-2,1.46h0a2.29,2.29,0,0,0-.16.84h0A2.31,2.31,0,0,0,91,52.87h.18a2.3,2.3,0,0,0,2.12-2.3h0A2.31,2.31,0,0,0,91,48.26"/><path class="cls-12" d="M113.71,58.85h0a4.51,4.51,0,0,0-1.41.26,4.15,4.15,0,0,0-3,4.2,7.39,7.39,0,0,0,.22,1.75c.46,1.92,1.55,2.81,3.13,2.81a5.85,5.85,0,0,0,1.58-.24c2-.58,3.49-1.5,3.48-2.82a2,2,0,0,0-.05-.42l0-.07c-1-2.91-1.64-5.44-3.9-5.46h0"/><path class="cls-12" d="M110.76,51.19h-.08c-.8.63-1.78,1.18-1.77,2.36a2.69,2.69,0,0,0,.11.73c.35,1.24,1,2,2.09,2a3.33,3.33,0,0,0,.81-.11c1.22-.3,2.22-.83,2.23-2.06a2.86,2.86,0,0,0-.08-.66c-.37-1.63-1.58-2.24-3.31-2.24"/><path class="cls-12" d="M112.33,70.48a2.87,2.87,0,0,0-.68.09,2.51,2.51,0,0,0-2,2.46,2.73,2.73,0,0,0,.08.65,2.18,2.18,0,0,0,2.33,1.66,4.32,4.32,0,0,0,.81-.08,2.11,2.11,0,0,0,1.63-2.05,3.74,3.74,0,0,0-.13-.91,2.09,2.09,0,0,0-2.05-1.81"/><path class="cls-12" d="M15.83,59c-3,0-3.8,3.34-5.12,7.17a2.55,2.55,0,0,0-.07.55c0,1.72,1.87,2.91,4.5,3.66a7.56,7.56,0,0,0,2,.32c2.06,0,3.47-1.16,4.06-3.64a9.62,9.62,0,0,0,.28-2.27,5.37,5.37,0,0,0-3.88-5.44A5.85,5.85,0,0,0,15.83,59"/><path class="cls-12" d="M19.76,49h-.1c-2.24,0-3.8.78-4.29,2.9a3.76,3.76,0,0,0-.1.81c0,1.62,1.29,2.31,2.89,2.71a4.37,4.37,0,0,0,1,.14c1.44,0,2.25-.95,2.71-2.55a3.48,3.48,0,0,0,.15-.94c0-1.53-1.26-2.23-2.3-3.06"/><path class="cls-13" d="M85.21,94.45l-4.9,0-4.76,0H63.88a40.58,40.58,0,0,1-7.14.69q-.94,0-1.89-.06c-1.76-.11-3.5-.4-5.24-.63H38.81c-4.42.27-8.83.61-13.26.67a2.06,2.06,0,0,0-.47,1.34,2.18,2.18,0,0,0,0,.33,1.41,1.41,0,0,1,.35,0c5.21,0,10.43.26,15.64.26q1.51,0,3,0c1.19,0,2.37,0,3.56,0,1.56,0,3.11,0,4.68.16,2.68.2,5.36.51,8.05.53h.19a41.15,41.15,0,0,0,7.8-.95A35,35,0,0,1,75.09,96l1.24,0A106.67,106.67,0,0,1,92.73,98a12,12,0,0,0,2.32.38,3.15,3.15,0,0,0,.55,0c.71-.13,1.09-.75,1.69-1.12a3.79,3.79,0,0,1,.42-.22h0v0a1.09,1.09,0,0,1,0-.29L98.17,95a14.42,14.42,0,0,0-1.94-.44l-.34,0a5.77,5.77,0,0,0-1.17.16,5.67,5.67,0,0,1-1.14.16h-.05c-1.09,0-2.2-.37-3.32-.39-1.67,0-3.34,0-5,0"/><path class="cls-14" d="M43.87,27.37l-4,0c-4.65.2-9.29.55-13.95.91a1.47,1.47,0,0,0,.33.89,1.2,1.2,0,0,0,1,.4h12c.54,0,1.19-.1,1.88-.1a4.64,4.64,0,0,1,.78.06h0c.86.15,1.53.51,2.11.59s1.43.05,2.33.22a12.47,12.47,0,0,0,1.26.14h.34l.09,0,.26.07.11.09a1.31,1.31,0,0,0,.85.33h0a1.55,1.55,0,0,0,1-.45,1.36,1.36,0,0,0,.45-.94,1.09,1.09,0,0,0-.42-.83h0a3.83,3.83,0,0,0-2.42-1c-.92-.08-1.7-.33-2.4-.34h-.05c-.16,0-.38,0-.65,0l-.3,0h0a3.5,3.5,0,0,1-.61-.15"/><path class="cls-14" d="M44.06,26.08H44l-4.1,0h0c-4.86.21-9.71.58-14.54,1l-.46,0-.11.45a2.88,2.88,0,0,0-.09.7h0a2.76,2.76,0,0,0,.64,1.79,2.48,2.48,0,0,0,1.91.85H39.23c.66,0,1.3-.1,1.85-.1h0a3.58,3.58,0,0,1,.58,0h0c.57.08,1.24.44,2.09.59s1.63.08,2.3.22a13.44,13.44,0,0,0,1.39.16l.25,0a2.57,2.57,0,0,0,1.52.51h0a2.82,2.82,0,0,0,1.93-.8A2.62,2.62,0,0,0,52,29.66h0a2.39,2.39,0,0,0-.85-1.8h0l-.43.48-.43.48h0a1.09,1.09,0,0,1,.42.83h0a1.36,1.36,0,0,1-.45.94,1.55,1.55,0,0,1-1,.45h0a1.31,1.31,0,0,1-.85-.33l-.11-.09L48,30.56l-.09,0h-.34a12.47,12.47,0,0,1-1.26-.14c-.9-.17-1.65-.1-2.33-.22s-1.25-.45-2.11-.59h0a4.64,4.64,0,0,0-.78-.06c-.69,0-1.34.1-1.88.1h-12a1.2,1.2,0,0,1-1-.4,1.47,1.47,0,0,1-.33-.89h0c4.65-.36,9.3-.71,13.95-.91l4,0a3.5,3.5,0,0,0,.61.15h0l.3,0c.28,0,.49,0,.65,0h.05c.7,0,1.49.26,2.4.34a3.83,3.83,0,0,1,2.42,1l.43-.48.43-.48A5.14,5.14,0,0,0,48,26.56c-.72-.05-1.53-.31-2.47-.35h-.08c-.28,0-.5,0-.65,0h-.15a2.78,2.78,0,0,1-.47-.12l-.11,0"/><path class="cls-14" d="M86.79,28.76c-3.62,0-7.24.06-10.88.08a1.1,1.1,0,0,0-.46.44,1.52,1.52,0,0,0-.2.78,1.46,1.46,0,0,0,.32.95,1.2,1.2,0,0,0,1,.4H80c1.14-.15,2.28-.32,3.44-.49a59.72,59.72,0,0,1,7.87-.51h1.6a27.63,27.63,0,0,1,6.57.62l1.1.28a1.42,1.42,0,0,0,.27-.87,1.57,1.57,0,0,0-.28-.92,37.65,37.65,0,0,0-5.71-.6c-2.68-.12-5.36-.15-8.05-.15"/><path class="cls-14" d="M75.25,30.06h0a1.52,1.52,0,0,1,.2-.78,1.1,1.1,0,0,1,.46-.44c3.63,0,7.26-.08,10.88-.08,2.69,0,5.37,0,8.05.15a37.65,37.65,0,0,1,5.71.6,1.57,1.57,0,0,1,.28.92h0a1.42,1.42,0,0,1-.27.87L99.46,31a27.63,27.63,0,0,0-6.57-.62h-1.6a59.72,59.72,0,0,0-7.87.51c-1.15.16-2.3.34-3.44.49H76.53a1.2,1.2,0,0,1-1-.4,1.46,1.46,0,0,1-.32-.95m11.54-2.58c-3.68,0-7.35.06-11,.08h-.12l-.11,0a2.39,2.39,0,0,0-1.2,1A2.83,2.83,0,0,0,74,30.06h0a2.74,2.74,0,0,0,.64,1.79,2.48,2.48,0,0,0,1.91.85h3.6c1.17-.15,2.34-.33,3.5-.5a58.45,58.45,0,0,1,7.7-.49H93a26.2,26.2,0,0,1,6.2.58c.47.11.94.23,1.4.37l.3.09.25-.18a2.57,2.57,0,0,0,1-2.11h0a2.8,2.8,0,0,0-.77-2l-.14-.14-.19,0a38,38,0,0,0-6.13-.67c-2.71-.12-5.41-.15-8.11-.15"/></g></g></svg>