<svg xmlns="http://www.w3.org/2000/svg" viewBox="0 0 73.15 75.84"><defs><style>.cls-1{fill:#767676;}.cls-2{fill:#acacac;}.cls-3{fill:#1f1f1f;}.cls-4{fill:#9e9e9e;}.cls-5{fill:#fff;}.cls-6{fill:#f8f8f8;}.cls-7{fill:#6b6b6b;}.cls-8{fill:#202020;}.cls-9{fill:#bbb;}.cls-10{fill:#d6d6d6;}.cls-11{fill:#ababab;}.cls-12{fill:#8f8f8f;}.cls-13{fill:#cfcfcf;}.cls-14{fill:#fcfcfc;}.cls-15{fill:#b5b5b5;}.cls-16{fill:#909090;}.cls-17{fill:#d5d5d5;}</style></defs><title>ResultHappySmallOff</title><g id="Layer_2" data-name="Layer 2"><g id="text"><path class="cls-1" d="M0,39.27C0,19.07,13.27,0,36.5,0,61.28,0,73.15,19.07,73.15,39.27A36.58,36.58,0,1,1,0,39.27"/><path class="cls-1" d="M4.06,57.05l-.42,0,.42.07v-.1"/><path class="cls-2" d="M42.91,63.24c1.45-.33,2.9-.65,4.36-.95-6.87-2.41-11.11-4-11.11-4s3.06,2.17,6.75,4.93"/><path class="cls-3" d="M62.15,45.88a4.46,4.46,0,0,0-1.6-1.95,11.12,11.12,0,0,0-4.4-1.82,13.37,13.37,0,0,0-.85,1.4l-.06.08h0l-.12.14,0,0-.1.09,0,0a2.19,2.19,0,0,1-.31.22h0l-.15.08h0a2.49,2.49,0,0,1-.56.18h0a2.36,2.36,0,0,1-.59,0h0a2.19,2.19,0,0,1-.38-.06h0l-.17,0h0a2,2,0,0,1-.33-.14h0l-.12-.08,0,0a1.54,1.54,0,0,1-.25-.22l0,0-.08-.1,0,0-.08-.14h0l-.07-.15,0,0,0-.12v0l0-.18c0-.1,0-.2,0-.29h0c0-.09,0-.18-.06-.26h0l0-.09v0c0-.15,0-.31,0-.46a7.4,7.4,0,0,1-.79,1.53,2,2,0,0,1-1.29.82,1.9,1.9,0,0,1-2.39-1.47,6.62,6.62,0,0,0-.14-.88V41.7a3,3,0,0,1-2.24,1.5,2.33,2.33,0,0,1-2-.49,3.18,3.18,0,0,1-.79-1.89l.2-.42.09-.18h-.38l0,.15.07.35a9,9,0,0,0-.52,1l0,.06a2.51,2.51,0,0,1-2.18.94,1.91,1.91,0,0,1-1.79-1.52c0-.14-.28-.69-.22-.84a12.67,12.67,0,0,0-.65,1.55l0,.08c-.86,1.51-3.27,1.55-3.72,0a3.65,3.65,0,0,0-.24-.65c-.05-.26-.11-.52-.17-.77l0-.1v-.1c0,.11-.06.22-.06.23a3.63,3.63,0,0,1-.23.69,3.9,3.9,0,0,1-.82,1.21c-1.71,1.65-3.8,0-4.42-1.67-.5,1.28-1,2.68-2.64,2.61a1.67,1.67,0,0,1-1.39-.77,2.52,2.52,0,0,1-.17-.31c-.05-.12-.35-.9-.48-1.32l0,.08a1.73,1.73,0,0,0-.1.29c-.16.63-.06,1.3-.52,1.81a2.39,2.39,0,0,1-1.49.71,3,3,0,0,1-.62,0,2.34,2.34,0,0,1-1.62-.83,6,6,0,0,1-.8-1.31l-.07-.16a8.21,8.21,0,0,0-4.57,2.55c-3.72,4.59.34,9.72,4.06,12.76a29.59,29.59,0,0,0,6.87,4.17A23.37,23.37,0,0,1,27.34,59a8.89,8.89,0,0,1,5.09-.69,9.12,9.12,0,0,1,2.21.92c.53-.34,1.07-.64,1.53-.93,3.51-2.2,10.63-.85,12.83,3.14q.55-.19,1.1-.41a23.07,23.07,0,0,0,7.57-4.91,17.8,17.8,0,0,0,2.9-3.88,11.89,11.89,0,0,0,1.81-5.07,3.4,3.4,0,0,0-.23-1.3"/><path class="cls-4" d="M36.16,58.31c-.46.29-1,.59-1.53.93a9.12,9.12,0,0,0-2.21-.92,8.89,8.89,0,0,0-5.09.69,23.37,23.37,0,0,0-4.26,2.12q1.31.57,2.67,1l0,0,0,0A31,31,0,0,0,43,63c2-.51,4-.87,6-1.54-2.2-4-9.32-5.34-12.83-3.14M44,59.85c0-.15,0-.18.06,0H44"/><path class="cls-5" d="M51.31,41.17h-.13Q49,40.77,46.8,40.5h-.12L46,40.4q-4.26-.5-8.56-.63h-.74l-1.84,0a85.87,85.87,0,0,0-17.32,1.73l-.8.18.07.16a6,6,0,0,0,.8,1.31,2.34,2.34,0,0,0,1.62.83,3,3,0,0,0,.62,0,2.39,2.39,0,0,0,1.49-.71c.46-.51.36-1.19.52-1.81a1.73,1.73,0,0,1,.1-.29L22,41c.13.42.43,1.2.48,1.32a2.52,2.52,0,0,0,.17.31,1.67,1.67,0,0,0,1.39.77c1.65.07,2.14-1.33,2.64-2.61.62,1.71,2.71,3.32,4.42,1.67a3.9,3.9,0,0,0,.82-1.21,3.63,3.63,0,0,0,.23-.69s0-.12.06-.23v.1l0,.1c.06.26.11.51.17.77a3.65,3.65,0,0,1,.24.65c.45,1.59,2.86,1.55,3.72,0l0-.08A12.72,12.72,0,0,1,37,40.43h0a3,3,0,0,0,.23.8A1.91,1.91,0,0,0,39,42.76a2.51,2.51,0,0,0,2.18-.94l0-.06a8.26,8.26,0,0,1,.48-1h0a3.18,3.18,0,0,0,.79,1.89,2.33,2.33,0,0,0,2,.49,3,3,0,0,0,2.24-1.5v.16a6.62,6.62,0,0,1,.14.88,1.9,1.9,0,0,0,2.39,1.47,2,2,0,0,0,1.29-.82,7.4,7.4,0,0,0,.79-1.53c0,.15,0,.31,0,.46v0l0,.09h0c0,.08,0,.17.06.26h0c0,.1,0,.19,0,.29l0,.18v0l0,.12,0,0,.07.15h0l.08.14,0,0,.08.1,0,0a1.54,1.54,0,0,0,.25.22l0,0,.12.08h0a2,2,0,0,0,.33.14h0l.17,0h0a2.19,2.19,0,0,0,.38.06h0a2.36,2.36,0,0,0,.59,0,2.47,2.47,0,0,0,.56-.18h0l.15-.08h0a2.19,2.19,0,0,0,.31-.22l0,0,.1-.09,0,0,.12-.14h0l.06-.08a13.37,13.37,0,0,1,.85-1.4L55.61,42q-1.65-.35-3.32-.65l-.94-.16h0"/><path class="cls-6" d="M57.61,26A7.13,7.13,0,0,1,50,33.49a7.3,7.3,0,0,1-7.31-7.59,7.17,7.17,0,0,1,7.45-7.56c4.6,0,7.49,3,7.47,7.62"/><path class="cls-6" d="M23,32.95c-4.06,0-6.87-3-6.83-7.14s2.79-7.21,6.31-7.12C27,18.79,30.08,22,30,26a6.8,6.8,0,0,1-7.05,7"/><polyline class="cls-7" points="66.63 31.84 66.66 31.87 66.63 31.84"/><polyline class="cls-7" points="71.15 28.95 71.12 28.93 71.15 28.95 71.18 28.97 71.15 28.95"/><polyline class="cls-7" points="71.8 33.13 71.75 33.07 71.83 33.17 71.8 33.13"/><path class="cls-1" d="M27.26,25.74A3.38,3.38,0,0,0,22,28.91a3.65,3.65,0,0,0,2.34,3c3.82,1.39,6.3-4,2.91-6.19"/><path class="cls-8" d="M26.65,26.7a2.26,2.26,0,0,0-3.5,2.11,2.44,2.44,0,0,0,1.56,2c2.55.93,4.2-2.64,1.94-4.13"/><path class="cls-5" d="M28.92,27.1a1.49,1.49,0,1,1-1.49-1.49,1.49,1.49,0,0,1,1.49,1.49"/><path class="cls-1" d="M53.38,24.61a3.87,3.87,0,0,0-3.76,4.65,4,4,0,0,0,3.76,3.31c4.36,0,4.53-7.91,0-8"/><path class="cls-8" d="M53.3,25.92A2.6,2.6,0,0,0,50.78,29a2.7,2.7,0,0,0,2.53,2.22c2.93,0,3-5.31,0-5.35"/><path class="cls-5" d="M56.72,26.57a1.34,1.34,0,1,1-1.34-1.34,1.34,1.34,0,0,1,1.34,1.34"/><path class="cls-9" d="M44,59.73s0,0,0,.12H44c0-.09,0-.13,0-.13m-7.65-1.52-.18.11.18-.11m-5.13,0a5,5,0,0,1,1.22.15,5,5,0,0,0-1.22-.15m0,0h0m9.33-.91c3.31,0,7,1.49,8.47,4.13-1.5-2.64-5.16-4.1-8.47-4.13m-.08,0h0m8.47-13h0M24.2,43.44h0m19.92-.2h0m.1,0h0m-14.69,0h0m4.81,0h0m4.72-.4h0m.27,0h0m-8.54,0h0m5.46-.62,0,0,0,0m4.89-.21h0m10.26,0a7.4,7.4,0,0,1-.79,1.53,2,2,0,0,1-1.29.82l-.22,0,.22,0a2,2,0,0,0,1.29-.82,7.4,7.4,0,0,0,.79-1.53c0,.15,0,.31,0,.46v0l0,.09h0c0,.08,0,.17.06.26h0c0,.09,0,.19,0,.29l0,.18v0l0,.12,0,0,.07.15h0l.08.14,0,0,.08.1,0,0a1.54,1.54,0,0,0,.25.22l0,0,.12.08h0a2,2,0,0,0,.33.14h0l.17,0h0a2.19,2.19,0,0,0,.38.06h0a2.19,2.19,0,0,1-.38-.06h0l-.17,0h0a2,2,0,0,1-.33-.14h0l-.12-.08,0,0a1.54,1.54,0,0,1-.25-.22l0,0-.08-.1,0,0-.08-.14h0l-.07-.15,0,0,0-.12v0l0-.18c0-.1,0-.2,0-.29h0c0-.09,0-.18-.06-.26h0l0-.09v0c0-.15,0-.31,0-.46m-4.63-.16a3,3,0,0,1-2.24,1.5l-.13,0,.13,0a3,3,0,0,0,2.24-1.5v.16a6.62,6.62,0,0,1,.14.88,1.77,1.77,0,0,0,1.86,1.51,1.77,1.77,0,0,1-1.86-1.51,6.62,6.62,0,0,0-.14-.88V41.7m-10.24-.24c-.06.16-.12.32-.18.48l0,.08h0l0-.08c.05-.16.11-.33.18-.48m5-.4a7.16,7.16,0,0,0-.34.71l0,.06h0l0-.06a7.75,7.75,0,0,1,.34-.71M22,41l0,.08a1.73,1.73,0,0,0-.1.29c-.16.63-.06,1.3-.52,1.81a2.39,2.39,0,0,1-1.49.71l-.42,0h0l.42,0a2.39,2.39,0,0,0,1.49-.71c.46-.51.36-1.19.52-1.81a1.73,1.73,0,0,1,.1-.29L22,41c.13.42.43,1.2.48,1.32a2.52,2.52,0,0,0,.17.31,1.67,1.67,0,0,0,1.39.77h0a1.67,1.67,0,0,1-1.39-.77,2.52,2.52,0,0,1-.17-.31c-.05-.12-.35-.9-.48-1.32m4.6-.05v0m.07-.17h0a3.46,3.46,0,0,0,2.79,2.36,3.46,3.46,0,0,1-2.79-2.36m15.09,0h0a3.18,3.18,0,0,0,.79,1.89,2.11,2.11,0,0,0,1.44.53,2.11,2.11,0,0,1-1.44-.53,3.18,3.18,0,0,1-.79-1.89m-9.57-.25h0c.06.26.11.51.17.77a3.65,3.65,0,0,1,.24.65,1.65,1.65,0,0,0,1.63,1.18A1.65,1.65,0,0,1,32.57,42a3.65,3.65,0,0,0-.24-.65c-.05-.26-.11-.52-.17-.77M37,40.43a3.07,3.07,0,0,0,.23.81A1.91,1.91,0,0,0,39,42.76h0a1.91,1.91,0,0,1-1.79-1.52,3,3,0,0,1-.23-.8h0m0,0-.06.12.06-.12h0m-4.79-.07c0,.11-.06.22-.06.23a3.63,3.63,0,0,1-.23.69,3.9,3.9,0,0,1-.82,1.21l-.21.19.21-.19a3.9,3.9,0,0,0,.82-1.21,3.63,3.63,0,0,0,.23-.69s0-.12.06-.23v0M65,43.72a1.26,1.26,0,0,1-1.35-1A1.46,1.46,0,0,1,64.8,41a1.61,1.61,0,0,1,.4-.05A1.21,1.21,0,0,1,66.38,42a1.28,1.28,0,0,1-.87,1.72,2.55,2.55,0,0,1-.47,0M19.25,44H19.2a2.34,2.34,0,0,1-1.62-.83,6,6,0,0,1-.8-1.31l-.07-.16.8-.18a85.85,85.85,0,0,1,17.26-1.73h.06l1.84,0h.74q4.29.12,8.56.63l.69.09h.12q2.2.27,4.38.65h.16l.94.16q1.67.3,3.32.65l.54.12a13.37,13.37,0,0,0-.85,1.4l-.06.08h0l-.12.14,0,0-.1.09,0,0a2.19,2.19,0,0,1-.31.22h0l-.15.08h0a2.47,2.47,0,0,1-.56.18,2.39,2.39,0,0,1-.45,0h0a2.39,2.39,0,0,0,.45,0h0a2.49,2.49,0,0,0,.56-.18h0l.15-.08h0a2.19,2.19,0,0,0,.31-.22l0,0,.1-.09,0,0,.12-.14h0l.06-.08a13.37,13.37,0,0,1,.85-1.4,11.12,11.12,0,0,1,4.4,1.82,4.46,4.46,0,0,1,1.6,1.95,3.4,3.4,0,0,1,.23,1.3,11.89,11.89,0,0,1-1.81,5.07,17.8,17.8,0,0,1-2.9,3.88A23.07,23.07,0,0,1,50.09,61q-.55.23-1.1.41h0c-.75.26-1.5.47-2.25.66l.53.19c-1.45.3-2.91.62-4.36.95l-.24-.18a29,29,0,0,1-6.72.77,32.23,32.23,0,0,1-10.15-1.66l0,0,0,0q-1.36-.45-2.67-1h0A29.59,29.59,0,0,1,16.21,57c-3.72-3-7.78-8.17-4.06-12.76a8.21,8.21,0,0,1,4.57-2.55l.07.16a6,6,0,0,0,.8,1.31,2.34,2.34,0,0,0,1.62.83h.05M10,41a4.38,4.38,0,0,1-1.19-.18c-1.69-.48-2.85-1.27-2.58-2.44.77-2.22,1.24-4.16,3-4.16a3.37,3.37,0,0,1,1.06.2c2,.68,2.57,2.48,2.09,4.48A2.34,2.34,0,0,1,10,41m55.4-1.62a1.8,1.8,0,0,1-1.82-1.63c-.37-1.54,0-2.93,1.61-3.45a2.6,2.6,0,0,1,.82-.15c1.34,0,1.7,1.5,2.29,3.21.21.9-.69,1.51-2,1.88a3.39,3.39,0,0,1-.92.14m6.45-6.22,0,0,0-.06.08.1m-5.18-1.3,0,0,0,0m-2.18.77c-.64,0-1-.43-1.21-1.15-.28-1,.41-1.35,1-1.79h0c1,0,1.71.35,1.92,1.3s-.42,1.37-1.25,1.57a1.92,1.92,0,0,1-.47.06M71.18,29l0,0,0,0,0,0,0,0m-60,3.28a2.54,2.54,0,0,1-.61-.08c-1.07-.27-1.91-.76-1.61-2s1.19-1.68,2.49-1.68h.06c.71.57,1.62,1,1.25,2.32-.27.93-.73,1.48-1.57,1.48M23,32.95h0c-4.06,0-6.87-3-6.83-7.14,0-4,2.72-7.12,6.18-7.12h.14C27,18.79,30.08,22,30,26a7.14,7.14,0,0,1-2,5,3.32,3.32,0,0,1-1,.84,7.18,7.18,0,0,1-4,1.13m27.06.54H50a7.3,7.3,0,0,1-7.31-7.59,7.17,7.17,0,0,1,7.42-7.56h0c4.6,0,7.49,3,7.47,7.62a8,8,0,0,1-1.19,4.35,3.27,3.27,0,0,1-2.31,2.18,8.1,8.1,0,0,1-4,1M44.4,14l-.19-.32a11,11,0,0,1,4.89-1.26l.76,0a7.7,7.7,0,0,1,6.32,2.71,1.75,1.75,0,0,1,.37,1,1.52,1.52,0,0,1-1.17,1.46l-.14,0-.13-.06-.33-.16-.05-.13a4.06,4.06,0,0,0-1.45-1.63,6.1,6.1,0,0,0-2-.91,11.85,11.85,0,0,0-2.6-.27,19,19,0,0,0-4.85.69l-.14,0h0a.53.53,0,0,1-.39-.17.56.56,0,0,1-.14-.37.53.53,0,0,1,.23-.44h0c.28-.2.57-.38.87-.56l.19.32M17,17.53H16.9a1.63,1.63,0,0,1-1.06-.5,1.5,1.5,0,0,1-.39-1,1.81,1.81,0,0,1,.2-.81c1.23-2.48,4-3.63,6.48-3.92a17.2,17.2,0,0,1,2-.13,8.94,8.94,0,0,1,3.05.49L27,12h0l.13-.35c.32.12.64.25,1,.39a.54.54,0,0,1,.32.49.54.54,0,0,1-.55.54h0c-.58,0-1.17-.07-1.76-.07h0a14.51,14.51,0,0,0-5.62,1,5.22,5.22,0,0,0-3,3.13l0,.13-.11.08-.29.21M36.5,0C13.27,0,0,19.07,0,39.27a36.58,36.58,0,1,0,73.15,0C73.15,19.07,61.28,0,36.5,0"/><path class="cls-9" d="M4.06,57.05l-.42,0,.42.07v-.1"/><path class="cls-10" d="M46.74,62.11c-1.24.31-2.5.57-3.76.89l-.3.07.24.18c1.45-.33,2.9-.65,4.36-.95l-.53-.19"/><path class="cls-11" d="M24.12,11.89a16.35,16.35,0,0,0-1.9.13c-2.37.27-4.84,1.37-5.89,3.51a1.07,1.07,0,0,0-.12.48.73.73,0,0,0,.19.51.8.8,0,0,0,.41.23,6,6,0,0,1,3.35-3.46,15.25,15.25,0,0,1,5.93-1.07h.52a8.43,8.43,0,0,0-2.5-.34"/><path class="cls-11" d="M16.81,16.75a.8.8,0,0,1-.41-.23.73.73,0,0,1-.19-.51,1.07,1.07,0,0,1,.12-.48c1.05-2.14,3.52-3.24,5.89-3.51a16.35,16.35,0,0,1,1.9-.13,8.43,8.43,0,0,1,2.5.34h-.52a15.25,15.25,0,0,0-5.93,1.07,6,6,0,0,0-3.35,3.46m7.31-5.6a17.2,17.2,0,0,0-2,.13c-2.52.29-5.24,1.44-6.48,3.92a1.81,1.81,0,0,0-.2.81,1.5,1.5,0,0,0,.39,1,1.63,1.63,0,0,0,1.06.5H17l.29-.21.11-.08,0-.13a5.22,5.22,0,0,1,3-3.13,14.51,14.51,0,0,1,5.62-1h0c.6,0,1.19,0,1.76.07h0a.54.54,0,0,0,.55-.54.54.54,0,0,0-.32-.49c-.31-.14-.63-.27-1-.39L27,12l-.09.26h0L27,12l.13-.35a8.94,8.94,0,0,0-3.05-.49"/><path class="cls-11" d="M49.86,13.1l-.7,0a10.66,10.66,0,0,0-4.28,1,18.63,18.63,0,0,1,3.78-.41A12.51,12.51,0,0,1,51.4,14a6.84,6.84,0,0,1,2.3,1,4.91,4.91,0,0,1,1.62,1.77.73.73,0,0,0,.47-.69,1,1,0,0,0-.22-.6,7,7,0,0,0-5.73-2.41"/><path class="cls-11" d="M44.87,14.14a10.66,10.66,0,0,1,4.28-1l.7,0a7,7,0,0,1,5.73,2.41,1,1,0,0,1,.22.6.73.73,0,0,1-.47.69A4.91,4.91,0,0,0,53.71,15a6.84,6.84,0,0,0-2.3-1,12.51,12.51,0,0,0-2.76-.29,18.63,18.63,0,0,0-3.78.41m5-1.78-.76,0a11,11,0,0,0-4.89,1.26l.19.32-.19-.32c-.3.17-.58.36-.87.56h0a.53.53,0,0,0-.23.44.56.56,0,0,0,.14.37.53.53,0,0,0,.39.17h0l.14,0a19,19,0,0,1,4.85-.69,11.85,11.85,0,0,1,2.6.27,6.1,6.1,0,0,1,2,.91,4.06,4.06,0,0,1,1.45,1.63l.05.13.33.16.13.06.14,0a1.52,1.52,0,0,0,1.17-1.46,1.75,1.75,0,0,0-.37-1,7.7,7.7,0,0,0-6.32-2.71"/><path class="cls-12" d="M32.18,40.36c0,.11-.06.22-.06.23a3.63,3.63,0,0,1-.23.69,3.9,3.9,0,0,1-.82,1.21l-.21.19-.07.06h0a2.12,2.12,0,0,1-1.26.45h-.08a3.46,3.46,0,0,1-2.79-2.36h0l-.07.17v0c-.45,1.17-1,2.38-2.37,2.42H24a1.67,1.67,0,0,1-1.39-.77,2.52,2.52,0,0,1-.17-.31c-.05-.12-.35-.9-.48-1.32l0,.08a1.73,1.73,0,0,0-.1.29c-.16.63-.06,1.3-.52,1.81a2.39,2.39,0,0,1-1.49.71l-.42,0h-.2a2.34,2.34,0,0,1-1.62-.83,6,6,0,0,1-.8-1.31l-.07-.16a8.21,8.21,0,0,0-4.57,2.55c-3.72,4.59.34,9.72,4.06,12.76a29.59,29.59,0,0,0,6.87,4.17h0A23.37,23.37,0,0,1,27.34,59a10.58,10.58,0,0,1,3.77-.84h.1a5,5,0,0,1,1.22.15h0a9.12,9.12,0,0,1,2.21.92c.53-.34,1.07-.64,1.53-.93h0l.18-.11a8.28,8.28,0,0,1,4-.94h.1c3.31,0,7,1.49,8.47,4.13l0,.06h0q.55-.19,1.1-.41a23.07,23.07,0,0,0,7.57-4.91,17.8,17.8,0,0,0,2.9-3.88,11.89,11.89,0,0,0,1.81-5.07,3.4,3.4,0,0,0-.23-1.3,4.46,4.46,0,0,0-1.6-1.95,11.12,11.12,0,0,0-4.4-1.82,13.37,13.37,0,0,0-.85,1.4l-.06.08h0l-.12.14,0,0-.1.09,0,0a2.19,2.19,0,0,1-.31.22h0l-.15.08h0a2.49,2.49,0,0,1-.56.18h0a2.39,2.39,0,0,1-.45,0h-.14a2.19,2.19,0,0,1-.38-.06h0l-.17,0h0a2,2,0,0,1-.33-.14h0l-.12-.08,0,0a1.54,1.54,0,0,1-.25-.22l0,0-.08-.1,0,0-.08-.14h0l-.07-.15,0,0,0-.12v0l0-.18c0-.1,0-.2,0-.29h0c0-.09,0-.18-.06-.26h0l0-.09v0c0-.15,0-.31,0-.46a7.4,7.4,0,0,1-.79,1.53,2,2,0,0,1-1.29.82l-.22,0h-.31a1.77,1.77,0,0,1-1.86-1.51,6.62,6.62,0,0,0-.14-.88V41.7a3,3,0,0,1-2.24,1.5l-.13,0-.17,0H44a2.11,2.11,0,0,1-1.44-.53,3.18,3.18,0,0,1-.79-1.89h0l-.14.26a7.75,7.75,0,0,0-.34.71l0,.06h0l-.05.07h0a2.49,2.49,0,0,1-1.8.85H39a1.91,1.91,0,0,1-1.79-1.52,3.07,3.07,0,0,1-.23-.81h0l-.06.12c-.14.3-.28.6-.4.91s-.12.32-.18.48l0,.08h0l-.05.09,0,0a2.34,2.34,0,0,1-1.89,1H34.2A1.65,1.65,0,0,1,32.57,42a3.65,3.65,0,0,0-.24-.65c-.05-.26-.11-.52-.17-.77h0l0-.1v-.1"/><path class="cls-13" d="M44,59.86H44c0-.08,0-.12,0-.12s0,0,0,.13m-3.6-2.6h0a8.28,8.28,0,0,0-4,.94l-.18.11h0c-.46.29-1,.59-1.53.93a9.12,9.12,0,0,0-2.21-.92h0a5,5,0,0,0-1.22-.15h-.1a10.58,10.58,0,0,0-3.77.84,23.37,23.37,0,0,0-4.26,2.12h0q1.31.57,2.67,1l0,0,0,0A32.23,32.23,0,0,0,36,63.84a29,29,0,0,0,6.72-.77L43,63c1.26-.32,2.52-.57,3.76-.89.76-.19,1.51-.4,2.25-.66h0l0-.06c-1.5-2.64-5.16-4.1-8.47-4.13h-.08"/><path class="cls-5" d="M34.78,39.73a85.85,85.85,0,0,0-17.26,1.73l-.8.18.07.16a6,6,0,0,0,.8,1.31,2.34,2.34,0,0,0,1.62.83h.2l.42,0a2.39,2.39,0,0,0,1.49-.71c.46-.51.36-1.19.52-1.81a1.73,1.73,0,0,1,.1-.29L22,41c.13.42.43,1.2.48,1.32a2.52,2.52,0,0,0,.17.31,1.67,1.67,0,0,0,1.39.77h.19c1.42,0,1.92-1.25,2.37-2.42v0l.07-.17h0a3.46,3.46,0,0,0,2.79,2.36h.08a2.12,2.12,0,0,0,1.26-.45h0l.07-.06.21-.19a3.9,3.9,0,0,0,.82-1.21,3.63,3.63,0,0,0,.23-.69s0-.12.06-.23v.1l0,.1h0c.06.26.11.51.17.77a3.65,3.65,0,0,1,.24.65,1.65,1.65,0,0,0,1.63,1.18h.13a2.34,2.34,0,0,0,1.89-1l0,0,.05-.09h0l0-.08c.05-.16.11-.33.18-.48s.26-.61.4-.91l.06-.12h0a3,3,0,0,0,.23.8A1.91,1.91,0,0,0,39,42.76h.31a2.49,2.49,0,0,0,1.8-.85h0l.05-.07h0l0-.06a7.16,7.16,0,0,1,.34-.71l.14-.26h0a3.18,3.18,0,0,0,.79,1.89,2.11,2.11,0,0,0,1.44.53h.24l.17,0,.13,0a3,3,0,0,0,2.24-1.5v.16a6.62,6.62,0,0,1,.14.88,1.77,1.77,0,0,0,1.86,1.51h.31l.22,0a2,2,0,0,0,1.29-.82,7.4,7.4,0,0,0,.79-1.53c0,.15,0,.31,0,.46v0l0,.09h0c0,.08,0,.17.06.26h0c0,.1,0,.19,0,.29l0,.18v0l0,.12,0,0,.07.15h0l.08.14,0,0,.08.1,0,0a1.54,1.54,0,0,0,.25.22l0,0,.12.08h0a2,2,0,0,0,.33.14h0l.17,0h0a2.19,2.19,0,0,0,.38.06h.14a2.39,2.39,0,0,0,.45,0,2.47,2.47,0,0,0,.56-.18h0l.15-.08h0a2.19,2.19,0,0,0,.31-.22l0,0,.1-.09,0,0,.12-.14h0l.06-.08a13.37,13.37,0,0,1,.85-1.4L55.61,42q-1.65-.35-3.32-.65l-.94-.16h-.16Q49,40.77,46.8,40.5h-.12L46,40.4q-4.26-.5-8.56-.63h-.74l-1.84,0h-.06"/><path class="cls-14" d="M50.11,18.34a7.17,7.17,0,0,0-7.42,7.56A7.3,7.3,0,0,0,50,33.49h.07a8.1,8.1,0,0,0,4-1,3.26,3.26,0,0,1-.73.08,4,4,0,0,1-3.76-3.31,3.88,3.88,0,0,1,3.71-4.65h0a3.12,3.12,0,0,1,1.9.62h.1a1.34,1.34,0,0,1,1.34,1.34,1.32,1.32,0,0,1-.17.65,5.18,5.18,0,0,1-.13,3.09A8,8,0,0,0,57.61,26c0-4.65-2.87-7.6-7.47-7.62h0"/><path class="cls-14" d="M22.31,18.68c-3.46,0-6.15,3.12-6.18,7.13,0,4.18,2.78,7.12,6.83,7.14h0a7.18,7.18,0,0,0,4-1.13,3,3,0,0,1-1.4.34,3.59,3.59,0,0,1-1.23-.23,3.65,3.65,0,0,1-2.34-3,3.38,3.38,0,0,1,5.09-3.26,1.49,1.49,0,0,1,1.65,2.13A3.69,3.69,0,0,1,28,31a7.14,7.14,0,0,0,2-5c.06-4-3-7.18-7.57-7.28h-.14"/><polyline class="cls-15" points="66.63 31.84 66.66 31.87 66.63 31.84"/><polyline class="cls-15" points="71.12 28.93 71.15 28.95 71.18 28.97 71.15 28.95 71.12 28.93"/><polyline class="cls-15" points="71.75 33.07 71.8 33.13 71.83 33.17 71.75 33.07"/><path class="cls-9" d="M25.37,25.16A3.38,3.38,0,0,0,22,28.91a3.65,3.65,0,0,0,2.34,3,3.59,3.59,0,0,0,1.23.23,3,3,0,0,0,1.4-.34A3.32,3.32,0,0,0,28,31a3.69,3.69,0,0,0,.74-3.2,1.5,1.5,0,0,1-1,.79A2.3,2.3,0,0,1,25.53,31a2.4,2.4,0,0,1-.82-.15,2.44,2.44,0,0,1-1.56-2,2.26,2.26,0,0,1,2.24-2.5,2.23,2.23,0,0,1,.7.11,1.49,1.49,0,0,1,1-.79,3.4,3.4,0,0,0-1.73-.48"/><path class="cls-16" d="M25.39,26.32a2.26,2.26,0,0,0-2.24,2.5,2.44,2.44,0,0,0,1.56,2,2.4,2.4,0,0,0,.82.15,2.3,2.3,0,0,0,2.19-2.42l-.29,0a1.49,1.49,0,0,1-1.33-2.16,2.23,2.23,0,0,0-.7-.11"/><path class="cls-5" d="M27.43,25.61a1.49,1.49,0,0,0,0,3l.29,0a1.49,1.49,0,0,0-.29-3"/><path class="cls-9" d="M53.34,24.61a3.88,3.88,0,0,0-3.71,4.65,4,4,0,0,0,3.76,3.31,3.12,3.12,0,0,0,3-2.26,5.18,5.18,0,0,0,.13-3.09,1.34,1.34,0,0,1-1.06.68c.3,1.52-.45,3.36-2.18,3.36A2.7,2.7,0,0,1,50.78,29a2.6,2.6,0,0,1,2.49-3.12h0a2.23,2.23,0,0,1,.83.16,1.34,1.34,0,0,1,1.15-.85,3.12,3.12,0,0,0-1.9-.62h0"/><path class="cls-16" d="M53.27,25.92A2.6,2.6,0,0,0,50.78,29a2.7,2.7,0,0,0,2.53,2.22c1.73,0,2.48-1.84,2.18-3.36h-.1a1.34,1.34,0,0,1-1.24-1.82,2.23,2.23,0,0,0-.83-.16h0"/><path class="cls-5" d="M55.38,25.23h-.1a1.34,1.34,0,0,0,.1,2.67h.1a1.34,1.34,0,0,0,1.06-.68,1.32,1.32,0,0,0,.17-.65,1.34,1.34,0,0,0-1.34-1.34"/><path class="cls-17" d="M66,34.15a2.6,2.6,0,0,0-.82.15c-1.56.52-2,1.91-1.61,3.45a1.8,1.8,0,0,0,1.82,1.63,3.39,3.39,0,0,0,.92-.14c1.3-.37,2.19-1,2-1.88-.59-1.71-1-3.21-2.29-3.21"/><path class="cls-17" d="M64.27,29.71h0c-.55.44-1.25.8-1,1.79.21.72.57,1.15,1.21,1.15a1.92,1.92,0,0,0,.47-.06c.83-.21,1.47-.59,1.25-1.57s-.92-1.3-1.92-1.3"/><path class="cls-17" d="M65.19,40.9a1.61,1.61,0,0,0-.4.05,1.46,1.46,0,0,0-1.11,1.8,1.26,1.26,0,0,0,1.35,1,2.55,2.55,0,0,0,.47,0A1.28,1.28,0,0,0,66.38,42a1.21,1.21,0,0,0-1.19-1.05"/><path class="cls-17" d="M9.19,34.22c-1.73,0-2.2,1.94-3,4.16-.27,1.17.89,2,2.58,2.44A4.38,4.38,0,0,0,10,41a2.34,2.34,0,0,0,2.35-2.11c.48-2-.06-3.8-2.09-4.48a3.37,3.37,0,0,0-1.06-.2"/><path class="cls-17" d="M11.41,28.45c-1.3,0-2.21.45-2.49,1.68s.55,1.77,1.61,2a2.54,2.54,0,0,0,.61.08c.84,0,1.31-.55,1.57-1.48.37-1.28-.54-1.75-1.25-2.32h-.06"/></g></g></svg>