<svg xmlns="http://www.w3.org/2000/svg" viewBox="0 0 227.42 235.78"><defs><style>.cls-1{isolation:isolate;}.cls-2{fill:#05ab8c;}.cls-3,.cls-6{fill:#231f20;}.cls-3{stroke:#231f20;stroke-miterlimit:10;stroke-width:2.32px;opacity:0.3;mix-blend-mode:multiply;}.cls-4{fill:#944f90;}.cls-5{fill:#f8f9f4;}.cls-7{fill:#fff;}.cls-8{fill:#b6dad0;opacity:0.6;}.cls-9{fill:#241d1f;}</style></defs><title>ResultSadLarge</title><g class="cls-1"><g id="Layer_2" data-name="Layer 2"><g id="moosh"><path class="cls-2" d="M0,122.07C0,59.27,41.25,0,113.46,0c77.07,0,114,59.27,114,122.07A113.71,113.71,0,1,1,0,122.07Z"/><path class="cls-3" d="M79,45.9c-5.05-1.3-10.14-.71-15.16.35C56.35,47.83,48.64,52,45.76,59.52c-1,2.67.46,5.26,3.45,5.27a.52.52,0,0,0,.52-.46c.67-4.77,4.92-9.23,8.9-11.39,6.82-3.7,15.42-5.06,23.18-5.14a.52.52,0,0,0,.17-1Q80.51,46.29,79,45.9Z"/><path class="cls-3" d="M143.74,46.3c4.9-1.79,10-1.71,15.12-1.15,7.61.83,15.7,4.26,19.3,11.42,1.29,2.56.06,5.28-2.91,5.58a.52.52,0,0,1-.56-.4c-1.14-4.68-5.81-8.7-10-10.45-7.15-3-15.84-3.51-23.57-2.83a.52.52,0,0,1-.27-1Q142.28,46.83,143.74,46.3Z"/><path class="cls-4" d="M207.14,99l.08.08Z"/><path class="cls-4" d="M221.2,90l-.11-.07.11.07.1.07Z"/><path class="cls-4" d="M223.2,103l-.15-.17.26.3Z"/><path class="cls-5" d="M180.06,86.27c3.41-14-6.76-10-20.65-13.39-13.23-3.2-21.33-10.94-24.42,2.47-2,8.73.41,16.91,5.95,22.35a12,12,0,0,1,14.54-9.87,9.71,9.71,0,0,1,5.3,3.26l.29.05a4.16,4.16,0,0,1,2.1,6.85,16.11,16.11,0,0,1-1,6.11C170.93,102.68,177.63,96.3,180.06,86.27Z"/><path class="cls-5" d="M67.67,75C57.18,78.17,45.15,75.28,49,87.3c2.66,8.36,8.6,13.79,15.87,15.25A10.5,10.5,0,0,1,76.78,88.08a4.63,4.63,0,0,1,6.94,4.69,10.83,10.83,0,0,1,1.46,3.64c5.55-5.44,7.61-13.55,5-22.06C86.52,62.57,81.32,70.89,67.67,75Z"/><path class="cls-2" d="M83.72,92.77a4.64,4.64,0,0,1-2.32,3.35,7.67,7.67,0,0,1,.43,3,21.48,21.48,0,0,0,3.35-2.67A10.83,10.83,0,0,0,83.72,92.77Z"/><path class="cls-2" d="M68.16,101.28a7,7,0,0,1,6.4-9.88,4.64,4.64,0,0,1,2.22-3.32,10.5,10.5,0,0,0-11.92,14.47,20.53,20.53,0,0,0,4.33.4A7.11,7.11,0,0,1,68.16,101.28Z"/><path class="cls-6" d="M74.73,93.51a4.61,4.61,0,0,1-.18-2.11,7,7,0,0,0-6.4,9.88,7.11,7.11,0,0,0,1,1.67,23.5,23.5,0,0,0,6.89-1.16,24.07,24.07,0,0,0,5.76-2.71,7.67,7.67,0,0,0-.43-3,4.63,4.63,0,0,1-6.67-2.6Z"/><path class="cls-7" d="M83.72,92.77a4.63,4.63,0,0,0-6.94-4.69l.57.13A10.64,10.64,0,0,1,83.72,92.77Z"/><path class="cls-7" d="M74.56,91.4a7.38,7.38,0,0,1,1.91.26,7,7,0,0,1,4.94,4.46,4.64,4.64,0,0,0,2.32-3.35,10.64,10.64,0,0,0-6.37-4.56l-.57-.13A4.64,4.64,0,0,0,74.56,91.4Z"/><path class="cls-7" d="M76.46,91.66a7.38,7.38,0,0,0-1.91-.26,4.63,4.63,0,0,0,6.85,4.72A7,7,0,0,0,76.46,91.66Z"/><path class="cls-2" d="M144.42,99.34a8.09,8.09,0,0,1,9.89-7.63,6.91,6.91,0,0,1,2.39,1.09,4.15,4.15,0,0,1,4.08-1.73,9.71,9.71,0,0,0-5.3-3.26,12,12,0,0,0-14.54,9.87,22,22,0,0,0,3.5,2.79A8,8,0,0,1,144.42,99.34Z"/><path class="cls-2" d="M163.17,98a4.15,4.15,0,0,1-3.71,1.3,10.88,10.88,0,0,1-1.52,5.11,23.94,23.94,0,0,0,4.21-.3A16.11,16.11,0,0,0,163.17,98Z"/><path class="cls-6" d="M156.07,94.21a4.14,4.14,0,0,1,.63-1.41,6.91,6.91,0,0,0-2.39-1.09,8.23,8.23,0,0,0-9.87,8.77,23.65,23.65,0,0,0,7.19,3.07,28.43,28.43,0,0,0,6.32.84,10.88,10.88,0,0,0,1.52-5.11l-.32-.06A4.16,4.16,0,0,1,156.07,94.21Z"/><path class="cls-7" d="M163.17,98a4.16,4.16,0,0,0-2.1-6.85l-.29-.05A11.43,11.43,0,0,1,163.17,98Z"/><path class="cls-7" d="M156.7,92.81a7.39,7.39,0,0,1,2.77,6.47,4.15,4.15,0,0,0,3.71-1.3,11.43,11.43,0,0,0-2.39-6.91A4.15,4.15,0,0,0,156.7,92.81Z"/><path class="cls-7" d="M156.7,92.81a4.15,4.15,0,0,0,2.45,6.41l.32.06A7.39,7.39,0,0,0,156.7,92.81Z"/><path class="cls-8" d="M212.64,127c.64,2.81-2.13,4.72-6.18,5.86-4.43,1.25-7.42-.13-8.5-4.63-1.15-4.79.15-9.11,5-10.74C209.29,115.33,210.47,120.68,212.64,127Z"/><path class="cls-8" d="M200,103.15c3.2,0,5.43,1,6.11,4s-1.31,4.26-3.87,4.9c-2.95.73-4.45-.63-5.23-3.36C196.16,105.64,198.33,104.51,200,103.15Z"/><path class="cls-8" d="M204,146.57c-2.48.46-5-.14-5.67-2.85a4.54,4.54,0,0,1,3.44-5.6c2.34-.59,4.27.45,4.94,3.11C207.36,143.72,206.75,145.55,204,146.57Z"/><path class="cls-8" d="M19.33,129.54c-.83,3.64,2.76,6.11,8,7.6,5.74,1.62,9.62-.17,11-6,1.49-6.21-.19-11.81-6.49-13.92C23.67,114.48,22.15,121.42,19.33,129.54Z"/><path class="cls-8" d="M29.53,97.05c-4.14,0-7,1.34-7.92,5.23s1.69,5.52,5,6.35c3.82,1,5.77-.82,6.78-4.35C34.56,100.28,31.75,98.82,29.53,97.05Z"/><path class="cls-9" d="M183.45,165.8c-2.65-2.5-5.47-5-8.92-6.29-8-3-15.13-.48-21.85,3.9l-.39.25c-1.36.9-3.71,3.25-5.33,3.53-2.91.5-4.06-2.23-5.77-3.83-.3-.28-.62-.54-.95-.79a20.2,20.2,0,0,0-8.85-3.4c-3.35-.58-7.16-.54-10.2,1.2a5.92,5.92,0,0,0-1.11.86h0l-.48.47a10.54,10.54,0,0,1-1.5,1.34h0c-1.93,1.32-3.33.56-5.39-.54a12.78,12.78,0,0,1-2.6-1.94h0c-1.65-1.52-3.11-3.25-5.14-4.24-2.65-1.28-6.17-1.16-9-.69a9.79,9.79,0,0,0-6.31,3.56c-.27.31-.54.63-.81,1-2,2.5-2.71,5-6.58,2.59-1.45-.89-2.68-2.6-4.15-3.59l-1.23-.83c-2.66-1.81-5.87-3.93-8.82-4.62-3.41-.8-7.56,0-10.89.85-.83.2-1.76.42-2.7.69a6,6,0,0,1-.88,1.53,5.12,5.12,0,0,1-.78.78,4.44,4.44,0,0,1-1.6.83,7.91,7.91,0,0,0-1.17.38q.53-.35,0,0a6.71,6.71,0,0,0-.62.44,11.48,11.48,0,0,0-.94,1.17l-.24.33a1,1,0,0,1-.11.26,24.34,24.34,0,0,0,0,4.86,3.25,3.25,0,0,0,4,3,2.74,2.74,0,0,0,2.31-3c-.06-1.23-.58-2.92.22-3.89.61-.73,3.17-1,4-1.22,4.53-1.09,7.59-1,11.63,1.37a57.13,57.13,0,0,1,8.4,6.19,8.29,8.29,0,0,0,6.87,2.12c6.24-1,7.55-9.07,13.91-8.67,3.66.23,5.22,3.29,8.06,5.18a21,21,0,0,0,7.75,3.42,6.89,6.89,0,0,0,5.72-1.38c.81-.62,1.34-1.61,2.16-2.19,2.54-1.82,5.13-1.78,8.1-1.1,3.8.87,5.61,3,8.32,5.45a8.86,8.86,0,0,0,7,2.7c7.23-.79,11.61-8.88,19.28-9.27a14.67,14.67,0,0,1,9.89,3.11,25.17,25.17,0,0,1,2,1.59l.39.35a45.41,45.41,0,0,1,4.5-2.85,8.76,8.76,0,0,1,1.15-.53Z"/></g></g></g></svg>