<svg xmlns="http://www.w3.org/2000/svg" viewBox="0 0 227.42 235.78"><defs><style>.cls-1{isolation:isolate;}.cls-2{fill:#05ab8c;}.cls-3{fill:#9cbf6e;}.cls-10,.cls-4{fill:#231f20;}.cls-4{stroke:#231f20;stroke-miterlimit:10;stroke-width:2.32px;opacity:0.3;mix-blend-mode:multiply;}.cls-5{fill:#241d1f;}.cls-6{fill:#e77c8d;}.cls-7{fill:#fff;}.cls-8{fill:#f8f9f4;}.cls-9{fill:#944f90;}.cls-11{fill:#b6dad0;opacity:0.6;}</style></defs><title>ResultHappyLarge</title><g class="cls-1"><g id="Layer_2" data-name="Layer 2"><g id="moosh"><path class="cls-2" d="M0,122.07C0,59.27,41.25,0,113.46,0c77.07,0,114,59.27,114,122.07A113.71,113.71,0,1,1,0,122.07Z"/><path class="cls-2" d="M12.62,177.37l-1.3.08,1.29.23v-.14C12.61,177.48,12.62,177.43,12.62,177.37Z"/><path class="cls-3" d="M133.42,196.62c4.51-1,9-2,13.55-2.95-21.36-7.49-34.54-12.39-34.54-12.39S121.93,188,133.42,196.62Z"/><path class="cls-4" d="M84.07,37.25c-4.91-1.76-10-1.64-15.13-1-7.6.88-15.67,4.37-19.23,11.55-1.27,2.57,0,5.28,2.95,5.56a.52.52,0,0,0,.56-.41c1.11-4.69,5.75-8.74,9.91-10.52,7.13-3.05,15.82-3.62,23.55-3a.52.52,0,0,0,.26-1Q85.53,37.77,84.07,37.25Z"/><path class="cls-4" d="M138,43.42c4.51-2.62,9.57-3.43,14.69-3.76,7.64-.5,16.21,1.46,21,7.88,1.71,2.3,1,5.19-1.9,6a.52.52,0,0,1-.62-.3c-1.94-4.41-7.24-7.56-11.65-8.56C152,43,143.34,44,135.85,46a.52.52,0,0,1-.43-.92Q136.69,44.2,138,43.42Z"/><path class="cls-5" d="M193.22,142.62a13.88,13.88,0,0,0-5-6.05c-4.36-3.18-8.67-4.53-13.68-5.66a40.43,40.43,0,0,0-2.65,4.35l-.17.24h0c-.12.15-.25.3-.38.44l-.13.13-.31.3-.13.11a6.85,6.85,0,0,1-1,.68l-.08,0-.46.24-.07,0a7.41,7.41,0,0,1-1.73.55h0a7.53,7.53,0,0,1-1.83.12h0a7.11,7.11,0,0,1-1.18-.17h0l-.53-.15-.06,0a6.08,6.08,0,0,1-1-.44l-.07,0-.38-.24-.09-.06a5,5,0,0,1-.78-.68l-.08-.1-.25-.31-.08-.12a4.65,4.65,0,0,1-.26-.42v0a4.7,4.7,0,0,1-.22-.48l-.05-.14q-.07-.19-.12-.39l0-.16a5.19,5.19,0,0,1-.1-.56c0-.32-.09-.61-.14-.9v-.07q-.08-.42-.19-.8h0l-.08-.28v0c0-.48-.06-1-.09-1.45a22.69,22.69,0,0,1-2.47,4.77,6.34,6.34,0,0,1-4,2.56c-3.24.61-7.1-.91-7.45-4.56a19.61,19.61,0,0,0-.45-2.75c0-.17,0-.34,0-.51a9.18,9.18,0,0,1-7,4.65,7.26,7.26,0,0,1-6.17-1.52c-1.63-1.53-2.1-3.77-2.46-5.89q.31-.66.63-1.31l.27-.56-1.2,0,.08.48h0l.22,1.09a27.1,27.1,0,0,0-1.61,3.22l-.13.2a7.8,7.8,0,0,1-6.77,2.9c-3.38-.2-4.71-2.29-5.57-4.73-.15-.44-.87-2.15-.7-2.61a40.7,40.7,0,0,0-2,4.81l-.13.24c-2.67,4.69-10.19,4.82-11.57-.12a11.79,11.79,0,0,0-.75-2c-.16-.8-.34-1.6-.51-2.4a2.83,2.83,0,0,1,.06-.31v-.32c-.11.36-.19.7-.2.72a10.84,10.84,0,0,1-.72,2.16,12,12,0,0,1-2.56,3.76c-5.33,5.15-11.8.13-13.74-5.18-1.54,4-3.07,8.34-8.21,8.12a5.21,5.21,0,0,1-4.31-2.38,8.44,8.44,0,0,1-.51-1c-.17-.37-1.09-2.8-1.5-4.1l-.12.24a5.33,5.33,0,0,0-.31.89c-.5,1.95-.18,4-1.62,5.63a7.47,7.47,0,0,1-4.64,2.2,9.86,9.86,0,0,1-1.94.07,7.28,7.28,0,0,1-5-2.6A18.33,18.33,0,0,1,52.19,130c-.07-.14-.14-.34-.23-.51-5.39,1.34-10.63,3.53-14.2,7.93-11.58,14.28,1,30.22,12.62,39.68a92.2,92.2,0,0,0,21.35,13c4.07-2.8,8.71-4.68,13.26-6.59s11-3.4,15.82-2.15a28.52,28.52,0,0,1,6.85,2.87c1.65-1,3.32-2,4.76-2.89,10.93-6.83,33.06-2.65,39.89,9.76,1.14-.39,2.28-.82,3.42-1.29,8.62-3.59,17-8.63,23.54-15.27a55.6,55.6,0,0,0,9-12.07c2.54-4.58,5.58-10.48,5.65-15.77A10.66,10.66,0,0,0,193.22,142.62Z"/><path class="cls-6" d="M112.42,181.28c-1.44.9-3.11,1.84-4.76,2.89a28.52,28.52,0,0,0-6.85-2.87C96,180,89.46,181.57,85,183.45s-9.19,3.79-13.26,6.59q4.06,1.78,8.29,3.2l.1-.05.12.13c17.15,5.71,36,6.87,53.37,2.53,6.33-1.58,12.58-2.69,18.7-4.8C145.48,178.63,123.35,174.45,112.42,181.28Zm24.24,4.8c.06-.48.12-.56.18,0Z"/><path class="cls-7" d="M159.52,128l-.1,0-.28,0q-6.79-1.15-13.62-2h-.41l0,0-2.16-.27q-13.26-1.55-26.62-1.94l-.74,0h-.44l-1.14,0q-2.86-.06-5.71-.07a266.66,266.66,0,0,0-53.85,5.38c-.84.17-1.67.36-2.51.57.09.17.16.37.23.51A18.33,18.33,0,0,0,54.67,134a7.28,7.28,0,0,0,5,2.6,9.86,9.86,0,0,0,1.94-.07,7.47,7.47,0,0,0,4.64-2.2c1.44-1.59,1.12-3.68,1.62-5.63a5.33,5.33,0,0,1,.31-.89l.12-.24c.41,1.3,1.33,3.74,1.5,4.1a8.44,8.44,0,0,0,.51,1A5.21,5.21,0,0,0,74.63,135c5.13.22,6.66-4.15,8.21-8.12,1.94,5.32,8.41,10.33,13.74,5.18a12,12,0,0,0,2.56-3.76,10.84,10.84,0,0,0,.72-2.16s.09-.37.2-.72v.32a2.83,2.83,0,0,0-.06.31c.17.8.35,1.6.51,2.4a11.79,11.79,0,0,1,.75,2c1.38,4.95,8.9,4.81,11.57.12l.13-.24a40.15,40.15,0,0,1,2-4.71h0a9.36,9.36,0,0,0,.71,2.5c.85,2.45,2.19,4.53,5.57,4.73A7.8,7.8,0,0,0,128,130l.13-.2a26.11,26.11,0,0,1,1.49-3h.14l0,0c.36,2.12.83,4.36,2.46,5.89a7.26,7.26,0,0,0,6.17,1.52,9.18,9.18,0,0,0,7-4.65c0,.17,0,.34,0,.51a19.61,19.61,0,0,1,.45,2.75c.35,3.65,4.21,5.17,7.45,4.56a6.34,6.34,0,0,0,4-2.56,22.69,22.69,0,0,0,2.47-4.77c0,.48.07,1,.09,1.45v0l.08.28h0q.11.38.19.8v.07c.06.28.1.58.14.9a5.19,5.19,0,0,0,.1.56l0,.16q.05.2.12.39l.05.14a4.7,4.7,0,0,0,.22.48v0a4.65,4.65,0,0,0,.26.42l.08.12.25.31.08.1a5,5,0,0,0,.78.68l.09.06.38.24.07,0a6.08,6.08,0,0,0,1,.44l.06,0,.53.15h0a7.11,7.11,0,0,0,1.18.17h0a7.54,7.54,0,0,0,1.83-.12h0a7.42,7.42,0,0,0,1.73-.55l.07,0,.46-.24.08,0a6.85,6.85,0,0,0,1-.68l.13-.11.31-.3.13-.13c.13-.14.26-.28.38-.44h0l.17-.24a40.43,40.43,0,0,1,2.65-4.35l-1.67-.37q-5.14-1.1-10.32-2l-2.93-.51"/><path class="cls-8" d="M179.09,80.71c-.06,14.15-9.51,23.5-23.66,23.4-13-.09-22.62-10.08-22.72-23.59C132.61,66.76,142.25,57,155.87,57,170.16,57.09,179.15,66.25,179.09,80.71Z"/><path class="cls-8" d="M71.4,102.43c-12.61-.07-21.34-9.2-21.24-22.2.1-12.62,8.67-22.41,19.63-22.15C84,58.41,93.52,68.4,93.32,80.73,93.11,93.5,84,102.5,71.4,102.43Z"/><path class="cls-9" d="M207.14,99l.08.08Z"/><path class="cls-9" d="M221.2,90l-.11-.07.11.07.1.07Z"/><path class="cls-9" d="M223.2,103l-.15-.17.26.3Z"/><path class="cls-2" d="M84.77,80a10.51,10.51,0,0,0-16.32,9.84,11.37,11.37,0,0,0,7.27,9.39C87.6,103.57,95.29,86.93,84.77,80Z"/><path class="cls-10" d="M82.85,83A7,7,0,0,0,72,89.59a7.58,7.58,0,0,0,4.85,6.26C84.74,98.72,89.87,87.63,82.85,83Z"/><circle class="cls-7" cx="85.27" cy="84.25" r="4.64"/><path class="cls-2" d="M166,76.51A12,12,0,0,0,154.27,91c1,5.89,6.39,10.3,11.7,10.3C179.54,101.26,180.07,76.68,166,76.51Z"/><path class="cls-10" d="M165.71,80.57a8.09,8.09,0,0,0-7.85,9.71,8.41,8.41,0,0,0,7.86,6.92C174.83,97.2,175.19,80.69,165.71,80.57Z"/><circle class="cls-7" cx="172.16" cy="82.6" r="4.16"/><path class="cls-11" d="M212.28,116.16c.64,2.81-2.13,4.72-6.18,5.86-4.43,1.25-7.42-.13-8.5-4.63-1.15-4.79.15-9.11,5-10.74C208.93,104.54,210.11,109.89,212.28,116.16Z"/><path class="cls-11" d="M199.68,92.35c3.2,0,5.43,1,6.11,4s-1.31,4.26-3.87,4.9c-2.95.73-4.45-.63-5.23-3.36C195.8,94.84,198,93.71,199.68,92.35Z"/><path class="cls-11" d="M203.67,135.77c-2.48.46-5-.14-5.67-2.85a4.54,4.54,0,0,1,3.44-5.6c2.34-.59,4.27.45,4.94,3.11C207,132.93,206.39,134.75,203.67,135.77Z"/><path class="cls-11" d="M19.33,119.31c-.83,3.64,2.76,6.11,8,7.6,5.74,1.62,9.62-.17,11-6,1.49-6.21-.19-11.81-6.49-13.92C23.67,104.25,22.15,111.19,19.33,119.31Z"/><path class="cls-11" d="M35.66,88.46c-4.14,0-7,1.34-7.92,5.23s1.69,5.52,5,6.35c3.82,1,5.77-.82,6.78-4.35C40.69,91.68,37.88,90.22,35.66,88.46Z"/></g></g></g></svg>