<svg xmlns="http://www.w3.org/2000/svg" viewBox="0 0 73.15 75.84"><defs><style>.cls-1{fill:#767676;}.cls-2{fill:#6b6b6b;}.cls-3{fill:#f8f8f8;}.cls-4{fill:#202020;}.cls-5{fill:#fff;}.cls-6{fill:#1f1f1f;}.cls-7{fill:#bbb;}.cls-8{fill:#ababab;}.cls-9{fill:#b5b5b5;}.cls-10{fill:#fcfcfc;}.cls-11{fill:#909090;}.cls-12{fill:#d5d5d5;}.cls-13{fill:#8f8f8f;}</style></defs><title>ResultSadSmallOff</title><g id="Layer_2" data-name="Layer 2"><g id="text"><path class="cls-1" d="M0,39.27C0,19.07,13.27,0,36.5,0,61.28,0,73.15,19.07,73.15,39.27A36.58,36.58,0,1,1,0,39.27"/><polyline class="cls-2" points="66.63 31.84 66.66 31.87 66.63 31.84"/><polyline class="cls-2" points="71.15 28.95 71.11 28.93 71.15 28.95 71.18 28.97 71.15 28.95"/><polyline class="cls-2" points="71.8 33.13 71.75 33.07 71.83 33.17 71.8 33.13"/><path class="cls-3" d="M57.92,27.75c1.1-4.52-2.17-3.23-6.64-4.31-4.26-1-6.86-3.52-7.86.79a7.53,7.53,0,0,0,1.91,7.19A3.86,3.86,0,0,1,50,28.25a3.12,3.12,0,0,1,1.7,1l.09,0a1.34,1.34,0,0,1,.68,2.2,5.21,5.21,0,0,1-.33,2,7.09,7.09,0,0,0,5.76-5.73"/><path class="cls-3" d="M21.77,24.13c-3.37,1-7.24.09-6,4A6.85,6.85,0,0,0,20.86,33a3.38,3.38,0,0,1,3.83-4.65,1.51,1.51,0,0,1,.3-.14,1.49,1.49,0,0,1,1.94,1.64A3.47,3.47,0,0,1,27.4,31,6.84,6.84,0,0,0,29,23.92c-1.17-3.79-2.84-1.11-7.23.21"/><path class="cls-1" d="M26.93,29.84a1.49,1.49,0,0,1-.74,1.08,2.51,2.51,0,0,1,.14,1A6.84,6.84,0,0,0,27.4,31a3.47,3.47,0,0,0-.47-1.17"/><path class="cls-1" d="M21.92,32.58A2.25,2.25,0,0,1,24,29.4a1.49,1.49,0,0,1,.71-1.07A3.38,3.38,0,0,0,20.86,33a6.67,6.67,0,0,0,1.39.13,2.29,2.29,0,0,1-.33-.54"/><path class="cls-4" d="M24,30.08A1.46,1.46,0,0,1,24,29.4a2.25,2.25,0,0,0-2.06,3.18,2.29,2.29,0,0,0,.33.54,7.6,7.6,0,0,0,2.22-.37,7.86,7.86,0,0,0,1.85-.87,2.51,2.51,0,0,0-.14-1,1.45,1.45,0,0,1-.26.12,1.49,1.49,0,0,1-1.88-1"/><path class="cls-5" d="M26.93,29.84A1.49,1.49,0,0,0,25,28.2a1.51,1.51,0,0,0-.3.14l.18,0a3.42,3.42,0,0,1,2.05,1.47"/><path class="cls-5" d="M24,29.4a2.33,2.33,0,0,1,.61.08,2.26,2.26,0,0,1,1.59,1.43,1.49,1.49,0,0,0,.74-1.08,3.42,3.42,0,0,0-2.05-1.47l-.18,0A1.49,1.49,0,0,0,24,29.4"/><path class="cls-5" d="M24.6,29.48A2.33,2.33,0,0,0,24,29.4a1.46,1.46,0,0,0,.06.68,1.49,1.49,0,0,0,1.88,1,1.45,1.45,0,0,0,.26-.12,2.26,2.26,0,0,0-1.59-1.43"/><path class="cls-1" d="M46.45,32a2.6,2.6,0,0,1,3.18-2.45,2.21,2.21,0,0,1,.77.35,1.34,1.34,0,0,1,1.31-.56,3.12,3.12,0,0,0-1.7-1,3.86,3.86,0,0,0-4.68,3.17,7,7,0,0,0,1.13.9,2.48,2.48,0,0,1,0-.37"/><path class="cls-1" d="M52.49,31.52a1.34,1.34,0,0,1-1.19.42,3.52,3.52,0,0,1-.49,1.65,7.66,7.66,0,0,0,1.36-.1,5.21,5.21,0,0,0,.33-2"/><path class="cls-4" d="M50.2,30.3a1.38,1.38,0,0,1,.2-.45,2.21,2.21,0,0,0-.77-.35A2.6,2.6,0,0,0,46.45,32a2.48,2.48,0,0,0,0,.37,7.58,7.58,0,0,0,2.31,1,9.13,9.13,0,0,0,2,.27,3.52,3.52,0,0,0,.49-1.65l-.1,0a1.34,1.34,0,0,1-1-1.61"/><path class="cls-5" d="M52.49,31.52a1.34,1.34,0,0,0-.68-2.2l-.09,0a3.67,3.67,0,0,1,.77,2.22"/><path class="cls-5" d="M50.4,29.85a2.38,2.38,0,0,1,.89,2.08,1.34,1.34,0,0,0,1.19-.42,3.67,3.67,0,0,0-.77-2.22,1.34,1.34,0,0,0-1.31.56"/><path class="cls-5" d="M50.4,29.85a1.38,1.38,0,0,0-.2.45,1.34,1.34,0,0,0,1,1.61l.1,0a2.38,2.38,0,0,0-.89-2.08"/><path class="cls-6" d="M59,53.33a9,9,0,0,0-2.87-2c-2.56-1-4.87-.16-7,1.25l-.13.08c-.44.29-1.19,1-1.71,1.13-.94.16-1.3-.72-1.86-1.23a3.76,3.76,0,0,0-.3-.25,6.51,6.51,0,0,0-2.85-1.09,5,5,0,0,0-3.28.38,1.91,1.91,0,0,0-.36.28l-.16.15a3.33,3.33,0,0,1-.48.43c-.62.42-1.07.18-1.73-.17a4.1,4.1,0,0,1-.84-.62,7.3,7.3,0,0,0-1.65-1.36,5.09,5.09,0,0,0-2.9-.22,3.14,3.14,0,0,0-2,1.15l-.26.31c-.63.8-.87,1.6-2.12.83-.47-.29-.86-.83-1.33-1.15l-.39-.27a9.51,9.51,0,0,0-2.84-1.49,8.1,8.1,0,0,0-3.5.27l-.87.22a2,2,0,0,1-.28.49,1.69,1.69,0,0,1-.25.25,1.42,1.42,0,0,1-.51.27,2.65,2.65,0,0,0-.38.12c.11-.07.12-.08,0,0l-.2.14a3.66,3.66,0,0,0-.3.37l-.08.11,0,.08a7.72,7.72,0,0,0,0,1.57,1,1,0,0,0,1.3,1,.88.88,0,0,0,.74-1c0-.4-.19-.94.07-1.25s1-.33,1.29-.39a4.4,4.4,0,0,1,3.74.44,18.31,18.31,0,0,1,2.7,2,2.67,2.67,0,0,0,2.21.68C29.57,54.5,30,51.89,32,52c1.18.07,1.68,1.06,2.59,1.66a6.71,6.71,0,0,0,2.49,1.1A2.21,2.21,0,0,0,39,54.34c.26-.2.43-.52.69-.71a3,3,0,0,1,2.61-.35A5.53,5.53,0,0,1,44.94,55a2.85,2.85,0,0,0,2.25.87c2.33-.25,3.73-2.86,6.2-3a4.71,4.71,0,0,1,3.18,1,7.82,7.82,0,0,1,.63.51l.12.11a14.83,14.83,0,0,1,1.45-.92,2.94,2.94,0,0,1,.37-.17L59,53.33"/><path class="cls-7" d="M16.1,51.07a2.65,2.65,0,0,1,.38-.12,1.42,1.42,0,0,0,.51-.27,1.69,1.69,0,0,0,.25-.25,2,2,0,0,0,.28-.49l.87-.22a11.18,11.18,0,0,1,2.52-.37,4.34,4.34,0,0,1,1,.1,9.51,9.51,0,0,1,2.84,1.49l.39.27c.47.32.87.87,1.33,1.15a1.7,1.7,0,0,0,.85.31c.56,0,.81-.57,1.26-1.14l.26-.31a3.14,3.14,0,0,1,2-1.15,7.56,7.56,0,0,1,1.21-.1,3.92,3.92,0,0,1,1.69.33,7.3,7.3,0,0,1,1.65,1.36,4.1,4.1,0,0,0,.84.62,2.46,2.46,0,0,0,1.08.4,1.13,1.13,0,0,0,.65-.22,3.33,3.33,0,0,0,.48-.43l.16-.15a1.91,1.91,0,0,1,.36-.28,4.19,4.19,0,0,1,2.09-.49,7.15,7.15,0,0,1,1.2.11,6.51,6.51,0,0,1,2.85,1.09,3.76,3.76,0,0,1,.3.25c.51.47.86,1.25,1.64,1.25l.22,0c.52-.09,1.28-.84,1.71-1.13l.13-.08a8.83,8.83,0,0,1,4.77-1.68,6.26,6.26,0,0,1,2.25.43,9,9,0,0,1,2.87,2l.14.13a2.94,2.94,0,0,0-.37.17,14.83,14.83,0,0,0-1.45.92l-.12-.11a7.82,7.82,0,0,0-.63-.51,4.72,4.72,0,0,0-2.91-1h-.27c-2.46.12-3.87,2.73-6.2,3h-.26a3,3,0,0,1-2-.89,5.53,5.53,0,0,0-2.67-1.75,4.78,4.78,0,0,0-1.06-.14,2.56,2.56,0,0,0-1.55.49c-.26.19-.43.51-.69.71a2.15,2.15,0,0,1-1.37.48,3,3,0,0,1-.47,0,6.71,6.71,0,0,1-2.49-1.1c-.91-.61-1.41-1.59-2.59-1.66h-.15c-1.92,0-2.37,2.49-4.33,2.79a2.65,2.65,0,0,1-.41,0,2.73,2.73,0,0,1-1.8-.71,18.31,18.31,0,0,0-2.7-2,4.12,4.12,0,0,0-2.2-.66,6.66,6.66,0,0,0-1.55.22c-.28.07-1.1.16-1.29.39s-.09.85-.07,1.25a.88.88,0,0,1-.74,1l-.23,0a1,1,0,0,1-1.07-1,7.72,7.72,0,0,1,0-1.57l0-.08.08-.11a3.66,3.66,0,0,1,.3-.37l.2-.14.08-.05-.09.06m49.06-3.88a1.27,1.27,0,0,1-1.36-1,1.46,1.46,0,0,1,1.11-1.8,1.61,1.61,0,0,1,.4-.05,1.21,1.21,0,0,1,1.19,1.05,1.28,1.28,0,0,1-.87,1.72,2.59,2.59,0,0,1-.47,0m.33-4.33a1.8,1.8,0,0,1-1.82-1.63c-.37-1.54,0-2.93,1.61-3.45a2.59,2.59,0,0,1,.82-.15c1.34,0,1.7,1.5,2.29,3.21.21.9-.68,1.52-2,1.89a3.39,3.39,0,0,1-.92.14M10,44.29a4.4,4.4,0,0,1-1.19-.18c-1.69-.48-2.84-1.27-2.57-2.44.77-2.22,1.24-4.16,3-4.16a3.36,3.36,0,0,1,1.06.2c2,.68,2.57,2.48,2.09,4.48A2.34,2.34,0,0,1,10,44.29M64.6,36.11c-.65,0-1-.43-1.21-1.14-.28-1,.41-1.35,1-1.79h.05c1,0,1.7.35,1.92,1.3s-.42,1.37-1.25,1.57a2,2,0,0,1-.47.06m7.24-2.95-.09-.1,0,.06,0,0m-5.18-1.3,0,0,0,0M9.18,35a2.53,2.53,0,0,1-.61-.08c-1.07-.27-1.91-.76-1.62-2s1.19-1.68,2.49-1.68H9.5c.71.57,1.62,1,1.25,2.32C10.48,34.47,10,35,9.18,35m62-6,0,0,0,0,0,0,0,0M20.86,33a6.85,6.85,0,0,1-5.11-4.91c-1.23-3.87,2.64-2.93,6-4,2.72-.82,4.4-2.16,5.56-2.16.71,0,1.23.51,1.68,1.95A6.84,6.84,0,0,1,27.4,31h0a6.84,6.84,0,0,1-1.08.86s0-.08,0-.12,0,.08,0,.12a7.86,7.86,0,0,1-1.85.87,7.6,7.6,0,0,1-2.22.37,2.29,2.29,0,0,1-.33-.54,2.43,2.43,0,0,1-.09-.24,2.43,2.43,0,0,0,.09.24,2.29,2.29,0,0,0,.33.54h-.09A6.65,6.65,0,0,1,20.86,33l0-.08,0,.08m24.47-1.56a7.53,7.53,0,0,1-1.91-7.19c.43-1.85,1.15-2.45,2.17-2.45,1.36,0,3.25,1.07,5.69,1.66,4.47,1.08,7.74-.21,6.64,4.31a7.09,7.09,0,0,1-5.76,5.73,5.25,5.25,0,0,0,.33-1.78,5.25,5.25,0,0,1-.33,1.78,7.64,7.64,0,0,1-1.22.1H50.8a3.52,3.52,0,0,0,.49-1.65h0s0-.08,0-.11,0,.08,0,.11l-.1,0a1.34,1.34,0,0,1-1-1.31,1.34,1.34,0,0,0,1,1.31l.1,0a3.52,3.52,0,0,1-.49,1.65,9.13,9.13,0,0,1-2-.27,7.58,7.58,0,0,1-2.31-1c0-.07,0-.15,0-.23,0,.08,0,.15,0,.23a7,7,0,0,1-1.13-.9h0M16,21.21h-.14a1.6,1.6,0,0,1-1.15-.45,1.51,1.51,0,0,1-.43-1.08,1.85,1.85,0,0,1,.13-.67,6.49,6.49,0,0,1,2.49-3,10.23,10.23,0,0,1,3.6-1.48,14.24,14.24,0,0,1,3-.36,8.28,8.28,0,0,1,2.08.25l-.09.36h0l.09-.36c.33.09.66.19,1,.3a.54.54,0,0,1,.36.51.56.56,0,0,1-.14.36.54.54,0,0,1-.4.18A16.08,16.08,0,0,0,19,17.36a5.23,5.23,0,0,0-2.67,3.39l0,.14-.1.09-.27.24m30.14-6.67A9,9,0,0,1,49.24,14a17,17,0,0,1,1.9.12c2.52.28,5.25,1.41,6.5,3.88a1.82,1.82,0,0,1,.2.82,1.49,1.49,0,0,1-.39,1,1.62,1.62,0,0,1-1,.5h-.14l-.11-.08-.29-.21,0-.13a5.22,5.22,0,0,0-3-3.11,14.38,14.38,0,0,0-5.49-1h0c-.64,0-1.28,0-1.9.08h-.06a.53.53,0,0,1-.53-.54.53.53,0,0,1,.32-.48h0c.31-.14.63-.28.95-.39h0M36.5,0C13.27,0,0,19.07,0,39.27a36.58,36.58,0,1,0,73.15,0C73.15,19.07,61.28,0,36.5,0"/><path class="cls-8" d="M23.43,14.9a13.55,13.55,0,0,0-2.82.35,9.48,9.48,0,0,0-3.33,1.37,5.74,5.74,0,0,0-2.21,2.67,1.15,1.15,0,0,0-.08.4.77.77,0,0,0,.21.55.8.8,0,0,0,.46.22,6,6,0,0,1,3-3.75A15.72,15.72,0,0,1,25,15.05a7.65,7.65,0,0,0-1.58-.16"/><path class="cls-8" d="M15.66,20.45a.8.8,0,0,1-.46-.22.77.77,0,0,1-.21-.55,1.15,1.15,0,0,1,.08-.4,5.74,5.74,0,0,1,2.21-2.67,9.48,9.48,0,0,1,3.33-1.37,13.55,13.55,0,0,1,2.82-.35,7.65,7.65,0,0,1,1.58.16,15.72,15.72,0,0,0-6.33,1.65,6,6,0,0,0-3,3.75m7.77-6.3a14.24,14.24,0,0,0-3,.36A10.23,10.23,0,0,0,16.86,16a6.49,6.49,0,0,0-2.49,3,1.85,1.85,0,0,0-.13.67,1.51,1.51,0,0,0,.43,1.08,1.6,1.6,0,0,0,1.15.45H16l.27-.24.1-.09,0-.14A5.23,5.23,0,0,1,19,17.36a16.08,16.08,0,0,1,7.28-1.61.54.54,0,0,0,.4-.18.56.56,0,0,0,.14-.36.54.54,0,0,0-.36-.51c-.32-.11-.65-.21-1-.3l-.09.36-.07.27h0l.07-.27.09-.36a8.28,8.28,0,0,0-2.08-.25"/><path class="cls-8" d="M49.24,14.78a8.53,8.53,0,0,0-2.57.36h.66a15.14,15.14,0,0,1,5.8,1,6,6,0,0,1,3.38,3.43.82.82,0,0,0,.41-.23.73.73,0,0,0,.19-.51,1.08,1.08,0,0,0-.12-.49c-1.07-2.14-3.54-3.21-5.92-3.47a16.41,16.41,0,0,0-1.82-.11"/><path class="cls-8" d="M46.67,15.14a8.53,8.53,0,0,1,2.57-.36,16.41,16.41,0,0,1,1.82.11c2.38.26,4.85,1.33,5.92,3.47a1.08,1.08,0,0,1,.12.49.73.73,0,0,1-.19.51.82.82,0,0,1-.41.23,6,6,0,0,0-3.38-3.43,15.14,15.14,0,0,0-5.8-1h-.66M49.24,14a9,9,0,0,0-3.13.51h0c-.32.12-.64.25-.95.39h0a.53.53,0,0,0-.32.48.53.53,0,0,0,.53.54h.06c.62-.06,1.25-.08,1.9-.08h0a14.38,14.38,0,0,1,5.49,1,5.22,5.22,0,0,1,3,3.11l0,.13.29.21.11.08h.14a1.62,1.62,0,0,0,1-.5,1.49,1.49,0,0,0,.39-1,1.82,1.82,0,0,0-.2-.82c-1.25-2.47-4-3.6-6.5-3.88a17,17,0,0,0-1.9-.12"/><path class="cls-7" d="M20.76,32.71h0m0-.12,0,.12,0-.12m4.77-1.49h0m.21,0h0m27.14-.47a1.35,1.35,0,0,1,0,.3,1.33,1.33,0,0,1-.31.59h0a1.33,1.33,0,0,1-.23.2,1.33,1.33,0,0,0,.23-.2h0a1.33,1.33,0,0,0,.31-.59,1.35,1.35,0,0,0,0-.3m-2.28-1-.13.15.13-.15M24,29.61a1.46,1.46,0,0,0,.07.47,1.49,1.49,0,0,0,1.39,1,1.49,1.49,0,0,1-1.39-1,1.46,1.46,0,0,1-.07-.47m25.09-.18a2.44,2.44,0,0,1,.58.07,2.41,2.41,0,0,0-.58-.07m0,0h0M24,29.4h0m27.54-.12h0m0,0h0m-26.88-1,.07,0h0l-.07,0m-.11,0h0m-.56,0a3.5,3.5,0,0,1,.5,0,3.43,3.43,0,0,0-.5,0m0,0h0m1.15-.08-.07,0,.07,0m.59,0a1.49,1.49,0,0,1,1.17,1,1.49,1.49,0,0,0-1.17-1m23.47,0a3.59,3.59,0,0,1,.85.11,3.59,3.59,0,0,0-.85-.11m0,0h0m-23.67,0h0"/><polyline class="cls-9" points="66.63 31.84 66.66 31.87 66.63 31.84"/><polyline class="cls-9" points="71.11 28.93 71.15 28.95 71.18 28.97 71.15 28.95 71.11 28.93"/><polyline class="cls-9" points="71.75 33.07 71.83 33.17 71.8 33.13 71.75 33.07"/><path class="cls-10" d="M45.59,21.79c-1,0-1.74.6-2.17,2.45a7.53,7.53,0,0,0,1.91,7.19h0A3.89,3.89,0,0,1,49,28.14h.15a3.59,3.59,0,0,1,.85.11h0a3.12,3.12,0,0,1,1.7,1h0l.09,0a1.34,1.34,0,0,1,.68,2.2c0,.06,0,.12,0,.19a5.25,5.25,0,0,1-.33,1.78,7.09,7.09,0,0,0,5.76-5.73c1.1-4.52-2.17-3.23-6.64-4.31-2.43-.59-4.33-1.66-5.69-1.66"/><path class="cls-10" d="M27.32,22c-1.16,0-2.84,1.34-5.56,2.16-3.37,1-7.24.09-6,4A6.85,6.85,0,0,0,20.86,33l0-.08-.07-.19h0l0-.12a3.37,3.37,0,0,1,3.19-4.34h0a3.43,3.43,0,0,1,.5,0h.17l.07,0h0a1.51,1.51,0,0,1,.3-.14h0l.07,0a1.49,1.49,0,0,1,.3,0h.06l.23,0a1.49,1.49,0,0,1,1.17,1l0,.06a1.49,1.49,0,0,1,.05.69A3.47,3.47,0,0,1,27.4,31h0A6.84,6.84,0,0,0,29,23.92C28.55,22.47,28,22,27.32,22"/><path class="cls-7" d="M26.93,29.84a1.49,1.49,0,0,1-.74,1.08,2.5,2.5,0,0,1,.14.83s0,.08,0,.12A6.84,6.84,0,0,0,27.4,31h0a3.47,3.47,0,0,0-.47-1.17h0"/><path class="cls-7" d="M23.94,28.25h0a3.37,3.37,0,0,0-3.19,4.34l0,.12h0l.07.19,0,.08a6.65,6.65,0,0,0,1.31.13h.09a2.29,2.29,0,0,1-.33-.54,2.43,2.43,0,0,1-.09-.24,2.25,2.25,0,0,1,2.1-2.93h0a1.49,1.49,0,0,1,.71-1.07l-.07,0h-.17a3.5,3.5,0,0,0-.5,0h0"/><path class="cls-11" d="M24,29.4h0a2.25,2.25,0,0,0-2.1,2.93,2.43,2.43,0,0,0,.09.24,2.29,2.29,0,0,0,.33.54,7.6,7.6,0,0,0,2.22-.37,7.86,7.86,0,0,0,1.85-.87s0-.08,0-.12a2.5,2.5,0,0,0-.14-.83h0a1.45,1.45,0,0,1-.26.12h0l-.23.06h-.27a1.49,1.49,0,0,1-1.39-1A1.47,1.47,0,0,1,24,29.4h0"/><path class="cls-5" d="M25.46,28.12H25.4a1.49,1.49,0,0,0-.3,0l-.07,0h0a1.51,1.51,0,0,0-.3.14l.18,0a3.42,3.42,0,0,1,2.05,1.47h0a1.49,1.49,0,0,0-.05-.69l0-.06a1.49,1.49,0,0,0-1.17-1l-.23,0"/><path class="cls-5" d="M24.7,28.33h0A1.49,1.49,0,0,0,24,29.4a2.33,2.33,0,0,1,.61.08,2.26,2.26,0,0,1,1.59,1.43h0a1.49,1.49,0,0,0,.74-1.08h0a3.42,3.42,0,0,0-2.05-1.47l-.18,0"/><path class="cls-5" d="M24,29.4h0a1.47,1.47,0,0,0,.06.68,1.49,1.49,0,0,0,1.39,1h.27l.23-.06h0a1.45,1.45,0,0,0,.26-.12h0a2.26,2.26,0,0,0-1.59-1.43A2.33,2.33,0,0,0,24,29.4h0"/><path class="cls-7" d="M49.13,28.14H49a3.89,3.89,0,0,0-3.67,3.28h0a7,7,0,0,0,1.13.9c0-.07,0-.15,0-.23s0-.09,0-.14A2.63,2.63,0,0,1,49,29.43h.07a2.41,2.41,0,0,1,.58.07h0a2.21,2.21,0,0,1,.77.35h0l0,0,.13-.15a1.34,1.34,0,0,1,.9-.39h.26a3.12,3.12,0,0,0-1.7-1h0a3.59,3.59,0,0,0-.85-.11h0"/><path class="cls-7" d="M52.49,31.52a1.34,1.34,0,0,1-.95.43h-.06l-.18,0h0a3.52,3.52,0,0,1-.49,1.65h.13a7.64,7.64,0,0,0,1.22-.1,5.25,5.25,0,0,0,.33-1.78c0-.06,0-.12,0-.19h0"/><path class="cls-11" d="M49,29.43H49A2.63,2.63,0,0,0,46.45,32s0,.09,0,.14,0,.15,0,.23a7.58,7.58,0,0,0,2.31,1,9.13,9.13,0,0,0,2,.27,3.52,3.52,0,0,0,.49-1.65l-.1,0a1.34,1.34,0,0,1-1-1.61,1.38,1.38,0,0,1,.2-.45,2.21,2.21,0,0,0-.77-.35h0a2.44,2.44,0,0,0-.58-.07h0"/><path class="cls-5" d="M51.72,29.3a3.67,3.67,0,0,1,.77,2.22h0a1.33,1.33,0,0,0,.31-.59,1.33,1.33,0,0,0-1-1.61l-.09,0"/><path class="cls-5" d="M51.5,29.28h0a1.34,1.34,0,0,0-.9.39l-.13.15,0,0a2.35,2.35,0,0,1,.89,2s0,.08,0,.11h0l.18,0h.06a1.34,1.34,0,0,0,.95-.43h0a3.67,3.67,0,0,0-.77-2.22H51.5"/><path class="cls-5" d="M50.4,29.85h0a1.38,1.38,0,0,0-.2.45,1.34,1.34,0,0,0,1,1.61l.1,0s0-.08,0-.11a2.35,2.35,0,0,0-.89-2h0"/><path class="cls-12" d="M66.11,37.63a2.59,2.59,0,0,0-.82.15c-1.56.52-2,1.91-1.61,3.45a1.8,1.8,0,0,0,1.82,1.63,3.39,3.39,0,0,0,.92-.14c1.3-.37,2.19-1,2-1.89-.59-1.71-1-3.21-2.29-3.21"/><path class="cls-12" d="M64.4,33.18h-.05c-.55.44-1.25.8-1,1.79.21.72.57,1.14,1.21,1.14a2,2,0,0,0,.47-.06c.83-.21,1.47-.59,1.25-1.57s-.91-1.3-1.92-1.3"/><path class="cls-12" d="M65.31,44.38a1.61,1.61,0,0,0-.4.05,1.46,1.46,0,0,0-1.11,1.8,1.27,1.27,0,0,0,1.36,1,2.59,2.59,0,0,0,.47,0,1.28,1.28,0,0,0,.87-1.72,1.21,1.21,0,0,0-1.19-1.05"/><path class="cls-12" d="M9.19,37.51c-1.73,0-2.2,1.94-3,4.16-.27,1.17.89,2,2.57,2.44a4.4,4.4,0,0,0,1.19.18,2.34,2.34,0,0,0,2.36-2.11c.48-2-.06-3.8-2.09-4.48a3.36,3.36,0,0,0-1.06-.2"/><path class="cls-12" d="M9.44,31.22c-1.3,0-2.21.45-2.49,1.68s.54,1.77,1.62,2a2.53,2.53,0,0,0,.61.08c.84,0,1.3-.55,1.57-1.48.37-1.28-.54-1.75-1.25-2.32H9.44"/><path class="cls-13" d="M20.91,49.35a11.18,11.18,0,0,0-2.52.37l-.87.22a2,2,0,0,1-.28.49,1.69,1.69,0,0,1-.25.25,1.42,1.42,0,0,1-.51.27,2.65,2.65,0,0,0-.38.12l.09-.06-.08.05-.2.14a3.66,3.66,0,0,0-.3.37l-.08.11,0,.08a7.72,7.72,0,0,0,0,1.57,1,1,0,0,0,1.07,1l.23,0a.88.88,0,0,0,.74-1c0-.4-.19-.94.07-1.25s1-.33,1.29-.39a6.66,6.66,0,0,1,1.55-.22,4.12,4.12,0,0,1,2.2.66,18.31,18.31,0,0,1,2.7,2,2.73,2.73,0,0,0,1.8.71,2.65,2.65,0,0,0,.41,0c2-.3,2.41-2.79,4.33-2.79H32c1.18.07,1.68,1.06,2.59,1.66a6.71,6.71,0,0,0,2.49,1.1,3,3,0,0,0,.47,0A2.15,2.15,0,0,0,39,54.34c.26-.2.43-.52.69-.71a2.56,2.56,0,0,1,1.55-.49,4.78,4.78,0,0,1,1.06.14A5.53,5.53,0,0,1,44.94,55a3,3,0,0,0,2,.89h.26c2.33-.25,3.73-2.86,6.2-3h.27a4.72,4.72,0,0,1,2.91,1,7.82,7.82,0,0,1,.63.51l.12.11a14.83,14.83,0,0,1,1.45-.92,2.94,2.94,0,0,1,.37-.17L59,53.33a9,9,0,0,0-2.87-2,6.26,6.26,0,0,0-2.25-.43,8.83,8.83,0,0,0-4.77,1.68l-.13.08c-.44.29-1.19,1-1.71,1.13l-.22,0c-.78,0-1.13-.78-1.64-1.25a3.76,3.76,0,0,0-.3-.25,6.51,6.51,0,0,0-2.85-1.09,7.15,7.15,0,0,0-1.2-.11,4.19,4.19,0,0,0-2.09.49,1.91,1.91,0,0,0-.36.28l-.16.15a3.33,3.33,0,0,1-.48.43,1.13,1.13,0,0,1-.65.22,2.46,2.46,0,0,1-1.08-.4,4.1,4.1,0,0,1-.84-.62,7.3,7.3,0,0,0-1.65-1.36A3.92,3.92,0,0,0,32.07,50a7.56,7.56,0,0,0-1.21.1,3.14,3.14,0,0,0-2,1.15l-.26.31c-.45.57-.7,1.14-1.26,1.14a1.7,1.7,0,0,1-.85-.31c-.47-.29-.86-.83-1.33-1.15l-.39-.27a9.51,9.51,0,0,0-2.84-1.49,4.34,4.34,0,0,0-1-.1"/></g></g></svg>