<svg xmlns="http://www.w3.org/2000/svg" viewBox="0 0 126.05 130.68"><defs><style>.cls-1{fill:#b8b8b8;}.cls-2{fill:#b3b3b3;}.cls-3{fill:#fbfbfb;}.cls-4{fill:#202020;}.cls-5{fill:#fff;}.cls-6{fill:#1f1f1f;}.cls-7{fill:#857c91;}.cls-8{fill:#6c6479;}.cls-9{fill:#827a8f;}.cls-10{fill:#a69eb3;}.cls-11{fill:#393146;}.cls-12{fill:#a8a0b5;}.cls-13{fill:#938a9f;}.cls-14{fill:#393045;}</style></defs><title>ResultSadMediumOff</title><g id="Layer_2" data-name="Layer 2"><g id="moosh"><path class="cls-1" d="M0,67.66C0,32.85,22.86,0,62.88,0,105.6,0,126,32.85,126,67.66a63,63,0,0,1-126,0"/><polyline class="cls-2" points="114.81 54.87 114.86 54.91 114.81 54.87"/><polyline class="cls-2" points="122.6 49.88 122.54 49.85 122.6 49.88 122.66 49.93 122.6 49.88"/><polyline class="cls-2" points="123.71 57.08 123.63 56.98 123.78 57.15 123.71 57.08"/><path class="cls-3" d="M99.8,47.81c1.89-7.79-3.75-5.56-11.44-7.42C81,38.62,76.53,34.33,74.82,41.76a13,13,0,0,0,3.3,12.38,6.65,6.65,0,0,1,8.06-5.47,5.39,5.39,0,0,1,2.94,1.81l.16,0A2.3,2.3,0,0,1,91,53.28a2.26,2.26,0,0,1-.54,1,8.94,8.94,0,0,1-.57,3.39c4.87-.78,8.58-4.32,9.93-9.88"/><path class="cls-3" d="M37.51,41.57c-5.81,1.75-12.48.15-10.36,6.81,1.48,4.63,4.77,7.64,8.8,8.45a5.82,5.82,0,0,1,6.61-8,2.6,2.6,0,0,1,.51-.23,2.57,2.57,0,0,1,3.34,2.83,6,6,0,0,1,.81,2A11.8,11.8,0,0,0,50,41.21c-2-6.53-4.9-1.92-12.46.36"/><path class="cls-1" d="M46.4,51.42a2.57,2.57,0,0,1-1.28,1.85,4.27,4.27,0,0,1,.24,1.64,11.77,11.77,0,0,0,1.85-1.48,6,6,0,0,0-.81-2"/><path class="cls-1" d="M37.78,56.14a3.88,3.88,0,0,1,3.54-5.48,2.58,2.58,0,0,1,1.23-1.84,5.82,5.82,0,0,0-6.61,8,11.41,11.41,0,0,0,2.4.22,3.9,3.9,0,0,1-.57-.92"/><path class="cls-4" d="M41.42,51.83a2.56,2.56,0,0,1-.1-1.17,3.91,3.91,0,0,0-3,6.4,12.94,12.94,0,0,0,3.82-.64,13.26,13.26,0,0,0,3.19-1.5,4.27,4.27,0,0,0-.24-1.64,2.56,2.56,0,0,1-3.7-1.44"/><path class="cls-5" d="M46.4,51.42a2.57,2.57,0,0,0-3.34-2.83,2.6,2.6,0,0,0-.51.23l.31.07a5.9,5.9,0,0,1,3.53,2.53"/><path class="cls-5" d="M41.32,50.66a4,4,0,0,1,1.06.14,3.88,3.88,0,0,1,2.74,2.47,2.57,2.57,0,0,0,1.28-1.85,5.9,5.9,0,0,0-3.53-2.53l-.31-.07a2.58,2.58,0,0,0-1.23,1.84"/><path class="cls-5" d="M42.38,50.8a4,4,0,0,0-1.06-.14,2.56,2.56,0,0,0,3.8,2.61,3.88,3.88,0,0,0-2.74-2.47"/><path class="cls-1" d="M80,55.06a4.49,4.49,0,0,1,5.48-4.23,3.82,3.82,0,0,1,1.33.61,2.3,2.3,0,0,1,2.26-1,5.39,5.39,0,0,0-2.94-1.81,6.65,6.65,0,0,0-8.06,5.47,12.15,12.15,0,0,0,1.94,1.55,4.39,4.39,0,0,1,0-.63"/><path class="cls-1" d="M90.44,54.31a2.3,2.3,0,0,1-2.06.72,6,6,0,0,1-.84,2.83,13.4,13.4,0,0,0,2.33-.17,8.94,8.94,0,0,0,.57-3.39"/><path class="cls-4" d="M86.5,52.22a2.29,2.29,0,0,1,.35-.78,3.82,3.82,0,0,0-1.33-.61A4.49,4.49,0,0,0,80,55.06a4.39,4.39,0,0,0,0,.63,13.1,13.1,0,0,0,4,1.7,15.77,15.77,0,0,0,3.5.47A6,6,0,0,0,88.38,55l-.18,0a2.3,2.3,0,0,1-1.71-2.77"/><path class="cls-5" d="M90.44,54.31a2.26,2.26,0,0,0,.54-1,2.3,2.3,0,0,0-1.71-2.78l-.16,0a6.33,6.33,0,0,1,1.33,3.83"/><path class="cls-5" d="M86.85,51.44A4.09,4.09,0,0,1,88.38,55a2.3,2.3,0,0,0,2.06-.72,6.33,6.33,0,0,0-1.33-3.83,2.3,2.3,0,0,0-2.26,1"/><path class="cls-5" d="M86.85,51.44A2.3,2.3,0,0,0,88.21,55l.18,0a4.09,4.09,0,0,0-1.53-3.59"/><path class="cls-6" d="M101.68,91.9a15.55,15.55,0,0,0-4.95-3.49c-4.41-1.68-8.39-.27-12.11,2.16l-.22.14c-.75.5-2.06,1.8-3,2-1.61.28-2.25-1.24-3.2-2.12a6.67,6.67,0,0,0-.52-.44,11.23,11.23,0,0,0-4.91-1.89,8.6,8.6,0,0,0-5.65.66,3.24,3.24,0,0,0-.61.48l-.27.26a5.8,5.8,0,0,1-.83.74c-1.07.73-1.84.31-3-.3A7.06,7.06,0,0,1,61,89a12.48,12.48,0,0,0-2.85-2.35,8.77,8.77,0,0,0-5-.38,5.43,5.43,0,0,0-3.5,2q-.22.25-.45.54c-1.08,1.38-1.5,2.75-3.65,1.43-.8-.49-1.48-1.44-2.3-2l-.68-.46a16.38,16.38,0,0,0-4.89-2.56,13.93,13.93,0,0,0-6,.47c-.46.11-1,.23-1.5.38a3.33,3.33,0,0,1-.49.85,2.89,2.89,0,0,1-.43.43,2.43,2.43,0,0,1-.88.46,4.38,4.38,0,0,0-.65.21h0a3.93,3.93,0,0,0-.34.24,6.07,6.07,0,0,0-.52.65l-.13.18a.63.63,0,0,1-.06.15,13.47,13.47,0,0,0,0,2.69A1.8,1.8,0,0,0,29,93.56a1.52,1.52,0,0,0,1.28-1.65c0-.68-.32-1.62.13-2.16s1.75-.57,2.23-.68c2.51-.6,4.21-.57,6.45.76a31.82,31.82,0,0,1,4.66,3.43,4.59,4.59,0,0,0,3.81,1.18c3.46-.53,4.19-5,7.71-4.8,2,.13,2.89,1.82,4.47,2.87A11.66,11.66,0,0,0,64,94.4a3.82,3.82,0,0,0,3.17-.76c.45-.34.75-.9,1.19-1.22a5.16,5.16,0,0,1,4.49-.61c2.11.48,3.11,1.64,4.61,3a4.91,4.91,0,0,0,3.88,1.5c4-.44,6.44-4.92,10.68-5.14a8.12,8.12,0,0,1,5.48,1.73,13.84,13.84,0,0,1,1.09.88l.21.19a25.39,25.39,0,0,1,2.5-1.58,4.88,4.88,0,0,1,.64-.29l-.24-.23"/><path class="cls-7" d="M41.3,50.66h0m0-2a6.06,6.06,0,0,1,1.13.11,6.06,6.06,0,0,0-1.13-.11m0,0h0m1.95-.13-.14,0,.14,0m41.47-.06a6.23,6.23,0,0,1,1.5.19,6.23,6.23,0,0,0-1.5-.19m0,0h0m-40.75,0a2.57,2.57,0,0,1,2.39,1.77,2.57,2.57,0,0,0-2.39-1.77m-.05,0h0M27.74,88a4.38,4.38,0,0,1,.65-.21,2.43,2.43,0,0,0,.88-.46,2.89,2.89,0,0,0,.43-.43,3.33,3.33,0,0,0,.49-.85c.52-.15,1-.27,1.5-.38A19.15,19.15,0,0,1,36,85a7.48,7.48,0,0,1,1.7.18,16.38,16.38,0,0,1,4.89,2.56l.68.46c.82.55,1.5,1.49,2.3,2a2.93,2.93,0,0,0,1.47.53c1,0,1.4-1,2.17-2q.22-.29.45-.54a5.43,5.43,0,0,1,3.5-2,13.1,13.1,0,0,1,2.08-.18,6.74,6.74,0,0,1,2.91.56A12.48,12.48,0,0,1,61,89a7.06,7.06,0,0,0,1.44,1.08,4.22,4.22,0,0,0,1.87.69,2,2,0,0,0,1.12-.39,5.8,5.8,0,0,0,.83-.74l.27-.26a3.24,3.24,0,0,1,.61-.48,7.22,7.22,0,0,1,3.6-.85,12.23,12.23,0,0,1,2.06.18,11.23,11.23,0,0,1,4.91,1.89,6.67,6.67,0,0,1,.52.44c.87.81,1.48,2.16,2.82,2.16a2.22,2.22,0,0,0,.38,0c.9-.16,2.2-1.46,3-2l.22-.14a15.22,15.22,0,0,1,8.23-2.9,10.81,10.81,0,0,1,3.88.73,15.55,15.55,0,0,1,4.95,3.49l.24.23a4.88,4.88,0,0,0-.64.29A25.39,25.39,0,0,0,98.79,94l-.21-.19a13.84,13.84,0,0,0-1.09-.88,8.14,8.14,0,0,0-5-1.74H92c-4.25.22-6.67,4.7-10.68,5.14l-.45,0a5.09,5.09,0,0,1-3.43-1.52c-1.5-1.38-2.5-2.54-4.61-3A8.27,8.27,0,0,0,71,91.57a4.41,4.41,0,0,0-2.67.85c-.45.32-.74.87-1.19,1.22a3.71,3.71,0,0,1-2.36.83A5.17,5.17,0,0,1,64,94.4a11.66,11.66,0,0,1-4.3-1.9c-1.57-1-2.44-2.74-4.47-2.87H55c-3.31,0-4.09,4.29-7.46,4.81a4.52,4.52,0,0,1-3.81-1.18A31.82,31.82,0,0,0,39,89.83a7.1,7.1,0,0,0-3.78-1.13,11.49,11.49,0,0,0-2.67.37c-.48.11-1.89.27-2.23.68s-.16,1.47-.13,2.16A1.52,1.52,0,0,1,29,93.56a2,2,0,0,1-.4,0,1.76,1.76,0,0,1-1.84-1.69,13.47,13.47,0,0,1,0-2.69.63.63,0,0,0,.06-.15l.13-.18a6.07,6.07,0,0,1,.52-.65,3.93,3.93,0,0,1,.34-.24l.14-.09-.15.1m84.53-6.69a2.17,2.17,0,0,1-2.33-1.66,2.51,2.51,0,0,1,1.91-3.11,2.8,2.8,0,0,1,.68-.09,2.09,2.09,0,0,1,2.05,1.81,2.19,2.19,0,0,1-1.5,3,4.43,4.43,0,0,1-.81.08m.58-7.46c-1.59,0-2.67-.9-3.13-2.81-.64-2.66.08-5,2.77-6a4.48,4.48,0,0,1,1.41-.26c2.31,0,2.93,2.58,4,5.53.36,1.55-1.18,2.61-3.42,3.25a5.86,5.86,0,0,1-1.58.24M17.2,76.33a7.59,7.59,0,0,1-2-.32c-2.91-.82-4.9-2.19-4.44-4.21C12,68,12.85,64.63,15.83,64.63a5.8,5.8,0,0,1,1.83.34c3.49,1.17,4.42,4.27,3.6,7.71-.6,2.48-2,3.64-4.06,3.64m94.11-14.1c-1.11,0-1.73-.73-2.09-2-.49-1.71.71-2.33,1.66-3.09H111c1.73,0,2.93.6,3.3,2.23s-.72,2.36-2.15,2.71a3.35,3.35,0,0,1-.81.11m12.47-5.07-.06-.07-.08-.09.15.17m-8.92-2.24,0,0,0,0m-99,5.44a4.36,4.36,0,0,1-1-.14c-1.84-.46-3.29-1.31-2.78-3.52s2-2.9,4.29-2.9h.1c1.23,1,2.79,1.79,2.15,4-.46,1.6-1.27,2.55-2.71,2.55M122.66,49.93l-.06,0-.06,0,.06,0,.06,0M35.95,56.84c-4-.81-7.32-3.82-8.8-8.45-2.12-6.66,4.54-5.06,10.36-6.81,4.69-1.41,7.58-3.72,9.58-3.72,1.23,0,2.12.87,2.89,3.36a11.8,11.8,0,0,1-2.76,12.22h0a11.77,11.77,0,0,1-1.85,1.48q0-.1,0-.21,0,.1,0,.21a13.26,13.26,0,0,1-3.19,1.5,12.94,12.94,0,0,1-3.82.64,3.9,3.9,0,0,1-.57-.92q-.08-.18-.14-.36.06.18.14.36a3.9,3.9,0,0,0,.57.92h-.16a11.39,11.39,0,0,1-2.24-.22l-.06-.16.06.16m42.17-2.7a13,13,0,0,1-3.3-12.38c.73-3.19,2-4.22,3.74-4.22,2.35,0,5.61,1.84,9.8,2.85,7.7,1.86,13.33-.36,11.44,7.42-1.35,5.56-5.06,9.1-9.93,9.88a9,9,0,0,0,.57-3.07,9,9,0,0,1-.57,3.07,13.45,13.45,0,0,1-2.11.17h-.22A6,6,0,0,0,88.38,55h0c0-.07,0-.13,0-.2s0,.13,0,.2l-.18,0a2.3,2.3,0,0,1-1.77-2.25A2.3,2.3,0,0,0,88.21,55l.18,0a6,6,0,0,1-.84,2.83,15.77,15.77,0,0,1-3.5-.47,13.1,13.1,0,0,1-4-1.7c0-.13,0-.26,0-.39,0,.13,0,.26,0,.39a12.15,12.15,0,0,1-1.94-1.55h0M27.27,36.55a2.77,2.77,0,0,1-2-.77,2.61,2.61,0,0,1-.75-1.86,3.21,3.21,0,0,1,.22-1.16,11.17,11.17,0,0,1,4.29-5.21A17.61,17.61,0,0,1,35.25,25a24.65,24.65,0,0,1,5.12-.62,14.31,14.31,0,0,1,3.58.43h0c.57.15,1.14.32,1.7.51h0a.91.91,0,0,1,.63.87.93.93,0,0,1-.92.93c-4.23,0-8.91.79-12.55,2.77a10.49,10.49,0,0,0-3,2.46,7,7,0,0,0-1.64,3.38h0a.94.94,0,0,1-.92.8h0M79.45,25.06a15.54,15.54,0,0,1,5.4-.87,29.86,29.86,0,0,1,3.27.2,17.67,17.67,0,0,1,6.42,1.92,11.18,11.18,0,0,1,4.78,4.76,3.16,3.16,0,0,1,.35,1.42A2.56,2.56,0,0,1,99,34.23a2.81,2.81,0,0,1-1.81.86h-.1a.93.93,0,0,1-.91-.71,7,7,0,0,0-2-3.2A10.47,10.47,0,0,0,91,29a24.87,24.87,0,0,0-9.49-1.67c-1.11,0-2.21.05-3.27.15h-.1a.92.92,0,0,1-.68-.31,1,1,0,0,1-.24-.63.93.93,0,0,1,.13-.48.94.94,0,0,1,.41-.36h0c.54-.25,1.08-.48,1.64-.68h0M62.88,0C22.86,0,0,32.85,0,67.66a63,63,0,0,0,126,0C126,32.85,105.6,0,62.88,0"/><path class="cls-8" d="M26.93,35.56h0m13.43-9.89a23.5,23.5,0,0,0-4.84.59,16.39,16.39,0,0,0-5.74,2.35A9.91,9.91,0,0,0,26,33.22a2,2,0,0,0-.14.7,1.31,1.31,0,0,0,.37,1,1.38,1.38,0,0,0,.79.37,8.46,8.46,0,0,1,1.87-3.7,11.72,11.72,0,0,1,3.34-2.77,27.09,27.09,0,0,1,10.9-2.84,13.32,13.32,0,0,0-2.72-.27h0m3.43-.23-.12.46h0l.12-.46h0"/><path class="cls-8" d="M26.93,35.57h0m.06-.33a1.38,1.38,0,0,1-.79-.37,1.31,1.31,0,0,1-.37-1,2,2,0,0,1,.14-.7,9.91,9.91,0,0,1,3.81-4.6,16.39,16.39,0,0,1,5.74-2.35,23.5,23.5,0,0,1,4.84-.59h0a13.32,13.32,0,0,1,2.72.27,27.09,27.09,0,0,0-10.9,2.84,11.72,11.72,0,0,0-3.34,2.77A8.46,8.46,0,0,0,27,35.24m16.81-9.8h0l-.12.46h0l.12-.46m-3.41-1.06a24.65,24.65,0,0,0-5.12.62,17.61,17.61,0,0,0-6.2,2.55,11.17,11.17,0,0,0-4.29,5.21,3.21,3.21,0,0,0-.22,1.16,2.61,2.61,0,0,0,.75,1.86,2.77,2.77,0,0,0,2,.77h0a.94.94,0,0,0,.92-.8h0a7,7,0,0,1,1.64-3.38,10.49,10.49,0,0,1,3-2.46c3.64-2,8.31-2.73,12.55-2.77a.93.93,0,0,0,.29-1.81h0c-.56-.19-1.13-.37-1.7-.51h0a14.31,14.31,0,0,0-3.58-.43"/><path class="cls-8" d="M84.84,25.47a14.68,14.68,0,0,0-4.43.62l1.14,0a26.08,26.08,0,0,1,10,1.77,11.75,11.75,0,0,1,3.6,2.42,8.47,8.47,0,0,1,2.22,3.49,1.4,1.4,0,0,0,.7-.4,1.26,1.26,0,0,0,.33-.88,1.88,1.88,0,0,0-.21-.84,9.9,9.9,0,0,0-4.25-4.2A16.34,16.34,0,0,0,88,25.67a28.31,28.31,0,0,0-3.13-.19"/><path class="cls-8" d="M80.41,26.09a14.68,14.68,0,0,1,4.43-.62,28.31,28.31,0,0,1,3.13.19,16.34,16.34,0,0,1,5.95,1.78,9.9,9.9,0,0,1,4.25,4.2,1.88,1.88,0,0,1,.21.84,1.26,1.26,0,0,1-.33.88,1.4,1.4,0,0,1-.7.4,8.47,8.47,0,0,0-2.22-3.49,11.75,11.75,0,0,0-3.6-2.42,26.08,26.08,0,0,0-10-1.77l-1.14,0m4.43-1.9a15.54,15.54,0,0,0-5.4.87h0c-.56.2-1.11.43-1.64.68h0a.94.94,0,0,0-.41.36.93.93,0,0,0-.13.48,1,1,0,0,0,.24.63.92.92,0,0,0,.68.31h.1c1.06-.09,2.16-.15,3.27-.15A24.87,24.87,0,0,1,91,29a10.47,10.47,0,0,1,3.19,2.15,7,7,0,0,1,2,3.2.93.93,0,0,0,.91.71h.1A2.81,2.81,0,0,0,99,34.23a2.56,2.56,0,0,0,.67-1.75,3.16,3.16,0,0,0-.35-1.42,11.18,11.18,0,0,0-4.78-4.76,17.67,17.67,0,0,0-6.42-1.92,29.86,29.86,0,0,0-3.27-.2"/><polyline class="cls-9" points="114.81 54.87 114.86 54.91 114.81 54.87"/><polyline class="cls-9" points="122.54 49.85 122.6 49.88 122.66 49.93 122.6 49.88 122.54 49.85"/><polyline class="cls-9" points="123.63 56.98 123.71 57.08 123.78 57.15 123.63 56.98"/><path class="cls-10" d="M78.56,37.54c-1.76,0-3,1-3.74,4.22a13,13,0,0,0,3.3,12.38h0a6.7,6.7,0,0,1,6.47-5.66h.09a6.23,6.23,0,0,1,1.5.19h0a5.39,5.39,0,0,1,2.94,1.81h0l.16,0A2.3,2.3,0,0,1,91,53.28a2.26,2.26,0,0,1-.54,1q0,.16,0,.32a9,9,0,0,1-.57,3.07c4.87-.78,8.58-4.32,9.93-9.88,1.89-7.79-3.75-5.56-11.44-7.42-4.19-1-7.45-2.85-9.8-2.85"/><path class="cls-10" d="M47.08,37.85c-2,0-4.89,2.31-9.58,3.72-5.81,1.75-12.48.15-10.36,6.81,1.48,4.63,4.77,7.64,8.8,8.45l-.06-.16a5.82,5.82,0,0,1,5.28-8h.11a6.06,6.06,0,0,1,1.13.11l.16,0h0a2.6,2.6,0,0,1,.51-.23h0l.14,0a2.56,2.56,0,0,1,.63-.09h.08a2.57,2.57,0,0,1,2.39,1.77h0a2.52,2.52,0,0,1,.13.78,2.64,2.64,0,0,1,0,.4,6,6,0,0,1,.81,2h0A11.8,11.8,0,0,0,50,41.21c-.77-2.48-1.66-3.36-2.89-3.36"/><path class="cls-7" d="M46.4,51.42a2.57,2.57,0,0,1-1.28,1.85,4.27,4.27,0,0,1,.24,1.44q0,.1,0,.21a11.77,11.77,0,0,0,1.85-1.48h0a6,6,0,0,0-.81-2h0"/><path class="cls-7" d="M41.26,48.68h-.09a5.82,5.82,0,0,0-5.28,8l.06.16a11.39,11.39,0,0,0,2.24.22h.16a3.9,3.9,0,0,1-.57-.92q-.08-.18-.14-.36a3.88,3.88,0,0,1,3.6-5.12h.08a2.58,2.58,0,0,1,1.23-1.84l-.16,0a6.06,6.06,0,0,0-1.13-.11h0"/><path class="cls-7" d="M88.93,55h0m-45-1.44h0m43.23-2.48a2.23,2.23,0,0,0-.25.29,2.23,2.23,0,0,1,.25-.29M41.3,51.06a2.52,2.52,0,0,0,.13.77,2.57,2.57,0,0,0,2.39,1.77,2.57,2.57,0,0,1-2.39-1.77,2.52,2.52,0,0,1-.13-.77m43.23-.35a4.2,4.2,0,0,1,1,.13,4.2,4.2,0,0,0-1-.13m0,0h0m4.26-.26h0m0,0h0"/><path class="cls-11" d="M41.3,50.66h-.06a3.88,3.88,0,0,0-3.6,5.12q.06.18.14.36a3.9,3.9,0,0,0,.57.92,12.94,12.94,0,0,0,3.82-.64,13.26,13.26,0,0,0,3.19-1.5q0-.1,0-.21a4.27,4.27,0,0,0-.24-1.44h0a2.55,2.55,0,0,1-.46.2h0a2.58,2.58,0,0,1-.77.13h-.08a2.57,2.57,0,0,1-2.39-1.77,2.52,2.52,0,0,1-.13-.77,2.63,2.63,0,0,1,0-.4h0"/><path class="cls-12" d="M43.86,48.46h0a2.56,2.56,0,0,0-.63.09l-.14,0h0a2.6,2.6,0,0,0-.51.23l.31.07a5.9,5.9,0,0,1,3.53,2.53h0a2.64,2.64,0,0,0,0-.4,2.52,2.52,0,0,0-.13-.78h0a2.57,2.57,0,0,0-2.39-1.77h-.05"/><path class="cls-12" d="M42.56,48.82h0a2.58,2.58,0,0,0-1.23,1.84,4,4,0,0,1,1.06.14,3.88,3.88,0,0,1,2.74,2.47h0a2.57,2.57,0,0,0,1.28-1.85h0a5.9,5.9,0,0,0-3.53-2.53l-.31-.07h0"/><path class="cls-12" d="M41.32,50.66h0a2.63,2.63,0,0,0,0,.4,2.52,2.52,0,0,0,.13.77,2.57,2.57,0,0,0,2.39,1.77h.08a2.58,2.58,0,0,0,.77-.13h0a2.55,2.55,0,0,0,.46-.2h0a3.88,3.88,0,0,0-2.74-2.47,4,4,0,0,0-1.06-.14h0"/><path class="cls-7" d="M84.66,48.48h-.07a6.7,6.7,0,0,0-6.47,5.66h0a12.15,12.15,0,0,0,1.94,1.55c0-.13,0-.26,0-.39s0-.16,0-.24a4.53,4.53,0,0,1,4.36-4.35h.12a4.2,4.2,0,0,1,1,.13h0a3.82,3.82,0,0,1,1.33.61h0l0,0a2.23,2.23,0,0,1,.25-.29,2.31,2.31,0,0,1,1.52-.67h.31l.16,0a5.39,5.39,0,0,0-2.94-1.81h0a6.23,6.23,0,0,0-1.5-.19h0"/><path class="cls-7" d="M90.44,54.31l-.08.09a2.31,2.31,0,0,1-1.43.65h-.27l-.27,0h0a6,6,0,0,1-.84,2.83h.22a13.45,13.45,0,0,0,2.11-.17,9,9,0,0,0,.57-3.07q0-.16,0-.32h0"/><path class="cls-11" d="M84.5,50.71h-.1A4.53,4.53,0,0,0,80,55.06c0,.08,0,.16,0,.24s0,.26,0,.39a13.1,13.1,0,0,0,4,1.7,15.77,15.77,0,0,0,3.5.47A6,6,0,0,0,88.38,55l-.18,0a2.3,2.3,0,0,1-1.36-3.55,3.82,3.82,0,0,0-1.33-.61h0a4.2,4.2,0,0,0-1-.13h0"/><path class="cls-12" d="M89.11,50.48a6.33,6.33,0,0,1,1.33,3.83h0a2.26,2.26,0,0,0,.54-1,2.3,2.3,0,0,0-1.71-2.78l-.16,0"/><path class="cls-12" d="M88.74,50.45h-.11a2.31,2.31,0,0,0-1.52.67,2.23,2.23,0,0,0-.25.29l0,0a4,4,0,0,1,1.54,3.39c0,.07,0,.13,0,.2h0l.27,0h.27a2.31,2.31,0,0,0,1.43-.65l.08-.09h0a6.33,6.33,0,0,0-1.33-3.83h0l-.16,0h-.21"/><path class="cls-12" d="M86.85,51.44h0A2.3,2.3,0,0,0,88.21,55l.18,0c0-.07,0-.13,0-.2a4,4,0,0,0-1.54-3.39h0"/><path class="cls-13" d="M113.91,64.83a4.48,4.48,0,0,0-1.41.26c-2.69.9-3.41,3.29-2.77,6,.46,1.91,1.54,2.81,3.13,2.81a5.86,5.86,0,0,0,1.58-.24c2.24-.63,3.78-1.69,3.42-3.25-1-2.95-1.65-5.53-4-5.53"/><path class="cls-13" d="M111,57.17h-.08c-.95.75-2.15,1.38-1.66,3.09.36,1.24,1,2,2.09,2a3.35,3.35,0,0,0,.81-.11c1.42-.35,2.54-1,2.15-2.71s-1.58-2.23-3.3-2.23"/><path class="cls-13" d="M112.53,76.46a2.8,2.8,0,0,0-.68.09,2.51,2.51,0,0,0-1.91,3.11,2.17,2.17,0,0,0,2.33,1.66,4.43,4.43,0,0,0,.81-.08,2.19,2.19,0,0,0,1.5-3,2.09,2.09,0,0,0-2.05-1.81"/><path class="cls-13" d="M15.83,64.63c-3,0-3.79,3.34-5.12,7.17-.46,2,1.53,3.39,4.44,4.21a7.59,7.59,0,0,0,2,.32c2.06,0,3.47-1.16,4.06-3.64.83-3.44-.11-6.55-3.6-7.71a5.8,5.8,0,0,0-1.83-.34"/><path class="cls-13" d="M16.27,53.79c-2.24,0-3.81.77-4.29,2.9s.94,3.06,2.78,3.52a4.36,4.36,0,0,0,1,.14c1.44,0,2.25-.95,2.71-2.55.64-2.21-.92-3-2.15-4h-.1"/><path class="cls-14" d="M36,85a19.15,19.15,0,0,0-4.34.65c-.46.11-1,.23-1.5.38a3.33,3.33,0,0,1-.49.85,2.89,2.89,0,0,1-.43.43,2.43,2.43,0,0,1-.88.46,4.38,4.38,0,0,0-.65.21l.15-.1-.14.09a3.93,3.93,0,0,0-.34.24,6.07,6.07,0,0,0-.52.65l-.13.18a.63.63,0,0,1-.06.15,13.47,13.47,0,0,0,0,2.69,1.76,1.76,0,0,0,1.84,1.69,2,2,0,0,0,.4,0,1.52,1.52,0,0,0,1.28-1.65c0-.68-.32-1.62.13-2.16s1.75-.57,2.23-.68a11.49,11.49,0,0,1,2.67-.37A7.1,7.1,0,0,1,39,89.83a31.82,31.82,0,0,1,4.66,3.43,4.52,4.52,0,0,0,3.81,1.18c3.38-.52,4.15-4.81,7.46-4.81h.25c2,.13,2.89,1.82,4.47,2.87A11.66,11.66,0,0,0,64,94.4a5.17,5.17,0,0,0,.81.07,3.71,3.71,0,0,0,2.36-.83c.45-.34.75-.9,1.19-1.22A4.41,4.41,0,0,1,71,91.57a8.27,8.27,0,0,1,1.82.24c2.11.48,3.11,1.64,4.61,3a5.09,5.09,0,0,0,3.43,1.52l.45,0c4-.44,6.44-4.92,10.68-5.14h.47a8.14,8.14,0,0,1,5,1.74,13.84,13.84,0,0,1,1.09.88l.21.19a25.39,25.39,0,0,1,2.5-1.58,4.88,4.88,0,0,1,.64-.29l-.24-.23a15.55,15.55,0,0,0-4.95-3.49,10.81,10.81,0,0,0-3.88-.73,15.22,15.22,0,0,0-8.23,2.9l-.22.14c-.75.5-2.06,1.8-3,2a2.22,2.22,0,0,1-.38,0c-1.34,0-1.95-1.34-2.82-2.16a6.67,6.67,0,0,0-.52-.44,11.23,11.23,0,0,0-4.91-1.89A12.23,12.23,0,0,0,70.77,88a7.22,7.22,0,0,0-3.6.85,3.24,3.24,0,0,0-.61.48l-.27.26a5.8,5.8,0,0,1-.83.74,2,2,0,0,1-1.12.39,4.22,4.22,0,0,1-1.87-.69A7.06,7.06,0,0,1,61,89a12.48,12.48,0,0,0-2.85-2.35,6.74,6.74,0,0,0-2.91-.56,13.1,13.1,0,0,0-2.08.18,5.43,5.43,0,0,0-3.5,2q-.22.25-.45.54c-.77,1-1.21,2-2.17,2a2.93,2.93,0,0,1-1.47-.53c-.8-.49-1.48-1.44-2.3-2l-.68-.46a16.38,16.38,0,0,0-4.89-2.56A7.48,7.48,0,0,0,36,85"/></g></g></svg>