<svg xmlns="http://www.w3.org/2000/svg" viewBox="0 0 126.05 130.68"><defs><style>.cls-1{isolation:isolate;}.cls-2{fill:#05ab8c;}.cls-3,.cls-6{fill:#231f20;}.cls-3{stroke:#231f20;stroke-miterlimit:10;stroke-width:1.29px;opacity:0.3;mix-blend-mode:multiply;}.cls-4{fill:#944f90;}.cls-5{fill:#f8f9f4;}.cls-7{fill:#fff;}.cls-8{fill:#b6dad0;opacity:0.6;}.cls-9{fill:#241d1f;}</style></defs><title>ResultSadMediumOn</title><g class="cls-1"><g id="Layer_2" data-name="Layer 2"><g id="moosh"><path class="cls-2" d="M0,67.66C0,32.85,22.86,0,62.89,0,105.6,0,126,32.85,126,67.66a63,63,0,1,1-126,0Z"/><path class="cls-3" d="M43.79,25.44a18.26,18.26,0,0,0-8.4.19c-4.15.88-8.43,3.21-10,7.36a2,2,0,0,0,1.91,2.92.29.29,0,0,0,.29-.25c.37-2.64,2.73-5.12,4.94-6.31,3.78-2,8.54-2.8,12.85-2.85a.29.29,0,0,0,.09-.56Q44.62,25.65,43.79,25.44Z"/><path class="cls-3" d="M79.67,25.66A18.26,18.26,0,0,1,88,25c4.22.46,8.7,2.36,10.7,6.33a2,2,0,0,1-1.61,3.09.29.29,0,0,1-.31-.22c-.63-2.59-3.22-4.82-5.53-5.79-4-1.67-8.78-1.95-13.07-1.57a.29.29,0,0,1-.15-.54Q78.86,26,79.67,25.66Z"/><path class="cls-4" d="M114.81,54.87l0,0Z"/><path class="cls-4" d="M122.6,49.89l-.06,0,.06,0,.06,0Z"/><path class="cls-4" d="M123.71,57.08l-.08-.09.14.17Z"/><path class="cls-5" d="M99.8,47.82c1.89-7.79-3.75-5.56-11.44-7.42C81,38.62,76.53,34.33,74.82,41.76a13,13,0,0,0,3.3,12.39,6.65,6.65,0,0,1,8.06-5.47,5.38,5.38,0,0,1,2.94,1.81l.16,0a2.3,2.3,0,0,1,1.17,3.8,8.93,8.93,0,0,1-.57,3.39C94.74,56.91,98.45,53.37,99.8,47.82Z"/><path class="cls-5" d="M37.51,41.57c-5.81,1.75-12.48.15-10.36,6.81,1.48,4.63,4.77,7.64,8.8,8.45a5.82,5.82,0,0,1,6.61-8,2.57,2.57,0,0,1,3.85,2.6,6,6,0,0,1,.81,2A11.8,11.8,0,0,0,50,41.21C48,34.68,45.07,39.29,37.51,41.57Z"/><path class="cls-2" d="M46.4,51.42a2.57,2.57,0,0,1-1.28,1.85,4.25,4.25,0,0,1,.24,1.64,11.9,11.9,0,0,0,1.86-1.48A6,6,0,0,0,46.4,51.42Z"/><path class="cls-2" d="M37.78,56.14a3.88,3.88,0,0,1,3.54-5.48,2.57,2.57,0,0,1,1.23-1.84,5.82,5.82,0,0,0-6.61,8,11.38,11.38,0,0,0,2.4.22A3.94,3.94,0,0,1,37.78,56.14Z"/><path class="cls-6" d="M41.42,51.83a2.56,2.56,0,0,1-.1-1.17,3.88,3.88,0,0,0-3.54,5.48,3.94,3.94,0,0,0,.57.93,13,13,0,0,0,3.82-.64,13.34,13.34,0,0,0,3.19-1.5,4.25,4.25,0,0,0-.24-1.64,2.57,2.57,0,0,1-3.7-1.44Z"/><path class="cls-7" d="M46.4,51.42a2.57,2.57,0,0,0-3.85-2.6l.31.07A5.9,5.9,0,0,1,46.4,51.42Z"/><path class="cls-7" d="M41.32,50.66a4.09,4.09,0,0,1,1.06.14,3.88,3.88,0,0,1,2.74,2.47,2.57,2.57,0,0,0,1.28-1.85,5.9,5.9,0,0,0-3.53-2.53l-.31-.07A2.57,2.57,0,0,0,41.32,50.66Z"/><path class="cls-7" d="M42.38,50.8a4.09,4.09,0,0,0-1.06-.14,2.57,2.57,0,0,0,3.8,2.61A3.88,3.88,0,0,0,42.38,50.8Z"/><path class="cls-2" d="M80,55.06a4.49,4.49,0,0,1,5.48-4.23,3.83,3.83,0,0,1,1.33.61,2.3,2.3,0,0,1,2.26-1,5.38,5.38,0,0,0-2.94-1.81,6.65,6.65,0,0,0-8.06,5.47,12.18,12.18,0,0,0,1.94,1.55A4.44,4.44,0,0,1,80,55.06Z"/><path class="cls-2" d="M90.44,54.31a2.3,2.3,0,0,1-2.05.72,6,6,0,0,1-.84,2.83,13.27,13.27,0,0,0,2.33-.17A8.93,8.93,0,0,0,90.44,54.31Z"/><path class="cls-6" d="M86.5,52.22a2.3,2.3,0,0,1,.35-.78,3.83,3.83,0,0,0-1.33-.61,4.56,4.56,0,0,0-5.47,4.86,13.11,13.11,0,0,0,4,1.7,15.76,15.76,0,0,0,3.5.47A6,6,0,0,0,88.39,55l-.18,0A2.3,2.3,0,0,1,86.5,52.22Z"/><path class="cls-7" d="M90.44,54.31a2.3,2.3,0,0,0-1.17-3.8l-.16,0A6.33,6.33,0,0,1,90.44,54.31Z"/><path class="cls-7" d="M86.85,51.44A4.1,4.1,0,0,1,88.39,55a2.3,2.3,0,0,0,2.05-.72,6.33,6.33,0,0,0-1.33-3.83A2.3,2.3,0,0,0,86.85,51.44Z"/><path class="cls-7" d="M86.85,51.44A2.3,2.3,0,0,0,88.21,55l.18,0A4.1,4.1,0,0,0,86.85,51.44Z"/><path class="cls-8" d="M117.86,70.36c.36,1.56-1.18,2.61-3.42,3.25-2.45.69-4.11-.07-4.71-2.57-.64-2.66.08-5.05,2.78-6C116,63.92,116.65,66.89,117.86,70.36Z"/><path class="cls-8" d="M110.88,57.17c1.77,0,3,.57,3.39,2.23s-.72,2.36-2.15,2.71c-1.63.41-2.47-.35-2.9-1.86C108.73,58.55,109.93,57.93,110.88,57.17Z"/><path class="cls-8" d="M113.08,81.24c-1.37.25-2.77-.08-3.14-1.58a2.52,2.52,0,0,1,1.91-3.11,2.1,2.1,0,0,1,2.74,1.72A2.2,2.2,0,0,1,113.08,81.24Z"/><path class="cls-8" d="M10.71,71.8c-.46,2,1.53,3.39,4.44,4.21,3.18.9,5.33-.1,6.11-3.33.83-3.44-.11-6.55-3.6-7.71C13.12,63.45,12.28,67.3,10.71,71.8Z"/><path class="cls-8" d="M16.37,53.79c-2.3,0-3.9.74-4.39,2.9s.94,3.06,2.78,3.52c2.12.53,3.2-.45,3.76-2.41C19.16,55.58,17.6,54.77,16.37,53.79Z"/><path class="cls-9" d="M101.68,91.9a15.55,15.55,0,0,0-4.95-3.49c-4.41-1.68-8.39-.27-12.11,2.16l-.22.14c-.75.5-2.06,1.8-3,2-1.61.28-2.25-1.24-3.2-2.12-.17-.16-.34-.3-.52-.44a11.19,11.19,0,0,0-4.91-1.89,8.6,8.6,0,0,0-5.65.66,3.28,3.28,0,0,0-.62.48h0l-.27.26a5.84,5.84,0,0,1-.83.74h0c-1.07.73-1.84.31-3-.3A7.08,7.08,0,0,1,61,89h0a12.51,12.51,0,0,0-2.85-2.35,8.77,8.77,0,0,0-5-.38,5.42,5.42,0,0,0-3.5,2c-.15.17-.3.35-.45.54-1.08,1.39-1.5,2.75-3.65,1.43-.8-.49-1.48-1.44-2.3-2l-.68-.46a16.44,16.44,0,0,0-4.89-2.56,14,14,0,0,0-6,.47c-.46.11-1,.23-1.5.38a3.33,3.33,0,0,1-.49.85,2.84,2.84,0,0,1-.43.43,2.46,2.46,0,0,1-.88.46,4.39,4.39,0,0,0-.65.21q.29-.19,0,0a3.72,3.72,0,0,0-.34.24,6.36,6.36,0,0,0-.52.65l-.14.18a.58.58,0,0,1-.06.15,13.49,13.49,0,0,0,0,2.7A1.8,1.8,0,0,0,29,93.56a1.52,1.52,0,0,0,1.28-1.65c0-.68-.32-1.62.12-2.16s1.75-.56,2.23-.68c2.51-.6,4.21-.57,6.45.76a31.67,31.67,0,0,1,4.66,3.43,4.59,4.59,0,0,0,3.81,1.18c3.46-.53,4.19-5,7.71-4.8,2,.13,2.89,1.82,4.47,2.87A11.65,11.65,0,0,0,64,94.4a3.82,3.82,0,0,0,3.17-.76c.45-.34.74-.89,1.19-1.22a5.15,5.15,0,0,1,4.49-.61c2.11.48,3.11,1.64,4.61,3a4.91,4.91,0,0,0,3.88,1.5c4-.44,6.44-4.92,10.68-5.14a8.13,8.13,0,0,1,5.48,1.73,14,14,0,0,1,1.09.88l.21.19a25.17,25.17,0,0,1,2.5-1.58,4.86,4.86,0,0,1,.64-.29Z"/></g></g></g></svg>