<svg xmlns="http://www.w3.org/2000/svg" viewBox="0 0 73.15 75.84"><defs><style>.cls-1{isolation:isolate;}.cls-2{fill:#05ab8c;}.cls-3,.cls-6{fill:#231f20;}.cls-3{stroke:#231f20;stroke-miterlimit:10;stroke-width:0.75px;opacity:0.3;mix-blend-mode:multiply;}.cls-4{fill:#944f90;}.cls-5{fill:#f8f9f4;}.cls-7{fill:#fff;}.cls-8{fill:#b6dad0;opacity:0.6;}.cls-9{fill:#241d1f;}</style></defs><title>ResultSadSmallOn</title><g class="cls-1"><g id="Layer_2" data-name="Layer 2"><g id="text"><path class="cls-2" d="M0,39.27C0,19.07,13.27,0,36.5,0,61.28,0,73.15,19.07,73.15,39.27A36.58,36.58,0,0,1,0,39.27Z"/><path class="cls-3" d="M25.41,14.76a10.6,10.6,0,0,0-4.88.11c-2.41.51-4.89,1.86-5.82,4.27a1.17,1.17,0,0,0,1.11,1.69.17.17,0,0,0,.17-.15A5.57,5.57,0,0,1,18.86,17a16.42,16.42,0,0,1,7.46-1.65.17.17,0,0,0,.05-.32Q25.9,14.89,25.41,14.76Z"/><path class="cls-3" d="M46.23,14.89a10.6,10.6,0,0,1,4.86-.37c2.45.27,5.05,1.37,6.21,3.67a1.17,1.17,0,0,1-.94,1.8.17.17,0,0,1-.18-.13A5.57,5.57,0,0,0,53,16.5a16.42,16.42,0,0,0-7.58-.91.17.17,0,0,1-.09-.32Q45.76,15.06,46.23,14.89Z"/><path class="cls-4" d="M66.63,31.84l0,0Z"/><path class="cls-4" d="M71.15,29l0,0,0,0,0,0Z"/><path class="cls-4" d="M71.8,33.13l0-.06.08.1Z"/><path class="cls-5" d="M57.92,27.75c1.1-4.52-2.17-3.23-6.64-4.31-4.26-1-6.86-3.52-7.86.79a7.52,7.52,0,0,0,1.91,7.19A3.86,3.86,0,0,1,50,28.25a3.12,3.12,0,0,1,1.7,1l.09,0a1.34,1.34,0,0,1,.68,2.2,5.18,5.18,0,0,1-.33,2A7.1,7.1,0,0,0,57.92,27.75Z"/><path class="cls-5" d="M21.77,24.13c-3.37,1-7.24.09-6,4A6.85,6.85,0,0,0,20.86,33a3.38,3.38,0,0,1,3.84-4.65,1.49,1.49,0,0,1,2.23,1.51A3.48,3.48,0,0,1,27.4,31a6.85,6.85,0,0,0,1.6-7.1C27.83,20.13,26.16,22.8,21.77,24.13Z"/><path class="cls-2" d="M26.93,29.84a1.49,1.49,0,0,1-.74,1.08,2.47,2.47,0,0,1,.14,1A6.91,6.91,0,0,0,27.4,31,3.48,3.48,0,0,0,26.93,29.84Z"/><path class="cls-2" d="M21.92,32.58A2.25,2.25,0,0,1,24,29.4a1.49,1.49,0,0,1,.72-1.07A3.38,3.38,0,0,0,20.86,33a6.6,6.6,0,0,0,1.39.13A2.29,2.29,0,0,1,21.92,32.58Z"/><path class="cls-6" d="M24,30.08A1.48,1.48,0,0,1,24,29.4a2.25,2.25,0,0,0-2.06,3.18,2.29,2.29,0,0,0,.33.54,7.56,7.56,0,0,0,2.21-.37,7.74,7.74,0,0,0,1.85-.87,2.47,2.47,0,0,0-.14-1A1.49,1.49,0,0,1,24,30.08Z"/><path class="cls-7" d="M26.93,29.84a1.49,1.49,0,0,0-2.23-1.51l.18,0A3.42,3.42,0,0,1,26.93,29.84Z"/><path class="cls-7" d="M24,29.4a2.37,2.37,0,0,1,.61.08,2.25,2.25,0,0,1,1.59,1.43,1.49,1.49,0,0,0,.74-1.08,3.42,3.42,0,0,0-2.05-1.47l-.18,0A1.49,1.49,0,0,0,24,29.4Z"/><path class="cls-7" d="M24.6,29.48A2.37,2.37,0,0,0,24,29.4a1.49,1.49,0,0,0,2.2,1.52A2.25,2.25,0,0,0,24.6,29.48Z"/><path class="cls-2" d="M46.45,32a2.6,2.6,0,0,1,3.18-2.45,2.22,2.22,0,0,1,.77.35,1.34,1.34,0,0,1,1.31-.56,3.12,3.12,0,0,0-1.7-1,3.86,3.86,0,0,0-4.68,3.18,7.07,7.07,0,0,0,1.13.9A2.58,2.58,0,0,1,46.45,32Z"/><path class="cls-2" d="M52.49,31.52a1.34,1.34,0,0,1-1.19.42,3.5,3.5,0,0,1-.49,1.65,7.7,7.7,0,0,0,1.35-.1A5.18,5.18,0,0,0,52.49,31.52Z"/><path class="cls-6" d="M50.2,30.3a1.33,1.33,0,0,1,.2-.45,2.22,2.22,0,0,0-.77-.35,2.65,2.65,0,0,0-3.17,2.82,7.61,7.61,0,0,0,2.31,1,9.14,9.14,0,0,0,2,.27,3.5,3.5,0,0,0,.49-1.65l-.1,0A1.34,1.34,0,0,1,50.2,30.3Z"/><path class="cls-7" d="M52.49,31.52a1.34,1.34,0,0,0-.68-2.2l-.09,0A3.68,3.68,0,0,1,52.49,31.52Z"/><path class="cls-7" d="M50.4,29.85a2.38,2.38,0,0,1,.89,2.08,1.34,1.34,0,0,0,1.19-.42,3.68,3.68,0,0,0-.77-2.22A1.34,1.34,0,0,0,50.4,29.85Z"/><path class="cls-7" d="M50.4,29.85a1.34,1.34,0,0,0,.79,2.06l.1,0A2.38,2.38,0,0,0,50.4,29.85Z"/><path class="cls-8" d="M68.4,40.84c.21.9-.69,1.52-2,1.89s-2.39,0-2.74-1.49,0-2.93,1.61-3.45C67.32,37.1,67.7,38.82,68.4,40.84Z"/><path class="cls-8" d="M64.35,33.18c1,0,1.75.33,2,1.3s-.42,1.37-1.25,1.57-1.43-.2-1.68-1.08S63.8,33.62,64.35,33.18Z"/><path class="cls-8" d="M65.63,47.15c-.8.15-1.61,0-1.82-.92a1.46,1.46,0,0,1,1.11-1.8,1.22,1.22,0,0,1,1.59,1A1.27,1.27,0,0,1,65.63,47.15Z"/><path class="cls-8" d="M6.22,41.67c-.27,1.17.89,2,2.58,2.44,1.85.52,3.1-.06,3.55-1.93s-.06-3.8-2.09-4.48C7.61,36.83,7.12,39.06,6.22,41.67Z"/><path class="cls-8" d="M9.5,31.22c-1.33,0-2.26.43-2.55,1.68s.54,1.77,1.62,2c1.23.31,1.85-.26,2.18-1.4S10.21,31.79,9.5,31.22Z"/><path class="cls-9" d="M59,53.33a9,9,0,0,0-2.87-2c-2.56-1-4.87-.15-7,1.26l-.13.08c-.44.29-1.19,1-1.71,1.14-.94.16-1.31-.72-1.86-1.23l-.3-.25a6.5,6.5,0,0,0-2.85-1.09,5,5,0,0,0-3.28.38,1.9,1.9,0,0,0-.36.28h0l-.16.15a3.39,3.39,0,0,1-.48.43h0c-.62.42-1.07.18-1.73-.17a4.11,4.11,0,0,1-.84-.62h0a7.26,7.26,0,0,0-1.65-1.36,5.09,5.09,0,0,0-2.9-.22,3.15,3.15,0,0,0-2,1.15l-.26.31c-.63.8-.87,1.6-2.12.83-.47-.29-.86-.83-1.33-1.15l-.4-.27a9.54,9.54,0,0,0-2.84-1.49,8.1,8.1,0,0,0-3.5.27c-.27.06-.57.14-.87.22a1.93,1.93,0,0,1-.28.49,1.65,1.65,0,0,1-.25.25,1.43,1.43,0,0,1-.51.27,2.55,2.55,0,0,0-.38.12h0a2.16,2.16,0,0,0-.2.14,3.69,3.69,0,0,0-.3.38l-.08.11a.34.34,0,0,1,0,.08,7.83,7.83,0,0,0,0,1.56,1,1,0,0,0,1.3,1,.88.88,0,0,0,.74-1c0-.4-.19-.94.07-1.25s1-.33,1.29-.39a4.4,4.4,0,0,1,3.74.44,18.38,18.38,0,0,1,2.7,2,2.67,2.67,0,0,0,2.21.68C29.57,54.5,30,51.89,32,52c1.18.07,1.68,1.06,2.59,1.66a6.76,6.76,0,0,0,2.49,1.1A2.22,2.22,0,0,0,39,54.34c.26-.2.43-.52.69-.71a3,3,0,0,1,2.61-.35A5.53,5.53,0,0,1,44.94,55a2.85,2.85,0,0,0,2.25.87c2.33-.25,3.74-2.86,6.2-3a4.72,4.72,0,0,1,3.18,1,8.1,8.1,0,0,1,.63.51l.12.11a14.61,14.61,0,0,1,1.45-.92,2.82,2.82,0,0,1,.37-.17Z"/></g></g></g></svg>