<svg xmlns="http://www.w3.org/2000/svg" viewBox="0 0 126.05 130.68"><defs><style>.cls-1{isolation:isolate;}.cls-2{fill:#05ab8c;}.cls-3{fill:#f8f9f4;}.cls-4,.cls-8{fill:#231f20;}.cls-5{fill:#fff;}.cls-6{fill:#b6dad0;opacity:0.6;}.cls-7{fill:#241d1f;}.cls-8{stroke:#231f20;stroke-miterlimit:10;stroke-width:1.29px;opacity:0.3;mix-blend-mode:multiply;}</style></defs><title>ResultNeutralMediumOn</title><g class="cls-1"><g id="Layer_2" data-name="Layer 2"><g id="moosh"><path class="cls-2" d="M0,67.66C0,32.85,22.86,0,62.89,0,105.6,0,126,32.85,126,67.66a63,63,0,1,1-126,0Z"/><path class="cls-3" d="M99.26,50.72c0,7.84-5.27,13-13.11,13-7.21-.05-12.54-5.59-12.59-13.07s5.31-8.75,12.85-8.72C94.33,41.92,99.3,42.71,99.26,50.72Z"/><path class="cls-3" d="M39.57,62.76c-7,0-11.83-5.1-11.77-12.31.05-7,4.81-10.62,10.88-10.48,7.9.19,13.16,3.93,13,10.76C51.61,57.81,46.55,62.79,39.57,62.76Z"/><path class="cls-2" d="M42.59,49.14a5.83,5.83,0,0,0-9,5.46,6.3,6.3,0,0,0,4,5.21C44.16,62.19,48.43,53,42.59,49.14Z"/><path class="cls-4" d="M41.53,50.8a3.89,3.89,0,0,0-6,3.64,4.2,4.2,0,0,0,2.69,3.47C42.58,59.51,45.42,53.36,41.53,50.8Z"/><circle class="cls-5" cx="42.87" cy="51.48" r="2.57"/><path class="cls-2" d="M87.59,47.19a6.68,6.68,0,0,0-6.48,8,6.94,6.94,0,0,0,6.48,5.71C95.12,60.91,95.42,47.29,87.59,47.19Z"/><path class="cls-4" d="M87.46,49.44a4.49,4.49,0,0,0-4.35,5.38,4.66,4.66,0,0,0,4.36,3.83C92.51,58.66,92.71,49.51,87.46,49.44Z"/><circle class="cls-5" cx="91.03" cy="50.57" r="2.3"/><path class="cls-6" d="M117.66,64.38c.36,1.56-1.18,2.61-3.42,3.25-2.45.69-4.11-.07-4.71-2.57-.64-2.66.08-5.05,2.78-6C115.8,57.94,116.45,60.91,117.66,64.38Z"/><path class="cls-6" d="M110.68,51.19c1.77,0,3,.57,3.39,2.23s-.72,2.36-2.15,2.71c-1.63.41-2.47-.35-2.9-1.86C108.53,52.57,109.73,51.94,110.68,51.19Z"/><path class="cls-6" d="M112.88,75.25c-1.37.25-2.77-.08-3.14-1.58a2.52,2.52,0,0,1,1.91-3.11,2.1,2.1,0,0,1,2.74,1.72A2.2,2.2,0,0,1,112.88,75.25Z"/><path class="cls-6" d="M10.71,66.13c-.46,2,1.53,3.39,4.44,4.21,3.18.9,5.33-.1,6.11-3.33.83-3.44-.11-6.55-3.6-7.71C13.12,57.78,12.28,61.63,10.71,66.13Z"/><path class="cls-6" d="M19.76,49c-2.3,0-3.9.74-4.39,2.9s.94,3.06,2.78,3.52c2.12.53,3.2-.45,3.76-2.41C22.55,50.82,21,50,19.76,49Z"/><path class="cls-7" d="M97.75,96.62,98.17,95a14.32,14.32,0,0,0-1.94-.44,22.8,22.8,0,0,0-2.69.29c-1.1,0-2.2-.37-3.32-.39-5-.1-10,0-15,0H63.88a37.89,37.89,0,0,1-9,.63c-1.76-.11-3.5-.4-5.24-.63H38.81c-4.42.27-8.83.61-13.26.68a2.08,2.08,0,0,0-.44,1.67,1.37,1.37,0,0,1,.35,0c6.22,0,12.44.36,18.66.23,2.76-.06,5.48-.1,8.23.11s5.36.51,8.05.54a40.18,40.18,0,0,0,8-.95A33.37,33.37,0,0,1,76.33,96,106.65,106.65,0,0,1,92.73,98a8,8,0,0,0,2.87.33c.71-.13,1.09-.75,1.69-1.11a4,4,0,0,1,.42-.22A1.13,1.13,0,0,1,97.75,96.62Z"/><path class="cls-8" d="M50.73,28.35a4.48,4.48,0,0,0-2.79-1.14c-.82-.07-1.62-.32-2.44-.35a9,9,0,0,1-.94,0,3.25,3.25,0,0,1-.6-.15l-4.11,0c-4.85.21-9.69.58-14.52,1a2,2,0,0,0,1.86,2.53c4,0,8,0,12,0a16.53,16.53,0,0,1,2.55,0c.72.11,1.38.47,2.1.59s1.53.07,2.32.22c.44.09.88.1,1.32.15a1.5,1.5,0,0,0,.32,0l.13,0C49.88,32.81,52.63,30,50.73,28.35Z"/><path class="cls-8" d="M76.53,32H80c1.16-.15,2.32-.33,3.49-.49a59.41,59.41,0,0,1,7.79-.5,32.33,32.33,0,0,1,8,.59c.48.12,1,.24,1.43.38a2.14,2.14,0,0,0,.16-3.09,37.46,37.46,0,0,0-6-.65c-6.36-.27-12.73-.1-19.09-.07C74,28.89,74.24,32,76.53,32Z"/></g></g></g></svg>