<svg xmlns="http://www.w3.org/2000/svg" viewBox="0 0 73.15 75.84"><defs><style>.cls-1{isolation:isolate;}.cls-2{fill:#05ab8c;}.cls-3{fill:#f8f9f4;}.cls-4,.cls-8{fill:#231f20;}.cls-5{fill:#fff;}.cls-6{fill:#b6dad0;opacity:0.6;}.cls-7{fill:#241d1f;}.cls-8{stroke:#231f20;stroke-miterlimit:10;stroke-width:0.75px;opacity:0.3;mix-blend-mode:multiply;}</style></defs><title>ResultNeutralSmallOn</title><g class="cls-1"><g id="Layer_2" data-name="Layer 2"><g id="text"><path class="cls-2" d="M0,39.27C0,19.07,13.27,0,36.5,0,61.28,0,73.15,19.07,73.15,39.27A36.58,36.58,0,0,1,0,39.27Z"/><path class="cls-3" d="M57.61,29.43A7.13,7.13,0,0,1,50,37a7.3,7.3,0,0,1-7.31-7.59c0-4.43,3.08-5.08,7.46-5.06C54.74,24.33,57.63,24.78,57.61,29.43Z"/><path class="cls-3" d="M23,36.42c-4.06,0-6.87-3-6.83-7.14s2.79-6.17,6.31-6.08c4.58.11,7.63,2.28,7.57,6.24A6.8,6.8,0,0,1,23,36.42Z"/><path class="cls-2" d="M24.72,28.52a3.38,3.38,0,0,0-5.25,3.17,3.66,3.66,0,0,0,2.34,3C25.63,36.09,28.1,30.74,24.72,28.52Z"/><path class="cls-4" d="M24.1,29.48a2.26,2.26,0,0,0-3.5,2.11,2.44,2.44,0,0,0,1.56,2C24.71,34.53,26.36,31,24.1,29.48Z"/><circle class="cls-5" cx="24.88" cy="29.88" r="1.49"/><path class="cls-2" d="M50.84,27.39A3.88,3.88,0,0,0,47.08,32a4,4,0,0,0,3.76,3.31C55.2,35.35,55.37,27.44,50.84,27.39Z"/><path class="cls-4" d="M50.76,28.69a2.6,2.6,0,0,0-2.52,3.12A2.71,2.71,0,0,0,50.76,34C53.69,34,53.8,28.73,50.76,28.69Z"/><circle class="cls-5" cx="52.83" cy="29.35" r="1.34"/><path class="cls-6" d="M68.28,37.36c.21.9-.69,1.52-2,1.89s-2.39,0-2.74-1.49,0-2.93,1.61-3.45C67.21,33.63,67.58,35.35,68.28,37.36Z"/><path class="cls-6" d="M64.23,29.71c1,0,1.75.33,2,1.3s-.42,1.37-1.25,1.57-1.43-.2-1.68-1.08S63.68,30.14,64.23,29.71Z"/><path class="cls-6" d="M65.51,43.67c-.8.15-1.61,0-1.82-.92A1.46,1.46,0,0,1,64.8,41a1.22,1.22,0,0,1,1.59,1A1.27,1.27,0,0,1,65.51,43.67Z"/><path class="cls-6" d="M6.22,38.38c-.27,1.17.89,2,2.58,2.44,1.85.52,3.1-.06,3.55-1.93s-.06-3.8-2.09-4.48C7.61,33.53,7.12,35.76,6.22,38.38Z"/><path class="cls-6" d="M11.47,28.45c-1.33,0-2.26.43-2.55,1.68s.54,1.77,1.62,2c1.23.31,1.85-.26,2.18-1.4S12.18,29,11.47,28.45Z"/><path class="cls-7" d="M56.73,56.07l.24-.92a8.31,8.31,0,0,0-1.13-.26,13.23,13.23,0,0,0-1.56.17c-.64,0-1.28-.21-1.92-.23-2.91-.06-5.82,0-8.73,0H37.07a22,22,0,0,1-5.24.37c-1-.06-2-.23-3-.37H22.52c-2.56.16-5.13.35-7.7.39a1.21,1.21,0,0,0-.26,1l.2,0c3.61,0,7.22.21,10.83.13,1.6,0,3.18-.06,4.78.06s3.11.3,4.67.31a23.32,23.32,0,0,0,4.64-.55,19.36,19.36,0,0,1,4.6-.39,61.9,61.9,0,0,1,9.52,1.12,4.66,4.66,0,0,0,1.67.19c.41-.08.64-.43,1-.65l.24-.13A.66.66,0,0,1,56.73,56.07Z"/><path class="cls-8" d="M29.44,16.45a2.6,2.6,0,0,0-1.62-.66c-.47,0-.94-.19-1.41-.2a5.19,5.19,0,0,1-.55,0,1.88,1.88,0,0,1-.35-.09l-2.38,0c-2.81.12-5.62.34-8.43.55a1.13,1.13,0,0,0,1.08,1.47h7a9.59,9.59,0,0,1,1.48,0c.42.07.8.27,1.22.34s.89,0,1.34.13c.25.05.51.06.77.08h.19l.07,0C28.95,19,30.54,17.43,29.44,16.45Z"/><path class="cls-8" d="M44.41,18.6h2l2-.29A34.48,34.48,0,0,1,53,18a18.76,18.76,0,0,1,4.65.34l.83.22a1.24,1.24,0,0,0,.09-1.79,21.74,21.74,0,0,0-3.5-.38c-3.69-.16-7.39-.06-11.08,0A1.17,1.17,0,0,0,44.41,18.6Z"/></g></g></g></svg>