<svg xmlns="http://www.w3.org/2000/svg" viewBox="0 0 1308.33 469.38"><defs><style>.cls-1{fill:#fff;}.cls-2{fill:#cdc5d5;}</style></defs><title>logo</title><g id="Layer_2" data-name="Layer 2"><g id="text"><path class="cls-1" d="M143.9,227.1c-3.86-19.11-7.51-38.27-11.64-57.32-3.33-15.38-10.51-20.25-24.15-17.2C93.93,155.75,87,165.71,88.92,179c4.59,32,9.7,64,13,96.2,3.2,31.45-9,47-37,50.85-17.61,2.41-31-4.65-38.79-23.16-5.46-12.94-10-26.73-12-40.56C8.6,225.57,4.57,188.57.25,151.62c-.61-5.2,0-10.63.66-15.87,3.68-28.95,23.61-43.19,51.7-35.48,11.14,3.06,20.18,2.57,30.11-3.18,30.75-17.8,62.8-22.41,96.78-8.89,4,1.6,11.1-.81,15.15-3.65,21.44-15,45.08-22.1,71.06-22.29,38.6-.28,66.63,18.66,78.91,56.83,13.67,42.48,18.85,86.57,17.51,131.16-.67,22.34-11.76,34.86-32,40.13-21.83,5.68-40.49-4-46.14-26.16-5.46-21.42-8.63-43.43-12.84-65.18-3.29-17-6.22-34-10.1-50.82-3.24-14.09-10.63-18.11-24.4-14.73-14.6,3.58-20.47,11-17.3,24,9.84,40.21,16.37,80.83,15.44,122.32-.59,26.26-12.82,39.8-37.47,43.33-19.76,2.83-35.6-6-40.68-25.43-6-23.1-7.86-47.19-12.73-70.59Z"/><path class="cls-1" d="M1165.22,109.35c23.9,0,46.47-2,68.58.43,40.27,4.35,62.24,31.22,69.34,68.47,8,42,6.36,84.75-2.28,126.77-3,14.59-10,27.48-25.94,32.69-20.27,6.63-39.84-2.67-44.66-23.19-2.9-12.34-3-25.41-3.65-38.19-1.11-22.14-.93-44.36-2.61-66.44-2.27-29.77-24.7-44.63-50.48-34.71-7.34,2.82-13.86,1.74-13.92,10.48-.25,35.89,2.41,76.83.41,112.65-1.53,27.38-20.89,41.87-48.14,38.4-12.37-1.58-20.52-9.59-23.66-20.67-4.56-16.07-9.61-32.7-9.83-49.16-.77-56.72-.05-113.47,1.18-170.19.47-21.6,2.21-43.44,6.28-64.62,6.61-34.4,35.75-37.18,60.83-26.67,7.28,3.05,14.59,14.28,15.59,22.52,2.76,22.75,2.23,45.9,2.92,68.89C1165.36,102,1165.22,107.22,1165.22,109.35Z"/><path class="cls-1" d="M606.27,192c-.28,65.73-37.32,116.66-95,129.14C429.22,338.92,351.52,284.3,359.81,185c5.55-66.44,42.8-108.78,100.31-118.78C545,51.51,606.65,104.58,606.27,192Zm-72.14,5.31c.37-34.42-21.38-58.84-52.73-59.22-28.94-.35-48.51,20.84-48.77,52.78-.26,32.4,22.85,58.65,52,59.11C513,250.44,533.8,228.32,534.13,197.31Z"/><path class="cls-1" d="M964.05,342.47c-12.24-1.95-26.4-3.33-40.11-6.58-20.55-4.86-31.77-26.83-25.3-46.93,4-12.39,13.78-13.76,24.46-13.44s21.26,1.75,31.85,1.4c13.92-.47,23.81-8.47,23.61-18.66-.27-13.84-10.48-17-21.71-18.56-14-1.94-28.22-3.06-42-6.08-42.82-9.36-57.54-37.27-50.76-82,6.48-42.68,37.11-65.47,86.9-68.25,21.42-1.2,42.63.37,62.15,10.54,12.1,6.3,20.61,15.21,19.79,30.26-.87,15.92-11.74,26.93-27.64,25.72-9.58-.73-18.91-4.36-28.47-6-7.34-1.26-14.94-2.41-22.3-1.91-9.11.63-16.08,5.65-17.25,15.47-1.22,10.14,3.52,17.56,13.33,20.21,8,2.18,16.52,2.85,24.83,4,9.65,1.3,19.5,1.62,29,3.65,35,7.48,60.27,34.1,58.31,72.69-2,40.1-27.52,72.83-66.36,80.51C986.41,340.43,976.19,341,964.05,342.47Z"/><path class="cls-1" d="M858.19,190.15c-.28,65.73-37.32,116.66-95,129.14-82.09,17.78-159.79-36.84-151.5-136.09C617.27,116.77,654.53,74.42,712,64.42,796.87,49.67,858.57,102.74,858.19,190.15Zm-72.14,5.31c.37-34.42-21.38-58.84-52.73-59.22-28.94-.35-48.51,20.84-48.77,52.78-.26,32.4,22.85,58.65,52,59.11C765,248.6,785.72,226.48,786.05,195.47Z"/><path class="cls-1" d="M208.94,396.12c-1-4.18,1-6.71,5.28-6.71H222c3.63,0,5.83,1.76,6.6,5.39l8.8,43.78a45.59,45.59,0,0,1,1,8.25h.22a43.44,43.44,0,0,1,1.32-8.25l10.78-43.89c.88-3.52,3.08-5.28,6.71-5.28h4.73q5.44,0,6.6,5.28l10.56,43.89a43.44,43.44,0,0,1,1.32,8.25h.22a45.59,45.59,0,0,1,1-8.25l9.57-43.89c.77-3.52,3-5.28,6.71-5.28h7.48c4.29,0,6.27,2.53,5.28,6.71L294,462.89c-.88,3.52-3.08,5.17-6.71,5.17H276.59c-3.63,0-5.83-1.76-6.71-5.28l-8.58-34.43a67,67,0,0,1-1.54-9.24h-.22a67,67,0,0,1-1.54,9.24l-8.58,34.43c-.88,3.52-3.08,5.28-6.71,5.28H231.82c-3.63,0-5.83-1.76-6.71-5.28Z"/><path class="cls-2" d="M318.06,395.46c0-4,2.09-6,6-6H331c4,0,6,2.09,6,6v18.81c0,2.86-.22,4.84-.22,4.84h.22c3.19-5.61,9.79-9,17.27-9,11.44,0,20.35,5.28,20.35,21.23V462c0,4-2.09,6.05-6,6.05h-6.93c-4,0-6-2.09-6-6.05V434.84c0-5.28-2.09-7.48-6.27-7.48-8.25,0-12.32,6.49-12.32,15.18V462c0,4-2.09,6.05-6,6.05h-6.93c-4,0-6-2.09-6-6.05Z"/><path class="cls-2" d="M413.32,432.75H415v-1c0-4.73-3.85-6.27-8-6.27A25.5,25.5,0,0,0,396.71,428c-3.63,1.54-6.38.88-8.14-2.64l-1.32-2.75c-1.65-3.41-1-6.38,2.42-8.14a45.29,45.29,0,0,1,19-4.4c15.62,0,25.3,8.69,25.3,23.1V462c0,4-2.09,6.05-6,6.05h-5.28c-4,0-6-2-6-6.16v-.44a5,5,0,0,1,.11-1.1h-.22a20.26,20.26,0,0,1-16.72,9c-10.89,0-18.48-7.48-18.48-17.27C381.31,436.93,399.35,432.75,413.32,432.75Zm-7.81,22.44c5.5,0,9.68-5.39,9.68-10v-1.54h-1.76c-5.83,0-13.31,1.54-13.31,6.71C400.12,453,402,455.19,405.51,455.19Z"/><path class="cls-2" d="M447.42,427.25h-1.65c-3.85,0-5.94-2.09-5.94-6v-2.75c0-4,2.09-6.05,6-6.05H448V402.17c0-4,2.09-6,6-6h6.38c4,0,6.05,2.09,6.05,6V412.4h5.83c4,0,6,2.09,6,6.05v2.75c0,4-2.09,6-5.94,6h-5.94v17.16c0,4.84,3.19,6.71,6.6,7.15,4.4.55,6,1.87,6,6v5c0,4.51-2.75,6-7.81,6-8.36,0-23.87-3.85-23.87-20.68Z"/><path class="cls-1" d="M533.88,405.91H516.06c-4,0-6-2.09-6-6.05v-4.4c0-4,2.09-6,6-6h54.89c4,0,6,2.09,6,6v4.4c0,4-2.09,6.05-6,6.05H553.13V462c0,4-2.09,6.05-6.05,6.05h-7.15c-4,0-6-2.09-6-6.05Z"/><path class="cls-2" d="M582.05,395.46c0-4,2.09-6,6-6H595c4,0,6,2.09,6,6v18.81c0,2.86-.22,4.84-.22,4.84h.22c3.19-5.61,9.79-9,17.27-9,11.44,0,20.35,5.28,20.35,21.23V462c0,4-2.09,6.05-6,6.05h-6.93c-4,0-6-2.09-6-6.05V434.84c0-5.28-2.09-7.48-6.27-7.48-8.25,0-12.32,6.49-12.32,15.18V462c0,4-2.09,6.05-6,6.05H588.1c-4,0-6-2.09-6-6.05Z"/><path class="cls-2" d="M675.44,410.09c16.83,0,26.18,11.88,26.18,27.06a6.51,6.51,0,0,1-6.38,6.27H665.43c1.43,6.93,7.15,10.12,13.2,10.12A23.54,23.54,0,0,0,689,450.9c3.63-1.65,6.27-1.21,8.14,2.31l1.54,2.86c1.76,3.41,1.21,6.38-2.09,8.25a39.53,39.53,0,0,1-19.47,5.06c-20.24,0-31.13-14.63-31.13-29.7C646,423.07,657.18,410.09,675.44,410.09Zm7.37,22.44c0-4.62-3-8.47-7.81-8.47-5.5,0-8.14,4-9.13,8.47Z"/><path class="cls-1" d="M738.91,395.46c0-4,2.09-6,6.05-6H781c4,0,6.05,2.09,6.05,6v4.4c0,4-2.09,6.05-6.05,6.05H758.16v16.5h17.93c4,0,6.05,2.09,6.05,6v4.4c0,4-2.09,6-6.05,6H758.16V462c0,4-2.09,6.05-6.05,6.05H745c-4,0-6.05-2.09-6.05-6.05Z"/><path class="cls-2" d="M820.86,410.09c17.93,0,32.23,12,32.23,29.81s-14.3,29.48-32.12,29.48-32.12-11.77-32.12-29.48S803.15,410.09,820.86,410.09Zm.11,43.45c6.93,0,12.87-5.17,12.87-13.64s-5.94-14-12.87-14-12.87,5.39-12.87,14S814,453.54,821,453.54Z"/><path class="cls-2" d="M889.94,410.09c17.93,0,32.23,12,32.23,29.81s-14.3,29.48-32.12,29.48-32.12-11.77-32.12-29.48S872.23,410.09,889.94,410.09Zm.11,43.45c6.93,0,12.87-5.17,12.87-13.64s-5.94-14-12.87-14-12.87,5.39-12.87,14S883.12,453.54,890.05,453.54Z"/><path class="cls-2" d="M953.08,410.09c11.44,0,14.85,5.61,14.85,5.61h.22s-.11-1.1-.11-2.53V395.46c0-4,2.09-6,6.05-6H981c4,0,6.05,2.09,6.05,6V462c0,4-2.09,6.05-6.05,6.05H975.3c-4,0-6.05-1.87-6.05-5.5v-.66a6.2,6.2,0,0,1,.11-.77h-.22s-4.73,8.25-16.39,8.25c-15.4,0-25.52-12.1-25.52-29.7C927.23,421.75,938,410.09,953.08,410.09Zm4.4,43.56c5.72,0,11.11-4.18,11.11-14,0-6.82-3.63-13.53-11.11-13.53-5.94,0-11.11,4.84-11.11,13.53C946.37,448.15,950.88,453.65,957.48,453.65Z"/><path class="cls-2" d="M1005.55,437.7v-1.1c0-11.66,17.27-16.5,17.27-25.08,0-3.74-3.63-6.49-7.81-6.49a13.06,13.06,0,0,0-5.72,1.54c-3.41,1.65-6.82,1.65-8.91-1.43l-2.64-4c-2.2-3.19-2.31-5.94,1-8a33,33,0,0,1,18.26-5.39c12.32,0,25.63,7.37,25.63,21.56,0,16.72-16.61,20.57-18.7,29.15l-.33,1.32c-.77,3-2.31,4-5.72,4h-6.27C1007.64,443.75,1005.55,441.66,1005.55,437.7Zm.44,19.91c0-4,2.09-6,6-6h5.28c4,0,6,2.09,6,6V462c0,4-2.09,6.05-6,6.05H1012c-4,0-6-2.09-6-6.05Z"/><path class="cls-2" d="M1053.84,437.81l-1.32-42.24c-.11-4,2-6.16,5.94-6.16h7.48c4,0,6,2.2,5.94,6.16l-1.32,42.24c-.11,3.85-2.31,5.94-6.16,5.94H1060C1056.15,443.75,1053.95,441.66,1053.84,437.81Zm-.33,19.8c0-4,2.09-6,6-6h5.28c4,0,6,2.09,6,6V462c0,4-2.09,6.05-6,6.05h-5.28c-4,0-6-2.09-6-6.05Z"/></g></g></svg>