<svg xmlns="http://www.w3.org/2000/svg" viewBox="0 0 938.78 958.02"><defs><style>.cls-1{isolation:isolate;}.cls-2{fill:#05ab8c;}.cls-3{fill:#008f76;}.cls-4,.cls-7{fill:#005b49;}.cls-4{opacity:0.7;}.cls-5{fill:#55676f;}.cls-11,.cls-5,.cls-9{opacity:0.3;}.cls-6{fill:none;}.cls-7{opacity:0.5;}.cls-8{fill:#944f90;}.cls-10,.cls-11,.cls-12,.cls-9{fill:#231f20;stroke:#231f20;stroke-miterlimit:10;mix-blend-mode:multiply;}.cls-10,.cls-9{stroke-width:6.9px;}.cls-10,.cls-12{opacity:0.1;}.cls-11,.cls-12{stroke-width:6.46px;}.cls-13{fill:#f8f9f4;}.cls-14{fill:#fff;}.cls-15{fill:#007661;}.cls-16{fill:#c3d155;}</style></defs><title>outcomeMoosh_6</title><g class="cls-1"><g id="Layer_2" data-name="Layer 2"><g id="moosh"><path class="cls-2" d="M922.06,782.21c4.36-10.1,6.47-22,9.11-30.84,10.37-34.83,10.19-56-.76-86.72-19.57-54.92-43.58-113.29-136.12-159.87l-38.8,123.13c46.17,22.83,62.54,80.16,34.77,121.78-2.72,4.07-5.49,8-5.73,12a19.59,19.59,0,0,0,11.84,21.92c3,1.26,5.75,2.51,9.07,2.89,5.64.65,10.82-1.07,15.53-4a24.34,24.34,0,0,0,6-5.17c3.64,14.18,9.06,19.48,22,20.91,17.11,1.89,23.26-9.5,29.43-21.35a32.41,32.41,0,0,0-.49,4.11c-.85,15.68,14.29,25.72,28.54,19.17C913.91,796.82,918.66,790.06,922.06,782.21Z"/><path class="cls-3" d="M785,598.69l26.65-84.58c-5.51-3.16-11.28-6.27-17.36-9.34l-26.71,84.77C774.19,589.5,781,593.22,785,598.69Z"/><path class="cls-3" d="M837.78,763.45c-1.66,2-8.16,10.41-9.53,12.87-1.81,3.26,1.51,6,.06,5.55C832,792.7,837.52,797,849,798.3c8.36.92,14.09-1.34,18.5-5.26C856.93,791.07,841.09,776.35,837.78,763.45Z"/><path class="cls-3" d="M888.84,778.11c.08-1.53,2.83-19.2,3.06-20.46-4.78,9.17-19,10.31-11.08,35.28,5,8.2,15.52,12,25.66,7.3a24.58,24.58,0,0,0,5.95-3.92C904.76,793.5,888.32,787.77,888.84,778.11Z"/><path class="cls-2" d="M553,9C498.81-6.25,438.53-1,385.16,16.55c-57,18.77-103.37,53.46-140.35,98.37a412.36,412.36,0,0,0-41.53,61.42c-61.66,110.6-83.49,256-75.7,383.17,1.88,30.8,5.22,61.55,12,91.5A300.72,300.72,0,0,0,151.3,690.4s0,0,0,0a8.51,8.51,0,0,0,.78,2.07c.29.76.57,1.53.87,2.28a12.27,12.27,0,0,0,1.67,4.08h0c.43,1,.88,2,1.32,3.06.29.68.58,1.37.88,2,.79,1.81,1.59,3.61,2.42,5.38-.39-.84-.79-1.68-1.17-2.53.46,1,.94,2,1.42,3l-.25-.5.47,1c.67,1.41,1.33,2.83,2,4.22.46.94.93,1.86,1.4,2.78l-.25-.52.61,1.2-.36-.68c.5,1,1,2,1.51,3,.31.6.64,1.17,1,1.77q.9,1.67,1.82,3.32,1.12,2,2.26,4c.42.72.82,1.45,1.24,2.15-.42-.7-.82-1.43-1.24-2.14q.83,1.42,1.67,2.83c-.14-.23-.29-.45-.43-.68.2.33.4.64.6,1,.82,1.36,1.66,2.7,2.5,4,.59.94,1.18,1.89,1.78,2.81L177,741.2c.42.63.85,1.24,1.27,1.86l.42.61c.51.75,1,1.51,1.54,2.25q2.28,3.25,4.64,6.38l.22.3q2.78,3.66,5.67,7.17l.26.31a224.8,224.8,0,0,0,46.91,42.57l.51.35c2.17,1.47,4.36,2.89,6.57,4.28l1.38.87q3.11,1.94,6.29,3.77L254.5,813q3.06,1.75,6.17,3.41l2.09,1.1c2,1.07,4.1,2.12,6.18,3.14l2.15,1c2.1,1,4.21,2,6.34,3l1.92.83c2.24,1,4.48,2,6.75,2.89l.13.05q8.32,3.41,16.89,6.33l.06,0c1.91.65,3.83,1.26,5.76,1.88,1.18.38,2.34.77,3.52,1.13,1.72.53,3.46,1,5.19,1.54,1.4.41,2.8.82,4.22,1.21,1.63.45,3.28.89,4.92,1.32s3.08.81,4.63,1.19,3.14.77,4.72,1.14l.76.17A65.18,65.18,0,0,1,341.29,833c29.18,9.17,63,15.75,102.23,18.51l114.07-2.07,11.89-.22a46.66,46.66,0,0,1,35.51-21c11.83-.81,28.09-13.51,35.42-20.39,11.63-10.91,28.48-24.45,41.51-37.55,1.51-1.51,2.77-2.77,3.9-3.89,1.36-1.83,3.53-4.58,6.78-8.59,2.28-2.81,5-5.14,7.14-8.09,5.12-7.09,9.95-16.94,15.63-24.92q3-4.15,0,.55l7.18-10.72c2-2.72,4.61-5.21,6.84-7.85-1.77,1.41,5.13-12.75,6.9-15.49,14.18-21.95,37.46-33.61,60.19-18.89.36.24.7.53,1.06.78,8.45-30.91,13.29-63.23,15.78-93.1C831.16,366.77,761.6,67.55,553,9Z"/><path class="cls-3" d="M234.33,779.76c-15.43-14.33-31.22-27.41-41.53-47.27-5-9.69-8.22-21-15.24-29.13-2.22-2.56-4.53-5-6.84-7.33a19.84,19.84,0,0,1-9.41,2.16,23,23,0,0,1-7.75-1.31,12.26,12.26,0,0,0,1,2,239.87,239.87,0,0,0,30.27,53.45l.22.3q2.78,3.66,5.67,7.17l.25.31a224.81,224.81,0,0,0,46.91,42.57l.51.35c2.17,1.47,4.36,2.89,6.57,4.28l1.38.87q3.11,1.94,6.29,3.77L254.5,813q3.06,1.75,6.17,3.41l2.09,1.1c2,1.07,4.1,2.12,6.18,3.14l2.15,1c2.1,1,4.21,2,6.34,3l1.92.84c2.24,1,4.48,2,6.75,2.89l.13.05q8.32,3.41,16.89,6.33l.06,0c1.91.65,3.83,1.26,5.76,1.88,1.18.38,2.34.77,3.53,1.13,1.72.53,3.46,1,5.19,1.54,1.4.41,2.8.82,4.22,1.21,1.63.45,3.28.89,4.92,1.32s3.08.81,4.63,1.19,3.14.77,4.72,1.14l.76.17c.45-1.6,1-3.15,1.53-4.69C299.86,829.76,265.05,808.3,234.33,779.76Z"/><path class="cls-2" d="M557.59,849.43c-42.38,4-80.22,4.44-114.06,2.07l-59,1.07A585.87,585.87,0,0,0,464.93,856c32.36-.72,68-1.45,103.6-5.39.21-.34.45-.65.67-1C565.31,849.58,561.4,849.54,557.59,849.43Z"/><path class="cls-2" d="M303.13,834.75q-8.56-2.93-16.89-6.33Q294.57,831.83,303.13,834.75Z"/><path class="cls-2" d="M317.66,839.32c-1.73-.51-3.47-1-5.19-1.54C314.19,838.32,315.93,838.82,317.66,839.32Z"/><path class="cls-2" d="M286.11,828.37c-2.27-.93-4.51-1.91-6.75-2.89C281.6,826.46,283.84,827.44,286.11,828.37Z"/><path class="cls-2" d="M308.95,836.65c-1.92-.62-3.85-1.23-5.76-1.88C305.1,835.43,307,836,308.95,836.65Z"/><path class="cls-2" d="M260.68,816.41q-3.11-1.66-6.17-3.41Q257.57,814.74,260.68,816.41Z"/><path class="cls-2" d="M277.44,824.64c-2.13-1-4.24-2-6.34-3C273.21,822.69,275.31,823.68,277.44,824.64Z"/><path class="cls-2" d="M269,820.65c-2.08-1-4.14-2.07-6.18-3.14C264.82,818.58,266.87,819.63,269,820.65Z"/><path class="cls-2" d="M326.8,841.86c-1.64-.43-3.29-.86-4.92-1.32C323.51,841,325.15,841.42,326.8,841.86Z"/><path class="cls-2" d="M245,807.29c-2.21-1.39-4.41-2.81-6.57-4.28C240.6,804.48,242.79,805.9,245,807.29Z"/><path class="cls-2" d="M374.74,851.31c-1.11-.15-2.21-.33-3.32-.49C372.52,851,373.63,851.16,374.74,851.31Z"/><path class="cls-2" d="M355.25,848.18c-1.45-.27-2.89-.55-4.33-.83C352.36,847.63,353.8,847.92,355.25,848.18Z"/><path class="cls-2" d="M365,849.85c-1.33-.21-2.66-.45-4-.67C362.29,849.41,363.62,849.64,365,849.85Z"/><path class="cls-2" d="M345.65,846.3q-2.28-.48-4.56-1Q343.37,845.82,345.65,846.3Z"/><path class="cls-2" d="M336.15,844.19q-2.37-.56-4.72-1.14Q333.78,843.63,336.15,844.19Z"/><path class="cls-2" d="M252.67,811.94q-3.17-1.84-6.29-3.77Q249.5,810.1,252.67,811.94Z"/><polygon class="cls-2" points="443.53 851.5 384.57 852.57 443.53 851.5 443.53 851.5"/><path class="cls-2" d="M190.76,759.78q-2.89-3.51-5.67-7.17Q187.87,756.28,190.76,759.78Z"/><path class="cls-3" d="M557.59,849.43,443.53,851.5C477.38,853.87,515.22,853.45,557.59,849.43Z"/><polygon class="cls-3" points="443.53 851.5 557.59 849.43 443.53 851.5 443.53 851.5"/><path class="cls-3" d="M321.87,840.54c-1.41-.39-2.81-.81-4.22-1.21C319.06,839.73,320.46,840.15,321.87,840.54Z"/><path class="cls-3" d="M331.43,843c-1.55-.38-3.09-.79-4.63-1.19C328.34,842.26,329.88,842.66,331.43,843Z"/><path class="cls-3" d="M371.42,850.83c-2.16-.31-4.31-.63-6.46-1C367.1,850.2,369.26,850.51,371.42,850.83Z"/><path class="cls-3" d="M384.57,852.57q-4.93-.57-9.84-1.25Q379.64,852,384.57,852.57Z"/><path class="cls-3" d="M238.43,803l-.51-.35Z"/><path class="cls-3" d="M312.47,837.79c-1.18-.36-2.35-.76-3.52-1.13C310.12,837,311.29,837.42,312.47,837.79Z"/><path class="cls-3" d="M361,849.18c-1.9-.32-3.81-.65-5.71-1C357.15,848.53,359.05,848.86,361,849.18Z"/><path class="cls-3" d="M350.92,847.35q-2.64-.51-5.27-1.06Q348.28,846.84,350.92,847.35Z"/><path class="cls-3" d="M341.09,845.31q-2.48-.55-4.94-1.13Q338.61,844.76,341.09,845.31Z"/><path class="cls-3" d="M185.09,752.61l-.22-.3Z"/><path class="cls-3" d="M271.1,821.68l-2.15-1Z"/><path class="cls-3" d="M262.77,817.51l-2.09-1.1Z"/><path class="cls-3" d="M279.36,825.47l-1.92-.83Z"/><path class="cls-3" d="M254.5,813l-1.84-1.06Z"/><path class="cls-3" d="M303.19,834.77l-.06,0Z"/><path class="cls-3" d="M286.24,828.42l-.13-.05Z"/><path class="cls-3" d="M246.38,808.17l-1.38-.87Z"/><path class="cls-3" d="M191,760.09l-.26-.31Z"/><path class="cls-2" d="M557.59,849.43c3.8.1,7.72.15,11.6.21l.29-.43Z"/><path class="cls-4" d="M557.59,849.43c3.8.1,7.72.15,11.6.21l.29-.43Z"/><path class="cls-2" d="M569.19,849.64c-.22.33-.46.64-.67,1,2.55-.28,5.11-.54,7.66-.85C573.82,849.75,571.53,849.68,569.19,849.64Z"/><path class="cls-5" d="M569.19,849.64c-.22.33-.46.64-.67,1,2.55-.28,5.11-.54,7.66-.85C573.82,849.75,571.53,849.68,569.19,849.64Z"/><path class="cls-2" d="M736.36,691.29c-1.77,2.74-8.67,16.9-6.9,15.49-2.23,2.64-4.85,5.13-6.84,7.85l-7.18,10.72q3-4.71,0-.55c-5.68,8-10.51,17.83-15.63,24.92-2.12,2.94-4.87,5.28-7.14,8.09-3.25,4-5.41,6.77-6.78,8.59-1.13,1.12-2.4,2.38-3.9,3.89-13,13.1-29.88,26.64-41.51,37.55-7.33,6.88-23.59,19.58-35.42,20.39a46.66,46.66,0,0,0-35.51,21l12.65-.23c61.11-8.28,121.13-27.37,163.86-73.93l.65-.72h-.44l.68-.27c.85-.94,1.72-1.83,2.56-2.79q3.2-3.68,6.21-7.59c19.42-25.19,32.81-57,42-90.52-.36-.25-.7-.55-1.06-.78C773.82,657.68,750.54,669.34,736.36,691.29Z"/><path class="cls-3" d="M800.51,661.92c-1.59-1-17.41-8.48-19-9.26-9.59,36.06-17,62.27-35.51,87-18.38,24.5-37.7,48.7-62.87,64.33a165.07,165.07,0,0,1-42.52,18.67C625,827,609.05,835.53,592.67,834.39c-10-.7-17.2,5.85-23.18,14.82l12.65-.23c61.11-8.28,121.13-27.37,163.86-73.93l.65-.72h-.44l.68-.27c.85-.94,1.72-1.83,2.56-2.79q3.2-3.68,6.21-7.59c19.42-25.19,32.81-57,42-90.52C797.25,672.93,800.87,662.16,800.51,661.92Z"/><path class="cls-2" d="M569.19,849.64c2.34,0,4.63.1,7,.13,2-.25,4-.52,6-.79l-12.65.23Z"/><path class="cls-4" d="M569.19,849.64c2.34,0,4.63.1,7,.13,2-.25,4-.52,6-.79l-12.65.23Z"/><path class="cls-5" d="M569.19,849.64c2.34,0,4.63.1,7,.13,2-.25,4-.52,6-.79l-12.65.23Z"/><path class="cls-2" d="M9.69,650.49c-7.4,20.77-9,42.09-9.62,63.91a184.12,184.12,0,0,0,7.22,55.88c3.65,12.69,10.45,31.07,27.4,26.09,10.79-3.18,20-19.23,15.61-30,0-.24-2,3.91-1.91,3.59a20.68,20.68,0,0,0,1.91-3.59c2.22,6.47,5.43,15.75,5.92,16.65,6.15,11.42,21.23,10.62,30.51,3.41,7.62-5.92,9.69-16.86,11.28-25.78.87,1.6,1.77,3.18,2.62,4.76a19.41,19.41,0,0,0,3.64,5.39,2.75,2.75,0,0,0-.51-1.12c4.86,6.32,9.72,12.63,18.46,12.78,18.5.32,29.81-24.46,20-39.19-27.78-41.62-11.41-99,34.75-121.79l-50.14-120.8C74.39,519.35,29.25,595.57,9.69,650.49Z"/><path class="cls-2" d="M463,824.07c-3.95-2-28.47-5.8-32.7-8.81a249.54,249.54,0,0,0-25.54-15.91c-25.08-3.62-54-6.12-91.29-5.77a24.19,24.19,0,0,1-3.59,2.74.92.92,0,0,1,.1.26c.56,15.42,1.41,35.76-6.22,49.71-4.23,7.74-12.36,7.9-20.09,9.31-22.54,4.09-44.4,9.77-66.61,15.3-22.91,5.71-62,12.23-70.45,38.14-4.14,12.54,4.6,27.24,14.3,34.78,17.87,13.89,42.39,14.77,64.35,14,51.56-1.8,109.34-.71,155.73-5.76,16.64-1.81,34.48-.38,45.95-14.41,10.71-13.11,14.19-46.88,10.48-62.38C434.31,862.29,448.9,832.88,463,824.07Z"/><path class="cls-2" d="M486.95,816.3a92.58,92.58,0,0,0,12.38-7.09,249.54,249.54,0,0,1,25.91-15.29c25.16-3,54.1-4.84,91.4-3.6a24.19,24.19,0,0,0,3.53,2.83,1,1,0,0,0-.1.25c-.69,11.46,8.71,62.39,17.15,64.71C676.69,869,719,873.33,757.13,888.27c10.7,4.2,23.45,11,23.68,24.08,1.65,11.82-5.11,24.3-15.24,31.79-18.19,13.46-42.73,13.76-64.66,12.46-51.5-3-103.06-4-154.65-4.11-16.74,0-34.46-1.2-45.59-15.5-10.39-13.36-8.71-31.07-4.62-46.49C499.46,877.63,500.83,825.45,486.95,816.3Z"/><path class="cls-2" d="M503,876.18c-1-5,0-10.2-1.5-15.14-2.25-7.22-13.74-12.39-25-13.38-12.35-1.08-28.11,2-37.88,6.94-10.06,5.06-11.38,11.21-10,18.67a5.26,5.26,0,0,0,1.64,3.51c-.7-.57,11.33-14.7,13.23-15.78,10.48-5.92,24.06-7.21,35.7-4.78,3.2.67,6.57,1.78,8.53,4.4,5.77,7.71,2.39,16,3.74,24.43.59,3.65-.1,4.9,4.36,6,2.38.6,6.5.2,7.29-2.64C504.22,884.11,503.8,880.59,503,876.18Z"/><path class="cls-6" d="M784.87,774.34l-.75.72Q792,774.19,784.87,774.34Z"/><path class="cls-2" d="M784.87,774.34l.27-.26-.77.27Z"/><path class="cls-7" d="M784.87,774.34l.27-.26-.77.27Z"/><path class="cls-8" d="M823.14,727.68"/><path class="cls-2" d="M508.14,923.7c-21.87-17.31-4.7-35.07-4.37-53.72,0-.3-.06-.57-.07-.86,1.54-.61,2.65-1.62,2.53-3.07,0-.35-.17-.64-.2-1L506,865c-.64-3.48-2.2-16.11-5.41-18.15-20.13-17.46-71,7.4-71,30.32,0,5,9.22,13.56,9.23,8.59,0-6.62-1.87-14.06,2-20,6.2-9.5,25.65-8.22,35.37-7.87,6,.22,12.62,2.85,14.71,8.48a24.84,24.84,0,0,1,1.2,4.83,15,15,0,0,1,1.15,6,51.76,51.76,0,0,1-2,12.26c0,.32.08.62.09.95.2,4.45.15,8.88,0,13.32.31,5.68,1,11.42,1.75,16.91.09.73.23,1.46.35,2.19a28,28,0,0,0,6,6.39C504.31,933.06,513,927.57,508.14,923.7Z"/><path class="cls-3" d="M394.48,933.21c-46.39,5.05-104.17,4-155.73,5.76-22,.77-46.48-.11-64.35-14-9.33-7.25-17.74-21.14-14.68-33.35-6,4.59-10.77,10.24-13.11,17.41-4.14,12.54,4.6,27.24,14.3,34.78,17.87,13.89,42.39,14.77,64.35,14,51.56-1.8,109.34-.71,155.73-5.76,16.64-1.81,34.48-.38,45.95-14.41a41.68,41.68,0,0,0,6.45-12.49C422.34,932.41,408,931.74,394.48,933.21Z"/><path class="cls-3" d="M457.8,828.19a32.91,32.91,0,0,1,5.19-4.13,15.46,15.46,0,0,0-2.42-.84Q459.11,825.66,457.8,828.19Z"/><path class="cls-3" d="M775.67,925.81c-18.19,13.46-42.73,13.76-64.66,12.46-51.5-3-103.06-4-154.65-4.11-9.74,0-19.8-.45-28.72-3.6-11.91,0-22.78-.86-31.86-10.21-.92-.94-1.76-1.91-2.62-2.88A37.4,37.4,0,0,0,500.67,937c11.13,14.3,28.85,15.45,45.59,15.5,51.6.15,103.15,1.08,154.65,4.11,21.93,1.29,46.47,1,64.66-12.46,7.52-5.56,13.16-13.87,14.9-22.62A40.58,40.58,0,0,1,775.67,925.81Z"/><path class="cls-3" d="M21.91,784.43c-6.41-13.33-9-27.22-9.78-41.36a92.8,92.8,0,0,1-3-55.54,163,163,0,0,1,.55-29.21c.45-4.23,1.06-8.38,1.76-12.51-.59,1.57-1.19,3.14-1.74,4.67-7.4,20.77-9,42.09-9.62,63.91a184.06,184.06,0,0,0,7.22,55.87c3.65,12.69,10.45,31.07,27.4,26.09a16.06,16.06,0,0,0,2-.77C30.85,794.92,25.33,791.53,21.91,784.43Z"/><path class="cls-3" d="M142.94,767.64a18.38,18.38,0,0,1-3.8,4.38c-.29.26-.6.49-.9.73a22.89,22.89,0,0,1-3.23,2.16,20.23,20.23,0,0,1-4.92,1.79,1.21,1.21,0,0,1-1.33.32,22.24,22.24,0,0,1-7.09,0,21,21,0,0,1-12.18-6.12,23.11,23.11,0,0,1-9-8.84,16.18,16.18,0,0,1-1.15-2.45,14.29,14.29,0,0,0-1.33,1c4.81,12.43,16,21.66,24.22,21.81,9.79.17,17.52-6.71,21.22-15.39l-.12,0C143.18,767.23,143.08,767.45,142.94,767.64Z"/><path class="cls-3" d="M66.15,754.24c-.12.2-.23.41-.36.61S65.93,754.66,66.15,754.24Z"/><path class="cls-3" d="M91.62,777.49a23.23,23.23,0,0,1-13,8.49c-5,1.09-7.59.64-12.5-.22-5.52-1-10.09-5.83-12.81-10.44-.22-.37-.39-.76-.58-1.14.61,1.69,1.36,3.61,2.3,5.86.56,1.53,1,2.65,1.13,2.92,6.15,11.42,21.23,10.62,30.51,3.41A24.29,24.29,0,0,0,94,776c-.48.11-1.08.32-1.64.49Z"/><path class="cls-3" d="M806.32,757c.24-4.08,3-8,5.73-12,25.6-38.36,15.74-96.61-22.44-122.35-.68,5.29-6.82,24.77-8.11,30-.38,1.54.15,2.71-.44,4.1,23.77,27.74,30.36,61.2,9.2,92.93-2.72,4.08-5.49,8-5.73,12a19.59,19.59,0,0,0,11.84,21.92c3,1.26,5.75,2.51,9.07,2.89,5.64.65,10.82-1.07,15.53-4a24.68,24.68,0,0,0,2.28-1.66c-1.72-.55-3.38-1.26-5.09-2A19.59,19.59,0,0,1,806.32,757Z"/><path class="cls-6" d="M789.16,785.07l-.75.72Q796.34,784.92,789.16,785.07Z"/><path class="cls-2" d="M789.16,785.07l.27-.26-.77.27Z"/><path class="cls-7" d="M789.16,785.07l.27-.26-.77.27Z"/><path class="cls-9" d="M365.83,165.5c-9.66,13.9-23,24.32-37.06,33.71-21,14-47.5,23.55-68.61,16-7.55-2.71-8.87-11-1.72-17.75a1.71,1.71,0,0,1,2.11-.31c10.68,7.47,29.36,6.24,43,1.28C327,189.91,350.16,173,369,155.55c1.4-1.3,3.25-.09,2.3,1.51Q368.71,161.35,365.83,165.5Z"/><path class="cls-10" d="M391.76,364.41c-9.66,13.9-23,24.32-37.06,33.71-21,14-47.5,23.55-68.61,16-7.55-2.71-8.87-11-1.72-17.75a1.71,1.71,0,0,1,2.11-.31c10.68,7.47,29.36,6.24,43,1.28,23.39-8.49,46.61-25.42,65.4-42.85,1.4-1.3,3.25-.09,2.3,1.51Q394.64,360.26,391.76,364.41Z"/><path class="cls-10" d="M406.2,355.46c-2.24,16.78-9.33,32.14-17.55,46.92-12.26,22-31.48,42.66-53.71,45.57-7.95,1-12.9-5.69-9.65-15a1.71,1.71,0,0,1,1.73-1.24c12.91,1.76,29-7.87,38.84-18.52,16.92-18.25,29.83-43.91,38.58-68,.65-1.8,2.85-1.56,2.74.29Q406.87,350.46,406.2,355.46Z"/><path class="cls-11" d="M547,177.26c12.62,11.08,27.79,18.54,43.41,25C613.66,211.82,641,216.68,659,207c6.41-3.47,5.57-11-2.88-16.1a1.74,1.74,0,0,0-2.06,0c-8.15,8.15-26,9.65-40.14,7.12-24.16-4.34-50.3-16.24-72.4-29.21-1.65-1-3.08.37-1.78,1.67Q543.2,174,547,177.26Z"/><path class="cls-12" d="M536.45,372.23c12.62,11.08,27.79,18.54,43.41,25,23.28,9.59,50.66,14.45,68.6,4.75,6.41-3.47,5.57-11-2.88-16.1a1.74,1.74,0,0,0-2.06,0c-8.15,8.15-26,9.65-40.14,7.12-24.16-4.34-50.3-16.24-72.4-29.21-1.65-1-3.08.37-1.78,1.67Q532.69,368.92,536.45,372.23Z"/><path class="cls-12" d="M523.18,381.5c9.63,13.75,22.61,24.59,36.26,34.55,20.35,14.84,45.8,26,65.52,20.86,7.05-1.85,8-9.39,1-16.32a1.74,1.74,0,0,0-2-.48c-9.85,6-27.58,3.21-40.68-2.59-22.45-9.94-45-27.69-63.42-45.53-1.37-1.33-3.08-.37-2.13,1.2Q520.3,377.4,523.18,381.5Z"/><path class="cls-13" d="M605.94,229.75c-34.89-.13-61.81,19.31-72,49.23,51.92-3.66,110.59,11.53,147,47.1a95.14,95.14,0,0,0,1.8-18.08C682.88,260.23,653.16,229.93,605.94,229.75Z"/><path class="cls-13" d="M395.5,283.77c-9.5-28.82-36.81-49.69-74.07-50.56-36.2-.85-64.54,31.5-64.87,73.2a83.69,83.69,0,0,0,3.78,25.83C291.36,297.13,350.2,285.29,395.5,283.77Z"/><path class="cls-8" d="M727.82,201.92l.27.26Z"/><path class="cls-13" d="M680.88,326.09c-36.38-35.57-95-50.76-147-47.1a85.61,85.61,0,0,0-4.51,28.39c.25,35,19.85,62.7,49,73.27a39.11,39.11,0,0,1-.92-3.95C572.79,350,593,328.65,616.06,328.94a32,32,0,0,1,19.52,6.48c.33,0,.65-.1,1-.1a13.74,13.74,0,0,1,13.74,13.74,13.58,13.58,0,0,1-1.76,6.61A52.79,52.79,0,0,1,650.25,373C666.06,362.71,676.86,346.5,680.88,326.09Z"/><path class="cls-13" d="M260.34,332.24c6.35,20.21,20.48,35.39,39.66,42.7a35.16,35.16,0,0,1-2.35-9.6,34.68,34.68,0,0,1,52.23-33.5,15.22,15.22,0,0,1,17,21.78,36,36,0,0,1,.58,14.88c19.22-12.34,31.29-33.92,31.72-60.45a73.54,73.54,0,0,0-3.71-24.29C350.2,285.29,291.36,297.13,260.34,332.24Z"/><path class="cls-2" d="M366.9,353.63a15.29,15.29,0,0,1-10.69,8.17,25.57,25.57,0,0,1-3.72,13.85,69,69,0,0,0,15-7.14A36,36,0,0,0,366.9,353.63Z"/><path class="cls-2" d="M309.31,364.42A23.13,23.13,0,0,1,339.59,340a15.29,15.29,0,0,1,10.29-8.14,34.68,34.68,0,0,0-52.23,33.5,35.16,35.16,0,0,0,2.35,9.6A72.77,72.77,0,0,0,316.17,379,24.78,24.78,0,0,1,309.31,364.42Z"/><path d="M337.94,346.77a15.17,15.17,0,0,1,1.65-6.79,23.13,23.13,0,0,0-30.28,24.43A24.78,24.78,0,0,0,316.17,379a81.8,81.8,0,0,0,10.6.77,77.86,77.86,0,0,0,25.73-4.15,25.57,25.57,0,0,0,3.72-13.85,15.28,15.28,0,0,1-18.27-15Z"/><path class="cls-14" d="M366.9,353.63a15.15,15.15,0,0,0,1.69-6.86,15.23,15.23,0,0,0-18.72-14.92c.57.33,1.16.59,1.72,1A35.15,35.15,0,0,1,366.9,353.63Z"/><path class="cls-14" d="M339.59,340a24.34,24.34,0,0,1,5.7,2.74,23.13,23.13,0,0,1,10.93,19.08,15.29,15.29,0,0,0,10.69-8.17,35.15,35.15,0,0,0-15.31-20.82c-.56-.37-1.15-.63-1.72-1A15.29,15.29,0,0,0,339.59,340Z"/><path class="cls-14" d="M345.28,342.72a24.34,24.34,0,0,0-5.7-2.74,15.17,15.17,0,0,0-1.65,6.79,15.28,15.28,0,0,0,18.27,15A23.13,23.13,0,0,0,345.28,342.72Z"/><path class="cls-2" d="M648.54,355.67a13.65,13.65,0,0,1-10.91,7,36,36,0,0,1-.78,17A72,72,0,0,0,650.25,373,52.79,52.79,0,0,0,648.54,355.67Z"/><path class="cls-2" d="M589.3,374.45c-3.13-17.95,10.44-32.28,25.94-32.09a22.72,22.72,0,0,1,8.55,1.71,13.68,13.68,0,0,1,11.79-8.66,32,32,0,0,0-19.52-6.48c-23.08-.28-43.28,21.06-38.62,47.77a39.11,39.11,0,0,0,.92,3.95,75.89,75.89,0,0,0,14.86,3.73A27.21,27.21,0,0,1,589.3,374.45Z"/><path d="M622.83,349.05a13.66,13.66,0,0,1,1-5,22.72,22.72,0,0,0-8.55-1.71c-15.51-.19-29.07,14.15-25.94,32.09a27.21,27.21,0,0,0,3.91,9.93,80.72,80.72,0,0,0,11.27,1,87.91,87.91,0,0,0,32.36-5.6,36,36,0,0,0,.78-17c-.35,0-.7.11-1.06.11A13.74,13.74,0,0,1,622.83,349.05Z"/><path class="cls-14" d="M648.54,355.67a13.58,13.58,0,0,0,1.76-6.61,13.74,13.74,0,0,0-13.74-13.74c-.34,0-.65.08-1,.1C642,340.31,646.3,347.55,648.54,355.67Z"/><path class="cls-14" d="M623.79,344.07c7.63,3.17,12.21,10.43,13.83,18.61a13.65,13.65,0,0,0,10.91-7c-2.24-8.12-6.55-15.35-13-20.25A13.68,13.68,0,0,0,623.79,344.07Z"/><path class="cls-14" d="M623.79,344.07a13.67,13.67,0,0,0,12.77,18.72c.36,0,.71-.08,1.06-.11C636,354.5,631.42,347.25,623.79,344.07Z"/><path class="cls-15" d="M241.26,539.19l-2.58-.17c-.1,1-.18,2-.27,3A18.73,18.73,0,0,0,241.26,539.19Z"/><path class="cls-16" d="M700.75,610.44c-5.34-6.3-11.16-12.71-13.12-20.73a19.56,19.56,0,0,1,.62-10.86c-10.56-7.79-21.9-12.1-36.15-11.38-28,1.42-44,31-70.46,33.89-9.87,1.07-18.42-3.27-25.61-9.88-9.9-9.11-16.51-16.75-30.4-19.92-10.84-2.47-20.3-2.61-29.6,4-3,2.12-4.91,5.75-7.88,8-6.48,4.94-12.82,6.33-20.92,5-9.8-1.56-20.11-7-28.34-12.51-10.38-6.9-16.07-18.07-29.45-18.92-23.25-1.47-28,28.16-50.86,31.68-9.53,1.47-17.92-1.57-25.13-7.76-10-8.62-19.19-15.8-30.7-22.61-14.78-8.75-26-9-42.52-5-3.14.75-12.5,1.79-14.71,4.47-2.93,3.55-1,9.72-.82,14.23.32,6.34-3.68,9.94-8.43,10.9q-.19,21.91,1.59,43.78c.83,10.14,2.08,20.58,7.17,29.39s15,15.62,25,14.08c5.75-.88,11.14-4.34,16.93-3.74,10.7,1.1,15,14.32,15.79,25a185,185,0,0,1-5.77,62c-2.43,9.06-5.59,18.45-3.65,27.63s11.45,17.55,20.26,14.31c10-3.66,10.65-17.28,9.6-27.83s-.26-24.2,9.75-27.74l8.16,27.35c-5.36,13.71-3.23,34.52-2.63,46,1.06,20,6,54,33.15,52,25.27-1.83,29.88-36.53,27.12-55.65-1.63-11.33-5.72-23.4-10.16-34.51a105.67,105.67,0,0,0-7.7-34.39c-3.27-7.93-7.5-15.52-9.72-23.82s-2.14-17.74,2.74-24.79,15.58-10.33,22.48-5.22c8.23,6.09,6.63,18.5,5.66,28.7s2.48,23.74,12.71,24.23c10.9.52,15.11-14.11,14.45-25s-.84-24.88,9.21-29.12c7.89-3.33,17,2.61,21.06,10.18,5.56,10.48,4.45,23.18,2.19,34.83s-5.55,23.45-3.87,35.2,10.11,23.61,21.94,24.58c11.35.93,21.41-8.65,25-19.47s2.16-22.56.72-33.85l-8.71-68.42a143.05,143.05,0,0,1,33.75,66.75c2.56,12.52,4.65,27.25,15.78,33.52,11.69,6.58,27.41-1.22,33.55-13.15s5-26.23,2.52-39.41-6.33-26.41-5.12-39.77,9-27.3,22-30.7c10.5-2.76,21.61,1.88,32.4.67,19.12-2.13,32.19-25.93,23.73-43.21,8.61-3.67,18.42,4.12,21.18,13.06s.93,18.55.73,27.91,2,19.93,9.95,24.89c12.38,7.75,29.42-5.31,30.69-19.86S710.19,621.59,700.75,610.44Z"/><path class="cls-9" d="M715.9,572.14c-9.69-9.14-20-18.19-32.62-23C654.21,538,628,547.39,603.41,563.4c-.48.31-1,.61-1.44.93-5,3.3-13.55,11.88-19.47,12.9-10.65,1.85-14.83-8.16-21.1-14-1.1-1-2.27-2-3.45-2.87-9.27-7-21-10.48-32.35-12.44-12.24-2.11-26.17-2-37.29,4.37a21.63,21.63,0,0,0-4.06,3.14h0c-.6.57-1.19,1.15-1.77,1.73a38.54,38.54,0,0,1-5.47,4.9h0c-7.06,4.81-12.16,2.05-19.68-2a46.71,46.71,0,0,1-9.51-7.09h0c-6-5.55-11.36-11.89-18.8-15.48-9.7-4.69-22.57-4.23-32.91-2.54s-16.8,5.87-23.07,13c-1,1.12-2,2.3-3,3.58-7.14,9.14-9.9,18.14-24,9.46-5.3-3.25-9.78-9.49-15.16-13.11l-4.49-3c-9.73-6.6-21.47-14.38-32.22-16.89-12.46-2.91-27.62.16-39.82,3.09-3,.73-6.45,1.53-9.87,2.53a22,22,0,0,1-3.22,5.58,18.73,18.73,0,0,1-2.85,2.86,16.24,16.24,0,0,1-5.83,3,28.92,28.92,0,0,0-4.29,1.38q1.93-1.26.09-.06a24.54,24.54,0,0,0-2.26,1.6,42,42,0,0,0-3.44,4.27c-.46.64-.72,1-.89,1.2a3.84,3.84,0,0,1-.39,1c-.89,5.78-.15,12,.14,17.78.43,8.57,8.3,12.2,14.76,10.9,4.75-1,8.75-4.56,8.43-10.9-.23-4.51-2.11-10.68.82-14.23,2.21-2.68,11.57-3.71,14.71-4.47,16.54-4,27.74-3.74,42.52,5,11.51,6.81,20.65,14,30.7,22.61,7.21,6.19,15.59,9.23,25.13,7.76,22.81-3.52,27.61-33.15,50.86-31.68,13.38.85,19.08,12,29.45,18.92,8.23,5.47,18.54,10.95,28.34,12.51,8.09,1.29,14.44-.1,20.92-5,3-2.27,4.91-5.9,7.88-8,9.3-6.64,18.76-6.5,29.6-4,13.89,3.17,20.5,10.81,30.4,19.92,7.19,6.61,15.74,11,25.61,9.88,26.44-2.88,42.44-32.47,70.46-33.89,14.25-.72,25.59,3.59,36.15,11.38a92,92,0,0,1,7.17,5.83l1.41,1.28a166,166,0,0,1,16.46-10.41,32,32,0,0,1,4.2-1.92Z"/></g></g></g></svg>