<svg xmlns="http://www.w3.org/2000/svg" viewBox="0 0 1486.98 1073.88"><defs><style>.cls-1{isolation:isolate;}.cls-2{fill:#48395f;}.cls-3{fill:#d0d2d3;}.cls-4{fill:#d28031;}.cls-5{fill:#ec9432;}.cls-6{fill:#dbdc42;}.cls-7{fill:#e7b470;}.cls-8{fill:#7f9a41;}.cls-10,.cls-9{fill:#dce0df;}.cls-10,.cls-11,.cls-9{stroke:#dce0df;}.cls-10,.cls-11,.cls-15,.cls-9{stroke-miterlimit:10;}.cls-9{stroke-width:4.94px;}.cls-10,.cls-15,.cls-9{opacity:0.3;}.cls-10,.cls-11{stroke-width:6.98px;}.cls-11{fill:none;opacity:0.5;}.cls-12{fill:#05ab8c;}.cls-13{fill:#008f76;}.cls-14{fill:#944f90;}.cls-15,.cls-17{fill:#231f20;}.cls-15{stroke:#231f20;stroke-width:5.68px;mix-blend-mode:multiply;}.cls-16{fill:#f8f9f4;}.cls-18{fill:#fff;}.cls-19{fill:#e77c8d;}.cls-20{fill:#ec257a;}</style></defs><title>outcomeMoosh_8</title><g class="cls-1"><g id="Layer_2" data-name="Layer 2"><g id="moosh"><ellipse class="cls-2" cx="706.88" cy="1038.3" rx="344.4" ry="35.57"/><path class="cls-3" d="M270.54,15.94h0Z"/><path class="cls-4" d="M264.21,26.2l79.25,146a12.43,12.43,0,0,0,21.84-11.86L286,14.34A12.42,12.42,0,1,0,264.21,26.2Z"/><circle class="cls-5" cx="410.5" cy="266.08" r="127.74" transform="matrix(0.25, -0.97, 0.97, 0.25, 48.93, 595.59)"/><path class="cls-6" d="M431.66,277.63a17,17,0,0,1-3.66,1.15A9,9,0,0,0,431.66,277.63Z"/><path class="cls-7" d="M308.72,261.76c-9,49.72,38.49,132.12,121.47,130.53a128.18,128.18,0,0,0,76.25-41.9c-16.21,10.46-36.14,18.6-58.83,18.34-62.49-.73-116.81-60.32-102.49-106.37S394.29,190.2,440.29,209s31.6,82.17-2.64,91.09-50.6-22.61-48.13-39.12S411.38,226,433,240.27c18.85,12.43,8,32.34-1.35,37.36,5.12-2.2,13.69-8.32,16-24.93,2.5-18-33-36.27-55.12-17.45-19.62,16.71-26.72,54.93,4,74.19s78.75,2.75,91.6-33.42,1.43-85.07-55.16-104S321.07,193.37,308.72,261.76Z"/><path class="cls-6" d="M428,278.78c-.09,0-.18,0-.26,0Z"/><path class="cls-8" d="M1445.58,709.49c2.37.38,4.73.79,7.1,1.2v-3.36Z"/><path class="cls-9" d="M52.7,496.26c-8.58,3-13,9.59-16.31,17-4.93,11.06-4.28,27.34,9.08,44.58,4.78,6.16,12.19,9.44,15.58,6.24.3-.28.11-.89-.43-1.42-9.83-9.74-14.94-22.76-15.25-31.13-.52-14.34,6.16-26.18,14.72-34.7.64-.64-1-2.3-2-2.07A46.63,46.63,0,0,0,52.7,496.26Z"/><path class="cls-10" d="M133.1,445.18c-13.43,8.09-22.89,20.22-31.21,33.22-12.4,19.37-19.64,44.79-9.68,66.71,3.56,7.84,12.24,10.09,18.55,3.71a1.57,1.57,0,0,0,.11-2.07c-8.8-11.5-9.4-30-5.63-43.08,6.46-22.41,21.66-43.69,37.84-60.49a1.55,1.55,0,0,0-1.79-2.47Q137.11,442.77,133.1,445.18Z"/><path class="cls-10" d="M1330.25,479.83c4.84-7.69,4.19-15.6,2.16-23.47-3-11.72-13.69-24.05-34.88-29.2-7.58-1.84-15.42.22-16.07,4.83-.06.41.47.76,1.22.84,13.76,1.49,25.87,8.49,31.33,14.84,9.34,10.89,11.5,24.31,10.12,36.31-.1.89,2.21,1.18,2.88.35A46.63,46.63,0,0,0,1330.25,479.83Z"/><path class="cls-10" d="M1299.22,569.88c5.46-14.7,5.29-30.08,3.7-45.43-2.38-22.88-12.56-47.27-34-58.2-7.67-3.91-15.86-.26-16.82,8.66a1.57,1.57,0,0,0,1.2,1.69c14,3.51,26.06,17.61,31.26,30.18,8.92,21.55,10.29,47.67,8.11,70.89a1.55,1.55,0,0,0,2.94.81Q1297.59,574.27,1299.22,569.88Z"/><path class="cls-11" d="M220.49,649.39a314.07,314.07,0,0,0-76.38-21.29l-3,56.07c-8.86-7-18.11-14.26-29.11-16.87s-24.31.79-29.63,10.77c-4.26,8-2.48,17.78-4.5,26.6-3.39,14.81-17.42,25.29-32.14,29s-30.22,1.95-45.3.15"/><path class="cls-11" d="M1205.19,665.73q21.52-26.65,45.3-51.36c-2.16,13.67-4.3,27.76-1.05,41.21s13.27,26.25,26.94,28.38c5.93.92,12.44-.4,16.77-4.54,5.29-5.06,9.79-14.7,16.57-11.92a122.78,122.78,0,0,0,5.48,35c25.4-4.61,53,9.12,64.73,32.15,1.6,3.15,3,6.6,5.89,8.69s7.66,2,9.22-1.18"/><path class="cls-11" d="M234.36,414.21c-18.16,4.24-30.07-21.84-48.59-24-3-.36-6.28,0-8.62,2-6.37,5.24-2.59,18.24-10.11,21.61C156.25,394,133.65,381.4,111.2,382.56c-14.09.72-31.39,5.15-39.88-6.11-3.24-4.3-5.16-10.83-10.5-11.51"/><path class="cls-11" d="M1074.49,408.12c-5.91-12.27,6.53-27.16,20.1-28.4s26.21,6.75,36.57,15.6c2.77,2.36,6.23,5,9.67,3.83,3.65-1.23,4.67-5.78,5.6-9.52A46.14,46.14,0,0,1,1178.37,357c10.34-2.83,21.43-1.92,31.73-4.85a44.71,44.71,0,0,0,29.81-28.89c.72-2.24,1.27-4.6,2.62-6.53,2.18-3.14,6-4.61,9.51-6.08a130.6,130.6,0,0,0,29.52-17.1"/><path class="cls-12" d="M618.19,914.51c-.11-3-.24-6-.36-9C617.95,918.4,618.06,930.62,618.19,914.51Z"/><path class="cls-12" d="M452.62,927h4.53a13.1,13.1,0,0,1-2.46-4.27C452.08,904.63,452.15,945.31,452.62,927Z"/><path class="cls-12" d="M1031.09,717.23a74.68,74.68,0,0,0,20.26-14c21.29-20.47,21.39-57.55-1.42-70.91-13.33-7.81-8.3-11.12-.8-18.07,18.1-16.79,21.13-35.85,11-58.44-4.48-9.94-12.73-16.41-19.65-24.14-7.35-2.7-18.86-4.64-19.69-10.82-1-7.64,11.51-9.12,16.91-14.8,16.51-15.24,17.74-26.11,4.6-43.66-3.26-4.35-7.16-8.23-10.74-12.34-8.2-9.44-21.18-17.94-23.31-28.6-2.36-11.82,15.21-17.82,21.19-28.63a12.85,12.85,0,0,1,1.07-1.24c14.36-19.37,7.83-35.19-16.15-39.16l-12.29-.11,5.67-31.21-23.62-13.77c0-.26,0-.51,0-.77-4.16-7.77,2.4-13.71,3.53-20.57l.63-3.62-.61-5.21c-7.87-7.54-18.26-8.5-28.05-11.47-6.1-1.85-14.92.34-17.86-8.56h0c7.62-11.25,14.56-22.5-.47-33.43-7.52-.61-15,6.54-22.55.19h0c7.49-16,12.73-31.85-3.55-46q.07-1.53,0-3.05l-26-10.71-3.89,3.78-3.5-.42c-8.69-5.64-17.72-2.86-26.67-1C848,168,840.93,169.55,836,162c-8.48-2.06-14.33-7.75-19.6-14.24-.82-3.14-1.57-6.31-2.47-9.43-9.33-32.21-30.07-39.87-58.35-21.45-5,3.24-9.39,7.41-15.57,8.37l-10.17-.36c-4.74-5-10.65-3.26-16.33-2.83l-9.68-3.92c-2.79-6.95-4.95-14.24-8.52-20.76C688.94,85.85,677.35,85.84,670,97c-2.34,3.57-4.18,7.48-6.24,11.23-8.19,10.63-13.3,24.66-29.35,26.61l-.19.06c-13.82,7.37-24.3-4.54-36.53-6.32l-13-.37c-12.77,0-24.66,2.21-33.3,12.88l-12.89,14.36c-1.49,16.06-8.9,23.44-26.4,23.71-2.22,0-4.47.12-6.72.26,8.71,10.23,15.86,21.78,19,34.61,1.42,5.77-.28,12.72-6.68,14.78-17.78,5.73-36.64,6.65-54.89,10.13-15.4,2.93-30.33,8-40.14,20.17a23.46,23.46,0,0,0,2.64,2.35c16.07,12.21,8.21,19.58-4.16,26.78a2.62,2.62,0,0,1-.11.36c-10.31,14-20.89,27.88-30.86,42.15-14.18,20.29-10.88,28.51,13,33.84,21.55,4.81,21.16,4.54,8.23,22.53a427.42,427.42,0,0,0-37.63,63.47c-8.06,16.66-5.3,22.83,12.45,29.71,3.57,1.39,7,3.18,10.7,4.19,11.77,3.26,11,7.88,2.73,15.2-9,7.93-17.07,16.89-25.55,25.39-3,6.82-8,12-13.76,16.54l-2.85,3.13L353.33,551c-.34,4.5-3,7.46-6.52,9.89l0,.07c-.07,2.61-.7,4.83-3.66,5.52l-3.56,4.31c-3.73,11-12.46,20.45-11,33.23l5,6.52c12.65,5.62,26.93,1.36,39.65,6.59l10,.62c3-.49,7-1.42,8.44,1.47,2,4.12-2.26,6.09-5,8.23a3.24,3.24,0,0,1-1.33,2.76,43.06,43.06,0,0,1-12.06,16.64v0c0,2.72-.82,5-3.39,6.26l-2.1,4.07a1.58,1.58,0,0,1-1.27,2.22l-12.59,24.59.32,1.12-1,.76-.16.51c.19,2.72-.22,5.18-2.94,6.61l-1.11,3.7,1.53,12.71L363.28,717c5.87-1.08,10.42,1.32,14.36,5.38,3.1.67,5.31,2.3,6.06,5.54,3.34,1.56,4.9,4.1,4.33,7.83l1.13,7c1.2,4.79,1.19,9.34-2.57,13.15-.07,4.75-2,8.26-6.68,9.89-2.78,3-5,6.76-9.73,6.88h.29l-1.4,3.08c-.49,10.32,6.56,15.67,14.27,19.58,8.41,4.26,11.41,10.71,12.37,19.56,1.53,14.06,4,28,5.95,42,1.24,9,6.29,14.76,14.52,18l13.18,36,27.48-14.39.65,30.37h-.33c3.83,4.3,9.73,3.58,15.44,3,9.81-.93,19.57-2.68,29.47-1.14,5.54-.17-2.47-11.62,3.08-11.8l16.47-.6c12.84-1.85,25.62-4.52,38.53-5.38,22.91-1.52,50.08,4.27,57.32-16.54.09-11.93.18-8.32.27-.4l15.56-23.4c4.58-.37,9.82,1,15.3,4.44,11,6.89,20.23,16.55,30.65,24.44,5.12,3.87,10.27,8.41,17.41,8.39,20.06,0-18.8-39.27,1.27-39.27,18.11-3.52,24.4,4.62,27.27,22.3,3.76,23.15,11.59-21.11,17.9,1.61,12,43.06,19.66,49.27,63.4,51.75l6.72-.63c30.48-5.55,61-10.9,91.43-16.7,33.09-6.31,34.25-10.51,26.33-44.31-3.19-13.61-6.2,39.37-9.54,25.72L918,902c-8-12-14.51-25.38-24.22-35.78-10.69-11.45,53.22,23.2,63.84,18.35l3.56-3.14c13.25-16.43,32-28.17,41-48.26,2.67-6,5.63-11.85,8.82-17.56,4.45-8,1.85-22.47,9.91-24.05,7.79-1.53,17.51,6.77,26.38,10.76l-18.57-45.74c-11.16-7-9.74-17.72-11.13-27.46C1016.26,720.2,1025.63,719.78,1031.09,717.23ZM415.94,797.5a19.14,19.14,0,0,1,.78-6.42ZM674.71,183.06c-.14-.14-.26-.29-.4-.43C674.46,182.76,674.58,182.91,674.71,183.06Zm-.66-.69a45.52,45.52,0,0,0-9.84-7.19A45.49,45.49,0,0,1,674.05,182.37Zm2.58,2.94a27.57,27.57,0,0,1,1.72,2.47A27.57,27.57,0,0,0,676.64,185.31Zm7.18-31.7h0c9.29,1.66,17.36,1.94,21.36-3.23C701.18,155.54,693.1,155.26,683.81,153.61Zm79.92,10.54a35.31,35.31,0,0,0-.51-9.91c-.65-4.25-3.13-5.43-6.27-5.94,3.13.5,5.62,1.68,6.27,5.93A35.3,35.3,0,0,1,763.73,164.15ZM977.3,303.4h0c.3-3.61-.25-6-2-7.54C977.05,297.38,977.6,299.79,977.3,303.4Z"/><path class="cls-12" d="M617.83,905.52c0-4-.07-8-.11-11.28l-.27.4C617.55,898.27,617.69,901.89,617.83,905.52Z"/><path class="cls-12" d="M555.29,247.07h0Z"/><path class="cls-12" d="M503.7,958.18H504l-.15.23Z"/><path class="cls-12" d="M499.93,888h.19l-.09.16Z"/><path class="cls-12" d="M386.56,756l0,0v0Z"/><path class="cls-13" d="M1181.26,638.39c14.48-13.88,24.47-30.55,33.86-48A167.44,167.44,0,0,0,1232,542c2.2-11.8,4.16-29.52-11.65-32.37-10.07-1.82-24.07,7.5-24.93,18.07-.13.18,3.18-2.38,3-2.14a18.81,18.81,0,0,0-3,2.14c.84-6.17,2-15,2-15.95-.35-11.79-12.93-17.28-23.41-15.2-8.61,1.71-14.74,9.76-19.67,16.36-.06-1.65-.15-3.31-.19-4.93a17.65,17.65,0,0,0-.77-5.87,2.5,2.5,0,0,0,0,1.12c-1.38-7.12-2.76-14.23-9.81-17.91-14.91-7.8-34.21,7.74-32.22,23.72,5.63,45.15-31,85.1-77.88,84.85L1025,712.52C1075.22,718.65,1143,675.08,1181.26,638.39Z"/><path class="cls-12" d="M1168.31,645.78c14.48-13.88,24.47-30.55,33.86-48a167.44,167.44,0,0,0,16.9-48.37c2.2-11.8,4.16-29.52-11.65-32.37-10.07-1.82-24.07,7.5-24.93,18.07-.13.18,3.18-2.38,3-2.14a18.81,18.81,0,0,0-3,2.14c.84-6.17,2-15,2-15.95-.35-11.79-12.93-17.28-23.41-15.2-8.61,1.71-11,6.61-15.93,13.22-.06-1.65-.15-3.31-.19-4.93a17.65,17.65,0,0,0-.77-5.87,2.5,2.5,0,0,0,0,1.12c-1.38-7.12-2.76-14.23-9.81-17.91-14.91-7.8-19.18,15.71-16.48,31.58,8,47.23-42.81,87.72-97.36,80.14l-4,106.8C1066.71,714.2,1130,682.46,1168.31,645.78Z"/><path class="cls-13" d="M237.26,611.2c-15.54-12.68-26.81-28.52-37.56-45.2A167.44,167.44,0,0,1,179,519.11c-3.13-11.59-6.49-29.1,9-33.2,9.89-2.61,24.59,5.56,26.28,16,.15.17-3.36-2.12-3.18-1.9a18.81,18.81,0,0,1,3.18,1.9c-1.32-6.08-3.18-14.82-3.23-15.74-.59-11.78,11.52-18.25,22.14-17,8.72,1,15.47,8.56,20.91,14.75-.08-1.65-.12-3.31-.2-4.93a17.65,17.65,0,0,1,.3-5.91,2.5,2.5,0,0,1,.13,1.11c.81-7.21,1.62-14.4,8.36-18.63,14.24-9,34.71,5,34,21.09-2,45.46,37.69,82.38,84.36,78.42l17.83,117.6C349.33,682.8,278.33,644.73,237.26,611.2Z"/><path class="cls-12" d="M250.76,617.53c-15.54-12.68-26.81-28.52-37.56-45.2a167.44,167.44,0,0,1-20.68-46.88c-3.13-11.59-6.49-29.1,9-33.2,9.89-2.61,24.59,5.56,26.28,16,.15.17-3.36-2.12-3.18-1.9a18.81,18.81,0,0,1,3.18,1.9c-1.32-6.08-3.18-14.82-3.23-15.74-.59-11.78,11.52-18.25,22.14-17,8.72,1,11.49,5.72,16.92,11.91-.08-1.65-.12-3.31-.2-4.93a17.65,17.65,0,0,1,.3-5.91,2.5,2.5,0,0,1,.13,1.11c.81-7.21,1.62-14.4,8.36-18.63,14.24-9,20.36,14.14,18.93,30.18-4.25,47.72,49.62,84.05,103.4,72.17l12.46,106.15C357.46,677.68,291.83,651.07,250.76,617.53Z"/><path class="cls-14" d="M285.65,569.47"/><path class="cls-12" d="M704.77,924.72c-3.59-1.8-25.89-5.28-29.74-8a226.94,226.94,0,0,0-23.23-14.46,531.07,531.07,0,0,0-83-5.25,22,22,0,0,1-3.27,2.5.84.84,0,0,1,.09.24c.51,14,1.28,32.52-5.65,45.2-3.85,7-11.24,7.19-18.27,8.46-20.5,3.72-40.38,8.88-60.58,13.92C460.27,972.51,424.7,978.44,417,1002c-3.77,11.4,4.18,24.78,13,31.63,16.25,12.63,38.55,13.43,58.52,12.73,46.89-1.64,99.44-.64,141.63-5.24,15.13-1.65,31.36-.34,41.78-13.1,9.74-11.92,12.91-42.63,9.53-56.73C678.69,959.48,692,932.73,704.77,924.72Z"/><path class="cls-12" d="M701.93,917.66a84.19,84.19,0,0,0,11.25-6.44,226.94,226.94,0,0,1,23.56-13.91A531.07,531.07,0,0,1,819.87,894a22,22,0,0,0,3.21,2.57.86.86,0,0,0-.09.23c-.63,10.43,7.93,56.74,15.59,58.85,35.91,9.88,74.43,13.83,109.06,27.42,9.73,3.82,21.32,10,21.54,21.9,1.5,10.75-4.65,22.1-13.86,28.91-16.55,12.24-38.86,12.51-58.81,11.34-46.84-2.75-93.72-3.61-140.64-3.74-15.22,0-31.34-1.09-41.46-14.09-9.45-12.15-7.92-28.26-4.21-42.28C713.31,973.43,714.55,926,701.93,917.66Z"/><path class="cls-12" d="M717.95,972.11c-.54-4.56,0-9.27-.85-13.77-1.28-6.57-7.81-11.27-14.24-12.17-7-1-16,1.84-21.54,6.31-5.72,4.6-6.47,10.2-5.7,17,.5,4.45,7.54,4.5,7,0-.47-4.19-1-7.58,2.38-10.79,3.22-3.06,11.13-6,15.36-5.64,8.48.69,9.84,5.36,10.1,12.25.19,5.15,1.58,11.15.7,16.19-.78,4.42,6,6.25,6.8,1.78A35.76,35.76,0,0,0,717.95,972.11Z"/><path class="cls-12" d="M720,1018.85C707.56,1003.1,717.32,987,717.5,970c0-.27,0-.51,0-.78a3,3,0,0,0,1.44-2.8c0-.32-.1-.58-.13-.89h0l0-.09a12.09,12.09,0,0,0-3.42-7.39c-11.44-15.88-40-2.39-40,18.46,0,4.53,7,4.53,7,0,0-7.3,2.87-13.5,9.84-16.66a16.6,16.6,0,0,1,11.72-.52l.44.19a14.44,14.44,0,0,1,1.36.61c10.1,5.88,1.25,23.85.87,32.71-.5,11.61,1.17,21.78,8.44,31C717.81,1027.36,722.76,1022.36,720,1018.85Z"/><path class="cls-13" d="M642.46,1024c-42.19,4.6-94.74,3.6-141.63,5.24-20,.7-42.27-.1-58.52-12.73-8.49-6.6-16.13-19.22-13.35-30.33-5.49,4.18-9.8,9.31-11.92,15.83-3.77,11.4,4.18,24.78,13,31.63,16.25,12.63,38.55,13.43,58.52,12.73,46.89-1.64,99.44-.64,141.63-5.24,15.13-1.65,31.36-.34,41.78-13.1a37.9,37.9,0,0,0,5.87-11.36C667.8,1023.25,654.77,1022.63,642.46,1024Z"/><path class="cls-13" d="M700.05,928.47a29.93,29.93,0,0,1,4.72-3.75,14.06,14.06,0,0,0-2.2-.76Q701.24,926.17,700.05,928.47Z"/><path class="cls-13" d="M964.51,1017.24c-16.55,12.24-38.86,12.51-58.81,11.33-46.84-2.75-93.72-3.6-140.64-3.74-8.86,0-18-.41-26.12-3.27-10.84,0-20.71-.78-29-9.29-.83-.86-1.6-1.74-2.38-2.62a34,34,0,0,0,6.83,17.76c10.12,13,26.24,14.05,41.46,14.09,46.92.13,93.81,1,140.65,3.74,19.95,1.17,42.26.91,58.8-11.34,6.84-5.06,12-12.62,13.55-20.57A36.9,36.9,0,0,1,964.51,1017.24Z"/><path class="cls-15" d="M614.94,240.65c-12.08-4.15-24.6-3.7-37.06-2.09-18.58,2.4-38.23,11.18-46.7,28.86-3,6.32.11,12.91,7.39,13.52a1.28,1.28,0,0,0,1.35-1c2.57-11.51,13.81-21.57,23.94-26.06,17.36-7.69,38.6-9.34,57.55-8a1.26,1.26,0,0,0,.6-2.41Q618.54,241.89,614.94,240.65Z"/><path class="cls-15" d="M781.11,230.69c11.07-6.36,23.45-8.29,36-9.07,18.7-1.16,39.65,3.74,51.32,19.5,4.17,5.64,2.34,12.7-4.7,14.67a1.28,1.28,0,0,1-1.52-.74c-4.7-10.81-17.64-18.56-28.44-21.05-18.5-4.27-39.67-1.86-58,3a1.26,1.26,0,0,1-1-2.25Q777.81,232.59,781.11,230.69Z"/><path class="cls-16" d="M884.09,358.53c.4,46.37-29.2,77.38-74.1,77.62-41.26.22-72.2-32.12-73.07-76.37-.89-45.09,29.29-77.51,72.5-77.89C854.76,281.48,883.68,311.16,884.09,358.53Z"/><path class="cls-16" d="M587.78,434.86c-30.86.23-52.52-21.85-52.68-53.68-.15-30.88,20.53-55.11,47.35-54.82,34.89.37,58.41,24.53,58.3,54.7C640.64,412.33,618.61,434.64,587.78,434.86Z"/><path class="cls-14" d="M883.1,299.36l.2.19Z"/><path class="cls-12" d="M573.07,364.38A25.73,25.73,0,0,0,533.43,389a27.82,27.82,0,0,0,18.09,22.77C580.74,421.92,599,381,573.07,364.38Z"/><path class="cls-17" d="M568.49,371.78a17.16,17.16,0,0,0-26.44,16.41,18.55,18.55,0,0,0,12.06,15.18C573.6,410.15,585.8,382.84,568.49,371.78Z"/><circle class="cls-18" cx="574.44" cy="374.7" r="11.35" transform="translate(-4.72 7.33) rotate(-0.73)"/><path class="cls-12" d="M857.36,336.11c-17.1,0-31.85,16-28.15,35.74,2.69,14.37,16,25,29,24.84C891.36,396.27,891.9,336.09,857.36,336.11Z"/><path class="cls-17" d="M856.88,346.06c-11.48,0-21.39,10.75-18.91,24,1.81,9.66,10.73,16.8,19.45,16.69C879.72,386.47,880.08,346,856.88,346.06Z"/><circle class="cls-18" cx="872.73" cy="350.81" r="10.18" transform="translate(-4.39 11.12) rotate(-0.73)"/><rect class="cls-12" x="589.35" y="823.06" width="169.12" height="132.29"/><path d="M787.54,756.84l.75.2C788.27,754.54,788,754.87,787.54,756.84Z"/><path d="M764.53,534.26a49.26,49.26,0,0,0-2.26-8.73c-.32-3.42-.71-6.83-1.09-10.25a12.33,12.33,0,0,1,.37-1.26l.12-1.33c-.61,1.44-1.11,2.82-1.15,2.93a45.59,45.59,0,0,1-3.93,8.69,50.21,50.21,0,0,1-12.29,14.57C719.85,558,695,534.33,689.2,511.32c-8.15,15.9-16.41,33.47-37.73,30.35-7.29-1.07-13.66-5.09-16.94-11.78,0-.09-.07-.2-.12-.29-63.2,40.32-86.45,115.05-58,184.47,1.09,2.65,2.24,5.2,3.43,7.7,18.81-4.7,42.88-6.79,60.17-.31a119.56,119.56,0,0,1,27.36,14.92c7.34-3.66,14.71-6.87,21.09-10,35.43-17.36,93.22-7.65,130.87,20.15,41.26-41.53,42.57-92.76,17.46-153.64-7.91-19.18-17.64-35.14-28.75-48.13C793.33,557.37,767.78,553.29,764.53,534.26Z"/><path class="cls-19" d="M688.48,726.39c-6.39,3.13-13.75,6.34-21.09,10A119.56,119.56,0,0,0,640,721.47c-17.29-6.48-41.36-4.39-60.17.31,29.18,61.67,87,78.23,147.59,69.34a263.56,263.56,0,0,0,46.72-11.51c18.5-10.24,33.45-21.27,45.18-33.07C781.7,718.74,723.91,709,688.48,726.39ZM788.29,757l-.75-.2C788,754.87,788.27,754.54,788.29,757Z"/><path class="cls-18" d="M700.78,504.36a165.42,165.42,0,0,0-39.27,11.13,174.89,174.89,0,0,0-27.1,14.12c0,.09.07.2.12.29,3.29,6.69,9.65,10.71,16.94,11.78,21.32,3.12,29.58-14.45,37.73-30.35,5.79,23,30.65,46.72,55.1,27.55a50.21,50.21,0,0,0,12.29-14.57,45.59,45.59,0,0,0,3.93-8.69c0-.11.53-1.49,1.15-2.93l-.12,1.33a12.33,12.33,0,0,0-.37,1.26c.38,3.41.77,6.83,1.09,10.25a49.26,49.26,0,0,1,2.26,8.73c3.25,19,28.8,23.11,43.53,10.49C779.73,511.58,742.15,498.29,700.78,504.36Z"/><path class="cls-3" d="M1312.14,863h0Z"/><path class="cls-4" d="M1310.66,851,1157.5,786.58a12.43,12.43,0,0,0-9.63,22.91L1301,873.9a12.42,12.42,0,1,0,9.63-22.91Z"/><circle class="cls-20" cx="1046.5" cy="755.27" r="127.74" transform="translate(-216.72 490.95) rotate(-24)"/><path class="cls-6" d="M1022.76,759.49a17,17,0,0,1,2.14-3.18A9,9,0,0,0,1022.76,759.49Z"/><path class="cls-19" d="M1128.62,695c-24.08-44.41-112.66-79-176.42-25.91a128.18,128.18,0,0,0-33.31,80.38c6.11-18.3,16.57-37.11,34.44-51.09,49.22-38.51,128.88-26,146.5,18.93s6.76,87.06-40.88,101.16-76-44.36-54.9-72.74,53.62-14,62,.43,4.79,40.93-21,43.33c-22.48,2.09-26.44-20.25-22.31-30-2.62,4.92-5.49,15.05,3.11,29.46,9.33,15.65,48.44,7.66,53.92-20.85,4.86-25.31-13.49-59.57-49.54-55.37s-63.18,47.09-50.59,83.36,52.08,67.28,108.1,46.69S1161.75,756.09,1128.62,695Z"/><path class="cls-6" d="M1024.9,756.3c.06-.06.11-.14.18-.2Z"/><path class="cls-12" d="M983.1,598.16s52.61,87.31,0,127.78c0,0,67.87,129.69-64.2,104.3s-.17-150.7-.17-150.7Z"/><path class="cls-18" d="M1058.89,63.77c-.32,0-.72-.24-1.12-.24a6.45,6.45,0,0,0-1.2.08c-.32,0-.64-.16-1-.16-.8,0-1.68.08-2.64.08-.56,0-1,.16-1.52-.16a9.67,9.67,0,0,1-2.72.48c-.56-.32-.56-1.12-1-1.44-.08-1,0-2.08-.16-3.28,0-.32-.08-.72-.08-1a7.1,7.1,0,0,1-.24-1.12c0-.32.16-.72.16-1,0-.56-.24-1.12-.24-1.68s.16-1.12.16-1.68c0-1.2-.16-2.32-.16-3.52,0-.56.16-1.12.16-1.68a3.61,3.61,0,0,0-.24-.88c0-.16.08-.16,0-.4s-.16-.24-.16-.4c0-.32.24-.48.32-.88a6.93,6.93,0,0,1-.08-1.44c0-1,.08-3,.08-4.4,0-.72.4-1.36-.24-1.92a11.26,11.26,0,0,0,.24-4.88c.4-.32.24-.8.32-1.2a12,12,0,0,0,0-2.4c0-1,.16-1.68.08-2.56,0-.24.08-.4,0-.56s-.16-.16-.08-.4a.88.88,0,0,0-.16-.72c-.08-1.28.24-2.56.24-3.76a7.42,7.42,0,0,1-.08-1.28,16.65,16.65,0,0,0,0-2c0-.16-.08-.24-.08-.32.08-.88.24-2.64-.48-3.28.4-.56,0-1.36.08-1.92,0-.32.08-1.28.16-1.92,0-.32.16-.64.16-.88,0-.48-.56-1.2-.08-2-.32-.64-.72-1-.64-1.52.08-1,1-1.28,2-1.52.16-.08.32.08.48,0s.24-.24.4-.24a4,4,0,0,1,1,.24c.64.08,1.52-.08,1.76.32.88-.08,1.6-.32,2.4-.32.32,0,.48.24.88.24s.56-.24.88-.08a5.55,5.55,0,0,0,1.52.8,5.24,5.24,0,0,1,.4,2c0,.64.08,1.36.08,2-.08.8-.32,1.6-.32,2.32-.08,1,.4,1.76-.08,2.48.24.56.48.72.08,1.28.48.8.24,1.52.24,2.48,0,.8,0,1.92-.08,3v.8c0,.16-.16.4-.16.64a2.54,2.54,0,0,0,.24.72,5.82,5.82,0,0,0,.32,2.24,1.91,1.91,0,0,1-.24.72,4.29,4.29,0,0,1,.24.8,8.69,8.69,0,0,0-.08,1.44,6.21,6.21,0,0,1,.16,1.28c0,.24-.16.56-.16.8,0,.4.24.56.24.88,0,.48-.32,1.2-.32,1.68,0,.08.16.24.16.4-.08.32-.24.56-.32.88.16.32.24.88.4,1.28s-.08.72-.08,1.28a7.57,7.57,0,0,0,.4,1.44c0,.56-.16,1-.16,1.6-.08,1.28.4,2.64.24,3.84,0,.48-.24,1-.24,1.44a10,10,0,0,0,.32,1.28,21,21,0,0,1,.08,4,26.92,26.92,0,0,0,0,5.68c0,.24.24.56.24.8.16,1.36-.08,2.64,0,3.76.08.32.32.64.4,1a1.56,1.56,0,0,1,.08.64.68.68,0,0,1,.16.48C1060.09,63.13,1059.37,63.13,1058.89,63.77Z"/><path class="cls-18" d="M1079.77,7.53c.08.16.4.08.4.24-.08.4-.24,1-.32,1.28,0,.16.16.24.16.4a7.45,7.45,0,0,1-.4.8c-.08.24.08.56,0,.72-.32.32-.24.64-.4.88a1.91,1.91,0,0,1-.72.16c-.08.48.16.48.08.88-.4.56-.64,1.36-1.2,1.76a1.63,1.63,0,0,1-.88,1.52c0,.4-.32.72-.48,1s-.32.8-.48,1.12a2,2,0,0,0-.56.32c-.08.16-.08.48-.24.64,0,0-.24,0-.32.08a8,8,0,0,1-1.2,1c-.24.08-.56,0-.72.08s-.8.48-1.12.4-.48.32-.88.32a7,7,0,0,1-1.52-.8c0-.48.24-.72.16-1.28.88-.56.64-2.32,1.52-3-.24-1,.56-1.68.8-2.48,0-.24-.16-.4-.16-.48,0-.24.08-.8.16-1.36a4.88,4.88,0,0,0,.24-1.76c0-.4-.48-.88-.32-1.28a4.56,4.56,0,0,0-1,.08c-.4.08-.64.32-1,.32-.64-.08-.8-.64-1.44-1,.56-1-.48-2.24.32-2.8a1.4,1.4,0,0,1,.32-2.24c0-1,.8-1.6,1.36-2.16.48-.4,2-.24,2.48-.88.56.16,1-.24,1.36-.16a12.78,12.78,0,0,1,1.68.4c.4.4.56.32,1.12.64.24.32.56.08.8.4.48-.08.56.56,1,.8.32,0,.48.4.8.64s.64,1.44,1,1.92c-.24.56.24,1.52.08,2.24C1080.17,7.21,1080.09,7.61,1079.77,7.53Z"/><path class="cls-18" d="M1156.41,60.89a3,3,0,0,1-.4.64c-.4.32-.64.24-1.2.4-.24.08-.64,0-1,.08a7.49,7.49,0,0,1-1.28.32c-.48.08-1,.08-1.6.16-.88.08-1.76.32-2.72.32a4.09,4.09,0,0,1-2.32.32c-.24-.4-.64-.64-.88-1a3.83,3.83,0,0,1,.72-2.16c-.08-.24-.08-.48-.16-.72s.08-.16.08-.32.16-.16.08-.32a4.17,4.17,0,0,1,.08-1.68c0-.16.24-.4.24-.64a44.48,44.48,0,0,0,.08-4.64,6.25,6.25,0,0,0,.32-.72c0-.32-.16-.64-.16-1s.4-.8.48-1.12c0-.48-.4-1,.16-1.28-.48-.8-.24-1.76-.24-2.72,0-.32-.08-.64-.08-.88,0-1.36.32-2.8.24-4.16-.08-.56-.4-1.2-.48-1.84a3.22,3.22,0,0,1,0-.88,3.61,3.61,0,0,1-.24-.88c-.08-.56.08-1.12,0-1.68s-.24-.88-.24-1.28.24-.88.16-1.28a4,4,0,0,0-.24-1,3.6,3.6,0,0,0-.08-1c-.08-.32-.4-.56-.64-1a8.55,8.55,0,0,0-.48-.88c-.24-.4-.56-.88-.88-1.36-.16-.24-.32-.24-.64-.48,0-.08-.08-.24-.08-.32-.24-.08-.24.08-.56,0-.16,0-.16-.16-.32-.24a4.26,4.26,0,0,0-1-.24,3.11,3.11,0,0,0-1.2.16c-.4.08-.88.08-1.12.16s-.24.16-.4.24-.4,0-.56.08a14.07,14.07,0,0,0-1.44.88c-.4.32-.88.56-1.28.88-.16.08-.16.32-.32.4s-.56.16-.72.4c-.16.08-.24.24-.4.48-.08,0-.32.24-.4.4s-.16.48-.56.48a5.35,5.35,0,0,1-1.44,2.64c-.08.16-.32.24-.4.4a8.56,8.56,0,0,0-.56,1.52c0,.08-.24.24-.24.24-.08.16,0,.4-.08.56s-.24.16-.24.24.08.32,0,.4c-.16.32-.64.64-.8,1-.08.24-.08.72-.16,1s-.32.4-.4.64-.08.64-.16,1c0,.08-.16.08-.24.24s0,.32,0,.48c-.08.32-.32.48-.4.8s-.08.64-.16.88c0,.08-.24.24-.24.24-.16.4,0,1-.48,1.2.08,1.2-.8,2.16-1,3.44a5.66,5.66,0,0,1,.08,1.12c0,.4-.08.88-.08,1.2s-.24.56-.32.88c-.08.48-.08,1.2-.16,1.84,0,.24-.16.48-.16.72s.16.24.16.4c-.08.72.32,1.44-.08,2.24.16.48.72,1.44.08,1.92a2.57,2.57,0,0,1,.64,1c.08.48,0,1.12.08,1.68s.72,1.12.48,2.08c-.16.72-.88.8-1.44,1.28-.48-.32-1.2-.24-1.84-.56-.08-.08-.16-.24-.32-.32a16.71,16.71,0,0,0-2,.08,8.08,8.08,0,0,1-1.36.24c-.4,0-.72-.24-1-.24-.64-.08-1.12.24-1.68-.08-.88-.88-.4-3.12.24-4-.24-.16-.16-.56-.4-.72.48-.32.48-1.6.4-2.24s.4-1,.48-1.68c0-.32-.16-.64-.16-1,.08-1.28.24-3.76.32-5.76,0-.48.08-1.2.16-1.92,0-.16-.16-.16-.16-.32,0,0,.24-.4.32-.56,0-.8-.4-1.52.16-2.24.08-.24-.24-.32-.24-.48s.08-.48,0-.64a5,5,0,0,1-.48-1.44c0-.16.16-.24.16-.4a3.41,3.41,0,0,1-.32-.56c0-.16.08-.4.08-.64s-.32-.56-.4-.88.16-.32.16-.56a6.41,6.41,0,0,0-.48-2.4c-.32-.48-.16-.8-.24-1-.16-.48-.4-.8-.64-1.36-.08-.24-.24-.32-.32-.72s-.32-.8-.48-1.2a11.78,11.78,0,0,0-1.92-2.72,5.07,5.07,0,0,1-1.76-.72c-.32-.08-.56.08-1,.08-.24.08-.64-.16-.88-.08a2.63,2.63,0,0,0-.48.24,12.85,12.85,0,0,0-1.6.56c-.72.32-1.44.48-2.08.72-1,.48-1.68,1.28-2.64,1.68-.48.64-.72,1.68-1.6,2a1.85,1.85,0,0,1-.24,1.28c-.08.24-.24.4-.24.64s-.08.48-.16.8c-.08,0-.24.16-.32.24s.08.24,0,.4c-.16.48-.32,1.36-.88,1.6a2,2,0,0,1-.48,1.44,7.78,7.78,0,0,1-.8,3.44c-.4,1-.24,2.8-1,4-.08.48.32.56.24,1,.08.56-.4.64-.4,1.12a7.54,7.54,0,0,1-.4,5.44c.48.56.24,1,.24,1.84,0,.24.16.32.16.48-.08.32-.24.64-.16.88a4.22,4.22,0,0,0,.24,1c0,.24-.16.4-.16.72,0,.48,0,1.6.08,2.4.08,1.2.88,2.4.4,3.6-2.24,1.36-4.8,0-7.76.08.16-.48-.4-.32-.64-.56a9.78,9.78,0,0,1-.16-1.52c0-.48.32-.88.4-1.28,0-.24-.16-.48-.16-.8.08-1.12.24-2.56.24-4a6.57,6.57,0,0,1,.16-2.16c-.48-1.12.16-2.48-.24-3.6.48-1.44,0-3,.48-4.8.08-.4-.4-.32-.4-.64-.08-1-.08-2-.08-3.12,0-.32.16-.56.16-.8a9.77,9.77,0,0,0-.24-1.36c0-.56.08-1,.08-1.6-.08-.4-.16-.88-.24-1.28a9.89,9.89,0,0,1-.24-2.32c0-.24.16-.48.16-.64s-.16-.4-.24-.64a5.31,5.31,0,0,1-.08-1V29a3.84,3.84,0,0,0-.08-1.68c-.08-.32.08-.48-.08-1,0-.48-.16-.72-.08-1s.16-.64.08-1a8.37,8.37,0,0,0-.32-1.36c.08-.4.32-.56.4-.88a6.07,6.07,0,0,1,.32-3.12,3.78,3.78,0,0,1,.8-1.52c.88-.56,2,.32,2.88.72,1.68-.16,3.68-.08,5.52-.16a13.18,13.18,0,0,1,.88,1.36c0,.88-.24,1.28.08,1.92.64.16,1-.24,1.44-.48.08,0,.32-.08.4-.08.4-.32.8-1,1.44-1,.24-.32.64-.4.8-.72a4.06,4.06,0,0,0,1-.4c.08-.08.4-.16.48-.24.24-.32.32-.24.4-.24.24-.16.4-.56.64-.64s.64-.16,1-.24L1107,17a8.3,8.3,0,0,1,1.76-.48c.8-.08,1.6.48,2.56.08.24,0,.4.24.64.4a3.11,3.11,0,0,1,2.56.32,2.16,2.16,0,0,1,1.2-.24c.48,0,1.2.8,1.6,1s1,.24,1.44.4a.48.48,0,0,1,.08.32c.08,0,.24-.08.32,0,.16.24.32.16.32.24a6,6,0,0,1,2.16,1.76,6.36,6.36,0,0,1,.48,1.76,4.89,4.89,0,0,0,.56.8c.08.24.24.56.32.8.32.56.48,1,.72,1.52,1-.16,1.36-1,1.76-1.76.4-.16.88-.4.88-1,1.12-.08,1-1.28,2.16-1.28,0-.4.48-.4.48-.88a20.39,20.39,0,0,0,2.8-1.76c.56-.32,1.44-.64,2.16-1.12a14.07,14.07,0,0,0,3.52-.32c1.2-.08,2.48-.08,3.6-.16a18.3,18.3,0,0,1,3.6.08c.4.08.88.32,1.28.4s1,.16,1.44.32a3.32,3.32,0,0,1,.88.56,5.58,5.58,0,0,0,1,.4,3.13,3.13,0,0,0,.64.8c.24.24.4.16.48.24s.16.32.24.4a7.16,7.16,0,0,0,1.52,1.2,1.5,1.5,0,0,0,.64.88c.16.8.72,1.52,1,2.4l.16.32c.16.56.08,1.28.24,2.08,0,.16.16.32.24.64.08.64.16,1.36.32,2.08a5.81,5.81,0,0,1,.08,2.64c.32.48.32,1.36.72,1.76a9.7,9.7,0,0,0-.16,1.84c0,.8.4,1.84-.08,2.32,1.12,1.44.56,3.6.64,5.92a14.12,14.12,0,0,1,.24,1.68c0,1-.32,2.32-.32,3,0,.24.16.56.08.8s-.24.72-.24,1a6.39,6.39,0,0,0,.24,1.2c0,.24-.16.4-.16.72s.16.56.08.8c0,.4-.24.8-.24,1.12s.08.56.08.8v.8c0,.32.24.8.24,1.12.08.72-.16,1.2.08,1.68s.48.4.48,1A3.44,3.44,0,0,0,1156.41,60.89Z"/><path class="cls-18" d="M1237.12,42.57a19.7,19.7,0,0,1-.08,4.88,8.31,8.31,0,0,1-.32.8,4.52,4.52,0,0,1,0,1,2.53,2.53,0,0,0-.24.72c-.16.88,0,1.84-.08,2.72s-.32,1.76-.32,2.56c0,.48.08,1,.08,1.44.08,1.28-.4,2.64-.24,3.76.16.72,1,1.52.8,2.32a2.84,2.84,0,0,1-2.56,1.36,5.24,5.24,0,0,1-.88-.16c-.24,0-.4.16-.64.16a28.84,28.84,0,0,1-5.52-1.28,6.32,6.32,0,0,0-1.12-1.36,12.64,12.64,0,0,1,.08-3c0-.16.24-.24.24-.48a2.91,2.91,0,0,0,0-1.2,2.94,2.94,0,0,1,.72-1.6c-.64-.72.16-1.6.16-2.32a8.54,8.54,0,0,1,.08-2,1.53,1.53,0,0,0,.24-.64c0-.08-.08-.32-.08-.48a2.84,2.84,0,0,1,.16-.8,11.93,11.93,0,0,1,.16-1.68c0-.32.24-.64.24-1s-.08-.56-.08-.8c0-.56.4-1.28,0-1.84.32-.32.24-1,.4-1.52a3.9,3.9,0,0,0,.32-1.52c0-.24-.08-.56-.08-.8a32.33,32.33,0,0,0,.08-4.88,6.36,6.36,0,0,0-.24-1.2,2.83,2.83,0,0,0-.08-.48c0-.24.16-.32.08-.56s-.16-.8-.16-1.12-.08-1-.16-1.2c-.08-.48-.48-.88-.56-1.28a13,13,0,0,1-.24-1.6,8.37,8.37,0,0,0-.88-.64,5.48,5.48,0,0,1-.8-.64c-.72-.64-1.2-1.44-2.8-1.2a4.33,4.33,0,0,0-.8.24c-.88.08-2.08.08-3.2.16a16.88,16.88,0,0,0-2.24.32c-.24.08-.48.08-.64.16-.72.24-1,.8-1.52,1.2-.32.24-.56.48-.8.64s-.48.56-.8.64c-.24.4-.24,1-.8,1a11,11,0,0,1-1.2,2.8c-.16.24-.16.48-.32.72-.16.48-.4.88-.64,1.44a13.36,13.36,0,0,0-.56,2.4c-.08.24-.24.56-.32.8-.08.72.08,1.44-.4,1.92a23.91,23.91,0,0,1-.08,4.16c-.16.8-.4,1.68-.48,2.4a13.13,13.13,0,0,0-.16,3.52,7.31,7.31,0,0,1-.48,3.36c.24.32.16,1,.32,1.36.16.64-.48.48-.4,1,.24.16,0,.72.4.8.32.48.16,1.12.32,1.92.08.24.24.4.24.56a3.25,3.25,0,0,1,0,1.52c.24.64,1,1.12,1,1.84,0,.32-.4.72-.4,1.12a5,5,0,0,1-1,.56c-.4,0-.72-.24-1.28-.32a6.2,6.2,0,0,0-1.28-.16c-1,0-2.16.24-3.2.32a8.83,8.83,0,0,0-2.48.08c-.32-.32-.4-.8-.88-1,.16-1.92-.08-3.52.48-4.8.08-.24-.16-.32-.24-.48-.16-.48.24-1.12.16-1.92a3.47,3.47,0,0,1,.08-.4,1.14,1.14,0,0,0-.32-.16c0-.24.08-.56.08-.8a5.6,5.6,0,0,1-.24-1.12c-.16-1.76,0-3.92,0-6.48v-.4c.08-.56-.24-1-.24-1.52,0-.24.16-.56.16-.8s-.24-.64-.24-1c0-.72.16-1.44.16-2.16a6.77,6.77,0,0,1,.08-1c.08-1,.16-2.16.16-3.2a15.36,15.36,0,0,1,.08-2.64c.08-1.2.32-3.92.48-5a24.28,24.28,0,0,0,.08-3.52V24.09c.08-1-.08-1.84-.08-2.72,0-.32.16-.72.16-1a16.16,16.16,0,0,0-.32-1.92,6.08,6.08,0,0,0,0-1.2,2.83,2.83,0,0,0-.24-.88c-.08-1.36.24-2.8-.4-4,.16-1.84,0-3.68.16-5.6.08-1.44.16-3,.16-4.72,1-.8,2.4-.64,3.76-.72a19.58,19.58,0,0,1,2-.24c.24,0,.32.16.48.16a7.1,7.1,0,0,1,1.84-.08c.64-.16.32.56.88.56.4-.08.4.4.64.48-.32.72,0,1.6-.16,2.48-.08.16-.32.32-.32.48s.16.24.16.4c-.16,1-.48,3.36-.56,4.88s-.08,3.28-.08,4.16a33.25,33.25,0,0,0-.08,4.88c.08.56.32.88.08,1.44-.08.32-.4,1-.24,1.44.56.16.8-.72,1.28-1.2a2.91,2.91,0,0,0,.56-.24c.24-.16.56-.72.88-1,.16-.16.32-.16.56-.24s.32-.48.64-.64a9,9,0,0,0,1.28-.8c.24-.16.4-.48.64-.64s.4,0,.56-.08.24-.16.4-.24c.88-.32,1.76-.56,2.88-.88l.32-.24a11,11,0,0,0,1.6-.24c.64-.08,1.44-.24,2.08-.32s1.52.16,2.32.16c1.12.08,2.48.08,3.6.24.24.08.56.24.88.32a2.67,2.67,0,0,1,1.2.4,7.78,7.78,0,0,1,1.76,1.84c.08.08,0,.24.08.4s.32,0,.4.08.08.32.08.4.24.16.32.32c.24.32.24,1,.88,1a6.08,6.08,0,0,0,.88,1.28,9.41,9.41,0,0,1,.56,1.6,8.73,8.73,0,0,1,.64,1.52c.08.32,0,.72.08,1,0,.08.24.16.24.24s.08.32.16.4c.16.48.4,1,.56,1.6.08.16,0,.4,0,.64,0,.08.24.24.24.24.08.24.08.64.16.88a28,28,0,0,1,.8,3.52c.16,1.2-.16,2.48-.08,3.76A7.61,7.61,0,0,1,1237,39c-.16.64.16,2.56.08,3.12Z"/><path class="cls-18" d="M1282.64,18.89c-.24.56-.24.88-.48,1.52-.08.24-.16.24-.24.4-.16.32-.16.72-.32,1s-.32.56-.48.88a2.94,2.94,0,0,0-.4.88,3.36,3.36,0,0,1-.16.48,3,3,0,0,0-.56,1.44c-.16.24-.4.24-.56.48-.24.56-.32,1.36-.88,1.52a10.66,10.66,0,0,1-.88,2.56c-.32.88-.64,1.6-1,2.48.08.48-.48.24-.48.64a5.66,5.66,0,0,1-.08,1.12c-.48,1-.56,2.08-1,3.12a14.94,14.94,0,0,1-1.36,2.48,3.06,3.06,0,0,1-.24.8,2.83,2.83,0,0,0-.4.64c-.16.48-.24,1-.4,1.52a4.46,4.46,0,0,1-.4.64,5.61,5.61,0,0,1-.48,1.52c-.08.24-.24.32-.4.56-.24.64-.16,1.44-.8,1.92a2.36,2.36,0,0,1-.16,1c-.16.4-.48.48-.64.88a17,17,0,0,1-.72,2.16c0,.16-.16.16-.24.4-.24.48-.56,1.28-.8,1.92-.48,1-.64,2.16-1.52,2.88.24.48-.32.88-.4,1.2a2.08,2.08,0,0,1-.24.64c-.16.16-.16.64-.32,1s-.48.72-.64,1.12a3.33,3.33,0,0,1-.72,1.12,7.33,7.33,0,0,1-1,2.72c-.08.16-.16.24-.24.4-.16.56-.24,1.2-.4,1.76a10,10,0,0,1-.56,1.28,2.3,2.3,0,0,1-.64,1,4.61,4.61,0,0,1-.56,1.68c-.24.48-.32,1-.72,1.36a6.06,6.06,0,0,1-.56,2.56c-.16.56.48.32.4.8a7.45,7.45,0,0,0-.32,1.92c-.48.24-.64.8-1,1.2-1.92-.32-4,.48-5.28-.4a9.87,9.87,0,0,1-5.76-1.52c0-.56-.32-1-.24-1.36,0-.88.88-1.52.8-2.64a3.81,3.81,0,0,0,1.12-2.56,4.8,4.8,0,0,0,.64-1.28,4,4,0,0,1,.4-1,4.74,4.74,0,0,0,.4-1c.08-.08.24-.16.32-.24.16-.48.16-1.28.64-1.52V64c.48-.16.4-.72.56-1s.32-.4.56-.88c.16-.32.24-.8.4-1.12s.4-.64.56-1a26.38,26.38,0,0,1,2.24-3.52,1.36,1.36,0,0,1,.32-1c-.16-.48-.48-1-.64-1.44-.08-.16.08-.32,0-.48s-.72-.56-.48-1c-.4-.16-.32-.64-.64-.8,0-1-.56-1.52-.48-2.72.24-.4-.32-.16-.32-.16-.16-.08-.16-.32-.32-.48a9.4,9.4,0,0,1-.8-2.64c-.08-.4-.48-.56-.64-1-.16-.64.4-.56.4-1,0-.24-.64,0-.72-.24a16.08,16.08,0,0,0-.72-2.64c-.08-.08-.24-.08-.24-.24-.16-.32-.32-.72-.56-1.2a2.55,2.55,0,0,0-.24-.72,8.28,8.28,0,0,0-.32-.8c-.16-.24,0-.56-.4-.64a9,9,0,0,0-.8-2.72c-.08-.24-.08-.32-.16-.4-.32-.56-.56-1.44-.88-2.08-.16-.4-.4-.8-.56-1.2a6,6,0,0,1-.48-1.28l-.32-.32a9,9,0,0,0-.24-1,5,5,0,0,1-.56-2.56,12.51,12.51,0,0,1-1.68-4.08,10.45,10.45,0,0,1-1.12-2.32,5.76,5.76,0,0,1-.64-1.2,5.59,5.59,0,0,1-.24-1.12c-.08-.48.48-.32.56-.64s.16-.56.4-.64a2.17,2.17,0,0,1,1.36.16c.4.16,1.68,1.2,2.64.56.08-.08.08-.16.24-.24a3.61,3.61,0,0,1,.88-.24l1-.24c.4-.16.56-.32.88-.24a1.12,1.12,0,0,1,.88,1c.16.16.4.24.48.4s.16.48.4.56a1.11,1.11,0,0,1,0,.72,7.11,7.11,0,0,0,.72.8,7.92,7.92,0,0,0,.64,1.44c.4,1,.72,2,1.12,3a10.17,10.17,0,0,0,.48,1.44,11.15,11.15,0,0,0,.72,1.36c.16.48.16.64.32,1.2a18.33,18.33,0,0,0,1.28,2.48,5.44,5.44,0,0,1,.24.64c.32.64.64,1.52,1,2.24a29.43,29.43,0,0,1,1.44,4,5.63,5.63,0,0,1,.64,1.44,2.7,2.7,0,0,1,.48,1.6c.88,1.12,1,2.88,2,3.92,1-1.12,1.2-3,2.24-4-.08-.32.08-.56.16-.88.16-.48.24-.72.4-1.12s.4-1,.56-1.44.24-.88.48-1.52c.24-1,1.12-2,1.36-3.2.32-.16.32-.64.72-.8a12.42,12.42,0,0,1,1-3,4.28,4.28,0,0,1,1-2.08c-.16-.56.4-1,.56-1.52.08-.16-.08-.4,0-.64,0-.08.24-.32.24-.4s0-.4.08-.64c0-.08.24-.32.24-.32.16-.64.16-1.36.72-1.84a2.11,2.11,0,0,1,.16-1.68c.08-.16.24-.24.24-.48a8.75,8.75,0,0,1,.08-2.48c.32,0,.24-.32.48-.48.4-.24,1-.08,1.44-.4a5.4,5.4,0,0,0,2.88.24,2.54,2.54,0,0,1,.72-.24,29,29,0,0,1,4.56.24,3.48,3.48,0,0,1,.32,3C1283,18.17,1282.72,18.49,1282.64,18.89Z"/><path class="cls-18" d="M1336,44.41c0,.16-.16.48-.16.72s.16.48.16.72a5.73,5.73,0,0,0-.4,1.12c-.24.8-.24,1.76-.48,2.8a6.19,6.19,0,0,1-.56,1.28c-.08.32,0,.48-.16.8a15.05,15.05,0,0,1-.8,1.68c-.16.4-.16.88-.64,1,0,1.2-.8,1.36-.88,2.48a2.63,2.63,0,0,0-.88,1.68,4,4,0,0,0-1,1,17.39,17.39,0,0,0-2.8,2.64,1.84,1.84,0,0,0-1.44,1,2.61,2.61,0,0,0-1.44.56c-.4.16-.08-.4-.48-.24-.4,0-.16.4-.4.48s-.48.08-.64.16c-.4.16-.72.32-1.12.48-.24.08-.16.16-.64.24s-.64.24-1.12.4a3.44,3.44,0,0,1-.4-.08,1.17,1.17,0,0,1-.16.32c-.16,0-.48-.16-.72-.16a10.1,10.1,0,0,0-2.24.08,13.51,13.51,0,0,1-2.8.32c-.48-.08-.48-.24-.72-.16s-.8-.32-1.12-.4a1.61,1.61,0,0,0-.4.08,9.6,9.6,0,0,1-1.92-.24c-.16-.08-.32-.24-.48-.32-.48-.08-1-.08-1.44-.16a12.77,12.77,0,0,1-1.68-.4c-.24-.08-.64-.08-.88-.16s-.4-.32-.64-.4c-.48-.16-1.12-.16-1.44-.64-.4-.16-.32.16-.72.08-.56-.48-1.84-.32-2.08-1-.88.32-1.76-.48-2.32-1-.8,1.36.64,3.6-.24,5.28.24.72.72,1.36.24,2.08-.08.48.4.4.48.72v1.68c.08.56-.64.24-.72.64.08.56.32.16.56.4a23.07,23.07,0,0,0,.32,4,1.9,1.9,0,0,0,.24,1c.24.72.88,1,1,1.68a3.31,3.31,0,0,1-.16,1.28,1.48,1.48,0,0,1-2.08.32c-2.16.32-3.92,1-6.08,1.28a3,3,0,0,1-1.92.8c-.24,0-.08.24-.16.32-.08.24-.4.32-.56.56s-.16,0-.64.24c-.08,0-.08.24-.24.24a5,5,0,0,1-1.52-.56,1.88,1.88,0,0,0-.16-.64,1.69,1.69,0,0,1-.24-.56c0-.24.08-1.12.16-1.68a3,3,0,0,1,.32-1.28,2,2,0,0,1-.24-1,24.81,24.81,0,0,1,.48-3.92v-2c.16-1.28.48-2.48.64-3.68,0-.16-.16-.16-.16-.32a2.36,2.36,0,0,0,.16-.72c0-.56.08-1.2.08-2.08,0-.24-.16-.24-.16-.48,0-.08.16-.24.16-.4,0-.4-.24-.8-.24-1.2,0-.16.08-1,.16-1.44a6.24,6.24,0,0,1,.4-1.12,16.26,16.26,0,0,1-.16-3.36V55.29a13.57,13.57,0,0,0,.32-1.76c0-.48-.24-1-.24-1.44s.16-.88.16-1.28c0-.16-.08-.64-.08-.88a27.75,27.75,0,0,0,.4-3.12,5.66,5.66,0,0,0,.08-1.12c-.08-1.28-.08-2.32-.08-3.76,0-.24.16-.48.16-.64,0-.4-.24-.72-.24-1s.16-.48.16-.8-.16-.64-.08-.88a7,7,0,0,1,.16-1.28c0-.64-.32-1.2.16-1.84-.16-.32-.08-.56-.16-.88a2.66,2.66,0,0,0,0-.8,3.59,3.59,0,0,0-.24-.88c0-.4.08-.72.08-1-.08-.56-.32-1.2-.4-1.84-.08-1.92.16-3.92,0-5.68a1.61,1.61,0,0,1,.16-.48,9,9,0,0,0-.24-1.44,30.76,30.76,0,0,0-.64-3.92,1.39,1.39,0,0,1,2.08-.56c.16.08.16.48.48.56a13.06,13.06,0,0,0,3.36-.64,2.72,2.72,0,0,0,.8-.08c.08,0,.24-.24.24-.24.16-.08.4,0,.56,0a2.84,2.84,0,0,1,.88-.24,2.53,2.53,0,0,1,1.68,1c-.16.64-.08,1.2-.24,1.84a3.6,3.6,0,0,1-.24.88c-.08.4.08,1,0,1.28a6.06,6.06,0,0,0-.48,1.44c.56-.16.88-.64,1.44-.72.64-.88,1.84-1.2,2.64-1.92.48-.08.64-.16.88.16.48-.32.48-.72,1-1a13.37,13.37,0,0,0,1.28-.48,3.28,3.28,0,0,0,1.2-.56c.48.16,1-.24,1.44-.4a7.67,7.67,0,0,1,1.44-.32,10,10,0,0,1,1.52-.24,13.41,13.41,0,0,1,3-.48c.56,0,1.12.24,1.84.32,1.2.16,2.4.16,3.2.88.4.08.4-.24.8-.16a4.72,4.72,0,0,1,.64.32c.24.08.4.16.64.24s.16.32.24.4.24,0,.4.16.4.4.56.48c.32.16.72.16,1,.32a9.74,9.74,0,0,0,2.72,1,6,6,0,0,0,1,.8c.24.16.56.4,1,.64.24.16.56.24.56.56.4-.08.4.08.72.08,0,.4.56.24.64.56s.16.24.48.56a1.75,1.75,0,0,1,.4.24c.08.08.08.24.16.4.56.64.64,1,1.2,1.44.32.16.64.8.88,1.2l.64.64a7.15,7.15,0,0,1,1.28,1.68c.08.24.16.4.24.64s.32.32.4.56a1.68,1.68,0,0,0,.32.88,7.87,7.87,0,0,1,.56.72s.24.16.24.24-.08.32,0,.4.32.24.32.4-.08.48,0,.72a2.89,2.89,0,0,1,.24.56,9,9,0,0,1,.4,1c.08.56-.32,1.2.24,1.68a9.11,9.11,0,0,0,.16,2.08C1336.16,41.85,1336,43.13,1336,44.41Zm-10.32-6.32a6.72,6.72,0,0,1-.56-2.08,2.57,2.57,0,0,1-.8-1.52,6,6,0,0,1-1.2-1.6,7.72,7.72,0,0,1-1.12-1.68,6.58,6.58,0,0,1-1.92-1.6,10.94,10.94,0,0,1-.88-.8c-.16-.16-.56-.16-.8-.32s-.4-.24-.64-.4c-.08,0-.16-.24-.24-.24-.48-.24-1,0-1.12-.4-1.28.16-2.8-.16-4,.16a8.32,8.32,0,0,1-.88-.56c-.32-.16-.48-.56-1-.48-.32,0-.4.16-.64.24-.64.24-.64.16-1,.48a2.48,2.48,0,0,0-.48.32c-.08.08-.08.24-.16.32s-.32,0-.4.08a2.14,2.14,0,0,1-.48.4c-.4.08-.4-.24-.72-.16-.16,1-1.36.88-1.84,1.68-.4-.16-.48.24-.88.24a2.93,2.93,0,0,1-1,1c-.32.24-.56.64-1,.48a1.6,1.6,0,0,1-1,1.2c0,.56-.56.64-.56,1.28-.24,0-.56.48-.64.56-.24.4-.32.72-.56,1.2-.32.8-1.12,1.6-1,2.4a1,1,0,0,1-.64.48,7.07,7.07,0,0,1,.24,2.64c0,.4.24.8.24,1.12s-.16.64-.16,1c0,.72.32,1.52.32,2.32,0,.4-.24.8-.16,1.28a6.34,6.34,0,0,1,1,2.24,3.61,3.61,0,0,1,1.36,2.16,8.17,8.17,0,0,1,1.44,1.44,13,13,0,0,1,3.2.88l.48.24c.16.08.24.32.4.4s.48.08.64.16c1,.32,2,.08,3.12.32.24.08.48.32.72.4a5.14,5.14,0,0,1,.56.16c.16.08.08.24.32.24a11.31,11.31,0,0,1,1.6-.32c.16,0,.4.16.64.16s.32-.24.48-.24c.32-.08.72.08,1,0s.32-.24.48-.24a8.28,8.28,0,0,0,1.28-.4,8.65,8.65,0,0,0,3-1.2c.88-.08,1.12-.8,2.08-.72-.08-.56.4-.56.56-.88.4-.08.48-.56.88-.64.24-.72.8-1,1-1.68.32,0,.32-.32.56-.32-.24-.64.4-1,.56-1.6a14.32,14.32,0,0,0,.16-1.92,16.37,16.37,0,0,0,.4-1.92,21.32,21.32,0,0,0,.16-4.4A8.13,8.13,0,0,0,1325.68,38.09Z"/><path class="cls-18" d="M1386.48,41.53c.08.72.32,1,0,1.68-.24.4-1,.56-1.2.88a3.09,3.09,0,0,0-1.92.08c-.72-.56-2.4-.16-3.12-.72a2.09,2.09,0,0,1-.88.24,20.8,20.8,0,0,1-4.8-.48c-1.12-.08-2.48-.08-3.44-.08a6.18,6.18,0,0,1-1.2.16c-.8-.08-1.52-.56-2.32-.56a16.91,16.91,0,0,0-1.92.16,7,7,0,0,1-1.28-.16c-.16,0-.4.16-.56.16a1.88,1.88,0,0,0-.64-.16c-.72,0-1.44.32-2-.32a1.74,1.74,0,0,1-1.36.4c-.48-.08-.8-.16-1-.16s-.4.24-.4.24c-.32,0-.8-.32-1.2.08-.16-.24-.8,0-1-.24s-.24.24-.48.24c-.88-.4-1.6-.08-2.48-.08a13.78,13.78,0,0,0-2.72-.16,4.31,4.31,0,0,0,.32,3.44c.08.56-.16.8-.16,1.2.08.16.32.16.4.24s0,.32.08.4a11,11,0,0,1,1.28,1.44c.48.8,1.36,1.44,1.92,2.4a13.33,13.33,0,0,0,1,1.28,5.87,5.87,0,0,1,2.08,1.12,2.63,2.63,0,0,0,.48.24,12.66,12.66,0,0,0,1.68,1.2,8.38,8.38,0,0,0,1,.16c.48.16,1.2,1,1.92,1a6.18,6.18,0,0,1,.72-.08,5.44,5.44,0,0,1,1.2.16,2.88,2.88,0,0,0,1.92-.48,6.05,6.05,0,0,0,1.2-.08c0-.08.08-.24.08-.32s.24.08.32,0,.16-.24.24-.24c.32-.08.72.16,1-.08a1.82,1.82,0,0,1,.8-.4,8,8,0,0,0,1.52-1l1-.64c1-.64,1.68-2,2.64-2.88a5.23,5.23,0,0,1,1-2.72,4,4,0,0,1,.72-2.32,2.12,2.12,0,0,1,1.44-.08c.32.16.56.32,1,.56.32.16.64.16,1.28.4.16.08.32.24.48.24s.48,0,.8.08c.16,0,.32.24.48.24.4.08,1.12-.16,1.52,0,.08.08.16.24.32.32a1.37,1.37,0,0,1,.72.64,3.07,3.07,0,0,1-.56,1.76c-.08.24-.16.72-.48.64-.08.4.16.48.08,1-.08.32-.32.48-.4.88a11.43,11.43,0,0,1-.56,1.76,4.62,4.62,0,0,1-.56.64,3,3,0,0,1-1.2,1c.24.48-.48.72-.64,1-.24.64-.88,1-1.6,1.52-.8.72-1.84,1.2-2.56,1.76l-.72.48a3,3,0,0,1-1.28.88c-.24.16-.32.08-.56.16,0,0-.16.24-.24.24a12.58,12.58,0,0,1-1.84.32c0,.08-.32.24-.32.24l-2.4.48a3.23,3.23,0,0,1-1.68.24c-.24,0-.56-.16-.72-.16s-.72.56-1.2.16c-.4-.16-.16.48-.64.32s-1.2.16-1.84.08a4.23,4.23,0,0,1-1-.24c-.32-.08-.4.16-.56.08s-.24-.24-.24-.24a19.18,19.18,0,0,1-3.2-.48c-.32-.08-.72,0-.88-.4a3,3,0,0,1-2.48-1,3.61,3.61,0,0,1-.88-.24c-.64-.32-1.52-.56-1.92-1.36-.8,0-1.12-.56-1.52-1a2.42,2.42,0,0,1-2-1.2,8.45,8.45,0,0,0-1.2-1.2c-.16-.16,0-.56-.24-.72-.88-.4-1.28-1.28-2.24-1.6-.16-.56-.72-1-1-1.44a3.28,3.28,0,0,1-.32-.8c-.16-.24-.4-.4-.56-.64-.24-.72-.32-1.6-.56-2.4a1.53,1.53,0,0,1-.24-.64c-.08-.48,0-1-.08-1.36s-.32-.64-.4-1c-.08-.48,0-1-.08-1.68a9,9,0,0,1-.24-1.44c0-.72.16-1.52.16-2.32,0-.24-.08-.64-.08-.88.08-.56.48-1.12.56-1.68a1.51,1.51,0,0,0-.16-.64c0-.24.24-.56.08-.8.24-.16.32-.64.4-.88a11.59,11.59,0,0,1,.24-1.28c.08-.08.24-.16.32-.24a.72.72,0,0,0,.08-.4c.08-.08.24-.16.32-.24s-.08-.4,0-.48a2.84,2.84,0,0,1,.4-.64c.08-.24.16-.56.24-.8s.32-.32.4-.48-.08-.48,0-.64.24-.08.32-.24c.16-.64.24-1,.4-1.6a2.77,2.77,0,0,1,1-1.52c-.24-.24,0-.48,0-.72a6.09,6.09,0,0,0,1.28-2.24c1-.64,1.52-1.76,2.48-2.48a3.69,3.69,0,0,1,.8-.4c.08-.08.08-.16.24-.24s.32-.08.4-.08a8.34,8.34,0,0,1,1.6-1.2c.64-.24,2.24-.08,2.8-.8a3.91,3.91,0,0,0,1.84-.64,3.19,3.19,0,0,1,1.84-.48,5.06,5.06,0,0,0,2.16-.16,7.54,7.54,0,0,1,1.6-.24c.16,0,.4.16.64.16.88,0,1.6,0,2.72.08.56,0,1-.24,1.68-.24.08,0,.16.16.32.16a3,3,0,0,1,1.2,0,4.35,4.35,0,0,1,.8.24c.56,0,.88.32,1.36.56.24.16.64.16.88.32a4.89,4.89,0,0,1,1,.4c.64.24,1.36.32,1.6,1,.24.08.4,0,.64.16a8.15,8.15,0,0,1,1.44,1c.4.32.8,1,1.36,1.36.08.32.32.48.4.88.88.48,1.36,1.44,2.4,1.84.32.72.88,1.12,1,2,.24.32.48.72.8,1.2.08.24.48.56.56.88a5,5,0,0,0,.8,1.6,5.17,5.17,0,0,1,.88,1.28c.08.4.08.88.16,1.28s.32.8.4,1c.16.8,0,1.6.08,2.48.08.56.16,1.28.24,1.92a4.92,4.92,0,0,0,.08,1c0,.32.24.56.24.8S1386.48,41.29,1386.48,41.53Zm-11.44-8c-.24-.16,0-.4-.08-.64-.08-.08-.72-.08-.4-.48-.32-.32-1-.4-.88-1-.48.08-.64-.48-.8-.56s-.24-.08-.32-.16c-.4-.32-.48-.88-.88-1.2-.32-.16-.8.24-.8-.4a3.72,3.72,0,0,1-3.2-1.6,20.82,20.82,0,0,1-3.2.08c-.72-.48-1.36-.24-2.32-.48-.4-.08-.24-.64-.8-.64-.72.32-1.36-.24-2.16-.32a11.91,11.91,0,0,1-2.72.88c-.48.16-1.28,1.2-1.6,1.52-.72.88-1.44,1.76-2.08,2.48.08.64-.24.88-.16,1.44-.72.56-.88,1.76-1.12,2.8a16.92,16.92,0,0,0,2.72-.16,4.61,4.61,0,0,1,1-.08c.24-.08.4-.24.64-.24,1-.08,2,.08,3,0s2-.32,2.88.08a9,9,0,0,1,3.84-.16c.16,0,.16-.16.4-.16s.16.16.4.16.32.24.64.16c2.4-.4,5.44.24,8.4-.24C1375.6,34.41,1375.44,33.69,1375,33.53Z"/><path class="cls-18" d="M1421.6,28c-.24.24-.24.08-.48.24s-.24.32-.56.4c-.08,0-.24.16-.4.08-.88-.08-.88-1.12-1.76-1.52a9.67,9.67,0,0,1-1.52.08,10.68,10.68,0,0,0-1.44.56,3.08,3.08,0,0,1-.8.24c-.64.32-.88.48-1.44.8-.4.4-.56.8-1,1.28a12.84,12.84,0,0,0-2,1.44c-.24.32-.24.88-.56,1.28-.08.24-.48.32-.64.56-.08.08-.08.24-.16.32s-.16.24-.24.32.08.4,0,.64-.56.72-.4,1.36c-.16.24-.48.4-.56.64s.08.48,0,.64-.24.16-.24.24c-.16.32-.16.64-.32,1s-.32.48-.4.72.08.64,0,1a4.75,4.75,0,0,1-.32.64,8.64,8.64,0,0,1,0,1.44c-.08.72-.4,1.36-.56,2.16a15.41,15.41,0,0,1-.08,1.84c0,.32-.24.64-.24,1-.08.8.4,1.6-.32,2.24a3,3,0,0,1-.08,2.64c.8,2.24-.4,5.6.24,8.08.24.64,1.2.48,1.68.88,0,.32.4.56.48,1a2,2,0,0,1-1,1.76c-.4.16-.8-.08-1.6.08a10.15,10.15,0,0,0-1.44.64,17,17,0,0,1-3.2.8l-1.6.24c-.64.16-1.28.56-1.76.48-1-.16-1.44-1.28-1.44-2.48a8.8,8.8,0,0,0,.16-1.44,8.49,8.49,0,0,0-.32-1.52,36,36,0,0,1,0-4.16c0-.4.16-.8.16-1.12a6.36,6.36,0,0,1-.24-1.2,14.22,14.22,0,0,1-.4-2.24c0-.32-.08-.8-.08-1.12a14.72,14.72,0,0,1,.32-1.84c0-.24-.16-.32-.16-.64,0-.48.24-1.44.24-2.16s-.32-1.28-.4-1.92c0-.32.08-.88.08-1-.08-.32-.24-.48-.24-.72-.08-.64-.08-1.52-.16-2,0-.16-.08-.48-.08-.64a9.94,9.94,0,0,1,.32-1.28c.16-1-.08-2.16,0-3.2.08-.8.48-1.6.48-2.32,0-.32-.08-.72-.08-1s.16-.72.16-1a3.6,3.6,0,0,1-.24-.88,10.93,10.93,0,0,1,.16-2.24,10,10,0,0,0-.24-1.52,3.24,3.24,0,0,0,0-.88c0-.24-.24-.4-.24-.56,0-.48.32-1.12.32-1.68a4.92,4.92,0,0,1,.16-2.4c0-.56-.4-.8-.64-1.2.4-.88-.16-1.76.08-2.56a1.62,1.62,0,0,1,1.28-.48c.8,0,1,.56,1.44.88a10.19,10.19,0,0,0,3.12,0c.56,0,1.2.16,1.68.16.8-.08,1.36-.72,2.56-.32.4.24.32.64.64,1.12,0,.08.24.24.24.32,0,.24-.16.24-.16.32,0,.24.16.24.16.4a5.15,5.15,0,0,0-.24,2.72c.64,0,1-.48,1.36-.88a6.11,6.11,0,0,0,.72-.72c.08-.08.08-.32.16-.4s.32-.08.4-.16c.24-.08.48-.48.8-.72s.8-.48,1-.88c1-.16,1.84-1.12,3-.72.48-.48,1.84-1,2.48-.48.4.08.4-.4.64-.48,1.36.48,2.72-.48,4-.16.48.08.72.4,1,.56a2.81,2.81,0,0,1,1,.4c.72,1.12.16,2.56.08,3.84-.08.32.08.56.08.8,0,.48-.16,1-.16,1.44,0,1.2.16,2.4.16,3.6C1421.76,27.69,1421.76,27.85,1421.6,28Z"/><path class="cls-18" d="M1438.32,61.61a4.86,4.86,0,0,1-1,1.68c-.88.16-1.76,0-2.88.08a12.37,12.37,0,0,0-1.68.08,10.2,10.2,0,0,1-1.52.08c-.4-.08-.64-.4-1-.4a4.48,4.48,0,0,1-.72-.56c0-.8-.4-1.2-.4-2.08-.32-.4-.8-.64-1.12-1.12a5.6,5.6,0,0,1-.16-2.48c0-.24.16-.4.24-.64a3.1,3.1,0,0,0,0-.88c.08-.24.56-.32.32-.56.48-.16.72-.64,1-1a4.28,4.28,0,0,0,2.08-1c.08,0,.24-.24.24-.24.16,0,.32.08.4,0s.24-.32.4-.4a9.19,9.19,0,0,1,1.68-.16,4.19,4.19,0,0,1,1.44.16c.4.16.64.64,1,.88.16.08.32.08.4.16a2.82,2.82,0,0,1,.8.64,3,3,0,0,1-.08,1.68,5,5,0,0,1,.64,1.84,19.43,19.43,0,0,1,.48,2.08A6.62,6.62,0,0,1,1438.32,61.61Zm1-52.88c-.08.88,0,1.84-.08,2.48-.08.4-.08,2.08-.08,3,0,.24.16.48.16.64a12.87,12.87,0,0,0-.32,3c0,.32.08.72.08,1.36,0,.16-.16.4-.16.64s.24.64.24,1a8.17,8.17,0,0,1-.32,1.12c0,.48.16,1,.16,1.28-.08.72-.48,1.12-.48,2.08a2.88,2.88,0,0,1,0,1.44c-.08.32-.24.72-.32,1.12a30.16,30.16,0,0,0,.24,3.52c0,.8.08,1.6,0,2.56,0,.24-.08.48-.08.8,0,1.28.08,2.64,0,4,0,.72-.32,1.44-.32,2.16,0,.4.24.72.24,1.2a20,20,0,0,1-.16,3,13.73,13.73,0,0,1-.08,1.92,3.87,3.87,0,0,1-1,1.36c-.48.16-.88-.16-1.44-.16-.4.08-.32.32-1,.24-.32,0-.64-.24-1-.24s-.8,0-1.12-.08-.64-.32-.88-.4c-.48-.08-.8,0-1-.16a1.13,1.13,0,0,0-.64-.48,8,8,0,0,0-.32-2,4.2,4.2,0,0,0,0-2.8c.08-.32.24-.56.32-.88s-.08-.4-.08-.64.08-.48.08-.64-.08-.4-.08-.64.16-.48.16-.72c-.08-.48-.32-.88-.4-1.36,0-.32.16-.32.16-.56a2.83,2.83,0,0,0-.08-.48.5.5,0,0,1,.24-.4.37.37,0,0,0-.16-.4,20.08,20.08,0,0,0,.32-2.16c0-.72-.48-1.44-.08-2.08a2.71,2.71,0,0,1-.48-1.2c0-.32.24-.72.32-1.28a14,14,0,0,1-.24-1.92,2.06,2.06,0,0,1,.4-1.12c-.08-.32-.16-.48-.24-.8a1.62,1.62,0,0,0-.08-.4,3.47,3.47,0,0,0,.08-.4,46.58,46.58,0,0,0-.24-6.56,1.26,1.26,0,0,0,0-.56c-.16-.72-.4-2.16-.56-3.2a6.67,6.67,0,0,0,.48-1.68,9.52,9.52,0,0,0-.4-.88c-.32-1.2.08-2.64-.32-3.68a5.27,5.27,0,0,0,.32-.88c0-.4-.16-.8-.16-1.28a4,4,0,0,1,.4-1,14.91,14.91,0,0,0,2.72-.56,6.05,6.05,0,0,1,1.68-.08h.56a15,15,0,0,1,5,.72,7.59,7.59,0,0,1,.4,2.64C1439.6,7.69,1439.36,8.17,1439.36,8.73Z"/><path class="cls-18" d="M1013.09,159.77c-.32,0-.72-.24-1.12-.24a6.45,6.45,0,0,0-1.2.08c-.32,0-.64-.16-1-.16-.8,0-1.68.08-2.64.08-.56,0-1,.16-1.52-.16a9.67,9.67,0,0,1-2.72.48c-.56-.32-.56-1.12-1-1.44-.08-1,0-2.08-.16-3.28,0-.32-.08-.72-.08-1a7.1,7.1,0,0,1-.24-1.12c0-.32.16-.72.16-1,0-.56-.24-1.12-.24-1.68s.16-1.12.16-1.68c0-1.2-.16-2.32-.16-3.52,0-.56.16-1.12.16-1.68a3.61,3.61,0,0,0-.24-.88c0-.16.08-.16,0-.4s-.16-.24-.16-.4c0-.32.24-.48.32-.88a6.93,6.93,0,0,1-.08-1.44c0-1,.08-3,.08-4.4,0-.72.4-1.36-.24-1.92a11.26,11.26,0,0,0,.24-4.88c.4-.32.24-.8.32-1.2a12,12,0,0,0,0-2.4c0-1,.16-1.68.08-2.56,0-.24.08-.4,0-.56s-.16-.16-.08-.4a.88.88,0,0,0-.16-.72c-.08-1.28.24-2.56.24-3.76a7.42,7.42,0,0,1-.08-1.28,16.65,16.65,0,0,0,0-2c0-.16-.08-.24-.08-.32.08-.88.24-2.64-.48-3.28.4-.56,0-1.36.08-1.92,0-.32.08-1.28.16-1.92,0-.32.16-.64.16-.88,0-.48-.56-1.2-.08-2-.32-.64-.72-1-.64-1.52.08-1,1-1.28,2-1.52.16-.08.32.08.48,0s.24-.24.4-.24a4,4,0,0,1,1,.24c.64.08,1.52-.08,1.76.32.88-.08,1.6-.32,2.4-.32.32,0,.48.24.88.24s.56-.24.88-.08a5.55,5.55,0,0,0,1.52.8,5.24,5.24,0,0,1,.4,2c0,.64.08,1.36.08,2-.08.8-.32,1.6-.32,2.32-.08,1,.4,1.76-.08,2.48.24.56.48.72.08,1.28.48.8.24,1.52.24,2.48,0,.8,0,1.92-.08,3v.8c0,.16-.16.4-.16.64a2.54,2.54,0,0,0,.24.72,5.82,5.82,0,0,0,.32,2.24,1.91,1.91,0,0,1-.24.72,4.29,4.29,0,0,1,.24.8,8.69,8.69,0,0,0-.08,1.44,6.21,6.21,0,0,1,.16,1.28c0,.24-.16.56-.16.8,0,.4.24.56.24.88,0,.48-.32,1.2-.32,1.68,0,.08.16.24.16.4-.08.32-.24.56-.32.88.16.32.24.88.4,1.28s-.08.72-.08,1.28a7.57,7.57,0,0,0,.4,1.44c0,.56-.16,1-.16,1.6-.08,1.28.4,2.64.24,3.84,0,.48-.24,1-.24,1.44a10,10,0,0,0,.32,1.28,21,21,0,0,1,.08,4,26.92,26.92,0,0,0,0,5.68c0,.24.24.56.24.8.16,1.36-.08,2.64,0,3.76.08.32.32.64.4,1a1.56,1.56,0,0,1,.08.64.68.68,0,0,1,.16.48C1014.29,159.13,1013.57,159.13,1013.09,159.77Z"/><path class="cls-18" d="M1034,103.53c.08.16.4.08.4.24-.08.4-.24,1-.32,1.28,0,.16.16.24.16.4a7.45,7.45,0,0,1-.4.8c-.08.24.08.56,0,.72-.32.32-.24.64-.4.88a1.91,1.91,0,0,1-.72.16c-.08.48.16.48.08.88-.4.56-.64,1.36-1.2,1.76a1.63,1.63,0,0,1-.88,1.52c0,.4-.32.72-.48,1s-.32.8-.48,1.12a2,2,0,0,0-.56.32c-.08.16-.08.48-.24.64,0,0-.24,0-.32.08a8,8,0,0,1-1.2,1c-.24.08-.56,0-.72.08s-.8.48-1.12.4-.48.32-.88.32a7,7,0,0,1-1.52-.8c0-.48.24-.72.16-1.28.88-.56.64-2.32,1.52-3-.24-1,.56-1.68.8-2.48,0-.24-.16-.4-.16-.48,0-.24.08-.8.16-1.36a4.88,4.88,0,0,0,.24-1.76c0-.4-.48-.88-.32-1.28a4.56,4.56,0,0,0-1,.08c-.4.08-.64.32-1,.32-.64-.08-.8-.64-1.44-1,.56-1-.48-2.24.32-2.8a1.4,1.4,0,0,1,.32-2.24c0-1,.8-1.6,1.36-2.16.48-.4,2-.24,2.48-.88.56.16,1-.24,1.36-.16a12.78,12.78,0,0,1,1.68.4c.4.4.56.32,1.12.64.24.32.56.08.8.4.48-.08.56.56,1,.8.32,0,.48.4.8.64s.64,1.44,1,1.92c-.24.56.24,1.52.08,2.24C1034.37,103.21,1034.29,103.61,1034,103.53Z"/><path class="cls-18" d="M1110.61,156.89a3,3,0,0,1-.4.64c-.4.32-.64.24-1.2.4-.24.08-.64,0-1,.08a7.49,7.49,0,0,1-1.28.32c-.48.08-1,.08-1.6.16-.88.08-1.76.32-2.72.32a4.09,4.09,0,0,1-2.32.32c-.24-.4-.64-.64-.88-1a3.83,3.83,0,0,1,.72-2.16c-.08-.24-.08-.48-.16-.72s.08-.16.08-.32.16-.16.08-.32a4.17,4.17,0,0,1,.08-1.68c0-.16.24-.4.24-.64a44.48,44.48,0,0,0,.08-4.64,6.25,6.25,0,0,0,.32-.72c0-.32-.16-.64-.16-1s.4-.8.48-1.12c0-.48-.4-1,.16-1.28-.48-.8-.24-1.76-.24-2.72,0-.32-.08-.64-.08-.88,0-1.36.32-2.8.24-4.16-.08-.56-.4-1.2-.48-1.84a3.22,3.22,0,0,1,0-.88,3.61,3.61,0,0,1-.24-.88c-.08-.56.08-1.12,0-1.68s-.24-.88-.24-1.28.24-.88.16-1.28a4,4,0,0,0-.24-1,3.6,3.6,0,0,0-.08-1c-.08-.32-.4-.56-.64-1a8.55,8.55,0,0,0-.48-.88c-.24-.4-.56-.88-.88-1.36-.16-.24-.32-.24-.64-.48,0-.08-.08-.24-.08-.32-.24-.08-.24.08-.56,0-.16,0-.16-.16-.32-.24a4.26,4.26,0,0,0-1-.24,3.11,3.11,0,0,0-1.2.16c-.4.08-.88.08-1.12.16s-.24.16-.4.24-.4,0-.56.08a14.07,14.07,0,0,0-1.44.88c-.4.32-.88.56-1.28.88-.16.08-.16.32-.32.4s-.56.16-.72.4c-.16.08-.24.24-.4.48-.08,0-.32.24-.4.4s-.16.48-.56.48a5.35,5.35,0,0,1-1.44,2.64c-.08.16-.32.24-.4.4a8.56,8.56,0,0,0-.56,1.52c0,.08-.24.24-.24.24-.08.16,0,.4-.08.56s-.24.16-.24.24.08.32,0,.4c-.16.32-.64.64-.8,1-.08.24-.08.72-.16,1s-.32.4-.4.64-.08.64-.16,1c0,.08-.16.08-.24.24s0,.32,0,.48c-.08.32-.32.48-.4.8s-.08.64-.16.88c0,.08-.24.24-.24.24-.16.4,0,1-.48,1.2.08,1.2-.8,2.16-1,3.44a5.66,5.66,0,0,1,.08,1.12c0,.4-.08.88-.08,1.2s-.24.56-.32.88c-.08.48-.08,1.2-.16,1.84,0,.24-.16.48-.16.72s.16.24.16.4c-.08.72.32,1.44-.08,2.24.16.48.72,1.44.08,1.92a2.57,2.57,0,0,1,.64,1c.08.48,0,1.12.08,1.68s.72,1.12.48,2.08c-.16.72-.88.8-1.44,1.28-.48-.32-1.2-.24-1.84-.56-.08-.08-.16-.24-.32-.32a16.71,16.71,0,0,0-2,.08,8.08,8.08,0,0,1-1.36.24c-.4,0-.72-.24-1-.24-.64-.08-1.12.24-1.68-.08-.88-.88-.4-3.12.24-4-.24-.16-.16-.56-.4-.72.48-.32.48-1.6.4-2.24s.4-1,.48-1.68c0-.32-.16-.64-.16-1,.08-1.28.24-3.76.32-5.76,0-.48.08-1.2.16-1.92,0-.16-.16-.16-.16-.32,0,0,.24-.4.32-.56,0-.8-.4-1.52.16-2.24.08-.24-.24-.32-.24-.48s.08-.48,0-.64a5,5,0,0,1-.48-1.44c0-.16.16-.24.16-.4a3.41,3.41,0,0,1-.32-.56c0-.16.08-.4.08-.64s-.32-.56-.4-.88.16-.32.16-.56a6.41,6.41,0,0,0-.48-2.4c-.32-.48-.16-.8-.24-1-.16-.48-.4-.8-.64-1.36-.08-.24-.24-.32-.32-.72s-.32-.8-.48-1.2a11.78,11.78,0,0,0-1.92-2.72,5.07,5.07,0,0,1-1.76-.72c-.32-.08-.56.08-1,.08-.24.08-.64-.16-.88-.08a2.63,2.63,0,0,0-.48.24,12.85,12.85,0,0,0-1.6.56c-.72.32-1.44.48-2.08.72-1,.48-1.68,1.28-2.64,1.68-.48.64-.72,1.68-1.6,2a1.85,1.85,0,0,1-.24,1.28c-.08.24-.24.4-.24.64s-.08.48-.16.8c-.08,0-.24.16-.32.24s.08.24,0,.4c-.16.48-.32,1.36-.88,1.6a2,2,0,0,1-.48,1.44,7.78,7.78,0,0,1-.8,3.44c-.4,1-.24,2.8-1,4-.08.48.32.56.24,1,.08.56-.4.64-.4,1.12a7.54,7.54,0,0,1-.4,5.44c.48.56.24,1,.24,1.84,0,.24.16.32.16.48-.08.32-.24.64-.16.88a4.22,4.22,0,0,0,.24,1c0,.24-.16.4-.16.72,0,.48,0,1.6.08,2.4.08,1.2.88,2.4.4,3.6-2.24,1.36-4.8,0-7.76.08.16-.48-.4-.32-.64-.56a9.78,9.78,0,0,1-.16-1.52c0-.48.32-.88.4-1.28,0-.24-.16-.48-.16-.8.08-1.12.24-2.56.24-4a6.57,6.57,0,0,1,.16-2.16c-.48-1.12.16-2.48-.24-3.6.48-1.44,0-3,.48-4.8.08-.4-.4-.32-.4-.64-.08-1-.08-2-.08-3.12,0-.32.16-.56.16-.8a9.77,9.77,0,0,0-.24-1.36c0-.56.08-1,.08-1.6-.08-.4-.16-.88-.24-1.28a9.89,9.89,0,0,1-.24-2.32c0-.24.16-.48.16-.64s-.16-.4-.24-.64a5.31,5.31,0,0,1-.08-1V125a3.84,3.84,0,0,0-.08-1.68c-.08-.32.08-.48-.08-1,0-.48-.16-.72-.08-1s.16-.64.08-1A8.37,8.37,0,0,0,1042,119c.08-.4.32-.56.4-.88a6.07,6.07,0,0,1,.32-3.12,3.78,3.78,0,0,1,.8-1.52c.88-.56,2,.32,2.88.72,1.68-.16,3.68-.08,5.52-.16a13.18,13.18,0,0,1,.88,1.36c0,.88-.24,1.28.08,1.92.64.16,1-.24,1.44-.48.08,0,.32-.08.4-.08.4-.32.8-1,1.44-1,.24-.32.64-.4.8-.72a4.06,4.06,0,0,0,1-.4c.08-.08.4-.16.48-.24.24-.32.32-.24.4-.24.24-.16.4-.56.64-.64s.64-.16,1-.24l.72-.24a8.3,8.3,0,0,1,1.76-.48c.8-.08,1.6.48,2.56.08.24,0,.4.24.64.4a3.11,3.11,0,0,1,2.56.32,2.16,2.16,0,0,1,1.2-.24c.48,0,1.2.8,1.6,1s1,.24,1.44.4a.48.48,0,0,1,.08.32c.08,0,.24-.08.32,0,.16.24.32.16.32.24a6,6,0,0,1,2.16,1.76,6.36,6.36,0,0,1,.48,1.76,4.89,4.89,0,0,0,.56.8c.08.24.24.56.32.8.32.56.48,1,.72,1.52,1-.16,1.36-1,1.76-1.76.4-.16.88-.4.88-1,1.12-.08,1-1.28,2.16-1.28,0-.4.48-.4.48-.88a20.39,20.39,0,0,0,2.8-1.76c.56-.32,1.44-.64,2.16-1.12a14.07,14.07,0,0,0,3.52-.32c1.2-.08,2.48-.08,3.6-.16a18.3,18.3,0,0,1,3.6.08c.4.08.88.32,1.28.4s1,.16,1.44.32a3.32,3.32,0,0,1,.88.56,5.58,5.58,0,0,0,1,.4,3.13,3.13,0,0,0,.64.8c.24.24.4.16.48.24s.16.32.24.4a7.16,7.16,0,0,0,1.52,1.2,1.5,1.5,0,0,0,.64.88c.16.8.72,1.52,1,2.4l.16.32c.16.56.08,1.28.24,2.08,0,.16.16.32.24.64.08.64.16,1.36.32,2.08a5.81,5.81,0,0,1,.08,2.64c.32.48.32,1.36.72,1.76a9.7,9.7,0,0,0-.16,1.84c0,.8.4,1.84-.08,2.32,1.12,1.44.56,3.6.64,5.92a14.12,14.12,0,0,1,.24,1.68c0,1-.32,2.32-.32,3,0,.24.16.56.08.8s-.24.72-.24,1a6.39,6.39,0,0,0,.24,1.2c0,.24-.16.4-.16.72s.16.56.08.8c0,.4-.24.8-.24,1.12s.08.56.08.8v.8c0,.32.24.8.24,1.12.08.72-.16,1.2.08,1.68s.48.4.48,1A3.44,3.44,0,0,0,1110.61,156.89Z"/><path class="cls-18" d="M1176.36,105.21c0,.32-.56.08-.4.48-.32.32-.4.8-.72,1a10.73,10.73,0,0,1-1.52.08c-.8-.16-1-1.12-1.52-1.6a4.36,4.36,0,0,0-2.4-.4c-.72.16-.72.64-1.36.88a19.13,19.13,0,0,1-.32,1.92,14.54,14.54,0,0,1-.16,3.2c-.24,1-.64,1.92-.32,2.8,1,.48,2,0,3.2.24a8.72,8.72,0,0,1,1.92.56c.8-.08,1.2-.08,1.68.32.8.48.56,1.6.72,2.8a5.56,5.56,0,0,0,.24.64,19.35,19.35,0,0,0-.16,3.12c-.32.24-.48.64-.72.88a20.65,20.65,0,0,1-3.84.08c-.24,0-.8.32-1-.16a4.69,4.69,0,0,1-2.24.24c-.48,1.2-.16,3.28-.72,4.48a6.79,6.79,0,0,1,.32,2.32c0,.24.16.48.16.8s-.16.48-.16.72.08.56.08.8a8.08,8.08,0,0,1-.4,2.48c.32.56.08,1.44.08,2.16a19.7,19.7,0,0,1-.08,2.16c-.08.64-.32,1.44-.4,2.32a6.43,6.43,0,0,1-.32,2.56,4.23,4.23,0,0,0,.24,1c.16,1.6-.16,3.52,0,5.28,0,.32.08.88.08,1.2a1.53,1.53,0,0,1,.24.64c.08.32-.16.64-.16,1s.4,1.12.48,1.76c.16.88,0,1.92.08,2.72a3.05,3.05,0,0,1,.24.8,5.1,5.1,0,0,1-.32,1.92c-.08.24-.64.4-.88.72h-3.12c-.08,0-.8.4-.88-.16-.32.08-.8.48-1.2.24-.16.32-.48.4-.72.56-.64.16-.64-.24-1-.4-.08,1.28-1.68,1.2-2.72.88.24-.48-.32-.8-.32-1.28s.4-1.52.4-1.92c.16-1.36-.08-3,.48-3.92-.32-.48.08-1.12.08-1.68a24.59,24.59,0,0,1-.24-2.72c0-2.4.24-4.4.16-6.32-.08-1.2-.16-2.24-.16-3.44.48-.56.24-1,.24-1.92,0-.32.16-.64.16-1a6.5,6.5,0,0,1-.08-1.76,3.15,3.15,0,0,1,.32-1c0-.16-.16-.4-.16-.64s.4-.64.32-.88a2.57,2.57,0,0,1,.16-1.2c0-.8-.48-1.92-.08-2.56a9.12,9.12,0,0,0,0-3c0-.08.24-.24.16-.4s-.24-.72.16-1c-.56-.8,0-2.48-.32-3.76-.4-.32-.88-.16-1.52-.16-.16,0-.4-.16-.48-.08-.56,0-.88.4-1.36.48a12.88,12.88,0,0,1-3-.08c-.08-.32-.56-.32-.4-.8-.08-.32-.64-.16-.64-.56a4.36,4.36,0,0,1,1-2.4,6,6,0,0,1,.32-2.08,2.2,2.2,0,0,1,.8-1.52c.08-.08.4-.08.48-.24s.08-.4.32-.4a15.51,15.51,0,0,0,2.72-.16c.16-.08.32-.24.48-.24.8-.16,1.68.16,2.32-.4a4.63,4.63,0,0,0-.08-1.52,6.53,6.53,0,0,1,.48-3.2c-.08-.32-.08-.72-.24-.88a14.74,14.74,0,0,0,.8-3.36.8.8,0,0,0,.32-.4c.08-.08.24-.16.24-.24.16-.24.16-.56.32-.8l.24-.24c.08-.08,0-.24.16-.4l.24-.24c.08-.08.08-.24.16-.4a12.46,12.46,0,0,1,1-1,11.34,11.34,0,0,0,.88-1.2c.48,0,.64-.24,1-.16.16-.48.08-.72.56-1a6.62,6.62,0,0,0,1-.64,3.32,3.32,0,0,0,1.52-.08,5.12,5.12,0,0,1,1.2-.4,9.94,9.94,0,0,1,2.16.08c1.76.24,2.88,1.28,4.32,1.76.4.72,1.36.88,1.68,1.6.88.16,1,1,1.92,1.2a5.13,5.13,0,0,1,.08,2.48C1177.72,103.77,1176.68,104.17,1176.36,105.21Z"/><path class="cls-18" d="M1210,124c-.24.24-.24.08-.48.24s-.24.32-.56.4c-.08,0-.24.16-.4.08-.88-.08-.88-1.12-1.76-1.52a9.67,9.67,0,0,1-1.52.08,10.68,10.68,0,0,0-1.44.56,3.08,3.08,0,0,1-.8.24c-.64.32-.88.48-1.44.8-.4.4-.56.8-1,1.28a12.84,12.84,0,0,0-2,1.44c-.24.32-.24.88-.56,1.28-.08.24-.48.32-.64.56-.08.08-.08.24-.16.32s-.16.24-.24.32.08.4,0,.64-.56.72-.4,1.36c-.16.24-.48.4-.56.64s.08.48,0,.64-.24.16-.24.24c-.16.32-.16.64-.32,1s-.32.48-.4.72.08.64,0,1a4.75,4.75,0,0,1-.32.64,8.64,8.64,0,0,1,0,1.44c-.08.72-.4,1.36-.56,2.16a15.42,15.42,0,0,1-.08,1.84c0,.32-.24.64-.24,1-.08.8.4,1.6-.32,2.24a3,3,0,0,1-.08,2.64c.8,2.24-.4,5.6.24,8.08.24.64,1.2.48,1.68.88,0,.32.4.56.48,1a2,2,0,0,1-1,1.76c-.4.16-.8-.08-1.6.08a10.15,10.15,0,0,0-1.44.64,17,17,0,0,1-3.2.8l-1.6.24c-.64.16-1.28.56-1.76.48-1-.16-1.44-1.28-1.44-2.48a8.8,8.8,0,0,0,.16-1.44,8.49,8.49,0,0,0-.32-1.52,36,36,0,0,1,0-4.16c0-.4.16-.8.16-1.12a6.36,6.36,0,0,1-.24-1.2,14.22,14.22,0,0,1-.4-2.24c0-.32-.08-.8-.08-1.12a14.72,14.72,0,0,1,.32-1.84c0-.24-.16-.32-.16-.64,0-.48.24-1.44.24-2.16s-.32-1.28-.4-1.92c0-.32.08-.88.08-1-.08-.32-.24-.48-.24-.72-.08-.64-.08-1.52-.16-2,0-.16-.08-.48-.08-.64a9.94,9.94,0,0,1,.32-1.28c.16-1-.08-2.16,0-3.2.08-.8.48-1.6.48-2.32,0-.32-.08-.72-.08-1s.16-.72.16-1a3.6,3.6,0,0,1-.24-.88,10.93,10.93,0,0,1,.16-2.24,10,10,0,0,0-.24-1.52,3.24,3.24,0,0,0,0-.88c0-.24-.24-.4-.24-.56,0-.48.32-1.12.32-1.68a4.92,4.92,0,0,1,.16-2.4c0-.56-.4-.8-.64-1.2.4-.88-.16-1.76.08-2.56a1.62,1.62,0,0,1,1.28-.48c.8,0,1,.56,1.44.88a10.19,10.19,0,0,0,3.12,0c.56,0,1.2.16,1.68.16.8-.08,1.36-.72,2.56-.32.4.24.32.64.64,1.12,0,.08.24.24.24.32,0,.24-.16.24-.16.32,0,.24.16.24.16.4a5.15,5.15,0,0,0-.24,2.72c.64,0,1-.48,1.36-.88a6.11,6.11,0,0,0,.72-.72c.08-.08.08-.32.16-.4s.32-.08.4-.16c.24-.08.48-.48.8-.72s.8-.48,1-.88c1-.16,1.84-1.12,3-.72.48-.48,1.84-1,2.48-.48.4.08.4-.4.64-.48,1.36.48,2.72-.48,4-.16.48.08.72.4,1,.56a2.81,2.81,0,0,1,1,.4c.72,1.12.16,2.56.08,3.84-.08.32.08.56.08.8,0,.48-.16,1-.16,1.44,0,1.2.16,2.4.16,3.6C1210.2,123.69,1210.2,123.85,1210,124Z"/><path class="cls-18" d="M1259.4,137.53c.08.72.32,1,0,1.68-.24.4-1,.56-1.2.88a3.09,3.09,0,0,0-1.92.08c-.72-.56-2.4-.16-3.12-.72a2.09,2.09,0,0,1-.88.24,20.8,20.8,0,0,1-4.8-.48c-1.12-.08-2.48-.08-3.44-.08a6.18,6.18,0,0,1-1.2.16c-.8-.08-1.52-.56-2.32-.56a16.89,16.89,0,0,0-1.92.16,7,7,0,0,1-1.28-.16c-.16,0-.4.16-.56.16a1.88,1.88,0,0,0-.64-.16c-.72,0-1.44.32-2-.32a1.74,1.74,0,0,1-1.36.4c-.48-.08-.8-.16-1-.16s-.4.24-.4.24c-.32,0-.8-.32-1.2.08-.16-.24-.8,0-1-.24s-.24.24-.48.24c-.88-.4-1.6-.08-2.48-.08a13.78,13.78,0,0,0-2.72-.16,4.31,4.31,0,0,0,.32,3.44c.08.56-.16.8-.16,1.2.08.16.32.16.4.24s0,.32.08.4a11,11,0,0,1,1.28,1.44c.48.8,1.36,1.44,1.92,2.4a13.33,13.33,0,0,0,1,1.28,5.87,5.87,0,0,1,2.08,1.12,2.63,2.63,0,0,0,.48.24,12.66,12.66,0,0,0,1.68,1.2,8.38,8.38,0,0,0,1,.16c.48.16,1.2,1,1.92,1a6.18,6.18,0,0,1,.72-.08,5.44,5.44,0,0,1,1.2.16,2.88,2.88,0,0,0,1.92-.48,6.05,6.05,0,0,0,1.2-.08c0-.08.08-.24.08-.32s.24.08.32,0,.16-.24.24-.24c.32-.08.72.16,1-.08a1.82,1.82,0,0,1,.8-.4,8,8,0,0,0,1.52-1l1-.64c1-.64,1.68-2,2.64-2.88a5.23,5.23,0,0,1,1-2.72,4,4,0,0,1,.72-2.32,2.12,2.12,0,0,1,1.44-.08c.32.16.56.32,1,.56.32.16.64.16,1.28.4.16.08.32.24.48.24s.48,0,.8.08c.16,0,.32.24.48.24.4.08,1.12-.16,1.52,0,.08.08.16.24.32.32a1.37,1.37,0,0,1,.72.64,3.07,3.07,0,0,1-.56,1.76c-.08.24-.16.72-.48.64-.08.4.16.48.08,1-.08.32-.32.48-.4.88a11.43,11.43,0,0,1-.56,1.76,4.62,4.62,0,0,1-.56.64,3,3,0,0,1-1.2,1c.24.48-.48.72-.64,1-.24.64-.88,1-1.6,1.52-.8.72-1.84,1.2-2.56,1.76l-.72.48a3,3,0,0,1-1.28.88c-.24.16-.32.08-.56.16,0,0-.16.24-.24.24a12.58,12.58,0,0,1-1.84.32c0,.08-.32.24-.32.24l-2.4.48a3.23,3.23,0,0,1-1.68.24c-.24,0-.56-.16-.72-.16s-.72.56-1.2.16c-.4-.16-.16.48-.64.32s-1.2.16-1.84.08a4.23,4.23,0,0,1-1-.24c-.32-.08-.4.16-.56.08s-.24-.24-.24-.24a19.18,19.18,0,0,1-3.2-.48c-.32-.08-.72,0-.88-.4a3,3,0,0,1-2.48-1,3.61,3.61,0,0,1-.88-.24c-.64-.32-1.52-.56-1.92-1.36-.8,0-1.12-.56-1.52-1a2.42,2.42,0,0,1-2-1.2,8.45,8.45,0,0,0-1.2-1.2c-.16-.16,0-.56-.24-.72-.88-.4-1.28-1.28-2.24-1.6-.16-.56-.72-1-1-1.44a3.28,3.28,0,0,1-.32-.8c-.16-.24-.4-.4-.56-.64-.24-.72-.32-1.6-.56-2.4a1.53,1.53,0,0,1-.24-.64c-.08-.48,0-1-.08-1.36s-.32-.64-.4-1c-.08-.48,0-1-.08-1.68a9.12,9.12,0,0,1-.24-1.44c0-.72.16-1.52.16-2.32,0-.24-.08-.64-.08-.88.08-.56.48-1.12.56-1.68a1.51,1.51,0,0,0-.16-.64c0-.24.24-.56.08-.8.24-.16.32-.64.4-.88a11.59,11.59,0,0,1,.24-1.28c.08-.08.24-.16.32-.24a.72.72,0,0,0,.08-.4c.08-.08.24-.16.32-.24s-.08-.4,0-.48a2.84,2.84,0,0,1,.4-.64c.08-.24.16-.56.24-.8s.32-.32.4-.48-.08-.48,0-.64.24-.08.32-.24c.16-.64.24-1,.4-1.6a2.77,2.77,0,0,1,1-1.52c-.24-.24,0-.48,0-.72a6.11,6.11,0,0,0,1.28-2.24c1-.64,1.52-1.76,2.48-2.48a3.69,3.69,0,0,1,.8-.4c.08-.08.08-.16.24-.24s.32-.08.4-.08a8.34,8.34,0,0,1,1.6-1.2c.64-.24,2.24-.08,2.8-.8a3.91,3.91,0,0,0,1.84-.64,3.19,3.19,0,0,1,1.84-.48,5.06,5.06,0,0,0,2.16-.16,7.54,7.54,0,0,1,1.6-.24c.16,0,.4.16.64.16.88,0,1.6,0,2.72.08.56,0,1-.24,1.68-.24.08,0,.16.16.32.16a3,3,0,0,1,1.2,0,4.35,4.35,0,0,1,.8.24c.56,0,.88.32,1.36.56.24.16.64.16.88.32a4.89,4.89,0,0,1,1,.4c.64.24,1.36.32,1.6,1,.24.08.4,0,.64.16a8.11,8.11,0,0,1,1.44,1c.4.32.8,1,1.36,1.36.08.32.32.48.4.88.88.48,1.36,1.44,2.4,1.84.32.72.88,1.12,1,2,.24.32.48.72.8,1.2.08.24.48.56.56.88a5,5,0,0,0,.8,1.6,5.17,5.17,0,0,1,.88,1.28c.08.4.08.88.16,1.28s.32.8.4,1c.16.8,0,1.6.08,2.48.08.56.16,1.28.24,1.92a4.92,4.92,0,0,0,.08,1c0,.32.24.56.24.8S1259.4,137.29,1259.4,137.53Zm-11.44-8c-.24-.16,0-.4-.08-.64-.08-.08-.72-.08-.4-.48-.32-.32-1-.4-.88-1-.48.08-.64-.48-.8-.56s-.24-.08-.32-.16c-.4-.32-.48-.88-.88-1.2-.32-.16-.8.24-.8-.4a3.72,3.72,0,0,1-3.2-1.6,20.82,20.82,0,0,1-3.2.08c-.72-.48-1.36-.24-2.32-.48-.4-.08-.24-.64-.8-.64-.72.32-1.36-.24-2.16-.32a11.91,11.91,0,0,1-2.72.88c-.48.16-1.28,1.2-1.6,1.52-.72.88-1.44,1.76-2.08,2.48.08.64-.24.88-.16,1.44-.72.56-.88,1.76-1.12,2.8a16.92,16.92,0,0,0,2.72-.16,4.61,4.61,0,0,1,1-.08c.24-.08.4-.24.64-.24,1-.08,2,.08,3,0s2-.32,2.88.08a9,9,0,0,1,3.84-.16c.16,0,.16-.16.4-.16s.16.16.4.16.32.24.64.16c2.4-.4,5.44.24,8.4-.24C1248.52,130.41,1248.36,129.69,1248,129.53Z"/><path class="cls-18" d="M1311.56,116.41c0,.16.16.24.16.4a1.48,1.48,0,0,0-.16.56c0,.16.08.24.08.4s-.16.24-.08.48.08.24.08.4-.24.48-.24.72.08.64.08,1-.24.48-.24.72a3.31,3.31,0,0,1-.08.8,14.11,14.11,0,0,0,0,1.84c0,.24.24.56.24.88.08,1.12-.16,2.4-.08,3.6a9.18,9.18,0,0,1,.08,1.44c0,.64-.32,1.2-.4,2.08a1.82,1.82,0,0,1,.08.32c0,.32-.24,1.2.08,1.68a3.46,3.46,0,0,1-.4,1,37.63,37.63,0,0,1-.24,4.24,9.11,9.11,0,0,1,.24,1.44c0,.24-.16.56-.16.88s.16.56.16.8-.24.48-.32.72a6.22,6.22,0,0,1-.4,2.48c-.32.56.24,1.84-.32,2.56a5,5,0,0,1,.08,1.92c0,.24.16.56.08.8,0,.56-.24,1-.24,1.52a21.88,21.88,0,0,0,.32,3.36c.08.24.08.48.48.4-.88.64.08,1.28.08,2.08a1.14,1.14,0,0,1-.16.48c0,.08-.08.48-.08.56a3.47,3.47,0,0,0-.4.08,2.17,2.17,0,0,1-1,.56c-.32,0-.64-.16-1-.16a12.31,12.31,0,0,0-1.52.16,14.28,14.28,0,0,0-1.84.16c-.64.08-1.12.48-1.68.48-.48-.16-.24.48-.64.48-.08.24-.64,0-.88.08-.64-.56-1.2-1.92-.64-2.56-.48-1.36.16-3.12-.16-4.8a6.34,6.34,0,0,0-2.08,1.52c-.32.24-.48.64-.88.88-.16.08-.16,0-.32.08s-.64.32-.88.64c-.56.16-1.12.08-1.68.24-.72.16-1.36.4-2.32.56a7.19,7.19,0,0,1-2.88.48c-.24,0-.4-.16-.48-.16-.32,0-.48.24-.8.24a1.85,1.85,0,0,1-1.28-.16c-.24.4-1.28.08-1.68-.16-.8.32-1.52-.08-2.32-.16-.48,0-.4-.48-.8-.56a14.36,14.36,0,0,1-3.68-.32c-.16-.4-.72-.48-.8-1-.56.08-.56-.4-1-.4a6,6,0,0,0-.88-1c-.56,0-.64-.32-1.2-.32-.16-.16-.24-.48-.48-.64-.4-.24-.48-.48-.64-.56s-.32.08-.4,0c-.48-.56-.8-.8-1.12-1.2a1.41,1.41,0,0,1-.64-.4c0-.48-.48-.48-.4-1.12a2.83,2.83,0,0,1-.64-.4,5.65,5.65,0,0,1-.56-.72c-.16-.08-.16-.24-.32-.32s-.08-.8-.48-1c0-.32-.32-.32-.64-.32a1.77,1.77,0,0,0-1.12-1.68c.16-.48-.16-.48-.08-.88-1.6-1.44-1.52-4.4-2.32-6.56a16.37,16.37,0,0,1,.48-4.48,2,2,0,0,1,.16-.4c.16-.24.08-.72.16-1.28s.16-1,.24-1.52a2.83,2.83,0,0,0,.16-.8,5.16,5.16,0,0,1,.88-2.16c-.4-1.44,1-2,1-3.36a7.47,7.47,0,0,0,1.12-1.52c.24-.4.56-1,.88-1.52.24-.32.64-.56.56-1,.32-.16.48-.48,1-.64v-.72c.88-.56,1.28-1.52,2-2.32a6.45,6.45,0,0,1,1.12-1c.24-.48,1-.56,1.12-1a8.6,8.6,0,0,0,3-1c.64-.08,1.44-.08,1.84-.48a2.64,2.64,0,0,0,2.16-.72c1.6,0,3-.08,4.8,0,.8,0,1.68-.16,2.32-.08.48,0,.88-.08,1.2.24a1.62,1.62,0,0,1,1.36.08,8.38,8.38,0,0,1,1,.16c.24,0,.48.24.64.24a2.7,2.7,0,0,0,.8,0,1.77,1.77,0,0,0,.4.32,1.66,1.66,0,0,1,1,.4c.08,0,.32,0,.4.08s.08.24.16.32a14.65,14.65,0,0,1,2.16,1.2c.16.08.16.32.4.48s.32.16.48.32a3.47,3.47,0,0,1,.64.8c.16.32.72.64,1.12,1,.24.16.32.56.64.8s.88.64.88,1.12a8,8,0,0,0-.32-4.4c-.32-.64-.8-.8-.48-1.76a3.16,3.16,0,0,1,.8-1.2,4.58,4.58,0,0,0,1.44.16,8,8,0,0,0,1.28.16,15.37,15.37,0,0,1,4.24.48c.72-.24,1.2.16,1.84.32.08.4,0,.64.08,1-.08.32.16.48.08.8S1311.56,116,1311.56,116.41Zm-11.2,15.92c-.08-.32-.48-.4-.64-.64a7.54,7.54,0,0,0-.48-1.84c.16-.72-.24-1-.32-1.44a11.67,11.67,0,0,1-.24-1.76c-.48-.24-.48-.56-.72-.8-.4-.24-.32-.32-.4-.4a16.23,16.23,0,0,0-1.12-1.2,3.71,3.71,0,0,0-1.52-1c-.88-.4-1.52-.8-2.16-1.12a8,8,0,0,0-2.08-.4,11.14,11.14,0,0,0-1-.48,5.18,5.18,0,0,1-1.12,0c-.32,0-.72-.24-1-.24s-.4.48-.64.24c-.32-.08-.8-.56-1-.32-1,.08-1.2.48-1.92.88-.16.08-.48.16-.64.24s-.4.32-.56.4-.24-.08-.4,0l-.24.24c-.4.24-.72.56-1,.72a5.5,5.5,0,0,0-.64.24,12.4,12.4,0,0,0-.8,1c-.32-.08-.32.24-.64.08,0,.48-.4.8-.64,1a3.37,3.37,0,0,1-1.12.72c-.08,1.12-1,1.44-1,2.56a5.1,5.1,0,0,0-.8,1.44,14.89,14.89,0,0,0-.4,2.16c-.16.56-.48,1-.56,1.44,0-.08.08.4.16.48a13.55,13.55,0,0,1-.48,2.24c0,.4.24.88.24,1.36,0,.08-.16.16-.16.32a2.16,2.16,0,0,1,0,1c.08.64.72,1.28.48,2.08a14.76,14.76,0,0,0,2.16,1.52,10.37,10.37,0,0,0,2.8,2.8,4.7,4.7,0,0,0,1.52,1l.32.32a7.3,7.3,0,0,0,1.68.4c.32.08.8.32,1,.4s.24.32.48.32c1.36-.16,2.8.4,3.92.4a2.66,2.66,0,0,0,1.12-.08,5.67,5.67,0,0,0,1.2-.08,4.4,4.4,0,0,1,.64-.4c.16,0,.32.08.48,0,.32-.08.8-.48,1.2-.08.56-1.36,2.4-1.36,2.64-3,.32.08.24-.24.56-.24,0-.56.4-.88.64-1.28s.4-.8.56-1c.08-.08.32.08.24-.24a4.39,4.39,0,0,1,1-1.68c-.16-.56.24-1,.4-1.36a13,13,0,0,0,.72-4.4,4.9,4.9,0,0,0,.56-1.12A2.6,2.6,0,0,1,1300.36,132.33Z"/><path class="cls-18" d="M1359.72,162a5.38,5.38,0,0,1-1.6.08,3.17,3.17,0,0,1-1.12-.4,2,2,0,0,1-1.2-.4c-.64.32-1.12,0-1.68.24-.32.16-.72.32-1,.48-.08.08-.24-.08-.4,0s-.08.4-.64.4c-1.28,0-1.6-1.2-2.88-1.52a9.68,9.68,0,0,0-1.92-1.68c-.16-.24-.16-.64-.4-.8-.08-.24-.48-.16-.32-.64a23.08,23.08,0,0,1-3.36-2.8,21.38,21.38,0,0,1-2.08-2.48c-.24-.32-.8-.48-.56-1-.56,0-.72-.48-1.12-.8a1.35,1.35,0,0,1-.4-.16c-.08-.08,0-.24-.08-.32s-.56-.32-.48-.72c-1.12-.4-1.44-1.6-2.48-2.08-.08-.4-.32-.56-.48-1-.56-.08-.64-.56-1.28-.64,0-.48-.48-.64-.72-.88s-.56-.64-.88-.72c-.4.32-.16.88-.16,1.44,0,.24-.16.48-.16.8,0,.48.32,1.2-.32,1.52a26.69,26.69,0,0,1,.32,5.28c0,.24-.16.48-.16.64,0,.32.24.72.24,1s-.16.64-.16.8.24.32.24.4-.08.4,0,.64a1.75,1.75,0,0,1,.24.4c0,.16-.16.24-.16.32a11,11,0,0,1,.48,1c-.16.48-.56.72-.8,1.2,0,.56.4.64.64.88a2.06,2.06,0,0,1-1,2.56c-1.68,0-2.56-.8-3.84-1.2a23,23,0,0,1-4.72-.24c-.16-.48-.64-.72-.48-1.6a4.46,4.46,0,0,0,0-1,1.6,1.6,0,0,1,.16-.48c0-.24-.24-.4-.24-.64-.32-1.68.08-3,.24-4.8,0-.16.08-.48.08-.64a9,9,0,0,0-.24-1.44c0-.48.08-1,.08-1.52,0-.08-.16-.24-.16-.4s.32-.56.32-.8a12.28,12.28,0,0,0-.4-1.36c0-.4-.08-1-.08-1.36,0-.8-.08-1.68-.08-2.4,0-1.2.16-3,.08-4.56,0-.08.08-.24.08-.32a1.13,1.13,0,0,0-.32-.16c0-.24.16-.48.16-.8,0-.64-.4-1.84.16-2.4.08-.32-.16-.64-.16-1a5.48,5.48,0,0,1,.16-1.52,4.57,4.57,0,0,1,0-1,1,1,0,0,0-.16-.4,11.58,11.58,0,0,0,.48-1.52c0-.48-.16-.88-.16-1.44,0-.32.16-.8.16-1.12a7.09,7.09,0,0,0,.16-1.2c0-.48-.24-1-.24-1.52a4,4,0,0,0,.16-1c0-.24-.16-.4-.24-.72s.08-.64.08-1a3.14,3.14,0,0,1-.4-1c0-.24.16-.24.16-.32a6.08,6.08,0,0,0-.24-1.68c-.08-.32.08-2.56.08-3,0-1,.08-2.08.08-3s-.48-2.08-.48-3a17.34,17.34,0,0,1,.32-2c0-.16-.16-.16-.16-.32s.16-.24.16-.4-.24-.48-.24-.64a8.22,8.22,0,0,1-.08-1.44,8.81,8.81,0,0,1-.24-1.28c0-.24.16-.32.16-.56a4.78,4.78,0,0,1,0-1.52c-.24-.4-.72.24-.88-.16s-.16-.56-.4-.64c-.08-.8.64-.8.4-1.68a3.31,3.31,0,0,1,2.48.08,4.62,4.62,0,0,1,2.72-.48,7.56,7.56,0,0,0,.8-.4,22,22,0,0,0,4.08.24c.4.24.56.72.88,1-.24.64,0,1.12.08,2a6.22,6.22,0,0,1,.16,1.28c0,.16-.24.48-.32.64a11.76,11.76,0,0,0,0,1.68c0,.08-.16.24-.16.48a29.07,29.07,0,0,0,.4,4.8,11.58,11.58,0,0,1,.24,2.56,11.93,11.93,0,0,0-.16,1.68c.08,1,1,2.16.4,3,.32.72.88,2,.32,2.72.08.32.32.48.4.64.08.48-.24.4-.24.64.56.64.08,2.08,0,3.12,0,.24.16.48.16.64s-.16.4-.16.56c0,.56.4,1,.24,1.68a1.59,1.59,0,0,0,.88-.88,11.47,11.47,0,0,0,2.56-2.64c.4,0,.32-.4.8-.24a1.36,1.36,0,0,1,.48-.8c.24-.24.4-.24.4-.24s.08-.32.16-.4.24-.08.48-.24.32-.4,1-.4c.24,0,.08-.48.4-.48.56-.16.72-.72,1.44-.72.16-.72.8-.88,1-1.52.24-.16.4-.4.8-.4.4-.48,1.12-1.2,1.84-2a3.74,3.74,0,0,1,.56-.56c.32-.24.48-.64.88-1,.16-.16.4-.24.56-.4s.08-.32.24-.48a1.86,1.86,0,0,1,2.72-.48,6.76,6.76,0,0,1,2.72.48c.72.16,1.44.16,1.76.8a4,4,0,0,1,2.88.08,2.64,2.64,0,0,1,.4,2.08c-.32.24-.48.72-1.12.72-.32.24-.48.64-.8.88-.08.08-.32.08-.4.08-.24.24-.48.64-.8,1a4.48,4.48,0,0,0-1,.56c-.08.08-.08.32-.16.4s-.24.08-.4.16-.16.24-.24.32-.32.08-.4.16,0,.24-.16.4c0,.08-.32,0-.32.08s-.08.32-.16.4a3.93,3.93,0,0,1-1.84,1.76,6.16,6.16,0,0,1-1.36,1.52,1.55,1.55,0,0,0-.8.8c-.16.08-.48.08-.64.24-.24.8-1.12,1-1.44,1.84-.32,0-.4.24-.64,0-.08.88-.8,1-1.36,1.44-.4,1.2-1.6,1.76-2.32,2.64-.32.24-.4-.08-.8,0-.32.4-.16.88-.4,1.36a12.28,12.28,0,0,1-1,.88c-.32.24-.4.56-.72.8.4,1.2,1.52,1.68,1.92,2.88,1,.8,2.08,1.36,3.12,2.24a5.9,5.9,0,0,1,1,.8c.4.4.64,1,1,1.44a13.22,13.22,0,0,1,1,1.28,9.09,9.09,0,0,1,2,1.92,5,5,0,0,1,1.44,1.68c1.92.8,2.48,2.88,4.24,3.84.16,1,1,1.44,1.68,2a7.91,7.91,0,0,0,.72,1.92c.08.32.4.24.64.4.4.32.64,1.12,1.36,1.28a1,1,0,0,0,.56.8,2.12,2.12,0,0,0,.08,1c.16.48.56.72.64,1.2C1360.52,161,1360,161.53,1359.72,162Z"/><path class="cls-18" d="M1377.72,104.73c-.08.32-.4.56-.56.8s-.08.56-.16.8a9.91,9.91,0,0,1-.8,1.6c-.48.16-1,.72-1.44.88-.16.08-.4,0-.64.16a6.86,6.86,0,0,1-2.16.72,4,4,0,0,1-1-.32c-.56-.08-1-.08-1.6-.16-.4-1-1.28-1.6-1.6-2.72a7.19,7.19,0,0,0-.72-.8c0-.8-.48-1.52-.48-2.32a3.83,3.83,0,0,1,.32-1.2c.08-.48.16-1.12.24-1.36s.32-.16.4-.32c.08,0,.08-.24.16-.32s.48-.16.64-.4c.08-.08-.08-.32,0-.4.4-.32.32-.48.4-.64a6.89,6.89,0,0,1,1.44-1.12c.56-.4,1.44-.24,2.48-.32.4.88,1.6,1,2.16,1.76h.8c0,.24.16.24.32.4a5.6,5.6,0,0,1,1.92,2.48.88.88,0,0,1,.08.4A6.46,6.46,0,0,1,1377.72,104.73Zm.08,14.32c0,.48.24.88.24,1.36,0,.72-.32,1.6-.32,2.4s0,1.36.08,2.24c0,.4.16.48,0,.88-.64,1.36,0,4,0,5.84-.08,1-.4,2.08-.48,3.2-.24,2.32-.16,4.8-.4,7-.08.64,0,1.28-.08,1.84-.08,1.44-.32,2.8-.48,4.08-.08,1,.08,1.84.08,2.72,0,.56.08,1,.08,1.44a6.37,6.37,0,0,1,.24,1.2,2.47,2.47,0,0,1-.16.64,1.61,1.61,0,0,0,.16.48c0,.24-.16.4-.16.64s.16.4.16.56a4.57,4.57,0,0,0-.32,1.12,13.06,13.06,0,0,1,.08,2.48,3,3,0,0,1-2.32.56c-.56-.16-.48-1-.88-1.44a4.18,4.18,0,0,1-1.84-.64,5.75,5.75,0,0,1-1.92-.16,9.43,9.43,0,0,1-2-.32c-.08-.08-.08-.4-.32-.32-.32-.4-.16-1.2-.56-1.52a7.86,7.86,0,0,0,.4-1.28c.16-1-.16-1.84-.08-2.88a4.11,4.11,0,0,1,.16-.88c0-.08.16-.16.16-.4a3.32,3.32,0,0,1,0-1.28c0-.08.16-.16.16-.4s-.16-.24-.16-.32.24-.16.32-.32-.16-.48-.16-.64c.24-1.12.32-3.36.4-4.08,0-.48.08-.64.08-1.2.08-.16-.08-.32-.08-.4a45.41,45.41,0,0,0,.24-4.72c-.08-1,.16-2,.16-3s-.24-1.92.24-2.88c-.4-1-.08-2.08-.08-3a22.47,22.47,0,0,1,.08-2.32,5.9,5.9,0,0,1,0-1.68v-.56c.08-.48.16-1,.16-1.12,0-.4-.24-.72-.24-1a4.5,4.5,0,0,0,0-1c0-.16-.16-.24-.24-.4v-.4a4.23,4.23,0,0,1,.08-1c-.08-.56-.88-.48-1-.88-.24-.8-.64-1.92.08-2.48.48-.24,1-.08,1.68,0a.86.86,0,0,0,.48.16c.08,0,.24-.16.4-.08.32.08.72.32,1.12.4,2.08.24,5.84-.72,6.64-.16.32.24.16.72.48.8A12.72,12.72,0,0,0,1377.8,119.05Z"/><path class="cls-18" d="M1431.56,159.93c-.24.16-.16.72-.56.72-.16.16-.32,0-.48,0s-.4.16-.56.08c-.32,0-.56-.32-1.12-.4-1-.08-2,.24-3,.24-.32,0-.64-.16-1-.16a18,18,0,0,1-3-.08c-.4-.08-.8-.4-1.28-.32-.08-.4-.64-.48-.72-1-.24-1,.56-2.08.32-3a5.68,5.68,0,0,0,.56-1.76,5.77,5.77,0,0,1,0-1.2,26.57,26.57,0,0,0,.08-2.72c.08-1,.08-2.08.08-3.44,0-.08-.16-.24-.16-.4a3.54,3.54,0,0,0-.16-1.44c-.08-.4.16-.48.24-.72-.08-.32-.24-.24-.24-.56s.16-.4.16-.64-.32-.64-.4-1,.16-.56.16-.88c0,0-.16-.24-.08-.4s.08-.24.08-.4a8.82,8.82,0,0,0-.24-1.28c0-.4.24-1-.24-1.2a1.58,1.58,0,0,0,.16-.88c0-.24-.16-.4-.24-.8,0-.24.08-.72.08-1a1.92,1.92,0,0,1-.24-.72,3.71,3.71,0,0,0-.4-1.68,3,3,0,0,0-.24-1.84.36.36,0,0,0-.24-.24c0-.16.08-.4,0-.56s-.16-.08-.24-.24a3.47,3.47,0,0,0-.08-.4,12.57,12.57,0,0,1-1.2-3.92,9,9,0,0,1-1.52-1.92c-1.12-.56-1.52-1.2-3.36-1a8.15,8.15,0,0,0-1.12.32,9.19,9.19,0,0,0-2.24.72,1.89,1.89,0,0,1-.4.4c-.16.08-.4,0-.48.08-.32.24-.48.64-.72.88-.08.16-.24.32-.4.56a3,3,0,0,0-.4.48,3.53,3.53,0,0,1-1.12,1c0,.4-.4.56-.56.88-.08.08-.08.32-.16.48s-.32.16-.4.24c-.32.56-.4,1.36-1,1.68a2.77,2.77,0,0,1-1,1.92c.08,1.36-.72,1.76-1.12,2.72-.08.32.16.48.16.72a4.47,4.47,0,0,0-.72,1.52,4.75,4.75,0,0,1-.56,1.6c.16,1.36-.64,2.72-.8,4.24-.08.32,0,.8-.08,1.12-.08,1-.24,2.32-.32,3.52,0,.24.08.56.08.88,0,.72-.24,1.36-.24,2.08-.08.48.24,1.2.16,1.68,0,.08-.16.24-.08.48a7,7,0,0,0,.16,1.28c.08.4.08.88.4,1a1.77,1.77,0,0,0,0,1.28c.24.88,1,1.44.32,2.4-.08.08-.16.08-.24.24-.56.8-2.24.24-4.08.32-.72,0-1.36.16-2,.16h-.4a5.51,5.51,0,0,1-1.68.08,1.78,1.78,0,0,1-.88-.4,3.48,3.48,0,0,1-.8-.4c-.32-.48-.16-1.12-.24-1.68,0-.32-.24-.72-.24-1,0-.8.16-1.68.24-2.56,0-.72.16-1.44.16-2.08,0-.48-.16-1.28.32-1.76.24-.4-.24-.24-.32-.56,0-.16.32-.4.32-.48a4.06,4.06,0,0,0-.16-1v-2.64c-.08-1-.24-2-.32-3.36-.16-.32,0-.32,0-.32,0-.24-.16-.48-.16-.72s.16-.32.16-.48c0-.32-.24-.56-.24-.88a7.91,7.91,0,0,1,.16-1.44c.08-.32.24-.56.32-.88s-.16-.48-.16-.64.16-.32.16-.56a5.65,5.65,0,0,1,.08-3c-.24-.56-.56-1.28-.08-1.68a5.3,5.3,0,0,1-.48-1.6c-.08-.24.08-.4.08-.64.08-.8-.32-2.48.24-3.2-.48-.88-.08-2.16-.16-3.36a4.21,4.21,0,0,1-.24-1c-.16-.8,0-1.68-.08-2.4-.08-.32-.16-.56-.24-.8-.24-.64-.24-2-.48-2.88.24-.16.32-.56.56-.88.72-.16,2-.16,2.32.48.48-.4,1-.16,1.68-.08.4,0,1.28-.08,2-.08,1-.08,1.84-.08,2.64-.08a2.49,2.49,0,0,1,.72.88c.48,1,.48,2.88.72,4.32.48.08.4-.48.64-.64a9.71,9.71,0,0,0,1.6-1.12c.4-.08.56-.32,1-.24.32-.24.48-.64.72-.88a2.34,2.34,0,0,0,1-.56c.24-.08.8-.16.8-.56.56,0,1-.48,1.52-.8a3.34,3.34,0,0,0,.8-.32c.24-.16.4-.48.64-.56s.64,0,1-.08l1-.24a2.22,2.22,0,0,1,.72-.08,4.2,4.2,0,0,1,1-.24,10.2,10.2,0,0,1,1.36-.16,9.34,9.34,0,0,0,2.32.32c.24.08.32.24.56.32.48.08,1.2.16,1.68.24a3,3,0,0,0,.88.4,3.21,3.21,0,0,1,1.68,1c.16.24.48.48.48.8a7.32,7.32,0,0,1,1.76,1.44c.16.24.32.56.48.8.32.32.72.48,1,.8s.48.72.88.8c0,.72.72,1.12,1,1.68s.08,1.2.64,1.6a9.81,9.81,0,0,0,1.12,2.72l.48,1.44c.16.48.32.88.48,1.28.08.16-.08.4,0,.56s.24.16.24.24c.08.24,0,.48.08.8a16.6,16.6,0,0,1,.88,2.8c.08.24,0,.56.08.8s.24.4.24.64c.08.48.08,1,.16,1.44,0,.32.16.8.16,1.2s-.08.8,0,1.28c.08.8.4,1.68.56,2.56.16.56-.24.64-.24,1a6.08,6.08,0,0,1,.48,1.44c0,.24-.16.56-.16.88,0,.64.32,1.44-.32,1.92a4.47,4.47,0,0,1,.24,3.36c-.16.56.32.4.24.88-.4.8-.08,1.52-.24,2.32,0,.4-.24.64-.24,1-.24.4.4.88,0,1.44.08.56.48.72.32,1.6.16.32.56.4.88.64-.16.72.4.64.4,1.28S1431.72,159.61,1431.56,159.93Z"/><path class="cls-18" d="M1486.76,117.37c0,.32-.08.56-.08.8s-.08.48-.16.8-.24.4-.32.64a12,12,0,0,1,0,2.4c-.08.08.16.32.08.64a6.68,6.68,0,0,1-.32,1.2,15.85,15.85,0,0,1-1,3,6,6,0,0,1,0,2.4c-.08.4-.32.8-.4,1.2-.08.24,0,.56-.08.88s-.24.4-.24.64.08.72.08,1c0,.08-.16.16-.08.4a1,1,0,0,1,.08.4c-.08.88-.32,1.68-.48,2.56a8.72,8.72,0,0,1-.56,2.4c.08.4.32.72.4,1s0,.72-.16.88a1.72,1.72,0,0,1,.32,1.44c-.08.16.08.16,0,.32,0,.48-.24,1.12-.24,1.6a6.68,6.68,0,0,0,.32,1.2,4.56,4.56,0,0,1-.16,2.56,17.32,17.32,0,0,1,.16,5.44c-.08.24-.08.4-.16.48a16.09,16.09,0,0,0-.08,2.08,4.09,4.09,0,0,1-.16,1c0,.4.16.8.16,1.2a9.19,9.19,0,0,1-.48,1.36c-.08.48-.4.88-.48,1.28-.16.64-.16,1.52-.32,2.24-.24.24-.32.64-.64.72a4.84,4.84,0,0,1-.16,1.2,6.55,6.55,0,0,1-2,1.6c0,.48-.56.56-.8.88-.16.16-.16.56-.4.8-.4.08-.4.64-.64.88a23.61,23.61,0,0,0-5.36,3.12,2.16,2.16,0,0,0-1.2.24,5.16,5.16,0,0,0-1.52.32,2,2,0,0,1-.64.08c-.32.08-.8.32-1,.4a13.56,13.56,0,0,1-1.84.08c-.56,0-1.12.08-1.68.08-.32,0-.64-.16-.88-.16a3.31,3.31,0,0,1-.64.24c-1,.08-2.08,0-3.28.08-.32,0-.72.24-1,.24s-.64-.16-.88-.16h-1c-.32-.08-.64-.24-.88-.32-.48,0-1,.16-1.6.16a4.72,4.72,0,0,0-1.12-.16c-.32-.08-.8-.08-1-.16s-.8-.56-1.12-.72a6.18,6.18,0,0,1-1.2-.16,6.55,6.55,0,0,1-1.92-.8,11,11,0,0,1-1.6-1c-.24-.16-.4-.48-.64-.64s-.32-.08-.4-.16a1.55,1.55,0,0,0-.64-.64c-.16-.16-.24-.4-.4-.56s-.24,0-.32-.16a4,4,0,0,1-.88-1.28c-.08-.08-.24-.24-.32-.24s.08-.32.08-.4c-.24-.4-.72-.56-.88-1a3.71,3.71,0,0,1-.24-.72c-.56-1.44-.56-3.76-.72-5.84.64-.8,1.68-.72,2.8-1,.48-.16,1-.56,1.52-.4a5.37,5.37,0,0,1,1.2-.48,7.19,7.19,0,0,1,1.28-.24c.64.08.88.48,1.28,1,.24.16.16.32.24.4.32.4.56.8.88,1.28a4.66,4.66,0,0,0,.48.56,4.73,4.73,0,0,0,.64.64c.08.08.32.08.4.16a3.68,3.68,0,0,0,1.28.88c.08.08.08.24.24.32a2.09,2.09,0,0,1,.64.24,4.06,4.06,0,0,0,2.56,1.2,3.47,3.47,0,0,0,1.36,1,8.91,8.91,0,0,0,1,.4c.08.08.24.32.4.4l.48.24a5,5,0,0,0,3.12.72c.24,0,.48-.24.72-.24.4,0,.8.24,1,.16a7,7,0,0,0,2.24-.48,2,2,0,0,0,1-.48c.24-.32.48-.16.64-.24a1.76,1.76,0,0,1,.8-.48c.8-.48,1.28-1.2,2-1.6.24-.88.88-1.36,1.28-2.08.16-.16.16-.4.32-.64.32-.24.16-.4.24-.48s.4-.24.56-.4a6.5,6.5,0,0,0,.56-1.76c.24-.24.4-.56.64-.8a4.05,4.05,0,0,1,.56-2.56c-.16-.16-.08-.64-.08-1-.64-.16-1,.56-1.44.88a14.82,14.82,0,0,1-1.44,1c-.24.16-.4.08-.56.16-.32.16-.72.48-1.2.72a9.64,9.64,0,0,1-.88.4,6,6,0,0,1-1.44.72c-.48.16-1,.24-1.68.4s-1.12.24-2.08.32c-.4,0-.8-.08-1.28-.08-1.2.08-2.16.24-3-.56-.56-.08-.24.72-.88.48a11.91,11.91,0,0,1-4.4-1,5.53,5.53,0,0,0-1-.4c-.4-.16-.8-.16-1.12-.32-.4-.32-1.28-.4-1.12-1-.4-.08-.4.24-.8.08,0-.48-.48-.48-.88-.64-.16-.08-.16-.16-.24-.24-.4-.24-.8-.56-1.2-.8l-1-1c-.32-.32-.56-.8-1-.88,0-.48-.4-.64-.4-1a14.77,14.77,0,0,1-1.12-1.12c-.24-.16-.16-.32-.24-.4s-.4-.24-.64-.4c-.08,0-.32,0-.4-.08s0-.32-.08-.4a4,4,0,0,1-.64-.56c-.16-.24-.08-.48-.24-.72s-.4-.4-.48-.56c-.32-.48-.56-.88-.8-1.28-.08-.16,0-.32-.08-.4-.16-.24-.24-.4-.4-.64a4.48,4.48,0,0,1-.72-1.76,4.2,4.2,0,0,1-.64-.88l-.24-.24a13,13,0,0,0-.4-1.44,7.47,7.47,0,0,0-.48-1.2c-.08-.32,0-.72-.08-1.12,0-.16-.24-.24-.24-.4s.16-.24.16-.4a3.41,3.41,0,0,1-.24-1c-.08-.16,0-.4,0-.64-.16-.4-.32-.16,0-.64a14.76,14.76,0,0,0,.32-2.32c.08-.32.4-.56.56-1s.08-1,.24-1.28c.08-.16.32-.24.4-.4a5.1,5.1,0,0,1,.16-.56,2.49,2.49,0,0,1,.56-.72,4.78,4.78,0,0,1,.8-2.8v-1a5.43,5.43,0,0,0,.72-1.12,23.16,23.16,0,0,1,1.44-2.8c.08-.16.16-.4.32-.48s.24-.08.32-.16.08-.32.16-.4.32,0,.4-.08c.32-.24.8-1.12,1.2-1.44s.8-.32,1.2-.56.48-.8,1-.8a4.13,4.13,0,0,1,1.28-1.36,8.15,8.15,0,0,1,1.68-.72c.16-.08.24-.24.4-.32.32-.08.72-.08,1-.16.08-.08.08-.24.16-.32,1-.32,2.48-.4,3.28-1,1.2.08,2.32-.64,3.44-.88.32,0,.56.08,1,.08.72-.08,1.44-.32,2,.4.24-.4.72-.4,1-.64,1.2.16,2.4.08,3.36.24s1.76.8,2.72.8a9.44,9.44,0,0,0,2.16,1.2,13.51,13.51,0,0,1,1.76,1.2c.08.08.32.08.4.16s0,.32.16.4a.91.91,0,0,0,.64.24,3.75,3.75,0,0,0,1.36,1.76c.24-.4.16-1.12.4-1.6a2,2,0,0,1-.32-1.36c.08-2.4,2.08-1,4.48-.72a23.53,23.53,0,0,0,3.36,0,5.38,5.38,0,0,1,1.44-.24c.72.08,1.2.72,1.52.8A8.34,8.34,0,0,1,1486.76,117.37Zm-10.64,17a2.91,2.91,0,0,1-.16-1.2c-.4-.32-.4-1.2-.56-1.52a1.8,1.8,0,0,1-.24-.8c-.08,0-.08-.32-.16-.4-.32-.48-1-.56-1-1.2a3.51,3.51,0,0,1-1.52-1.28c-.08-.16-.24-.4-.32-.56a11,11,0,0,0-2-1.84c-.16-.08-.24-.32-.4-.4a16,16,0,0,0-1.52-.56,4.85,4.85,0,0,1-.72-1.44c-.72-.08-1.84-.64-2.56-.8-.4-.08-.32,0-.56,0-.4-.08-.72-.24-1.12-.32a9.63,9.63,0,0,1-1.52,0c-.48-.08-1.12-.24-1.6-.32-.16,0-.24.16-.48.16a18.77,18.77,0,0,0-2.08-.08c-.72.08-1.36.72-2.08.72a2.22,2.22,0,0,1-1,.88c-.88.56-1.6.72-2,1.52-.08.24-.48.4-.64.48s-.32.16-.4.32,0,.32-.16.48a5.88,5.88,0,0,1-.72.64c.16.56-.56,1-.72,1.28,0,.08.08.24,0,.4s-.16.64-.24.88c-.08,0-.24.08-.32.08-.16.4-.24.8-.4,1.2-.08.24-.32.32-.4.48a15.05,15.05,0,0,0-.08,3.84c0,.24-.16.48-.16.64s.16.48.16.72a4.57,4.57,0,0,0,.08,2.32,5.16,5.16,0,0,0,.48,1.12c.08.16,0,.16.08.32.32.48.64.64.88,1.12a10.78,10.78,0,0,1,.88,2,3.92,3.92,0,0,1,1,1.44,2.1,2.1,0,0,1,.72.4,9,9,0,0,1,1.44,1c.16.08.48.08.64.24a18.31,18.31,0,0,0,1.6,1,7.51,7.51,0,0,0,2.72.56c.32.08.56-.08.88-.08s.56.16.8.16a16.91,16.91,0,0,0,4.24-.32,8.38,8.38,0,0,0,2.88-.72c.24-.08.32-.16.56-.24.4-.4.72-.32,1-.48a6.35,6.35,0,0,0,.72-.32c.24-.16.4-.48.72-.64.64-.48,1.36-.72,1.52-1.44a2.54,2.54,0,0,0,1-.64c.08-.08.08-.24.16-.32s.24-.24.24-.24c.08-.24,0-.64.16-1s.48-.56.64-.88a4.28,4.28,0,0,0,.4-.88c.08-.32-.08-.24,0-.48.16-.4.64-.48.56-1,.16-.8.56-1.44.72-2.24A6.78,6.78,0,0,0,1476.12,134.33Z"/><path class="cls-18" d="M1215.13,231c-.08.48.32,1.28-.08,1.68.64.56.24,1.28.08,2.16-.08.48.08,1,0,1.36s-.32.48-.4.72-.16.64-.4.64a3.59,3.59,0,0,1-.32,1.84c-.08.16-.08.4-.16.64s-.24.32-.24.48.08.56,0,.8-.32.48-.4.72c-.32.8-.64,1.6-1,2.48a11.58,11.58,0,0,1-1.52,2.8,4.52,4.52,0,0,1,0,1,6.33,6.33,0,0,0-1.36,1.52,4.7,4.7,0,0,1-.8,1.28c-.4.48-1,.72-1.44,1.2-.56,0-.48.16-.88,0a5.64,5.64,0,0,1-2.72,1.52,1.74,1.74,0,0,0-.4.24c-.24,0-.48-.08-.64,0a7.89,7.89,0,0,1-2.08.56c-.24,0-.56-.16-.8-.16-.4.08-.72.32-1.2.4-.8.16-1.76.08-2.72.16-.16,0-.24.16-.32.16s-.16-.16-.32-.16-.32.24-.48.24H1194c-.24,0-.56-.08-.72,0a5.79,5.79,0,0,1-2.24.32c-.24-.08-.16.24-.4.24-1.28.08-3.28.32-4.32-.48a1.56,1.56,0,0,1-1,.08c-.24,0-.32-.16-.56-.24h-.48a8.18,8.18,0,0,1-3.12-1.2,2.21,2.21,0,0,0-.72-.08c-.72-.4-1.12-1-2.16-1,0-.4-.32-.4-.24-.8-.4.24-.56-.24-.8-.4s-.56-.24-.8-.4a3.7,3.7,0,0,0-.56-.56c-.24-.16-.64-.24-.8-.4a3.48,3.48,0,0,1-.64-.8c-.16-.16-.64-.32-.48-.72-.4-.32-.72-.64-1.12-1-.08-.4-.32-.56-.24-1-.24-.24-.4-.24-.64-.56-.08-.08-.08-.24-.16-.32-.32-.08-.16-.24-.24-.32-.16-.24-.4-.56-.64-.88a14.32,14.32,0,0,1-.48-1.44c-.08-.24,0-.32-.08-.56a1.83,1.83,0,0,1-.24-1.36c-.16-.32-.56-.48-.64-.8-.16-.8-.08-1.52-.24-2.24-.08-.48-.56-.88-.32-1.44-.32-.32-.4-.88-.72-1.12.16-.64-.24-1.28-.24-2.08a7.1,7.1,0,0,1,.16-1.2v-1.36a8.48,8.48,0,0,1,.48-1.68c.08-.56,0-1.12.4-1.28-.4-1.36.48-2.4.48-3.76.24-.16.24-.72.48-.88,0-1.12.56-1.68.72-2.56.56-.24.72-.8,1-1.28.16-.16.32-.16.4-.24.24-.16.24-.88.8-.8.16-.4,0-.24,0-.72.64-.24.88-.88,1.52-1.28.16-.08.48-.16.64-.24s.32-.24.48-.4a6.17,6.17,0,0,0,.72-.72,7.92,7.92,0,0,1,1.36-.88,6.09,6.09,0,0,1,1.36-1c.16-.08.4-.4.64-.48a1.76,1.76,0,0,1,.64-.08c.32-.16,1-.72,1.44-.4a4.69,4.69,0,0,1,3.36-1c.4.08.4-.32.64-.32a15.48,15.48,0,0,1,2.88-.24c.4,0,.8.16,1.12.16a7.71,7.71,0,0,0,1.44-.24c.32,0,.56-.08.8-.08a5.18,5.18,0,0,1,1.92,0c.24.08.56.32.8.32s.64-.16.88-.16.64.24.88.32a3.06,3.06,0,0,0,.8.24c.32.08.72,0,1,.08a3.94,3.94,0,0,1,1.28.4c.4.08.88.32,1.28.4,1.44.24,2.64-.08,4,.48.24.08.56.4.88.56.08,0,.32-.08.4,0s.32.4.48.48c.24.24.64.16.48.56a10.43,10.43,0,0,1,3.12,2,2.52,2.52,0,0,0,.48,1.28c.4.4.72.8,1.12,1.2.16.16.08.48.24.88a13.14,13.14,0,0,0,1,1.76c0,.8.08.64.4,1.28s.48,1.52,1.2,1.84c-.08.56.4,1.12.48,1.68a20.21,20.21,0,0,1,.08,2.16c0,.24-.16.48-.08.64,0,.4.16.8.16,1.2C1215.29,230.57,1215.13,230.73,1215.13,231Zm-9.28-1.84a3.84,3.84,0,0,0,0-1c-.16-1-.72-1.92-1-3.12a9.47,9.47,0,0,0-.16-2.08c-.4-.16-.32-.64-.56-.88-.24-.4-.8-.56-.88-1a9,9,0,0,1-1.52-.8,7.37,7.37,0,0,1-1.52-.16c-.48-.16-.72-.48-1.12-.56-.8-.08-.88.4-1.76.24-.56-.24-.72-.88-1.2-1.2a2.3,2.3,0,0,0-1-.08c-.32-.08-.32-.48-.8-.4-.88.24-2,.8-3.2.32a2.35,2.35,0,0,0-1,.56c0-.32-.64-.08-.88-.16-.88.56-2.16,1-3,1.44-.24.08-.4,0-.56.16-.32.16-.56.64-.8.88a9,9,0,0,1-.88.88,2.9,2.9,0,0,1-.56.24c-1,.48-1.44,1.44-2.32,1.84-.08.8-.8,1.2-1.12,1.92-.24.56-.32,1.44-.56,1.92a5.52,5.52,0,0,1-.24.64c-.4,1.2,0,2.48-.64,3.52.32.16.16.64.24,1,.16.56.48,1,.24,1.68-.08.16-.32.08-.24.4.24.08.24.4.32.64a1.74,1.74,0,0,1,.4.64c.08.08-.08.24,0,.4.08.32.56.64.32,1.12.48.16.4.8.8,1-.24.56.56,1.12.32,2.08a1.79,1.79,0,0,1,.4.24c.08.16,0,.32.08.56.24.24.56.48.56.88.56.16.88.8,1.36,1.2.24.24.48.32.72.56.48.32.72.64,1,.88.08.08.16.24.24.24.32.16.72.16,1,.32s.56.48.8.56c.8.32,1.84.16,2.56,1,.88,0,1.36.4,2.4.32.4,0,.56.4,1,.4a6.33,6.33,0,0,1,1-.24,7.92,7.92,0,0,1,1.44.16,6.61,6.61,0,0,0,1.68-.72,2.2,2.2,0,0,1,1.44-.64c.08-.48.56-.72.88-1a4.4,4.4,0,0,0,1.2-1.28,10.27,10.27,0,0,1,.8-1,22.17,22.17,0,0,0,1.76-3,8,8,0,0,0,.8-1.68c.08-.16,0-.4,0-.64.08-.4.4-.56.16-.72a4.75,4.75,0,0,0,.32-1.92c.56-.56.4-1.28.56-2.24.08-.48.4-.88.4-1.28a17.42,17.42,0,0,0,.16-2.72C1206,229.29,1205.85,229.29,1205.85,229.13Z"/><path class="cls-18" d="M1266.17,215c0,.56.08,1.12.08,1.68,0,1-.24,2.16-.32,3.44a8.61,8.61,0,0,1-.32,2.88,12.2,12.2,0,0,1,0,3.44c0,.4.16.8.16,1.2,0,.08-.16.24-.16.48s.16.32.08.56a10.64,10.64,0,0,1-.4,1.52,6.84,6.84,0,0,0,0,1.28c-.08.4-.24.8-.32,1.28a37,37,0,0,1-.56,4.16c-.08.16-.24.24-.32.48-.16.56-.24,1.28-.4,1.92s-.32,1.12-.56,1.84c-.24.56-.48,1.92-.72,2.8a9,9,0,0,1-.4,1,10.15,10.15,0,0,1-.56,1.28,7.35,7.35,0,0,1-.4.64c0,.24-.24.16-.24.24s-.08.24-.16.4-.16.08-.24.24a20.23,20.23,0,0,0-1.2,1.92l-.24.24a1.74,1.74,0,0,0-.4.64,9.5,9.5,0,0,1-1.76,1.84c-.32.32-.8.56-1.2.88-.08.08,0,.32-.08.4s-.32.08-.4.16c-.4.32-.72.8-1.12,1a2.63,2.63,0,0,1-1.76.4c-.88,1-2.56,1.12-4.08,1.44a1.71,1.71,0,0,1-.88-.8c-.48.08-.64.48-1.12.48s-.8-.24-1.2-.24a4,4,0,0,1-2.4,0,4.19,4.19,0,0,1-1.44-.16c-.24,0-.4-.16-.64-.24a3.7,3.7,0,0,0-2.08-.32c-.32-.48-1-.48-1.52-.8-.16-.08-.32-.4-.48-.48s-.64-.24-.56-.56c-.24,0-.4-.24-.64-.4-.08-.16-.56-.08-.32-.56a1.67,1.67,0,0,1-1-.24c-.32-.16-.32-.64-.88-.56-.16-.4-.64-.4-.64-.88-.56,0-.72-.48-1.12-.56-.4-.88-1.28-1.36-2.08-2a4.64,4.64,0,0,1-1-.8,7.48,7.48,0,0,1-.88-1.44,3.48,3.48,0,0,0-.56-.48c-.16-.24-.16-.48-.32-.64s-.48-.24-.64-.48c-.08-.08-.08-.24-.16-.32a3,3,0,0,1-.72-1.6,3.11,3.11,0,0,1-.64-.8c.24-.48-.24-.8-.32-1.28-.24-.88-.16-1.92-.32-2.72a4.78,4.78,0,0,0-.64-1.28c-.08-.4.24-.4.16-.8s-.4-.4-.56-.64a2.44,2.44,0,0,0-.4-1.84c.48-1.12-.56-2.16-.24-3.2a2.84,2.84,0,0,0,.08-1.2,4.14,4.14,0,0,1,.16-1.68c.08-.32-.32-.72-.4-1.12s.32-1.52.32-2.24c0-.4-.16-.72-.08-1s.32-.56.4-.88c-.24-1.2,0-2.08-.24-3.2-.08-.48.48-.24.56-.48.08-.48-.24-.56-.24-1a7.9,7.9,0,0,0,.72-1.92,5.22,5.22,0,0,1,0-1.12c0-.32.24-.48.24-.8s-.08-.64.08-1.12a1.59,1.59,0,0,1,.48-1,3.33,3.33,0,0,1-.08-2.48c.56-.32,1.36-.24,1.84-.56.16.24.88,0,.88.4.16-.4.56-.08.8-.16s.64-.24,1-.24c1,0,2.16.08,3.12,0a1.61,1.61,0,0,1,.32.64,3.49,3.49,0,0,1,.48,1.92,42.29,42.29,0,0,1,0,5.52c0,.4.16.8.16,1.2a15.52,15.52,0,0,0-.16,1.92,5.5,5.5,0,0,0-.16,1,4.29,4.29,0,0,0,.24.8c.08.72.08,1.92.08,2.32-.16.88.24,1.68-.08,2.4.8,1.2.56,2.88.64,4.56a16.12,16.12,0,0,1,.4,2.24c0,.16-.16.4-.16.64s.24.56.24.88a11.71,11.71,0,0,0,.08,3.36,8.33,8.33,0,0,0,.48,1.28,7.32,7.32,0,0,0,.48,1.28,2.75,2.75,0,0,0,.64.72,2.21,2.21,0,0,0,.48.64c.32.4.64,1,1.28,1,0,.4.24.64.32,1a11.44,11.44,0,0,1,1.28.24c.24.4.72.56.88,1a1.74,1.74,0,0,1,1.28.48c.64-.24,1.2.32,2.08.32.32,0,1-.24,1.28-.24a1.16,1.16,0,0,0,.8.08,22.21,22.21,0,0,0,3.28-1c.16-.16.08-.32.24-.4s.48-.16.64-.4c.08-.08.08-.24.16-.4.4-.48.88-1,1.28-1.52a2.81,2.81,0,0,0,.72-.88,4.59,4.59,0,0,1,.88-1.28,5.42,5.42,0,0,1,1-2.4c0-.64,0-1.2.4-1.44-.16-.4.16-.64.08-1.28.08-.32.4-.48.56-.88.08-.24-.08-.72.24-.88a7.67,7.67,0,0,1,.08-4.24c.08-.48.4-.88.4-1.28s-.16-.56-.08-.8.24-.64.32-1-.16-.88-.16-1.44c0-.32.16-.72.16-1.12a11,11,0,0,0-.24-1.6c0-.4.16-.8.16-1.28a12.39,12.39,0,0,0-.08-1.68c0-.4.16-.8.16-1.28,0-.32-.08-.72-.08-1,0-.48.4-1,.16-1.52,0,0-.4-.24-.4-.4s.24-.32.16-.48a2.88,2.88,0,0,1-.4-.72c0-.08-.08-.48-.08-.48,0-.24.16-.24.16-.48a4.2,4.2,0,0,1-.24-1c-.08-.08.08-.16.08-.4,0-.08-.16-.16-.08-.32s.16-.32.24-.56,0-.32.16-.48c.72-.8,2.88-.32,4.56-.56a2.54,2.54,0,0,1,.72-.24c.4-.08.72.08,1,0,.64-.08,1.36-.56,2.08.08a1.84,1.84,0,0,1,2.56.16c.32.4.24.64.4,1.28a3.67,3.67,0,0,1,.08,1.36,15.72,15.72,0,0,0,.24,1.92C1266.49,213.61,1266.17,214.33,1266.17,215Z"/><path class="cls-18" d="M1297.6,215.69c0,.48.16.8.08,1-.24.72-.88.88-1.28,1.28-1-.48-1.76.08-2.64.24-.24,0-.8.08-1,.08a12.1,12.1,0,0,0-2.16.56c-.48.08-1-.16-1.44.16-.4.88-.08,2-.24,3.2,0,.24-.08.48-.08.8-.08.8.16,1.68.16,2.56a5.08,5.08,0,0,0,.24,2.48,5.66,5.66,0,0,0-.32,2.4c-.24,1.52.16,3.52.16,5-.08.64-.16,1.2-.24,1.84,0,.16.24.24.16.48,0,.08-.24.24-.24.24s.08.24.08.4c-.08,1,0,2.4-.08,3.92v.48c0,.4-.16.72-.16,1,.08.88.48,1.84-.16,2.72a3.59,3.59,0,0,0,.24.88c0,.24-.16.48-.16.64s.24.56.24.8-.16.32-.16.64c0,.48.16,1.2.24,1.92-.16.16-.16.4-.4.48a2.5,2.5,0,0,1-.56,2.72,13.77,13.77,0,0,0-4-.32,3.63,3.63,0,0,1-2.08.08c-.4.08-.56.32-1,.32s-.72-.4-1.12-.48c-.16-1.28.08-3.28,0-5.28a8.08,8.08,0,0,0-.24-1.36c-.08-.72,0-1.6-.08-2.32,0-.32.16-.72.16-1s-.24-.24-.24-.88a17,17,0,0,1,.56-3.6,2.37,2.37,0,0,1-.24-.8c0-.4.08-.88.08-1.28a8.44,8.44,0,0,1-.4-1.52c0-.4.16-.48-.08-1-.08-.16-.08-.32-.24-.48a21.88,21.88,0,0,0,.32-4c0-.32-.16-.48-.24-.8s0-.88-.08-1.44a13,13,0,0,1-.08-2.56c0-.32.16-.64.16-1s-.24-1-.24-1.44c0-.88.24-1.76.24-2.64a4.9,4.9,0,0,1-.24-1c-.08-1,.4-1.92.16-2.88-.16-.16-.32.08-.48.16a10.28,10.28,0,0,0-2,.48,10.1,10.1,0,0,0-1.28.32c-.8.24-1.2.56-1.84.08-.16-.32-.32-.24-.32-.24a2.44,2.44,0,0,1-.56-.8,1.86,1.86,0,0,1,.88-1.76c-.24-.4.16-.56.24-1a13.14,13.14,0,0,1,.16-1.68c.16-.64.64-1.12.72-1.68a20.2,20.2,0,0,1-.08-2.16c.16-1,.72-1.28,1.92-1,.64.16,1.28.16,1.44.72.88-.08,1.2.4,2,.4.72-1,.4-2.72.48-4.4a1.51,1.51,0,0,0,.16-.64,6.33,6.33,0,0,0-.24-1,6.67,6.67,0,0,1,.08-2.16,4.87,4.87,0,0,0,.24-1,2.46,2.46,0,0,0-.24-1c-.08-.24-.4-.48-.08-.72.08-.56-.72-.32-.48-1.12a.48.48,0,0,0,.24-.48c.48-.24.64,0,1.2,0a3.87,3.87,0,0,1,2.16-.16.44.44,0,0,1,.4-.24c.56.08,1,.32,1.52.4.4-.08.72-.32,1-.4s.24.16.32.16.64-.32.88,0c.48-.08.24.4.4.56s.32.16.32.4a15.44,15.44,0,0,1-.16,3.76c0,.08.16.16.08.32v1.2c0,.32-.16.88-.16,1.12s.16.4.24.72-.08.64,0,.88c.08.72.48,1.2-.16,1.92a4,4,0,0,1-.08,1.92c0,.32.08.72.08,1,0,.48-.4,1-.16,1.44.8.08,1.36-.56,2-.72s1.36.08,1.92-.48c.56.4,1.28-.48,1.68.16a3.26,3.26,0,0,1,2.88-.72c.4-.08.24.4.32.64s.32.32.4.56-.08.64,0,1c0,.24.24.4.24.64s-.16.32-.16.48c.08.72.4,1.36.48,1.92a2.84,2.84,0,0,0,.08.56C1297.76,215.45,1297.6,215.53,1297.6,215.69Z"/><path class="cls-18" d="M1314.24,253.61a4.86,4.86,0,0,1-1,1.68c-.88.16-1.76,0-2.88.08a12.37,12.37,0,0,0-1.68.08,10.2,10.2,0,0,1-1.52.08c-.4-.08-.64-.4-1-.4a4.48,4.48,0,0,1-.72-.56c0-.8-.4-1.2-.4-2.08-.32-.4-.8-.64-1.12-1.12a5.6,5.6,0,0,1-.16-2.48c0-.24.16-.4.24-.64a3.1,3.1,0,0,0,0-.88c.08-.24.56-.32.32-.56.48-.16.72-.64,1-1a4.28,4.28,0,0,0,2.08-1c.08,0,.24-.24.24-.24.16,0,.32.08.4,0s.24-.32.4-.4a9.19,9.19,0,0,1,1.68-.16,4.19,4.19,0,0,1,1.44.16c.4.16.64.64,1,.88.16.08.32.08.4.16a2.82,2.82,0,0,1,.8.64,3,3,0,0,1-.08,1.68,5,5,0,0,1,.64,1.84,19.43,19.43,0,0,1,.48,2.08A6.62,6.62,0,0,1,1314.24,253.61Zm1-52.88c-.08.88,0,1.84-.08,2.48-.08.4-.08,2.08-.08,3,0,.24.16.48.16.64a12.87,12.87,0,0,0-.32,3c0,.32.08.72.08,1.36,0,.16-.16.4-.16.64s.24.64.24,1a8.17,8.17,0,0,1-.32,1.12c0,.48.16,1,.16,1.28-.08.72-.48,1.12-.48,2.08a2.88,2.88,0,0,1,0,1.44c-.08.32-.24.72-.32,1.12a30.16,30.16,0,0,0,.24,3.52c0,.8.08,1.6,0,2.56,0,.24-.08.48-.08.8,0,1.28.08,2.64,0,4,0,.72-.32,1.44-.32,2.16,0,.4.24.72.24,1.2a20,20,0,0,1-.16,3,13.73,13.73,0,0,1-.08,1.92,3.87,3.87,0,0,1-1,1.36c-.48.16-.88-.16-1.44-.16-.4.08-.32.32-1,.24-.32,0-.64-.24-1-.24s-.8,0-1.12-.08-.64-.32-.88-.4c-.48-.08-.8,0-1-.16a1.13,1.13,0,0,0-.64-.48,8,8,0,0,0-.32-2,4.2,4.2,0,0,0,0-2.8c.08-.32.24-.56.32-.88s-.08-.4-.08-.64.08-.48.08-.64-.08-.4-.08-.64.16-.48.16-.72c-.08-.48-.32-.88-.4-1.36,0-.32.16-.32.16-.56a2.83,2.83,0,0,0-.08-.48.5.5,0,0,1,.24-.4.37.37,0,0,0-.16-.4,20.08,20.08,0,0,0,.32-2.16c0-.72-.48-1.44-.08-2.08a2.71,2.71,0,0,1-.48-1.2c0-.32.24-.72.32-1.28a14,14,0,0,1-.24-1.92,2.06,2.06,0,0,1,.4-1.12c-.08-.32-.16-.48-.24-.8a1.62,1.62,0,0,0-.08-.4,3.47,3.47,0,0,0,.08-.4,46.58,46.58,0,0,0-.24-6.56,1.26,1.26,0,0,0,0-.56c-.16-.72-.4-2.16-.56-3.2a6.67,6.67,0,0,0,.48-1.68,9.52,9.52,0,0,0-.4-.88c-.32-1.2.08-2.64-.32-3.68a5.27,5.27,0,0,0,.32-.88c0-.4-.16-.8-.16-1.28a4,4,0,0,1,.4-1,14.91,14.91,0,0,0,2.72-.56,6.05,6.05,0,0,1,1.68-.08h.56a15,15,0,0,1,5,.72,7.59,7.59,0,0,1,.4,2.64C1315.52,199.69,1315.28,200.17,1315.28,200.73Z"/></g></g></g></svg>