<svg xmlns="http://www.w3.org/2000/svg" xmlns:xlink="http://www.w3.org/1999/xlink" viewBox="0 0 1911.18 960.1"><defs><style>.cls-1{fill:none;}.cls-2{isolation:isolate;}.cls-16,.cls-17,.cls-18,.cls-21,.cls-3{mix-blend-mode:multiply;}.cls-4{fill:url(#linear-gradient);}.cls-5{fill:url(#linear-gradient-2);}.cls-6{fill:url(#linear-gradient-3);}.cls-7{fill:url(#linear-gradient-4);}.cls-8{fill:url(#linear-gradient-5);}.cls-9{fill:url(#linear-gradient-6);}.cls-10{fill:#48395f;}.cls-11{fill:#008f76;}.cls-12{fill:#05ab8c;}.cls-13,.cls-15{fill:#005b49;}.cls-13{opacity:0.7;}.cls-14{fill:#55676f;}.cls-14,.cls-16{opacity:0.3;}.cls-15{opacity:0.5;}.cls-16,.cls-22{fill:#231f20;}.cls-16{stroke:#231f20;stroke-miterlimit:10;stroke-width:7.08px;}.cls-17{fill:url(#linear-gradient-7);}.cls-18{fill:url(#linear-gradient-8);}.cls-19{fill:#f8f9f4;}.cls-20,.cls-21{fill:#944f90;}.cls-23{fill:#fff;}.cls-24{fill:#b6dad0;opacity:0.6;}.cls-25{fill:#f2a74c;}.cls-26{clip-path:url(#clip-path);}.cls-27{fill:#f4b46c;}.cls-28{fill:#f5bf86;}.cls-28,.cls-29{fill-rule:evenodd;}.cls-29{fill:#f7cc9b;}.cls-30{fill:url(#linear-gradient-9);}.cls-31{fill:url(#linear-gradient-10);}.cls-32{fill:url(#linear-gradient-11);}.cls-33{fill:url(#linear-gradient-12);}.cls-34{fill:url(#linear-gradient-13);}</style><linearGradient id="linear-gradient" x1="448.7" y1="685.99" x2="1397.41" y2="685.99" gradientUnits="userSpaceOnUse"><stop offset="0" stop-color="#fff"/><stop offset="0.46" stop-color="#ccc"/><stop offset="1" stop-color="#fff"/></linearGradient><linearGradient id="linear-gradient-2" x1="994.28" y1="854.26" x2="1437.39" y2="854.26" xlink:href="#linear-gradient"/><linearGradient id="linear-gradient-3" x1="1035.98" y1="771.21" x2="1258.27" y2="771.21" xlink:href="#linear-gradient"/><linearGradient id="linear-gradient-4" x1="815.54" y1="775.55" x2="986.83" y2="775.55" xlink:href="#linear-gradient"/><linearGradient id="linear-gradient-5" x1="1036.92" y1="673.65" x2="1069.88" y2="673.65" xlink:href="#linear-gradient"/><linearGradient id="linear-gradient-6" x1="1006.51" y1="709.81" x2="1010.08" y2="709.81" xlink:href="#linear-gradient"/><linearGradient id="linear-gradient-7" x1="-2841.31" y1="52.4" x2="-2841.31" y2="-19.27" gradientTransform="translate(2666.35 -270.67) rotate(-20.82)" xlink:href="#linear-gradient"/><linearGradient id="linear-gradient-8" x1="-2772.12" y1="39.4" x2="-2772.12" y2="-74.29" gradientTransform="translate(2666.35 -270.67) rotate(-20.82)" xlink:href="#linear-gradient"/><clipPath id="clip-path"><ellipse class="cls-1" cx="1600.27" cy="684.74" rx="195.63" ry="240.55" transform="translate(-54.47 1224.71) rotate(-41.24)"/></clipPath><linearGradient id="linear-gradient-9" x1="1132.79" y1="523.28" x2="1534.98" y2="523.28" xlink:href="#linear-gradient"/><linearGradient id="linear-gradient-10" x1="1194.27" y1="710.91" x2="1356.21" y2="710.91" xlink:href="#linear-gradient"/><linearGradient id="linear-gradient-11" x1="1789.64" y1="780.45" x2="1860.63" y2="780.45" xlink:href="#linear-gradient"/><linearGradient id="linear-gradient-12" x1="1856.21" y1="805.44" x2="1907.02" y2="805.44" xlink:href="#linear-gradient"/><linearGradient id="linear-gradient-13" x1="730.6" y1="810.67" x2="949.11" y2="810.67" xlink:href="#linear-gradient"/></defs><title>outcomeMoosh_3</title><g class="cls-2"><g id="Layer_2" data-name="Layer 2"><g id="moosh"><g class="cls-3"><path class="cls-4" d="M454.81,659.05c75.84-50.6,170.17-72,260.5-60.11,84.43,11.11,163,52.27,221.28,114.2A341.52,341.52,0,0,1,1008,828.61a34.23,34.23,0,0,0,5.22,8.65c.33.42,4.72,5.22,4.94,4.54,20.14-64.3,56.86-122.64,104.51-170.13,47.3-47.14,105.27-83.74,168.48-105.42a404.44,404.44,0,0,1,111.31-21.52c1,0-3.54-7.65-3.9-8.16-1.15-1.64-3.92-6.57-6.34-6.45-67.3,3.29-133,24.14-191,58.28-57.54,33.9-107.56,80.78-144.46,136.49a404.44,404.44,0,0,0-48.87,102.3l10.16,13.19C987.54,758,928.76,685.43,854.6,638.42c-77.78-49.3-171.93-67.11-262.61-51.95a378.46,378.46,0,0,0-147.42,58c-1.71,1.14,8.28,15.92,10.24,14.61Z"/></g><g class="cls-3"><path class="cls-5" d="M1003.71,904.83c55.64-38.75,116.3-73.57,183-88.72,56.9-12.92,116.89-9.72,169.49,17,28.38,14.41,53.14,35.33,71.08,61.7,1.94,2.85,7.48,3.36,10.57,3.54,1,.06,8.39,0,6.67-2.5-34.88-51.26-93.42-79.92-153.39-89.7-68.25-11.13-137,4.11-199.11,32.88-37,17.12-71.74,38.57-105.12,61.82-2.61,1.82,4.92,4.15,5.66,4.32,3.14.75,8.23,1.7,11.14-.33Z"/></g><g class="cls-3"><path class="cls-6" d="M1043.26,818.67c38.44-51.14,101.42-81.16,165.14-81.41a192.41,192.41,0,0,1,53.28,7.23c3.7,1,1.92-3.46,1-5.12-1.7-3.1-5.2-7.48-8.82-8.51-62.41-17.69-131.87-3.5-183.5,35.48a197,197,0,0,0-38.81,38.85c-3,4,9.63,16.22,11.7,13.47Z"/></g><g class="cls-3"><path class="cls-7" d="M814.58,713.37c58.07,2.65,112.34,38,142.39,87.1A168.87,168.87,0,0,1,976.38,846c2.13,8.12,19.54,4.25,17.43-3.8-16-61-64.77-111.08-124.1-131.49a189,189,0,0,0-53.07-10.06c-3.77-.17-9.19,2.49-9.8,6.58-.66,4.5,4.27,6,7.72,6.15Z"/></g><g class="cls-3"><path class="cls-8" d="M1046.81,717.26l29.61-81.7c3.4-9.39-12.69-15.85-16.43-5.52l-29.61,81.7c-3.4,9.39,12.69,15.85,16.43,5.52Z"/></g><g class="cls-3"><path class="cls-9" d="M1016.14,733V679.43c0-3.79-15.69,2.66-15.69,7.21v53.53c0,3.79,15.69-2.66,15.69-7.21Z"/></g><ellipse class="cls-10" cx="485.73" cy="924.53" rx="344.4" ry="35.57"/><path class="cls-11" d="M872.1,619.41a18.09,18.09,0,0,1-16.72-15.8c-1-3.65.34-7.85,1.55-12.21,12.33-44.51-18.59-90.06-65.66-96.73L789.9,389.11c-5.74-1.18-11.7-2.24-17.92-3.17l1.55,119.17c47.07,6.68,78,52.22,65.66,96.73-1.21,4.36-2.52,8.56-1.55,12.21a18.09,18.09,0,0,0,16.72,15.8,29.75,29.75,0,0,0,8.79-.08c5.13-1.06,9.18-4.07,12.47-8a22.87,22.87,0,0,0,1.52-2.11C875.46,619.69,873.81,619.55,872.1,619.41Z"/><path class="cls-11" d="M884.83,600.18c-.88,2.21-4.15,11.49-4.64,14-.65,3.38,3.06,4.83,1.66,4.85,6.33,8.44,12.45,10.63,22.89,8.42,7.6-1.61,12-5.24,14.7-10C909.6,618.86,891.46,610.53,884.83,600.18Z"/><path class="cls-11" d="M933.84,598.29c-.37-1.36-3.06-17.65-3.23-18.82-1.54,9.42-13.69,14.53.48,34.14,6.71,5.75,17.06,6,24.61-1a22.69,22.69,0,0,0,4.08-5.16C952.24,607.18,936.17,606.91,933.84,598.29Z"/><path class="cls-12" d="M963.23,562.61c-1-33.53-7.24-52-25.72-75.82C905.27,445.3,868.37,402.16,778.63,387,722.9,202.48,580.93-8.77,393.94.28,342,2.79,290.74,25,249.14,56c-44.4,33.08-74.9,77-94.15,127.16a380.67,380.67,0,0,0-18.42,65.92C117.9,348,132.67,460.86,165.21,560c-38.48,33.59-53,112.83-52.42,166.06.21,20.36,5.62,39.34,12,58.44a170,170,0,0,0,24.06,46.11c7.21,9.83,19,23.59,32.05,13.87,8.34-6.19,11.17-23,3.94-31,4,4.9,9.73,11.92,10.43,12.54,9,7.93,21.77,2.43,27.52-6.77,4.72-7.56,3-17.69,1.56-25.93,1.26,1.11,2.55,2.19,3.79,3.29a17.92,17.92,0,0,0,4.88,3.51,2.55,2.55,0,0,0-.8-.81c6.23,3.93,12.44,7.84,20.07,5.19,16.13-5.62,18-30.7,4.83-40.32-22.67-16.52-33.06-43.25-30.41-69.43q7,10.48,14.55,19.71s0,0,0,0c.44.48.63,1.11,1.29,1.59.48.58.95,1.17,1.43,1.74a11.33,11.33,0,0,0,2.65,3.08h0c.68.78,1.37,1.53,2,2.3l1.37,1.53q1.65,1.83,3.32,3.6l.73.77-.36-.37.7.72c1,1,2,2.09,3,3.11.68.68,1.36,1.36,2,2l-.37-.38.88.87-.51-.49c.73.72,1.45,1.45,2.19,2.15.45.43.9.84,1.35,1.27q1.28,1.2,2.56,2.38,1.56,1.43,3.14,2.82c.57.5,1.14,1,1.72,1.52-.57-.49-1.14-1-1.71-1.52l2.29,2-.58-.47.81.67c1.12,1,2.24,1.88,3.37,2.81.79.65,1.58,1.31,2.38,1.94l1.63,1.28,1.66,1.26.55.42c.67.51,1.33,1,2,1.53q2.94,2.18,5.93,4.23l.28.19q3.5,2.4,7.06,4.62l.31.2a207.51,207.51,0,0,0,53.52,23.57l.55.16c2.33.65,4.66,1.25,7,1.83l1.46.36c2.19.52,4.4,1,6.61,1.47l1.92.39q3.19.64,6.4,1.18l2.16.35c2.11.34,4.22.66,6.33.94l2.19.27c2.13.27,4.27.52,6.41.74l1.92.17c2.25.21,4.5.41,6.76.56h.13q8.29.55,16.64.61h2a40.87,40.87,0,0,1-3.38,8.52c-3.91,7.15-11.41,7.29-18.54,8.59-20.81,3.78-41,9-61.49,14.13-21.15,5.27-57.26,11.29-65,35.21-3.82,11.58,4.25,25.15,13.2,32.11,16.5,12.82,39.13,13.63,59.4,12.92,47.6-1.66,100.94-.65,143.77-5.32,15.36-1.67,31.83-.35,42.42-13.3,9.89-12.1,13.1-43.28,9.68-57.59a14.88,14.88,0,0,1-.36-2.75,3.23,3.23,0,0,0,1.19-2.47,3.14,3.14,0,0,0,.31-1.86l-.14-1.21c.63-5.61,3.19-10.35,8.31-13.25A29.06,29.06,0,0,1,555,808a17.14,17.14,0,0,1,6.18.81l.44.19a14.65,14.65,0,0,1,1.38.62,9.1,9.1,0,0,1,4.15,5.13,25.71,25.71,0,0,1,.69,5.57c0,.16,0,.33,0,.5-.29,7.51-3.75,16.49-4,22A59.78,59.78,0,0,0,565.07,859c-1.15,10.48,0,21.08,6.75,29.73C582.1,901.89,598.46,903,613.91,903c47.63.13,95.22,1,142.77,3.79,20.25,1.19,42.9.92,59.69-11.51,9.35-6.92,15.59-18.44,14.07-29.35-.22-12-12-18.36-21.86-22.23-35.16-13.8-74.26-17.81-110.71-27.84-7.78-2.14-13.54-88.42-12.91-99,0-.05-13.65,0-24.2,0a42.1,42.1,0,0,1,18.1-14.38c10.13-4.17,20.65-20,25.06-28.21,7-13,17.8-29.74,25.38-45,.88-1.77,1.62-3.24,2.28-4.55.66-2,1.75-5,3.42-9.5,1.17-3.13,2.89-6,3.89-9.17,2.41-7.7,3.76-17.74,6.41-26.39q1.44-4.52.2.47l3.16-11.48c.95-3,2.52-5.91,3.7-8.87-1.13,1.75.77-12.67,1.52-15.58,4.94-19.22,17.31-34.13,35-35.34,38.17,13.29,61.24,53.53,50.31,93-1.21,4.36-2.52,8.56-1.55,12.21a18.09,18.09,0,0,0,16.72,15.8,29.74,29.74,0,0,0,8.79-.08c5.13-1.06,9.18-4.07,12.47-8a22.46,22.46,0,0,0,3.77-6.27c7.29,11.38,13.58,14.47,25.35,12,15.55-3.29,17.65-15,19.64-27.22a29.93,29.93,0,0,0,.76,3.75c3.79,14,20,18.42,30.56,8.56,5.53-5.14,7.74-12.45,8.45-20.31C965.06,582.17,963.47,571.13,963.23,562.61ZM184.38,817.15c.05-.22.08-.44.12-.66C184.44,816.94,184.4,817.23,184.38,817.15Z"/><path class="cls-12" d="M252,726.81c.58.63,1.18,1.25,1.76,1.87l-.37-.4C252.92,727.8,252.45,727.32,252,726.81Z"/><path class="cls-11" d="M340.11,768.39c-17.7-8-35.35-14.88-50.18-29.26-7.24-7-13.34-16-21.86-21.05-2.69-1.6-5.41-3-8.13-4.42a18.32,18.32,0,0,1-7.61,4.64,21.26,21.26,0,0,1-7.17,1.12,11.32,11.32,0,0,0,1.48,1.43,221.44,221.44,0,0,0,42.13,38l.28.19q3.5,2.4,7.06,4.62l.31.2a207.54,207.54,0,0,0,53.52,23.57l.55.16c2.33.65,4.66,1.25,7,1.83l1.46.36q3.29.79,6.61,1.47l1.92.39q3.19.64,6.4,1.18l2.16.35c2.11.34,4.21.66,6.33.94l2.19.27c2.13.27,4.27.52,6.41.74l1.92.17c2.25.21,4.5.41,6.76.56h.13q8.29.55,16.64.61h.06c1.86,0,3.72,0,5.59,0,1.14,0,2.28,0,3.42,0,1.66,0,3.33-.11,5-.17,1.35-.05,2.7-.1,4-.17,1.56-.08,3.13-.18,4.69-.28s2.93-.2,4.4-.31,3-.25,4.47-.38l.72-.07c-.07-1.53-.07-3,0-4.55C412.11,793,375.35,784.39,340.11,768.39Z"/><path class="cls-12" d="M416.43,796.44q-8.35-.06-16.64-.61Q408.07,796.37,416.43,796.44Z"/><path class="cls-12" d="M430.49,796.19c-1.66.06-3.33.13-5,.17C427.15,796.32,428.82,796.26,430.49,796.19Z"/><path class="cls-12" d="M399.66,795.82c-2.26-.15-4.51-.35-6.76-.56C395.15,795.47,397.4,795.67,399.66,795.82Z"/><path class="cls-12" d="M422.08,796.4c-1.86,0-3.73.05-5.59,0C418.35,796.45,420.21,796.42,422.08,796.4Z"/><path class="cls-12" d="M373.89,792.78q-3.21-.55-6.4-1.18Q370.68,792.23,373.89,792.78Z"/><path class="cls-12" d="M391,795.09c-2.14-.21-4.28-.47-6.41-.74C386.7,794.62,388.83,794.87,391,795.09Z"/><path class="cls-12" d="M382.38,794.07c-2.12-.28-4.23-.61-6.33-.95C378.15,793.47,380.26,793.79,382.38,794.07Z"/><path class="cls-12" d="M439.23,795.74c-1.57.1-3.13.2-4.7.28C436.1,795.94,437.66,795.84,439.23,795.74Z"/><path class="cls-12" d="M357.5,789.38c-2.34-.58-4.68-1.18-7-1.83C352.82,788.2,355.16,788.8,357.5,789.38Z"/><path class="cls-12" d="M484,790l-3.05.54Z"/><path class="cls-12" d="M466,793c-1.35.19-2.69.36-4,.54C463.31,793.33,464.65,793.15,466,793Z"/><path class="cls-12" d="M475,791.59c-1.23.2-2.46.39-3.7.58C472.52,792,473.75,791.79,475,791.59Z"/><path class="cls-12" d="M457,794.12l-4.28.47Z"/><path class="cls-12" d="M448.1,795q-2.24.2-4.47.38Q445.86,795.25,448.1,795Z"/><path class="cls-12" d="M365.57,791.2q-3.31-.69-6.61-1.47Q362.26,790.52,365.57,791.2Z"/><polygon class="cls-12" points="544.26 770.07 492.95 788.24 544.27 770.07 544.26 770.07"/><path class="cls-12" d="M296.12,763.63q-3.56-2.23-7.06-4.62Q292.56,761.4,296.12,763.63Z"/><path class="cls-11" d="M434.53,796c-1.35.07-2.7.12-4,.17C431.83,796.14,433.18,796.09,434.53,796Z"/><path class="cls-11" d="M443.63,795.43c-1.47.12-2.94.21-4.4.31C440.69,795.64,442.16,795.54,443.63,795.43Z"/><path class="cls-11" d="M480.92,790.55c-2,.36-4,.71-5.94,1C477,791.27,478.94,790.91,480.92,790.55Z"/><path class="cls-11" d="M493,788.23q-4.48.94-9,1.78Q488.47,789.17,493,788.23Z"/><path class="cls-11" d="M350.49,787.55l-.55-.16Z"/><path class="cls-11" d="M425.49,796.36c-1.14,0-2.28,0-3.42,0C423.21,796.39,424.35,796.39,425.49,796.36Z"/><path class="cls-11" d="M471.28,792.17c-1.76.27-3.53.54-5.29.79C467.76,792.71,469.52,792.44,471.28,792.17Z"/><path class="cls-11" d="M462,793.5q-2.46.32-4.93.61Q459.5,793.83,462,793.5Z"/><path class="cls-11" d="M452.76,794.59q-2.33.24-4.66.46Q450.43,794.83,452.76,794.59Z"/><path class="cls-11" d="M289.06,759l-.28-.19Z"/><path class="cls-11" d="M384.56,794.35l-2.19-.27Z"/><path class="cls-11" d="M376,793.13l-2.16-.35Z"/><path class="cls-11" d="M392.9,795.26l-1.92-.17Z"/><path class="cls-11" d="M367.49,791.59l-1.92-.39Z"/><path class="cls-11" d="M416.49,796.44h0Z"/><path class="cls-11" d="M399.79,795.83h0Z"/><path class="cls-11" d="M359,789.74l-1.46-.36Z"/><path class="cls-11" d="M296.43,763.82l-.31-.2Z"/><path class="cls-12" d="M643.55,734.92c3.36-1,6.8-2.12,10.22-3.2,0-.15.09-.31.13-.46Z"/><path class="cls-13" d="M643.55,734.92c3.36-1,6.8-2.12,10.22-3.2,0-.15.09-.31.13-.46Z"/><path class="cls-12" d="M653.77,731.72c-.09.36-.21.7-.3,1.06,2.15-1,4.31-2,6.46-3C657.85,730.46,655.83,731.07,653.77,731.72Z"/><path class="cls-14" d="M653.77,731.72c-.09.36-.21.7-.3,1.06,2.15-1,4.31-2,6.46-3C657.85,730.46,655.83,731.07,653.77,731.72Z"/><path class="cls-12" d="M753.87,544.19c-.75,2.92-2.65,17.33-1.52,15.58-1.18,3-2.75,5.91-3.7,8.87l-3.16,11.48q1.24-5-.2-.47c-2.64,8.65-4,18.69-6.41,26.39-1,3.2-2.72,6-3.89,9.17-1.68,4.46-2.76,7.51-3.42,9.5-.66,1.31-1.4,2.78-2.28,4.55-7.58,15.28-18.38,32.06-25.38,45-4.41,8.17-14.93,24-25.06,28.21a43.08,43.08,0,0,0-25,28.77l11-3.9C716,702.25,763,668,786.79,614.73l.36-.82-.38.14.52-.43c.47-1.07,1-2.11,1.42-3.19q1.73-4.16,3.22-8.46c9.64-27.74,12.06-59.53,10.29-91.53-.39-.12-.77-.27-1.16-.38C776.85,503.81,759.88,520.83,753.87,544.19Z"/><path class="cls-11" d="M801.47,499.73c-1.7-.44-17.73-2.34-19.35-2.55,2.15,34.38,3.32,59.49-5.68,86.53-8.94,26.82-18.78,53.67-36.25,74.71a152.39,152.39,0,0,1-31.78,28.77c-12.39,8.43-23.86,20.53-38.54,24.32-9,2.32-13.35,10.15-16,19.76l11-3.9C716,702.25,763,668,786.79,614.73l.36-.82-.38.14.52-.43c.47-1.07,1-2.11,1.42-3.19q1.73-4.16,3.22-8.46c9.64-27.74,12.06-59.53,10.29-91.53C801.83,510.32,801.85,499.83,801.47,499.73Z"/><path class="cls-12" d="M653.77,731.72c2.06-.65,4.08-1.26,6.16-1.93,1.67-.8,3.32-1.61,5-2.43l-11,3.9C653.86,731.41,653.81,731.56,653.77,731.72Z"/><path class="cls-13" d="M653.77,731.72c2.06-.65,4.08-1.26,6.16-1.93,1.67-.8,3.32-1.61,5-2.43l-11,3.9C653.86,731.41,653.81,731.56,653.77,731.72Z"/><path class="cls-14" d="M653.77,731.72c2.06-.65,4.08-1.26,6.16-1.93,1.67-.8,3.32-1.61,5-2.43l-11,3.9C653.86,731.41,653.81,731.56,653.77,731.72Z"/><path class="cls-1" d="M848.46,738.52l-.69.66Q855.09,738.38,848.46,738.52Z"/><path class="cls-12" d="M848.46,738.52l.25-.24-.71.25Z"/><path class="cls-15" d="M848.46,738.52l.25-.24-.71.25Z"/><path class="cls-16" d="M253.93,153.11c-15.91-.41-30.63,4.82-44.84,11.41-21.19,9.82-41.25,27.62-44.69,51.82-1.23,8.65,5,15.31,13.86,13.3a1.59,1.59,0,0,0,1.23-1.71c-1.26-14.64,8.33-30.82,18.69-40,17.75-15.66,42.38-25.58,65.4-31.13a1.57,1.57,0,0,0-.19-3.09Q258.68,153.23,253.93,153.11Z"/><path class="cls-17" d="M9.39,720.9c-7.06,5.93-8.88,13.79-9.34,22-.69,12.27,5.8,27.49,24.7,39,6.76,4.12,15,4.56,17,.3.18-.38-.21-.88-.92-1.19-12.84-5.7-22.39-16.2-25.7-24C9.5,743.59,11.56,730,16.6,718.77c.38-.83-1.78-1.82-2.68-1.23A47.33,47.33,0,0,0,9.39,720.9Z"/><path class="cls-18" d="M67.24,643.42c-9.83,12.52-14.42,27.45-17.62,42.78C44.84,709.06,47.14,735.79,64.5,753c6.21,6.15,15.25,5.16,18.94-3.17a1.59,1.59,0,0,0-.64-2c-12.5-7.73-19.75-25.08-20.89-38.85C60,685.38,66.71,659.7,76,637.91a1.57,1.57,0,0,0-2.59-1.7Q70.17,639.69,67.24,643.42Z"/><path class="cls-16" d="M482.26,91c14.83-5.79,30.45-5.87,46-4.5,23.26,2,48.18,12,59.63,33.56,4.09,7.72.53,16.09-8.52,17.22a1.59,1.59,0,0,1-1.73-1.19c-3.79-14.2-18.3-26.16-31.15-31.23-22-8.7-48.55-9.66-72.09-7.07a1.57,1.57,0,0,1-.87-3Q477.84,92.71,482.26,91Z"/><path class="cls-19" d="M592.52,268.51c13.34,41.07-5.12,77.18-46.23,90.39-37.76,12.14-75.17-7.62-88.35-46.67-13.43-39.78,5.17-77.32,44.68-90.17C544.08,208.58,578.89,226.57,592.52,268.51Z"/><path class="cls-19" d="M301.19,434.27c-36.6,11.84-70.63-6.28-82.75-44.07-11.76-36.66,3.75-73.21,35.73-82.92,41.62-12.64,78.64,7.25,89.82,43.16C355.57,387.66,337.75,422.44,301.19,434.27Z"/><path class="cls-20" d="M601.45,162.45l.31.15Z"/><path class="cls-20" d="M723.42,255.25a1.33,1.33,0,0,0-.38-.1,1.29,1.29,0,0,1,.38.1,1.84,1.84,0,0,0,.36.12A1.86,1.86,0,0,1,723.42,255.25Z"/><path class="cls-20" d="M741.61,290.94l-.58-.35,1,.63Z"/><path class="cls-21" d="M923.08,713.3"/><path class="cls-12" d="M318.52,356.57a32.08,32.08,0,0,0-37.9,44.11,34.68,34.68,0,0,0,30,20.28C349.21,422.11,355.61,366.55,318.52,356.57Z"/><path class="cls-22" d="M315.85,367.09a21.39,21.39,0,0,0-25.28,29.42,23.12,23.12,0,0,0,20,13.52C336.31,410.79,340.58,373.74,315.85,367.09Z"/><circle class="cls-23" cx="324.02" cy="368.33" r="14.15" transform="translate(-98.98 119.88) rotate(-18.23)"/><path class="cls-12" d="M550.44,268.88c-20.32,6.42-31.86,31-20.06,53C539,338,558.74,345.66,574.11,340.6,613.43,327.64,591.5,255.9,550.44,268.88Z"/><path class="cls-22" d="M553.61,280.89c-13.65,4.31-21.4,20.8-13.48,35.63,5.77,10.8,19.05,15.95,29.38,12.55C595.92,320.36,581.19,272.17,553.61,280.89Z"/><circle class="cls-23" cx="574.23" cy="280.6" r="12.68" transform="translate(-58.96 193.77) rotate(-18.23)"/><path class="cls-11" d="M498.78,885.18c-42.83,4.67-96.17,3.66-143.77,5.32-20.27.71-42.91-.1-59.41-12.92-8.62-6.7-16.38-19.51-13.55-30.78-5.58,4.24-9.95,9.45-12.1,16.07-3.82,11.58,4.25,25.15,13.2,32.11,16.5,12.82,39.13,13.63,59.41,12.92,47.6-1.66,100.94-.65,143.77-5.32,15.36-1.67,31.83-.35,42.42-13.3a38.48,38.48,0,0,0,6-11.53C524.51,884.44,511.28,883.82,498.78,885.18Z"/><path class="cls-11" d="M557.24,788.24a30.38,30.38,0,0,1,4.79-3.81,14.27,14.27,0,0,0-2.24-.77Q558.45,785.9,557.24,788.24Z"/><path class="cls-11" d="M825.69,878.35c-16.8,12.43-39.45,12.7-59.69,11.51-47.55-2.79-95.14-3.66-142.77-3.79-9,0-18.28-.41-26.51-3.32-11,0-21-.8-29.41-9.43-.85-.87-1.63-1.77-2.42-2.66a34.53,34.53,0,0,0,6.93,18C582.1,901.89,598.46,903,613.91,903c47.63.13,95.22,1,142.77,3.79,20.25,1.19,42.9.92,59.69-11.51,6.94-5.14,12.15-12.81,13.76-20.88A37.46,37.46,0,0,1,825.69,878.35Z"/><path class="cls-11" d="M166.11,838.31c-9.8-9.51-16.46-20.72-21.65-32.72a85.67,85.67,0,0,1-20.32-47.15A150.51,150.51,0,0,1,115.3,733c-1-3.8-1.75-7.6-2.46-11.4,0,1.55,0,3.1,0,4.6.21,20.36,5.62,39.34,12,58.44a169.92,169.92,0,0,0,24.06,46.11c7.21,9.83,19,23.59,32.05,13.87a14.82,14.82,0,0,0,1.51-1.31C177.19,844.55,171.32,843.37,166.11,838.31Z"/><path class="cls-11" d="M265.61,785.19a17,17,0,0,1-1.89,5c-.17.31-.36.62-.55.92a21.13,21.13,0,0,1-2.11,2.9,18.68,18.68,0,0,1-3.7,3.12,1.12,1.12,0,0,1-1.05.7,20.53,20.53,0,0,1-6.15,2.24,19.34,19.34,0,0,1-12.5-1.42A21.34,21.34,0,0,1,227,793.87a14.94,14.94,0,0,1-1.78-1.76,13.2,13.2,0,0,0-.83,1.29c8.13,9.24,20.78,13.66,27.93,11.17,8.53-3,13-11.4,13.48-20.1l-.1.05C265.68,784.75,265.68,785,265.61,785.19Z"/><path class="cls-11" d="M194.78,776.48c0,.21-.07.43-.12.64S194.72,776.92,194.78,776.48Z"/><path class="cls-11" d="M224.29,810.08a21.45,21.45,0,0,1-8.52,11.48c-4,2.53-6.37,3-10.9,3.79-5.09.92-10.6-1.83-14.42-5-.31-.25-.58-.53-.86-.8,1.07,1.27,2.32,2.69,3.86,4.34,1,1.15,1.69,2,1.91,2.17,9,7.93,21.77,2.43,27.52-6.77a22.42,22.42,0,0,0,3-11.28c-.38.24-.84.62-1.26,1C224.53,809.35,224.42,809.7,224.29,810.08Z"/><path class="cls-24" d="M725.39,327.6c5.45,9-2,18.83-14.77,27.45-14,9.42-26,8-34.87-6.35-9.49-15.34-9.92-31.85,5.11-43.06C700.43,291,710.64,308.3,725.39,327.6Z"/><path class="cls-24" d="M651.06,274.93c11.07-3.78,20-2.61,25.86,7,6,9.87.33,16.29-7.86,21.46-9.41,5.93-16.19,2.9-22-5.69C640.42,288,646.67,281.63,651.06,274.93Z"/><path class="cls-24" d="M717.67,414.93c-8.08,4.43-17.52,5.23-23-3.41-5-8-2.94-18,5.54-23.43,7.47-4.75,15.36-3.34,20.72,5.14C726,401.21,726,408.26,717.67,414.93Z"/><path class="cls-24" d="M176.48,543c1.16,12.46,15.21,16.57,33.48,15.79,20-.85,30.47-10.65,28.81-30.68-1.77-21.35-13-37.42-35.28-37.51C174.51,490.44,176.95,514.12,176.48,543Z"/><path class="cls-24" d="M174.91,421.4c-13.24,4.21-21,11.66-19.74,25,1.28,13.63,11.18,15.79,22.65,14.94,13.17-1,17.51-8.66,17-21C194.31,426.4,183.82,424.7,174.91,421.4Z"/><ellipse class="cls-10" cx="1630.17" cy="911.53" rx="168.54" ry="35.57"/><ellipse class="cls-25" cx="1600.27" cy="684.74" rx="195.63" ry="240.55" transform="translate(-54.47 1224.71) rotate(-41.24)"/><g class="cls-26"><ellipse class="cls-27" cx="1620.97" cy="666.59" rx="168.1" ry="240.55" transform="translate(-37.37 1233.86) rotate(-41.24)"/></g><path class="cls-28" d="M1670.08,528.6c40.38,46.07,51.74,104.23,25.36,129.9s-80.5,9.13-120.89-36.94-51.74-104.22-25.36-129.89S1629.69,482.53,1670.08,528.6Z"/><path class="cls-29" d="M1638.45,515c27.63,31.52,35.4,71.3,17.35,88.87s-55.07,6.25-82.7-25.27-35.4-71.3-17.35-88.86S1610.82,483.46,1638.45,515Z"/><path class="cls-22" d="M558.32,556c19.64,42.77,9.54,82.25-22.57,97s-84.77-.83-104.41-43.59,1.18-89.39,33.28-104.13S538.68,513.22,558.32,556Z"/><g class="cls-3"><path class="cls-30" d="M1539.06,442.25a641.56,641.56,0,0,0-175.91,26,607.25,607.25,0,0,0-160.07,73.23,563.82,563.82,0,0,0-77.65,60.91c-2.08,1.94,6.25,1.91,6.65,1.87,3.51-.33,7.85-1,10.53-3.52A559.9,559.9,0,0,1,1281,506.15a579.89,579.89,0,0,1,249.91-58.26c3.25,0,9.5-.36,11.88-2.92s-1.66-2.73-3.72-2.72Z"/></g><g class="cls-3"><path class="cls-31" d="M1202.34,683c29.05-10.44,63.82-10.94,91.66,3.57,24.25,12.64,42.66,35.71,52.6,60.88,1.19,3,6.43,5.05,9.17,6.2.71.29,7.61,2.72,6.72.48-19.94-50.49-72.51-85.38-126.41-87.32a129.89,129.89,0,0,0-48.65,7.53c-2.46.89,3.87,4.75,4.43,5.08,2.28,1.33,7.57,4.63,10.47,3.59Z"/></g><g class="cls-3"><path class="cls-32" d="M1850.69,682.81c8.53,51.94-4.86,106.35-34.77,149.47a197,197,0,0,1-29.78,33.81c-4.13,3.74,6.11,18.14,9.38,15.18,40.51-36.64,65.11-89.15,68.52-143.58a208.66,208.66,0,0,0-2.41-46.8c-.64-3.89-3.31-8.53-6.63-10.73-2.79-1.85-4.89-.91-4.3,2.66Z"/></g><g class="cls-3"><path class="cls-33" d="M1898.5,757.91c4.6,34.34-15.61,69.21-46.56,84-4.73,2.26,4.48,17.41,10,14.75,34-16.23,53.38-54.64,48.43-91.6a15.45,15.45,0,0,0-7.1-10.43c-3.14-1.68-5.3-.35-4.81,3.28Z"/></g><g class="cls-3"><path class="cls-34" d="M737.57,768.92c61.78-20.87,131.36,3.47,173.56,51.5a176.75,176.75,0,0,1,27.52,42.32c1.49,3.22,17.89-2,17.68-2.43a179.14,179.14,0,0,0-63.65-73.85c-30.33-20-66.25-29.46-102.46-28.89a215.7,215.7,0,0,0-65.41,11.06c-2.88,1-2.71,1.82.28,2a35,35,0,0,0,12.5-1.72Z"/></g><path class="cls-23" d="M852.08,80.81a20.39,20.39,0,0,1-3.72-.12c-.36,0-.72-.36-1-.36-.48,0-1.08.12-1.56.12a7,7,0,0,1-1.56-.24H843a27.87,27.87,0,0,0-6.24.48v1.08a.92.92,0,0,0,.24.6.92.92,0,0,1-.24.6c0,.48.12.84.12,1.32s-.24,1-.12,1.44a7.38,7.38,0,0,0,.36,1.32,30.36,30.36,0,0,0-.12,3.48,9.49,9.49,0,0,0,.36,1.56c.12.48,0,1.08.12,1.56.12.72.48,1.2.6,1.92s.12,2,.12,2.76a18.59,18.59,0,0,0-.48,2.52c0,.72.6,1.32.72,2.16a35.15,35.15,0,0,1,.12,3.6c0,.48.36,1,.36,1.44s-.12,1.2,0,1.68a9.14,9.14,0,0,0,.72,2.16,4.48,4.48,0,0,1,.12,1.92c0,.36-.24.72-.24,1,0,.48.36,1,.36,1.44.24,2.16-.12,4.56.48,6.72-.24.36-.12,1.08-.48,1.32a10.54,10.54,0,0,1,.6,1.8c0,.6-.24,1.08-.24,1.68a6,6,0,0,0,.36,1.56c0,.6-.24,1.08-.24,1.8,0,.48.12,1.08.12,1.56a27.25,27.25,0,0,1,0,3.12,4.29,4.29,0,0,0-.48,1.32c0,.72.12,1.68.12,2.52a5.22,5.22,0,0,1-.12.6c.12.36,0,.36-.12.48s.24.48.24.84a28.71,28.71,0,0,0-.48,2.88c0,.36.24.48.36,1,.24.84.36,1.32.6,2.16a4.42,4.42,0,0,1,.12,1.8c0,.48.48,1.2-.24,1.68a2.41,2.41,0,0,1,1.08,2.88c-.24,1.08-1.56,1.08-2.16,1.8-.48-.12-.84-.24-1-.6a14.24,14.24,0,0,1-5-.72c-.72.12-1.2.36-1.92.48s-1.2.12-1.56-.24c-.48.6-1.2.48-2.52.6-.12,0-.24.24-.6.12-.72-.12-.72.12-1,.24-.48.12-1.68,0-2.28.12a3.61,3.61,0,0,1-2.52-.12c-1.2-.24-.72-2-1.32-2.88.12-1,1.08-1.32.6-2.28a15.52,15.52,0,0,0,1.2-1.8c.24-.72.24-1.8.48-2.4s0-1,0-1.8c0-1.08.36-2-.24-3.12a6.16,6.16,0,0,0,.36-2.88.7.7,0,0,0,.24-.6c0-.48-.36-1.08-.36-1.56,0-.72.48-1.56.48-2.28,0-.48-.36-.72-.36-1.2s.24-1.2.24-1.68a4.38,4.38,0,0,0-.36-1.8c.36-.12,0-.84.36-1a8.48,8.48,0,0,1-.24-3.12,32.27,32.27,0,0,0-.36-4.8c0-.36-.24-.6-.36-1-.12-2.28,1.08-4.8-.24-6.6.6-2.16-.24-5.4.24-7.32.12-1-.72-.72-.6-1.44a13,13,0,0,0-.24-3.72c-.72-1.44-.24-4.92-.12-7a7.11,7.11,0,0,1-.72-1.68c-.24-1.32.36-2.52.48-3.84.12-1.08,0-2.28.12-3,.12-1.32-.36-3.12-.36-4.56-1.92.12-3.84.48-5.76.6-.36,0-.48-.24-.84-.24-.6.12-2.4.36-3.48.48a4.56,4.56,0,0,1-1.2.36,32.56,32.56,0,0,1-3.48.12c-1.92.36-4,1.2-6,.72-.84-1.32-.36-3-.48-4a9.73,9.73,0,0,1-.12-2c0-.36.24-.72.24-1s-.36-.48-.48-.6a17,17,0,0,1,.12-2.52c0-.84-.84-.6-.72-1.44.12-2.16-1.2-5.4.48-7.08a4.22,4.22,0,0,1,2.76-.12c.36,0,.84.12,1.2.12a16.71,16.71,0,0,0,2.28.72c.48,0,1.08-.24,1.68-.24s1.44.24,2.16.24c.36.12.12,0,.72.12a6.7,6.7,0,0,1,.84.12c.72,0,1.56-.48,2.28-.48a23.81,23.81,0,0,1,2.88.48,6.07,6.07,0,0,0,1.44-.24,2.6,2.6,0,0,0,1,0,5.4,5.4,0,0,0,1.32-.36c.48,0,.84.24,1.32.24.24,0,.48-.36.6-.36,1.2-.24,2.64.24,3.72-.12.6,0,.72.48,1.2.6.84-.24,1.32-.48,1.92.24a3.2,3.2,0,0,1,2.16-.84c.6-.12,1.56.48,2.64.36.6.36,2.4-.12,2.88.48.72-.12,1.32-.24,1.92-.36h.84a4.5,4.5,0,0,1,1.2.12,8.45,8.45,0,0,1,1.44.36,21.5,21.5,0,0,0,4,.12c2.16-.12,4.68-.84,6-.24a5.66,5.66,0,0,1,1.32,1.56,6.33,6.33,0,0,1,.12,1.56c.12,1.92-.24,4.44-.12,6.72a25.12,25.12,0,0,0,.48,3.36C852.44,79,852.92,80.09,852.08,80.81Z"/><path class="cls-23" d="M922,121.13a29.41,29.41,0,0,1-.12,7.32,12.45,12.45,0,0,1-.48,1.2,6.77,6.77,0,0,1,0,1.56,3.82,3.82,0,0,0-.36,1.08c-.24,1.32,0,2.76-.12,4.08s-.48,2.64-.48,3.84c0,.72.12,1.44.12,2.16.12,1.92-.6,4-.36,5.64.24,1.08,1.44,2.28,1.2,3.48s-2.16,2-3.84,2a7.83,7.83,0,0,1-1.32-.24c-.36,0-.6.24-1,.24-2.64-.12-5.52-1.2-8.28-1.92a9.55,9.55,0,0,0-1.68-2c.12-1.44-.36-2.52.12-4.44,0-.24.36-.36.36-.72a4.36,4.36,0,0,0,0-1.8,4.4,4.4,0,0,1,1.08-2.4c-1-1.08.24-2.4.24-3.48s-.24-1.8.12-3a2.3,2.3,0,0,0,.36-1c0-.12-.12-.48-.12-.72a4.25,4.25,0,0,1,.24-1.2,17.89,17.89,0,0,1,.24-2.52c0-.48.36-1,.36-1.44s-.12-.84-.12-1.2c0-.84.6-1.92,0-2.76.48-.48.36-1.56.6-2.28a5.86,5.86,0,0,0,.48-2.28c0-.36-.12-.84-.12-1.2a48.62,48.62,0,0,0,.12-7.32A9.57,9.57,0,0,0,909,108a4.25,4.25,0,0,0-.12-.72c0-.36.24-.48.12-.84s-.24-1.2-.24-1.68-.12-1.44-.24-1.8c-.12-.72-.72-1.32-.84-1.92a19.38,19.38,0,0,1-.36-2.4,12.53,12.53,0,0,0-1.32-1,8.4,8.4,0,0,1-1.2-1c-1.08-1-1.8-2.16-4.2-1.8a6.51,6.51,0,0,0-1.2.36c-1.32.12-3.12.12-4.8.24a25.09,25.09,0,0,0-3.36.48c-.36.12-.72.12-1,.24-1.08.36-1.56,1.2-2.28,1.8-.48.36-.84.72-1.2,1s-.72.84-1.2,1c-.36.6-.36,1.56-1.2,1.56-.24,1.56-1.2,2.88-1.8,4.2-.24.36-.24.72-.48,1.08-.24.72-.6,1.32-1,2.16a20,20,0,0,0-.84,3.6c-.12.36-.36.84-.48,1.2-.12,1.08.12,2.16-.6,2.88a35.87,35.87,0,0,1-.12,6.24c-.24,1.2-.6,2.52-.72,3.6a19.7,19.7,0,0,0-.24,5.28,11,11,0,0,1-.72,5c.36.48.24,1.44.48,2,.24,1-.72.72-.6,1.56.36.24,0,1.08.6,1.2.48.72.24,1.68.48,2.88.12.36.36.6.36.84a4.87,4.87,0,0,1,0,2.28c.36,1,1.44,1.68,1.44,2.76,0,.48-.6,1.08-.6,1.68a7.55,7.55,0,0,1-1.44.84c-.6,0-1.08-.36-1.92-.48a9.32,9.32,0,0,0-1.92-.24c-1.56,0-3.24.36-4.8.48a13.24,13.24,0,0,0-3.72.12c-.48-.48-.6-1.2-1.32-1.56.24-2.88-.12-5.28.72-7.2.12-.36-.24-.48-.36-.72-.24-.72.36-1.68.24-2.88a5.24,5.24,0,0,1,.12-.6,1.69,1.69,0,0,0-.48-.24c0-.36.12-.84.12-1.2a8.38,8.38,0,0,1-.36-1.68c-.24-2.64,0-5.88,0-9.72v-.6c.12-.84-.36-1.44-.36-2.28,0-.36.24-.84.24-1.2s-.36-1-.36-1.56c0-1.08.24-2.16.24-3.24a10.14,10.14,0,0,1,.12-1.56c.12-1.44.24-3.24.24-4.8a23,23,0,0,1,.12-4c.12-1.8.48-5.88.72-7.44a36.41,36.41,0,0,0,.12-5.28V93.41c.12-1.44-.12-2.76-.12-4.08,0-.48.24-1.08.24-1.56a24,24,0,0,0-.48-2.88,9,9,0,0,0,0-1.8,4.25,4.25,0,0,0-.36-1.32c-.12-2,.36-4.2-.6-6,.24-2.76,0-5.52.24-8.4.12-2.16.24-4.56.24-7.08,1.44-1.2,3.6-1,5.64-1.08a29,29,0,0,1,3-.36c.36,0,.48.24.72.24s2.52-.36,2.76-.12c1-.24.48.84,1.32.84.6-.12.6.6,1,.72-.48,1.08,0,2.4-.24,3.72-.12.24-.48.48-.48.72s.24.36.24.6c-.24,1.56-.72,5-.84,7.32s-.12,4.92-.12,6.24c0,2.4-.48,4.92-.12,7.32.12.84.48,1.32.12,2.16-.12.48-.6,1.44-.36,2.16.84.24,1.2-1.08,1.92-1.8a4.4,4.4,0,0,0,.84-.36c.36-.24.84-1.08,1.32-1.44.24-.24.48-.24.84-.36s.48-.72,1-1a13.44,13.44,0,0,0,1.92-1.2c.36-.24.6-.72,1-1s.6,0,.84-.12.36-.24.6-.36c1.32-.48,2.64-.84,4.32-1.32l.48-.36a16.55,16.55,0,0,0,2.4-.36c1-.12,2.16-.36,3.12-.48s2.28.24,3.48.24c1.68.12,3.72.12,5.4.36.36.12.84.36,1.32.48a4,4,0,0,1,1.8.6,11.65,11.65,0,0,1,2.64,2.76c.12.12,0,.36.12.6s.48,0,.6.12.12.48.12.6.36.24.48.48c.36.48.36,1.44,1.32,1.56a9.15,9.15,0,0,0,1.32,1.92,14.14,14.14,0,0,1,.84,2.4,13,13,0,0,1,1,2.28c.12.48,0,1.08.12,1.56,0,.12.36.24.36.36s.12.48.24.6c.24.72.6,1.56.84,2.4.12.24,0,.6,0,1,0,.12.36.36.36.36.12.36.12,1,.24,1.32a41.75,41.75,0,0,1,1.2,5.28c.24,1.8-.24,3.72-.12,5.64a11.4,11.4,0,0,1,.48,2.16c-.24,1,.24,3.84.12,4.68Z"/><path class="cls-23" d="M1002,87.89c0,.24.24.36.24.6a2.24,2.24,0,0,0-.24.84c0,.24.12.36.12.6s-.24.36-.12.72.12.36.12.6-.36.72-.36,1.08.12,1,.12,1.44-.36.72-.36,1.08a5,5,0,0,1-.12,1.2,21.14,21.14,0,0,0,0,2.76c0,.36.36.84.36,1.32.12,1.68-.24,3.6-.12,5.4a13.76,13.76,0,0,1,.12,2.16c0,1-.48,1.8-.6,3.12a2.73,2.73,0,0,1,.12.48c0,.48-.36,1.8.12,2.52a5.19,5.19,0,0,1-.6,1.44c.24,2.16-.36,4.2-.36,6.36a13.52,13.52,0,0,1,.36,2.16c0,.36-.24.84-.24,1.32s.24.84.24,1.2-.36.72-.48,1.08a9.32,9.32,0,0,1-.6,3.72c-.48.84.36,2.76-.48,3.84a7.55,7.55,0,0,1,.12,2.88c0,.36.24.84.12,1.2,0,.84-.36,1.56-.36,2.28a32.62,32.62,0,0,0,.48,5c.12.36.12.72.72.6-1.32,1,.12,1.92.12,3.12a1.72,1.72,0,0,1-.24.72c0,.12-.12.72-.12.84a5.2,5.2,0,0,0-.6.12,3.26,3.26,0,0,1-1.44.84c-.48,0-1-.24-1.56-.24a18.47,18.47,0,0,0-2.28.24,21.4,21.4,0,0,0-2.76.24c-1,.12-1.68.72-2.52.72-.72-.24-.36.72-1,.72-.12.36-1,0-1.32.12-1-.84-1.8-2.88-1-3.84-.72-2,.24-4.68-.24-7.2a9.51,9.51,0,0,0-3.12,2.28c-.48.36-.72,1-1.32,1.32-.24.12-.24,0-.48.12s-1,.48-1.32,1c-.84.24-1.68.12-2.52.36-1.08.24-2,.6-3.48.84a10.8,10.8,0,0,1-4.32.72c-.36,0-.6-.24-.72-.24-.48,0-.72.36-1.2.36a2.79,2.79,0,0,1-1.92-.24c-.36.6-1.92.12-2.52-.24-1.2.48-2.28-.12-3.48-.24-.72,0-.6-.72-1.2-.84a21.47,21.47,0,0,1-5.52-.48c-.24-.6-1.08-.72-1.2-1.56-.84.12-.84-.6-1.44-.6a9,9,0,0,0-1.32-1.56c-.84,0-1-.48-1.8-.48-.24-.24-.36-.72-.72-1-.6-.36-.72-.72-1-.84s-.48.12-.6,0c-.72-.84-1.2-1.2-1.68-1.8a2.12,2.12,0,0,1-1-.6c0-.72-.72-.72-.6-1.68a4.26,4.26,0,0,1-1-.6,8.61,8.61,0,0,1-.84-1.08c-.24-.12-.24-.36-.48-.48s-.12-1.2-.72-1.56c0-.48-.48-.48-1-.48a2.65,2.65,0,0,0-1.68-2.52c.24-.72-.24-.72-.12-1.32-2.4-2.16-2.28-6.6-3.48-9.84.12-2.16,0-4.8.72-6.72a3,3,0,0,1,.24-.6c.24-.36.12-1.08.24-1.92s.24-1.56.36-2.28a4.27,4.27,0,0,0,.24-1.2,7.72,7.72,0,0,1,1.32-3.24c-.6-2.16,1.44-3,1.56-5a11.24,11.24,0,0,0,1.68-2.28c.36-.6.84-1.44,1.32-2.28.36-.48,1-.84.84-1.56.48-.24.72-.72,1.44-1V90.89c1.32-.84,1.92-2.28,3-3.48A9.67,9.67,0,0,1,946.4,86c.36-.72,1.56-.84,1.68-1.56A12.9,12.9,0,0,0,952.52,83c1-.12,2.16-.12,2.76-.72a4,4,0,0,0,3.24-1.08c2.4,0,4.56-.12,7.2,0,1.2,0,2.52-.24,3.48-.12.72,0,1.32-.12,1.8.36a2.43,2.43,0,0,1,2,.12,12.6,12.6,0,0,1,1.56.24c.36,0,.72.36,1,.36a4,4,0,0,0,1.2,0,2.63,2.63,0,0,0,.6.48,2.48,2.48,0,0,1,1.44.6c.12,0,.48,0,.6.12s.12.36.24.48a21.93,21.93,0,0,1,3.24,1.8c.24.12.24.48.6.72s.48.24.72.48a5.23,5.23,0,0,1,1,1.2c.24.48,1.08,1,1.68,1.56.36.24.48.84,1,1.2s1.32,1,1.32,1.68a12.07,12.07,0,0,0-.48-6.6c-.48-1-1.2-1.2-.72-2.64a4.74,4.74,0,0,1,1.2-1.8,6.87,6.87,0,0,0,2.16.24,11.93,11.93,0,0,0,1.92.24,23,23,0,0,1,6.36.72c1.08-.36,1.8.24,2.76.48.12.6,0,1,.12,1.56-.12.48.24.72.12,1.2S1002,87.29,1002,87.89Zm-16.8,23.88c-.12-.48-.72-.6-1-1a11.31,11.31,0,0,0-.72-2.76c.24-1.08-.36-1.56-.48-2.16a17.64,17.64,0,0,1-.36-2.64c-.72-.36-.72-.84-1.08-1.2-.6-.36-.48-.48-.6-.6-.6-.72-1.08-1.2-1.68-1.8A5.56,5.56,0,0,0,977,98.09c-1.32-.6-2.28-1.2-3.24-1.68a12,12,0,0,0-3.12-.6,16.67,16.67,0,0,0-1.56-.72,7.76,7.76,0,0,1-1.68,0c-.48,0-1.08-.36-1.44-.36s-.6.72-1,.36c-.48-.12-1.2-.84-1.56-.48-1.56.12-1.8.72-2.88,1.32-.24.12-.72.24-1,.36s-.6.48-.84.6-.36-.12-.6,0l-.36.36c-.6.36-1.08.84-1.56,1.08a8.32,8.32,0,0,0-1,.36,18.83,18.83,0,0,0-1.2,1.56c-.48-.12-.48.36-1,.12,0,.72-.6,1.2-1,1.56a5,5,0,0,1-1.68,1.08c-.12,1.68-1.44,2.16-1.44,3.84a7.65,7.65,0,0,0-1.2,2.16,22.21,22.21,0,0,0-.6,3.24c-.24.84-.72,1.44-.84,2.16,0-.12.12.6.24.72,0,1.44-.6,2.28-.72,3.36,0,.6.36,1.32.36,2,0,.12-.24.24-.24.48a3.25,3.25,0,0,1,0,1.56c.12,1,1.08,1.92.72,3.12A22.16,22.16,0,0,0,950,128c1,1.8,2.76,3,4.2,4.2a7,7,0,0,0,2.28,1.56l.48.48a10.87,10.87,0,0,0,2.52.6c.48.12,1.2.48,1.56.6s.36.48.72.48c2-.24,4.2.6,5.88.6a4,4,0,0,0,1.68-.12,8.49,8.49,0,0,0,1.8-.12,6.78,6.78,0,0,1,1-.6c.24,0,.48.12.72,0,.48-.12,1.2-.72,1.8-.12.84-2,3.6-2,4-4.56.48.12.36-.36.84-.36,0-.84.6-1.32,1-1.92s.6-1.2.84-1.56c.12-.12.48.12.36-.36a6.58,6.58,0,0,1,1.44-2.52c-.24-.84.36-1.44.6-2a19.52,19.52,0,0,0,1.08-6.6,7.36,7.36,0,0,0,.84-1.68A3.9,3.9,0,0,1,985.16,111.77Z"/><path class="cls-23" d="M1049.84,92.81c0,.72.24,1.2.12,1.56-.36,1.08-1.32,1.32-1.92,1.92-1.56-.72-2.64.12-4,.36-.36,0-1.2.12-1.56.12-1.32,0-2.28.72-3.24.84-.72.12-1.44-.24-2.16.24-.6,1.32-.12,3-.36,4.8,0,.36-.12.72-.12,1.2-.12,1.2.24,2.52.24,3.84s-.24,2.64.36,3.72a8.46,8.46,0,0,0-.48,3.6c-.36,2.28.24,5.28.24,7.56-.12,1-.24,1.8-.36,2.76,0,.24.36.36.24.72,0,.12-.36.36-.36.36s.12.36.12.6c-.12,1.44,0,3.6-.12,5.88v.72c0,.6-.24,1.08-.24,1.56.12,1.32.72,2.76-.24,4.08a5.4,5.4,0,0,0,.36,1.32c0,.36-.24.72-.24,1s.36.84.36,1.2-.24.48-.24,1c0,.72.24,1.8.36,2.88-.24.24-.24.6-.6.72a3.76,3.76,0,0,1-.84,4.08c-2-.24-4.08-.84-6-.48-1,.12-1.92.6-3.12.12-.6.12-.84.48-1.44.48s-1.08-.6-1.68-.72c-.24-1.92.12-4.92,0-7.92a12.13,12.13,0,0,0-.36-2c-.12-1.08,0-2.4-.12-3.48,0-.48.24-1.08.24-1.56s-.36-.36-.36-1.32a25.46,25.46,0,0,1,.84-5.4,3.54,3.54,0,0,1-.36-1.2c0-.6.12-1.32.12-1.92a12.67,12.67,0,0,1-.6-2.28c0-.6.24-.72-.12-1.44-.12-.24-.12-.48-.36-.72a32.81,32.81,0,0,0,.48-6c0-.48-.24-.72-.36-1.2s0-1.32-.12-2.16a19.52,19.52,0,0,1-.12-3.84c0-.48.24-1,.24-1.56s-.36-1.44-.36-2.16c0-1.32.36-2.64.36-4a7.32,7.32,0,0,1-.36-1.56c-.12-1.44.6-2.88.24-4.32-.24-.24-.48.12-.72.24a15.44,15.44,0,0,0-3,.72,15,15,0,0,0-1.92.48c-1.2.36-1.8.84-2.76.12-.24-.48-.48-.36-.48-.36a3.65,3.65,0,0,1-.84-1.2,2.78,2.78,0,0,1,1.32-2.64c-.36-.6.24-.84.36-1.56a19.73,19.73,0,0,1,.24-2.52c.24-1,1-1.68,1.08-2.52.12-1.08-.36-2.28-.12-3.24.24-1.44,1.08-1.92,2.88-1.56,1,.24,1.92.24,2.16,1.08,1.32-.12,1.8.6,3,.6,1.08-1.44.6-4.08.72-6.6a2.26,2.26,0,0,0,.24-1,9.46,9.46,0,0,0-.36-1.56,10,10,0,0,1,.12-3.24,7.32,7.32,0,0,0,.36-1.56,3.69,3.69,0,0,0-.36-1.56c-.12-.36-.6-.72-.12-1.08.12-.84-1.08-.48-.72-1.68a.73.73,0,0,0,.36-.72c.72-.36,1,0,1.8,0a5.81,5.81,0,0,1,3.24-.24.66.66,0,0,1,.6-.36c.84.12,1.44.48,2.28.6.6-.12,1.08-.48,1.56-.6s.36.24.48.24,1-.48,1.32,0c.72-.12.36.6.6.84s.48.24.48.6c.36,1.2-.12,4-.24,5.64,0,.12.24.24.12.48v1.8c0,.48-.24,1.32-.24,1.68s.24.6.36,1.08-.12,1,0,1.32c.12,1.08.72,1.8-.24,2.88.36,1,0,1.8-.12,2.88,0,.48.12,1.08.12,1.56,0,.72-.6,1.44-.24,2.16,1.2.12,2-.84,3-1.08s2,.12,2.88-.72c.84.6,1.92-.72,2.52.24.72-1,3-1.44,4.32-1.08.6-.12.36.6.48,1s.48.48.6.84-.12,1,0,1.56c0,.36.36.6.36,1s-.24.48-.24.72c.12,1.08.6,2,.72,2.88a4.25,4.25,0,0,0,.12.84C1050.08,92.45,1049.84,92.57,1049.84,92.81Z"/><path class="cls-23" d="M1166.24,144.53a13.08,13.08,0,0,1-3,2.64c-.84.48-1.56,1.2-2.76,1.8-.6.36-1.44.72-2.28,1.2-.36.12-.36.36-.6.48s-.6,0-1,.24a9,9,0,0,0-1.56.72,21.43,21.43,0,0,0-2.52,1,27.44,27.44,0,0,1-7.44.72,27.1,27.1,0,0,1-3.12.12,26.73,26.73,0,0,1-3-.6h-.84c-.48-.12-1.8-.12-2.52-.24a7.17,7.17,0,0,0-1-.48,17.75,17.75,0,0,1-2.52-.24c-.24,0-.36-.24-.72-.36a2.56,2.56,0,0,0-1,0c-.24-.12-.36-.36-.6-.48s-.48,0-.72-.12a30.35,30.35,0,0,0-2.76-1.44,12.65,12.65,0,0,0-1.44-.6,12.44,12.44,0,0,1-1.2-.48,9,9,0,0,0-2.88-1c-1.32-1.56-3.12-2.64-4-4.56-.72-.72-1.8-1.32-2.52-2.16-.12-.24,0-.48-.12-.6s-.6-.36-.84-.6,0-.48-.12-.6-.84-.48-1.2-.84c-.12-.12,0-.48-.12-.6-.48,0-.36-.24-.36-.36a5.1,5.1,0,0,1-1.32-1.44c-.12-.12-.12-.36-.24-.48-.24-.36-.6-.72-1-1.2,0-.12-.36-.36-.36-.48s.12-.36,0-.48c-.24-.6-.6-1.2-.84-1.8a6.55,6.55,0,0,1-.72-2.16c-.12-.36-.12-.72-.24-1.2-.24-.84-1-3-.12-4.2a8.71,8.71,0,0,1-.48-3c0-.24.36-.6.36-1,.12-.12-.12-.6-.12-1,0-.72.24-.72,0-1.56a24.57,24.57,0,0,1-.12-4.44,7.94,7.94,0,0,0,.48-1.32c.12-.36-.12-.84,0-1.2l.36-.48c.36-1.44.6-3.12,1.08-4.68.24-.72.36-1.68,1.2-1.92-.72-.84.36-2.64,1.08-3.24a8.59,8.59,0,0,1,.6-2.52,7.63,7.63,0,0,0,.48-1.08c0-.24.36-.12.36-.48.24-1,.84-1.2,1.44-2s1.32-2.4,2.16-3.48c.48,0,.6-.24,1.2-.12.36-.36.24-1.2.6-1.56h1.2a9.29,9.29,0,0,1,4.92-3.48c.72-1,2-1.44,2.88-2.28,1.68-.12,2-1.44,3.6-1.56a6.1,6.1,0,0,0,1.56-1.08,10.72,10.72,0,0,0,1.92-.36c1-.24,1.8-.84,2.76-1.08a9.1,9.1,0,0,1,1.92-.12,59.39,59.39,0,0,1,6.6-.12c1.32,1.08,3.36.48,4.8,1.68a12.18,12.18,0,0,1,4.08.72,11.66,11.66,0,0,1,2,.84,2.07,2.07,0,0,1,1.32,1.32c1.8.24,2.76,1.8,3.84,3a8.09,8.09,0,0,1,1.68,1.8c.12.24.24.36.36.6a11.32,11.32,0,0,1,1.2,1.2,13.47,13.47,0,0,0,3.24,3.12c0,.72.36,1,.24,1.8.48.24,1,.48,1,1.2v2a3.26,3.26,0,0,1-1,1.2c0,1.44-1.08,1.8-1.32,3-1.32.84-2,2.16-3.48,2.88-1-.12-1.56-.48-2.4-.24,0-.48-.24-.72-.48-1.2-.48-1-.72-2.28-1.32-3.36-.72-.48-1.32-1.08-2-1.56-.36-.24-1-.36-1.32-.6s-.6-1-1.2-.6c-.36-.36-.6-1-1-1.32-2.4-.36-5.16-.36-6.48-1.56-1,.12-3.36,0-4.08-.72a24.25,24.25,0,0,1-4.32.36,5,5,0,0,0-2.28.12,22.88,22.88,0,0,0-4.32,1.44,17.63,17.63,0,0,1-1.56,1.2,6.21,6.21,0,0,0-1.56.72,3.73,3.73,0,0,0-1.44,1.32,11.32,11.32,0,0,1-1.2,1.68c-.24.36-.6.48-1,1-.6.72-1.2,2-2.16,2.64a1.59,1.59,0,0,1-.84,1.56c.24,1.8-1.08,2.16-.84,4.08a4,4,0,0,0-1,2,7.65,7.65,0,0,0-.24.84,14.24,14.24,0,0,0-.84,3.24.92.92,0,0,0,.12.72c0,1-.6,3-.48,4.68.12,1.08.48,2.4.72,3.72a23.57,23.57,0,0,0,.72,3.12c.12.24.36.36.48.72s.24.72.48,1c0,.24.24.24.36.48a7.37,7.37,0,0,0,.48.72,15.11,15.11,0,0,1,1.32,2c.36.48.72,1.2,1,1.56s1.08.24,1,1c1.08,0,1.8.72,2.64,1.2.6.36,1.32.72,1.92,1.08a15.46,15.46,0,0,0,3.36,1c.24,0,.48-.24,1-.12s1.2.36,1.68.36l3.12.36c1.08,0,2.16-.36,3.12.24a21.23,21.23,0,0,1,2-.72c.72-.24,1.56-.36,2.16-.6.36-.12.36-.36.6-.6s.6,0,.84-.12a2.81,2.81,0,0,1,.6-.6,16.64,16.64,0,0,1,3.12-1.2c.72-.36,1.32-1.08,2.16-1.2.36-.84,1.44-.84,2.28-1.68a4.7,4.7,0,0,1,1.56-.72c.6-.6.84-1.56,1.68-1.92a2.84,2.84,0,0,0,1.92.48c.84,1.32,1.68,2.52,2.64,3.84.12.36.12.6.36.84,0,.12.48.12.48.24.24.24.12.84.36,1.32,1,.24,1.32,1,2.4,1.08.24.84,1.44,1.32,1.68,2.52A3.47,3.47,0,0,1,1166.24,144.53Z"/><path class="cls-23" d="M1246.28,87.89c0,.24.24.36.24.6a2.23,2.23,0,0,0-.24.84c0,.24.12.36.12.6s-.24.36-.12.72.12.36.12.6-.36.72-.36,1.08a5.88,5.88,0,0,0,.12,1.44c0,.36-.36.72-.36,1.08a5,5,0,0,1-.12,1.2,21.14,21.14,0,0,0,0,2.76c0,.36.36.84.36,1.32.12,1.68-.24,3.6-.12,5.4a13.76,13.76,0,0,1,.12,2.16c0,1-.48,1.8-.6,3.12a2.71,2.71,0,0,1,.12.48c0,.48-.36,1.8.12,2.52a5.19,5.19,0,0,1-.6,1.44c.24,2.16-.36,4.2-.36,6.36a13.51,13.51,0,0,1,.36,2.16c0,.36-.24.84-.24,1.32s.24.84.24,1.2-.36.72-.48,1.08a9.33,9.33,0,0,1-.6,3.72c-.48.84.36,2.76-.48,3.84a7.53,7.53,0,0,1,.12,2.88c0,.36.24.84.12,1.2,0,.84-.36,1.56-.36,2.28a32.62,32.62,0,0,0,.48,5c.12.36.12.72.72.6-1.32,1,.12,1.92.12,3.12a1.71,1.71,0,0,1-.24.72c0,.12-.12.72-.12.84a5.18,5.18,0,0,0-.6.12,3.26,3.26,0,0,1-1.44.84c-.48,0-1-.24-1.56-.24a18.48,18.48,0,0,0-2.28.24,21.4,21.4,0,0,0-2.76.24c-1,.12-1.68.72-2.52.72-.72-.24-.36.72-1,.72-.12.36-1,0-1.32.12-1-.84-1.8-2.88-1-3.84-.72-2,.24-4.68-.24-7.2a9.52,9.52,0,0,0-3.12,2.28c-.48.36-.72,1-1.32,1.32-.24.12-.24,0-.48.12s-1,.48-1.32,1c-.84.24-1.68.12-2.52.36-1.08.24-2,.6-3.48.84a10.8,10.8,0,0,1-4.32.72c-.36,0-.6-.24-.72-.24-.48,0-.72.36-1.2.36a2.79,2.79,0,0,1-1.92-.24c-.36.6-1.92.12-2.52-.24-1.2.48-2.28-.12-3.48-.24-.72,0-.6-.72-1.2-.84a21.47,21.47,0,0,1-5.52-.48c-.24-.6-1.08-.72-1.2-1.56-.84.12-.84-.6-1.44-.6a9,9,0,0,0-1.32-1.56c-.84,0-1-.48-1.8-.48-.24-.24-.36-.72-.72-1-.6-.36-.72-.72-1-.84s-.48.12-.6,0c-.72-.84-1.2-1.2-1.68-1.8a2.13,2.13,0,0,1-1-.6c0-.72-.72-.72-.6-1.68a4.22,4.22,0,0,1-1-.6,8.43,8.43,0,0,1-.84-1.08c-.24-.12-.24-.36-.48-.48s-.12-1.2-.72-1.56c0-.48-.48-.48-1-.48a2.65,2.65,0,0,0-1.68-2.52c.24-.72-.24-.72-.12-1.32-2.4-2.16-2.28-6.6-3.48-9.84.12-2.16,0-4.8.72-6.72a3,3,0,0,1,.24-.6c.24-.36.12-1.08.24-1.92s.24-1.56.36-2.28a4.27,4.27,0,0,0,.24-1.2,7.74,7.74,0,0,1,1.32-3.24c-.6-2.16,1.44-3,1.56-5a11.24,11.24,0,0,0,1.68-2.28c.36-.6.84-1.44,1.32-2.28.36-.48,1-.84.84-1.56.48-.24.72-.72,1.44-1V90.89c1.32-.84,1.92-2.28,3-3.48a9.67,9.67,0,0,1,1.68-1.44c.36-.72,1.56-.84,1.68-1.56a12.9,12.9,0,0,0,4.44-1.44c1-.12,2.16-.12,2.76-.72a4,4,0,0,0,3.24-1.08c2.4,0,4.56-.12,7.2,0,1.2,0,2.52-.24,3.48-.12.72,0,1.32-.12,1.8.36a2.43,2.43,0,0,1,2,.12,12.61,12.61,0,0,1,1.56.24c.36,0,.72.36,1,.36a4,4,0,0,0,1.2,0,2.62,2.62,0,0,0,.6.48,2.48,2.48,0,0,1,1.44.6c.12,0,.48,0,.6.12s.12.36.24.48a21.93,21.93,0,0,1,3.24,1.8c.24.12.24.48.6.72s.48.24.72.48a5.28,5.28,0,0,1,1,1.2c.24.48,1.08,1,1.68,1.56.36.24.48.84,1,1.2s1.32,1,1.32,1.68a12.07,12.07,0,0,0-.48-6.6c-.48-1-1.2-1.2-.72-2.64a4.74,4.74,0,0,1,1.2-1.8,6.86,6.86,0,0,0,2.16.24,12,12,0,0,0,1.92.24,23,23,0,0,1,6.36.72c1.08-.36,1.8.24,2.76.48.12.6,0,1,.12,1.56-.12.48.24.72.12,1.2S1246.28,87.29,1246.28,87.89Zm-16.8,23.88c-.12-.48-.72-.6-1-1a11.31,11.31,0,0,0-.72-2.76c.24-1.08-.36-1.56-.48-2.16a17.52,17.52,0,0,1-.36-2.64c-.72-.36-.72-.84-1.08-1.2-.6-.36-.48-.48-.6-.6-.6-.72-1.08-1.2-1.68-1.8a5.57,5.57,0,0,0-2.28-1.56c-1.32-.6-2.28-1.2-3.24-1.68a12,12,0,0,0-3.12-.6,16.68,16.68,0,0,0-1.56-.72,7.76,7.76,0,0,1-1.68,0c-.48,0-1.08-.36-1.44-.36s-.6.72-1,.36c-.48-.12-1.2-.84-1.56-.48-1.56.12-1.8.72-2.88,1.32-.24.12-.72.24-1,.36s-.6.48-.84.6-.36-.12-.6,0l-.36.36c-.6.36-1.08.84-1.56,1.08a8.25,8.25,0,0,0-1,.36,18.9,18.9,0,0,0-1.2,1.56c-.48-.12-.48.36-1,.12,0,.72-.6,1.2-1,1.56a5,5,0,0,1-1.68,1.08c-.12,1.68-1.44,2.16-1.44,3.84a7.65,7.65,0,0,0-1.2,2.16,22.34,22.34,0,0,0-.6,3.24c-.24.84-.72,1.44-.84,2.16,0-.12.12.6.24.72,0,1.44-.6,2.28-.72,3.36,0,.6.36,1.32.36,2,0,.12-.24.24-.24.48a3.25,3.25,0,0,1,0,1.56c.12,1,1.08,1.92.72,3.12a22.2,22.2,0,0,0,3.24,2.28c1,1.8,2.76,3,4.2,4.2a7,7,0,0,0,2.28,1.56l.48.48a10.87,10.87,0,0,0,2.52.6c.48.12,1.2.48,1.56.6s.36.48.72.48c2-.24,4.2.6,5.88.6a4,4,0,0,0,1.68-.12,8.48,8.48,0,0,0,1.8-.12,6.83,6.83,0,0,1,1-.6c.24,0,.48.12.72,0,.48-.12,1.2-.72,1.8-.12.84-2,3.6-2,4-4.56.48.12.36-.36.84-.36,0-.84.6-1.32,1-1.92s.6-1.2.84-1.56c.12-.12.48.12.36-.36a6.58,6.58,0,0,1,1.44-2.52c-.24-.84.36-1.44.6-2a19.5,19.5,0,0,0,1.08-6.6,7.28,7.28,0,0,0,.84-1.68A3.91,3.91,0,0,1,1229.48,111.77Z"/><path class="cls-23" d="M1363,148.61a4.51,4.51,0,0,1-.6,1c-.6.48-1,.36-1.8.6-.36.12-1,0-1.56.12a11.25,11.25,0,0,1-1.92.48c-.72.12-1.56.12-2.4.24-1.32.12-2.64.48-4.08.48-1.08.6-1.8.48-3.48.48-.36-.6-1-1-1.32-1.56a5.75,5.75,0,0,1,1.08-3.24c-.12-.36-.12-.72-.24-1.08s.12-.24.12-.48.24-.24.12-.48a6.26,6.26,0,0,1,.12-2.52c0-.24.36-.6.36-1,.36-2.16,0-4.68.12-7a9.77,9.77,0,0,0,.48-1.08c0-.48-.24-1-.24-1.44s.6-1.2.72-1.68c0-.72-.6-1.44.24-1.92-.72-1.2-.36-2.64-.36-4.08,0-.48-.12-1-.12-1.32,0-2,.48-4.2.36-6.24-.12-.84-.6-1.8-.72-2.76a4.84,4.84,0,0,1,0-1.32,5.39,5.39,0,0,1-.36-1.32c-.12-.84.12-1.68,0-2.52s-.36-1.32-.36-1.92.36-1.32.24-1.92a5.94,5.94,0,0,0-.36-1.56,5.41,5.41,0,0,0-.12-1.56c-.12-.48-.6-.84-1-1.44a13.06,13.06,0,0,0-.72-1.32c-.36-.6-.84-1.32-1.32-2-.24-.36-.48-.36-1-.72,0-.12-.12-.36-.12-.48-.36-.12-.36.12-.84,0-.24,0-.24-.24-.48-.36a6.45,6.45,0,0,0-1.56-.36,4.7,4.7,0,0,0-1.8.24c-.6.12-1.32.12-1.68.24s-.36.24-.6.36-.6,0-.84.12a20.74,20.74,0,0,0-2.16,1.32c-.6.48-1.32.84-1.92,1.32-.24.12-.24.48-.48.6s-.84.24-1.08.6c-.24.12-.36.36-.6.72-.12,0-.48.36-.6.6s-.24.72-.84.72c-.12,1.68-1.32,2.76-2.16,4-.12.24-.48.36-.6.6a12.85,12.85,0,0,0-.84,2.28c0,.12-.36.36-.36.36-.12.24,0,.6-.12.84s-.36.24-.36.36.12.48,0,.6c-.24.48-1,1-1.2,1.56-.12.36-.12,1.08-.24,1.44s-.48.6-.6,1-.12,1-.24,1.44c0,.12-.24.12-.36.36s0,.48,0,.72c-.12.48-.48.72-.6,1.2s-.12,1-.24,1.32c0,.12-.36.36-.36.36-.24.6,0,1.44-.72,1.8.12,1.8-1.2,3.24-1.44,5.16a8.5,8.5,0,0,1,.12,1.68c0,.6-.12,1.32-.12,1.8s-.36.84-.48,1.32c-.12.72-.12,1.8-.24,2.76,0,.36-.24.72-.24,1.08s.24.36.24.6c-.12,1.08.48,2.16-.12,3.36.24.72,1.08,2.16.12,2.88a3.86,3.86,0,0,1,1,1.56c.12.72,0,1.68.12,2.52s1.08,1.68.72,3.12c-.24,1.08-1.32,1.2-2.16,1.92-.72-.48-1.8-.36-2.76-.84-.12-.12-.24-.36-.48-.48a25.06,25.06,0,0,0-3,.12,12.19,12.19,0,0,1-2,.36c-.6,0-1.08-.36-1.56-.36-1-.12-1.68.36-2.52-.12-1.32-1.32-.6-4.68.36-6-.36-.24-.24-.84-.6-1.08.72-.48.72-2.4.6-3.36s.6-1.56.72-2.52c0-.48-.24-1-.24-1.56.12-1.92.36-5.64.48-8.64,0-.72.12-1.8.24-2.88,0-.24-.24-.24-.24-.48,0,0,.36-.6.48-.84,0-1.2-.6-2.28.24-3.36.12-.36-.36-.48-.36-.72s.12-.72,0-1a7.54,7.54,0,0,1-.72-2.16c0-.24.24-.36.24-.6a5.21,5.21,0,0,1-.48-.84c0-.24.12-.6.12-1s-.48-.84-.6-1.32.24-.48.24-.84a9.64,9.64,0,0,0-.72-3.6c-.48-.72-.24-1.2-.36-1.56-.24-.72-.6-1.2-1-2-.12-.36-.36-.48-.48-1.08s-.48-1.2-.72-1.8a17.63,17.63,0,0,0-2.88-4.08,7.59,7.59,0,0,1-2.64-1.08c-.48-.12-.84.12-1.44.12-.36.12-1-.24-1.32-.12a3.92,3.92,0,0,0-.72.36,19,19,0,0,0-2.4.84c-1.08.48-2.16.72-3.12,1.08-1.44.72-2.52,1.92-4,2.52-.72,1-1.08,2.52-2.4,3a2.78,2.78,0,0,1-.36,1.92c-.12.36-.36.6-.36,1s-.12.72-.24,1.2c-.12,0-.36.24-.48.36s.12.36,0,.6c-.24.72-.48,2-1.32,2.4a2.93,2.93,0,0,1-.72,2.16,11.68,11.68,0,0,1-1.2,5.16c-.6,1.56-.36,4.2-1.56,6-.12.72.48.84.36,1.56.12.84-.6,1-.6,1.68a11.3,11.3,0,0,1-.6,8.16c.72.84.36,1.44.36,2.76,0,.36.24.48.24.72-.12.48-.36,1-.24,1.32a6.32,6.32,0,0,0,.36,1.44c0,.36-.24.6-.24,1.08,0,.72,0,2.4.12,3.6.12,1.8,1.32,3.6.6,5.4-3.36,2-7.2,0-11.64.12.24-.72-.6-.48-1-.84a14.7,14.7,0,0,1-.24-2.28c0-.72.48-1.32.6-1.92,0-.36-.24-.72-.24-1.2.12-1.68.36-3.84.36-6a9.85,9.85,0,0,1,.24-3.24c-.72-1.68.24-3.72-.36-5.4.72-2.16,0-4.44.72-7.2.12-.6-.6-.48-.6-1-.12-1.56-.12-3-.12-4.68,0-.48.24-.84.24-1.2a14.67,14.67,0,0,0-.36-2c0-.84.12-1.56.12-2.4-.12-.6-.24-1.32-.36-1.92A14.8,14.8,0,0,1,1261,108c0-.36.24-.72.24-1s-.24-.6-.36-1a8,8,0,0,1-.12-1.56v-3.84a5.76,5.76,0,0,0-.12-2.52c-.12-.48.12-.72-.12-1.44,0-.72-.24-1.08-.12-1.56s.24-1,.12-1.44a12.56,12.56,0,0,0-.48-2c.12-.6.48-.84.6-1.32a9.1,9.1,0,0,1,.48-4.68,5.7,5.7,0,0,1,1.2-2.28c1.32-.84,3,.48,4.32,1.08,2.52-.24,5.52-.12,8.28-.24a19.53,19.53,0,0,1,1.32,2c0,1.32-.36,1.92.12,2.88,1,.24,1.44-.36,2.16-.72.12,0,.48-.12.6-.12.6-.48,1.2-1.44,2.16-1.56.36-.48,1-.6,1.2-1.08a6,6,0,0,0,1.56-.6c.12-.12.6-.24.72-.36.36-.48.48-.36.6-.36.36-.24.6-.84,1-1s1-.24,1.44-.36l1.08-.36a12.53,12.53,0,0,1,2.64-.72c1.2-.12,2.4.72,3.84.12.36,0,.6.36,1,.6,1.08-.36,3.12-.24,3.84.48a3.23,3.23,0,0,1,1.8-.36c.72,0,1.8,1.2,2.4,1.56s1.44.36,2.16.6a.72.72,0,0,1,.12.48c.12,0,.36-.12.48,0,.24.36.48.24.48.36,1,.48,2.88,1.8,3.24,2.64a9.57,9.57,0,0,1,.72,2.64,7.29,7.29,0,0,0,.84,1.2c.12.36.36.84.48,1.2.48.84.72,1.56,1.08,2.28,1.44-.24,2-1.44,2.64-2.64.6-.24,1.32-.6,1.32-1.44,1.68-.12,1.44-1.92,3.24-1.92,0-.6.72-.6.72-1.32,1.56-.6,2.76-1.8,4.2-2.64.84-.48,2.16-1,3.24-1.68,1.56.24,3.36-.24,5.28-.48s3.72-.12,5.4-.24a27.44,27.44,0,0,1,5.4.12c.6.12,1.32.48,1.92.6s1.56.24,2.16.48a5,5,0,0,1,1.32.84,8.39,8.39,0,0,0,1.56.6,4.69,4.69,0,0,0,1,1.2c.36.36.6.24.72.36s.24.48.36.6a10.77,10.77,0,0,0,2.28,1.8,2.26,2.26,0,0,0,1,1.32c.24,1.2,1.08,2.28,1.44,3.6l.24.48c.24.84.12,1.92.36,3.12,0,.24.24.48.36,1,.12,1,.24,2,.48,3.12a8.71,8.71,0,0,1,.12,4c.48.72.48,2,1.08,2.64a14.56,14.56,0,0,0-.24,2.76c0,1.2.6,2.76-.12,3.48,1.68,2.16.84,5.4,1,8.88a21.18,21.18,0,0,1,.36,2.52c0,1.56-.48,3.48-.48,4.44,0,.36.24.84.12,1.2s-.36,1.08-.36,1.56a9.54,9.54,0,0,0,.36,1.8c0,.36-.24.6-.24,1.08s.24.84.12,1.2c0,.6-.36,1.2-.36,1.68s.12.84.12,1.2v1.2c0,.48.36,1.2.36,1.68.12,1.08-.24,1.8.12,2.52s.72.6.72,1.56A5.2,5.2,0,0,0,1363,148.61Z"/><path class="cls-23" d="M1441,119.57c.12,1.08.48,1.56,0,2.52-.36.6-1.56.84-1.8,1.32a4.64,4.64,0,0,0-2.88.12c-1.08-.84-3.6-.24-4.68-1.08a3.13,3.13,0,0,1-1.32.36c-2.16.24-4.68-.36-7.2-.72-1.68-.12-3.72-.12-5.16-.12a9.26,9.26,0,0,1-1.8.24c-1.2-.12-2.28-.84-3.48-.84a25.59,25.59,0,0,0-2.88.24,10.5,10.5,0,0,1-1.92-.24c-.24,0-.6.24-.84.24a2.82,2.82,0,0,0-1-.24c-1.08,0-2.16.48-3-.48a2.61,2.61,0,0,1-2,.6c-.72-.12-1.2-.24-1.44-.24s-.6.36-.6.36c-.48,0-1.2-.48-1.8.12-.24-.36-1.2,0-1.56-.36s-.36.36-.72.36c-1.32-.6-2.4-.12-3.72-.12s-2.4-.48-4.08-.24a6.47,6.47,0,0,0,.48,5.16c.12.84-.24,1.2-.24,1.8.12.24.48.24.6.36s0,.48.12.6a16.58,16.58,0,0,1,1.92,2.16c.72,1.2,2,2.16,2.88,3.6a20,20,0,0,0,1.44,1.92,8.82,8.82,0,0,1,3.12,1.68,4,4,0,0,0,.72.36,19.11,19.11,0,0,0,2.52,1.8,12.6,12.6,0,0,0,1.56.24c.72.24,1.8,1.44,2.88,1.56a9.32,9.32,0,0,1,1.08-.12,8.15,8.15,0,0,1,1.8.24,4.31,4.31,0,0,0,2.88-.72,9.07,9.07,0,0,0,1.8-.12c0-.12.12-.36.12-.48s.36.12.48,0,.24-.36.36-.36c.48-.12,1.08.24,1.56-.12a2.74,2.74,0,0,1,1.2-.6,11.92,11.92,0,0,0,2.28-1.44l1.56-1c1.56-1,2.52-3,4-4.32a7.85,7.85,0,0,1,1.44-4.08,6,6,0,0,1,1.08-3.48,3.18,3.18,0,0,1,2.16-.12c.48.24.84.48,1.56.84.48.24,1,.24,1.92.6.24.12.48.36.72.36s.72,0,1.2.12c.24,0,.48.36.72.36.6.12,1.68-.24,2.28,0,.12.12.24.36.48.48a2,2,0,0,1,1.08,1,4.61,4.61,0,0,1-.84,2.64c-.12.36-.24,1.08-.72,1-.12.6.24.72.12,1.44-.12.48-.48.72-.6,1.32a16.87,16.87,0,0,1-.84,2.64,6.86,6.86,0,0,1-.84,1,4.49,4.49,0,0,1-1.8,1.56c.36.72-.72,1.08-1,1.44-.36,1-1.32,1.56-2.4,2.28-1.2,1.08-2.76,1.8-3.84,2.64l-1.08.72a4.56,4.56,0,0,1-1.92,1.32c-.36.24-.48.12-.84.24,0,0-.24.36-.36.36a18.84,18.84,0,0,1-2.76.48c0,.12-.48.36-.48.36l-3.6.72a4.86,4.86,0,0,1-2.52.36c-.36,0-.84-.24-1.08-.24s-1.08.84-1.8.24c-.6-.24-.24.72-1,.48s-1.8.24-2.76.12a6.32,6.32,0,0,1-1.44-.36c-.48-.12-.6.24-.84.12s-.36-.36-.36-.36a28.88,28.88,0,0,1-4.8-.72c-.48-.12-1.08,0-1.32-.6a4.56,4.56,0,0,1-3.72-1.44,5.44,5.44,0,0,1-1.32-.36c-1-.48-2.28-.84-2.88-2-1.2,0-1.68-.84-2.28-1.44a3.64,3.64,0,0,1-3-1.8,12.67,12.67,0,0,0-1.8-1.8c-.24-.24,0-.84-.36-1.08-1.32-.6-1.92-1.92-3.36-2.4-.24-.84-1.08-1.44-1.56-2.16a5,5,0,0,1-.48-1.2c-.24-.36-.6-.6-.84-1-.36-1.08-.48-2.4-.84-3.6a2.29,2.29,0,0,1-.36-1c-.12-.72,0-1.44-.12-2s-.48-1-.6-1.44c-.12-.72,0-1.56-.12-2.52a13.5,13.5,0,0,1-.36-2.16c0-1.08.24-2.28.24-3.48,0-.36-.12-1-.12-1.32.12-.84.72-1.68.84-2.52a2.26,2.26,0,0,0-.24-1c0-.36.36-.84.12-1.2.36-.24.48-1,.6-1.32a17.05,17.05,0,0,1,.36-1.92c.12-.12.36-.24.48-.36a1.08,1.08,0,0,0,.12-.6c.12-.12.36-.24.48-.36s-.12-.6,0-.72a4.19,4.19,0,0,1,.6-1c.12-.36.24-.84.36-1.2s.48-.48.6-.72-.12-.72,0-1,.36-.12.48-.36c.24-1,.36-1.56.6-2.4a4.15,4.15,0,0,1,1.56-2.28c-.36-.36,0-.72,0-1.08a9.15,9.15,0,0,0,1.92-3.36c1.44-1,2.28-2.64,3.72-3.72a5.57,5.57,0,0,1,1.2-.6c.12-.12.12-.24.36-.36s.48-.12.6-.12a12.54,12.54,0,0,1,2.4-1.8c1-.36,3.36-.12,4.2-1.2a5.87,5.87,0,0,0,2.76-1,4.78,4.78,0,0,1,2.76-.72,7.55,7.55,0,0,0,3.24-.24,11.3,11.3,0,0,1,2.4-.36c.24,0,.6.24,1,.24,1.32,0,2.4,0,4.08.12.84,0,1.56-.36,2.52-.36.12,0,.24.24.48.24a4.44,4.44,0,0,1,1.8,0,6.53,6.53,0,0,1,1.2.36c.84,0,1.32.48,2,.84.36.24,1,.24,1.32.48a7.39,7.39,0,0,1,1.44.6c1,.36,2,.48,2.4,1.56.36.12.6,0,1,.24a12.18,12.18,0,0,1,2.16,1.56c.6.48,1.2,1.56,2,2,.12.48.48.72.6,1.32,1.32.72,2,2.16,3.6,2.76.48,1.08,1.32,1.68,1.44,3,.36.48.72,1.08,1.2,1.8.12.36.72.84.84,1.32a7.49,7.49,0,0,0,1.2,2.4,7.71,7.71,0,0,1,1.32,1.92c.12.6.12,1.32.24,1.92s.48,1.2.6,1.56c.24,1.2,0,2.4.12,3.72.12.84.24,1.92.36,2.88a7.37,7.37,0,0,0,.12,1.56c0,.48.36.84.36,1.2S1441,119.21,1441,119.57Zm-17.16-12c-.36-.24,0-.6-.12-1-.12-.12-1.08-.12-.6-.72-.48-.48-1.44-.6-1.32-1.56-.72.12-1-.72-1.2-.84s-.36-.12-.48-.24c-.6-.48-.72-1.32-1.32-1.8-.48-.24-1.2.36-1.2-.6-2.4.12-3.6-1.08-4.8-2.4-1.32.36-3.24,0-4.8.12-1.08-.72-2-.36-3.48-.72-.6-.12-.36-1-1.2-1-1.08.48-2-.36-3.24-.48-1.32.84-2.76.84-4.08,1.32-.72.24-1.92,1.8-2.4,2.28-1.08,1.32-2.16,2.64-3.12,3.72.12,1-.36,1.32-.24,2.16-1.08.84-1.32,2.64-1.68,4.2a25.38,25.38,0,0,0,4.08-.24,6.9,6.9,0,0,1,1.56-.12c.36-.12.6-.36,1-.36,1.44-.12,3,.12,4.44,0s3-.48,4.32.12c1.68-.72,4.32-.36,5.76-.24.24,0,.24-.24.6-.24s.24.24.6.24.48.36,1,.24c3.6-.6,8.16.36,12.6-.36C1424.71,108.89,1424.47,107.81,1423.87,107.57Z"/><path class="cls-23" d="M1567.87,115.73c-.12.72.48,1.92-.12,2.52,1,.84.36,1.92.12,3.24-.12.72.12,1.56,0,2s-.48.72-.6,1.08-.24,1-.6,1a5.4,5.4,0,0,1-.48,2.76c-.12.24-.12.6-.24,1s-.36.48-.36.72.12.84,0,1.2-.48.72-.6,1.08c-.48,1.2-1,2.4-1.44,3.72a17.35,17.35,0,0,1-2.28,4.2,6.77,6.77,0,0,1,0,1.56,9.52,9.52,0,0,0-2,2.28A7.05,7.05,0,0,1,1558,146c-.6.72-1.44,1.08-2.16,1.8-.84,0-.72.24-1.32,0a8.47,8.47,0,0,1-4.08,2.28,2.64,2.64,0,0,0-.6.36c-.36,0-.72-.12-1,0a11.86,11.86,0,0,1-3.12.84c-.36,0-.84-.24-1.2-.24-.6.12-1.08.48-1.8.6-1.2.24-2.64.12-4.08.24-.24,0-.36.24-.48.24s-.24-.24-.48-.24-.48.36-.72.36h-.84c-.36,0-.84-.12-1.08,0-1,.12-1.8.72-3.36.48-.36-.12-.24.36-.6.36-1.92.12-4.92.48-6.48-.72a2.34,2.34,0,0,1-1.56.12c-.36,0-.48-.24-.84-.36h-.72a12.28,12.28,0,0,1-4.68-1.8,3.31,3.31,0,0,0-1.08-.12c-1.08-.6-1.68-1.44-3.24-1.56,0-.6-.48-.6-.36-1.2-.6.36-.84-.36-1.2-.6s-.84-.36-1.2-.6a5.54,5.54,0,0,0-.84-.84c-.36-.24-1-.36-1.2-.6a5.23,5.23,0,0,1-1-1.2c-.24-.24-1-.48-.72-1.08-.6-.48-1.08-1-1.68-1.44-.12-.6-.48-.84-.36-1.56-.36-.36-.6-.36-1-.84-.12-.12-.12-.36-.24-.48-.48-.12-.24-.36-.36-.48-.24-.36-.6-.84-1-1.32a22.24,22.24,0,0,1-.72-2.16c-.12-.36,0-.48-.12-.84a2.75,2.75,0,0,1-.36-2c-.24-.48-.84-.72-1-1.2-.24-1.2-.12-2.28-.36-3.36-.12-.72-.84-1.32-.48-2.16-.48-.48-.6-1.32-1.08-1.68.24-1-.36-1.92-.36-3.12a10.63,10.63,0,0,1,.24-1.8v-2a12.63,12.63,0,0,1,.72-2.52c.12-.84,0-1.68.6-1.92-.6-2,.72-3.6.72-5.64.36-.24.36-1.08.72-1.32,0-1.68.84-2.52,1.08-3.84.84-.36,1.08-1.2,1.56-1.92.24-.24.48-.24.6-.36.36-.24.36-1.32,1.2-1.2.24-.6,0-.36,0-1.08,1-.36,1.32-1.32,2.28-1.92.24-.12.72-.24,1-.36s.48-.36.72-.6a9.23,9.23,0,0,0,1.08-1.08,11.88,11.88,0,0,1,2-1.32,9.14,9.14,0,0,1,2-1.56c.24-.12.6-.6,1-.72a2.62,2.62,0,0,1,1-.12c.48-.24,1.44-1.08,2.16-.6,1.08-1.08,2.88-1.44,5-1.44.6.12.6-.48,1-.48a23.33,23.33,0,0,1,4.32-.36c.6,0,1.2.24,1.68.24a11.59,11.59,0,0,0,2.16-.36c.48,0,.84-.12,1.2-.12a7.71,7.71,0,0,1,2.88,0c.36.12.84.48,1.2.48s1-.24,1.32-.24,1,.36,1.32.48a4.56,4.56,0,0,0,1.2.36c.48.12,1.08,0,1.56.12a5.93,5.93,0,0,1,1.92.6c.6.12,1.32.48,1.92.6,2.16.36,4-.12,6,.72.36.12.84.6,1.32.84.12,0,.48-.12.6,0s.48.6.72.72c.36.36,1,.24.72.84,1.92.6,3.24,1.92,4.68,3a3.77,3.77,0,0,0,.72,1.92c.6.6,1.08,1.2,1.68,1.8.24.24.12.72.36,1.32a19.63,19.63,0,0,0,1.44,2.64c0,1.2.12,1,.6,1.92s.72,2.28,1.8,2.76c-.12.84.6,1.68.72,2.52a30.32,30.32,0,0,1,.12,3.24c0,.36-.24.72-.12,1,0,.6.24,1.2.24,1.8C1568.11,115.13,1567.87,115.37,1567.87,115.73ZM1554,113a5.76,5.76,0,0,0,0-1.44c-.24-1.56-1.08-2.88-1.44-4.68a14.25,14.25,0,0,0-.24-3.12c-.6-.24-.48-1-.84-1.32-.36-.6-1.2-.84-1.32-1.56a13.67,13.67,0,0,1-2.28-1.2,11,11,0,0,1-2.28-.24c-.72-.24-1.08-.72-1.68-.84-1.2-.12-1.32.6-2.64.36-.84-.36-1.08-1.32-1.8-1.8a3.45,3.45,0,0,0-1.56-.12c-.48-.12-.48-.72-1.2-.6-1.32.36-3,1.2-4.8.48a3.52,3.52,0,0,0-1.44.84c0-.48-1-.12-1.32-.24-1.32.84-3.24,1.56-4.44,2.16-.36.12-.6,0-.84.24-.48.24-.84,1-1.2,1.32a13.77,13.77,0,0,1-1.32,1.32,4.38,4.38,0,0,1-.84.36c-1.44.72-2.16,2.16-3.48,2.76-.12,1.2-1.2,1.8-1.68,2.88-.36.84-.48,2.16-.84,2.88a8.32,8.32,0,0,1-.36,1c-.6,1.8,0,3.72-1,5.28.48.24.24,1,.36,1.56.24.84.72,1.56.36,2.52-.12.24-.48.12-.36.6.36.12.36.6.48,1a2.62,2.62,0,0,1,.6,1c.12.12-.12.36,0,.6.12.48.84,1,.48,1.68.72.24.6,1.2,1.2,1.44-.36.84.84,1.68.48,3.12a2.64,2.64,0,0,1,.6.36c.12.24,0,.48.12.84.36.36.84.72.84,1.32.84.24,1.32,1.2,2,1.8.36.36.72.48,1.08.84.72.48,1.08,1,1.56,1.32.12.12.24.36.36.36.48.24,1.08.24,1.56.48s.84.72,1.2.84c1.2.48,2.76.24,3.84,1.44,1.32,0,2,.6,3.6.48.6,0,.84.6,1.56.6a9.47,9.47,0,0,1,1.56-.36,12,12,0,0,1,2.16.24,9.89,9.89,0,0,0,2.52-1.08,3.29,3.29,0,0,1,2.16-1c.12-.72.84-1.08,1.32-1.56a6.59,6.59,0,0,0,1.8-1.92,15.36,15.36,0,0,1,1.2-1.44,33.32,33.32,0,0,0,2.64-4.44,12,12,0,0,0,1.2-2.52c.12-.24,0-.6,0-1,.12-.6.6-.84.24-1.08a7.12,7.12,0,0,0,.48-2.88c.84-.84.6-1.92.84-3.36.12-.72.6-1.32.6-1.92a26.13,26.13,0,0,0,.24-4.08C1554.19,113.21,1554,113.21,1554,113Z"/><path class="cls-23" d="M1644.43,91.73c0,.84.12,1.68.12,2.52,0,1.44-.36,3.24-.48,5.16-.12,1.56.12,2.88-.48,4.32.36,1.32.12,3,0,5.16,0,.6.24,1.2.24,1.8,0,.12-.24.36-.24.72s.24.48.12.84c0,.84-.48,1.44-.6,2.28a10.34,10.34,0,0,0,0,1.92c-.12.6-.36,1.2-.48,1.92a55.78,55.78,0,0,1-.84,6.24c-.12.24-.36.36-.48.72-.24.84-.36,1.92-.6,2.88s-.48,1.68-.84,2.76c-.36.84-.72,2.88-1.08,4.2a13.61,13.61,0,0,1-.6,1.56,15.12,15.12,0,0,1-.84,1.92,10.8,10.8,0,0,1-.6,1c0,.36-.36.24-.36.36s-.12.36-.24.6-.24.12-.36.36a30.16,30.16,0,0,0-1.8,2.88l-.36.36a2.63,2.63,0,0,0-.6,1,14.23,14.23,0,0,1-2.64,2.76c-.48.48-1.2.84-1.8,1.32-.12.12,0,.48-.12.6s-.48.12-.6.24c-.6.48-1.08,1.2-1.68,1.44a3.94,3.94,0,0,1-2.64.6c-1.32,1.44-3.84,1.68-6.12,2.16a2.56,2.56,0,0,1-1.32-1.2c-.72.12-1,.72-1.68.72s-1.2-.36-1.8-.36c-1,.48-2,.24-3.6,0a6.29,6.29,0,0,1-2.16-.24c-.36,0-.6-.24-1-.36a5.54,5.54,0,0,0-3.12-.48c-.48-.72-1.56-.72-2.28-1.2-.24-.12-.48-.6-.72-.72s-1-.36-.84-.84c-.36,0-.6-.36-1-.6-.12-.24-.84-.12-.48-.84a2.49,2.49,0,0,1-1.56-.36c-.48-.24-.48-1-1.32-.84-.24-.6-1-.6-1-1.32-.84,0-1.08-.72-1.68-.84-.6-1.32-1.92-2-3.12-3a7,7,0,0,1-1.44-1.2,11.28,11.28,0,0,1-1.32-2.16,5.25,5.25,0,0,0-.84-.72c-.24-.36-.24-.72-.48-1s-.72-.36-1-.72c-.12-.12-.12-.36-.24-.48a4.47,4.47,0,0,1-1.08-2.4,4.67,4.67,0,0,1-1-1.2c.36-.72-.36-1.2-.48-1.92-.36-1.32-.24-2.88-.48-4.08a7.18,7.18,0,0,0-1-1.92c-.12-.6.36-.6.24-1.2s-.6-.6-.84-1a3.66,3.66,0,0,0-.6-2.76c.72-1.68-.84-3.24-.36-4.8a4.26,4.26,0,0,0,.12-1.8,6.2,6.2,0,0,1,.24-2.52c.12-.48-.48-1.08-.6-1.68s.48-2.28.48-3.36c0-.6-.24-1.08-.12-1.56s.48-.84.6-1.32c-.36-1.8,0-3.12-.36-4.8-.12-.72.72-.36.84-.72.12-.72-.36-.84-.36-1.44a11.86,11.86,0,0,0,1.08-2.88,7.83,7.83,0,0,1,0-1.68c0-.48.36-.72.36-1.2s-.12-1,.12-1.68a2.38,2.38,0,0,1,.72-1.56c-.36-1.08-.72-2.64-.12-3.72.84-.48,2-.36,2.76-.84.24.36,1.32,0,1.32.6.24-.6.84-.12,1.2-.24s1-.36,1.56-.36c1.56,0,3.24.12,4.68,0a2.41,2.41,0,0,1,.48,1,5.25,5.25,0,0,1,.72,2.88,63.41,63.41,0,0,1,0,8.28c0,.6.24,1.2.24,1.8a23.26,23.26,0,0,0-.24,2.88,8.26,8.26,0,0,0-.24,1.56,6.46,6.46,0,0,0,.36,1.2c.12,1.08.12,2.88.12,3.48-.24,1.32.36,2.52-.12,3.6,1.2,1.8.84,4.32,1,6.84a24.19,24.19,0,0,1,.6,3.36c0,.24-.24.6-.24,1s.36.84.36,1.32c0,1.8-.36,3.48.12,5a12.48,12.48,0,0,0,.72,1.92,11,11,0,0,0,.72,1.92,4.15,4.15,0,0,0,1,1.08,3.32,3.32,0,0,0,.72,1c.48.6,1,1.44,1.92,1.56,0,.6.36,1,.48,1.44a17.09,17.09,0,0,1,1.92.36c.36.6,1.08.84,1.32,1.44a2.6,2.6,0,0,1,1.92.72c1-.36,1.8.48,3.12.48.48,0,1.44-.36,1.92-.36a1.74,1.74,0,0,0,1.2.12c1.32-.48,3.72-.72,4.92-1.44.24-.24.12-.48.36-.6s.72-.24,1-.6c.12-.12.12-.36.24-.6.6-.72,1.32-1.44,1.92-2.28a4.21,4.21,0,0,0,1.08-1.32,6.86,6.86,0,0,1,1.32-1.92,8.14,8.14,0,0,1,1.44-3.6c0-1,0-1.8.6-2.16-.24-.6.24-1,.12-1.92.12-.48.6-.72.84-1.32.12-.36-.12-1.08.36-1.32-.72-1.68-.36-4.32.12-6.36.12-.72.6-1.32.6-1.92s-.24-.84-.12-1.2.36-1,.48-1.56-.24-1.32-.24-2.16c0-.48.24-1.08.24-1.68a16.54,16.54,0,0,0-.36-2.4c0-.6.24-1.2.24-1.92a18.56,18.56,0,0,0-.12-2.52c0-.6.24-1.2.24-1.92,0-.48-.12-1.08-.12-1.56,0-.72.6-1.44.24-2.28,0,0-.6-.36-.6-.6s.36-.48.24-.72a4.33,4.33,0,0,1-.6-1.08c0-.12-.12-.72-.12-.72,0-.36.24-.36.24-.72a6.32,6.32,0,0,1-.36-1.44c-.12-.12.12-.24.12-.6,0-.12-.24-.24-.12-.48s.24-.48.36-.84,0-.48.24-.72c1.08-1.2,4.32-.48,6.84-.84a3.77,3.77,0,0,1,1.08-.36c.6-.12,1.08.12,1.56,0,1-.12,2-.84,3.12.12a2.77,2.77,0,0,1,3.84.24c.48.6.36,1,.6,1.92a5.49,5.49,0,0,1,.12,2,23.58,23.58,0,0,0,.36,2.88C1644.91,89.69,1644.43,90.77,1644.43,91.73Z"/><path class="cls-23" d="M1691.59,92.81c0,.72.24,1.2.12,1.56-.36,1.08-1.32,1.32-1.92,1.92-1.56-.72-2.64.12-4,.36-.36,0-1.2.12-1.56.12-1.32,0-2.28.72-3.24.84-.72.12-1.44-.24-2.16.24-.6,1.32-.12,3-.36,4.8,0,.36-.12.72-.12,1.2-.12,1.2.24,2.52.24,3.84s-.24,2.64.36,3.72a8.47,8.47,0,0,0-.48,3.6c-.36,2.28.24,5.28.24,7.56-.12,1-.24,1.8-.36,2.76,0,.24.36.36.24.72,0,.12-.36.36-.36.36s.12.36.12.6c-.12,1.44,0,3.6-.12,5.88v.72c0,.6-.24,1.08-.24,1.56.12,1.32.72,2.76-.24,4.08a5.4,5.4,0,0,0,.36,1.32c0,.36-.24.72-.24,1s.36.84.36,1.2-.24.48-.24,1c0,.72.24,1.8.36,2.88-.24.24-.24.6-.6.72a3.76,3.76,0,0,1-.84,4.08c-2-.24-4.08-.84-6-.48-1,.12-1.92.6-3.12.12-.6.12-.84.48-1.44.48s-1.08-.6-1.68-.72c-.24-1.92.12-4.92,0-7.92a12.23,12.23,0,0,0-.36-2c-.12-1.08,0-2.4-.12-3.48,0-.48.24-1.08.24-1.56s-.36-.36-.36-1.32a25.39,25.39,0,0,1,.84-5.4,3.51,3.51,0,0,1-.36-1.2c0-.6.12-1.32.12-1.92a12.67,12.67,0,0,1-.6-2.28c0-.6.24-.72-.12-1.44-.12-.24-.12-.48-.36-.72a32.81,32.81,0,0,0,.48-6c0-.48-.24-.72-.36-1.2s0-1.32-.12-2.16a19.6,19.6,0,0,1-.12-3.84c0-.48.24-1,.24-1.56s-.36-1.44-.36-2.16c0-1.32.36-2.64.36-4a7.32,7.32,0,0,1-.36-1.56c-.12-1.44.6-2.88.24-4.32-.24-.24-.48.12-.72.24a15.44,15.44,0,0,0-3,.72,15.06,15.06,0,0,0-1.92.48c-1.2.36-1.8.84-2.76.12-.24-.48-.48-.36-.48-.36a3.66,3.66,0,0,1-.84-1.2,2.79,2.79,0,0,1,1.32-2.64c-.36-.6.24-.84.36-1.56a19.9,19.9,0,0,1,.24-2.52c.24-1,1-1.68,1.08-2.52.12-1.08-.36-2.28-.12-3.24.24-1.44,1.08-1.92,2.88-1.56,1,.24,1.92.24,2.16,1.08,1.32-.12,1.8.6,3,.6,1.08-1.44.6-4.08.72-6.6a2.26,2.26,0,0,0,.24-1,9.46,9.46,0,0,0-.36-1.56,10.06,10.06,0,0,1,.12-3.24,7.33,7.33,0,0,0,.36-1.56,3.69,3.69,0,0,0-.36-1.56c-.12-.36-.6-.72-.12-1.08.12-.84-1.08-.48-.72-1.68a.73.73,0,0,0,.36-.72c.72-.36,1,0,1.8,0a5.81,5.81,0,0,1,3.24-.24.66.66,0,0,1,.6-.36c.84.12,1.44.48,2.28.6.6-.12,1.08-.48,1.56-.6s.36.24.48.24,1-.48,1.32,0c.72-.12.36.6.6.84s.48.24.48.6c.36,1.2-.12,4-.24,5.64,0,.12.24.24.12.48v1.8c0,.48-.24,1.32-.24,1.68s.24.6.36,1.08-.12,1,0,1.32c.12,1.08.72,1.8-.24,2.88.36,1,0,1.8-.12,2.88,0,.48.12,1.08.12,1.56,0,.72-.6,1.44-.24,2.16,1.2.12,2-.84,3-1.08s2,.12,2.88-.72c.84.6,1.92-.72,2.52.24.72-1,3-1.44,4.32-1.08.6-.12.36.6.48,1s.48.48.6.84-.12,1,0,1.56c0,.36.36.6.36,1s-.24.48-.24.72c.12,1.08.6,2,.72,2.88a4.25,4.25,0,0,0,.12.84C1691.83,92.45,1691.59,92.57,1691.59,92.81Z"/><path class="cls-23" d="M941.12,259.73c-.12.72.48,1.92-.12,2.52,1,.84.36,1.92.12,3.24-.12.72.12,1.56,0,2s-.48.72-.6,1.08-.24,1-.6,1a5.4,5.4,0,0,1-.48,2.76c-.12.24-.12.6-.24,1s-.36.48-.36.72.12.84,0,1.2-.48.72-.6,1.08c-.48,1.2-1,2.4-1.44,3.72a17.35,17.35,0,0,1-2.28,4.2,6.77,6.77,0,0,1,0,1.56,9.52,9.52,0,0,0-2,2.28,7.05,7.05,0,0,1-1.2,1.92c-.6.72-1.44,1.08-2.16,1.8-.84,0-.72.24-1.32,0a8.47,8.47,0,0,1-4.08,2.28,2.64,2.64,0,0,0-.6.36c-.36,0-.72-.12-1,0a11.86,11.86,0,0,1-3.12.84c-.36,0-.84-.24-1.2-.24-.6.12-1.08.48-1.8.6-1.2.24-2.64.12-4.08.24-.24,0-.36.24-.48.24s-.24-.24-.48-.24-.48.36-.72.36h-.84c-.36,0-.84-.12-1.08,0-1,.12-1.8.72-3.36.48-.36-.12-.24.36-.6.36-1.92.12-4.92.48-6.48-.72a2.34,2.34,0,0,1-1.56.12c-.36,0-.48-.24-.84-.36h-.72a12.28,12.28,0,0,1-4.68-1.8,3.31,3.31,0,0,0-1.08-.12c-1.08-.6-1.68-1.44-3.24-1.56,0-.6-.48-.6-.36-1.2-.6.36-.84-.36-1.2-.6s-.84-.36-1.2-.6a5.54,5.54,0,0,0-.84-.84c-.36-.24-1-.36-1.2-.6a5.23,5.23,0,0,1-1-1.2c-.24-.24-1-.48-.72-1.08-.6-.48-1.08-1-1.68-1.44-.12-.6-.48-.84-.36-1.56-.36-.36-.6-.36-1-.84-.12-.12-.12-.36-.24-.48-.48-.12-.24-.36-.36-.48-.24-.36-.6-.84-1-1.32a22.24,22.24,0,0,1-.72-2.16c-.12-.36,0-.48-.12-.84a2.75,2.75,0,0,1-.36-2c-.24-.48-.84-.72-1-1.2-.24-1.2-.12-2.28-.36-3.36-.12-.72-.84-1.32-.48-2.16-.48-.48-.6-1.32-1.08-1.68.24-1-.36-1.92-.36-3.12a10.63,10.63,0,0,1,.24-1.8v-2a12.63,12.63,0,0,1,.72-2.52c.12-.84,0-1.68.6-1.92-.6-2,.72-3.6.72-5.64.36-.24.36-1.08.72-1.32,0-1.68.84-2.52,1.08-3.84.84-.36,1.08-1.2,1.56-1.92.24-.24.48-.24.6-.36.36-.24.36-1.32,1.2-1.2.24-.6,0-.36,0-1.08,1-.36,1.32-1.32,2.28-1.92.24-.12.72-.24,1-.36s.48-.36.72-.6a9.23,9.23,0,0,0,1.08-1.08,11.88,11.88,0,0,1,2-1.32,9.14,9.14,0,0,1,2-1.56c.24-.12.6-.6,1-.72a2.62,2.62,0,0,1,1-.12c.48-.24,1.44-1.08,2.16-.6,1.08-1.08,2.88-1.44,5-1.44.6.12.6-.48,1-.48a23.33,23.33,0,0,1,4.32-.36c.6,0,1.2.24,1.68.24a11.59,11.59,0,0,0,2.16-.36c.48,0,.84-.12,1.2-.12a7.71,7.71,0,0,1,2.88,0c.36.12.84.48,1.2.48s1-.24,1.32-.24,1,.36,1.32.48a4.56,4.56,0,0,0,1.2.36c.48.12,1.08,0,1.56.12a5.93,5.93,0,0,1,1.92.6c.6.12,1.32.48,1.92.6,2.16.36,4-.12,6,.72.36.12.84.6,1.32.84.12,0,.48-.12.6,0s.48.6.72.72c.36.36,1,.24.72.84,1.92.6,3.24,1.92,4.68,3a3.77,3.77,0,0,0,.72,1.92c.6.6,1.08,1.2,1.68,1.8.24.24.12.72.36,1.32a19.63,19.63,0,0,0,1.44,2.64c0,1.2.12,1,.6,1.92s.72,2.28,1.8,2.76c-.12.84.6,1.68.72,2.52a30.32,30.32,0,0,1,.12,3.24c0,.36-.24.72-.12,1,0,.6.24,1.2.24,1.8C941.36,259.13,941.12,259.37,941.12,259.73ZM927.2,257a5.76,5.76,0,0,0,0-1.44c-.24-1.56-1.08-2.88-1.44-4.68a14.25,14.25,0,0,0-.24-3.12c-.6-.24-.48-1-.84-1.32-.36-.6-1.2-.84-1.32-1.56a13.67,13.67,0,0,1-2.28-1.2,11,11,0,0,1-2.28-.24c-.72-.24-1.08-.72-1.68-.84-1.2-.12-1.32.6-2.64.36-.84-.36-1.08-1.32-1.8-1.8a3.45,3.45,0,0,0-1.56-.12c-.48-.12-.48-.72-1.2-.6-1.32.36-3,1.2-4.8.48a3.52,3.52,0,0,0-1.44.84c0-.48-1-.12-1.32-.24-1.32.84-3.24,1.56-4.44,2.16-.36.12-.6,0-.84.24-.48.24-.84,1-1.2,1.32a13.77,13.77,0,0,1-1.32,1.32,4.38,4.38,0,0,1-.84.36c-1.44.72-2.16,2.16-3.48,2.76-.12,1.2-1.2,1.8-1.68,2.88-.36.84-.48,2.16-.84,2.88a8.32,8.32,0,0,1-.36,1c-.6,1.8,0,3.72-1,5.28.48.24.24,1,.36,1.56.24.84.72,1.56.36,2.52-.12.24-.48.12-.36.6.36.12.36.6.48,1a2.62,2.62,0,0,1,.6,1c.12.12-.12.36,0,.6.12.48.84,1,.48,1.68.72.24.6,1.2,1.2,1.44-.36.84.84,1.68.48,3.12a2.64,2.64,0,0,1,.6.36c.12.24,0,.48.12.84.36.36.84.72.84,1.32.84.24,1.32,1.2,2,1.8.36.36.72.48,1.08.84.72.48,1.08,1,1.56,1.32.12.12.24.36.36.36.48.24,1.08.24,1.56.48s.84.72,1.2.84c1.2.48,2.76.24,3.84,1.44,1.32,0,2,.6,3.6.48.6,0,.84.6,1.56.6a9.47,9.47,0,0,1,1.56-.36,12,12,0,0,1,2.16.24,9.89,9.89,0,0,0,2.52-1.08,3.29,3.29,0,0,1,2.16-1c.12-.72.84-1.08,1.32-1.56a6.59,6.59,0,0,0,1.8-1.92,15.36,15.36,0,0,1,1.2-1.44,33.32,33.32,0,0,0,2.64-4.44,12,12,0,0,0,1.2-2.52c.12-.24,0-.6,0-1,.12-.6.6-.84.24-1.08a7.12,7.12,0,0,0,.48-2.88c.84-.84.6-1.92.84-3.36.12-.72.6-1.32.6-1.92a26.13,26.13,0,0,0,.24-4.08C927.44,257.21,927.2,257.21,927.2,257Z"/><path class="cls-23" d="M987.92,215.09c0,.48-.84.12-.6.72-.48.48-.6,1.2-1.08,1.56a16.11,16.11,0,0,1-2.28.12c-1.2-.24-1.56-1.68-2.28-2.4-1.2-.36-2.52-1-3.6-.6s-1.08,1-2,1.32a28.75,28.75,0,0,1-.48,2.88,21.81,21.81,0,0,1-.24,4.8c-.36,1.56-1,2.88-.48,4.2,1.56.72,3,0,4.8.36a13.1,13.1,0,0,1,2.88.84c1.2-.12,1.8-.12,2.52.48,1.2.72.84,2.4,1.08,4.2a8.28,8.28,0,0,0,.36,1,29,29,0,0,0-.24,4.68c-.48.36-.72,1-1.08,1.32a31,31,0,0,1-5.76.12c-.36,0-1.2.48-1.56-.24-.72.48-2,.36-3.36.36-.72,1.8-.24,4.92-1.08,6.72a10.16,10.16,0,0,1,.48,3.48c0,.36.24.72.24,1.2s-.24.72-.24,1.08.12.84.12,1.2a12.07,12.07,0,0,1-.6,3.72c.48.84.12,2.16.12,3.24a29.2,29.2,0,0,1-.12,3.24c-.12,1-.48,2.16-.6,3.48s.12,2.88-.48,3.84a6.31,6.31,0,0,0,.36,1.44c.24,2.4-.24,5.28,0,7.92,0,.48.12,1.32.12,1.8a2.29,2.29,0,0,1,.36,1c.12.48-.24,1-.24,1.56s.6,1.68.72,2.64c.24,1.32,0,2.88.12,4.08a4.58,4.58,0,0,1,.36,1.2,7.64,7.64,0,0,1-.48,2.88c-.12.36-1,.6-1.32,1.08h-4.68c-.12,0-1.2.6-1.32-.24-.48.12-1.2.72-1.8.36-.24.48-.72.6-1.08.84-1,.24-1-.36-1.44-.6-.12,1.92-2.52,1.8-4.08,1.32.36-.72-.48-1.2-.48-1.92s.6-2.28.6-2.88c.24-2-.12-4.44.72-5.88-.48-.72.12-1.68.12-2.52a36.87,36.87,0,0,1-.36-4.08c0-3.6.36-6.6.24-9.48-.12-1.8-.24-3.36-.24-5.16.72-.84.36-1.56.36-2.88,0-.48.24-1,.24-1.44a9.74,9.74,0,0,1-.12-2.64,4.72,4.72,0,0,1,.48-1.56c0-.24-.24-.6-.24-1s.6-1,.48-1.32a3.85,3.85,0,0,1,.24-1.8c0-1.2-.72-2.88-.12-3.84.36-.72.12-3.24,0-4.44,0-.12.36-.36.24-.6s-.36-1.08.24-1.56c-.84-1.2,0-3.72-.48-5.64-.6-.48-1.32-.24-2.28-.24-.24,0-.6-.24-.72-.12-.84,0-1.32.6-2,.72a19.33,19.33,0,0,1-4.56-.12c-.12-.48-.84-.48-.6-1.2-.12-.48-1-.24-1-.84a6.55,6.55,0,0,1,1.44-3.6,9,9,0,0,1,.48-3.12,3.3,3.3,0,0,1,1.2-2.28c.12-.12.6-.12.72-.36s.12-.6.48-.6a23.45,23.45,0,0,0,4.08-.24c.24-.12.48-.36.72-.36,1.2-.24,2.52.24,3.48-.6a6.89,6.89,0,0,0-.12-2.28c-.36-.84.24-3.84.72-4.8-.12-.48-.12-1.08-.36-1.32a22.1,22.1,0,0,0,1.2-5,1.2,1.2,0,0,0,.48-.6c.12-.12.36-.24.36-.36.24-.36.24-.84.48-1.2l.36-.36c.12-.12,0-.36.24-.6l.36-.36c.12-.12.12-.36.24-.6a18.59,18.59,0,0,1,1.56-1.44,17.15,17.15,0,0,0,1.32-1.8c.72,0,1-.36,1.56-.24.24-.72.12-1.08.84-1.56a10,10,0,0,0,1.44-1,5,5,0,0,0,2.28-.12,7.74,7.74,0,0,1,1.8-.6,14.9,14.9,0,0,1,3.24.12c2.64.36,4.32,1.92,6.48,2.64.6,1.08,2,1.32,2.52,2.4,1.32.24,1.56,1.44,2.88,1.8a7.72,7.72,0,0,1,.12,3.72C990,212.93,988.4,213.53,987.92,215.09Z"/><path class="cls-23" d="M1149,292.61a4.51,4.51,0,0,1-.6,1c-.6.48-1,.36-1.8.6-.36.12-1,0-1.56.12a11.25,11.25,0,0,1-1.92.48c-.72.12-1.56.12-2.4.24-1.32.12-2.64.48-4.08.48-1.08.6-1.8.48-3.48.48-.36-.6-1-1-1.32-1.56a5.75,5.75,0,0,1,1.08-3.24c-.12-.36-.12-.72-.24-1.08s.12-.24.12-.48.24-.24.12-.48a6.26,6.26,0,0,1,.12-2.52c0-.24.36-.6.36-1,.36-2.16,0-4.68.12-7a9.77,9.77,0,0,0,.48-1.08c0-.48-.24-1-.24-1.44s.6-1.2.72-1.68c0-.72-.6-1.44.24-1.92-.72-1.2-.36-2.64-.36-4.08,0-.48-.12-1-.12-1.32,0-2,.48-4.2.36-6.24-.12-.84-.6-1.8-.72-2.76a4.84,4.84,0,0,1,0-1.32,5.39,5.39,0,0,1-.36-1.32c-.12-.84.12-1.68,0-2.52s-.36-1.32-.36-1.92.36-1.32.24-1.92a5.94,5.94,0,0,0-.36-1.56,5.41,5.41,0,0,0-.12-1.56c-.12-.48-.6-.84-1-1.44a13.06,13.06,0,0,0-.72-1.32c-.36-.6-.84-1.32-1.32-2-.24-.36-.48-.36-1-.72,0-.12-.12-.36-.12-.48-.36-.12-.36.12-.84,0-.24,0-.24-.24-.48-.36a6.45,6.45,0,0,0-1.56-.36,4.7,4.7,0,0,0-1.8.24c-.6.12-1.32.12-1.68.24s-.36.24-.6.36-.6,0-.84.12a20.74,20.74,0,0,0-2.16,1.32c-.6.48-1.32.84-1.92,1.32-.24.12-.24.48-.48.6s-.84.24-1.08.6c-.24.12-.36.36-.6.72-.12,0-.48.36-.6.6s-.24.72-.84.72c-.12,1.68-1.32,2.76-2.16,4-.12.24-.48.36-.6.6a12.85,12.85,0,0,0-.84,2.28c0,.12-.36.36-.36.36-.12.24,0,.6-.12.84s-.36.24-.36.36.12.48,0,.6c-.24.48-1,1-1.2,1.56-.12.36-.12,1.08-.24,1.44s-.48.6-.6,1-.12,1-.24,1.44c0,.12-.24.12-.36.36s0,.48,0,.72c-.12.48-.48.72-.6,1.2s-.12,1-.24,1.32c0,.12-.36.36-.36.36-.24.6,0,1.44-.72,1.8.12,1.8-1.2,3.24-1.44,5.16a8.5,8.5,0,0,1,.12,1.68c0,.6-.12,1.32-.12,1.8s-.36.84-.48,1.32c-.12.72-.12,1.8-.24,2.76,0,.36-.24.72-.24,1.08s.24.36.24.6c-.12,1.08.48,2.16-.12,3.36.24.72,1.08,2.16.12,2.88a3.86,3.86,0,0,1,1,1.56c.12.72,0,1.68.12,2.52s1.08,1.68.72,3.12c-.24,1.08-1.32,1.2-2.16,1.92-.72-.48-1.8-.36-2.76-.84-.12-.12-.24-.36-.48-.48a25.06,25.06,0,0,0-3,.12,12.19,12.19,0,0,1-2,.36c-.6,0-1.08-.36-1.56-.36-1-.12-1.68.36-2.52-.12-1.32-1.32-.6-4.68.36-6-.36-.24-.24-.84-.6-1.08.72-.48.72-2.4.6-3.36s.6-1.56.72-2.52c0-.48-.24-1-.24-1.56.12-1.92.36-5.64.48-8.64,0-.72.12-1.8.24-2.88,0-.24-.24-.24-.24-.48,0,0,.36-.6.48-.84,0-1.2-.6-2.28.24-3.36.12-.36-.36-.48-.36-.72s.12-.72,0-1a7.54,7.54,0,0,1-.72-2.16c0-.24.24-.36.24-.6a5.21,5.21,0,0,1-.48-.84c0-.24.12-.6.12-1s-.48-.84-.6-1.32.24-.48.24-.84a9.64,9.64,0,0,0-.72-3.6c-.48-.72-.24-1.2-.36-1.56-.24-.72-.6-1.2-1-2-.12-.36-.36-.48-.48-1.08s-.48-1.2-.72-1.8a17.63,17.63,0,0,0-2.88-4.08,7.59,7.59,0,0,1-2.64-1.08c-.48-.12-.84.12-1.44.12-.36.12-1-.24-1.32-.12a3.92,3.92,0,0,0-.72.36,19,19,0,0,0-2.4.84c-1.08.48-2.16.72-3.12,1.08-1.44.72-2.52,1.92-4,2.52-.72,1-1.08,2.52-2.4,3a2.78,2.78,0,0,1-.36,1.92c-.12.36-.36.6-.36,1s-.12.72-.24,1.2c-.12,0-.36.24-.48.36s.12.36,0,.6c-.24.72-.48,2-1.32,2.4a2.93,2.93,0,0,1-.72,2.16,11.68,11.68,0,0,1-1.2,5.16c-.6,1.56-.36,4.2-1.56,6-.12.72.48.84.36,1.56.12.84-.6,1-.6,1.68a11.3,11.3,0,0,1-.6,8.16c.72.84.36,1.44.36,2.76,0,.36.24.48.24.72-.12.48-.36,1-.24,1.32a6.32,6.32,0,0,0,.36,1.44c0,.36-.24.6-.24,1.08,0,.72,0,2.4.12,3.6.12,1.8,1.32,3.6.6,5.4-3.36,2-7.2,0-11.64.12.24-.72-.6-.48-1-.84a14.7,14.7,0,0,1-.24-2.28c0-.72.48-1.32.6-1.92,0-.36-.24-.72-.24-1.2.12-1.68.36-3.84.36-6a9.85,9.85,0,0,1,.24-3.24c-.72-1.68.24-3.72-.36-5.4.72-2.16,0-4.44.72-7.2.12-.6-.6-.48-.6-1-.12-1.56-.12-3-.12-4.68,0-.48.24-.84.24-1.2a14.67,14.67,0,0,0-.36-2c0-.84.12-1.56.12-2.4-.12-.6-.24-1.32-.36-1.92A14.8,14.8,0,0,1,1047,252c0-.36.24-.72.24-1s-.24-.6-.36-1a8,8,0,0,1-.12-1.56v-3.84a5.76,5.76,0,0,0-.12-2.52c-.12-.48.12-.72-.12-1.44,0-.72-.24-1.08-.12-1.56s.24-1,.12-1.44a12.56,12.56,0,0,0-.48-2c.12-.6.48-.84.6-1.32a9.1,9.1,0,0,1,.48-4.68,5.7,5.7,0,0,1,1.2-2.28c1.32-.84,3,.48,4.32,1.08,2.52-.24,5.52-.12,8.28-.24a19.53,19.53,0,0,1,1.32,2c0,1.32-.36,1.92.12,2.88,1,.24,1.44-.36,2.16-.72.12,0,.48-.12.6-.12.6-.48,1.2-1.44,2.16-1.56.36-.48,1-.6,1.2-1.08a6,6,0,0,0,1.56-.6c.12-.12.6-.24.72-.36.36-.48.48-.36.6-.36.36-.24.6-.84,1-1s1-.24,1.44-.36l1.08-.36a12.53,12.53,0,0,1,2.64-.72c1.2-.12,2.4.72,3.84.12.36,0,.6.36,1,.6,1.08-.36,3.12-.24,3.84.48a3.23,3.23,0,0,1,1.8-.36c.72,0,1.8,1.2,2.4,1.56s1.44.36,2.16.6a.72.72,0,0,1,.12.48c.12,0,.36-.12.48,0,.24.36.48.24.48.36,1,.48,2.88,1.8,3.24,2.64a9.57,9.57,0,0,1,.72,2.64,7.29,7.29,0,0,0,.84,1.2c.12.36.36.84.48,1.2.48.84.72,1.56,1.08,2.28,1.44-.24,2-1.44,2.64-2.64.6-.24,1.32-.6,1.32-1.44,1.68-.12,1.44-1.92,3.24-1.92,0-.6.72-.6.72-1.32,1.56-.6,2.76-1.8,4.2-2.64.84-.48,2.16-1,3.24-1.68,1.56.24,3.36-.24,5.28-.48s3.72-.12,5.4-.24a27.44,27.44,0,0,1,5.4.12c.6.12,1.32.48,1.92.6s1.56.24,2.16.48a5,5,0,0,1,1.32.84,8.39,8.39,0,0,0,1.56.6,4.69,4.69,0,0,0,1,1.2c.36.36.6.24.72.36s.24.48.36.6a10.77,10.77,0,0,0,2.28,1.8,2.26,2.26,0,0,0,1,1.32c.24,1.2,1.08,2.28,1.44,3.6l.24.48c.24.84.12,1.92.36,3.12,0,.24.24.48.36,1,.12,1,.24,2,.48,3.12a8.71,8.71,0,0,1,.12,4c.48.72.48,2,1.08,2.64a14.56,14.56,0,0,0-.24,2.76c0,1.2.6,2.76-.12,3.48,1.68,2.16.84,5.4,1,8.88a21.18,21.18,0,0,1,.36,2.52c0,1.56-.48,3.48-.48,4.44,0,.36.24.84.12,1.2s-.36,1.08-.36,1.56a9.54,9.54,0,0,0,.36,1.8c0,.36-.24.6-.24,1.08s.24.84.12,1.2c0,.6-.36,1.2-.36,1.68s.12.84.12,1.2v1.2c0,.48.36,1.2.36,1.68.12,1.08-.24,1.8.12,2.52s.72.6.72,1.56A5.2,5.2,0,0,0,1149,292.61Z"/><path class="cls-23" d="M1218.32,229.61c-.36.84-.36,1.32-.72,2.28-.12.36-.24.36-.36.6-.24.48-.24,1.08-.48,1.56s-.48.84-.72,1.32a4.43,4.43,0,0,0-.6,1.32,5,5,0,0,1-.24.72,4.52,4.52,0,0,0-.84,2.16c-.24.36-.6.36-.84.72-.36.84-.48,2-1.32,2.28a16,16,0,0,1-1.32,3.84c-.48,1.32-1,2.4-1.44,3.72.12.72-.72.36-.72,1a8.49,8.49,0,0,1-.12,1.68c-.72,1.56-.84,3.12-1.44,4.68a22.41,22.41,0,0,1-2,3.72,4.56,4.56,0,0,1-.36,1.2,4.17,4.17,0,0,0-.6,1c-.24.72-.36,1.56-.6,2.28a6.64,6.64,0,0,1-.6,1,8.4,8.4,0,0,1-.72,2.28c-.12.36-.36.48-.6.84-.36,1-.24,2.16-1.2,2.88a3.55,3.55,0,0,1-.24,1.56c-.24.6-.72.72-1,1.32-.48,1.08-.48,2.28-1.08,3.24,0,.24-.24.24-.36.6-.36.72-.84,1.92-1.2,2.88-.72,1.56-1,3.24-2.28,4.32.36.72-.48,1.32-.6,1.8a3.1,3.1,0,0,1-.36,1c-.24.24-.24,1-.48,1.56s-.72,1.08-1,1.68a5,5,0,0,1-1.08,1.68,11,11,0,0,1-1.44,4.08c-.12.24-.24.36-.36.6-.24.84-.36,1.8-.6,2.64a15.19,15.19,0,0,1-.84,1.92,3.45,3.45,0,0,1-1,1.56,6.93,6.93,0,0,1-.84,2.52c-.36.72-.48,1.56-1.08,2a9.08,9.08,0,0,1-.84,3.84c-.24.84.72.48.6,1.2-.12,1.08-.6,1.68-.48,2.88-.72.36-1,1.2-1.56,1.8-2.88-.48-6,.72-7.92-.6a14.81,14.81,0,0,1-8.64-2.28c0-.84-.48-1.44-.36-2,0-1.32,1.32-2.28,1.2-4a5.71,5.71,0,0,0,1.68-3.84,7.19,7.19,0,0,0,1-1.92,6.05,6.05,0,0,1,.6-1.56,7.07,7.07,0,0,0,.6-1.56c.12-.12.36-.24.48-.36.24-.72.24-1.92,1-2.28v-1.56c.72-.24.6-1.08.84-1.56s.48-.6.84-1.32c.24-.48.36-1.2.6-1.68s.6-1,.84-1.44a39.46,39.46,0,0,1,3.36-5.28,2,2,0,0,1,.48-1.56c-.24-.72-.72-1.44-1-2.16-.12-.24.12-.48,0-.72s-1.08-.84-.72-1.56c-.6-.24-.48-1-1-1.2,0-1.56-.84-2.28-.72-4.08.36-.6-.48-.24-.48-.24-.24-.12-.24-.48-.48-.72a14.1,14.1,0,0,1-1.2-4c-.12-.6-.72-.84-1-1.56-.24-1,.6-.84.6-1.56,0-.36-1,0-1.08-.36a24.28,24.28,0,0,0-1.08-4c-.12-.12-.36-.12-.36-.36-.24-.48-.48-1.08-.84-1.8a3.78,3.78,0,0,0-.36-1.08,12.54,12.54,0,0,0-.48-1.2c-.24-.36,0-.84-.6-1a13.53,13.53,0,0,0-1.2-4.08c-.12-.36-.12-.48-.24-.6-.48-.84-.84-2.16-1.32-3.12-.24-.6-.6-1.2-.84-1.8a9.09,9.09,0,0,1-.72-1.92l-.48-.48a13.34,13.34,0,0,0-.36-1.56c-.36-1.08-1.08-2.28-.84-3.84-1-1.92-2.16-3.6-2.52-6.12-.84-1-1.08-2.28-1.68-3.48a8.52,8.52,0,0,1-1-1.8,8.4,8.4,0,0,1-.36-1.68c-.12-.72.72-.48.84-1s.24-.84.6-1a3.25,3.25,0,0,1,2,.24c.6.24,2.52,1.8,4,.84.12-.12.12-.24.36-.36a5.35,5.35,0,0,1,1.32-.36l1.44-.36c.6-.24.84-.48,1.32-.36a1.68,1.68,0,0,1,1.32,1.56c.24.24.6.36.72.6s.24.72.6.84a1.66,1.66,0,0,1,0,1.08,10.72,10.72,0,0,0,1.08,1.2,11.7,11.7,0,0,0,1,2.16c.6,1.56,1.08,3,1.68,4.56a15.35,15.35,0,0,0,.72,2.16,16.73,16.73,0,0,0,1.08,2c.24.72.24,1,.48,1.8a27.27,27.27,0,0,0,1.92,3.72,8.47,8.47,0,0,1,.36,1c.48,1,1,2.28,1.44,3.36a44.14,44.14,0,0,1,2.16,6,8.47,8.47,0,0,1,1,2.16,4,4,0,0,1,.72,2.4c1.32,1.68,1.56,4.32,3,5.88,1.44-1.68,1.8-4.44,3.36-6-.12-.48.12-.84.24-1.32.24-.72.36-1.08.6-1.68s.6-1.44.84-2.16.36-1.32.72-2.28c.36-1.44,1.68-3,2-4.8.48-.24.48-1,1.08-1.2a18.58,18.58,0,0,1,1.56-4.56,6.41,6.41,0,0,1,1.56-3.12c-.24-.84.6-1.56.84-2.28.12-.24-.12-.6,0-1,0-.12.36-.48.36-.6s0-.6.12-1c0-.12.36-.48.36-.48.24-1,.24-2,1.08-2.76a3.15,3.15,0,0,1,.24-2.52c.12-.24.36-.36.36-.72.12-1.08-.36-2.4.12-3.72.48,0,.36-.48.72-.72.6-.36,1.56-.12,2.16-.6a8.1,8.1,0,0,0,4.32.36,3.81,3.81,0,0,1,1.08-.36,43.53,43.53,0,0,1,6.84.36c1,1.2.84,3,.48,4.44C1218.8,228.53,1218.44,229,1218.32,229.61Z"/><path class="cls-23" d="M1343.11,262.25c-.12,1.68-.12,3.12-1.08,4.2a32.67,32.67,0,0,1-1.92,7.68c-.24.72-.36,1.2-.6,1.8a22.17,22.17,0,0,1-1.56,1.92c-.48.6-.72,1.56-1.68,1.92-.36,2.4-2.28,3.36-3.12,5.28-.72.12-.84.72-1.8.6-.24.36-.48.84-.84,1.32a17.28,17.28,0,0,1-4.56,3.36c-1.2.72-2.52,1.2-3.72,1.8-.12.12-.36.24-.48.48a12.2,12.2,0,0,1-1.2.48,4.86,4.86,0,0,1-3.36.72,3.94,3.94,0,0,1-2.52.72c-.6,0-.84.6-1.32.72-2.52.24-4.68,1-7,.12a7.59,7.59,0,0,1-2.76.48c-.48,0-1,.48-1.92.36a2.51,2.51,0,0,1-1.56-.84c-.24.36-.48,0-.6,0a12.18,12.18,0,0,1-2.28-.24,5.34,5.34,0,0,1-2.16-1.2c-.24-.48-.48-.36-.48-.48-1.08-.72-2.4-1.56-3.48-2.4-.84,1.44.24,3.6-.84,4.68-1.8,1-5.4,1.08-6.6-.48-1.44.24-2.52-1-3.36-.12-.6-.48-1.56-.6-2.28-1.08-.84-.12-.12-1.68-1.44-1.32-.12-.72.36-.84.24-1.56s-1-1.68-1-2.52.48-2.16.48-3.24c0-.6-.24-1.2-.24-1.8a7,7,0,0,0,.24-1.56,6.49,6.49,0,0,0-.36-1.2c0-.36.12-1,.12-1.32a9.2,9.2,0,0,1-.12-4.44c.24-.84-.72-.6-.6-1.32-.12-1.2.24-2.16.12-3.36a7.37,7.37,0,0,1-.36-1.32c0-.6.24-1,.24-1.56,0-1.32-.48-2.52-.48-3.84a4.28,4.28,0,0,1,.12-.84.92.92,0,0,0-.12-.72c0-.6.24-1.08.24-1.56,0-1.44-.36-3.36-.48-5.28,0-.24.24-.36.24-.6a5.94,5.94,0,0,1-.36-1.56,11.55,11.55,0,0,1,0-2c0-1.08-.36-2,.24-2.88a8.91,8.91,0,0,1-.24-5,4.93,4.93,0,0,0,.36-1c.12-.36-.12-.72.12-1.08s.48-.24.36-.72c0-.72-.36-1-.36-1.56a7.61,7.61,0,0,0,.24-2.88c0-.48-.36-1-.36-1.32s.24-.6.24-1a16.88,16.88,0,0,0-.12-2.4,15,15,0,0,1,.24-2.52c-.24-.36,0-.36,0-.6s-.24-.24,0-.72a7,7,0,0,1,.48-1.56c-.24-.36-.12-1-.36-1.2,1.56-4,.24-8.76,1-13.08a2.38,2.38,0,0,1,.72-1.56c-.6-1.56.48-4.08.12-5.64a10.05,10.05,0,0,0,.72-1.68c0-.36.24-.36.24-.6.48,0,1.2-.12,1.2.48.6.12.36-.6,1-.36.6-.12.6.6,1.08.72.48-.6,1.32-.12,2-.12a12.13,12.13,0,0,0,2-.36c1.44-.12,2.76,0,4-.12,0,.24.48.36.72.6s0,.48.12.6.36.12.48.24c.12.48,0,1.68.12,2.64a3.53,3.53,0,0,0,.36,1.2,4.83,4.83,0,0,0,0,1.32c.12.84.36,1.44.48,2a30.32,30.32,0,0,1-.12,3.24c.12,1.44.6,2.64.72,4.08.24,3.36-.24,6.72,0,9.72a2.3,2.3,0,0,0,1-.36,11,11,0,0,0,1.56-1,8.1,8.1,0,0,1,1.8-1c1.56-.6,3.84-.84,5.76-1.44.48-.12.72-.24,1.2-.36s.36,0,.6-.12a12.84,12.84,0,0,1,2.76-.36c.84,0,1.56-.12,2.28-.12s.84-.24,1.32.36c2.28-1.2,6.12.12,8.76.6.48,1,2,.72,2.52,1.8a8.58,8.58,0,0,1,3.72,2c1.08,0,1.32.48,1.92.84a5.24,5.24,0,0,1,1.92,1.2c.12.12.24.48.36.6.36.24,1.08.36,1.44.6s.36.84.84,1a4.66,4.66,0,0,0,1.32,2.52c.36.48,1.2,1.08,1.56,1.56s.12.84.36,1.2.36.48.6.84.36.48.48.72a5,5,0,0,1,.36,1c.48.84,1.08,1.56,1.56,2.4.6,1.08,1.08,2,1.68,3.12.6,1.32,1,3.48,1.8,4.92-.24,1.2.48,2.4.72,3.72.12.72,0,1.56.12,2.52a11.23,11.23,0,0,1,.48,1.92A33.91,33.91,0,0,1,1343.11,262.25Zm-12-2.16a6,6,0,0,1,.24-1.44c-.72-.6-.24-1.56-.36-2.52a3.84,3.84,0,0,0-.36-1.08c-.12-.6,0-1-.12-1.44A5,5,0,0,1,1330,251c-.6-.36-.72-1.08-1-1.68a2.36,2.36,0,0,1-.72-1.92,5.21,5.21,0,0,1-1.68-2.52c-1.32,0-1.44-1.08-2.52-1.2-.12-.48-.6-.72-1-1s-.48-.84-1-1.08a3.83,3.83,0,0,1-1.68-.24c-.24,0-.36-.36-.6-.6s-.72-.24-1-.36a2.16,2.16,0,0,0-.72-.6c-1.32-.84-2.52-1-4.44-.24-.84-.24-.6-1.32-1.44-1.44-.48-.12-1.92-.12-2.4-.84a10.43,10.43,0,0,0-3.12.48c-.48.12-.72.36-1.2.36s-1.2.12-1.56.24c-1.2.36-1.92,1.56-3.12,1.68a11.36,11.36,0,0,1-2.4,2.4,12.55,12.55,0,0,1-2.52,2.52c-.72,1.2-1.92,2.88-2.64,4.2-.36.6-.6,1.08-1,1.68a4.24,4.24,0,0,0-.6,1c-.12.24,0,.72-.12,1s-.36.6-.36.84a30.46,30.46,0,0,0-1,5.76,10.58,10.58,0,0,0,1.32,5.4c-.36,1,.36,1.56.48,2.16s.12.84.24,1.2.36.48.48.72,0,.48,0,.6.36.36.36.36a12.31,12.31,0,0,0,1,1.8,1.45,1.45,0,0,1,.36,1.2c1,.48,1,1.44,1.56,2.16.36.48,1.08.72,1.68,1.2a8.81,8.81,0,0,1,1.08,1.2c.24.12.48,0,.6.12a27.71,27.71,0,0,1,3.48,2.88c1.08,0,1.32.6,1.92,1a3.57,3.57,0,0,1,1,.48,7.34,7.34,0,0,0,3.24,1.2,28.56,28.56,0,0,0,7.92-.24,9.84,9.84,0,0,0,3.36-.72c.84-.36,1.56-1.44,2.52-2a18.28,18.28,0,0,0,2.76-2c.24-.36.36-.84.6-1.2s.6-.72.84-1.08,0-.6.12-.84.48-.24.6-.36c.12-.48.36-.48.48-.6a6,6,0,0,0,.6-1.56l.36-.72c.36-1,.84-1.8,1.08-2.52a13.44,13.44,0,0,1,1-2.64c-.6-1.68.12-3.36.12-5C1331.47,260.93,1331.11,260.57,1331.11,260.09Z"/><path class="cls-23" d="M1419.43,235.73c0,.84.12,1.68.12,2.52,0,1.44-.36,3.24-.48,5.16-.12,1.56.12,2.88-.48,4.32.36,1.32.12,3,0,5.16,0,.6.24,1.2.24,1.8,0,.12-.24.36-.24.72s.24.48.12.84c0,.84-.48,1.44-.6,2.28a10.25,10.25,0,0,0,0,1.92c-.12.6-.36,1.2-.48,1.92a55.33,55.33,0,0,1-.84,6.24c-.12.24-.36.36-.48.72-.24.84-.36,1.92-.6,2.88s-.48,1.68-.84,2.76c-.36.84-.72,2.88-1.08,4.2a13.26,13.26,0,0,1-.6,1.56,15.13,15.13,0,0,1-.84,1.92,11.28,11.28,0,0,1-.6,1c0,.36-.36.24-.36.36s-.12.36-.24.6-.24.12-.36.36a30.16,30.16,0,0,0-1.8,2.88l-.36.36a2.62,2.62,0,0,0-.6,1,14.23,14.23,0,0,1-2.64,2.76c-.48.48-1.2.84-1.8,1.32-.12.12,0,.48-.12.6s-.48.12-.6.24c-.6.48-1.08,1.2-1.68,1.44a3.94,3.94,0,0,1-2.64.6c-1.32,1.44-3.84,1.68-6.12,2.16a2.56,2.56,0,0,1-1.32-1.2c-.72.12-1,.72-1.68.72s-1.2-.36-1.8-.36c-1,.48-2,.24-3.6,0a6.28,6.28,0,0,1-2.16-.24c-.36,0-.6-.24-1-.36a5.54,5.54,0,0,0-3.12-.48c-.48-.72-1.56-.72-2.28-1.2-.24-.12-.48-.6-.72-.72s-1-.36-.84-.84c-.36,0-.6-.36-1-.6-.12-.24-.84-.12-.48-.84a2.49,2.49,0,0,1-1.56-.36c-.48-.24-.48-1-1.32-.84-.24-.6-1-.6-1-1.32-.84,0-1.08-.72-1.68-.84-.6-1.32-1.92-2-3.12-3a7,7,0,0,1-1.44-1.2,11.28,11.28,0,0,1-1.32-2.16,5.17,5.17,0,0,0-.84-.72c-.24-.36-.24-.72-.48-1s-.72-.36-1-.72c-.12-.12-.12-.36-.24-.48a4.47,4.47,0,0,1-1.08-2.4,4.69,4.69,0,0,1-1-1.2c.36-.72-.36-1.2-.48-1.92-.36-1.32-.24-2.88-.48-4.08a7.15,7.15,0,0,0-1-1.92c-.12-.6.36-.6.24-1.2s-.6-.6-.84-1a3.65,3.65,0,0,0-.6-2.76c.72-1.68-.84-3.24-.36-4.8a4.27,4.27,0,0,0,.12-1.8,6.22,6.22,0,0,1,.24-2.52c.12-.48-.48-1.08-.6-1.68s.48-2.28.48-3.36c0-.6-.24-1.08-.12-1.56s.48-.84.6-1.32c-.36-1.8,0-3.12-.36-4.8-.12-.72.72-.36.84-.72.12-.72-.36-.84-.36-1.44a11.9,11.9,0,0,0,1.08-2.88,7.83,7.83,0,0,1,0-1.68c0-.48.36-.72.36-1.2s-.12-1,.12-1.68a2.38,2.38,0,0,1,.72-1.56c-.36-1.08-.72-2.64-.12-3.72.84-.48,2-.36,2.76-.84.24.36,1.32,0,1.32.6.24-.6.84-.12,1.2-.24s1-.36,1.56-.36c1.56,0,3.24.12,4.68,0a2.42,2.42,0,0,1,.48,1,5.24,5.24,0,0,1,.72,2.88,63.41,63.41,0,0,1,0,8.28c0,.6.24,1.2.24,1.8a23.26,23.26,0,0,0-.24,2.88,8.25,8.25,0,0,0-.24,1.56,6.45,6.45,0,0,0,.36,1.2c.12,1.08.12,2.88.12,3.48-.24,1.32.36,2.52-.12,3.6,1.2,1.8.84,4.32,1,6.84a24.19,24.19,0,0,1,.6,3.36c0,.24-.24.6-.24,1s.36.84.36,1.32c0,1.8-.36,3.48.12,5a12.48,12.48,0,0,0,.72,1.92,10.89,10.89,0,0,0,.72,1.92,4.14,4.14,0,0,0,1,1.08,3.32,3.32,0,0,0,.72,1c.48.6,1,1.44,1.92,1.56,0,.6.36,1,.48,1.44a17.13,17.13,0,0,1,1.92.36c.36.6,1.08.84,1.32,1.44a2.6,2.6,0,0,1,1.92.72c1-.36,1.8.48,3.12.48.48,0,1.44-.36,1.92-.36a1.74,1.74,0,0,0,1.2.12c1.32-.48,3.72-.72,4.92-1.44.24-.24.12-.48.36-.6s.72-.24,1-.6c.12-.12.12-.36.24-.6.6-.72,1.32-1.44,1.92-2.28a4.23,4.23,0,0,0,1.08-1.32,6.83,6.83,0,0,1,1.32-1.92,8.14,8.14,0,0,1,1.44-3.6c0-1,0-1.8.6-2.16-.24-.6.24-1,.12-1.92.12-.48.6-.72.84-1.32.12-.36-.12-1.08.36-1.32-.72-1.68-.36-4.32.12-6.36.12-.72.6-1.32.6-1.92s-.24-.84-.12-1.2.36-1,.48-1.56-.24-1.32-.24-2.16c0-.48.24-1.08.24-1.68a16.54,16.54,0,0,0-.36-2.4c0-.6.24-1.2.24-1.92a18.57,18.57,0,0,0-.12-2.52c0-.6.24-1.2.24-1.92,0-.48-.12-1.08-.12-1.56,0-.72.6-1.44.24-2.28,0,0-.6-.36-.6-.6s.36-.48.24-.72a4.33,4.33,0,0,1-.6-1.08c0-.12-.12-.72-.12-.72,0-.36.24-.36.24-.72a6.32,6.32,0,0,1-.36-1.44c-.12-.12.12-.24.12-.6,0-.12-.24-.24-.12-.48s.24-.48.36-.84,0-.48.24-.72c1.08-1.2,4.32-.48,6.84-.84a3.78,3.78,0,0,1,1.08-.36c.6-.12,1.08.12,1.56,0,1-.12,2-.84,3.12.12a2.77,2.77,0,0,1,3.84.24c.48.6.36,1,.6,1.92a5.51,5.51,0,0,1,.12,2,23.77,23.77,0,0,0,.36,2.88C1419.91,233.69,1419.43,234.77,1419.43,235.73Z"/><path class="cls-23" d="M1535.47,292.61a4.6,4.6,0,0,1-.6,1c-.6.48-1,.36-1.8.6-.36.12-1,0-1.56.12a11.23,11.23,0,0,1-1.92.48c-.72.12-1.56.12-2.4.24-1.32.12-2.64.48-4.08.48-1.08.6-1.8.48-3.48.48-.36-.6-1-1-1.32-1.56a5.75,5.75,0,0,1,1.08-3.24c-.12-.36-.12-.72-.24-1.08s.12-.24.12-.48.24-.24.12-.48a6.26,6.26,0,0,1,.12-2.52c0-.24.36-.6.36-1,.36-2.16,0-4.68.12-7a9.58,9.58,0,0,0,.48-1.08c0-.48-.24-1-.24-1.44s.6-1.2.72-1.68c0-.72-.6-1.44.24-1.92-.72-1.2-.36-2.64-.36-4.08,0-.48-.12-1-.12-1.32,0-2,.48-4.2.36-6.24-.12-.84-.6-1.8-.72-2.76a4.84,4.84,0,0,1,0-1.32,5.4,5.4,0,0,1-.36-1.32c-.12-.84.12-1.68,0-2.52s-.36-1.32-.36-1.92.36-1.32.24-1.92a6,6,0,0,0-.36-1.56,5.41,5.41,0,0,0-.12-1.56c-.12-.48-.6-.84-1-1.44a13.06,13.06,0,0,0-.72-1.32c-.36-.6-.84-1.32-1.32-2-.24-.36-.48-.36-1-.72,0-.12-.12-.36-.12-.48-.36-.12-.36.12-.84,0-.24,0-.24-.24-.48-.36a6.44,6.44,0,0,0-1.56-.36,4.7,4.7,0,0,0-1.8.24c-.6.12-1.32.12-1.68.24s-.36.24-.6.36-.6,0-.84.12a21,21,0,0,0-2.16,1.32c-.6.48-1.32.84-1.92,1.32-.24.12-.24.48-.48.6s-.84.24-1.08.6c-.24.12-.36.36-.6.72-.12,0-.48.36-.6.6s-.24.72-.84.72c-.12,1.68-1.32,2.76-2.16,4-.12.24-.48.36-.6.6a12.77,12.77,0,0,0-.84,2.28c0,.12-.36.36-.36.36-.12.24,0,.6-.12.84s-.36.24-.36.36.12.48,0,.6c-.24.48-1,1-1.2,1.56-.12.36-.12,1.08-.24,1.44s-.48.6-.6,1-.12,1-.24,1.44c0,.12-.24.12-.36.36s0,.48,0,.72c-.12.48-.48.72-.6,1.2s-.12,1-.24,1.32c0,.12-.36.36-.36.36-.24.6,0,1.44-.72,1.8.12,1.8-1.2,3.24-1.44,5.16a8.5,8.5,0,0,1,.12,1.68c0,.6-.12,1.32-.12,1.8s-.36.84-.48,1.32c-.12.72-.12,1.8-.24,2.76,0,.36-.24.72-.24,1.08s.24.36.24.6c-.12,1.08.48,2.16-.12,3.36.24.72,1.08,2.16.12,2.88a3.87,3.87,0,0,1,1,1.56c.12.72,0,1.68.12,2.52s1.08,1.68.72,3.12c-.24,1.08-1.32,1.2-2.16,1.92-.72-.48-1.8-.36-2.76-.84-.12-.12-.24-.36-.48-.48a25,25,0,0,0-3,.12,12.23,12.23,0,0,1-2,.36c-.6,0-1.08-.36-1.56-.36-1-.12-1.68.36-2.52-.12-1.32-1.32-.6-4.68.36-6-.36-.24-.24-.84-.6-1.08.72-.48.72-2.4.6-3.36s.6-1.56.72-2.52c0-.48-.24-1-.24-1.56.12-1.92.36-5.64.48-8.64,0-.72.12-1.8.24-2.88,0-.24-.24-.24-.24-.48,0,0,.36-.6.48-.84,0-1.2-.6-2.28.24-3.36.12-.36-.36-.48-.36-.72s.12-.72,0-1a7.54,7.54,0,0,1-.72-2.16c0-.24.24-.36.24-.6a5.21,5.21,0,0,1-.48-.84c0-.24.12-.6.12-1s-.48-.84-.6-1.32.24-.48.24-.84a9.62,9.62,0,0,0-.72-3.6c-.48-.72-.24-1.2-.36-1.56-.24-.72-.6-1.2-1-2-.12-.36-.36-.48-.48-1.08s-.48-1.2-.72-1.8a17.63,17.63,0,0,0-2.88-4.08,7.59,7.59,0,0,1-2.64-1.08c-.48-.12-.84.12-1.44.12-.36.12-1-.24-1.32-.12a4,4,0,0,0-.72.36,19,19,0,0,0-2.4.84c-1.08.48-2.16.72-3.12,1.08-1.44.72-2.52,1.92-4,2.52-.72,1-1.08,2.52-2.4,3a2.78,2.78,0,0,1-.36,1.92c-.12.36-.36.6-.36,1s-.12.72-.24,1.2c-.12,0-.36.24-.48.36s.12.36,0,.6c-.24.72-.48,2-1.32,2.4a2.93,2.93,0,0,1-.72,2.16,11.67,11.67,0,0,1-1.2,5.16c-.6,1.56-.36,4.2-1.56,6-.12.72.48.84.36,1.56.12.84-.6,1-.6,1.68a11.3,11.3,0,0,1-.6,8.16c.72.84.36,1.44.36,2.76,0,.36.24.48.24.72-.12.48-.36,1-.24,1.32a6.32,6.32,0,0,0,.36,1.44c0,.36-.24.6-.24,1.08,0,.72,0,2.4.12,3.6.12,1.8,1.32,3.6.6,5.4-3.36,2-7.2,0-11.64.12.24-.72-.6-.48-1-.84a14.7,14.7,0,0,1-.24-2.28c0-.72.48-1.32.6-1.92,0-.36-.24-.72-.24-1.2.12-1.68.36-3.84.36-6a9.85,9.85,0,0,1,.24-3.24c-.72-1.68.24-3.72-.36-5.4.72-2.16,0-4.44.72-7.2.12-.6-.6-.48-.6-1-.12-1.56-.12-3-.12-4.68,0-.48.24-.84.24-1.2a14.8,14.8,0,0,0-.36-2c0-.84.12-1.56.12-2.4-.12-.6-.24-1.32-.36-1.92a14.75,14.75,0,0,1-.36-3.48c0-.36.24-.72.24-1s-.24-.6-.36-1a8,8,0,0,1-.12-1.56v-3.84a5.77,5.77,0,0,0-.12-2.52c-.12-.48.12-.72-.12-1.44,0-.72-.24-1.08-.12-1.56s.24-1,.12-1.44a12.57,12.57,0,0,0-.48-2c.12-.6.48-.84.6-1.32a9.11,9.11,0,0,1,.48-4.68,5.7,5.7,0,0,1,1.2-2.28c1.32-.84,3,.48,4.32,1.08,2.52-.24,5.52-.12,8.28-.24a19.52,19.52,0,0,1,1.32,2c0,1.32-.36,1.92.12,2.88,1,.24,1.44-.36,2.16-.72.12,0,.48-.12.6-.12.6-.48,1.2-1.44,2.16-1.56.36-.48,1-.6,1.2-1.08a6,6,0,0,0,1.56-.6c.12-.12.6-.24.72-.36.36-.48.48-.36.6-.36.36-.24.6-.84,1-1s1-.24,1.44-.36l1.08-.36A12.53,12.53,0,0,1,1464,226c1.2-.12,2.4.72,3.84.12.36,0,.6.36,1,.6,1.08-.36,3.12-.24,3.84.48a3.24,3.24,0,0,1,1.8-.36c.72,0,1.8,1.2,2.4,1.56s1.44.36,2.16.6a.72.72,0,0,1,.12.48c.12,0,.36-.12.48,0,.24.36.48.24.48.36,1,.48,2.88,1.8,3.24,2.64a9.54,9.54,0,0,1,.72,2.64,7.17,7.17,0,0,0,.84,1.2c.12.36.36.84.48,1.2.48.84.72,1.56,1.08,2.28,1.44-.24,2-1.44,2.64-2.64.6-.24,1.32-.6,1.32-1.44,1.68-.12,1.44-1.92,3.24-1.92,0-.6.72-.6.72-1.32,1.56-.6,2.76-1.8,4.2-2.64.84-.48,2.16-1,3.24-1.68,1.56.24,3.36-.24,5.28-.48s3.72-.12,5.4-.24a27.43,27.43,0,0,1,5.4.12c.6.12,1.32.48,1.92.6s1.56.24,2.16.48a5,5,0,0,1,1.32.84,8.39,8.39,0,0,0,1.56.6,4.71,4.71,0,0,0,1,1.2c.36.36.6.24.72.36s.24.48.36.6a10.72,10.72,0,0,0,2.28,1.8,2.25,2.25,0,0,0,1,1.32c.24,1.2,1.08,2.28,1.44,3.6l.24.48c.24.84.12,1.92.36,3.12,0,.24.24.48.36,1,.12,1,.24,2,.48,3.12a8.72,8.72,0,0,1,.12,4c.48.72.48,2,1.08,2.64a14.58,14.58,0,0,0-.24,2.76c0,1.2.6,2.76-.12,3.48,1.68,2.16.84,5.4,1,8.88a21.16,21.16,0,0,1,.36,2.52c0,1.56-.48,3.48-.48,4.44,0,.36.24.84.12,1.2s-.36,1.08-.36,1.56a9.54,9.54,0,0,0,.36,1.8c0,.36-.24.6-.24,1.08s.24.84.12,1.2c0,.6-.36,1.2-.36,1.68s.12.84.12,1.2v1.2c0,.48.36,1.2.36,1.68.12,1.08-.24,1.8.12,2.52s.72.6.72,1.56A5.2,5.2,0,0,0,1535.47,292.61Z"/><path class="cls-23" d="M1590,225.77a3.53,3.53,0,0,1-.24,1.08c-.12,1,.12,1.8,0,2.88s-.84,2.28-.48,3.48a7.19,7.19,0,0,0-1,2.4c-.12.24-.36.48-.36.72a10.74,10.74,0,0,0-.24,1.8,4.23,4.23,0,0,1-.6,1,8.52,8.52,0,0,1-1,1.8l-.36.36a7.07,7.07,0,0,0-1,1c-.24.24-.24.48-.36.72s-.48,0-.6.12-.48.72-.72,1.08l-.36.36a6.94,6.94,0,0,1-2.4,1.56l-.36.36a1.44,1.44,0,0,0-1,.36c-1.08.6-2.16.84-3.12,1.44a4,4,0,0,0-1.2,0,5.41,5.41,0,0,0-1.44.72,5.34,5.34,0,0,0-1.32.12,30.92,30.92,0,0,1-3.24.6,14.18,14.18,0,0,0-.48,3c0,.24.24.36.12.48s-.12.24-.12.48a12.36,12.36,0,0,0,.36,1.44c.12,2,.12,4.8,0,7.32a20,20,0,0,0-.24,3.72c0,.48.24,1.08.24,1.56s-.24,1.08-.24,1.56a10.15,10.15,0,0,1,.6,2,3.39,3.39,0,0,1-1.8,2.64c-.84,0-1.44-.36-2.16-.36-1.56-.12-2.88.72-4.44.48-.84.48-1.56.48-3.24.24-.48-.12-1-.12-1.32-.24-.36-.36-1-.36-1.32-.6,0,0,0-.36-.12-.48l-.6-.6a20.47,20.47,0,0,1,.36-3.24c.12-.6.6-.72.72-1.32.48-.48-.36-.72-.36-1.32s.6-.84.84-1.44c-.6-.48-.48-1.32-.6-2a30,30,0,0,1-.24-3.6c0-.24-.24-.36-.24-.6a8.62,8.62,0,0,0-.24-2.64c-.24-2,.12-4.2-.48-6-.12-.72.6-.6.48-1.32a5.53,5.53,0,0,0-1.08-2c0-.48,0-.84.24-1.08-.36-.36-.36-1-.6-1.44a19,19,0,0,1-.6-3.36c-.12-1.32-.24-1.92.72-2.76,1-.24,1.92.48,3,.6.6.12,1.44,0,2.16.12.36,0,1,.36,1.32.36.84,0,1.56-.6,2.16-.12a5.63,5.63,0,0,0,1.2-.6,5.74,5.74,0,0,0,1.8-.48c.12,0,.24-.36.36-.36.36-.12,1,0,1.32-.12s.72-.6,1.32-.48a2,2,0,0,0,.72-1c1.44-.12,2.28-1.08,3.36-1.92s1.8-1.8,2.64-2.4c-.24-.6.24-1,.6-1.44a13.31,13.31,0,0,0,1.44-3.24,9.6,9.6,0,0,0,.84-4.2,8.62,8.62,0,0,0-.48-2.28c-.36-1.08-.48-1.92-1.44-2.52-.12-.12-.36-.12-.48-.24a8,8,0,0,0-1.44-.72,4.53,4.53,0,0,1-.72-.6c-.36-.12-.84-.12-1.32-.24a22.25,22.25,0,0,1-3.12-1c-1.32.72-2.76,0-4.08.24-2,.36-3.12,2.16-4.8,2.88a20.22,20.22,0,0,0-1.44,5.64c0,.6-.24,1.2-.24,1.68a7.41,7.41,0,0,0,.6,1.44,3.79,3.79,0,0,1-1.56,3.12c-1-.36-2-.12-3.12-.6a3.06,3.06,0,0,1-3.12.6c-.36,0-.72-.36-1.08-.48s-.84,0-1.08-.12c-.6-.48-2.16-.48-2.64-.72a13.59,13.59,0,0,1-1.92-1.68,6.83,6.83,0,0,1-.48-2.64c-.12-.24-.36-.24-.36-.6s-.12-.6-.24-.72a9.16,9.16,0,0,0-.48-1.32,2.7,2.7,0,0,0,0-2.16,1.64,1.64,0,0,0,.24-1.68c.48-.36.6-1.08.84-1.56a40.2,40.2,0,0,1,1.92-4.8,9,9,0,0,1,1.8-1.08c.48-.36-.6-.72.12-1.2a4.59,4.59,0,0,1,2.4-1.8c.24-.24.24-1,.6-1.08a11.29,11.29,0,0,0,2.16-1.44,4.79,4.79,0,0,1,1.92-.84,3.8,3.8,0,0,1,1.08-.36l1.08-.36c.36-.12.6-.48,1-.6.6-.12,1.92-.36,2.64-.48.12,0,1.68.24,1.92.24s.72.24,1,.24c.72,0,1.68-.24,2.4.36,1.44-.48,3,.12,4.2.48.72.24,1.56,0,1.8.6.36-.12.48,0,1,0,.36.24.48,0,.72.12s.36.24.72.36a3.26,3.26,0,0,1,1.08,0c.36,0,.36.24.72.36.72.24,1.2.12,1.8.48s1.44.72,2.28,1.08c.48.24,1,.36,1.44.6a17.66,17.66,0,0,1,2.52,1.92c.24.12.24.36.48.48a3.76,3.76,0,0,1,.72.48c.24.12.36.36.6.48a8.75,8.75,0,0,1,1.2,1.56,7.24,7.24,0,0,1,1,1,8.25,8.25,0,0,1,.72,1.08c.24.36.6.84.72,1.08.12.72,0,1.68.12,2.4.12,1,.36,1.92.6,3,.12.24.36.48.36.72s-.12,1.08,0,1.44.36.72.36,1A9.42,9.42,0,0,1,1590,225.77Zm-19.32,65.16c-.48.6-.36,1.68-.72,2.4-.12.24-.84.24-.6.72-.36.12-.72.36-1.08.48a1.28,1.28,0,0,1-1.08.84c-.36.12-.24.48-.24.84a3.64,3.64,0,0,0-2.28,1.32,10.4,10.4,0,0,0-2.76.72c-1.2-.24-2.16-.72-3.24-1-.36-.12-.84-.12-1.08-.24-.72-.6-1.2-1.08-1.68-1.56a8.14,8.14,0,0,1-1.44-1.44c-.36-.6-.24-1.44-.48-2a3.18,3.18,0,0,0-.6-.72c-.12-.36-.12-.6-.48-.72.12-1.8-.72-2.52-.24-4.68,0-.24.36-.48.36-.72a5.1,5.1,0,0,1,.36-1.44,3.18,3.18,0,0,1,.6-.72,1.18,1.18,0,0,1,1-.48,7.16,7.16,0,0,0,.72-1.32h.72a6.69,6.69,0,0,1,3.6-2.28,6,6,0,0,1,2.52,1.56,4.9,4.9,0,0,1,1.32,0c.24,0,.36.24.72.36.72.24,1-.12,1.44.24s.84,1,1.2,1.44l1.32,1.32c.48.12.48.6.72.72s.24.24.36.48,1,1.08,1.44,1.68A20.23,20.23,0,0,1,1570.63,290.93Z"/><path class="cls-23" d="M1616.83,293.69a7.3,7.3,0,0,1-1.44,2.52c-1.32.24-2.64,0-4.32.12a18.56,18.56,0,0,0-2.52.12,15.28,15.28,0,0,1-2.28.12c-.6-.12-1-.6-1.56-.6a6.64,6.64,0,0,1-1.08-.84c0-1.2-.6-1.8-.6-3.12-.48-.6-1.2-1-1.68-1.68a8.38,8.38,0,0,1-.24-3.72c0-.36.24-.6.36-1a4.66,4.66,0,0,0,0-1.32c.12-.36.84-.48.48-.84.72-.24,1.08-1,1.56-1.44,1.32-.12,2-.84,3.12-1.56.12,0,.36-.36.36-.36.24,0,.48.12.6,0s.36-.48.6-.6a13.79,13.79,0,0,1,2.52-.24,6.28,6.28,0,0,1,2.16.24c.6.24,1,1,1.44,1.32.24.12.48.12.6.24a4.21,4.21,0,0,1,1.2,1,4.45,4.45,0,0,1-.12,2.52,7.41,7.41,0,0,1,1,2.76,29.22,29.22,0,0,1,.72,3.12A9.93,9.93,0,0,1,1616.83,293.69Zm1.56-79.32c-.12,1.32,0,2.76-.12,3.72-.12.6-.12,3.12-.12,4.56,0,.36.24.72.24,1-.12,1.68-.72,2.88-.48,4.44,0,.48.12,1.08.12,2,0,.24-.24.6-.24,1s.36,1,.36,1.56a12.3,12.3,0,0,1-.48,1.68c0,.72.24,1.44.24,1.92-.12,1.08-.72,1.68-.72,3.12a4.32,4.32,0,0,1,0,2.16c-.12.48-.36,1.08-.48,1.68a45.13,45.13,0,0,0,.36,5.28c0,1.2.12,2.4,0,3.84,0,.36-.12.72-.12,1.2,0,1.92.12,4,0,6,0,1.08-.48,2.16-.48,3.24,0,.6.36,1.08.36,1.8a29.93,29.93,0,0,1-.24,4.44,20.53,20.53,0,0,1-.12,2.88,5.79,5.79,0,0,1-1.56,2c-.72.24-1.32-.24-2.16-.24-.6.12-.48.48-1.56.36-.48,0-1-.36-1.56-.36s-1.2,0-1.68-.12-1-.48-1.32-.6c-.72-.12-1.2,0-1.56-.24a1.7,1.7,0,0,0-1-.72,12.07,12.07,0,0,0-.48-3,6.3,6.3,0,0,0,0-4.2c.12-.48.36-.84.48-1.32s-.12-.6-.12-1,.12-.72.12-1-.12-.6-.12-1,.24-.72.24-1.08c-.12-.72-.48-1.32-.6-2,0-.48.24-.48.24-.84a4.25,4.25,0,0,0-.12-.72.75.75,0,0,1,.36-.6.56.56,0,0,0-.24-.6,30.1,30.1,0,0,0,.48-3.24c0-1.08-.72-2.16-.12-3.12a4.08,4.08,0,0,1-.72-1.8c0-.48.36-1.08.48-1.92a21,21,0,0,1-.36-2.88,3.09,3.09,0,0,1,.6-1.68c-.12-.48-.24-.72-.36-1.2a2.44,2.44,0,0,0-.12-.6,5.13,5.13,0,0,0,.12-.6c-.12-2.64.24-6.72-.36-9.84a1.89,1.89,0,0,0,0-.84c-.24-1.08-.6-3.24-.84-4.8a10,10,0,0,0,.72-2.52,14.05,14.05,0,0,0-.6-1.32c-.48-1.8.12-4-.48-5.52a7.93,7.93,0,0,0,.48-1.32c0-.6-.24-1.2-.24-1.92a6,6,0,0,1,.6-1.56c1.32-.36,2.88-.24,4.08-.84a9.09,9.09,0,0,1,2.52-.12h.84c2.88.12,5.76.24,7.56,1.08a11.34,11.34,0,0,1,.6,4C1618.75,212.81,1618.39,213.53,1618.39,214.37Z"/></g></g></g></svg>