<svg xmlns="http://www.w3.org/2000/svg" xmlns:xlink="http://www.w3.org/1999/xlink" viewBox="0 0 1390.51 1179.26"><defs><style>.cls-1{isolation:isolate;}.cls-2{fill:none;}.cls-3{fill:#5a3b70;}.cls-4{fill:url(#radial-gradient);}.cls-5{fill:#78578d;}.cls-6{fill:#74558b;}.cls-7{fill:#725388;}.cls-8{fill:#725187;}.cls-9{fill:#85649a;}.cls-10{fill:#826298;}.cls-11{fill:#7f5f95;}.cls-12{fill:#7f5e94;}.cls-13{fill:#7b5c91;}.cls-14{fill:#78598e;}.cls-15{fill:#795a8f;}.cls-16{fill:#ac89d0;}.cls-17{fill:#86669c;}.cls-18{fill:#85659b;}.cls-19{fill:#846399;}.cls-20{fill:#826197;}.cls-21{fill:#604076;}.cls-22{fill:#5e3f74;}.cls-23{fill:#ecaaff;}.cls-24{fill:#5d30a1;}.cls-25{fill:#8a699c;}.cls-26{fill:#805f95;}.cls-27{fill:#7c5c8f;}.cls-28{fill:#604277;}.cls-29{fill:#bc81ea;}.cls-30{fill:#673da4;}.cls-31{fill:#67467c;}.cls-32{fill:#634479;}.cls-33{fill:#d493ff;}.cls-34{fill:#74538a;}.cls-35{fill:#773ea7;}.cls-36{fill:#6a3ba5;}.cls-37{fill:#784c9d;}.cls-38{fill:#735486;}.cls-39{fill:#dda0ff;}.cls-40{fill:#8552ab;}.cls-41{fill:#ea9aff;}.cls-42{fill:#f5d4ff;}.cls-43{fill:#804dae;}.cls-44{fill:#836298;}.cls-45{fill:#fff7ff;}.cls-46{fill:#48395f;}.cls-47{fill:#7f9a41;}.cls-48{fill:#008f76;}.cls-49{fill:#05ab8c;}.cls-50,.cls-54{fill:#005b49;}.cls-50{opacity:0.5;}.cls-51,.cls-52,.cls-60{fill:#231f20;}.cls-51,.cls-52{stroke:#231f20;stroke-miterlimit:10;mix-blend-mode:multiply;}.cls-51{stroke-width:5.3px;}.cls-51,.cls-52,.cls-55{opacity:0.3;}.cls-52{stroke-width:7.49px;}.cls-53{fill:#944f90;}.cls-54{opacity:0.7;}.cls-55{fill:#55676f;}.cls-56{fill:#241d1f;}.cls-57{fill:#e77c8d;}.cls-58{fill:#fff;}.cls-59{fill:#f8f9f4;}.cls-61{fill:#b6dad0;opacity:0.6;}.cls-62{fill:#ddbdee;}.cls-63{fill:#ebdfee;}.cls-64{fill:#7c6d8c;}</style><radialGradient id="radial-gradient" cx="1082.61" cy="-45.11" r="191.72" gradientUnits="userSpaceOnUse"><stop offset="0" stop-color="#e9aaff"/><stop offset="0.92" stop-color="#ab75ca"/></radialGradient></defs><title>outcomeMoosh_2a</title><g class="cls-1"><g id="Layer_2" data-name="Layer 2"><g id="moosh"><path class="cls-2" d="M1169.93,189.38l-2.29,1.43Z"/><path class="cls-2" d="M1161.17,194.63l-2.22,1.25Z"/><path class="cls-2" d="M1156.61,197.14l-2.26,1.2Z"/><path class="cls-2" d="M1174.27,186.56l-2.22,1.46Z"/><path class="cls-2" d="M1152,199.55l-2.29,1.15Z"/><path class="cls-2" d="M1147.29,201.84l-2.32,1.09Z"/><path class="cls-2" d="M880.09,132.21l.66.83,0,0Z"/><path class="cls-2" d="M1178.54,183.64l-2.15,1.49Z"/><path class="cls-2" d="M1190.95,174.25l-2,1.61Z"/><path class="cls-2" d="M1182.75,180.61l-2.09,1.53Z"/><path class="cls-2" d="M1186.89,177.48l-2,1.57Z"/><path class="cls-2" d="M1113,214.56l-2.4.66Z"/><path class="cls-2" d="M1097.47,218.18c-.85.17-1.7.34-2.55.49C1095.77,218.52,1096.62,218.35,1097.47,218.18Z"/><path class="cls-2" d="M1102.69,217.1l-2.51.55Z"/><path class="cls-2" d="M1107.86,215.89l-2.46.61Z"/><path class="cls-2" d="M1086.91,220c-.88.13-1.77.26-2.65.37C1085.14,220.21,1086,220.08,1086.91,220Z"/><path class="cls-2" d="M1092.22,219.13c-.87.15-1.74.3-2.61.43C1090.48,219.43,1091.35,219.28,1092.22,219.13Z"/><path class="cls-2" d="M1118,213.1l-2.35.71Z"/><path class="cls-2" d="M1137.7,206.09l-2.38,1Z"/><path class="cls-2" d="M1132.81,208l-2.39.91Z"/><path class="cls-2" d="M1142.53,204l-2.36,1Z"/><path class="cls-2" d="M1194.93,170.93l-1.94,1.65Z"/><path class="cls-2" d="M1127.87,209.87l-2.4.85Z"/><path class="cls-2" d="M1257.17,82.53c-.32.84-.66,1.68-1,2.51C1256.52,84.2,1256.85,83.37,1257.17,82.53Z"/><path class="cls-2" d="M1262.37,67.31c-.26.87-.54,1.73-.81,2.59C1261.83,69,1262.11,68.18,1262.37,67.31Z"/><path class="cls-2" d="M1267.6,46.28c-.18.89-.37,1.78-.55,2.66C1267.23,48.06,1267.42,47.17,1267.6,46.28Z"/><path class="cls-2" d="M1263.86,62.13c-.24.87-.49,1.73-.74,2.6C1263.37,63.87,1263.62,63,1263.86,62.13Z"/><path class="cls-2" d="M1266.48,51.62c-.2.88-.41,1.76-.61,2.64C1266.07,53.37,1266.28,52.5,1266.48,51.62Z"/><path class="cls-2" d="M1265.23,56.9c-.22.88-.45,1.75-.68,2.62C1264.78,58.65,1265,57.78,1265.23,56.9Z"/><path class="cls-2" d="M1260.76,72.44c-.28.86-.58,1.71-.87,2.57C1260.18,74.15,1260.47,73.3,1260.76,72.44Z"/><path class="cls-2" d="M1198.83,167.51l-1.89,1.68Z"/><path class="cls-2" d="M1223.62,141.21l-1.65,2Z"/><path class="cls-2" d="M1226.83,137.1l-1.59,2.06Z"/><path class="cls-2" d="M1081.57,220.64c-.9.1-1.8.22-2.71.31C1079.76,220.85,1080.66,220.74,1081.57,220.64Z"/><path class="cls-2" d="M1229.93,132.91l-1.52,2.08Z"/><path class="cls-2" d="M1259,77.51c-.3.85-.62,1.69-.93,2.54C1258.41,79.21,1258.72,78.36,1259,77.51Z"/><path class="cls-2" d="M875.3,125.17q-4.59-7-8.65-14.29a218.91,218.91,0,0,1-9.88-19.64h.28q-.91-2.14-1.77-4.3h-.35A218,218,0,0,1,842.4,45.72h1c-.29-1.57-.55-3.14-.8-4.72h-1.09a221.18,221.18,0,0,1-3.34-38.38c0-.88,0-1.75,0-2.62H838c0,.87,0,1.75,0,2.62A221,221,0,0,0,841.27,41h-.17q.42,2.37.88,4.72h.17a217.84,217.84,0,0,0,12.55,41.23h-.16q.9,2.16,1.84,4.3h.16A219,219,0,0,0,875.3,125.17Z"/><path class="cls-2" d="M877.28,128.12h-.11q1.32,1.89,2.68,3.76h.05Q878.57,130,877.28,128.12Z"/><path class="cls-2" d="M1206.21,160.56l-1.87,1.82Z"/><path class="cls-2" d="M1209.87,156.86l-1.83,1.87Z"/><path class="cls-2" d="M1213.45,153.07l-1.79,1.92Z"/><path class="cls-2" d="M1271.29,18.53q-.07,1-.15,2Q1271.22,19.56,1271.29,18.53Z"/><path class="cls-2" d="M1270.28,29.26c-.07.58-.13,1.17-.21,1.75C1270.14,30.43,1270.21,29.85,1270.28,29.26Z"/><path class="cls-2" d="M1220.33,145.24l-1.7,2Z"/><path class="cls-2" d="M837.77,0c0,.87,0,1.75,0,2.62,0-.88,0-1.75,0-2.62Z"/><path class="cls-2" d="M1269.49,35.26c0,.29-.08.59-.12.88C1269.41,35.85,1269.45,35.56,1269.49,35.26Z"/><path class="cls-2" d="M1216.94,149.2l-1.75,2Z"/><path class="cls-2" d="M1270.85,23.84c-.06.66-.12,1.32-.19,2C1270.73,25.17,1270.79,24.51,1270.85,23.84Z"/><path class="cls-2" d="M1237.44,120.38a43.38,43.38,0,0,1-3.55,6.87,220.47,220.47,0,0,0,19.72-36c-.66.66-1.27,1.3-1.86,1.94A214.33,214.33,0,0,1,1237.44,120.38Z"/><path class="cls-2" d="M1059.1,221.87a10,10,0,0,1-1.88.18,12,12,0,0,0,2.08-.19Z"/><path class="cls-2" d="M844.91,58.42q-.68-2.61-1.3-5.24Q844.23,55.81,844.91,58.42Z"/><path class="cls-2" d="M843.32,51.94q-.66-2.89-1.25-5.8Q842.65,49,843.32,51.94Z"/><path class="cls-2" d="M1057.35,221.89h-.18c0,.1,0,.16.05.16S1057.31,222,1057.35,221.89Z"/><path class="cls-2" d="M1266.27,45.72h1.44c.31-1.57.6-3.14.87-4.72h-1.51C1266.82,42.58,1266.56,44.15,1266.27,45.72Z"/><path class="cls-2" d="M1252.61,91.25h1q.92-2.14,1.81-4.3h-1Q1253.52,89.11,1252.61,91.25Z"/><path class="cls-2" d="M1229.77,131.88h.9q1.33-1.87,2.63-3.76h-.9Q1231.1,130,1229.77,131.88Z"/><path class="cls-2" d="M850.73,77.12c-.14-.4-.29-.8-.44-1.2C850.44,76.33,850.58,76.72,850.73,77.12Z"/><path class="cls-2" d="M1061.39,221.81a38.24,38.24,0,0,1-4.17.24,41.86,41.86,0,0,0,4.47-.25Z"/><path class="cls-2" d="M1064.87,221.68q-3.8.37-7.65.37,4,0,8-.38Z"/><path class="cls-2" d="M1073.75,221.41h0Z"/><path class="cls-2" d="M1199,166.42H1200q1.69-1.54,3.35-3.12h-1Q1200.66,164.88,1199,166.42Z"/><path class="cls-2" d="M1055.47,221.91a11.9,11.9,0,0,0,1.75.14,9.76,9.76,0,0,1-1.6-.14Z"/><path class="cls-2" d="M846.73,64.94q-.84-2.84-1.61-5.72Q845.89,62.1,846.73,64.94Z"/><path class="cls-2" d="M848.94,72c-.63-1.9-1.23-3.82-1.81-5.74C847.71,68.16,848.3,70.08,848.94,72Z"/><path class="cls-2" d="M1170.37,188.25a214.47,214.47,0,0,1-22.82,12.69,204.7,204.7,0,0,1-23.92,10h-.83c-1.48.49-3,1-4.46,1.44h1a202.57,202.57,0,0,1-41.13,8.6h-1.62q4.69-.52,9.31-1.3c-1,.15-2.09.3-3.14.44-2.12.32-4.25.62-6.4.86h-1.42q-2.64.24-5.3.43h.36q-4.72.48-9.51.6h.09q4.86-.12,9.65-.6h1.86q-5.32.46-10.72.59h.08q5.44-.13,10.81-.59h1.26c-2.31.18-4.63.32-7,.43h.27l2.43-.12,1.34-.09,3-.21h.18c1.57-.12,3.13-.27,4.69-.43h-.17a204.93,204.93,0,0,0,41.38-8.6h.72q2.2-.69,4.38-1.44H1124a207.56,207.56,0,0,0,37.63-17.29h1.21q2-1.15,3.94-2.34h-1.26Q1168,189.82,1170.37,188.25Z"/><path class="cls-2" d="M852.29,81.32c-.19-.5-.39-1-.58-1.5C851.91,80.33,852.1,80.82,852.29,81.32Z"/><path class="cls-2" d="M1062.11,222l1.81-.05h.14l-2,.06Z"/><path class="cls-2" d="M876.79,127.57q-1.73-2.49-3.39-5Q875.06,125.08,876.79,127.57Z"/><path class="cls-2" d="M873,122q-1.73-2.67-3.38-5.39Q871.32,119.34,873,122Z"/><path class="cls-2" d="M1271.79,7.94c0,.57,0,1.13-.05,1.7C1271.75,9.07,1271.78,8.51,1271.79,7.94Z"/><path class="cls-2" d="M1068.82,221.73l-1.44.07Z"/><path class="cls-2" d="M1271.85,2.62c0-.88,0-1.75,0-2.62h0C1271.83.87,1271.85,1.75,1271.85,2.62Z"/><path class="cls-2" d="M869,115.59q-1.61-2.68-3.16-5.41Q867.42,112.91,869,115.59Z"/><path class="cls-2" d="M1063.68,221.94l-1.46,0Z"/><path class="cls-2" d="M1271.6,13.24c0,.66-.07,1.32-.11,2C1271.53,14.56,1271.57,13.9,1271.6,13.24Z"/><path class="cls-2" d="M1053.89,221.91h0Z"/><path class="cls-2" d="M853.88,85.32c-.22-.54-.45-1.09-.66-1.63C853.43,84.23,853.65,84.77,853.88,85.32Z"/><path class="cls-2" d="M865.36,109.23c-1.06-1.91-2.11-3.83-3.11-5.77C863.25,105.4,864.29,107.32,865.36,109.23Z"/><path class="cls-2" d="M859,96.9q-1.28-2.69-2.5-5.42Q857.7,94.21,859,96.9Z"/><path class="cls-2" d="M862.24,103.46c-.93-1.79-1.82-3.6-2.71-5.42C860.42,99.86,861.31,101.67,862.24,103.46Z"/><path class="cls-3" d="M1239.53,114.86c-.67,1.86-1.33,3.69-2.09,5.52a214.33,214.33,0,0,0,14.31-27.16q-1.45,1.58-2.67,3.12Q1244.72,105.86,1239.53,114.86Z"/><path class="cls-3" d="M1021.62,219.18l2,.31-.68-.11Z"/><path class="cls-3" d="M1019.38,218.79l2.24.39-.65-.13Z"/><path class="cls-3" d="M1191.62,8.78c0-2,.06-4.1.06-6.16,0-.88,0-1.75,0-2.62h-1.94Q1190.77,4.35,1191.62,8.78Z"/><path class="cls-3" d="M1023,219.38l.39.06-2.61-.43.2,0Z"/><path class="cls-3" d="M952.63,195.58l-.45-.25Z"/><path class="cls-3" d="M882.33,135l-1.61-2,0,0,1.83,2.29Z"/><path class="cls-3" d="M935.5,185.23q-1.36-.91-2.7-1.84Q934.14,184.32,935.5,185.23Z"/><path class="cls-3" d="M905.16,160.8c-1-1-2.11-2-3.13-3C903,158.77,904.06,159.78,905.16,160.8Z"/><path class="cls-3" d="M902,157.78l-1.74-1.9c-1.55-1.59-3.08-3.22-4.58-4.86C897.87,153.46,900,155.76,902,157.78Z"/><path class="cls-3" d="M1050.1,221.41h3.23a12.65,12.65,0,0,0,2.14.51h.15a10.52,10.52,0,0,1-1.92-.51h3.41c0,.22,0,.38.06.49h.18a2.84,2.84,0,0,0,.13-.48h3.3a10.87,10.87,0,0,1-1.68.46h.2a12.9,12.9,0,0,0,1.83-.46h3.09c-.94.17-1.88.3-2.83.41h.29c1-.1,1.91-.23,2.86-.4h2.78q-1.22.16-2.45.27h.33c.8-.08,1.61-.16,2.41-.26h2q2.66-.18,5.3-.43h-1a133.74,133.74,0,0,0,32.81-8.6h7.11a171.1,171.1,0,0,1-31.12,7.74c1-.14,2.09-.29,3.14-.44a174.93,174.93,0,0,0,28.64-7.3h3.82c1.49-.46,3-.94,4.46-1.44h-4.3A183.32,183.32,0,0,0,1153,193.65h8q-6.59,3.89-13.47,7.29a214.47,214.47,0,0,0,22.82-12.69,213.7,213.7,0,0,0,28-21.83h.6q1.7-1.54,3.37-3.12h-.66a218.43,218.43,0,0,0,27-31.43h1.11q1.33-1.86,2.62-3.76h-1.14q4.36-6.46,8.28-13.26c.8-2.23,1.61-4.49,2.61-6.82a221.16,221.16,0,0,1-12,20.08h-13.35a228.18,228.18,0,0,0,18.42-36.87h14.89q-2.24,5.27-4.74,10.39a49.68,49.68,0,0,1,3.68-5.3q1.16-2.53,2.25-5.09h1.28q.91-2.14,1.77-4.3h-1.27a223.34,223.34,0,0,0,12.14-41.23h1c.29-1.57.55-3.14.8-4.72h-1a228.21,228.21,0,0,0,3.23-38.38c0-.88,0-1.75,0-2.62H1268c0,.87,0,1.75,0,2.62A229.6,229.6,0,0,1,1264.82,41h-16a248.42,248.42,0,0,0,3-38.38c0-.88,0-1.75,0-2.62h-2.24c0,.87,0,1.75,0,2.62A251.13,251.13,0,0,1,1246.59,41h-23.76a286.55,286.55,0,0,0,2.56-38.38c0-.88,0-1.75,0-2.62h-3c0,.87,0,1.75,0,2.62A291.71,291.71,0,0,1,1219.85,41h-25.07c0,.52,0,1,0,1.55,0,1.06,0,2.11,0,3.17h24.42a273.36,273.36,0,0,1-9.45,41.23h-21.39q-.62,2.16-1.29,4.3h21.3a246.43,246.43,0,0,1-15.63,36.87H1170.9q-1.08,1.89-2.2,3.76h22a213.23,213.23,0,0,1-21,31.43h-20.9q4.89-7.43,9.32-15.63-4.35,5.83-9.1,11.24c-.9,1.48-1.8,3-2.73,4.39H1145q-1.48,1.58-3,3.12h2.22A163.39,163.39,0,0,1,1124,191.31h-13.79q-2.11,1.22-4.24,2.34h15.64a115,115,0,0,1-23.2,17.29h-11.33a89.72,89.72,0,0,0,15.44-15.54q-1.57.77-3.15,1.49a85.9,85.9,0,0,1-13.61,14h-12.59a68.32,68.32,0,0,0,4.09-6.76l-2,.39a68.84,68.84,0,0,1-3.53,6.37h-13.45c.07-1.46.13-3.08.2-4.81l-1.79,0c0,1.74.06,3.36.08,4.83h-13.9a70.86,70.86,0,0,1-3.83-7.09q-1.12-.26-2.23-.56a70,70,0,0,0,4.54,7.64h-13.17a90.63,90.63,0,0,1-16.35-17.29h2.09q-1.9-1.12-3.79-2.34-2.24-1.45-4.35-3c.71,1,1.42,2,2.15,3H989.3a164,164,0,0,1-20.57-24.89h15q-1.19-1.54-2.36-3.12h-14.7a222.72,222.72,0,0,1-16.91-31.43h11.8l-2.18-3.76H948.12a281.92,281.92,0,0,1-12.59-36.87h1q-3.24-4.69-6.79-9.45.62,2.59,1.29,5.15H903a270.82,270.82,0,0,1-9.56-41.23h4.37c-1.64-1.57-3.32-3.14-5-4.72q-1.72-1.57-3.31-3.17c.13,1.06.26,2.12.41,3.17h-23a249.89,249.89,0,0,1-2.95-38.38c0-.88,0-1.75,0-2.62h-2.15c0,.87,0,1.75,0,2.62a247.21,247.21,0,0,0,3,38.38H849.49a229.44,229.44,0,0,1-3.22-38.38c0-.88,0-1.75,0-2.62h-1.25c0,.87,0,1.75,0,2.62A228,228,0,0,0,848.27,41H842.6c.25,1.58.51,3.15.8,4.72h5.73a223.34,223.34,0,0,0,12.14,41.23h-6q.87,2.16,1.77,4.3h6a221.42,221.42,0,0,0,20.09,36.87h-5.63q-5.81-8.34-10.85-17.23,4.05,7.32,8.65,14.29c.66,1,1.32,2,2,2.95h0q1.29,1.89,2.62,3.76H880c.77,1.05,1.55,2.09,2.34,3.13,1.1,1.36,2.25,2.76,3.44,4.19q-2.86-3.6-5.58-7.31h5.54a218.53,218.53,0,0,0,27,31.43H908q-5.62-5.24-10.87-10.86c1.06,1.19,2.1,2.34,3.11,3.45q3.63,3.72,7.43,7.26c1.88,1.69,3.85,3.41,5.85,5.11-.7-.61-1.41-1.22-2.1-1.84H916a213.38,213.38,0,0,0,32.82,24.89h-3.5a219.33,219.33,0,0,1-22.58-15.47l3,2.4a219.71,219.71,0,0,0,19.46,13.07h-.09q2,1.19,4,2.34h.08a218.11,218.11,0,0,0,38.9,17.29h0l5,1.44h1.58a205,205,0,0,0,35.73,7.94l.59.06a202.8,202.8,0,0,1-35.95-8h4.57a176,176,0,0,0,38,8.58c2.36.18,4.74.34,7.08.48l-.41,0h2.34q1.4.17,2.81.3l.57,0c-1-.09-2.07-.19-3.1-.32h2.82q1.92.33,3.85.49h.35C1052.67,221.8,1051.38,221.64,1050.1,221.41Zm67.7-10.46h-7.6A151.25,151.25,0,0,0,1140,193.65h11.88A180.38,180.38,0,0,1,1117.8,210.94Zm47.1-19.63h-8.31a198.29,198.29,0,0,0,30.09-24.89h10.83A212.17,212.17,0,0,1,1164.89,191.31Zm62.7-59.43a218.09,218.09,0,0,1-26.81,31.43H1189.7a214.51,214.51,0,0,0,24.74-31.43ZM1248,45.72h16a224.38,224.38,0,0,1-12.06,41.23h-15A238.88,238.88,0,0,0,1248,45.72Zm-25.86,0h23.66a241,241,0,0,1-11,41.23h-22.28A269,269,0,0,0,1222.15,45.72Zm-11,45.53h22.08a229.24,229.24,0,0,1-18.2,36.87h-19.79A244.11,244.11,0,0,0,1211.11,91.25Zm-18,40.63h19.5a214.21,214.21,0,0,1-24.45,31.43h-16.43A213,213,0,0,0,1193.14,131.88Zm-8,34.55a196.55,196.55,0,0,1-29.74,24.89h-12.32a179.79,179.79,0,0,0,26-24.89Zm-38.49,0h20.43a178,178,0,0,1-25.54,24.89h-15.68A164.36,164.36,0,0,0,1146.69,166.42Zm-23.27,27.23h15.11a147.91,147.91,0,0,1-29.29,17.29h-9.67A118,118,0,0,0,1123.42,193.65Zm-17.56,18.73a129.48,129.48,0,0,1-32.22,8.6h-3.05a90.35,90.35,0,0,0,26.23-8.6Zm-10.12,0a86.22,86.22,0,0,1-25.51,8.6h-3.58a51.86,51.86,0,0,0,18.49-8.6Zm-23.6,0h11.77a48.58,48.58,0,0,1-17.67,8.6h-4C1065.66,219.52,1069,216.61,1072.13,212.38Zm-13.92,0h12.57c-2.88,4.23-5.89,7.14-9,8.6h-4.25C1057.78,219.52,1058,216.61,1058.21,212.38Zm-1.41,0c.09,4.23.18,7.14.28,8.6h-4.39c-3.06-1.46-6-4.37-8.88-8.6Zm-47.09-18.73a92.54,92.54,0,0,0,17.12,17.29h-11.49a116.81,116.81,0,0,1-23.59-17.29Zm-19.78,0a119.94,119.94,0,0,0,24.24,17.29h-9.55A150,150,0,0,1,975,193.65Zm-2.51-2.34H971.93a179,179,0,0,1-25.83-24.89h20.18A165,165,0,0,0,987.42,191.31Zm-43.29-24.89a180.89,180.89,0,0,0,26.29,24.89H958.5a197.25,197.25,0,0,1-29.89-24.89Zm-18.55-3.12A214.33,214.33,0,0,1,901,131.88h18.86a213,213,0,0,0,21.61,31.43Zm38.56,0H943.5a213.09,213.09,0,0,1-21.24-31.43h24.51A220.81,220.81,0,0,0,964.16,163.31Zm-32-72.06a276.49,276.49,0,0,0,12.94,36.87H920.22a245.14,245.14,0,0,1-15.81-36.87ZM917.8,128.12H898.65a228.65,228.65,0,0,1-18.3-36.87h21.36A242.88,242.88,0,0,0,917.8,128.12Zm-27.24-82.4a266.65,266.65,0,0,0,9.73,41.23H878.73a240.12,240.12,0,0,1-11.06-41.23ZM862.42,86.95a224.32,224.32,0,0,1-12.07-41.23h15.21a238,238,0,0,0,11.19,41.23Zm21.74,41.17a221.62,221.62,0,0,1-20-36.87h14.19a227.73,227.73,0,0,0,18.5,36.87Zm29.41,35.19a218.21,218.21,0,0,1-26.83-31.43h12.54a214.71,214.71,0,0,0,24.85,31.43Zm3.29,3.12h10.32a199.07,199.07,0,0,0,30.23,24.89h-7.92A212.32,212.32,0,0,1,916.86,166.42Zm71.37,44.52a217.76,217.76,0,0,1-38.86-17.29h3.38a207.65,207.65,0,0,0,37.64,17.29Zm2.55,0a205.91,205.91,0,0,1-37.42-17.29H961a184.47,184.47,0,0,0,34.67,17.29Zm5.56,0a181.71,181.71,0,0,1-34.29-17.29h11.49a153.25,153.25,0,0,0,30.14,17.29ZM1038,221a172.41,172.41,0,0,1-37.71-8.6h6.88a136.29,136.29,0,0,0,33.15,8.6Zm2.61,0a132.09,132.09,0,0,1-32.58-8.6H1017a92.89,92.89,0,0,0,26.66,8.6Zm3.38,0a88.68,88.68,0,0,1-25.94-8.6h10.74a53.22,53.22,0,0,0,18.83,8.6Zm4.06,0a49.8,49.8,0,0,1-18-8.6h12.31c3.16,4.23,6.44,7.14,9.83,8.6Z"/><path class="cls-3" d="M1050,221.73l-.57,0-4.75-.26c-2.34-.14-4.72-.3-7.08-.48s-4.44-.37-6.6-.58l-.59-.06c-2-.21-3.92-.44-5.77-.69l-.79-.11-.23,0-2-.31-2.24-.39-.29-.05-.31-.06-1.33-.25c-5.23-1-11-2.44-16.55-3.92-2.66-.71-5.26-1.43-7.76-2.13l-5-1.44-.27-.08q-2-.68-4.07-1.4a218.26,218.26,0,0,1-27.42-11.91q-1.88-1-3.73-2l-.45-.25q-1.51-.83-3-1.67-2-1.15-4-2.34l-.29-.17q-1.9-1.13-3.77-2.31L939.7,188q-1.37-.87-2.73-1.76l-1.47-1q-1.36-.91-2.7-1.84l-1.3-.9q-2-1.37-3.89-2.78l-1.85-1.47-3-2.4c-3-2.4-6.12-5-9.19-7.58-2-1.7-4-3.42-5.85-5.11q-1.31-1.18-2.56-2.35c-1.1-1-2.15-2-3.13-3-2-2-4.16-4.32-6.32-6.75-4.5-5.06-9.12-10.69-13.12-15.69L880.76,133a214.62,214.62,0,0,0,173.13,88.86h-.27Z"/><path class="cls-3" d="M931.5,182.5q-2-1.37-3.89-2.78Q929.53,181.13,931.5,182.5Z"/><path class="cls-3" d="M939.7,188,937,186.21Q938.33,187.1,939.7,188Z"/><path class="cls-3" d="M944.84,191.14q-1.9-1.13-3.77-2.31Q942.94,190,944.84,191.14Z"/><path class="cls-3" d="M1191.62,8.78q-.84-4.43-1.9-8.78H1188c0,.87,0,1.75,0,2.62A367.05,367.05,0,0,1,1186,41h-35.43c1-12.46,1.45-25.29,1.45-38.38,0-.88,0-1.75,0-2.62h-4.2c0,.87,0,1.75,0,2.62,0,13.09-.47,25.92-1.38,38.38h-39.35c.51-12.46.77-25.29.77-38.38,0-.88,0-1.75,0-2.62h-4.57c0,.87,0,1.75,0,2.62,0,13.09-.24,25.92-.7,38.38h-42c0-12.46.05-25.29.05-38.38,0-.88,0-1.75,0-2.62h-4.78V2.62c0,13.09,0,25.92,0,38.38h-43.46c-.46-12.46-.69-25.29-.69-38.38,0-.88,0-1.75,0-2.62h-4.84c0,.87,0,1.75,0,2.62,0,13.09.26,25.92.77,38.38H966.44C965.51,28.54,965,15.71,965,2.62c0-.88,0-1.75,0-2.62h-4.3c0,.87,0,1.75,0,2.62,0,13.09.5,25.92,1.47,38.38H926.27a361.32,361.32,0,0,1-2-38.38c0-.88,0-1.75,0-2.62h-3.68c0,.87,0,1.75,0,2.62A351.63,351.63,0,0,0,922.65,41H892.78c1.73,1.57,3.4,3.15,5,4.72H923.2a324.51,324.51,0,0,0,6.53,36.08q3.55,4.76,6.79,9.45h32.4a359.54,359.54,0,0,0,9.13,36.87H959.37l2.18,3.76h17.69a258.87,258.87,0,0,0,12.27,31.43H981.36q1.16,1.58,2.36,3.12H993a169.09,169.09,0,0,0,12.78,21.89q2.11,1.54,4.35,3a165.47,165.47,0,0,1-14.26-24.89h27.82a227,227,0,0,0,7.79,24.89h-21.35q1.89,1.23,3.79,2.34h18.49q2.14,5.27,4.4,9.65,1.11.3,2.23.56-2.18-4.59-4.25-10.2h21.73q.08,7,.17,12.46l1.79,0q.21-5.41.4-12.48h21a115.8,115.8,0,0,1-4.64,10.92l2-.39a111.62,111.62,0,0,0,4.89-10.53h19.68c-.81,1.11-1.63,2.19-2.46,3.24q1.58-.72,3.15-1.49c.46-.58.92-1.16,1.38-1.75H1106q2.14-1.13,4.24-2.34h-4.58a164.39,164.39,0,0,0,14.66-24.89H1142q1.52-1.54,3-3.12h-23.25a262,262,0,0,0,12.06-31.43h29.08a228.43,228.43,0,0,1-13.91,27q4.74-5.4,9.1-11.24,4.1-7.6,7.78-15.8h2.82q1.12-1.87,2.2-3.76h-3.37a279.43,279.43,0,0,0,12.73-36.87H1187q.67-2.14,1.29-4.3h-7a327,327,0,0,0,7.7-41.23h5.68c0-1.06,0-2.11,0-3.17,0-.52,0-1,0-1.55h-5.16C1190.76,30.5,1191.43,19.74,1191.62,8.78ZM1056.06,128.12h-36.2c-1.67-11.53-3.12-23.87-4.31-36.87h40.38C1056,104.25,1056,116.59,1056.06,128.12Zm-.23-82.4c0,14.29,0,28.09.08,41.23h-40.75c-1.14-13.15-2-26.94-2.61-41.23ZM934.42,86.95a330.37,330.37,0,0,1-7.61-41.23h35.78c1.25,14.29,3.11,28.09,5.52,41.23Zm32.39-41.23h41c.65,14.29,1.63,28.09,2.88,41.23H972.09C969.78,73.8,968,60,966.81,45.72Zm6.05,45.53h38.26c1.32,13,2.92,25.34,4.77,36.87h-34.3A373.51,373.51,0,0,1,972.86,91.25Zm21.58,72.06a266.36,266.36,0,0,1-11.72-31.43h33.79c1.9,11.35,4,21.87,6.41,31.43Zm26-31.43h35.66c.05,11.35.11,21.87.18,31.43h-30.05C1024.08,153.75,1022.14,143.23,1020.42,131.88ZM1034,191.31a245,245,0,0,1-7-24.89h29.36c.07,9.33.14,17.68.22,24.89Zm72.92-145.59h39.19c-1.18,14.29-2.92,28.09-5.19,41.23H1104C1105.25,73.8,1106.22,60,1106.88,45.72Zm-46.36,0h41.87c-.6,14.29-1.49,28.09-2.64,41.23h-39.43C1060.42,73.8,1060.48,60,1060.52,45.72Zm-.22,45.53h39.07c-1.21,13-2.67,25.34-4.36,36.87h-35C1060.11,116.59,1060.21,104.25,1060.3,91.25Zm-.36,40.63h34.51c-1.74,11.35-3.7,21.87-5.86,31.43h-29.08C1059.67,153.75,1059.82,143.23,1059.94,131.88Zm20.81,59.43h-21.81c.19-7.21.36-15.56.52-24.89h28.41A243,243,0,0,1,1080.75,191.31Zm22.74,0h-20.41a226.19,226.19,0,0,0,7.83-24.89h26.59A166.25,166.25,0,0,1,1103.49,191.31Zm15.43-28h-27.21c2.37-9.55,4.53-20.08,6.44-31.43h32.3A269.38,269.38,0,0,1,1118.92,163.31Zm12.63-35.19h-32.78c1.86-11.53,3.47-23.87,4.79-36.87h36.57C1137.75,104.25,1134.87,116.59,1131.55,128.12Zm33,0H1135a364.92,364.92,0,0,0,9-36.87h32.92A285,285,0,0,1,1164.51,128.12ZM1178,86.95h-33.23c2.37-13.15,4.2-26.94,5.42-41.23h35.28A335.19,335.19,0,0,1,1178,86.95Z"/><path class="cls-4" d="M1191.62,8.78q-.84-4.43-1.9-8.78H1188c0,.87,0,1.75,0,2.62A367.05,367.05,0,0,1,1186,41h-35.43c1-12.46,1.45-25.29,1.45-38.38,0-.88,0-1.75,0-2.62h-4.2c0,.87,0,1.75,0,2.62,0,13.09-.47,25.92-1.38,38.38h-39.35c.51-12.46.77-25.29.77-38.38,0-.88,0-1.75,0-2.62h-4.57c0,.87,0,1.75,0,2.62,0,13.09-.24,25.92-.7,38.38h-42c0-12.46.05-25.29.05-38.38,0-.88,0-1.75,0-2.62h-4.78V2.62c0,13.09,0,25.92,0,38.38h-43.46c-.46-12.46-.69-25.29-.69-38.38,0-.88,0-1.75,0-2.62h-4.84c0,.87,0,1.75,0,2.62,0,13.09.26,25.92.77,38.38H966.44C965.51,28.54,965,15.71,965,2.62c0-.88,0-1.75,0-2.62h-4.3c0,.87,0,1.75,0,2.62,0,13.09.5,25.92,1.47,38.38H926.27a361.32,361.32,0,0,1-2-38.38c0-.88,0-1.75,0-2.62h-3.68c0,.87,0,1.75,0,2.62A351.63,351.63,0,0,0,922.65,41H892.78c1.73,1.57,3.4,3.15,5,4.72H923.2a324.51,324.51,0,0,0,6.53,36.08q3.55,4.76,6.79,9.45h32.4a359.54,359.54,0,0,0,9.13,36.87H959.37l2.18,3.76h17.69a258.87,258.87,0,0,0,12.27,31.43H981.36q1.16,1.58,2.36,3.12H993a169.09,169.09,0,0,0,12.78,21.89q2.11,1.54,4.35,3a165.47,165.47,0,0,1-14.26-24.89h27.82a227,227,0,0,0,7.79,24.89h-21.35q1.89,1.23,3.79,2.34h18.49q2.14,5.27,4.4,9.65,1.11.3,2.23.56-2.18-4.59-4.25-10.2h21.73q.08,7,.17,12.46l1.79,0q.21-5.41.4-12.48h21a115.8,115.8,0,0,1-4.64,10.92l2-.39a111.62,111.62,0,0,0,4.89-10.53h19.68c-.81,1.11-1.63,2.19-2.46,3.24q1.58-.72,3.15-1.49c.46-.58.92-1.16,1.38-1.75H1106q2.14-1.13,4.24-2.34h-4.58a164.39,164.39,0,0,0,14.66-24.89H1142q1.52-1.54,3-3.12h-23.25a262,262,0,0,0,12.06-31.43h29.08a228.43,228.43,0,0,1-13.91,27q4.74-5.4,9.1-11.24,4.1-7.6,7.78-15.8h2.82q1.12-1.87,2.2-3.76h-3.37a279.43,279.43,0,0,0,12.73-36.87H1187q.67-2.14,1.29-4.3h-7a327,327,0,0,0,7.7-41.23h5.68c0-1.06,0-2.11,0-3.17,0-.52,0-1,0-1.55h-5.16C1190.76,30.5,1191.43,19.74,1191.62,8.78ZM1056.06,128.12h-36.2c-1.67-11.53-3.12-23.87-4.31-36.87h40.38C1056,104.25,1056,116.59,1056.06,128.12Zm-.23-82.4c0,14.29,0,28.09.08,41.23h-40.75c-1.14-13.15-2-26.94-2.61-41.23ZM934.42,86.95a330.37,330.37,0,0,1-7.61-41.23h35.78c1.25,14.29,3.11,28.09,5.52,41.23Zm32.39-41.23h41c.65,14.29,1.63,28.09,2.88,41.23H972.09C969.78,73.8,968,60,966.81,45.72Zm6.05,45.53h38.26c1.32,13,2.92,25.34,4.77,36.87h-34.3A373.51,373.51,0,0,1,972.86,91.25Zm21.58,72.06a266.36,266.36,0,0,1-11.72-31.43h33.79c1.9,11.35,4,21.87,6.41,31.43Zm26-31.43h35.66c.05,11.35.11,21.87.18,31.43h-30.05C1024.08,153.75,1022.14,143.23,1020.42,131.88ZM1034,191.31a245,245,0,0,1-7-24.89h29.36c.07,9.33.14,17.68.22,24.89Zm72.92-145.59h39.19c-1.18,14.29-2.92,28.09-5.19,41.23H1104C1105.25,73.8,1106.22,60,1106.88,45.72Zm-46.36,0h41.87c-.6,14.29-1.49,28.09-2.64,41.23h-39.43C1060.42,73.8,1060.48,60,1060.52,45.72Zm-.22,45.53h39.07c-1.21,13-2.67,25.34-4.36,36.87h-35C1060.11,116.59,1060.21,104.25,1060.3,91.25Zm-.36,40.63h34.51c-1.74,11.35-3.7,21.87-5.86,31.43h-29.08C1059.67,153.75,1059.82,143.23,1059.94,131.88Zm20.81,59.43h-21.81c.19-7.21.36-15.56.52-24.89h28.41A243,243,0,0,1,1080.75,191.31Zm22.74,0h-20.41a226.19,226.19,0,0,0,7.83-24.89h26.59A166.25,166.25,0,0,1,1103.49,191.31Zm15.43-28h-27.21c2.37-9.55,4.53-20.08,6.44-31.43h32.3A269.38,269.38,0,0,1,1118.92,163.31Zm12.63-35.19h-32.78c1.86-11.53,3.47-23.87,4.79-36.87h36.57C1137.75,104.25,1134.87,116.59,1131.55,128.12Zm33,0H1135a364.92,364.92,0,0,0,9-36.87h32.92A285,285,0,0,1,1164.51,128.12ZM1178,86.95h-33.23c2.37-13.15,4.2-26.94,5.42-41.23h35.28A335.19,335.19,0,0,1,1178,86.95Z"/><path class="cls-3" d="M890.26,0h-3c0,.87,0,1.75,0,2.62a284.08,284.08,0,0,0,2.19,35.21q1.6,1.6,3.31,3.17a288.77,288.77,0,0,1-2.55-38.38C890.24,1.75,890.26.87,890.26,0Z"/><path class="cls-4" d="M890.26,0h-3c0,.87,0,1.75,0,2.62a284.08,284.08,0,0,0,2.19,35.21q1.6,1.6,3.31,3.17a288.77,288.77,0,0,1-2.55-38.38C890.24,1.75,890.26.87,890.26,0Z"/><path class="cls-5" d="M1046.66,221.41h-2.34l.41,0,4.75.26Q1048.07,221.58,1046.66,221.41Z"/><path class="cls-6" d="M1049.77,221.41h-2.82c1,.13,2.06.23,3.1.32l3.57.17Q1051.68,221.74,1049.77,221.41Z"/><path class="cls-7" d="M1054.83,221.92h-.76l3.15.13a11.9,11.9,0,0,1-1.75-.14Z"/><path class="cls-7" d="M1050.1,221.41c1.28.23,2.57.4,3.87.5h1.5a12.65,12.65,0,0,1-2.14-.51Z"/><path class="cls-8" d="M1055.62,221.91a9.76,9.76,0,0,0,1.6.14s0-.05-.05-.16Z"/><path class="cls-8" d="M1053.7,221.41a10.52,10.52,0,0,0,1.92.51l1.55,0c0-.11,0-.27-.06-.49Z"/><path class="cls-8" d="M1057.35,221.89c0,.11-.09.16-.13.16a10,10,0,0,0,1.88-.18Z"/><path class="cls-8" d="M1057.48,221.41a2.84,2.84,0,0,1-.13.48l1.75,0a10.87,10.87,0,0,0,1.68-.46Z"/><path class="cls-8" d="M1059.3,221.87a12,12,0,0,1-2.08.19,38.24,38.24,0,0,0,4.17-.24Z"/><path class="cls-8" d="M1061.13,221.41a12.9,12.9,0,0,1-1.83.46l2.09-.05c.95-.1,1.89-.23,2.83-.41Z"/><path class="cls-8" d="M1061.69,221.8a41.86,41.86,0,0,1-4.47.25q3.85,0,7.65-.37Z"/><path class="cls-8" d="M1064.55,221.41c-.95.17-1.9.29-2.86.4l3.19-.12q1.23-.12,2.45-.27Z"/><path class="cls-8" d="M1069.62,221.41c-1.47.1-2.94.19-4.42.26q-4,.38-8,.38c1.09,0,2.17,0,3.25,0q4.79-.12,9.51-.6Z"/><path class="cls-8" d="M1065.2,221.67c1.48-.07,2.95-.16,4.42-.26h-2C1066.81,221.51,1066,221.59,1065.2,221.67Z"/><path class="cls-8" d="M1070.21,221.41q-4.79.48-9.65.6h.79q5.4-.13,10.72-.59Z"/><path class="cls-8" d="M1072.25,221.41q-5.37.46-10.81.59h.62l2-.06,2.49-.1c2.33-.11,4.65-.24,7-.43Z"/><path class="cls-8" d="M1070.59,221.61c1-.06,2.06-.12,3.08-.2h-.06Z"/><path class="cls-8" d="M1067.38,221.8l1.44-.07.43,0-2.43.12Z"/><path class="cls-8" d="M1062.22,222l1.46,0h.24l-1.81.05Z"/><path class="cls-9" d="M1023,219.38l.68.11.23,0-.52-.08Z"/><path class="cls-9" d="M1018.79,218.68l-1.33-.25Z"/><path class="cls-9" d="M1021,219.05l.65.13,1.37.2Z"/><path class="cls-9" d="M1020.78,219l-1.69-.27.29.05,1.6.26Z"/><path class="cls-10" d="M1020.78,219l2.61.43,1.3.19c1.85.25,3.78.48,5.77.69a205,205,0,0,1-35.73-7.94h-1.58c2.49.7,5.1,1.43,7.76,2.13C1007.56,216.16,1014.76,217.83,1020.78,219Z"/><path class="cls-10" d="M1000.91,214.51c5.56,1.48,11.31,2.89,16.55,3.92l1.33.25.31.06,1.69.27C1014.76,217.83,1007.56,216.16,1000.91,214.51Z"/><path class="cls-10" d="M1023.9,219.52l.79.11-1.3-.19Z"/><path class="cls-11" d="M999.66,212.38H995.1a202.8,202.8,0,0,0,35.95,8c2.16.22,4.37.41,6.6.58A176,176,0,0,1,999.66,212.38Z"/><path class="cls-12" d="M1000.3,212.38A172.41,172.41,0,0,0,1038,221h2.32a136.29,136.29,0,0,1-33.15-8.6Z"/><path class="cls-13" d="M1008,212.38a132.09,132.09,0,0,0,32.58,8.6h3a92.89,92.89,0,0,1-26.66-8.6Z"/><path class="cls-14" d="M1018.06,212.38A88.68,88.68,0,0,0,1044,221h3.63a53.22,53.22,0,0,1-18.83-8.6Z"/><path class="cls-15" d="M1042.38,212.38h-12.31a49.8,49.8,0,0,0,18,8.6h4.16C1048.83,219.52,1045.54,216.61,1042.38,212.38Z"/><path class="cls-7" d="M1052.69,221h4.39c-.09-1.46-.19-4.37-.28-8.6h-13C1046.66,216.61,1049.63,219.52,1052.69,221Z"/><path class="cls-16" d="M1070.79,212.38h-12.57c-.21,4.23-.43,7.14-.66,8.6h4.25C1064.9,219.52,1067.9,216.61,1070.79,212.38Z"/><path class="cls-8" d="M1062.26,221h4a48.58,48.58,0,0,0,17.67-8.6h-11.77C1069,216.61,1065.66,219.52,1062.26,221Z"/><path class="cls-8" d="M1070.22,221a86.22,86.22,0,0,0,25.51-8.6h-10.6a51.86,51.86,0,0,1-18.49,8.6Z"/><path class="cls-8" d="M1073.64,221a129.48,129.48,0,0,0,32.22-8.6h-9a90.35,90.35,0,0,1-26.23,8.6Z"/><path class="cls-8" d="M1076.34,221c2.14-.24,4.27-.54,6.4-.86-2.59.34-5.2.62-7.82.86Z"/><path class="cls-8" d="M1106.75,212.38a133.74,133.74,0,0,1-32.81,8.6h1c2.62-.24,5.23-.52,7.82-.86a171.1,171.1,0,0,0,31.12-7.74Z"/><path class="cls-8" d="M1076.56,221h1.62a202.57,202.57,0,0,0,41.13-8.6h-1a213.63,213.63,0,0,1-32.46,7.3Q1081.25,220.45,1076.56,221Z"/><path class="cls-8" d="M1085.88,219.68a213.63,213.63,0,0,0,32.46-7.3h-3.82A174.93,174.93,0,0,1,1085.88,219.68Z"/><path class="cls-8" d="M1078.31,221h.17l.38,0c.91-.09,1.81-.2,2.71-.31s1.79-.2,2.69-.31,1.77-.25,2.65-.37,1.8-.25,2.7-.39,1.74-.29,2.61-.43,1.8-.29,2.7-.46,1.7-.33,2.55-.49,1.81-.34,2.71-.53l2.51-.55c.9-.2,1.81-.39,2.71-.6l2.46-.61c.91-.22,1.81-.44,2.72-.68l2.4-.66c.91-.25,1.82-.49,2.72-.75l2.35-.71,2.36-.72h-.72A204.93,204.93,0,0,1,1078.31,221Z"/><path class="cls-17" d="M952.63,195.58q1.86,1,3.73,2a218.26,218.26,0,0,0,27.42,11.91q2,.72,4.07,1.4l.27.08h0a218.11,218.11,0,0,1-38.9-17.29h-.08q1.5.85,3,1.67Z"/><path class="cls-18" d="M949.37,193.65a217.76,217.76,0,0,0,38.86,17.29h2.16a207.65,207.65,0,0,1-37.64-17.29Z"/><path class="cls-19" d="M953.36,193.65a205.91,205.91,0,0,0,37.42,17.29h4.89A184.47,184.47,0,0,1,961,193.65Z"/><path class="cls-20" d="M973.55,193.65H962.05a181.71,181.71,0,0,0,34.29,17.29h7.35A153.25,153.25,0,0,1,973.55,193.65Z"/><path class="cls-21" d="M1004.62,210.94h9.55a119.94,119.94,0,0,1-24.24-17.29H975A150,150,0,0,0,1004.62,210.94Z"/><path class="cls-15" d="M1026.83,210.94a92.54,92.54,0,0,1-17.12-17.29h-18a116.81,116.81,0,0,0,23.59,17.29Z"/><path class="cls-22" d="M1011.83,193.65a90.63,90.63,0,0,0,16.35,17.29h13.17a70,70,0,0,1-4.54-7.64,90.72,90.72,0,0,1-22.89-9.65Z"/><path class="cls-22" d="M1013.92,193.65a90.72,90.72,0,0,0,22.89,9.65q-2.26-4.37-4.4-9.65Z"/><path class="cls-6" d="M1042.88,210.94h13.9c0-1.47-.06-3.09-.08-4.83a85,85,0,0,1-17.65-2.25A70.86,70.86,0,0,0,1042.88,210.94Z"/><path class="cls-6" d="M1034.8,193.65q2.06,5.62,4.25,10.2a85,85,0,0,0,17.65,2.25q-.09-5.41-.17-12.46Z"/><path class="cls-16" d="M1058.28,210.94h13.45a68.84,68.84,0,0,0,3.53-6.37,90.59,90.59,0,0,1-16.78,1.56C1058.42,207.87,1058.35,209.48,1058.28,210.94Z"/><path class="cls-16" d="M1058.88,193.65q-.19,7.06-.4,12.48a90.59,90.59,0,0,0,16.78-1.56,115.8,115.8,0,0,0,4.64-10.92Z"/><path class="cls-8" d="M1073.17,210.94h12.59a85.9,85.9,0,0,0,13.61-14,106.29,106.29,0,0,1-22.11,7.29A68.32,68.32,0,0,1,1073.17,210.94Z"/><path class="cls-8" d="M1082.15,193.65a111.62,111.62,0,0,1-4.89,10.53,106.29,106.29,0,0,0,22.11-7.29c.83-1.05,1.65-2.13,2.46-3.24Z"/><path class="cls-8" d="M1087.08,210.94h11.33a115,115,0,0,0,23.2-17.29H1106q-1.72.91-3.46,1.75A89.72,89.72,0,0,1,1087.08,210.94Z"/><path class="cls-8" d="M1102.52,195.41q1.74-.85,3.46-1.75h-2.08C1103.44,194.25,1103,194.83,1102.52,195.41Z"/><path class="cls-8" d="M1138.54,193.65h-15.11a118,118,0,0,1-23.85,17.29h9.67A147.91,147.91,0,0,0,1138.54,193.65Z"/><path class="cls-23" d="M1110.2,210.94h7.6a180.38,180.38,0,0,0,34.11-17.29H1140A151.25,151.25,0,0,1,1110.2,210.94Z"/><path class="cls-8" d="M1123.63,210.94a204.7,204.7,0,0,0,23.92-10,213.5,213.5,0,0,1-24.75,10Z"/><path class="cls-8" d="M1153,193.65a183.32,183.32,0,0,1-34.51,17.29h4.3a213.5,213.5,0,0,0,24.75-10q6.88-3.4,13.47-7.29Z"/><path class="cls-8" d="M1124,210.94h.75l.68-.22,2.4-.85,2.56-.92,2.39-.91,2.51-1,2.38-1,2.47-1,2.36-1,2.43-1.09,2.32-1.09,2.41-1.15,2.29-1.15,2.37-1.21,2.26-1.2,2.34-1.26,2.22-1.25,1.7-1h-1.21A207.56,207.56,0,0,1,1124,210.94Z"/><path class="cls-24" d="M931.5,182.5l1.3.9q1.35.93,2.7,1.84l1.47,1L939.7,188l1.37.87q1.87,1.17,3.77,2.31l.29.17h.09a219.71,219.71,0,0,1-19.46-13.07l1.85,1.47Q929.53,181.13,931.5,182.5Z"/><path class="cls-25" d="M945.34,191.31h3.5A213.38,213.38,0,0,1,916,166.42h-4.56c.69.62,1.4,1.22,2.1,1.84,3.07,2.61,6.21,5.19,9.19,7.58A219.33,219.33,0,0,0,945.34,191.31Z"/><path class="cls-25" d="M957.4,191.31a199.07,199.07,0,0,1-30.23-24.89H916.86a212.32,212.32,0,0,0,32.63,24.89Z"/><path class="cls-21" d="M970.42,191.31a180.89,180.89,0,0,1-26.29-24.89H928.61a197.25,197.25,0,0,0,29.89,24.89Z"/><path class="cls-21" d="M971.93,191.31h15.49a165,165,0,0,1-21.14-24.89H946.11A179,179,0,0,0,971.93,191.31Z"/><path class="cls-26" d="M983.72,166.42h-15a164,164,0,0,0,20.57,24.89h18.64c-.72-1-1.44-2-2.15-3A109.88,109.88,0,0,1,983.72,166.42Z"/><path class="cls-26" d="M983.72,166.42a109.88,109.88,0,0,0,22.07,21.89A169.09,169.09,0,0,1,993,166.42Z"/><path class="cls-27" d="M1023.7,166.42H995.88a165.47,165.47,0,0,0,14.26,24.89h21.35A227,227,0,0,1,1023.7,166.42Z"/><path class="cls-14" d="M1026.92,166.42a245,245,0,0,0,7,24.89h22.54c-.08-7.21-.15-15.56-.22-24.89Z"/><path class="cls-6" d="M1059.46,166.42c-.16,9.33-.34,17.68-.52,24.89h21.81a243,243,0,0,0,7.12-24.89Z"/><path class="cls-28" d="M1083.08,191.31h20.41a166.25,166.25,0,0,0,14-24.89h-26.59A226.19,226.19,0,0,1,1083.08,191.31Z"/><path class="cls-8" d="M1110.22,191.31H1124a163.39,163.39,0,0,0,20.23-24.89H1142A151.21,151.21,0,0,1,1110.22,191.31Z"/><path class="cls-8" d="M1105.64,191.31h4.58A151.21,151.21,0,0,0,1142,166.42H1120.3A164.39,164.39,0,0,1,1105.64,191.31Z"/><path class="cls-29" d="M1167.11,166.42h-20.43a164.36,164.36,0,0,1-20.79,24.89h15.68A178,178,0,0,0,1167.11,166.42Z"/><path class="cls-8" d="M1143.12,191.31h12.32a196.55,196.55,0,0,0,29.74-24.89h-16.06A179.79,179.79,0,0,1,1143.12,191.31Z"/><path class="cls-8" d="M1156.58,191.31h8.31a212.17,212.17,0,0,0,32.61-24.89h-10.83A198.29,198.29,0,0,1,1156.58,191.31Z"/><path class="cls-23" d="M1170.37,188.25q-2.39,1.56-4.81,3.06h1.26l.82-.5,2.29-1.43,2.13-1.36,2.22-1.46,2.12-1.43,2.15-1.49,2.12-1.5,2.09-1.53,2.09-1.56,2-1.57,2.07-1.62,2-1.61,2-1.68,1.94-1.65,2-1.74,1.89-1.68,1.19-1.08H1199A215.78,215.78,0,0,1,1170.37,188.25Z"/><path class="cls-23" d="M1170.37,188.25A215.78,215.78,0,0,0,1199,166.42h-.6A213.7,213.7,0,0,1,1170.37,188.25Z"/><path class="cls-30" d="M879.9,131.88h-.05l.24.34.63.79Z"/><path class="cls-30" d="M882.33,135c-.79-1-1.57-2.07-2.34-3.13h-.09l.82,1.13Z"/><path class="cls-30" d="M905.16,160.8q1.24,1.16,2.56,2.35-3.8-3.54-7.43-7.26l1.74,1.9C903.05,158.81,904.11,159.8,905.16,160.8Z"/><path class="cls-30" d="M895.71,151c1.51,1.64,3,3.26,4.58,4.86-1-1.11-2-2.26-3.11-3.45q-6-6.39-11.41-13.25c-1.19-1.43-2.34-2.83-3.44-4.19l.25.34C886.59,140.34,891.21,146,895.71,151Z"/><path class="cls-31" d="M908,163.31h4.67a218.53,218.53,0,0,1-27-31.43h-5.54q2.71,3.72,5.58,7.31c3.67,4.41,7.65,9,11.41,13.25Q902.43,158.06,908,163.31Z"/><path class="cls-31" d="M885.77,139.19q5.45,6.85,11.41,13.25C893.43,148.23,889.44,143.6,885.77,139.19Z"/><path class="cls-25" d="M899.28,131.88H886.74a218.21,218.21,0,0,0,26.83,31.43h10.56A214.71,214.71,0,0,1,899.28,131.88Z"/><path class="cls-32" d="M901,131.88a214.33,214.33,0,0,0,24.58,31.43h15.9a213,213,0,0,1-21.61-31.43Z"/><path class="cls-15" d="M943.5,163.31h20.66a220.81,220.81,0,0,1-17.38-31.43H922.27A213.09,213.09,0,0,0,943.5,163.31Z"/><path class="cls-10" d="M949.75,131.88a222.72,222.72,0,0,0,16.91,31.43h14.7c-7-9.5-13.22-20.07-19.81-31.43Z"/><path class="cls-10" d="M979.24,131.88H961.55c6.59,11.36,12.82,21.93,19.81,31.43h10.15A258.87,258.87,0,0,1,979.24,131.88Z"/><path class="cls-33" d="M982.72,131.88a266.36,266.36,0,0,0,11.72,31.43h28.47c-2.36-9.55-4.5-20.08-6.41-31.43Z"/><path class="cls-13" d="M1056.08,131.88h-35.66c1.72,11.35,3.66,21.87,5.79,31.43h30.05C1056.19,153.75,1056.13,143.23,1056.08,131.88Z"/><path class="cls-16" d="M1094.45,131.88h-34.51c-.13,11.35-.27,21.87-.43,31.43h29.08C1090.75,153.75,1092.71,143.23,1094.45,131.88Z"/><path class="cls-34" d="M1091.71,163.31h27.21a269.38,269.38,0,0,0,11.52-31.43h-32.3C1096.23,143.23,1094.07,153.75,1091.71,163.31Z"/><path class="cls-33" d="M1146.28,163.31c.92-1.44,1.83-2.91,2.73-4.39q-2,2.24-4,4.39Z"/><path class="cls-33" d="M1133.84,131.88a262,262,0,0,1-12.06,31.43H1145q2-2.15,4-4.39a228.43,228.43,0,0,0,13.91-27Z"/><path class="cls-8" d="M1148.79,163.31h20.9a213.23,213.23,0,0,0,21-31.43h-22q-4.93,8.2-10.6,15.8Q1153.68,155.86,1148.79,163.31Z"/><path class="cls-8" d="M1158.1,147.67q5.66-7.58,10.6-15.8h-2.82Q1162.22,140.07,1158.1,147.67Z"/><path class="cls-8" d="M1212.64,131.88h-19.5a213,213,0,0,1-21.39,31.43h16.43A214.21,214.21,0,0,0,1212.64,131.88Z"/><path class="cls-8" d="M1189.7,163.31h11.08a218.09,218.09,0,0,0,26.81-31.43h-13.15A214.51,214.51,0,0,1,1189.7,163.31Z"/><path class="cls-8" d="M1202.33,163.31h1l1-.93,1.87-1.82,1.83-1.83,1.83-1.87,1.78-1.87,1.79-1.92,1.73-1.9,1.75-2,1.69-1.95,1.7-2,1.65-2,1.65-2,1.61-2.05,1.59-2.06,1.58-2.11,1.52-2.08.73-1h-.9A216.1,216.1,0,0,1,1202.33,163.31Z"/><path class="cls-8" d="M1201.68,163.31h.66a216.1,216.1,0,0,0,27.43-31.43h-1.11A218.43,218.43,0,0,1,1201.68,163.31Z"/><path class="cls-35" d="M875.3,125.17a219,219,0,0,1-18.75-33.92h-.16l.1.23q1.21,2.73,2.5,5.42l.55,1.14c.88,1.82,1.78,3.63,2.71,5.42s2.05,3.86,3.11,5.77l.53,1q1.54,2.73,3.16,5.41l.63,1q1.66,2.72,3.38,5.39l.35.52q1.66,2.54,3.39,5l.38.55h.11C876.61,127.14,876,126.16,875.3,125.17Z"/><path class="cls-35" d="M877.31,128.12c-.68-1-1.34-2-2-2.95.65,1,1.31,2,2,2.95Z"/><path class="cls-36" d="M866.66,110.88a213.94,213.94,0,0,1-9.6-19.64h-.28A218.91,218.91,0,0,0,866.66,110.88Z"/><path class="cls-36" d="M877.51,128.12h5.63a221.42,221.42,0,0,1-20.09-36.87h-6a213.94,213.94,0,0,0,9.6,19.64Q871.7,119.76,877.51,128.12Z"/><path class="cls-31" d="M878.38,91.25H864.19a221.62,221.62,0,0,0,20,36.87h12.72A227.73,227.73,0,0,1,878.38,91.25Z"/><path class="cls-21" d="M898.65,128.12H917.8a242.88,242.88,0,0,1-16.09-36.87H880.35A228.65,228.65,0,0,0,898.65,128.12Z"/><path class="cls-37" d="M945.11,128.12a276.49,276.49,0,0,1-12.94-36.87H904.42a245.14,245.14,0,0,0,15.81,36.87Z"/><path class="cls-9" d="M935.53,91.25a281.92,281.92,0,0,0,12.59,36.87h11.25c-6.74-11.63-14-24-22.85-36.87Z"/><path class="cls-9" d="M968.92,91.25h-32.4c8.88,12.86,16.11,25.24,22.85,36.87h18.69A359.54,359.54,0,0,1,968.92,91.25Z"/><path class="cls-22" d="M1011.12,91.25H972.86a373.51,373.51,0,0,0,8.73,36.87h34.3C1014,116.59,1012.44,104.25,1011.12,91.25Z"/><path class="cls-16" d="M1019.86,128.12h36.2c-.05-11.53-.1-23.87-.13-36.87h-40.38C1016.74,104.25,1018.19,116.59,1019.86,128.12Z"/><path class="cls-15" d="M1099.37,91.25H1060.3c-.09,13-.2,25.34-.32,36.87h35C1096.7,116.59,1098.17,104.25,1099.37,91.25Z"/><path class="cls-28" d="M1103.56,91.25c-1.33,13-2.94,25.34-4.79,36.87h32.78c3.32-11.53,6.2-23.87,8.58-36.87Z"/><path class="cls-38" d="M1135,128.12h29.52a285,285,0,0,0,12.38-36.87H1144A364.92,364.92,0,0,1,1135,128.12Z"/><path class="cls-28" d="M1192.71,128.12a246.43,246.43,0,0,0,15.63-36.87H1187a188.91,188.91,0,0,1-16.15,36.87Z"/><path class="cls-28" d="M1167.53,128.12h3.37A188.91,188.91,0,0,0,1187,91.25h-6.79A279.43,279.43,0,0,1,1167.53,128.12Z"/><path class="cls-8" d="M1233.19,91.25h-22.08a244.11,244.11,0,0,1-15.92,36.87H1215A229.24,229.24,0,0,0,1233.19,91.25Z"/><path class="cls-39" d="M1250.13,91.25h-14.89a228.18,228.18,0,0,1-18.42,36.87h13.35a221.16,221.16,0,0,0,12-20.08,52.21,52.21,0,0,1,3.25-6.4Q1247.89,96.52,1250.13,91.25Z"/><path class="cls-8" d="M1232.39,128.12h.9l.59-.87a43.38,43.38,0,0,0,3.55-6.87Q1235,124.3,1232.39,128.12Z"/><path class="cls-8" d="M1251.75,93.22c.59-.64,1.2-1.29,1.86-1.94v0h-1C1252.33,91.91,1252,92.56,1251.75,93.22Z"/><path class="cls-8" d="M1231.25,128.12h1.14q2.61-3.81,5-7.74c.76-1.82,1.43-3.66,2.09-5.52Q1235.62,121.65,1231.25,128.12Z"/><path class="cls-8" d="M1245.39,101.64q-1.57,3.24-3.25,6.4c-1,2.33-1.81,4.59-2.61,6.82q5.18-9,9.54-18.52A49.68,49.68,0,0,0,1245.39,101.64Z"/><path class="cls-8" d="M1249.07,96.34q1.22-1.53,2.67-3.12c.29-.66.58-1.31.86-2h-1.28Q1250.23,93.81,1249.07,96.34Z"/><path class="cls-8" d="M1242.14,108q1.67-3.17,3.25-6.4A52.21,52.21,0,0,0,1242.14,108Z"/><path class="cls-40" d="M842.16,45.72H842l.08.41q.59,2.92,1.25,5.8c.1.42.2.83.29,1.24q.62,2.63,1.3,5.24l.21.8q.77,2.87,1.61,5.72l.39,1.31c.58,1.92,1.18,3.84,1.81,5.74q.66,2,1.36,3.95c.14.4.29.8.44,1.2.33.9.65,1.81,1,2.7.19.5.38,1,.58,1.5.3.79.61,1.58.92,2.36.22.55.44,1.09.66,1.63l.67,1.63h.16A217.84,217.84,0,0,1,842.16,45.72Z"/><path class="cls-25" d="M854.93,86.95h.35A213.28,213.28,0,0,1,843.4,45.72h-1A218,218,0,0,0,854.93,86.95Z"/><path class="cls-25" d="M861.27,86.95a223.34,223.34,0,0,1-12.14-41.23H843.4a213.28,213.28,0,0,0,11.89,41.23Z"/><path class="cls-9" d="M865.55,45.72H850.35a224.32,224.32,0,0,0,12.07,41.23h14.32A238,238,0,0,1,865.55,45.72Z"/><path class="cls-21" d="M900.28,86.95a266.65,266.65,0,0,1-9.73-41.23H867.67a240.12,240.12,0,0,0,11.06,41.23Z"/><path class="cls-21" d="M897.83,45.72h-4.37A270.82,270.82,0,0,0,903,86.95h28q-.66-2.56-1.29-5.15A285.93,285.93,0,0,0,897.83,45.72Z"/><path class="cls-21" d="M897.83,45.72a285.93,285.93,0,0,1,31.91,36.08,324.51,324.51,0,0,1-6.53-36.08Z"/><path class="cls-15" d="M926.81,45.72a330.37,330.37,0,0,0,7.61,41.23h33.69C965.7,73.8,963.84,60,962.59,45.72Z"/><path class="cls-15" d="M1007.81,45.72h-41c1.2,14.29,3,28.09,5.28,41.23h38.61C1009.44,73.8,1008.46,60,1007.81,45.72Z"/><path class="cls-16" d="M1055.92,86.95c0-13.15-.06-26.94-.08-41.23h-43.28c.59,14.29,1.47,28.09,2.61,41.23Z"/><path class="cls-41" d="M1102.4,45.72h-41.87c0,14.29-.11,28.09-.19,41.23h39.43C1100.91,73.8,1101.8,60,1102.4,45.72Z"/><path class="cls-14" d="M1146.07,45.72h-39.19c-.66,14.29-1.63,28.09-2.9,41.23h36.9C1143.15,73.8,1144.89,60,1146.07,45.72Z"/><path class="cls-6" d="M1144.77,86.95H1178a335.19,335.19,0,0,0,7.48-41.23h-35.28C1149,60,1147.13,73.8,1144.77,86.95Z"/><path class="cls-42" d="M1209.73,86.95a273.36,273.36,0,0,0,9.45-41.23h-24.42a162.63,162.63,0,0,1-6.42,41.23Z"/><path class="cls-42" d="M1181.39,86.95h7a162.63,162.63,0,0,0,6.42-41.23h-5.68A327,327,0,0,1,1181.39,86.95Z"/><path class="cls-8" d="M1245.82,45.72h-23.66a269,269,0,0,1-9.62,41.23h22.28A241,241,0,0,0,1245.82,45.72Z"/><path class="cls-8" d="M1251.91,86.95A224.38,224.38,0,0,0,1264,45.72h-16a238.88,238.88,0,0,1-11.13,41.23Z"/><path class="cls-8" d="M1254.38,86.95h1c.26-.63.51-1.27.76-1.91.33-.84.67-1.67,1-2.51s.62-1.65.92-2.48.63-1.69.93-2.54.58-1.67.86-2.51.59-1.71.87-2.57.54-1.69.81-2.54.55-1.72.81-2.59.5-1.72.75-2.58.5-1.73.74-2.6.46-1.74.69-2.62.46-1.74.68-2.62.42-1.77.63-2.65.42-1.75.61-2.64.38-1.78.57-2.67.38-1.77.55-2.66c0-.19.07-.38.11-.56h-1.44A213.28,213.28,0,0,1,1254.38,86.95Z"/><path class="cls-8" d="M1253.11,86.95h1.27a213.28,213.28,0,0,0,11.89-41.23h-1A223.34,223.34,0,0,1,1253.11,86.95Z"/><path class="cls-43" d="M837.93,2.62c0-.88,0-1.75,0-2.62h-.18c0,.87,0,1.75,0,2.62a221,221,0,0,0,2.87,35.59c.15.93.32,1.86.48,2.79h.17A221,221,0,0,1,837.93,2.62Z"/><path class="cls-25" d="M840,0h-1.84c0,.87,0,1.75,0,2.62A221.18,221.18,0,0,0,841.51,41h1.09a216.43,216.43,0,0,1-2.69-34C839.91,4.66,840,2.33,840,0Z"/><path class="cls-25" d="M839.91,7a216.43,216.43,0,0,0,2.69,34h5.67A228,228,0,0,1,845,2.62c0-.88,0-1.75,0-2.62h-5C840,2.33,839.91,4.66,839.91,7Z"/><path class="cls-31" d="M846.28,2.62A229.44,229.44,0,0,0,849.49,41h15.27a247.21,247.21,0,0,1-3-38.38c0-.88,0-1.75,0-2.62H846.31C846.3.87,846.28,1.75,846.28,2.62Z"/><path class="cls-21" d="M864,0c0,.87,0,1.75,0,2.62A249.89,249.89,0,0,0,866.89,41h23c-.14-1.05-.27-2.11-.41-3.17-11.62-11.65-18.35-24.52-21-37.83Z"/><path class="cls-21" d="M887.31,0H868.44c2.68,13.32,9.41,26.19,21,37.83a284.08,284.08,0,0,1-2.19-35.21C887.28,1.75,887.3.87,887.31,0Z"/><path class="cls-37" d="M920.57,2.62c0-.88,0-1.75,0-2.62H890.26c0,.87,0,1.75,0,2.62A288.77,288.77,0,0,0,892.78,41h29.87A351.63,351.63,0,0,1,920.57,2.62Z"/><path class="cls-25" d="M924.24,2.62a361.32,361.32,0,0,0,2,38.38H962.2c-1-12.46-1.47-25.29-1.47-38.38,0-.88,0-1.75,0-2.62H924.26C924.26.87,924.24,1.75,924.24,2.62Z"/><path class="cls-18" d="M965,2.62c0,13.09.48,25.92,1.41,38.38h41.17c-.5-12.46-.77-25.29-.77-38.38,0-.88,0-1.75,0-2.62H965C965,.87,965,1.75,965,2.62Z"/><path class="cls-44" d="M1011.68,2.62c0,13.09.24,25.92.69,38.38h43.46c0-12.46,0-25.29,0-38.38V0h-44.12C1011.69.87,1011.68,1.75,1011.68,2.62Z"/><path class="cls-45" d="M1060.59,2.62c0,13.09,0,25.92-.05,38.38h42c.46-12.46.7-25.29.7-38.38,0-.88,0-1.75,0-2.62h-42.69C1060.59.87,1060.59,1.75,1060.59,2.62Z"/><path class="cls-42" d="M1107.86,2.62c0,13.09-.26,25.92-.77,38.38h39.35c.91-12.46,1.38-25.29,1.38-38.38,0-.88,0-1.75,0-2.62h-40C1107.85.87,1107.86,1.75,1107.86,2.62Z"/><path class="cls-45" d="M1152,2.62c0,13.09-.5,25.92-1.45,38.38H1186a367.05,367.05,0,0,0,2-38.38c0-.88,0-1.75,0-2.62h-36C1152,.87,1152,1.75,1152,2.62Z"/><path class="cls-38" d="M1191.67,2.62c0,2.06,0,4.11-.06,6.16A180.33,180.33,0,0,1,1194.78,41h25.07a291.71,291.71,0,0,0,2.52-38.38c0-.88,0-1.75,0-2.62h-30.69C1191.66.87,1191.67,1.75,1191.67,2.62Z"/><path class="cls-38" d="M1189.62,41h5.16a180.33,180.33,0,0,0-3.17-32.22C1191.43,19.74,1190.76,30.5,1189.62,41Z"/><path class="cls-28" d="M1225.4,2.62A286.55,286.55,0,0,1,1222.83,41h23.76a251.13,251.13,0,0,0,2.93-38.38c0-.88,0-1.75,0-2.62h-24.12C1225.38.87,1225.4,1.75,1225.4,2.62Z"/><path class="cls-39" d="M1251.76,2.62a248.42,248.42,0,0,1-3,38.38h16A229.6,229.6,0,0,0,1268,2.62c0-.88,0-1.75,0-2.62h-16.27C1251.74.87,1251.76,1.75,1251.76,2.62Z"/><path class="cls-8" d="M1269.62,0c.08,2.33.14,4.66.14,7a216.49,216.49,0,0,1-2.69,34h1.51q.42-2.42.79-4.86c0-.29.08-.59.12-.88q.31-2.12.58-4.25c.07-.58.14-1.16.21-1.75.14-1.14.27-2.29.38-3.44.07-.66.13-1.32.19-2q.15-1.63.28-3.27.08-1,.15-2,.12-1.65.21-3.31c0-.66.08-1.32.11-2,.06-1.2.1-2.4.13-3.6,0-.57,0-1.13.05-1.7q.06-2.65.07-5.32c0-.88,0-1.75,0-2.62Z"/><path class="cls-8" d="M1269.34,2.62A228.21,228.21,0,0,1,1266.11,41h1a216.49,216.49,0,0,0,2.69-34c0-2.34-.06-4.67-.14-7h-.31C1269.32.87,1269.34,1.75,1269.34,2.62Z"/><ellipse class="cls-46" cx="712.01" cy="1143.69" rx="344.4" ry="35.57"/><path class="cls-47" d="M1200.67,871.69c1.77.28,3.53.59,5.29.89v-2.5Z"/><path class="cls-48" d="M1053.72,845.94A19.13,19.13,0,0,1,1036,829.23c-1-3.86.36-8.3,1.64-12.91,13-47.08-19.66-95.24-69.44-102.3l-1.45-111.64c-6.07-1.25-12.37-2.37-18.95-3.35l1.64,126c49.78,7.06,82.48,55.23,69.44,102.3-1.28,4.61-2.67,9.05-1.64,12.91A19.13,19.13,0,0,0,1035,857a31.47,31.47,0,0,0,9.29-.09c5.43-1.12,9.71-4.3,13.19-8.44a24.18,24.18,0,0,0,1.6-2.24C1057.28,846.23,1055.53,846.09,1053.72,845.94Z"/><path class="cls-48" d="M1067.19,825.61c-.93,2.34-4.38,12.15-4.9,14.85-.69,3.57,3.24,5.1,1.75,5.13,6.69,8.92,13.17,11.24,24.2,8.91,8-1.7,12.66-5.55,15.55-10.53C1093.38,845.36,1074.2,836.55,1067.19,825.61Z"/><path class="cls-48" d="M1119,823.6c-.39-1.44-3.24-18.67-3.41-19.9-1.63,10-14.48,15.37.5,36.1,7.1,6.09,18,6.35,26-1.07a24,24,0,0,0,4.32-5.45C1138.48,833,1121.48,832.72,1119,823.6Z"/><path class="cls-49" d="M755.05,1063.78c-.58-4.89,0-10-.92-14.79-1.37-7,2.7-49.63-4.2-50.59-7.54-1-32-20.1-37.93-15.3-6.14,4.94-3.23,70.55-2.41,77.84.54,4.78,8.1,4.83,7.55,0-.51-4.49-1.07-8.14,2.55-11.59,3.45-3.29,12-6.43,16.49-6.06,9.1.74,10.57,5.76,10.84,13.15.2,5.53,1.7,12,.75,17.38-.83,4.75,6.46,6.71,7.3,1.91A38.39,38.39,0,0,0,755.05,1063.78Z"/><path class="cls-2" d="M1043.83,964.35l-.73.7Q1050.84,964.21,1043.83,964.35Z"/><path class="cls-49" d="M1043.83,964.35l.26-.25-.75.26Z"/><path class="cls-50" d="M1043.83,964.35l.26-.25-.75.26Z"/><path class="cls-51" d="M118.72,924c-9.21,3.21-14,10.29-17.51,18.26-5.3,11.87-4.6,29.35,9.74,47.86,5.13,6.62,13.09,10.13,16.73,6.7.32-.3.12-1-.46-1.52-10.55-10.46-16-24.44-16.37-33.42-.56-15.4,6.61-28.1,15.8-37.26.68-.68-1.07-2.47-2.19-2.23A50.06,50.06,0,0,0,118.72,924Z"/><path class="cls-52" d="M205,869.18c-14.42,8.68-24.57,21.71-33.5,35.66-13.31,20.8-21.09,48.08-10.4,71.62,3.82,8.42,13.14,10.83,19.92,4a1.68,1.68,0,0,0,.12-2.22c-9.45-12.34-10.09-32.22-6-46.25,6.93-24.05,23.26-46.9,40.63-64.94a1.66,1.66,0,0,0-1.93-2.65Q209.33,866.59,205,869.18Z"/><path class="cls-53" d="M911.58,407.94a1.41,1.41,0,0,0-.4-.11,1.36,1.36,0,0,1,.4.11,1.94,1.94,0,0,0,.38.12A2,2,0,0,1,911.58,407.94Z"/><path class="cls-53" d="M930.83,445.69l-.62-.37,1.1.66Z"/><path class="cls-53" d="M1122.74,937.69"/><path class="cls-48" d="M674,1119.46c-45.29,4.94-101.7,3.87-152,5.63-21.44.75-45.38-.1-62.83-13.67-9.11-7.08-17.32-20.64-14.33-32.56-5.9,4.49-10.52,10-12.8,17-4,12.24,4.49,26.6,14,34,17.45,13.56,41.39,14.42,62.83,13.67,50.34-1.76,106.75-.69,152-5.63,16.25-1.77,33.66-.37,44.86-14.07a40.69,40.69,0,0,0,6.3-12.2C701.22,1118.68,687.23,1118,674,1119.46Z"/><path class="cls-48" d="M735.84,1016.93a32.13,32.13,0,0,1,5.07-4,15.09,15.09,0,0,0-2.37-.82Q737.12,1014.47,735.84,1016.93Z"/><path class="cls-48" d="M1019.75,1112.24c-17.76,13.14-41.72,13.43-63.13,12.17-50.29-3-100.62-3.87-151-4-9.51,0-19.34-.44-28-3.51-11.63,0-22.24-.84-31.1-10-.89-.92-1.72-1.87-2.56-2.81a36.52,36.52,0,0,0,7.33,19.07c10.87,14,28.17,15.08,44.51,15.13,50.37.14,100.71,1.06,151,4,21.41,1.26,45.37,1,63.13-12.17,7.34-5.43,12.85-13.54,14.55-22.08A39.61,39.61,0,0,1,1019.75,1112.24Z"/><path class="cls-48" d="M294.39,1048.74c-9.7-10.7-16-23-20.65-36a90.6,90.6,0,0,1-18.26-51.14,159.18,159.18,0,0,1-7.6-27.49c-.76-4.08-1.33-8.14-1.83-12.19-.12,1.63-.24,3.27-.33,4.86-1.15,21.5,3.28,41.89,8.76,62.49a179.7,179.7,0,0,0,22.29,50.29c6.94,10.86,18.42,26.18,32.9,16.8a15.68,15.68,0,0,0,1.68-1.28C305.68,1056.07,299.56,1054.43,294.39,1048.74Z"/><path class="cls-48" d="M403,999.38a18,18,0,0,1-2.34,5.15c-.2.32-.42.63-.64.93a22.34,22.34,0,0,1-2.42,2.92,19.75,19.75,0,0,1-4.11,3,1.18,1.18,0,0,1-1.16.67,21.71,21.71,0,0,1-6.64,2,20.46,20.46,0,0,1-13.1-2.35,22.57,22.57,0,0,1-10.88-5.77,15.8,15.8,0,0,1-1.76-2,14,14,0,0,0-1,1.31c8,10.3,21,15.82,28.73,13.68,9.21-2.56,14.53-11.15,15.58-20.3l-.11,0C403.1,998.93,403.08,999.16,403,999.38Z"/><path class="cls-48" d="M327.4,1008.18c-.06.22-.1.45-.17.67S327.32,1008.63,327.4,1008.18Z"/><path class="cls-48" d="M357.71,1022.87a22.68,22.68,0,0,1-9.76,11.54c-4.34,2.4-6.93,2.7-11.76,3.27-5.43.63-11.06-2.65-14.89-6.21-.31-.28-.58-.6-.85-.9,1,1.41,2.27,3,3.78,4.85.94,1.28,1.65,2.21,1.87,2.42,8.93,9,22.82,4,29.5-5.29a23.71,23.71,0,0,0,4-11.7c-.42.23-.92.6-1.4.92Z"/><path class="cls-49" d="M1150.09,785.87c-1-35.46-7.66-55-27.2-80.18C1091,664.62,1054.76,622,972.45,603.59,913.91,408,763.44,183.11,565,192.71c-54.93,2.66-109.15,26.11-153.14,58.9-47,35-79.21,81.46-99.57,134.48a402.59,402.59,0,0,0-19.48,69.72C275,550.38,286,657,313.75,754l-.07-.08c-43.85,32.1-64.92,116-68,172.81-1.15,21.5,3.28,41.89,8.76,62.49a179.76,179.76,0,0,0,22.29,50.29c6.94,10.86,18.42,26.18,32.9,16.8,8.86-5.74,13-22.19,7-31.37,3.8,5.34,8.74,12.19,9.39,12.85,8.93,9,22.82,4,29.5-5.29,5.49-7.66,4.38-18.47,3.39-27.26,1.26,1.25,2.54,2.48,3.78,3.72a18.94,18.94,0,0,0,4.91,4,2.69,2.69,0,0,0-.79-.91c6.31,4.57,12.6,9.12,20.83,6.83,17.4-4.84,21.1-31.18,7.81-42.23-24.5-20.37-33.27-52.22-26.19-81.39q5.36,10,11.23,19.77a293.6,293.6,0,0,0,23,32.85s0,0,0,0c.46.51.66,1.18,1.36,1.68.5.61,1,1.24,1.51,1.84a12,12,0,0,0,2.81,3.26h0c.72.83,1.45,1.61,2.17,2.43l1.45,1.62q1.75,1.93,3.52,3.81l.77.81-.38-.39.74.76c1.05,1.1,2.11,2.21,3.17,3.29.72.72,1.44,1.43,2.16,2.14l-.39-.4.94.92-.54-.52c.77.76,1.54,1.53,2.31,2.27.47.46,1,.89,1.43,1.34q1.35,1.27,2.71,2.51,1.65,1.51,3.32,3c.61.53,1.21,1.09,1.82,1.61-.61-.52-1.2-1.07-1.81-1.6l2.42,2.1-.61-.5.85.71c1.18,1,2.37,2,3.57,3,.84.69,1.68,1.38,2.52,2.05l1.72,1.35c.58.45,1.17.89,1.75,1.33l.58.44c.71.54,1.41,1.09,2.12,1.61q3.11,2.3,6.27,4.48l.3.2q3.7,2.53,7.47,4.89l.33.21a219.48,219.48,0,0,0,56.6,24.92l.58.17c2.46.69,4.93,1.33,7.41,1.93l1.55.38c2.32.55,4.65,1.07,7,1.55l2,.41q3.37.67,6.77,1.25l2.28.37c2.23.36,4.46.7,6.7,1l2.31.29c2.26.28,4.52.56,6.78.78l2,.18c2.38.22,4.76.43,7.15.59h.14q7.07.47,14.19.6c-4.14,7.51-12.05,7.67-19.58,9-22,4-43.35,9.54-65,14.94-22.37,5.57-60.56,11.95-68.78,37.24-4,12.24,4.49,26.6,14,34,17.45,13.56,41.39,14.42,62.82,13.67,50.34-1.76,106.75-.69,152-5.63,16.24-1.77,33.66-.37,44.86-14.07,9.36-11.46,13.06-39.08,11.13-55.6.08-7.7,3.17-14.23,10.56-17.58a17.82,17.82,0,0,1,12.58-.56c.17.06.31.14.47.2a15.51,15.51,0,0,1,1.46.65c10.85,6.31,1.34,25.6.93,35.11a66.6,66.6,0,0,0,.85,15c.33,7.92,2.44,15.58,7.56,22.17,10.87,14,28.17,15.08,44.51,15.13,50.37.14,100.7,1.06,151,4,21.41,1.26,45.37,1,63.13-12.17,9.89-7.32,16.48-19.5,14.88-31-.23-12.73-12.68-19.42-23.12-23.51-37.18-14.59-78.54-18.83-117.09-29.44-6.41-1.76-14.27-61.14-17.12-92.65,47.76-25.75,90.37-60.19,113.07-111l.39-.87-.41.15.55-.46c.5-1.13,1-2.23,1.51-3.37q1.83-4.4,3.4-8.94c8.54-24.56,11.71-52.14,11.42-80.33,20.18,20,29.63,49.52,21.56,78.65-1.28,4.61-2.67,9.05-1.64,12.91A19.13,19.13,0,0,0,1035,857a31.48,31.48,0,0,0,9.29-.09c5.43-1.12,9.7-4.3,13.19-8.44a23.76,23.76,0,0,0,4-6.63c7.71,12,14.36,15.3,26.81,12.66,16.44-3.48,18.66-15.91,20.77-28.79a31.63,31.63,0,0,0,.8,4c4,14.8,21.1,19.48,32.32,9.06,5.85-5.44,8.19-13.16,8.94-21.48C1152,806.55,1150.35,794.89,1150.09,785.87Zm-835,241.92c0-.16.09-.32.13-.48C315.19,1027.65,315.14,1027.86,315.13,1027.79Z"/><path class="cls-49" d="M414.92,961.08c.62.67,1.24,1.32,1.87,2l-.39-.42C415.91,962.12,415.41,961.61,414.92,961.08Z"/><path class="cls-48" d="M508.11,1005c-18.72-8.5-37.39-15.74-53.07-30.94-7.65-7.42-14.11-16.92-23.11-22.26-2.85-1.69-5.72-3.19-8.6-4.67a19.37,19.37,0,0,1-8,4.91,22.48,22.48,0,0,1-7.58,1.18,12,12,0,0,0,1.56,1.52,234.19,234.19,0,0,0,44.55,40.14l.3.21q3.7,2.53,7.47,4.89l.33.21a219.49,219.49,0,0,0,56.6,24.92l.58.17c2.46.69,4.93,1.32,7.41,1.93l1.55.38q3.48.83,7,1.55l2,.41q3.37.67,6.77,1.25l2.28.37c2.23.36,4.46.7,6.7,1l2.31.29c2.26.28,4.52.55,6.78.78l2,.18c2.38.22,4.76.43,7.15.59h.14q8.76.58,17.6.65h.06c2,0,3.94,0,5.91,0,1.2,0,2.41,0,3.61,0,1.76,0,3.52-.11,5.28-.18,1.43-.06,2.85-.1,4.28-.18,1.65-.08,3.31-.19,5-.3s3.1-.21,4.66-.33,3.15-.26,4.73-.41l.76-.08c-.07-1.62-.07-3.22,0-4.82C584.26,1031.09,545.39,1022,508.11,1005Z"/><path class="cls-49" d="M588.83,1034.7q-8.83-.07-17.6-.65Q580,1034.64,588.83,1034.7Z"/><path class="cls-49" d="M603.69,1034.45c-1.76.07-3.52.14-5.28.18C600.17,1034.59,601.93,1034.51,603.69,1034.45Z"/><path class="cls-49" d="M571.09,1034.05c-2.39-.16-4.77-.37-7.15-.59C566.32,1033.68,568.7,1033.89,571.09,1034.05Z"/><path class="cls-49" d="M594.8,1034.67c-2,0-3.94.05-5.91,0C590.85,1034.72,592.83,1034.69,594.8,1034.67Z"/><path class="cls-49" d="M543.84,1030.84q-3.39-.58-6.77-1.25Q540.44,1030.25,543.84,1030.84Z"/><path class="cls-49" d="M561.91,1033.28c-2.27-.23-4.53-.5-6.78-.78C557.38,1032.78,559.64,1033.05,561.91,1033.28Z"/><path class="cls-49" d="M552.81,1032.21c-2.24-.3-4.47-.64-6.7-1C548.34,1031.57,550.57,1031.91,552.81,1032.21Z"/><path class="cls-49" d="M612.94,1034c-1.66.11-3.31.22-5,.3C609.62,1034.18,611.28,1034.08,612.94,1034Z"/><path class="cls-49" d="M526.51,1027.24c-2.48-.61-5-1.24-7.41-1.93C521.56,1026,524,1026.63,526.51,1027.24Z"/><path class="cls-49" d="M660.26,1027.91l-3.23.57C658.11,1028.29,659.18,1028.11,660.26,1027.91Z"/><path class="cls-49" d="M641.25,1031c-1.42.2-2.84.38-4.27.57C638.4,1031.42,639.82,1031.23,641.25,1031Z"/><path class="cls-49" d="M650.75,1029.58c-1.3.21-2.61.41-3.91.61C648.14,1030,649.45,1029.8,650.75,1029.58Z"/><path class="cls-49" d="M631.77,1032.25l-4.52.5Z"/><path class="cls-49" d="M622.32,1033.23q-2.36.22-4.73.41Q620,1033.45,622.32,1033.23Z"/><path class="cls-49" d="M535,1029.17q-3.5-.73-7-1.55Q531.53,1028.45,535,1029.17Z"/><polygon class="cls-49" points="724.02 1006.82 669.75 1026.03 724.02 1006.82 724.02 1006.82"/><path class="cls-49" d="M461.59,1000q-3.76-2.35-7.47-4.89Q457.83,997.65,461.59,1000Z"/><path class="cls-48" d="M608,1034.27c-1.43.07-2.85.12-4.28.18C605.12,1034.39,606.54,1034.34,608,1034.27Z"/><path class="cls-48" d="M617.59,1033.64c-1.55.12-3.1.23-4.66.33C614.49,1033.87,616,1033.76,617.59,1033.64Z"/><path class="cls-48" d="M657,1028.49c-2.09.38-4.19.75-6.28,1.1C652.84,1029.24,654.94,1028.86,657,1028.49Z"/><path class="cls-48" d="M669.75,1026q-4.74,1-9.5,1.88Q665,1027,669.75,1026Z"/><path class="cls-48" d="M519.1,1025.31l-.58-.17Z"/><path class="cls-48" d="M598.41,1034.63c-1.21,0-2.41,0-3.61,0C596,1034.65,597.21,1034.65,598.41,1034.63Z"/><path class="cls-48" d="M646.84,1030.19c-1.86.29-3.73.58-5.59.84C643.11,1030.77,645,1030.48,646.84,1030.19Z"/><path class="cls-48" d="M637,1031.6q-2.61.34-5.21.65Q634.37,1031.95,637,1031.6Z"/><path class="cls-48" d="M627.24,1032.75q-2.46.26-4.93.48Q624.78,1033,627.24,1032.75Z"/><path class="cls-48" d="M454.12,995.12l-.3-.2Z"/><path class="cls-48" d="M555.13,1032.5l-2.31-.29Z"/><path class="cls-48" d="M546.12,1031.21l-2.28-.37Z"/><path class="cls-48" d="M563.94,1033.46l-2-.18Z"/><path class="cls-48" d="M537.07,1029.58l-2-.41Z"/><path class="cls-48" d="M588.89,1034.71h0Z"/><path class="cls-48" d="M571.22,1034.06h0Z"/><path class="cls-48" d="M528.05,1027.62l-1.55-.38Z"/><path class="cls-48" d="M461.92,1000.21l-.33-.21Z"/><path class="cls-49" d="M829,969.65c3.56-1.08,7.19-2.25,10.81-3.39,0-.16.09-.32.14-.49Z"/><path class="cls-54" d="M829,969.65c3.56-1.08,7.19-2.25,10.81-3.39,0-.16.09-.32.14-.49Z"/><path class="cls-49" d="M839.83,966.26c-.1.38-.22.74-.31,1.12,2.28-1.05,4.56-2.08,6.83-3.16C844.14,964.93,842,965.57,839.83,966.26Z"/><path class="cls-55" d="M839.83,966.26c-.1.38-.22.74-.31,1.12,2.28-1.05,4.56-2.08,6.83-3.16C844.14,964.93,842,965.57,839.83,966.26Z"/><path class="cls-48" d="M996,720.92c-1.79-.46-18.75-2.47-20.46-2.7,2.27,36.36,3.51,62.92-6,91.51-9.45,28.37-19.86,56.76-38.34,79a161.17,161.17,0,0,1-33.61,30.43c-13.1,8.91-25.23,21.71-40.76,25.72-9.5,2.45-14.12,10.73-16.89,20.9l11.64-4.12c54-26.56,103.72-62.78,128.9-119.12l.39-.87-.41.15.55-.46c.5-1.13,1-2.23,1.51-3.37q1.83-4.4,3.4-8.94c10.19-29.33,12.76-63,10.88-96.8C996.41,732.12,996.44,721,996,720.92Z"/><path class="cls-49" d="M839.83,966.26c2.18-.69,4.32-1.33,6.52-2,1.76-.84,3.52-1.71,5.27-2.57L840,965.77C839.92,965.94,839.87,966.1,839.83,966.26Z"/><path class="cls-54" d="M839.83,966.26c2.18-.69,4.32-1.33,6.52-2,1.76-.84,3.52-1.71,5.27-2.57L840,965.77C839.92,965.94,839.87,966.1,839.83,966.26Z"/><path class="cls-55" d="M839.83,966.26c2.18-.69,4.32-1.33,6.52-2,1.76-.84,3.52-1.71,5.27-2.57L840,965.77C839.92,965.94,839.87,966.1,839.83,966.26Z"/><path class="cls-52" d="M434.71,392c-16.83-.36-32.37,5.22-47.37,12.25-22.36,10.47-43.51,29.38-47.05,55-1.26,9.16,5.32,16.17,14.71,14a1.68,1.68,0,0,0,1.29-1.81c-1.39-15.48,8.68-32.63,19.6-42.33,18.71-16.63,44.72-27.22,69-33.19a1.66,1.66,0,0,0-.21-3.27Q439.73,392.11,434.71,392Z"/><path class="cls-52" d="M622.86,338C634,325.43,648.65,317.79,664,311.52c22.86-9.34,51.1-12.07,72.32,2.68,7.59,5.28,8.29,14.87.33,20.31a1.68,1.68,0,0,1-2.21-.28C724,322.72,704.55,318.5,690,320c-24.91,2.48-50.32,14.42-71.2,28.26a1.66,1.66,0,0,1-2.26-2.37Q619.54,341.81,622.86,338Z"/><path class="cls-56" d="M876.72,596c-5.32-6.41-12.82-10.67-21.46-13.43-16.58-5.28-31.16-5-47.66-3.36a130.45,130.45,0,0,0-3.66,16c-.1.3-.18.6-.28.9v0l0,.05c-.21.59-.45,1.16-.71,1.72l-.25.52q-.31.63-.65,1.22l-.27.47a22.1,22.1,0,0,1-2.23,3l-.19.21q-.56.63-1.16,1.21l-.18.18a23.91,23.91,0,0,1-4.71,3.46h0a24.3,24.3,0,0,1-5.46,2.24h0a22.94,22.94,0,0,1-3.77.69h0c-.59.06-1.17.08-1.76.09H782a19.62,19.62,0,0,1-3.54-.31l-.26-.05q-.71-.14-1.41-.34l-.35-.1a16.21,16.21,0,0,1-3.08-1.29L773,609q-.55-.32-1.07-.69l-.38-.27a15,15,0,0,1-1.24-1l0,0a15.16,15.16,0,0,1-1.16-1.23l-.31-.39q-.4-.51-.77-1.06l-.29-.44a16.73,16.73,0,0,1-.89-1.6c-.45-.93-.9-1.78-1.36-2.6l-.05-.1-.06-.1q-.69-1.21-1.4-2.26l0,0-.54-.77-.09-.13c-.57-1.46-1.16-2.9-1.75-4.34-.49,5.86-.89,11.85-2.68,17.11A20.46,20.46,0,0,1,749.2,621c-9.29,5.16-22.66,4.45-27.45-6.36a63.28,63.28,0,0,0-4.17-8c-.19-.51-.39-1-.59-1.53-1.27,7.15-5.58,15.59-16.6,21.34-6.31,3.29-13.89,4.66-20.44,1.66s-10.28-9.4-13.53-15.52q.27-2.34.57-4.66c.09-.66.17-1.33.26-2l-3.62,1.34c.24.46.49.92.73,1.39h0q.88,1.56,1.78,3.11a87.46,87.46,0,0,0-1.64,11.49c-.06.25-.12.49-.2.74-2.12,7.29-9.36,13.55-17.75,15.8-10.55,2.83-16.76-2.18-21.87-8.8-.92-1.19-4.86-5.68-4.81-7.27a131.31,131.31,0,0,0-1.31,16.78c0,.29-.09.58-.15.87-3.36,17.09-26.25,25.17-35.53,11.44a38,38,0,0,0-4.35-5.4c-1.31-2.3-2.67-4.57-4-6.84a9.14,9.14,0,0,1-.14-1l-.34-1c0,1.2.12,2.33.13,2.42a35,35,0,0,1,0,7.34,38.62,38.62,0,0,1-4,14.11c-11.05,21.19-36,12.46-47.35-1.83-.67,13.73-.89,28.66-16.82,33.24a16.82,16.82,0,0,1-15.61-2.88,27.24,27.24,0,0,1-2.54-2.41c-.89-.95-6.19-7.45-8.77-11-.05.33-.1.64-.13.86a17.21,17.21,0,0,0,0,3c.45,6.47,3.59,12.54.79,18.88-2.31,5.24-6.88,9-11.95,11.48a31.82,31.82,0,0,1-5.86,2.19,23.47,23.47,0,0,1-18-2.82,59.14,59.14,0,0,1-11.75-9.89c-.34-.35-.77-.92-1.22-1.33-15.13,9.62-28.94,21.67-35.36,38.76-20.87,55.54,34.07,91.42,79.15,108.56a297.5,297.5,0,0,0,78.59,17.88c9.59-12.73,21.87-23.22,33.85-33.72,11.77-10.31,30.3-21.68,46.24-22.74a92,92,0,0,1,23.91,1.78c4-4.9,8.13-9.48,11.61-13.7C695.37,764.82,767.37,755,801,786c3.1-2.37,6.15-4.83,9.14-7.43,22.72-19.79,43.2-43.78,56.45-70.8a179.4,179.4,0,0,0,15.28-46.15c3.09-16.6,6.38-37.77,1.18-54A34.39,34.39,0,0,0,876.72,596Z"/><path class="cls-57" d="M668.89,796.88c-3.48,4.22-7.63,8.81-11.61,13.7a92,92,0,0,0-23.91-1.78c-15.93,1.06-34.47,12.43-46.24,22.74-12,10.5-24.26,21-33.85,33.72q14.25,1.3,28.65,1.31l.26-.26.49.26c58.34,0,117.28-15.78,165.95-46.77C766.38,808.49,784.4,798.7,801,786,767.37,755,695.37,764.82,668.89,796.88ZM748,786.81c-.31-1.52-.22-1.84.59-.1Z"/><path class="cls-58" d="M758.62,585.67c-.22,0-.06,0-.36,0s-.57.09-.92.14q-22,3.41-43.75,7.77l-.32.1-.66.2h0l-1.25.38,1-.3,0-.13c-2.29.46-4.59.9-6.89,1.38Q663.3,604,622,616.45l-2.27.69h0l-.11,0-1.21.37v0h0v0l-3.53,1.09q-8.8,2.73-17.55,5.62A860.43,860.43,0,0,0,438,695.75q-3.57,2.07-7.09,4.3c.46.41.88,1,1.22,1.33a59.14,59.14,0,0,0,11.75,9.89,23.47,23.47,0,0,0,18,2.82,31.82,31.82,0,0,0,5.86-2.19c5.06-2.45,9.64-6.25,11.95-11.48,2.8-6.34-.34-12.41-.79-18.88a17.21,17.21,0,0,1,0-3c0-.22.07-.53.13-.86,2.57,3.58,7.88,10.08,8.77,11a27.24,27.24,0,0,0,2.54,2.41A16.82,16.82,0,0,0,506,693.95c15.94-4.57,16.15-19.51,16.82-33.24,11.35,14.29,36.3,23,47.35,1.83a38.62,38.62,0,0,0,4-14.11,35,35,0,0,0,0-7.34c0-.09-.1-1.22-.13-2.42l.34,1a9.14,9.14,0,0,0,.14,1c1.35,2.27,2.71,4.54,4,6.84a38,38,0,0,1,4.35,5.4c9.28,13.73,32.16,5.64,35.53-11.44.06-.29.1-.58.15-.87a129.55,129.55,0,0,1,1.26-16.43H620c.39,1.8,3.87,5.8,4.74,6.92,5.11,6.61,11.32,11.62,21.87,8.8,8.39-2.25,15.63-8.51,17.75-15.8.07-.25.13-.49.2-.74A84.26,84.26,0,0,1,666,612.65l.44-.15,0,.15c3.25,6.12,7,12.51,13.53,15.52s14.12,1.64,20.44-1.66c11-5.75,15.33-14.19,16.6-21.34.2.51.4,1,.59,1.53a63.28,63.28,0,0,1,4.17,8c4.8,10.81,18.16,11.52,27.45,6.36a20.46,20.46,0,0,0,9.68-11.95c1.79-5.26,2.19-11.25,2.68-17.11.59,1.45,1.19,2.89,1.75,4.34l.09.13.54.77,0,0q.71,1.05,1.4,2.26l.06.1.05.1c.46.81.91,1.67,1.36,2.6a16.73,16.73,0,0,0,.89,1.6l.29.44q.37.55.77,1.06l.31.39a15.16,15.16,0,0,0,1.16,1.23l0,0a15,15,0,0,0,1.24,1l.38.27q.52.37,1.07.69l.35.21a16.21,16.21,0,0,0,3.08,1.29l.35.1q.69.2,1.41.34l.26.05a19.62,19.62,0,0,0,3.54.31h.2c.58,0,1.17,0,1.76-.09h0a22.94,22.94,0,0,0,3.77-.69h0a24.32,24.32,0,0,0,5.48-2.24h0a23.94,23.94,0,0,0,4.72-3.46l.18-.18q.6-.58,1.16-1.21l.19-.21a22.1,22.1,0,0,0,2.23-3l.27-.47q.34-.6.65-1.22l.25-.52c.26-.56.5-1.13.71-1.72l0-.05v0c.1-.3.19-.6.28-.9a130.45,130.45,0,0,1,3.66-16c-1.81.18-3.63.37-5.49.58q-16.86,1.89-33.67,4.32c-3.16.46-6.32,1-9.47,1.44"/><path class="cls-59" d="M770.23,421c14.28,43.38-5.1,81.64-48.52,95.78-39.89,13-79.53-7.75-93.63-49-14.36-42,5.15-81.79,46.89-95.55C718.76,357.77,755.64,376.65,770.23,421Z"/><path class="cls-59" d="M462.8,597.45c-38.66,12.67-74.72-6.36-87.69-46.26-12.59-38.72,3.66-77.44,37.45-87.84,44-13.54,83.19,7.35,95.16,45.28C520.13,547.93,501.42,584.79,462.8,597.45Z"/><path class="cls-53" d="M779.24,308.75l.33.16Z"/><path class="cls-49" d="M480.82,515.21A33.92,33.92,0,0,0,440.91,562a36.67,36.67,0,0,0,31.85,21.33C513.54,584.39,520.08,525.61,480.82,515.21Z"/><path class="cls-60" d="M478,526.34a22.62,22.62,0,0,0-26.61,31.21,24.46,24.46,0,0,0,21.24,14.22C499.86,572.47,504.22,533.27,478,526.34Z"/><circle class="cls-58" cx="486.68" cy="527.62" r="14.97" transform="translate(-142 181.21) rotate(-18.46)"/><path class="cls-49" d="M725.73,421.51c-21.46,6.87-33.57,32.88-21,56.18,9.15,17,30.09,25,46.33,19.57C792.58,483.41,769.1,407.63,725.73,421.51Z"/><path class="cls-60" d="M729.13,434.2c-14.42,4.62-22.55,22.09-14.11,37.74,6.15,11.4,20.22,16.79,31.12,13.15C774,475.78,758.26,424.87,729.13,434.2Z"/><circle class="cls-58" cx="750.94" cy="433.81" r="13.41" transform="translate(-98.71 260.04) rotate(-18.46)"/><path class="cls-61" d="M908,495.54c4.84,7.93-1.7,16.61-12.92,24.25-12.27,8.35-22.86,7.17-30.75-5.48-8.42-13.49-8.85-28,4.36-38C885.91,463.4,895,478.58,908,495.54Z"/><path class="cls-61" d="M845.15,435.55c9.75-3.37,17.66-2.37,22.82,6.1,5.29,8.68.35,14.36-6.86,18.94-8.27,5.26-14.26,2.61-19.44-4.94C835.82,447.13,841.31,441.47,845.15,435.55Z"/><path class="cls-61" d="M901.7,564.39c-7.11,3.94-15.43,4.67-20.25-2.93-4.47-7-2.66-15.89,4.8-20.67,6.57-4.21,13.53-3,18.28,4.46C909,552.26,909,558.48,901.7,564.39Z"/><path class="cls-61" d="M320.66,702.31c1.16,12,14.69,15.89,32.27,15.07,19.22-.89,29.27-10.36,27.61-29.62-1.78-20.53-12.66-36-34.08-36C318.58,651.78,321,674.56,320.66,702.31Z"/><path class="cls-61" d="M339.14,591.19c-12.72,4.1-20.15,11.29-18.9,24.09,1.28,13.11,10.82,15.16,21.85,14.29,12.67-1,16.81-8.4,16.3-20.25C357.82,595.92,347.72,594.33,339.14,591.19Z"/><path class="cls-58" d="M1097,393.71a3.08,3.08,0,0,0-.86,1.2c-.17.17-.17.52-.34.69a4.82,4.82,0,0,0-1.37,1.37c-.34.51-.34,1-.69,1.37-.52.86-1.54,1.37-1.89,1.89s-.34.86-.69,1.37a31.73,31.73,0,0,1-1.89,3.26c-.34.34-.34,1-.69,1.37-.17.34-.86.17-1,.51a7.09,7.09,0,0,0-1.2,2.57c-2.57,2.23-4.63,5.15-7.38,7.21.17,2.4-1.72,3.26-2.57,4.63-.69,1.2-.69,2.92-2.06,3.6.17.86-.34.69-.34,1.37-.51.34-.86,1.2-1.54,1.37.17.86-.86,1-1.2,1.72-.17.34-.17,1-.34,1.54a1.07,1.07,0,0,0-.52,1.2c-.34.51-.86.86-1.2,1.37-1,1.54-2.06,4.12-3.43,6-.34.34-.69.51-1.2,1-.34.51-.69.86-1,1.37-.86,1-1.54,2.4-3.09,2.75-.34,1.89-2.06,2.75-2.92,4.29-.34.51-.17,1.72-.86,2.23-.51,2.06.34,4.29.34,6,0,.86-.34,1.2-.34,2.06a17.33,17.33,0,0,1,.52,2.92,13.25,13.25,0,0,1-.34,2.57,151,151,0,0,0,0,15.27c0,1.37-.17,2.92-.17,4.29a15.21,15.21,0,0,1,.34,2.57c-.17.86-.51,1.54-.69,2.4a35.91,35.91,0,0,0,.17,4.29v1.89c.17,3.26-.17,6.35-.17,10.47,0,.86.34,2.06-.34,2.75a19.72,19.72,0,0,1,.34,5.66c.52,1,2.23,3.09,1.89,5.15-.17.86-.86,1.37-1.2,2.06-1,0-2.06.51-3.09.34a2.08,2.08,0,0,0-.86-.17c-1.72.17-3.95,1-6,1.2-2.92.17-6.52-.51-9.78-.69-2.4-.17-5.15.51-6.52-1.37a2.36,2.36,0,0,1-.17-1.89c0-.17.51-.17.51-.51a5.54,5.54,0,0,1,.51-3.6,14.73,14.73,0,0,1-.34-6.18c0-.51.34-.69.34-1a18.07,18.07,0,0,1,0-3.09,7.29,7.29,0,0,0,.34-1.89c0-1.2-.69-2.75-.69-4.46a34.43,34.43,0,0,1,.69-4.12c0-2.4-1-4.8,0-6.86a15.94,15.94,0,0,1-.69-2.23,9.51,9.51,0,0,1,.34-3.09,11.77,11.77,0,0,1,0-2.57c.17-1,.86-1.89.86-2.92.17-1.72-.17-3.78,0-5.66,0-.86.51-2.06.51-2.92s-.51-1.54-.51-2.23a13.35,13.35,0,0,1,.34-2.75c.34-1.54.69-1.89.34-3.6a6.46,6.46,0,0,0-.69-2.75,8.35,8.35,0,0,0-.52-1.2c-.86-1.2-2.23-2.06-3.09-3.43a11.88,11.88,0,0,1-.51-1.37,12.9,12.9,0,0,1-1.54-4.12,13.44,13.44,0,0,1-2.4-3.43,9.2,9.2,0,0,1-1-2.23c-.17-.69-.86-.69-1-1.37-.34-1.54-2.06-2.57-2.75-3.95-.52-.86-.52-2.06-1-3.09-.51-1.2-1.89-2.92-1.89-4.46-1.72-1.37-3.26-2.75-3.77-5.32-2.57-2.4-3.26-6.52-6.18-8.75,0-1-.69-1.54-.69-2.57-.86-1.37-2.23-2.06-3.26-3.26a5.44,5.44,0,0,1-.51-1.54c-.17-.17-.34-.17-.52-.51-.86-1.2-1.54-1.72-2.23-2.57-1-1.37-1.72-3.09-3.43-3.95-.17-1.54-2.06-2.92-1.89-4.63a4.44,4.44,0,0,1,2.23-3.26c.17-1.2.34-2.06,1-2.57.69-.69,2.06-.52,3.26-.17,1.54-.86,3.95-.69,5.49-1.54.86,0,1.89-.17,2.23.34.86,0,1.37-.86,2.23-1a5.74,5.74,0,0,1,1.72,0c.52,0,.86-.52,1.37-.52a8.51,8.51,0,0,1,2.23.52c.86.51,1.54,2.23,2.06,3.09.86,1.2,1.72,2.06,1.89,3.09,1.37.52,1.54,1.89,2.4,2.92a18.21,18.21,0,0,1,2.57,2.57c.34.69.69,1.54,1,2.23.17.34.51.51.86.86.17.34,0,.69.17,1,.86,1.37,2.06,2.4,2.4,3.95.51.86,1.37,1.37,1.89,2.23.52,1,.52,2.4,1,3.43a4.55,4.55,0,0,0,.86,1c.17.34,0,.69.17.86a10.68,10.68,0,0,1,1.72,2.92c.34.86.86,1.54,1.2,2.4a16.13,16.13,0,0,1,1,2.57c.51.86,1.2,1.37,1.72,2.23,1.2,2.06,2.4,4.63,4.29,6.52a5.45,5.45,0,0,1,1.72-1.72c-.86-.51.69-1.2.51-2.23.34,0,.34-.34.69-.51a2.88,2.88,0,0,0,1-1.54c.69-1,1.54-1.72,2.23-2.75a14.9,14.9,0,0,0,1.2-1.72,22.24,22.24,0,0,0,2.57-2.92l.52-1c.51-.86,1.2-1.37,1.2-2.23a5.46,5.46,0,0,0,1.72-1.72c.34-.34.69-.34.86-.69s0-.86.34-1.2c.17-.34.52-.34.86-.86.52-.86.34-1.2.52-1.54.86-1,.86-1.2,1.37-1.72.52-.69,1.37-.86,1.54-1,.17-.34.17-.69.52-1a11.9,11.9,0,0,1,3.95-3.78,15.11,15.11,0,0,1,.86-2.57,4.54,4.54,0,0,1,.86-1,9.62,9.62,0,0,0,.86-1.37,14.82,14.82,0,0,0,1.2-1.72c.69-1.72.52-4.46,2.57-5.15,1.2-.34,3.43.34,5.83.17a49,49,0,0,1,6-.51,18.88,18.88,0,0,0,3.09.34c2.92,0,5.49-.69,6.69-.69,2.92.34,4.8,2.57,3.26,5.15A6.56,6.56,0,0,0,1097,393.71Z"/><path class="cls-58" d="M1191.91,425.8c0,.34.34.51.34.86a3.19,3.19,0,0,0-.34,1.2c0,.34.17.52.17.86,0,.17-.34.51-.17,1,0,.34.17.52.17.86,0,.51-.52,1-.52,1.54-.17.69.17,1.37.17,2.06,0,.51-.51,1-.51,1.54a7.1,7.1,0,0,1-.17,1.72,30.29,30.29,0,0,0,0,3.95c0,.51.51,1.2.51,1.89.17,2.4-.34,5.15-.17,7.72a19.68,19.68,0,0,1,.17,3.09c0,1.37-.69,2.57-.86,4.46a3.88,3.88,0,0,1,.17.69c0,.69-.52,2.57.17,3.6a7.42,7.42,0,0,1-.86,2.06c.34,3.09-.51,6-.51,9.09a19.35,19.35,0,0,1,.51,3.09c0,.51-.34,1.2-.34,1.89,0,.51.34,1.2.34,1.72,0,.34-.51,1-.69,1.54-.17,2.23,0,3.43-.86,5.32-.69,1.2.51,3.95-.69,5.49.51,1.37.17,2.4.17,4.12,0,.51.34,1.2.17,1.72,0,1.2-.51,2.23-.51,3.26-.17,2.57.51,5,.69,7.21.17.51.17,1,1,.86-1.89,1.37.17,2.75.17,4.46a2.44,2.44,0,0,1-.34,1c0,.17-.17,1-.17,1.2a7.43,7.43,0,0,0-.86.17,4.66,4.66,0,0,1-2.06,1.2c-.69,0-1.37-.34-2.23-.34-.86-.17-2.06.34-3.26.34a30.59,30.59,0,0,0-3.95.34c-1.37.17-2.4,1-3.6,1-1-.34-.52,1-1.37,1-.17.51-1.37,0-1.89.17-1.37-1.2-2.57-4.12-1.37-5.49-1-2.92.34-6.69-.34-10.3a13.58,13.58,0,0,0-4.46,3.26c-.69.51-1,1.37-1.89,1.89-.34.17-.34,0-.69.17-.17.34-1.37.69-1.89,1.37-1.2.34-2.4.17-3.6.51-1.54.34-2.92.86-5,1.2-1.37.34-3.77,1.37-6.18,1-.51,0-.86-.34-1-.34-.69,0-1,.51-1.72.51a4,4,0,0,1-2.75-.34c-.51.86-2.75.17-3.6-.34-1.72.69-3.26-.17-5-.34-1,0-.86-1-1.72-1.2a30.77,30.77,0,0,1-7.89-.69c-.34-.86-1.54-1-1.72-2.23-1.2.17-1.2-.86-2.06-.86a12.84,12.84,0,0,0-1.89-2.23c-1.2,0-1.37-.69-2.57-.69-.34-.34-.51-1-1-1.37-.86-.51-1-1-1.37-1.2-.17,0-.69.17-.86,0-1-1.2-1.72-1.72-2.4-2.57a3,3,0,0,1-1.37-.86c0-1-1-1-.86-2.4a6,6,0,0,1-1.37-.86,12.09,12.09,0,0,1-1.2-1.54c-.34-.17-.34-.51-.69-.69-.17-.34-.17-1.72-1-2.23,0-.69-.69-.69-1.37-.69-.17-1.72-.86-3.09-2.4-3.6.34-1-.34-1-.17-1.89-3.43-3.09-3.26-9.44-5-14.07.17-3.09,0-6.86,1-9.61a4.36,4.36,0,0,1,.34-.86c.34-.52.17-1.54.34-2.75.17-1,.34-2.23.51-3.26a6.1,6.1,0,0,0,.34-1.72A11,11,0,0,1,1096,449c-.86-3.09,2.06-4.29,2.23-7.21a16.05,16.05,0,0,0,2.4-3.26c.52-.86,1.2-2.06,1.89-3.26.52-.69,1.37-1.2,1.2-2.23.69-.34,1-1,2.06-1.37v-1.54c1.89-1.2,2.75-3.26,4.29-5a13.8,13.8,0,0,1,2.4-2.06c.51-1,2.23-1.2,2.4-2.23,2.23-.51,4.63-.86,6.35-2.06,1.37-.17,3.09-.17,3.95-1,2.23.34,3.43-.69,4.63-1.54,3.43,0,6.52-.17,10.3,0,1.72,0,3.6-.34,5-.17,1,0,1.89-.17,2.57.51a3.49,3.49,0,0,1,2.92.17,18,18,0,0,1,2.23.34c.51,0,1,.51,1.37.51a5.71,5.71,0,0,0,1.72,0,3.75,3.75,0,0,0,.86.69,3.57,3.57,0,0,1,2.06.86c.17,0,.69,0,.86.17s.17.51.34.69a31.29,31.29,0,0,1,4.63,2.57c.34.17.34.69.86,1,.34.34.69.34,1,.69a7.49,7.49,0,0,1,1.37,1.72c.34.69,1.54,1.37,2.4,2.23.51.34.69,1.2,1.37,1.72.51.34,1.89,1.37,1.89,2.4.86-3.09.17-7-.69-9.44-.69-1.37-1.72-1.72-1-3.78a6.78,6.78,0,0,1,1.72-2.57,9.83,9.83,0,0,0,3.09.34,17.09,17.09,0,0,0,2.75.34c2.4,0,6.69.17,9.09,1,1.54-.51,2.57.34,3.95.69.17.86,0,1.37.17,2.23-.17.69.34,1,.17,1.72C1192.77,423.56,1191.91,424.94,1191.91,425.8Zm-24,34.15c-.17-.69-1-.86-1.37-1.37,0-1.72-.86-2.92-1-3.95.34-1.54-.51-2.23-.69-3.09a25,25,0,0,1-.51-3.78c-1-.51-1-1.2-1.54-1.72-.86-.52-.69-.69-.86-.86-.86-1-1.54-1.72-2.4-2.57a8,8,0,0,0-3.26-2.23c-1.89-.86-3.26-1.72-4.63-2.4s-2.75-.51-4.46-.86a24,24,0,0,0-2.23-1,11.1,11.1,0,0,1-2.4,0c-.69,0-1.54-.51-2.06-.51-.34,0-.86,1-1.37.51-.69-.17-1.72-1.2-2.23-.69-2.23.17-2.57,1-4.12,1.89-.34.17-1,.34-1.37.51-.51.34-.86.69-1.2.86-.17,0-.52-.17-.86,0l-.52.51c-.86.51-1.54,1.2-2.23,1.54a11.83,11.83,0,0,0-1.37.52,27,27,0,0,0-1.72,2.23c-.69-.17-.69.51-1.37.17,0,1-.86,1.72-1.37,2.23a7.19,7.19,0,0,1-2.4,1.54c-.17,2.4-2.06,3.09-2.06,5.49a10.94,10.94,0,0,0-1.72,3.09,32,32,0,0,0-.86,4.63c-.34,1.2-1,2.06-1.2,3.09,0-.17.17.86.34,1,0,2.06-.86,3.26-1,4.8,0,.86.51,1.89.51,2.92,0,.17-.34.34-.34.69a4.65,4.65,0,0,1,0,2.23c.17,1.37,1.54,2.75,1,4.46,1.54,1,2.75,2.4,4.63,3.26,1.37,2.57,3.95,4.29,6,6a10.06,10.06,0,0,0,3.26,2.23l.69.69a15.59,15.59,0,0,0,3.6.86c.69.17,1.72.69,2.23.86.34.17.51.69,1,.69,2.92-.34,6,.86,8.41.86a5.7,5.7,0,0,0,2.4-.17,12.14,12.14,0,0,0,2.57-.17,9.68,9.68,0,0,1,1.37-.86c.34,0,.69.17,1,0,.69-.17,1.72-1,2.57-.17,1.2-2.92,5.15-2.92,5.66-6.52.69.17.51-.51,1.2-.51,0-1.2.86-1.89,1.37-2.75.34-.69.86-1.72,1.2-2.23.17-.17.69.17.51-.51a9.42,9.42,0,0,1,2.06-3.6c-.34-1.2.51-2.06.86-2.92a27.91,27.91,0,0,0,1.54-9.44,10.49,10.49,0,0,0,1.2-2.4A5.58,5.58,0,0,1,1167.89,459.94Z"/><path class="cls-58" d="M1291.1,422.54c-.52,1.2-.52,1.89-1,3.26-.17.51-.34.51-.51.86-.34.69-.34,1.54-.69,2.23-.17.51-.69,1.2-1,1.89a6.35,6.35,0,0,0-.86,1.89,7.12,7.12,0,0,1-.34,1,6.46,6.46,0,0,0-1.2,3.09c-.34.51-.86.51-1.2,1-.51,1.2-.69,2.92-1.89,3.26a22.92,22.92,0,0,1-1.89,5.49c-.69,1.89-1.37,3.43-2.06,5.32.17,1-1,.51-1,1.37a12.14,12.14,0,0,1-.17,2.4c-1,2.23-1.2,4.46-2.06,6.69a32.09,32.09,0,0,1-2.92,5.32,6.55,6.55,0,0,1-.52,1.72,6.07,6.07,0,0,0-.86,1.37c-.34,1-.51,2.23-.86,3.26a9.62,9.62,0,0,1-.86,1.37,12,12,0,0,1-1,3.26c-.17.51-.51.69-.86,1.2-.51,1.37-.34,3.09-1.72,4.12a5.07,5.07,0,0,1-.34,2.23c-.34.86-1,1-1.37,1.89-.69,1.54-.69,3.26-1.54,4.63,0,.34-.34.34-.51.86-.51,1-1.2,2.75-1.72,4.12-1,2.23-1.37,4.63-3.26,6.18.52,1-.69,1.89-.86,2.57a4.46,4.46,0,0,1-.51,1.37c-.34.34-.34,1.37-.69,2.23s-1,1.54-1.37,2.4a7.21,7.21,0,0,1-1.54,2.4,15.72,15.72,0,0,1-2.06,5.83c-.17.34-.34.51-.51.86-.34,1.2-.51,2.57-.86,3.78a21.67,21.67,0,0,1-1.2,2.75,4.93,4.93,0,0,1-1.37,2.23c0,1.54-.86,2.57-1.2,3.6-.51,1-.69,2.23-1.54,2.92.17,2.4-.69,3.78-1.2,5.49-.34,1.2,1,.69.86,1.72-.17,1.54-.86,2.4-.69,4.12-1,.51-1.37,1.72-2.23,2.57-4.12-.69-8.58,1-11.33-.86a21.17,21.17,0,0,1-12.35-3.26c0-1.2-.69-2.06-.52-2.92,0-1.89,1.89-3.26,1.72-5.66a8.18,8.18,0,0,0,2.4-5.49,10.28,10.28,0,0,0,1.37-2.75,8.62,8.62,0,0,1,.86-2.23,10.13,10.13,0,0,0,.86-2.23c.17-.17.51-.34.69-.51.34-1,.34-2.75,1.37-3.26v-2.23c1-.34.86-1.54,1.2-2.23s.69-.86,1.2-1.89c.34-.69.51-1.72.86-2.4s.86-1.37,1.2-2.06a56.4,56.4,0,0,1,4.81-7.55,2.91,2.91,0,0,1,.69-2.23c-.34-1-1-2.06-1.37-3.09-.17-.34.17-.69,0-1s-1.54-1.2-1-2.23c-.86-.34-.69-1.37-1.37-1.72,0-2.23-1.2-3.26-1-5.83.51-.86-.69-.34-.69-.34-.34-.17-.34-.69-.69-1a20.16,20.16,0,0,1-1.72-5.66c-.17-.86-1-1.2-1.37-2.23-.34-1.37.86-1.2.86-2.23,0-.51-1.37,0-1.54-.51a34.74,34.74,0,0,0-1.54-5.66c-.17-.17-.51-.17-.51-.51-.34-.69-.69-1.54-1.2-2.57a5.46,5.46,0,0,0-.52-1.54,17.78,17.78,0,0,0-.69-1.72c-.34-.51,0-1.2-.86-1.37a19.36,19.36,0,0,0-1.72-5.83c-.17-.52-.17-.69-.34-.86-.69-1.2-1.2-3.09-1.89-4.46-.34-.86-.86-1.72-1.2-2.57a13,13,0,0,1-1-2.75l-.69-.69a19.25,19.25,0,0,0-.51-2.23c-.52-1.54-1.54-3.26-1.2-5.49-1.37-2.75-3.09-5.15-3.6-8.75-1.2-1.37-1.54-3.26-2.4-5a12.25,12.25,0,0,1-1.37-2.57,12,12,0,0,1-.52-2.4c-.17-1,1-.69,1.2-1.37.17-.51.34-1.2.86-1.37a4.64,4.64,0,0,1,2.92.34c.86.34,3.6,2.57,5.66,1.2.17-.17.17-.34.52-.51a7.76,7.76,0,0,1,1.89-.51l2.06-.51c.86-.34,1.2-.69,1.89-.51a2.4,2.4,0,0,1,1.89,2.23c.34.34.86.51,1,.86.34.34.34,1,.86,1.2a2.38,2.38,0,0,1,0,1.54,15.49,15.49,0,0,0,1.54,1.72,16.82,16.82,0,0,0,1.37,3.09c.86,2.23,1.54,4.29,2.4,6.52a21.8,21.8,0,0,0,1,3.09,24.07,24.07,0,0,0,1.54,2.92c.34,1,.34,1.37.69,2.57.52,1.72,1.89,3.6,2.75,5.32a11.66,11.66,0,0,1,.51,1.37c.69,1.37,1.37,3.26,2.06,4.8a63.21,63.21,0,0,1,3.09,8.58,12.19,12.19,0,0,1,1.37,3.09,5.8,5.8,0,0,1,1,3.43c1.89,2.4,2.23,6.18,4.29,8.41,2.06-2.4,2.57-6.35,4.8-8.58-.17-.69.17-1.2.34-1.89.34-1,.51-1.54.86-2.4s.86-2.06,1.2-3.09.51-1.89,1-3.26c.51-2.06,2.4-4.29,2.92-6.86.69-.34.69-1.37,1.54-1.72a26.57,26.57,0,0,1,2.23-6.52,9.18,9.18,0,0,1,2.23-4.46c-.34-1.2.86-2.23,1.2-3.26.17-.34-.17-.86,0-1.37,0-.17.51-.69.51-.86.17-.34,0-.86.17-1.37,0-.17.52-.69.52-.69.34-1.37.34-2.92,1.54-3.95a4.51,4.51,0,0,1,.34-3.6c.17-.34.52-.52.52-1,.17-1.54-.52-3.43.17-5.32.69,0,.51-.69,1-1,.86-.52,2.23-.17,3.09-.86a11.58,11.58,0,0,0,6.18.51,5.45,5.45,0,0,1,1.54-.51,62.32,62.32,0,0,1,9.78.51c1.37,1.72,1.2,4.29.69,6.35C1291.79,421,1291.27,421.68,1291.1,422.54Z"/><path class="cls-58" d="M1322.67,514.17a10.46,10.46,0,0,1-2.06,3.6c-1.89.34-3.78,0-6.18.17a26.53,26.53,0,0,0-3.6.17,21.84,21.84,0,0,1-3.26.17c-.86-.17-1.37-.86-2.23-.86a9.45,9.45,0,0,1-1.54-1.2c0-1.72-.86-2.57-.86-4.46-.69-.86-1.72-1.37-2.4-2.4a12,12,0,0,1-.34-5.32c0-.52.34-.86.52-1.37a6.67,6.67,0,0,0,0-1.89c.17-.51,1.2-.69.69-1.2,1-.34,1.54-1.37,2.23-2.06,1.89-.17,2.92-1.2,4.46-2.23.17,0,.51-.51.51-.51.34,0,.69.17.86,0,.34-.17.51-.69.86-.86a19.7,19.7,0,0,1,3.6-.34,9,9,0,0,1,3.09.34c.86.34,1.37,1.37,2.06,1.89.34.17.69.17.86.34a6,6,0,0,1,1.72,1.37,6.38,6.38,0,0,1-.17,3.6,10.61,10.61,0,0,1,1.37,3.95c.17,1.2,1,3.26,1,4.46A14.21,14.21,0,0,1,1322.67,514.17Zm2.23-113.43c-.17,1.89,0,3.95-.17,5.32-.17.86-.17,4.46-.17,6.52,0,.52.34,1,.34,1.37-.17,2.4-1,4.12-.69,6.35,0,.69.17,1.54.17,2.92,0,.34-.34.86-.34,1.37,0,.69.52,1.37.52,2.23a17.61,17.61,0,0,1-.69,2.4c0,1,.34,2.06.34,2.75-.17,1.54-1,2.4-1,4.46.34.52.17,2.06,0,3.09-.17.69-.51,1.54-.69,2.4-.17,2.06.34,4.8.52,7.55,0,1.72.17,3.43,0,5.49,0,.51-.17,1-.17,1.72,0,2.75.17,5.66,0,8.58,0,1.54-.69,3.09-.69,4.63,0,.86.52,1.54.52,2.57a42.74,42.74,0,0,1-.34,6.35c-.17,1.54.17,3.09-.17,4.12-.17.86-1.37,2.06-2.23,2.92-1,.34-1.89-.34-3.09-.34-.86.17-.69.69-2.23.51-.69,0-1.37-.51-2.23-.51-.86-.17-1.72,0-2.4-.17-.69,0-1.37-.69-1.89-.86-1-.17-1.72,0-2.23-.34a2.42,2.42,0,0,0-1.37-1,17.25,17.25,0,0,0-.69-4.29c.51-2.06.86-3.78,0-6,.17-.69.51-1.2.69-1.89,0-.51-.17-.86-.17-1.37-.17-.51.17-1,.17-1.37,0-.51-.17-.86-.17-1.37s.34-1,.34-1.54c-.17-1-.69-1.89-.86-2.92,0-.69.34-.69.34-1.2a6,6,0,0,0-.17-1,1.07,1.07,0,0,1,.51-.86.8.8,0,0,0-.34-.86,43.16,43.16,0,0,0,.69-4.63c0-1.54-1-3.09-.17-4.46a5.81,5.81,0,0,1-1-2.57c0-.69.52-1.54.69-2.75,0-1-.69-2.92-.51-4.12a4.41,4.41,0,0,1,.86-2.4c-.17-.69-.34-1-.51-1.72a3.48,3.48,0,0,0-.17-.86,7.42,7.42,0,0,0,.17-.86c-.17-3.77.34-9.61-.52-14.07a2.7,2.7,0,0,0,0-1.2c-.34-1.54-.86-4.63-1.2-6.86.34-1.2,1-2.4,1-3.6a20.23,20.23,0,0,0-.86-1.89c-.69-2.57.17-5.66-.69-7.89a11.41,11.41,0,0,0,.69-1.89c0-.86-.34-1.72-.34-2.75a8.6,8.6,0,0,1,.86-2.23c1.89-.51,4.12-.34,5.83-1.2.51-.34,3.26-.17,3.6-.17h1.2c4.12.17,8.24.34,10.81,1.54a16.25,16.25,0,0,1,.86,5.66C1325.42,398.51,1324.91,399.54,1324.91,400.74Z"/><polygon class="cls-62" points="215.61 338.25 255.34 318.59 235.67 358.32 255.34 398.05 215.61 378.39 175.88 398.05 195.54 358.32 175.88 318.59 215.61 338.25"/><polygon class="cls-62" points="903.3 254.04 943.04 234.38 923.37 274.11 943.04 313.84 903.3 294.18 863.58 313.84 883.24 274.11 863.58 234.38 903.3 254.04"/><polygon class="cls-62" points="1194.82 178.22 1236.82 192.41 1194.82 206.6 1180.63 248.6 1166.44 206.6 1124.44 192.41 1166.44 178.22 1180.63 136.23 1194.82 178.22"/><polygon class="cls-63" points="972.13 50.79 1014.28 64.53 972.43 79.17 958.69 121.32 944.06 79.47 901.91 65.73 943.75 51.09 957.49 8.95 972.13 50.79"/><polygon class="cls-64" points="388.29 186.85 407.77 198.54 385.19 201.07 373.5 220.56 370.98 197.97 351.49 186.29 374.07 183.76 385.76 164.27 388.29 186.85"/><polygon class="cls-64" points="224.26 591.32 243.75 603 221.17 605.53 209.48 625.02 206.95 602.43 187.46 590.75 210.05 588.22 221.73 568.73 224.26 591.32"/><polygon class="cls-64" points="1371.03 564.21 1390.51 575.9 1367.93 578.43 1356.24 597.91 1353.72 575.33 1334.23 563.64 1356.81 561.12 1368.5 541.63 1371.03 564.21"/><polygon class="cls-62" points="188.88 506.8 198.45 505.55 191.6 512.35 192.85 521.91 186.05 515.06 176.48 516.32 183.33 509.52 182.08 499.95 188.88 506.8"/><polygon class="cls-62" points="109.34 482.1 110.81 498.54 99.68 486.36 83.24 487.82 95.42 476.69 93.96 460.26 105.09 472.44 121.52 470.97 109.34 482.1"/><polygon class="cls-62" points="1262.92 350.38 1264.38 366.81 1253.25 354.63 1236.82 356.1 1249 344.97 1247.53 328.54 1258.66 340.71 1275.1 339.25 1262.92 350.38"/><polygon class="cls-64" points="69.62 321.87 63.74 361.11 89.28 391.49 50.03 385.61 19.66 411.14 25.53 371.9 0 341.52 39.24 347.4 69.62 321.87"/><polygon class="cls-62" points="160.23 215.79 144.58 227.68 143.14 247.27 131.25 231.63 111.66 230.19 127.3 218.3 128.74 198.7 140.63 214.35 160.23 215.79"/><polygon class="cls-62" points="1043.83 301.09 1028.18 312.98 1026.74 332.58 1014.86 316.93 995.26 315.49 1010.9 303.6 1012.34 284.01 1024.23 299.65 1043.83 301.09"/><polygon class="cls-62" points="278.09 245.78 266.72 240.63 255.34 245.74 260.49 234.37 255.37 222.99 266.74 228.14 278.13 223.02 272.98 234.39 278.09 245.78"/><polygon class="cls-62" points="1373.73 377.9 1362.36 372.75 1350.98 377.87 1356.13 366.5 1351.01 355.11 1362.38 360.26 1373.77 355.15 1368.62 366.52 1373.73 377.9"/><polygon class="cls-64" points="212.87 156.91 221.95 115.86 185.7 94.54 227.56 90.48 236.64 49.42 253.43 87.98 295.28 83.92 263.8 111.8 280.59 150.36 244.35 129.03 212.87 156.91"/><polygon class="cls-64" points="744.11 182.63 753.19 141.57 716.95 120.25 758.8 116.2 767.88 75.14 784.67 113.69 826.52 109.64 795.04 137.52 811.83 176.07 775.59 154.75 744.11 182.63"/></g></g></g></svg>