<svg xmlns="http://www.w3.org/2000/svg" xmlns:xlink="http://www.w3.org/1999/xlink" viewBox="0 0 1660.72 1213.64"><defs><style>.cls-1{fill:none;}.cls-2{isolation:isolate;}.cls-3{fill:#48395f;fill-rule:evenodd;}.cls-4{fill:#4ac1f0;}.cls-5{fill:#af7d5c;}.cls-6{fill:#6f3e1b;}.cls-7{fill:#5d3211;}.cls-8{clip-path:url(#clip-path);}.cls-13,.cls-9{fill:#fff;}.cls-9{opacity:0.33;}.cls-10{clip-path:url(#clip-path-2);}.cls-11{fill:#f6921e;}.cls-12{fill:#faaf3b;}.cls-14{fill:#58595b;}.cls-15{fill:#7f9a41;}.cls-16{fill:#a96b3e;}.cls-17{fill:#90532b;}.cls-18{fill:#f48123;}.cls-19{fill:#e2bfb0;}.cls-20{fill:#252124;}.cls-21{fill:#e4a999;}.cls-22{fill:#ced1d0;}.cls-23{fill:#ffecdd;}.cls-24{fill:#81441e;}.cls-25{fill:#fdd9ba;}.cls-26{fill:#fcfdff;}.cls-27{fill:#367abe;}.cls-28{fill:#3c7ab6;}.cls-29{fill:#b82326;}.cls-30{fill:#2b6fb3;}.cls-31{fill:#1c64aa;}.cls-32{fill:#eb3432;}.cls-33{fill:#05ab8c;}.cls-34{fill:#008f76;}.cls-35{fill:#005b49;opacity:0.7;}.cls-36{fill:#55676f;}.cls-36,.cls-38,.cls-40{opacity:0.3;}.cls-37,.cls-38,.cls-39,.cls-40{fill:#231f20;stroke:#231f20;stroke-miterlimit:10;mix-blend-mode:multiply;}.cls-37,.cls-38{stroke-width:5.01px;}.cls-39,.cls-40{stroke-width:4.19px;}.cls-41{fill:#944f90;}.cls-42{fill:#b6dad0;opacity:0.6;}</style><clipPath id="clip-path"><path class="cls-1" d="M1292.47,158.25v167H1131.71v-167Zm-347.43,0v167H1105.8v-167ZM945,342V495.59H1105.8V342Z"/></clipPath><clipPath id="clip-path-2"><rect class="cls-1" x="1131.71" y="158.25" width="162.62" height="162.62"/></clipPath></defs><title>outcomeMoosh_9a</title><g class="cls-2"><g id="Layer_2" data-name="Layer 2"><g id="moosh"><path class="cls-3" d="M1025.41,1049.37c0,88.76-36,147-274.93,160.71-405,23.25-591.63-72-591.63-160.71s194-160.71,433.28-160.71S1025.41,960.61,1025.41,1049.37Z"/><rect class="cls-4" x="1131.71" y="342.05" width="160.76" height="166.99"/><path class="cls-5" d="M923.45,136.17V509.6h390.61V136.17ZM1105.8,495.59H945V342H1105.8Zm0-170.35H945v-167H1105.8Zm186.67,170.35H1131.71V342h160.76Zm0-170.35H1131.71v-167h160.76Z"/><path class="cls-6" d="M892.37,103.89V529.77h452.78V103.89ZM1314.06,509.6H923.45V137.51h390.61Z"/><rect class="cls-7" x="843.73" y="529.77" width="550.05" height="28.47"/><rect class="cls-4" x="1131.71" y="158.25" width="160.76" height="166.99"/><rect class="cls-4" x="945.04" y="158.25" width="160.76" height="166.99"/><rect class="cls-4" x="945.04" y="342.05" width="160.76" height="153.54"/><g class="cls-8"><polygon class="cls-9" points="900.43 602.87 1303.51 7.92 1338.92 18.02 935.85 612.97 900.43 602.87"/><polygon class="cls-9" points="872.68 594.95 1275.76 0 1293.33 5.01 890.26 599.97 872.68 594.95"/></g><rect class="cls-5" x="938.07" y="320.87" width="364.24" height="24.06"/><g class="cls-10"><circle class="cls-11" cx="1267.12" cy="209.29" r="75.68"/><rect class="cls-12" x="1261.55" y="90.02" width="11.14" height="29.26"/><rect class="cls-12" x="1209.23" y="104.04" width="11.14" height="29.26" transform="translate(103.47 623.41) rotate(-30.01)"/><rect class="cls-12" x="1170.93" y="142.34" width="11.14" height="29.26" transform="translate(452.29 1097.34) rotate(-60)"/><rect class="cls-12" x="1147.85" y="203.72" width="29.26" height="11.14"/><rect class="cls-12" x="1161.87" y="256.04" width="29.26" height="11.14" transform="translate(26.82 623.32) rotate(-30)"/><rect class="cls-12" x="1200.17" y="294.34" width="29.26" height="11.14" transform="translate(347.59 1201.92) rotate(-59.99)"/><rect class="cls-12" x="1261.55" y="299.3" width="11.14" height="29.26"/><rect class="cls-12" x="1313.87" y="285.28" width="11.14" height="29.26" transform="translate(26.78 699.79) rotate(-30)"/><rect class="cls-12" x="1352.17" y="246.98" width="11.14" height="29.26" transform="translate(451.96 1306.33) rotate(-59.98)"/><rect class="cls-12" x="1357.13" y="203.72" width="29.26" height="11.14"/><rect class="cls-12" x="1343.11" y="151.4" width="29.26" height="11.14" transform="translate(103.39 699.83) rotate(-30)"/><rect class="cls-12" x="1304.8" y="113.1" width="29.26" height="11.14" transform="translate(556.84 1201.92) rotate(-59.99)"/></g><path class="cls-13" d="M1163.87,795a77.86,77.86,0,0,0,77.86,77.86h252.41A77.86,77.86,0,0,0,1572,795v-7.41l88.72-25.48L1572,718.48V700.59a77.87,77.87,0,0,0-77.86-77.86H1241.73a77.87,77.87,0,0,0-77.86,77.86Z"/><path class="cls-14" d="M1208.87,729.25v-42h5.52v42Z"/><path class="cls-14" d="M1234.39,724.76h4.55v4.49h-5.58q-8.67,0-8.67-8.55V700.46h-4.3V696h4.3v-8.24h5.58V696h8.61v4.49h-8.61V720.7a4.39,4.39,0,0,0,.91,3.15A4.49,4.49,0,0,0,1234.39,724.76Z"/><path class="cls-14" d="M1242,681.79h5.52a25.79,25.79,0,0,1,.73,5.58q0,6.85-6.18,6.85v-2.67q2.91,0,2.91-3.15V687h-3Z"/><path class="cls-14" d="M1253,705.37a8.83,8.83,0,0,1,3.49-7.06,13.71,13.71,0,0,1,9-2.88q5.55,0,8.7,2.82a10.79,10.79,0,0,1,3.46,7.73H1272a6.37,6.37,0,0,0-1.88-4.49,6.74,6.74,0,0,0-4.88-1.7,7.46,7.46,0,0,0-4.91,1.48,4.74,4.74,0,0,0-1.79,3.82,4,4,0,0,0,2,3.61,14.52,14.52,0,0,0,4.91,1.85q2.88.58,5.76,1.33a10.41,10.41,0,0,1,4.91,2.85,8.18,8.18,0,0,1,2,5.94,7.88,7.88,0,0,1-3.48,6.49,14.62,14.62,0,0,1-9.06,2.64,13.56,13.56,0,0,1-8.94-2.79,10.33,10.33,0,0,1-3.67-7.7h5.7a6.08,6.08,0,0,0,2,4.46,7.33,7.33,0,0,0,5.09,1.67,8.27,8.27,0,0,0,5.09-1.39,4.26,4.26,0,0,0,1.85-3.55,4.32,4.32,0,0,0-1.45-3.42,8.07,8.07,0,0,0-3.64-1.76q-2.18-.48-4.76-1.15t-4.76-1.42a7.72,7.72,0,0,1-3.64-2.64A7.49,7.49,0,0,1,1253,705.37Z"/><path class="cls-14" d="M1309.79,696v5.39q3.39-5.94,10.85-5.94a12.56,12.56,0,0,1,9.21,3.67q3.7,3.67,3.7,10.46v19.7h-5.46V710.46q0-5-2.42-7.64a8.7,8.7,0,0,0-6.7-2.61,8.8,8.8,0,0,0-6.73,2.61q-2.46,2.61-2.46,7.64v18.79h-5.52V696Z"/><path class="cls-14" d="M1344.73,725.07q-4.58-4.73-4.58-12.42t4.79-12.46a17.51,17.51,0,0,1,24,0q4.79,4.76,4.79,12.43a16.36,16.36,0,0,1-5,12.42,17.05,17.05,0,0,1-12.21,4.76A15.68,15.68,0,0,1,1344.73,725.07Zm11.79.18a11.17,11.17,0,0,0,8.09-3.36q3.42-3.36,3.42-9.3t-3.27-9.27a10.75,10.75,0,0,0-8-3.33,10.36,10.36,0,0,0-7.85,3.33q-3.15,3.34-3.15,9.3t3,9.3A10,10,0,0,0,1356.52,725.25Z"/><path class="cls-14" d="M1391.55,724.76h4.55v4.49h-5.58q-8.67,0-8.67-8.55V700.46h-4.3V696h4.3v-8.24h5.58V696H1396v4.49h-8.61V720.7a4.39,4.39,0,0,0,.91,3.15A4.49,4.49,0,0,0,1391.55,724.76Z"/><path class="cls-14" d="M1438.16,695.43a15.1,15.1,0,0,1,11.36,4.7q4.51,4.7,4.52,12.3a17.59,17.59,0,0,1-4.55,12.49,14.85,14.85,0,0,1-11.33,4.88,13.5,13.5,0,0,1-7.43-2,13.66,13.66,0,0,1-4.88-5.3v6.79h-5.52V684.4h5.52v18.24a13.53,13.53,0,0,1,12.3-7.21Zm-1.06,29.64a10.55,10.55,0,0,0,7.94-3.48,12.76,12.76,0,0,0,3.3-9.15q0-5.67-3.3-8.94a10.87,10.87,0,0,0-7.94-3.27,10.68,10.68,0,0,0-7.94,3.39,14,14,0,0,0,0,18A10.64,10.64,0,0,0,1437.1,725.07Z"/><path class="cls-14" d="M1474.89,729.79a15.31,15.31,0,0,1-11.64-4.73q-4.49-4.73-4.49-12.49t4.55-12.46a15.68,15.68,0,0,1,11.79-4.7q7.24,0,11.64,4.46a15.5,15.5,0,0,1,4.39,11.36,20.8,20.8,0,0,1-.24,3.27h-26.49a11.43,11.43,0,0,0,3.12,7.85,10,10,0,0,0,7.36,2.88,10.3,10.3,0,0,0,5.73-1.52,9,9,0,0,0,3.42-4H1490a15.27,15.27,0,0,1-5.42,7.21A15.8,15.8,0,0,1,1474.89,729.79Zm7.46-26.94a10.87,10.87,0,0,0-14.67-.06,11.28,11.28,0,0,0-3.21,7.73h20.91A10.39,10.39,0,0,0,1482.35,702.85Z"/><path class="cls-14" d="M1500.35,724.91a17.58,17.58,0,0,1-4.55-12.49q0-7.61,4.52-12.3a15.1,15.1,0,0,1,11.36-4.7,13.65,13.65,0,0,1,7.42,2,13.11,13.11,0,0,1,4.82,5.21V684.4h5.58v44.85h-5.58v-6.79a13.21,13.21,0,0,1-4.82,5.3,13.5,13.5,0,0,1-7.42,2A14.85,14.85,0,0,1,1500.35,724.91Zm20.27-3.24a14,14,0,0,0,0-18.06,10.69,10.69,0,0,0-7.94-3.39,10.88,10.88,0,0,0-7.94,3.27q-3.3,3.27-3.3,8.91a12.76,12.76,0,0,0,3.33,9.15,10.82,10.82,0,0,0,15.85.12Z"/><path class="cls-14" d="M1219.78,800.53h4.55V805h-5.58q-8.67,0-8.67-8.55V776.22h-4.3v-4.49h4.3v-8.24h5.58v8.24h8.61v4.49h-8.61v20.25a4.39,4.39,0,0,0,.91,3.15A4.49,4.49,0,0,0,1219.78,800.53Z"/><path class="cls-14" d="M1235.85,765.31a3.63,3.63,0,0,1-2.67,1.09,3.53,3.53,0,0,1-2.64-1.09,3.68,3.68,0,0,1-1.06-2.67,3.73,3.73,0,1,1,6.36,2.67Zm-5.46,39.7V771.74h5.52V805Z"/><path class="cls-14" d="M1250.51,771.74v5.39q3.39-5.94,10.85-5.94a13.21,13.21,0,0,1,6.91,1.85,11.58,11.58,0,0,1,4.67,5.36,13.6,13.6,0,0,1,4.94-5.3,13.37,13.37,0,0,1,7.12-1.91,12.71,12.71,0,0,1,9.33,3.67q3.7,3.67,3.7,10.46V805h-5.46V786.22q0-5-2.45-7.64a9.91,9.91,0,0,0-13.4,0q-2.46,2.61-2.46,7.64V805h-5.46V786.22q0-5-2.42-7.64a8.7,8.7,0,0,0-6.7-2.61,8.8,8.8,0,0,0-6.73,2.61q-2.46,2.61-2.46,7.64V805H1245V771.74Z"/><path class="cls-14" d="M1320.76,805.56a15.31,15.31,0,0,1-11.64-4.73q-4.49-4.73-4.49-12.49t4.55-12.46a15.68,15.68,0,0,1,11.79-4.7q7.24,0,11.64,4.46A15.5,15.5,0,0,1,1337,787a20.8,20.8,0,0,1-.24,3.27h-26.49a11.43,11.43,0,0,0,3.12,7.85,10,10,0,0,0,7.36,2.88,10.3,10.3,0,0,0,5.73-1.52,9,9,0,0,0,3.42-4h5.94a15.27,15.27,0,0,1-5.42,7.21A15.8,15.8,0,0,1,1320.76,805.56Zm7.46-26.94a10.87,10.87,0,0,0-14.67-.06,11.28,11.28,0,0,0-3.21,7.73h20.91A10.39,10.39,0,0,0,1328.22,778.62Z"/><path class="cls-14" d="M1371.37,804.47l-13.15-32.73h6.06l10.18,26.91,10.36-26.91h5.7l-20.06,48.85h-5.7Z"/><path class="cls-14" d="M1409.74,805.56a15.31,15.31,0,0,1-11.64-4.73q-4.49-4.73-4.49-12.49t4.55-12.46a15.68,15.68,0,0,1,11.79-4.7q7.24,0,11.64,4.46A15.5,15.5,0,0,1,1426,787a20.8,20.8,0,0,1-.24,3.27h-26.49a11.43,11.43,0,0,0,3.12,7.85,10,10,0,0,0,7.36,2.88,10.3,10.3,0,0,0,5.73-1.52,9,9,0,0,0,3.42-4h5.94a15.27,15.27,0,0,1-5.42,7.21A15.8,15.8,0,0,1,1409.74,805.56Zm7.46-26.94a10.87,10.87,0,0,0-14.67-.06,11.28,11.28,0,0,0-3.21,7.73h20.91A10.39,10.39,0,0,0,1417.19,778.62Z"/><path class="cls-14" d="M1443.74,800.53h4.55V805h-5.58q-8.67,0-8.67-8.55V776.22h-4.3v-4.49h4.3v-8.24h5.58v8.24h8.61v4.49h-8.61v20.25a4.39,4.39,0,0,0,.91,3.15A4.49,4.49,0,0,0,1443.74,800.53Z"/><path class="cls-14" d="M1466.23,801.47a3.52,3.52,0,1,1-1-2.52A3.42,3.42,0,0,1,1466.23,801.47Zm-5.94-9-.67-32.79h5.76l-.61,32.79Z"/><path class="cls-15" d="M1139.76,866c1.9.3,3.8.64,5.7,1v-2.7Z"/><path class="cls-16" d="M1007.13,747.91c-1,.72-2.08,2-3.14,2.07-47.61.93-78.74,28.2-104.05,64.85L886.5,838.57C866,871.5,867.36,908.15,867.83,944.86c.58,45,.25,90.1,0,135.15-.85,10.17-.12,30.67-.12,37,0,20,1.34,40.05-.43,59.86-.22,2.43-.31,4.74-.29,6.94,8.7,4.92,17.6,9.85,27.11,12.89,1.58.51,3.16.95,4.73,1.38l.35-.49c-4.28-16.53.46-33.68-1-50.41q-.23-87-.46-174C886.56,906,899,841,951.83,791.28c2.5-4.79,6.77-4.56,11.82-7.88l-.07.14,4-3.74c20-5.16,38.83-16.32,60.71-11.42C1022.91,759.84,1011.63,757.38,1007.13,747.91Z"/><path class="cls-17" d="M1030.5,796.17a2.74,2.74,0,0,1,.73-1.85q-.16-12-.24-24.05l-2.7-1.89c-62-13.89-116,52-129.48,105.89-8.09,32.34-6.53,66.36-1.13,99,4.37,3,4.08,7.6,4.08,12.07q0,75.76,0,151.51c0,3.88-.13,7.71-3.62,10.37,1.5,16.72-3.25,33.88,1,50.41,4.5-6.12,9.76-11.6,14.54-17.52q-.19-40-.33-80c0-5-1.11-10.39,3.29-14.45,0-2.67.14-5.23.29-7.74a2.7,2.7,0,0,1-1.05-2.34c.62-10.77-2.82-24.73,2.53-34.76,2.77-5.19,8.28-9.13,12-13.61,1.76-2.11,3.44-4.28,5.07-6.48q1.68-2.47,3.45-4.83c1.72-2.51,3.4-5,5-7.65a2.11,2.11,0,0,1,2-1c11.7-13.54,25.1-25.46,36.67-41l23.46-27.63c.13-.63.07-1.42.43-1.85a15.93,15.93,0,0,1,2.34-1.95c.7,23.17,5,46.47-2.51,69.34-3.83,17.56-3.37,35.43-3.94,53.22,7.41-7.12,15.56-13.87,22.95-21.17a44.37,44.37,0,0,0,1.47-11.84c.19-32.48,1.25-75,2-108.35q-.09-2.52-.17-5c-.39-.89-.36-3.4-.16-6.34-.16-7.68-.21-15.37,0-23.11C1029.38,853.16,1030.26,824.56,1030.5,796.17ZM937.1,962.06c-4.18,9-7.86,18.55-20.18,18.83-7.76-27.34-2-55.24-3.2-82.86-.4-9.62-4-20.31,3.54-29.22q.19,52.39.38,104.77c6.77-3.26,8.6-14,18.66-12.31l2.19-1.46Zm69.07-77.8c-3.18-.11-6-.84-7.65-4-7.75-11.12-2.21-23.67-3.79-35.47-2.25-16.81,10.59-30.4,1-46.53-1.5-2.51-3.51.72,0,0,5.48-1.13,2.23-6.89,3-3l7.56-4A219.34,219.34,0,0,1,1006.17,884.25Z"/><path class="cls-18" d="M131.39,652c6.35-7.76,17.67,0,24-7.68,16.1,1.68,22.11-11.32,30.44-20.94l3.9-2.3c11.74-7.45,36.7-29,49.88-34.36,1.1,2.19.36,16.15,0,18.07-5.89,31.3,3.59,53.37,11.21,80.66.89,3.17,3.91,5.75,7,10.08,4.79-17.26,9.28-14,16.19-2.65,5,8.24,7.14,27.1,24.5,11.86.14-.12,2.63,2.44,4,3.74.23,8.83-3.26,18.49,5.63,25.4q1.91,4.68,3.83,9.36l-25.51-10.27-20.15-14.79c-11,1.66-18.74-10.33-30.09-7.3l-11.8-1.16c-7.72-18.14-26.24-15.72-40.32-22.34,6.32,15.83,11,31.77,24.28,42.6-.53,10.93,7.45,17.65,12.74,25.7,4.57,7,7.15,16.46,18.48,15.38,1,9.11,7.39,11.91,15.2,13.08a16.19,16.19,0,0,1,.59,3.29c-10.86.2-18.39,14.25-30.93,7.46l-10.66-7.26c-10.2-16-21.13-31.63-28.65-49.22-1.56-5.35-2-11.47-4.89-15.9-8.82-13.3-4.92-34.57-25.22-40.64l-23.7-18.27Z"/><path class="cls-19" d="M308.19,733.84c-8.89-6.91-5.4-16.57-5.63-25.41,28-30.07,50.62-7.93,74,9.87-5.21-17.94-10.31-33.66-17.26-48.52-4.2-9-8.67-15.05-9.56-27.38-2.39-32.79,1.46-65.43-1.43-98,10.44.74,16.28-10.4,26.49-10.26,25.81,3,49.43-3.88,74.54-14.63l-21.86-9.84c25.51-8.58,47.88,3.58,72.44,1-12.52-7.14-23.08-14.51-26.1-28.3,6.43-.94,12.4.25,18.8,1.86,24.8,6.21,38.58,25.21,53.08,43.59.92,16.17,14.62,20.87,25.35,29.47.64-8,1.21-14.83,1.72-21.65.59-8-.39-15.33-7.57-20.7-8.82-6.58-11.88,4.81-18.31,5.46l-4.33-23.23c2.3,1,4.52,2.59,6.92,3,30,4.61,40.52,20.37,33.15,50.09-.76,3.06-1.77,6.06-2.65,9.09-.42.34-1.26.84-1.2,1a18.47,18.47,0,0,0,1.39,2.51l1-.25c8.83,16.59-5.48,28.72-8.31,43.05-5.24,5.66-11.07,11.19-4.37,19.52q.16,1.87.29,3.74c4.33,13.44,11.5,5.55,17,1.64,3.66-2.61,3.23-9.82,9.9-9.93-2.42,10.56-3.6,21.6-7.51,31.58-9,23-15,49.45-45.92,53.83-6.56.93-10.58,5.46-13.65,9.78C513,737.8,489.11,746.42,466,756.66c-26.11,11.59-52.69,8.53-79.46,3.71-6.94-2.68-10.69-8.88-14.62-14.4-5.3-7.46-10.37-4.35-15.92-1.2.84-5.84-13.22-7.72-3.19-17.43,4.46-4.32.11-19.8-7.84-18.91-10.12,1.13-26.09-4.8-30.37,11.83C313.28,725.49,315.85,731.82,308.19,733.84ZM414.61,632.18c.37,6.69-10,14.25.83,19.95C425.93,657.66,425,645,430,641.66c2.87-1.94,4.33-5.95,6.43-9,1.18-13.85,1.82-27.41-17.92-33C422.87,612.38,421.89,622.86,414.61,632.18ZM506.83,547c-7.29,2.43-18.55-3.86-21.52,5.51-1.62,5.12,5.35,12.79,13,15.19,5.7,13,15.61,4.93,20.44,1.52,6.56-4.63,16.05-11.22,14-20.74-1.29-5.89-9-10.36-13.84-15.47C520.35,542.4,506.78,538.84,506.83,547ZM365.49,593.41c-1.6-11.6,5.86-22.11,4.63-37.63C358.28,569.72,356.32,580.9,365.49,593.41Z"/><path class="cls-20" d="M545.66,527.89c-14.5-18.39-28.28-37.38-53.08-43.59-6.4-1.6-12.37-2.79-18.8-1.86,3,13.79,13.58,21.16,26.1,28.3-24.55,2.53-46.93-9.63-72.44-1l21.86,9.84c-25.1,10.76-48.73,17.6-74.53,14.64A254.34,254.34,0,0,0,395.68,515c8.88-8.93,13.75-21.77,26-27.38,19.42-8.9,30.57-24.43,35.89-44.65,10.41-27.48,30.05-18.6,49.08-12.6,1.69.53,3.77-.14,5.67-.25,9.48,14,14.75,31.17,31.48,39.7,2.91,1.48,8.35,5.61,4.29,10.67-1.08,1.34-5.7-.18-8.7-.38L535.29,479l0,4.45,7.26,13.76,4.33,23.23Z"/><path class="cls-21" d="M386.58,760.37c26.77,4.82,53.35,7.88,79.46-3.71,23.07-10.24,46.94-18.85,62.51-40.79,3.07-4.32,7.09-8.85,13.65-9.78,31-4.38,36.89-30.8,45.92-53.83,3.91-10,5.09-21,7.52-31.58,4-6.75,9.61-11.79,16.14-15.93,12.74,13.93,8.75,30.58,7.61,46.77,1.14,4.58,4.35,7.38,8.26,9.56-9.21,9.31-24,10.42-31.9,21.63l-11.65,11.67c-3.61,3-3.71,7.26-4.15,11.4-3.86,4.7-5.42,13-12.36,13.08-14.95.15-21.81,11.08-30.24,20.12-8.94,9.59-17.61,19.43-26.4,29.16-15.34,4.58-7.75,27.61-24.81,30.81-3.15-17.82-10.54-23.31-30.78-17.68-14.32,4-27.19,2.15-40.62-1.38l-12-4.89C398.12,769.27,389.85,767.57,386.58,760.37Z"/><path class="cls-22" d="M624.63,566.15c-.11-7.68-5.72-8.75-7.61-6.52-6.92,8.16-13.54,16.9-18.31,26.41-2.54,5.06,5.12,6.2,6.89,4.26C612.81,582.38,619,573.51,624.63,566.15Z"/><path class="cls-19" d="M627.64,661.07c-3.92-2.18-7.12-5-8.26-9.56,19.17-4.16,38.78-7,57.34-13,9.89-3.21,19.45-1.56,27.74-.17,10.05,1.68,14,12,7.57,22.68-12.81-2.82-19.87,10.32-32.19,11.38-7.57.65-19.26,2.84-22.06,14.44-8.76,5.87-13.72,1.84-16.88-6.56C638.07,672.74,636.22,664.6,627.64,661.07Z"/><path class="cls-17" d="M512.3,430.1c-1.9.11-4,.78-5.67.25-19-6-38.67-14.88-49.08,12.6,2.81-16.39,7.86-33.42-12.36-43.22a21.38,21.38,0,0,0-.89-3.34c10.69-.14,20.37-2.7,27.45-11.47C491.17,394.68,505.09,409.39,512.3,430.1Z"/><path class="cls-23" d="M618.94,528.06c2.35.28,6.74,1.34,5.12,3.26-21.8,25.82-33.88,57.39-51.3,85.76q0-5.69,0-11.38c2.83-14.34,17.14-26.46,8.31-43.05,16.34-1.29,20.86-16.17,29.35-26.2C613.11,533.31,613.31,528.17,618.94,528.06Z"/><path class="cls-21" d="M580.11,562.89a18.47,18.47,0,0,1-1.39-2.51c-.06-.15.78-.66,1.2-1A8.3,8.3,0,0,1,580.11,562.89Z"/><path class="cls-16" d="M437.27,961c-.65,5.26-.77,10.45,1.85,15.25-25.86,1.76-50.31-6.83-75.35-10.69-51.71-8-103.16-17.67-154.71-26.67-4.92-6.95-13.9-3.35-19.84-7.66-5.5,4.36-3.41,10.52-3.44,16-.16,25.39,0,50.79,0,76.19l.26,51.36c-23.24,6.18-31.27,1-31.26-20.23q.12-186.3.26-372.61c20.3,6.07,16.4,27.33,25.22,40.64,2.94,4.43,3.33,10.55,4.89,15.9q.53,41,1.06,82c-3.33,16.21-13,30.91-11.51,48.27-5.72,24.92,7.84,37.74,30.88,43.61,3.72.95,7.43,2,11.2,2.74,62.94,11.75,126,23,188.76,35.58C416.21,952.68,429.18,950.22,437.27,961Z"/><path class="cls-17" d="M186.09,1074.69q-.13-25.68-.27-51.35c5.28-4.41,3.54-10.5,3.55-16,.08-25.38-.08-50.76-.15-76.14,5.94,4.31,14.92.71,19.84,7.66-.25,35.33-.63,70.65-.7,106C208.32,1060.5,201.83,1070.93,186.09,1074.69Z"/><path class="cls-16" d="M986.64,1049.64a53.91,53.91,0,0,1,8.59,3.75,53.25,53.25,0,0,0,7,3.22h.27c.53-17.54.14-35.14,3.91-52.44q-.13-32.78-.25-65.55l-23.46,27.63q.5,13.24,1,26.47C989.93,1011.42,986.22,1030.64,986.64,1049.64Z"/><path class="cls-16" d="M998.65,795.29l7.56-4q0,46.47,0,92.94c-3.18-.11-6-.84-7.65-3.95Q998.59,837.8,998.65,795.29Z"/><path class="cls-24" d="M898.15,1147.23q-.23-87-.46-174c4.37,3,4.08,7.6,4.08,12.07q0,75.76,0,151.51C901.76,1140.74,901.63,1144.56,898.15,1147.23Z"/><path class="cls-24" d="M916.92,980.88c-7.76-27.34-2-55.24-3.2-82.86-.4-9.63-4.06-20.34,3.57-29.26l0,0q.19,52.42.37,104.83Q917.27,977.22,916.92,980.88Z"/><path class="cls-24" d="M992.73,800.14c5.24,14.47,0,29.92,2,44.69,1.58,11.79-4,24.34,3.79,35.47q.06-41.88.13-83.76C996.65,797.7,994.67,798.9,992.73,800.14Z"/><path class="cls-24" d="M913.72,1180.11c1.29-1.6,2.54-3.24,3.74-4.93q-.37-44.78-.78-89.55c-4.39,4.06-3.3,9.44-3.29,14.45Q913.47,1140.1,913.72,1180.11Z"/><path class="cls-24" d="M1006.17,884.25q0-46.47,0-92.94A219.35,219.35,0,0,1,1006.17,884.25Z"/><path class="cls-24" d="M1006.4,1004.17q-.13-32.78-.25-65.55c.13-.63.07-1.42.43-1.85a15.93,15.93,0,0,1,2.34-1.95C1009.61,958,1013.95,981.3,1006.4,1004.17Z"/><path class="cls-16" d="M916.92,980.88q.36-3.66.71-7.31c6.78-3.26,53.45-59.72,63.5-58l-44,46.5C932.92,971.06,929.24,980.61,916.92,980.88Z"/><path class="cls-24" d="M917.29,868.76l.9-1.66-.92,1.63Z"/><path class="cls-16" d="M995.69,888.48c.73-.49-9.06,21.8-8.33,21.32-.46.75-56.92,51.51-57.37,52.26Z"/><path class="cls-24" d="M963.58,783.54l4-3.74Z"/><path class="cls-17" d="M984.31,1048.94a2.64,2.64,0,0,1,1.43.16,8,8,0,0,1,.89.45c-.4-19,3.28-38.16-3-56.83C984.49,1011.43,980.21,1030.41,984.31,1048.94Z"/><path class="cls-17" d="M445.19,399.74a21.24,21.24,0,0,0-.89-3.35c-10.83-5.14-22-9.38-33.89-11.18-17.81,6.79-36.76,4.18-55.09,6.64a5.14,5.14,0,0,0-6.84-1.43l0,0-4.52-2.3-11.42,4.13c-4.62,2.88-5.15,6.19-4.33,9.63L326.41,403a4.53,4.53,0,0,0-4.57-.84c-7.06,2.74-13.36,9.19-19.26,14.29-1.8,1.09-3.44,2.1-4.68,3-7.36,5.21-15.41,10.06-21.74,16.5a5.22,5.22,0,0,0-1.48,3c-1.33,1.18-2.68,2.33-4,3.56a5.4,5.4,0,0,0-1.53,2.47c-.59-.28-1.18-.59-1.76-.94-22.92,11.41-31.17,35.86-47.33,53.28-1.25,9.36-2.51,18.72-3.73,28.09-2.42,18.63,2.23,34.15,19.49,44.09l18,6.63a180.27,180.27,0,0,1,41-.92,4.08,4.08,0,0,0,2.88-.91c9.39-17.87,27.54-28.22,38.28-45.28,6.68-10.61,13.77-21.63,30.22-23.13,8.49-.78,16.15-11.61,24-18.11,14-11.57,21.9-28.94,42-35.2C447.37,447.86,451.51,422.25,445.19,399.74ZM297.54,447c-4.21-.55-8.51-.14-12.79.08,4.52-2.75,8.91-5.7,13.64-8a4.6,4.6,0,0,0,2.82-4.45c4.67-3.38,9.16-7,13.44-10.28a5,5,0,0,0,5.77,2.17,68.08,68.08,0,0,0,9-3.7C327.47,447.43,323.77,449.8,297.54,447Z"/><path class="cls-16" d="M267.43,444.06c-22.93,11.4-31.18,35.85-47.33,53.27-8.71.26-12.74,8.42-14.6,13.52-6.56,18-31.18,28-23.14,52.11l3.52,60.39c-8.33,9.62-14.34,22.61-30.44,20.93q-.29-48.21-.59-96.43c-.12-18.19,11.41-31.39,21.81-43.59C200.38,476.41,224,448,255.25,427.79l9.07,4C262.12,436.7,267,439.8,267.43,444.06Z"/><path class="cls-17" d="M235.85,569.51c-11.58,6,11.87,9.71,3.8,17.17-13.18,5.39-38.13,26.91-49.88,34.37,0-21.31,0-42.61,0-69.79L182.35,563c-8-24.15,16.58-34.16,23.14-52.11,1.86-5.1,5.89-13.25,14.6-13.52-1.25,9.36-2.52,18.72-3.73,28.09C213.94,544.05,218.59,559.57,235.85,569.51Z"/><path class="cls-23" d="M255.45,787.39a16.24,16.24,0,0,0-.59-3.3l4.6-16,50.07-7.67C304,777,295.27,792,286.16,806.84c-13.69,2.85-15.68-14-26.57-15.81Z"/><path class="cls-21" d="M308.19,733.84c7.66-2,5.09-8.35,6.44-13.57,4.28-16.63,20.25-10.7,30.37-11.83,8-.89,12.31,14.59,7.84,18.91-10,9.71,4,11.59,3.19,17.43a1.46,1.46,0,0,1-2,.81l-13.26,3.21-20,.21a6.07,6.07,0,0,0-3.47.35l-5.3-6.16Z"/><path class="cls-23" d="M236.27,710.84c11.36-3,19.07,9,30.1,7.3-9.18,17.49-27.07,30.57-26.71,52.88-11.32,1.08-13.91-8.34-18.48-15.38C217.76,737.86,233.92,726.68,236.27,710.84Z"/><path class="cls-25" d="M239.65,771c-.35-22.3,17.54-35.39,26.71-52.88l20.14,14.79c-11.22,10-21.58,20.7-27,35.15l-4.6,16C247,782.93,240.63,780.13,239.65,771Z"/><path class="cls-17" d="M186.26,820.36q-.53-41-1.06-82c7.52,17.59,18.45,33.19,28.66,49.21l-13.5,15.08Z"/><path class="cls-25" d="M259.46,768.08c5.47-14.44,15.83-25.12,27-35.15L312,743.2l5.29,6.15c-.13,5.42-.31,10.8-7.78,11.06Z"/><path class="cls-23" d="M208.44,729.94c-13.3-10.83-18-26.77-24.28-42.6,14.08,6.62,32.6,4.2,40.32,22.34C212.16,710.92,210.4,720.51,208.44,729.94Z"/><path class="cls-22" d="M200.36,802.67l13.5-15.08,10.65,7.26c7.7,12,22.48,16.08,30.84,27.37-10.36,8.09-17.88-4.31-27.19-3.77h0c-.15-5.18-2.78-7.71-8-7.44C212.41,810.93,208.43,801.93,200.36,802.67Z"/><path class="cls-25" d="M208.44,729.94c2-9.43,3.72-19,16-20.26l11.8,1.15c-2.35,15.84-18.51,27-15.1,44.8C215.89,747.58,207.91,740.87,208.44,729.94Z"/><path class="cls-18" d="M255.35,822.22c-8.36-11.29-23.13-15.34-30.84-27.37,12.55,6.79,20.07-7.26,30.93-7.46l4.14,3.64c-6,5.41-5.52,10.71,0,16.16,4.19,4.11,7,9,7.25,15.05Z"/><path class="cls-24" d="M182.35,563l7.41-11.71c0,27.18,0,48.49,0,69.79l-3.9,2.3Z"/><path class="cls-26" d="M200.36,802.67c8.07-.74,12.05,8.26,19.79,8.33.48,4.83,3.09,7.36,8,7.44h0c3.56,13,13.12,17.76,25.57,18,2.84,0,8.85-1.86,7.13,1.63-5.6,11.36,4.82,12.2,9.27,14.06,37.17,15.54,74.69,30.27,116.15,28.52l12.3,15.44c8.28,6.95,18.1,2.74,27.19,3.55,7.52.67,15.5-.81,19.49,8l-4.81,22.84C408.55,933.44,379.07,920,348,916.29c-20.73-2.46-42.48-9.61-62.39-10.27-16.2-.54-32.73-7.58-49.35-2.75-5,1.44-13.18.41-14.16-3.27-2.71-10.21-9.69-9.56-15.82-7.29-8.63,3.19-11.72-2.35-17.58-6.14-7.38-4.76-5.68-15.06-14-17.94-1.51-17.37,8.18-32.06,11.51-48.27Z"/><path class="cls-27" d="M592.09,845.53c-7.07,7.22-23.73,8.4-18.57,23.25,4.07,11.72,14.86,7.88,26.61,4.31-25.2-5.27-5.84-18.48-8.06-27.58l.9-1.62Z"/><path class="cls-22" d="M174.75,868.63c8.3,2.88,6.6,13.18,14,17.94,5.86,3.78,8.95,9.33,17.58,6.14,6.13-2.27,13.11-2.91,15.82,7.29,1,3.68,9.19,4.71,14.16,3.27,16.63-4.83,33.16,2.21,49.35,2.75,19.91.66,41.66,7.81,62.39,10.27,31,3.69,60.52,17.16,92.43,14.22-.77,10.18,2.72,20.81-3.19,30.45-8.08-10.74-21.06-8.28-31.67-10.41C342.82,938,279.78,926.72,216.83,915c-3.77-.7-7.48-1.79-11.2-2.74C182.59,906.37,169,893.55,174.75,868.63Z"/><path class="cls-22" d="M445.27,907.67c-4-8.84-12-7.37-19.49-8-9.09-.81-18.91,3.4-27.19-3.55,13.34.25,14.81-11.27,13.74-18.75-1.65-11.45,4.86-19.84,10.33-24.86,16.46-15.13,32.9-30.81,52.84-41.76,4.47,9.16,12.37,18.29.34,27.66-7.13,5.1,1.83,9.28.8,14-7.81,14.45-20.84,26.1-23.3,43.43Z"/><path class="cls-28" d="M453.33,895.82c2.46-17.32,15.49-29,23.29-43.42l18.46-2.69v0c4,8.92,11.52,8,19.12,7,.89,2.71.67,6.35,5,6.17a1.81,1.81,0,0,0,1.25-1.24c.17-4.35-3.49-4.11-6.19-5-1.23-11.41,5.86-14.78,15.32-15.87L534,853.13l0,4c-6.25,14.56-19.79,9.7-30.81,11.55-16-7.89-27.07,1.48-36.72,11.78C462,885.3,459.7,892.32,453.33,895.82Z"/><path class="cls-27" d="M918.79,746.92c-.52.29-1.07.82-1.57.78s-.92-.67-1.38-1Z"/><path class="cls-18" d="M475.48,810.72c-19.94,10.94-36.38,26.62-52.83,41.75-5.46,5-12,13.42-10.33,24.86,1.08,7.48-.39,19-13.74,18.75l-12.3-15.44c-8.86-16.59-24-20.94-41.37-24.29-18-3.47-38.38-.15-53.52-14.59,4.41-3.17,15.76,6.51,14.22-7.68l0-4.11,7.66.1c3.49,3.55,7.07,6,12.66,0H313.37l3.91-7.8,15.45,3.47c7.71,2.85,17.13-3.45,23.89,4.48,2.59,6.42,6.68,10.92,14.15,11.16,9.41,0,7.87,21.56,21.35,11.81,12.31-8.9,4.84-20.87,1.64-31.55-2-6.67-8.91-6.4-14-8.74-5.78-2.67-10.06-4.59-9.33-13.73,1.75-21.91-3.89-24.94-26.91-17.64-3.24-3-6.18-6.54-11.34-5.6-.46-10.38-13.46-15.42-11.43-26.86l20-.22c5.83,4.79,9.91,2.26,13.26-3.21a1.46,1.46,0,0,0,2-.81c5.55-3.15,10.62-6.26,15.93,1.2,3.93,5.52,7.68,11.72,14.62,14.4,3.27,7.2,11.54,8.9,16.14,14.64-7.58,20.88-.13,50.55,14.59,57.89,2.13-17.83-.36-35.41-2.57-53,13.42,3.53,26.3,5.36,40.62,1.38,20.24-5.64,27.63-.15,30.78,17.67A24,24,0,0,0,475.48,810.72Z"/><path class="cls-29" d="M348.27,544.43c-11.32,2.1-18,10.2-25.08,18.35-6.41,7.33-15.72,10.43-25.46,11.54,9.39-17.87,27.54-28.22,38.28-45.28,6.68-10.61,13.77-21.63,30.22-23.13,8.49-.78,16.15-11.61,24-18.11,14-11.57,21.9-28.94,42-35.2,15.16-4.73,19.3-30.34,13-52.85,20.22,9.8,15.17,26.83,12.36,43.22-5.32,20.21-16.47,35.74-35.89,44.64-12.24,5.61-17.1,18.44-26,27.38a254.34,254.34,0,0,1-20.91,19.2C364.55,534,358.71,545.16,348.27,544.43Z"/><path class="cls-21" d="M545.66,527.89l1.18-7.41c6.43-.65,9.49-12,18.31-5.46,7.19,5.37,8.17,12.67,7.57,20.7-.5,6.82-1.08,13.63-1.72,21.65C560.28,548.76,546.58,544.05,545.66,527.89Z"/><path class="cls-23" d="M506.83,547c0-8.18,13.52-4.62,12.09-14,4.83,5.11,12.55,9.59,13.84,15.47,2.09,9.52-7.4,16.11-14,20.74-4.83,3.41-14.74,11.49-20.43-1.52C514.25,566.15,513.83,557.93,506.83,547Z"/><path class="cls-28" d="M414.61,632.18c7.27-9.33,8.26-19.81,3.93-32.59,19.74,5.62,19.1,19.19,17.92,33Z"/><path class="cls-20" d="M506.83,547c7,10.91,7.42,19.13-8.47,20.69-7.7-2.4-14.67-10.07-13.05-15.19C488.28,543.16,499.54,549.45,506.83,547Z"/><path class="cls-26" d="M414.61,632.18l21.85.44c-2.1,3.08-3.57,7.09-6.44,9-5,3.39-4.1,16-14.59,10.48C404.62,646.43,415,638.88,414.61,632.18Z"/><path class="cls-20" d="M365.49,593.41c-9.17-12.52-7.21-23.69,4.63-37.63C371.35,571.3,363.89,581.81,365.49,593.41Z"/><path class="cls-22" d="M572.81,605.7q0,5.69,0,11.38l-.08.1c-3.29,1.69-3.73,4.89-4.24,8C561.74,616.89,567.56,611.36,572.81,605.7Z"/><path class="cls-23" d="M568.44,625.22c.51-3.16,1-6.35,4.24-8,0,4.36.53,8.91-4,11.79Q568.6,627.09,568.44,625.22Z"/><path class="cls-30" d="M627.64,661.07c8.58,3.53,10.43,11.67,13.26,19.19,3.16,8.4,8.12,12.44,16.88,6.56-.74,8.61-8.77,13.68-14,13.61-24.33-.33-40.16,11.87-52.54,30.88a4.15,4.15,0,0,1-1.5,1.17c-21.1,11.64-32.1,31.9-44,51.42-5.34-2.51-8.87-8.76-15.94-7.65l-18.89-8.11c8.79-9.73,17.46-19.57,26.4-29.16,8.43-9,15.29-20,30.24-20.12,6.94-.07,8.5-8.38,12.36-13.08,5.15.23,8-2.11,8.28-7.36,10.38-1.47,7-9.52,7.52-15.72C603.66,671.5,618.43,670.38,627.64,661.07Z"/><path class="cls-31" d="M588.26,830q-.06,1.91-.14,3.81c-10.07,3-22.72-14.55-30.85,3.88l.06.06c-.52-5-2.34-8.22-8.14-5.68-6.1,2.67-8.73-1.69-11.52-5.71,3.38-5.44,7.37-1.89,11.33-.91,9.13,2.26,12.52-2.27,12.24-10.81,7.82,4.34,11.82,2.75,11.56-6.9-.3-10.84.21-21.7-.22-32.53-.27-6.84,2.41-8.09,8.88-8.32,7.47-.27,6.78,3.93,6.56,8.34-.26,5,.83,11.57-1.86,14.78C574.09,804.45,583.61,816.93,588.26,830Z"/><path class="cls-28" d="M561.24,814.63c.28,8.55-3.11,13.08-12.24,10.81-4-1-8-4.54-11.33.91l-8.46,4.07c5.8-12.53,11-25.18,8.28-39.51,2.16-7.35-5.58-9.53-7.66-14.66,7.07-1.11,10.61,5.15,15.94,7.65C547.38,795.94,544.38,810.28,561.24,814.63Z"/><path class="cls-30" d="M712.1,725.51c-2.49,4.72-5.51,8.52-12,6.7.3-9,7.39-5.69,12-6.71Z"/><path class="cls-30" d="M688.81,737.19,685.86,733l1.49-1,1.58,5.12Z"/><path class="cls-30" d="M674.05,718.76c.14.49.52,1.28.36,1.4a4.89,4.89,0,0,1-1.63.55c-.14-.49-.52-1.29-.36-1.41A4.87,4.87,0,0,1,674.05,718.76Z"/><path class="cls-30" d="M688.93,737.07l1.62,1-1.74-.83Z"/><path class="cls-26" d="M535.24,483.48l0-4.45,4.08,1.06Z"/><path class="cls-19" d="M529.83,776.25c2.08,5.13,9.83,7.31,7.66,14.66-4.28.88-12.94,1-12.28,2.31,9.5,19-26.61,20.41-15.07,39.62a9.77,9.77,0,0,1-3.89,2.87c-3.8,1-1.68-9.16-7.08-4.46-4.72,4.12.61,7.79,2.16,11.71,2.28,5.74-2.59,5.94-6.27,6.77v0l-19.26-11.34c12-9.37,4.13-18.49-.34-27.66a24,24,0,0,1,10.66-11.77c17-3.19,9.46-26.23,24.8-30.81Z"/><path class="cls-31" d="M414.74,779.89c2.2,17.59,4.69,35.17,2.57,53-14.72-7.33-22.17-37-14.59-57.89Z"/><path class="cls-28" d="M595.74,682.7c-.51,6.2,2.85,14.25-7.52,15.72l0,0-3.11-3.12-1-.9Z"/><path class="cls-28" d="M588.22,698.42c-.27,5.26-3.13,7.59-8.28,7.36.44-4.15.54-8.41,4.15-11.41l1,.9,3.11,3.13Z"/><path class="cls-32" d="M624.63,566.15c-5.66,7.36-11.82,16.24-19,24.14-1.78,1.95-9.43.8-6.89-4.26,4.78-9.51,11.4-18.25,18.31-26.41C618.9,557.39,624.51,558.47,624.63,566.15Z"/><path class="cls-24" d="M189.22,931.19c.07,25.38.24,50.76.15,76.14,0,5.5,1.73,11.59-3.55,16,0-25.4-.2-50.79,0-76.19C185.81,941.71,183.72,935.55,189.22,931.19Z"/><path class="cls-16" d="M297.54,447l32-26.62C327.7,447.34,324.63,449.89,297.54,447Z"/><path class="cls-29" d="M294.85,575.22c-13.52,6.67-27.2,6.23-41,.91A180.61,180.61,0,0,1,294.85,575.22Z"/><path class="cls-25" d="M320.79,749c-2,11.44,11,16.48,11.43,26.86C309.38,781.7,311.73,801,309.65,818c-10.76,2.44-14.92-9-23.49-11.16C295.27,792,304,777,309.53,760.41c7.47-.26,7.65-5.64,7.78-11.06A6.09,6.09,0,0,1,320.79,749Z"/><path class="cls-18" d="M286.16,806.84c8.57,2.16,12.73,13.6,23.49,11.16l7.63,4.21L313.37,830l0,0-7.67-.09c-7.09-6.28-14.37-15.56-20.07,1.21l-18.72-8.93c-.26-6.06-3.06-10.94-7.25-15.05-5.56-5.45-6.08-10.76,0-16.16C270.47,792.88,272.47,809.69,286.16,806.84Z"/><path class="cls-19" d="M354,745.58c-3.36,5.47-7.43,8-13.26,3.21Z"/><path class="cls-23" d="M266.88,822.25l18.72,8.92,4,3.15,1.8,7.44c15.14,14.43,35.5,11.12,53.52,14.59,17.41,3.35,32.51,7.7,41.37,24.29-41.46,1.74-79-13-116.15-28.52-4.45-1.86-14.87-2.7-9.27-14.06,1.72-3.48-4.3-1.58-7.13-1.63-12.45-.21-22-4.94-25.57-18,9.31-.54,16.83,11.86,27.19,3.77Z"/><path class="cls-23" d="M228.14,818.44c-4.9-.08-7.52-2.61-8-7.44C225.37,810.73,228,813.26,228.14,818.44Z"/><path class="cls-30" d="M592.07,845.51c2.22,9.1-17.14,22.31,8.06,27.58-11.76,3.58-22.54,7.41-26.61-4.31-5.16-14.85,11.5-16,18.57-23.25Z"/><path class="cls-30" d="M534.06,857.14q0-2,0-4c15.18,6.08,13.08-14,23.29-15.39l-.06-.06c.11,8.61-1.94,17.67,7.71,23.55C551.7,867.88,541.39,870.47,534.06,857.14Z"/><path class="cls-30" d="M592.09,845.53l.88-1.64-.9,1.62Z"/><path class="cls-21" d="M475.82,838.37l19.26,11.34-18.46,2.69C477.65,847.65,468.69,843.47,475.82,838.37Z"/><path class="cls-21" d="M495.08,849.74c3.67-.83,8.54-1,6.27-6.77-1.55-3.92-6.89-7.59-2.16-11.71,5.39-4.71,3.28,5.44,7.08,4.46a9.77,9.77,0,0,0,3.89-2.87c-11.54-19.21,24.57-20.61,15.07-39.62-.66-1.33,8-1.43,12.28-2.31,2.76,14.32-2.49,27-8.28,39.51q.2,5.19.39,10.38c-9.45,1.09-16.55,4.46-15.32,15.87l-.09.09C506.6,857.75,499,858.66,495.08,849.74Z"/><path class="cls-27" d="M529.6,840.8q-.2-5.19-.39-10.38l8.46-4.07c2.79,4,5.42,8.37,11.52,5.71,5.81-2.54,7.62.65,8.14,5.68-10.22,1.42-8.12,21.48-23.29,15.39Z"/><path class="cls-27" d="M514.28,856.68c2.7.9,6.36.67,6.19,5a1.81,1.81,0,0,1-1.25,1.24c-4.35.18-4.13-3.46-5-6.17Z"/><path class="cls-18" d="M343.56,781.46c23-7.29,28.66-4.26,26.91,17.64-.73,9.15,3.55,11.06,9.33,13.73,5,2.34,12,2.06,14,8.74,3.2,10.68,10.67,22.65-1.64,31.55-13.48,9.75-11.93-11.79-21.35-11.81,2.87-7.49-6-6.87-7.73-11.15,4.21-13.51-7.34-21.18-11.68-31.53Z"/><path class="cls-23" d="M343.56,781.46l7.8,17.18c-18.17.78-13.26,17.45-18.63,27l-15.45-3.47L309.65,818c2.09-17-.26-36.3,22.57-42.14C337.38,774.92,340.32,778.49,343.56,781.46Z"/><path class="cls-25" d="M332.73,825.68c5.37-9.59.46-26.27,18.63-27,4.34,10.34,15.88,18,11.68,31.53h-6.42C349.86,822.23,340.43,828.53,332.73,825.68Z"/><path class="cls-18" d="M289.6,834.32l-4-3.15c5.7-16.77,13-7.49,20.07-1.21q0,2.06,0,4.11Z"/><path class="cls-18" d="M289.6,834.32l16-.25c1.55,14.19-9.81,4.52-14.22,7.69Z"/><path class="cls-23" d="M356.61,830.16H363c1.76,4.28,10.6,3.66,7.73,11.15C363.3,841.08,359.2,836.58,356.61,830.16Z"/><path class="cls-18" d="M313.37,830H326c-5.6,6.08-9.18,3.6-12.66,0Z"/><path class="cls-30" d="M588.2,698.4l-3.11-3.13Z"/><path class="cls-16" d="M485.58,400.13,484,398.25c-1.78-2.16-4.42-2-6.46-.82,12.11-7.26-26.34-18.41-31.07-19.55-31.91-7.71-64.93-7.3-97-.59-18,3.77-34.21,12.53-50,21.64-16.54,9.54-32.22,17.85-46.68,30.49a21.34,21.34,0,0,0-4.69,5.1,7.22,7.22,0,0,0-.6,6.65,4.64,4.64,0,0,1,.75,1.95,3.26,3.26,0,0,1-1.31,2.16c-2.5,2.36-9,6.38-8.83,10.17s5.23,6.43,8.49,4.66c19.15-10.41,35.23-26.44,54-37.76,14.63-8.82,32-18.51,49-23.38,2.88-.71,5.75-1.39,8.56-2a4.84,4.84,0,0,0,3.63-2.9c1-.18,1.91-.39,2.88-.55,7.39-1.26,14.57-2.38,21.78-3.19,12.09,1,24.42,4.08,35.16,6.17,15,2.91,30.31,8,45.58,11,4.22,2.57,8.35,5.27,12.82,7.42a5.58,5.58,0,0,0,8-3.39c.94-3.35.1-6.3-1.42-9.14A6,6,0,0,0,485.58,400.13Z"/><path class="cls-33" d="M689,627.17c-47.82-122.26-174.17-263.81-321.13-229.7C294.19,414.56,241.12,463.64,231.17,539q-1.38,10.46-2.66,20.68c1.19,55.87,7.46,112.5,31.26,163.59a252.34,252.34,0,0,0,59,79.95A204.37,204.37,0,0,0,348,825.14c14.92,4.62,29.72,9.68,44.93,13.38,27.44,6.68,55.88,10.59,83.76,15,34.57,5.52,69.27,10.21,104.09,13.72l22.34-11.74,7.4-3.89a33.9,33.9,0,0,1,16.46-22.74c7.2-4.2,13.88-16.29,16.57-22.38,4.27-9.65,11.1-22.4,15.65-33.69.53-1.3,1-2.39,1.37-3.36.35-1.43.94-3.62,1.87-6.85.65-2.26,1.73-4.4,2.24-6.69,1.25-5.5,1.55-12.41,2.91-18.58q.75-3.23.18.29l1.54-8.14c.5-2.12,1.45-4.31,2.12-6.46-.72,1.33-.31-8.6,0-10.66,2.82-16.5,14.19-30.25,32.51-29.41.29,0,.59.07.88.09A283,283,0,0,0,689,627.17Z"/><path class="cls-33" d="M439.46,928.19q-6.18,1.11-12.34,1.89Q433.28,929.31,439.46,928.19Z"/><path class="cls-33" d="M449.84,926.09c-1.23.27-2.45.55-3.68.8C447.38,926.64,448.61,926.36,449.84,926.09Z"/><path class="cls-33" d="M427,930.1c-1.68.21-3.36.39-5,.56C423.67,930.49,425.35,930.31,427,930.1Z"/><path class="cls-33" d="M443.63,927.39c-1.38.27-2.75.55-4.13.8C440.88,927.94,442.26,927.66,443.63,927.39Z"/><path class="cls-33" d="M407.77,931.62q-2.41.08-4.81.09Q405.36,931.7,407.77,931.62Z"/><path class="cls-33" d="M420.56,930.81c-1.6.15-3.2.28-4.79.39C417.36,931.09,419,931,420.56,930.81Z"/><path class="cls-33" d="M414.14,931.32c-1.58.1-3.17.18-4.75.24C411,931.5,412.55,931.42,414.14,931.32Z"/><path class="cls-33" d="M456.26,924.57c-1.15.29-2.3.57-3.45.84Z"/><path class="cls-33" d="M395.43,931.61c-1.77-.06-3.54-.14-5.3-.26C391.88,931.47,393.65,931.55,395.43,931.61Z"/><path class="cls-33" d="M469.31,921l-3.13.91Z"/><path class="cls-33" d="M462.77,922.88l-3.28.88Z"/><path class="cls-33" d="M401.52,931.72c-1.66,0-3.33,0-5-.07Q399,931.72,401.52,931.72Z"/><path class="cls-33" d="M348.28,922.83q-2.78-1-5.54-2.12Q345.5,921.83,348.28,922.83Z"/><path class="cls-33" d="M348.53,922.92a152.48,152.48,0,0,0,41.18,8.4A152.52,152.52,0,0,1,348.53,922.92Z"/><path class="cls-34" d="M603.07,855.54l-70.95,37.29A559.2,559.2,0,0,0,603.07,855.54Z"/><polygon class="cls-34" points="532.12 892.84 603.07 855.54 532.12 892.84 532.12 892.84"/><path class="cls-34" d="M452.81,925.41l-3,.67Z"/><path class="cls-34" d="M459.5,923.76l-3.23.82Z"/><path class="cls-34" d="M390.12,931.35l-.42,0Z"/><path class="cls-34" d="M446.16,926.89l-2.52.5Z"/><path class="cls-34" d="M472.91,919.93l-3.6,1.09Z"/><path class="cls-34" d="M466.18,921.93l-3.41,1Z"/><path class="cls-34" d="M342.74,920.71l-.22-.09Z"/><path class="cls-34" d="M415.77,931.2l-1.63.12Z"/><path class="cls-34" d="M409.39,931.56l-1.62.06Z"/><path class="cls-34" d="M422,930.66l-1.43.15Z"/><path class="cls-34" d="M403,931.72h0Z"/><path class="cls-34" d="M439.51,928.19h0Z"/><path class="cls-34" d="M427.12,930.09h0Z"/><path class="cls-34" d="M396.53,931.65l-1.11,0Z"/><path class="cls-33" d="M603.07,855.54c2.41-1.15,4.88-2.36,7.33-3.56,0-.11,0-.22.07-.33Z"/><path class="cls-35" d="M603.07,855.54c2.41-1.15,4.88-2.36,7.33-3.56,0-.11,0-.22.07-.33Z"/><path class="cls-33" d="M610.4,852c0,.25-.11.5-.15.75,1.52-1,3.05-1.91,4.57-2.9C613.33,850.57,611.88,851.26,610.4,852Z"/><path class="cls-36" d="M610.4,852c0,.25-.11.5-.15.75,1.52-1,3.05-1.91,4.57-2.9C613.33,850.57,611.88,851.26,610.4,852Z"/><path class="cls-33" d="M671.43,712.4c-.35,2.06-.76,12,0,10.66-.67,2.15-1.62,4.34-2.12,6.46l-1.54,8.14q.57-3.52-.18-.29c-1.36,6.17-1.66,13.08-2.91,18.58-.52,2.28-1.59,4.43-2.24,6.69-.93,3.22-1.52,5.42-1.87,6.85-.4,1-.85,2.06-1.37,3.36-4.55,11.29-11.37,24-15.65,33.69-2.69,6.09-9.37,18.19-16.57,22.38a33.9,33.9,0,0,0-16.46,22.74l7.87-4.14c36-23.9,68.38-53.37,82.3-92.38l.21-.6-.27.15.35-.36c.27-.78.57-1.55.83-2.34q1-3,1.79-6.12c5.21-19.93,4.8-41.58,1.28-62.8-.29,0-.59-.08-.88-.09C685.63,682.14,674.25,695.9,671.43,712.4Z"/><path class="cls-34" d="M703.54,676c-1.28-.06-13.26.88-14.48,1,4,22.76,6.57,39.43,1.78,58.81-4.75,19.22-10.17,38.58-21.63,55.1a125.25,125.25,0,0,1-21.5,23.69c-8.57,7.36-16.22,17.06-26.8,21.63-6.48,2.8-9.17,8.65-10.44,15.46l7.87-4.14c36-23.9,68.38-53.37,82.3-92.38l.21-.6-.27.15.35-.36c.27-.78.57-1.55.83-2.34q1-3,1.79-6.12c5.21-19.93,4.8-41.58,1.28-62.8C704.53,683.05,703.83,676,703.54,676Z"/><path class="cls-33" d="M610.4,852c1.48-.72,2.93-1.41,4.42-2.15,1.18-.76,2.35-1.54,3.51-2.32l-7.87,4.14C610.45,851.76,610.42,851.87,610.4,852Z"/><path class="cls-35" d="M610.4,852c1.48-.72,2.93-1.41,4.42-2.15,1.18-.76,2.35-1.54,3.51-2.32l-7.87,4.14C610.45,851.76,610.42,851.87,610.4,852Z"/><path class="cls-36" d="M610.4,852c1.48-.72,2.93-1.41,4.42-2.15,1.18-.76,2.35-1.54,3.51-2.32l-7.87,4.14C610.45,851.76,610.42,851.87,610.4,852Z"/><path class="cls-34" d="M675.28,754.74c-9.85,10.38-21.72,17.56-34.17,24.32a119.48,119.48,0,0,1-34.46,12.22c-8.42,1.61-21.05,3.07-23.14-8.2-1.33-7.18,5.27-17.2,12.81-17.85.13-.1-1.69,2.28-1.52,2.16a13.42,13.42,0,0,1,1.52-2.16c-4.4.62-10.71,1.48-11.37,1.46-8.41-.21-12.37-9.17-10.92-16.66,1.19-6.15,6.92-10.55,11.61-14.09-1.18,0-2.36-.09-3.52-.12a12.59,12.59,0,0,1-4.19-.53,1.79,1.79,0,0,1,.8,0c-5.09-1-10.16-1.92-12.81-6.94-5.61-10.61,5.41-24.43,16.82-23.07C615,709.12,643.35,682.82,643,649.4L727.65,643C732.19,678.81,701.32,727.3,675.28,754.74Z"/><path class="cls-33" d="M680.5,745.47c-9.85,10.38-21.72,17.56-34.17,24.32A119.48,119.48,0,0,1,611.88,782c-8.42,1.61-21.05,3.07-23.14-8.2-1.33-7.18,5.27-17.2,12.81-17.85.13-.1-1.69,2.28-1.52,2.16a13.42,13.42,0,0,1,1.52-2.16c-4.4.62-10.71,1.48-11.37,1.46-8.41-.21-12.37-9.17-10.92-16.66,1.19-6.15,4.68-7.87,9.38-11.41-1.18,0-2.36-.09-3.52-.12a12.59,12.59,0,0,1-4.19-.53,1.79,1.79,0,0,1,.8,0c-5.09-1-10.16-1.92-12.81-6.94-5.61-10.61,11.15-13.74,22.48-11.87,33.73,5.57,62.45-30.83,56.86-69.73l76.2-3.22C729,672.75,706.55,718,680.5,745.47Z"/><path class="cls-33" d="M581,866.56c-1.81-2.73-3-5.91-5-8.49-2.93-3.77-8.61-4.66-13-3.16-4.79,1.64-9.59,6.32-11.68,11s-.84,8.58,1.84,12.66c1.75,2.67,6.25.44,4.48-2.26-1.65-2.51-3.08-4.51-2-7.64s5.16-7.4,8-8.54c5.62-2.29,8,.25,10.37,4.55,1.78,3.22,4.6,6.59,5.66,10.08.93,3.07,5.85,2,4.91-1.05A25.52,25.52,0,0,0,581,866.56Z"/><path class="cls-37" d="M424.17,575.09c-1.33,12.24-6.21,23.52-11.93,34.41-8.52,16.23-22.13,31.56-38.24,34.06-5.76.9-9.47-3.91-7.27-10.73a1.24,1.24,0,0,1,1.24-.93c9.41,1.05,20.91-6.23,27.9-14.14,12-13.56,20.91-32.44,26.84-50.1.44-1.32,2-1.19,2,.16Q424.56,571.44,424.17,575.09Z"/><path class="cls-38" d="M319.78,607.52c-2.19-12.11-.7-24.32,1.7-36.38,3.58-18,12.29-36.53,27-43.5,5.27-2.49,10.19,1.06,10,8.23a1.24,1.24,0,0,1-.92,1.25c-9.32,1.66-18.29,11.89-22.75,21.46-7.65,16.4-10.87,37-11.55,55.65-.05,1.39-1.63,1.72-2,.41Q320.44,611.13,319.78,607.52Z"/><path class="cls-39" d="M481.57,539.4c10.9-.14,21.45-3.14,31.78-6.83,15.39-5.49,30.7-15.05,35.13-27.52,1.58-4.46-2.1-7.73-8.38-6.51a1.13,1.13,0,0,0-1,.9c-.39,7.47-8.36,16-16.25,20.87-13.53,8.41-31.3,14-47.59,17.38-1.21.25-1.32,1.52-.13,1.58Q478.32,539.45,481.57,539.4Z"/><path class="cls-40" d="M511.35,451c-10.37-3.35-21.33-3.88-32.29-3.68-16.34.29-33.9,4.45-42.08,14.86-2.93,3.72-.48,8,5.86,8.84a1.13,1.13,0,0,0,1.22-.54c2.75-7,13-12.46,22.07-14.59,15.51-3.64,34.14-3.29,50.65-1.27,1.23.15,1.74-1,.63-1.45Q514.45,452,511.35,451Z"/><path class="cls-41" d="M0,451H0Z"/><path class="cls-41" d="M610.69,452.92a.94.94,0,0,0-.27,0,.9.9,0,0,1,.28,0,1.29,1.29,0,0,0,.26,0A1.3,1.3,0,0,1,610.69,452.92Z"/><path class="cls-41" d="M627.09,475.81l-.45-.18.8.33Z"/><path class="cls-41" d="M761.28,681.48"/><path class="cls-33" d="M597.35,895.66c-13-6-12-19.45-17.31-30.31-.09-.17-.19-.32-.28-.48a2.13,2.13,0,0,0,0-2.24c-.11-.2-.25-.34-.37-.53h0l0,0a8.63,8.63,0,0,0-4.55-3.6c-12.4-6.43-26.26,11.37-19.55,24.64,1.46,2.88,5.94.62,4.48-2.26-2.35-4.65-2.52-9.52.9-13.78a11.84,11.84,0,0,1,7.3-4.11l.34,0a10.3,10.3,0,0,1,1.06-.05c8.32.49,8.47,14.79,11.09,20.55,3.42,7.55,7.76,13.49,15.35,17C598.71,901.79,600.25,897,597.35,895.66Z"/><path class="cls-42" d="M628,523.6c6.06,4.25,4.05,12.68-1.71,21.85-6.3,10-14.42,12.53-24.23,5.8-10.45-7.17-15.41-17.67-8.93-29.15C601.58,507.17,613,515.37,628,523.6Z"/><path class="cls-42" d="M579.54,484.74c6.05-5.57,12.15-7.37,18.63-2.82,6.63,4.66,4.84,10.38,1,16-4.37,6.48-9.59,6.46-15.78,2.59C576.41,496.17,578.62,490.29,579.54,484.74Z"/><path class="cls-42" d="M631.83,551.59c-5.15,3.93-11.63,5.47-16.32,0-4.35-5-17.35.18-12-4.46,4.7-4.08,23.74-16.34,28.36-11C636.19,541.17,636.9,546.08,631.83,551.59Z"/><path class="cls-42" d="M339.13,744.77c4.28,7.68,14.48,6.34,26,.66,12.61-6.21,16.57-15.49,9.83-27.9-7.19-13.23-19-20.38-33.33-14.12C323,711.55,331.25,726.09,339.13,744.77Z"/><path class="cls-42" d="M313.89,672.75c-8.2,7.24-11.42,15.07-6.29,24.26,5.25,9.42,13.08,7.83,21.07,3.57,9.18-4.89,9.86-11.8,5.6-20.53C329.45,670.18,321.36,672.29,313.89,672.75Z"/><path class="cls-13" d="M669.6,404.63c-.39.88-.89,1.58-1.19,2.36-.24.49-.39.88-.54,1.27-.32.59-.57.9-1,1.59-.24.49-.56,1.08-.88,1.68a5.46,5.46,0,0,1-1.4,2.1,7.21,7.21,0,0,1-1.35,2.66,3.19,3.19,0,0,0-.51.61c-.49.8-.39,1.82-1.19,2.36-.38,2-1.54,3.61-2.42,5.29s-1.37,3.5-2.13,5.36a12.35,12.35,0,0,0-.94,2c-.08.19-.35.31-.42.51a12.56,12.56,0,0,0-1,2.62,9.65,9.65,0,0,0-.42,1.54c0,.09-.34.41-.41.69s0,.46,0,.75c-.14.48-.39.88-.53,1.36s-.19,1-.34,1.35-.42.51-.58.8-.22.68-.38,1-.42.51-.58.8c-.24.49-.21.77-.46,1.08s-.5.7-.75,1c-.08.1-.18.11-.25.3-.14.48.08.84-.07,1.32,1.25.35,2.69-.34,3.78-.73.36-.13.84-.08,1.29-.21s1-.28,1.46-.42,1-.09,1.48-.23,1-.47,1.54-.61c.83-.17,1.85-.26,2.77-.44l2.86-.55c1.29-.21,2.52-.14,3.62-.43.37,0,.72-.35,1-.37s.49.24,1,.29a2.38,2.38,0,0,1,.84-.08c2.12.65,1.48,1.83,1.51,4.18,0,.28.24.54.26.82s-.32.59-.29,1c.1,1.12.39,2.21.41,3.43,1.07.37,2,.84,2.15,2s-1.19,1.33-1.87,2.14c-1.59.05-3.22.67-4.81.73-2,.19-4.57.33-6.24.48-.28,0-.3-.16-.48-.14-.56.05-.9.37-1.46.42s-1-.09-1.51,0-.81.36-1.18.39c-.56.05-1.13-.08-1.69,0-2,.09-3.69.72-5.12.47-.19,0-.55.14-.74.07s-.23-.45-.32-.44-.35.31-.63.34a2.41,2.41,0,0,1-1.79-.12c-1,.56-1.94.37-2.93.74-.73.25-.78-.3-1.07-.46-.26.21-.41.6-.77.82a10.7,10.7,0,0,0-3,.28c-.28,0-.76-.12-1,0-1.12.1-2.1.57-3.31.68a9.6,9.6,0,0,0-2.44-.05c-.6-.41-.78-1.34-1.3-1.85.13-.58.49-.8.62-1.37a10,10,0,0,0,.52-1.46c.08-.2.26-.21.24-.4a2.45,2.45,0,0,1,.45-1.26,13.05,13.05,0,0,1,.45-1.26,2.21,2.21,0,0,0,.42-.51,12.17,12.17,0,0,1,1.2-2.27,2,2,0,0,0,.08-1.13c.77-.82.85-2,1.32-2.94.08-.19.32-.59.4-.79s.07-.29.14-.48.25-.3.41-.6a6.62,6.62,0,0,0,.21-.77c.16-.3.2-.86.35-1.25.08-.1.06-.38.14-.48a3.93,3.93,0,0,0,.62-1.37c.24-.49.54-1.27.77-1.85.08-.19.34-.41.41-.6s0-.75.1-.95c.15-.39.5-.7.73-1.29.07-.29.41-.69.63-1.28.08-.1.07-.29.15-.39a4.17,4.17,0,0,1,.38-1c.08-.1.18-.11.25-.3a3.58,3.58,0,0,0,.19-1,8.47,8.47,0,0,0,.53-1.36,3.53,3.53,0,0,0,.49-1.83,3.29,3.29,0,0,0,.63-1.28c.25-.4.5-.7.74-1.1.23-.58.34-1.34.56-2a.56.56,0,0,1,.36-.13c.08-.2,0-.47,0-.75.08-.1.27-.12.35-.22s-.14-.46,0-.75a3.64,3.64,0,0,1,1.3-1.15c-.06-.65.36-1.16.5-1.73.08-.2.06-.38.13-.58s.41-.6.47-1c.17-.2.06-.38.13-.58.63-1.28,2-2.53,2.44-4.07.15-.39.6-.62.56-1.08-.51-.42-.74.16-1.09.38-.18.11-.28,0-.55.14a22.78,22.78,0,0,1-2.9,1.11,4.47,4.47,0,0,0-1.12.1c-.36.13-.81.36-1.27.49a10.45,10.45,0,0,1-1.17.58c-.28,0-.67-.13-.95-.1a9.43,9.43,0,0,0-1.37.41,31.62,31.62,0,0,1-4.33.87c-1.67.25-3.34.4-4.25-.26a8,8,0,0,1-.39-2.22c.27-.12-.18-.92.4-.79,0-.66-.78-.3-.64-.88a8.18,8.18,0,0,0-.24-2.6c-.09-1,.09-2.07,0-3.1-.15-.55-.48-1.08-.62-1.63a2.45,2.45,0,0,1,2.42-2.2c1.08.56,1.23,1.11,2.08,1.21.58.13,1.19-.3,2-.37.27-.12.29.07.47,0,.84-.08,2.29-.59,3,.28a8.71,8.71,0,0,1,1.34-.69,3,3,0,0,1,1.23.07c.19,0,.54-.24.82-.26a6.56,6.56,0,0,0,2-.09c.48.14,2.47-.7,3.11-.85a10,10,0,0,0,1.67-.16c.56-.05,1.1-.29,1.66-.34.28,0,.67.13.94,0s.73-.25,1.19-.3a17.83,17.83,0,0,1,2.23-.21,22,22,0,0,0,2.67-.53,2.17,2.17,0,0,1,1.71.22c.32-.59,1-.09,1.58-.15.19,0,.36-.22.64-.15s.31.25.58.23.56-.05.75,0a10.85,10.85,0,0,1,1.07.37c.56-.05,1-.28,1.56-.33a3.77,3.77,0,0,1,2.1.37A2.36,2.36,0,0,1,669.6,404.63Z"/><path class="cls-13" d="M724.36,409.32c-.56.78-1.2,1.36-1.65,2.06-.33.43-.56.78-.79,1.13-.44.51-.75.76-1.29,1.35-.33.43-.77.94-1.21,1.46a5.46,5.46,0,0,1-1.81,1.76,7.19,7.19,0,0,1-1.87,2.32,3.14,3.14,0,0,0-.62.49c-.64.68-.76,1.7-1.65,2.06-.79,1.88-2.26,3.21-3.47,4.67s-2.06,3.14-3.2,4.8c-.62.49-.79,1.13-1.33,1.72-.12.17-.4.23-.52.41a12.5,12.5,0,0,0-1.5,2.36,9.69,9.69,0,0,0-.73,1.42c0,.09-.42.33-.54.59s-.05.46-.18.73c-.24.44-.56.78-.8,1.22s-.39.9-.62,1.25-.52.41-.74.67-.36.62-.57.87-.52.41-.74.67c-.33.43-.37.71-.68,1s-.63.58-.94.83c-.1.08-.2.07-.31.25-.24.44-.1.84-.34,1.28,1.15.61,2.7.22,3.85.08.38,0,.83.1,1.31.06s1-.07,1.52-.1,1,.12,1.5.08,1.06-.25,1.63-.28c.85,0,1.87.13,2.81.14l2.91.06c1.31.06,2.49.39,3.63.33.37,0,.78-.19,1.05-.16s.43.33.88.48a2.38,2.38,0,0,1,.83.1c1.94,1.08,1.07,2.1.61,4.4,0,.28.12.58.09.86s-.44.51-.48.88c-.13,1.11-.08,2.25-.31,3.44,1,.58,1.83,1.25,1.7,2.36s-1.44,1.05-2.27,1.71c-1.57-.28-3.29,0-4.86-.29-2-.24-4.54-.63-6.21-.82-.28,0-.26-.22-.44-.24-.56-.07-1,.17-1.52.1s-1-.31-1.46-.36-.87.18-1.24.14c-.56-.07-1.09-.32-1.65-.38-1.94-.32-3.75-.07-5.1-.6-.19,0-.57,0-.74-.09s-.13-.49-.22-.5-.4.24-.68.2a2.42,2.42,0,0,1-1.73-.49c-1.08.34-2,0-3,.11-.76.1-.7-.46-1-.68-.3.15-.53.5-.92.64a10.68,10.68,0,0,0-3-.35c-.28,0-.72-.27-1-.21-1.11-.13-2.18.12-3.38,0a9.68,9.68,0,0,0-2.38-.56c-.5-.53-.49-1.47-.88-2.08.25-.54.64-.68.89-1.21a10,10,0,0,0,.81-1.32c.12-.17.3-.15.32-.34a2.46,2.46,0,0,1,.7-1.14,13.21,13.21,0,0,1,.7-1.14,2.17,2.17,0,0,0,.52-.41,12.23,12.23,0,0,1,1.64-2A2,2,0,0,0,682,446c.92-.64,1.24-1.74,1.91-2.6.11-.17.44-.51.55-.69s.13-.27.24-.44.31-.25.53-.5a6.42,6.42,0,0,0,.37-.71c.22-.26.38-.8.61-1.15.1-.08.14-.36.24-.44a3.94,3.94,0,0,0,.9-1.21c.33-.43.79-1.13,1.13-1.65.12-.17.42-.33.53-.5s.18-.73.29-.91c.23-.35.63-.58,1-1.11.13-.27.54-.59.88-1.12.1-.08.13-.27.23-.35a4.23,4.23,0,0,1,.57-.87c.1-.08.2-.07.31-.25a3.58,3.58,0,0,0,.39-.89,8.51,8.51,0,0,0,.8-1.22,3.52,3.52,0,0,0,.86-1.69,3.29,3.29,0,0,0,.88-1.12c.32-.34.63-.58,1-.92.34-.52.62-1.25,1-1.86a.56.56,0,0,1,.38,0c.12-.17.05-.46.18-.73.1-.08.29-.06.39-.14s0-.47.18-.73a3.63,3.63,0,0,1,1.51-.86c.08-.65.59-1.06.85-1.59.12-.17.14-.36.25-.54s.53-.5.67-.86c.21-.16.14-.36.25-.53.88-1.12,2.5-2.06,3.23-3.48.23-.35.71-.48.77-.94-.41-.52-.75,0-1.15.15-.2.07-.28,0-.57,0A22.92,22.92,0,0,1,701,414a4.5,4.5,0,0,0-1.11-.13c-.38,0-.87.18-1.34.22a10.47,10.47,0,0,1-1.26.32c-.28,0-.63-.26-.91-.29a9.38,9.38,0,0,0-1.42.12,31.7,31.7,0,0,1-4.42,0c-1.68-.1-3.35-.3-4.1-1.14a8,8,0,0,1,.08-2.25c.29-.06,0-.94.55-.69.17-.64-.7-.46-.45-1a8.19,8.19,0,0,0,.31-2.6c.12-1,.52-2,.64-3,0-.57-.24-1.16-.27-1.72a2.45,2.45,0,0,1,2.83-1.64c.94.77,1,1.34,1.78,1.62.54.25,1.23,0,2.06.05.29-.06.27.13.45.15.83.1,2.36-.1,2.9.91a8.8,8.8,0,0,1,1.46-.39,3,3,0,0,1,1.18.33c.19,0,.58-.12.86-.09a6.61,6.61,0,0,0,1.94.32c.44.24,2.56-.17,3.22-.19a10.11,10.11,0,0,0,1.67.2c.56.07,1.14-.05,1.69,0,.28,0,.63.26.92.2s.76-.1,1.23,0a18,18,0,0,1,2.23.26,22.1,22.1,0,0,0,2.72,0,2.16,2.16,0,0,1,1.63.57c.44-.51,1,.12,1.58.19.19,0,.39-.14.66,0s.25.31.52.34.56.07.73.18a10.93,10.93,0,0,1,1,.58c.56.07,1-.07,1.6,0a3.76,3.76,0,0,1,2,.8A2.36,2.36,0,0,1,724.36,409.32Z"/><path class="cls-13" d="M778.1,428.44c-.75.6-1.51,1-2.14,1.55-.44.33-.75.6-1.06.88-.56.38-.92.53-1.6,1-.43.33-1,.71-1.55,1.08a5.46,5.46,0,0,1-2.21,1.22,7.19,7.19,0,0,1-2.42,1.74,3.17,3.17,0,0,0-.73.31c-.8.48-1.19,1.43-2.14,1.55-1.26,1.61-3,2.5-4.58,3.58s-2.82,2.48-4.36,3.78c-.73.31-1.06.88-1.74,1.31-.16.14-.45.12-.61.26a12.55,12.55,0,0,0-2.07,1.88,9.69,9.69,0,0,0-1.08,1.17c0,.09-.49.21-.68.43s-.18.43-.37.66c-.35.36-.75.6-1.1,1s-.61.76-.92,1-.61.26-.89.45-.5.5-.78.69-.61.26-.89.45c-.44.33-.54.59-.91.74s-.77.39-1.13.55c-.12.05-.21,0-.37.15-.35.36-.32.78-.66,1.14.95.89,2.54.93,3.69,1.09.38.05.78.32,1.25.41s1,.21,1.49.3,1,.39,1.42.48,1.09,0,1.65.16c.81.23,1.77.62,2.67.88l2.79.83c1.25.41,2.3,1,3.41,1.28.35.14.8,0,1.06.13s.33.44.72.7a2.4,2.4,0,0,1,.78.32c1.59,1.55.47,2.31-.58,4.4-.11.26,0,.59-.14.85s-.56.38-.7.72c-.42,1-.67,2.15-1.21,3.24.78.82,1.43,1.69,1,2.73s-1.67.63-2.64,1c-1.44-.68-3.17-.88-4.61-1.57-1.9-.77-4.21-1.81-5.76-2.44-.26-.11-.19-.28-.36-.35-.52-.21-1-.09-1.49-.3s-.88-.56-1.31-.74-.88-.06-1.23-.2c-.52-.21-1-.59-1.49-.81-1.78-.82-3.6-1.06-4.76-1.93-.17-.07-.55-.12-.69-.28s0-.5-.08-.54-.45.12-.71,0a2.42,2.42,0,0,1-1.54-.93c-1.13,0-1.89-.56-2.95-.69-.76-.11-.55-.63-.74-.91-.33.07-.64.34-1.06.38a10.71,10.71,0,0,0-2.77-1.12c-.26-.11-.62-.45-.92-.47-1-.42-2.13-.46-3.26-.92a9.65,9.65,0,0,0-2.14-1.17c-.34-.64-.08-1.54-.3-2.24.38-.45.8-.48,1.18-.93a10,10,0,0,0,1.13-1.05c.16-.14.33-.07.4-.24a2.45,2.45,0,0,1,1-.92,13,13,0,0,1,1-.91,2.21,2.21,0,0,0,.61-.26,12.19,12.19,0,0,1,2.11-1.46c.23-.31.47-.41.59-1,1.06-.38,1.65-1.34,2.53-2,.16-.14.56-.38.71-.52s.19-.22.35-.36.36-.15.64-.34a6.39,6.39,0,0,0,.54-.59c.28-.19.58-.67.89-1,.12-.05.23-.31.35-.36a3.93,3.93,0,0,0,1.18-.93c.44-.33,1.06-.88,1.53-1.29.16-.14.49-.21.64-.34s.37-.66.52-.79c.31-.28.76-.4,1.24-.81.19-.22.68-.43,1.15-.84.12-.05.19-.22.31-.28a4.23,4.23,0,0,1,.78-.69c.12-.05.21,0,.37-.15a3.55,3.55,0,0,0,.61-.76,8.44,8.44,0,0,0,1.1-1,3.52,3.52,0,0,0,1.27-1.4,3.28,3.28,0,0,0,1.15-.84c.4-.24.77-.4,1.17-.64.47-.41.92-1,1.43-1.54a.56.56,0,0,1,.38.05c.16-.14.18-.43.37-.66.12-.05.29,0,.42,0s.09-.47.37-.66a3.62,3.62,0,0,1,1.68-.42c.25-.61.85-.86,1.24-1.31.16-.14.23-.31.38-.45s.64-.34.87-.65c.24-.1.23-.31.38-.45,1.15-.84,3-1.32,4-2.5.31-.28.82-.27,1-.71-.26-.61-.73-.19-1.14-.16-.21,0-.26-.11-.55-.12a22.81,22.81,0,0,1-3.09-.34,4.53,4.53,0,0,0-1-.42c-.38-.05-.88-.06-1.35-.15a10.42,10.42,0,0,1-1.3,0c-.26-.11-.54-.42-.79-.52a9.26,9.26,0,0,0-1.4-.27,31.69,31.69,0,0,1-4.24-1.22c-1.59-.55-3.15-1.18-3.65-2.19a8,8,0,0,1,.67-2.15c.29,0,.26-.9.71-.52.33-.57-.55-.63-.17-1.08a8.17,8.17,0,0,0,1-2.42c.39-1,1-1.8,1.42-2.75.12-.55.08-1.18.2-1.73a2.46,2.46,0,0,1,3.16-.83c.71,1,.58,1.55,1.29,2,.45.38,1.2.28,2,.6.29,0,.22.19.4.26.78.32,2.3.53,2.56,1.64a8.74,8.74,0,0,1,1.51,0c.38.05.66.37,1.05.63.17.07.59,0,.85.14a6.59,6.59,0,0,0,1.78.82c.36.35,2.51.52,3.15.67a10,10,0,0,0,1.56.63c.52.21,1.11.25,1.63.46.26.11.54.42.83.44s.76.11,1.2.28a18.06,18.06,0,0,1,2.08.84,22,22,0,0,0,2.62.76c.52.21,1.16.37,1.42,1,.56-.38,1,.39,1.47.6.17.07.42,0,.64.16s.15.37.41.47.52.21.66.37a11.29,11.29,0,0,1,.78.82c.52.21,1,.21,1.54.42a3.77,3.77,0,0,1,1.69,1.29A2.36,2.36,0,0,1,778.1,428.44Z"/><path class="cls-13" d="M825.22,463.9c-.89.35-1.74.5-2.51.84-.51.18-.9.35-1.28.52-.64.2-1,.23-1.82.44-.51.18-1.16.38-1.8.58a5.46,5.46,0,0,1-2.47.51,7.21,7.21,0,0,1-2.83.94,3.16,3.16,0,0,0-.79.08c-.91.22-1.56,1-2.51.84-1.68,1.16-3.64,1.49-5.44,2.06s-3.43,1.53-5.28,2.31a12.35,12.35,0,0,0-2.05.73c-.19.08-.47,0-.66.06a12.51,12.51,0,0,0-2.54,1.18,9.7,9.7,0,0,0-1.38.8c-.06.07-.53.05-.78.21s-.3.36-.55.52c-.44.24-.89.35-1.34.6s-.81.54-1.19.71-.66.06-1,.16-.63.33-1,.43-.66.06-1,.16c-.51.18-.69.4-1.08.44s-.85.15-1.24.19c-.13,0-.2,0-.39,0-.44.24-.53.65-1,.89.64,1.13,2.15,1.65,3.2,2.14.35.17.65.53,1.07.76s.91.51,1.33.73.79.65,1.21.88,1,.36,1.52.65c.71.46,1.5,1.11,2.28,1.63l2.42,1.62c1.07.76,1.89,1.67,2.88,2.24.29.24.75.26,1,.44s.18.51.49.88a2.36,2.36,0,0,1,.65.53c1.05,2-.23,2.35-1.86,4-.18.22-.21.55-.39.77s-.64.2-.88.48c-.71.87-1.28,1.85-2.12,2.73.5,1,.86,2,.15,2.91s-1.78.11-2.83.21c-1.17-1.08-2.76-1.79-3.93-2.87-1.59-1.3-3.48-3-4.78-4-.22-.18-.1-.32-.24-.44-.43-.36-.9-.38-1.33-.73s-.68-.8-1-1.09-.83-.32-1.12-.55-.75-.86-1.18-1.21c-1.46-1.32-3.13-2.08-4-3.26-.14-.12-.49-.28-.58-.47s.15-.48.08-.54-.47,0-.68-.2a2.41,2.41,0,0,1-1.19-1.34c-1.09-.29-1.63-1.1-2.61-1.54-.7-.33-.34-.76-.44-1.09a6.77,6.77,0,0,1-1.12,0,10.66,10.66,0,0,0-2.31-1.9c-.22-.18-.46-.62-.73-.72-.87-.71-1.9-1.08-2.84-1.85a9.63,9.63,0,0,0-1.7-1.76c-.14-.72.38-1.5.38-2.23.5-.31.91-.22,1.41-.54a10,10,0,0,0,1.4-.67c.19-.08.33,0,.45-.11a2.45,2.45,0,0,1,1.2-.58,13,13,0,0,1,1.2-.58,2.21,2.21,0,0,0,.66-.07,12.21,12.21,0,0,1,2.45-.77c.31-.23.57-.26.86-.75,1.12,0,2-.79,3-1.16.19-.08.64-.2.84-.28s.25-.16.44-.24.39,0,.72-.14a6.38,6.38,0,0,0,.69-.4c.32-.1.75-.47,1.13-.64.13,0,.31-.23.44-.24a4,4,0,0,0,1.41-.54c.51-.18,1.28-.52,1.85-.78.19-.09.53-.05.72-.14s.55-.52.74-.6c.38-.17.85-.15,1.42-.41.25-.16.78-.21,1.35-.46.13,0,.25-.16.38-.17a4.26,4.26,0,0,1,1-.43c.13,0,.2,0,.39,0a3.55,3.55,0,0,0,.81-.54,8.37,8.37,0,0,0,1.34-.6,3.53,3.53,0,0,0,1.63-1,3.3,3.3,0,0,0,1.35-.46c.45-.11.85-.15,1.3-.26s1.19-.71,1.82-1a.57.57,0,0,1,.35.17c.19-.08.3-.36.55-.52s.28.11.41.09.22-.42.55-.52a3.62,3.62,0,0,1,1.74.09c.42-.5,1.07-.57,1.57-.88.19-.08.31-.23.5-.31s.72-.14,1-.37c.26,0,.31-.23.5-.31,1.35-.46,3.22-.38,4.6-1.18.38-.17.86,0,1.16-.38-.06-.66-.64-.4-1-.5-.2,0-.22-.18-.49-.28a22.93,22.93,0,0,1-2.84-1.25,4.52,4.52,0,0,0-.87-.71c-.35-.17-.83-.32-1.25-.54a10.56,10.56,0,0,1-1.24-.41c-.22-.18-.39-.56-.6-.74a9.44,9.44,0,0,0-1.26-.67,31.51,31.51,0,0,1-3.69-2.43c-1.36-1-2.66-2.06-2.83-3.17a8,8,0,0,1,1.28-1.85c.28.11.52-.78.83-.28.49-.45-.34-.76.16-1.08a8.2,8.2,0,0,0,1.66-2c.65-.79,1.52-1.41,2.17-2.21.28-.49.42-1.1.71-1.6a2.45,2.45,0,0,1,3.27.14c.38,1.16.1,1.65.63,2.33.31.5,1.06.63,1.71,1.16.28.11.16.25.3.37.65.53,2,1.19,2,2.33a8.86,8.86,0,0,1,1.44.46c.35.17.52.55.82.92.14.12.55.21.77.39a6.58,6.58,0,0,0,1.46,1.32c.24.44,2.25,1.24,2.81,1.58a10.13,10.13,0,0,0,1.3,1.07c.43.36,1,.57,1.42.92.22.18.39.56.66.67s.7.33,1.06.63a18.14,18.14,0,0,1,1.73,1.42,22.06,22.06,0,0,0,2.27,1.5c.43.36,1,.7,1.06,1.36.64-.2.79.65,1.23,1,.14.12.41.09.56.34s0,.39.26.57.43.36.52.55a10.86,10.86,0,0,1,.5,1c.43.36.91.51,1.35.86a3.77,3.77,0,0,1,1.23,1.74A2.36,2.36,0,0,1,825.22,463.9Z"/><path class="cls-13" d="M867.84,458.33c-.42.86-.95,1.55-1.28,2.31-.25.48-.42.86-.59,1.25-.34.58-.61.87-1,1.55-.26.48-.6,1.06-.94,1.64a5.46,5.46,0,0,1-1.48,2,7.19,7.19,0,0,1-1.45,2.6,3.15,3.15,0,0,0-.53.59c-.52.78-.47,1.8-1.28,2.31-.46,2-1.69,3.55-2.63,5.19s-1.5,3.45-2.34,5.27a12.31,12.31,0,0,0-1,1.92c-.08.19-.36.3-.44.49a12.51,12.51,0,0,0-1.08,2.58,9.69,9.69,0,0,0-.48,1.52c0,.09-.35.39-.43.68s0,.47-.05.75c-.16.48-.42.86-.58,1.34s-.23.95-.4,1.33-.44.49-.61.78-.25.67-.42,1-.44.49-.61.78c-.25.48-.24.76-.51,1.06s-.53.68-.79,1c-.09.1-.18.1-.27.29-.16.48,0,.84-.12,1.32,1.24.4,2.7-.23,3.81-.57.37-.11.84,0,1.3-.16s1-.24,1.48-.36,1-.05,1.49-.17,1-.43,1.56-.55c.83-.14,1.86-.19,2.79-.33l2.88-.43c1.3-.16,2.52,0,3.63-.28.37,0,.73-.32,1-.33s.48.26,1,.32a2.4,2.4,0,0,1,.84,0c2.1.73,1.41,1.89,1.34,4.23,0,.28.22.55.23.83s-.34.58-.32,1c.06,1.12.3,2.23.27,3.45,1.05.41,2,.92,2.07,2s-1.24,1.28-2,2.07c-1.59,0-3.25.54-4.84.53-2.05.11-4.58.14-6.25.23-.28,0-.29-.17-.48-.16-.56,0-.92.33-1.48.36s-1-.13-1.5-.11-.83.32-1.2.34c-.56,0-1.13-.13-1.69-.1-2,0-3.71.57-5.13.27-.19,0-.55.12-.75,0s-.21-.46-.3-.45-.36.3-.64.31a2.42,2.42,0,0,1-1.79-.19c-1,.52-2,.29-3,.62-.74.23-.77-.33-1.06-.51-.27.2-.44.58-.8.79a10.7,10.7,0,0,0-3,.16c-.28,0-.76-.15-1,0-1.12.06-2.13.49-3.34.55a9.69,9.69,0,0,0-2.44-.15c-.58-.44-.73-1.37-1.22-1.9.16-.57.52-.78.68-1.34a10.15,10.15,0,0,0,.58-1.43c.08-.19.27-.2.26-.39a2.44,2.44,0,0,1,.5-1.24,12.93,12.93,0,0,1,.5-1.24,2.21,2.21,0,0,0,.44-.49,12.13,12.13,0,0,1,1.29-2.22,2,2,0,0,0,.13-1.13c.8-.79.93-1.92,1.44-2.88.08-.19.34-.58.43-.77s.08-.28.16-.48.26-.29.44-.58a6.24,6.24,0,0,0,.24-.76c.17-.29.24-.85.4-1.24.09-.1.07-.38.16-.48a3.94,3.94,0,0,0,.68-1.34c.25-.48.59-1.25.84-1.82.08-.19.35-.39.44-.58s.05-.75.14-.94c.17-.38.53-.68.78-1.26.08-.29.43-.68.68-1.25.09-.1.08-.29.17-.38a4.21,4.21,0,0,1,.42-1c.09-.1.18-.1.26-.29a3.59,3.59,0,0,0,.23-.95,8.49,8.49,0,0,0,.58-1.34,3.53,3.53,0,0,0,.56-1.81,3.29,3.29,0,0,0,.68-1.25c.26-.39.53-.68.79-1.07.25-.57.4-1.33.64-2a.56.56,0,0,1,.37-.11c.08-.19,0-.47.05-.75.09-.1.27-.11.36-.21s-.12-.46.05-.75a3.62,3.62,0,0,1,1.35-1.1c0-.65.41-1.14.57-1.71.08-.19.07-.38.16-.57s.44-.58.51-1c.18-.2.07-.38.16-.57.68-1.25,2.12-2.45,2.6-4,.17-.38.62-.59.6-1.06-.49-.44-.74.13-1.11.34-.18.1-.28,0-.55.12a22.81,22.81,0,0,1-2.94,1,4.52,4.52,0,0,0-1.12.06c-.37.11-.83.32-1.29.44a10.62,10.62,0,0,1-1.19.53c-.28,0-.66-.15-.94-.14a9.24,9.24,0,0,0-1.38.35,31.67,31.67,0,0,1-4.36.7c-1.67.18-3.35.27-4.23-.43a8.07,8.07,0,0,1-.3-2.23c.28-.11-.14-.93.43-.77.06-.66-.77-.33-.61-.9a8.2,8.2,0,0,0-.14-2.61c-.05-1,.17-2.07.12-3.09-.12-.55-.43-1.1-.55-1.65a2.45,2.45,0,0,1,2.51-2.1c1.06.6,1.18,1.15,2,1.3.57.16,1.2-.25,2-.29.28-.11.29.08.47.07.84,0,2.31-.49,3,.4a8.68,8.68,0,0,1,1.37-.63,3,3,0,0,1,1.22.12c.19,0,.55-.22.83-.23a6.56,6.56,0,0,0,2,0c.48.16,2.49-.6,3.14-.72a10.14,10.14,0,0,0,1.68-.09c.56,0,1.11-.25,1.67-.27.28,0,.66.15.94,0s.74-.23,1.2-.25a17.86,17.86,0,0,1,2.24-.12,21.93,21.93,0,0,0,2.69-.42,2.17,2.17,0,0,1,1.7.29c.34-.58,1-.05,1.59-.08.19,0,.36-.21.65-.13s.29.27.57.25.56,0,.75.05a10.76,10.76,0,0,1,1.05.41c.56,0,1-.24,1.58-.27a3.77,3.77,0,0,1,2.08.45A2.36,2.36,0,0,1,867.84,458.33Z"/><path class="cls-13" d="M911.88,446.24c-.23.93-.6,1.71-.76,2.53-.15.52-.23.93-.31,1.34-.21.64-.41,1-.69,1.74-.15.52-.36,1.16-.58,1.8a5.46,5.46,0,0,1-1,2.31,7.23,7.23,0,0,1-.87,2.85,3.14,3.14,0,0,0-.39.69c-.34.87-.08,1.86-.76,2.53,0,2-.9,3.83-1.47,5.63s-.74,3.69-1.18,5.64a12.42,12.42,0,0,0-.59,2.1c0,.2-.29.37-.33.57a12.59,12.59,0,0,0-.51,2.75,9.88,9.88,0,0,0-.15,1.59c0,.09-.26.46-.28.75s.12.45.11.75c-.06.5-.23.93-.29,1.43s0,1-.11,1.38-.33.57-.44.89-.1.71-.21,1-.33.57-.43.89c-.15.52-.08.79-.27,1.14s-.37.78-.57,1.12c-.07.11-.16.14-.2.34-.06.5.22.81.16,1.31,1.29.13,2.59-.8,3.6-1.36.34-.19.81-.22,1.24-.43s.94-.45,1.37-.66,1-.27,1.42-.48.89-.63,1.41-.87c.79-.31,1.78-.58,2.66-.91l2.72-1c1.24-.43,2.46-.57,3.49-1,.36-.1.65-.47.92-.54s.52.15,1,.12a2.39,2.39,0,0,1,.81-.22c2.2.27,1.78,1.55,2.21,3.85.07.27.33.49.4.76s-.21.64-.12,1c.29,1.08.77,2.12,1,3.31,1.11.18,2.16.48,2.46,1.56s-.94,1.51-1.47,2.43c-1.56.33-3.06,1.22-4.61,1.54-2,.54-4.44,1.11-6.07,1.55-.27.07-.32-.11-.5-.06-.54.15-.83.51-1.37.66s-1,.09-1.49.21-.74.49-1.1.59c-.54.15-1.13.11-1.67.26-1.92.42-3.51,1.34-5,1.35-.18,0-.52.24-.72.2s-.3-.4-.39-.38-.29.37-.56.44a2.41,2.41,0,0,1-1.79.19c-.87.72-1.84.69-2.76,1.23-.67.38-.82-.17-1.14-.27-.22.25-.3.66-.62.94a10.67,10.67,0,0,0-2.88.78c-.27.07-.77,0-1,.18-1.08.29-2,.92-3.15,1.24a9.63,9.63,0,0,0-2.42.37c-.66-.3-1-1.18-1.6-1.6,0-.59.35-.87.38-1.46a10,10,0,0,0,.26-1.52c0-.21.22-.25.17-.43a2.44,2.44,0,0,1,.22-1.32,13.09,13.09,0,0,1,.22-1.32,2.19,2.19,0,0,0,.33-.57,12.2,12.2,0,0,1,.79-2.44,2,2,0,0,0-.11-1.13c.62-.94.5-2.07.8-3.12,0-.21.21-.64.25-.84s0-.29.06-.5.2-.34.3-.66a6.47,6.47,0,0,0,.07-.79c.11-.32.05-.88.13-1.29.07-.11,0-.38.06-.5a3.92,3.92,0,0,0,.38-1.46c.15-.52.31-1.34.44-2,0-.21.26-.46.3-.66s-.11-.75-.06-1c.08-.41.37-.78.49-1.39,0-.29.28-.75.4-1.37.07-.11,0-.29.08-.41a4.21,4.21,0,0,1,.21-1c.07-.11.16-.14.2-.34a3.57,3.57,0,0,0,0-1,8.5,8.5,0,0,0,.29-1.43,3.54,3.54,0,0,0,.17-1.88,3.29,3.29,0,0,0,.4-1.37c.17-.43.37-.78.54-1.21.12-.61.11-1.38.21-2.09a.56.56,0,0,1,.34-.19c0-.21-.12-.45-.11-.75.07-.11.25-.16.31-.28s-.21-.43-.11-.75a3.63,3.63,0,0,1,1.08-1.36c-.17-.63.16-1.2.19-1.79,0-.21,0-.38,0-.59s.3-.66.3-1c.13-.23,0-.38,0-.59.4-1.37,1.55-2.84,1.7-4.43.08-.41.48-.71.36-1.16-.57-.33-.7.29-1,.56-.16.14-.27.07-.52.24a23,23,0,0,1-2.67,1.59,4.46,4.46,0,0,0-1.08.29c-.34.19-.74.49-1.17.7a10.41,10.41,0,0,1-1,.77c-.27.07-.68,0-1,.06a9.35,9.35,0,0,0-1.28.64,31.55,31.55,0,0,1-4.12,1.6c-1.6.53-3.22,1-4.23.47a8,8,0,0,1-.77-2.12c.25-.16-.33-.88.25-.84-.08-.66-.82-.17-.79-.75a8.18,8.18,0,0,0-.68-2.52c-.27-1-.27-2.06-.54-3-.24-.52-.65-1-.89-1.5a2.46,2.46,0,0,1,2-2.58c1.16.36,1.4.88,2.26.84.59,0,1.12-.5,1.93-.72.25-.16.29,0,.47,0,.81-.22,2.16-1,3-.24a8.8,8.8,0,0,1,1.21-.91,3,3,0,0,1,1.22-.14c.18,0,.49-.33.76-.4a6.58,6.58,0,0,0,1.92-.42c.5.06,2.31-1.11,2.92-1.37a10.23,10.23,0,0,0,1.62-.44c.54-.15,1-.47,1.57-.62.27-.07.68,0,.93-.16s.67-.38,1.12-.5a17.78,17.78,0,0,1,2.16-.59,22.1,22.1,0,0,0,2.54-1,2.16,2.16,0,0,1,1.72-.08c.21-.64,1-.27,1.53-.42.18,0,.31-.28.61-.26s.34.2.61.12.54-.15.75-.11a11,11,0,0,1,1.11.18c.54-.15.94-.45,1.48-.6a3.77,3.77,0,0,1,2.13,0A2.36,2.36,0,0,1,911.88,446.24Z"/><path class="cls-13" d="M955.09,429.16c-.12,1-.4,1.77-.47,2.6-.09.54-.12,1-.16,1.37-.14.66-.3,1-.49,1.8-.09.54-.23,1.2-.37,1.86a5.47,5.47,0,0,1-.75,2.41,7.21,7.21,0,0,1-.54,2.93,3.17,3.17,0,0,0-.31.73c-.24.9.14,1.86-.47,2.6.21,2-.46,3.9-.82,5.76s-.32,3.75-.53,5.74a12.4,12.4,0,0,0-.35,2.15c0,.21-.24.4-.26.61a12.56,12.56,0,0,0-.19,2.79,9.83,9.83,0,0,0,0,1.6c0,.09-.21.49-.19.78s.17.43.19.73c0,.5-.12,1-.12,1.46s.09,1,.05,1.39-.26.61-.33.94,0,.71-.09,1-.26.61-.33.94c-.09.54,0,.8-.14,1.16s-.28.82-.44,1.18c-.05.12-.14.16-.16.36,0,.5.31.78.31,1.28,1.3,0,2.48-1.09,3.42-1.77.31-.22.78-.31,1.18-.57s.88-.55,1.28-.81,1-.38,1.35-.64.82-.73,1.3-1c.75-.4,1.7-.78,2.53-1.21l2.59-1.33c1.18-.57,2.38-.85,3.35-1.44.35-.14.59-.54.85-.64s.54.09,1,0a2.4,2.4,0,0,1,.78-.31c2.22,0,1.94,1.34,2.63,3.58.1.26.38.45.49.71s-.14.66,0,1c.42,1,1,2,1.37,3.18,1.13.05,2.2.23,2.62,1.27s-.76,1.61-1.18,2.58c-1.51.5-2.9,1.56-4.41,2.06-1.91.76-4.29,1.61-5.85,2.23-.26.1-.33-.07-.5,0-.52.21-.76.61-1.28.81s-1,.21-1.46.38-.68.57-1,.71c-.52.21-1.11.24-1.63.45-1.86.64-3.33,1.73-4.77,1.9-.17.07-.49.29-.69.28s-.35-.36-.43-.33-.24.4-.5.5a2.42,2.42,0,0,1-1.75.4c-.78.81-1.75.9-2.6,1.54-.62.45-.83-.07-1.16-.14-.19.28-.23.69-.5,1a10.67,10.67,0,0,0-2.78,1.11c-.26.1-.76.1-1,.29-1,.42-1.86,1.14-3,1.59a9.66,9.66,0,0,0-2.36.64c-.69-.23-1.13-1.06-1.77-1.41,0-.59.24-.9.21-1.49a10,10,0,0,0,.09-1.54c0-.21.19-.28.12-.45a2.44,2.44,0,0,1,.07-1.34,13.12,13.12,0,0,1,.07-1.34,2.17,2.17,0,0,0,.26-.61,12.17,12.17,0,0,1,.51-2.51,2,2,0,0,0-.24-1.11c.5-1,.26-2.12.44-3.19,0-.21.14-.66.16-.87s0-.29,0-.5.16-.36.23-.69a6.52,6.52,0,0,0,0-.8c.07-.33-.05-.88,0-1.3.05-.12-.05-.38,0-.5a3.93,3.93,0,0,0,.21-1.49c.09-.54.16-1.37.21-2,0-.21.21-.49.23-.69s-.19-.73-.17-.94c0-.42.28-.82.33-1.44,0-.29.19-.78.24-1.41.05-.12,0-.29,0-.42a4.26,4.26,0,0,1,.09-1c.05-.12.14-.16.16-.36a3.59,3.59,0,0,0-.09-1,8.59,8.59,0,0,0,.12-1.46,3.53,3.53,0,0,0,0-1.89,3.3,3.3,0,0,0,.24-1.41c.12-.45.28-.81.4-1.27.05-.62-.05-1.39,0-2.1.05-.12.23-.19.31-.22,0-.21-.17-.43-.19-.73.05-.12.23-.19.28-.31s-.26-.4-.19-.73a3.62,3.62,0,0,1,.92-1.47c-.24-.61,0-1.21,0-1.8,0-.21-.05-.38,0-.59s.23-.69.17-1.08c.1-.24-.05-.38,0-.59.24-1.41,1.22-3,1.18-4.6,0-.42.4-.76.23-1.2-.61-.26-.66.36-.94.68-.14.16-.26.1-.49.29a22.67,22.67,0,0,1-2.47,1.89,4.5,4.5,0,0,0-1,.42c-.31.23-.68.57-1.08.83a10.6,10.6,0,0,1-1,.88c-.26.1-.68.07-.94.17a9.34,9.34,0,0,0-1.2.78,31.71,31.71,0,0,1-3.91,2.06c-1.53.71-3.09,1.33-4.15,1a8.06,8.06,0,0,1-1-2c.23-.19-.43-.83.16-.87-.16-.64-.83-.07-.87-.66a8.19,8.19,0,0,0-1-2.43c-.38-1-.5-2-.88-3-.29-.49-.76-.9-1.06-1.39a2.45,2.45,0,0,1,1.7-2.79c1.2.23,1.49.71,2.34.57.59,0,1.06-.62,1.84-.94.23-.19.29,0,.47-.09.78-.31,2-1.21,3-.59a8.86,8.86,0,0,1,1.09-1,3,3,0,0,1,1.2-.28c.17-.07.45-.38.71-.48a6.61,6.61,0,0,0,1.86-.64c.5,0,2.17-1.37,2.74-1.7a10.05,10.05,0,0,0,1.56-.62c.52-.21,1-.59,1.49-.8.26-.1.68-.07.9-.26s.63-.45,1.06-.62a18,18,0,0,1,2.08-.83,21.87,21.87,0,0,0,2.41-1.26,2.17,2.17,0,0,1,1.7-.28c.14-.66,1-.38,1.48-.59.17-.07.28-.31.57-.33s.36.16.63.05.52-.21.73-.19a11.1,11.1,0,0,1,1.13.05c.52-.21.88-.55,1.41-.76a3.77,3.77,0,0,1,2.12-.24A2.36,2.36,0,0,1,955.09,429.16Z"/><path class="cls-18" d="M993,683.3c-16.23-28.44-43-14.52-61.48,2.54a51.75,51.75,0,0,1-18.21,12.32c-12.91,5.85-32.86,20.35-47.18,11.54-3.88-2.39-6.51-6.32-9-10.13-7.95-12.1-15-27.15-26.28-36.22-8.08-6.49-18.12-11.32-27.12-16.37-42.26-23.74-82.28-53.31-125.9-74.14-6.25-3-12.46-5.77-18.47-9.25-11.58-6.71-22.32-17.45-36.52-16.74-6.5.33-11.07,3.46-16.9,5.82-5.37,2.18-10,3.86-14.58,7.65a90.24,90.24,0,0,0-10.26,10.18c-10,4.18-17.91,12.83-24.26,22-5,7.15-9.35,13.5-10.43,22.35-.42,3.41-.76,7.56.26,10.88.3,1,1.28,2.12,1.46,3.12a7.66,7.66,0,0,0,.63,1.3,28.13,28.13,0,0,1-3.26,1.53c-8.54,3.41-18.63,3-27.58,5.65a75.2,75.2,0,0,0-27.35,14.55,88.44,88.44,0,0,0-18.94,22.19c-2.1,3.69-2.42,7.13-7,8.9-3.93,1.54-9.51.79-13.69.68-7.84-.21-15.82-1.36-23.61,0-9,1.62-14.85,7.18-20.17,14.31-12.13,16.28-17,38.16-18.4,58.11-.77,11,.07,22.76,4.51,33,3,6.79,5.71,11.37,5.58,19.19-.11,6.63-.2,13.25-.2,19.89,0,14.11-27.19,11.32-27.38,25.42-.09,6.34-26.44,19.57-32.71,20.59-61,9.93-27,177.11-19.16,217.34,27.28-1,53.85-5.63,79.62-15.16,28.62-10.59,56.26-24.65,84.22-36.9,12.08-5.29,23.89-11.41,35.94-14a11.82,11.82,0,0,1,8.17-3.36c16,.16,32.15,1.56,45.3,11.65,10.05,7.71,16.19,19.2,21.1,30.82,2.87,4.38,5.73,8.77,8.74,13.05,26.09,37,65,49.83,97.43,30.19,15.84-9.59,29.31-8.64,44.33-.44,11.83,6.46,23.71,13.08,36.21,18,14,5.47,32.44,10.55,41.53-1.91,11.14-15.27,25.95-18.57,40.79-24.5,8-4.74,5-12.63,5-19.25.25-45,.58-90.1,0-135.15-.41-32.28-1.54-64.51,12.16-94.2a5.39,5.39,0,0,0,.57.09,17.21,17.21,0,0,1,.2-2.14c.15-.92,1.59-2.15,1.74-3.06.24-1.46,1.85-3.08,2.37-4.27,2.7-4.32,1.75-3.22,4.43-7.57.91-1.48,2.13-4.34,3.44-5.18,4.06-6.94,9.09-16.77,14.56-22.55l1.76-3.54c23.69-30.24,52.88-51.63,94.93-52.45,1.06,0,2.1-1.35,3.14-2.08C1007.21,725.09,1004.47,703.36,993,683.3ZM664.11,888.82c-.48-.17-1.35-.33-1.36-.52a5.06,5.06,0,0,1,.5-1.66l.49.15c.13.62.28,1.24.43,1.85Z"/><path class="cls-24" d="M1000.19,784.48A68.66,68.66,0,0,0,984,790.06a103.27,103.27,0,0,0-32.61,23.17c-15.45,16.08-37.16,37.62-39.29,61.16a4.44,4.44,0,0,0,2.41,4.66c0-.11,0-.22.08-.33a37.64,37.64,0,0,1,2.11-10.55,48.55,48.55,0,0,1,3.68-8.8c5-13.46,14.61-24.55,25-34.51,2-1.93,6.38-.09,4.66,2.83s-3.52,5.75-5.3,8.6c.33-.37.64-.75,1-1.12a3,3,0,0,1,.48-.37c.8-.91,1.65-1.8,2.57-2.67l0-.05h0l.53-.51a2.36,2.36,0,0,1,.38-.23c1.34-1.49,2.73-2.94,4.19-4.35l.05-.08h0c.18-.17.34-.35.53-.52a2.16,2.16,0,0,1,1.93-.65c9.85-11.52,22.62-21.83,35.86-27.31a87,87,0,0,1,10.68-3.34C1009.92,793.44,1007.08,783.11,1000.19,784.48Z"/><path class="cls-13" d="M525.95,643.38a40.38,40.38,0,0,0-2.69-4.51c-5.46-7.92-14.2-18.18-23.25-22.06A29.66,29.66,0,0,0,473.65,618a17.56,17.56,0,0,0-8.43,10.7,24.71,24.71,0,0,0-14.34,1.21c-5.2,1.95-11.19,3.4-15.24,7.46-2.07,2.07-5,8.18-6.1,10.95-1.39,3.55-10.24-1.94-13.21-1.48-7.21,1.12-13.13,5.54-17.6,11.13-7.85,9.81-14.12,22.35-13.09,35.2,7.69,95.89,7.09,7.91,25,8.64a12.63,12.63,0,0,0,3.25-2l.64.92c3.81,5.59,7.48,12.07,12.56,16.68a17.61,17.61,0,0,0,8.46,7.22c10.26,4,19.66-2.37,23.22-12,.17-.46.3-.94.45-1.41.07-.23.16-.46.22-.69a36.2,36.2,0,0,0,1.12-15.46c7.24,8.06,18.07,12.46,29,7.69,4.64-2,10-5.31,12.59-9.83,2.83-5,2-11,1.51-16.59a16.78,16.78,0,0,0,10.91-.54,27.6,27.6,0,0,0,3.94-1.05C532.86,669.67,531.72,654.66,525.95,643.38Z"/><path class="cls-13" d="M655.11,561.57c-.15-16.19,1.4-32.66-15.88-34.72-13.62-1.62-20.36-.85-26.75,9.84a34.76,34.76,0,0,0-13-2.06c-6.81.25-11.25,2.8-17,5.87-6.67,3.56-9.74,8.51-10.18,15.34a21.16,21.16,0,0,0-4.09,1.13c-.3.1-.6.16-.9.27a37.35,37.35,0,0,0-7.28,3.51,31,31,0,0,0-4.78,3.72c-1.16,1.15-4.87,5.34-2.15,2.56-.7.86-1.34,1.77-2,2.68a10.82,10.82,0,0,0-1.87,6.07c-7.31,9.64-12.33,21.38-8.58,30.65a16.21,16.21,0,0,0,6.87,8.21,11.52,11.52,0,0,1,.87-2c.11-.64.22-1.29.34-1.93,0-.1.06-.18.08-.28-.75-5.13,1.89-11.34,18.66-8.13.26.52,5.11.81,5.31,3.39.89,1.83.39-2,0,0-.07.37,6.73,5.65,6.66,6,.65,2.76-2.62,8.72-2.57,11.66.32,18,20.91,17.82,20.9-.24,0-3.93,0-8-.06-12,4.54,5,11,7.74,18.11,5.55,4.38-1.34,9.33-5.06,10-10a92.28,92.28,0,0,0,.76-18.22A28.49,28.49,0,0,0,638,591.82C656.61,593,655.23,574.43,655.11,561.57Zm-36.28,31.62c-.23-.62-.41-1.25-.59-1.89Q621.85,592.33,618.83,593.19Z"/><path class="cls-33" d="M531.58,648.63a40.38,40.38,0,0,0-2.69-4.51c-5.46-7.92-14.2-18.18-23.25-22.06a29.66,29.66,0,0,0-26.36,1.22,17.56,17.56,0,0,0-8.43,10.7,24.71,24.71,0,0,0-14.34,1.21c-5.2,1.95-11.19,3.4-15.24,7.46-2.07,2.07-5,8.18-6.1,10.95-1.39,3.55-10.24-1.94-13.21-1.48-7.21,1.12-13.13,5.54-17.6,11.13a61.11,61.11,0,0,0-13.09,35.2c-4.17,93.37,1.8,6.79,25,8.64a12.64,12.64,0,0,0,3.25-2c.21.31-3.46,1.69-3.25,2C420,712.67,425,721,430.1,725.62c2,3.07,7.13,2.75,11.05,4.3,10.26,4,19.66-2.37,23.22-12,.17-.46.3-.94.45-1.41.07-.23.16-.46.22-.69a36.2,36.2,0,0,0,1.12-15.46c7.24,8.06,18.07,12.46,29,7.69,4.64-2,10-5.31,12.59-9.83,2.83-5,2-11,1.51-16.59a16.78,16.78,0,0,0,10.91-.54,27.6,27.6,0,0,0,3.94-1.05C538.48,674.91,537.34,659.9,531.58,648.63Z"/><path class="cls-33" d="M660.74,566.82c-.15-16.19,1.4-32.66-15.88-34.72-13.62-1.62-20.36-.85-26.75,9.84a34.76,34.76,0,0,0-13-2.06c-6.81.25-11.25,2.8-17,5.87-6.67,3.56-9.74,8.51-10.18,15.34a21.16,21.16,0,0,0-4.09,1.13c-.3.1-.6.16-.9.27a37.35,37.35,0,0,0-7.28,3.51,31,31,0,0,0-4.78,3.72c-1.16,1.15-4.87,5.34-2.15,2.56-.7.86-1.34,1.77-2,2.68a10.82,10.82,0,0,0-1.87,6.07c-7.31,9.64-12.33,21.38-8.58,30.65a16.21,16.21,0,0,0,6.87,8.21c.24-.7-7.13-4.41-6.77-5,.11-.64,7.86,1.75,8,1.1,0-.1-8-1-8-1.1-.75-5.13,10-10.51,26.73-7.3a31.58,31.58,0,0,1,.7,5.63,9.42,9.42,0,0,1,.86,5.88c-.07.37-.13.75-.2,1.12a37,37,0,0,1,.94,8.21c.32,18,28,18.07,28,0,0-3.93,0-8-.06-12,4.54,5,11,7.74,18.11,5.55,4.38-1.34,9.33-5.06,10-10a92.28,92.28,0,0,0,.76-18.22,28.49,28.49,0,0,0,11.44,3.32C662.24,598.21,660.85,579.67,660.74,566.82Zm-36.28,31.62c-.23-.62-.41-1.25-.59-1.89Q627.48,597.58,624.46,598.44Z"/></g></g></g></svg>