<svg xmlns="http://www.w3.org/2000/svg" viewBox="0 0 1703.28 978.34"><defs><style>.cls-1{isolation:isolate;}.cls-2{fill:#944f90;}.cls-3{fill:#7f9a41;}.cls-17,.cls-4{fill:#b6dad0;}.cls-4{opacity:0.6;}.cls-5{fill:#05ab8c;}.cls-6{fill:#48395f;}.cls-7{fill:#007a64;}.cls-8{fill:#008f76;}.cls-12,.cls-9{fill:#005b49;}.cls-9{opacity:0.7;}.cls-10{fill:#55676f;}.cls-10,.cls-13,.cls-15{opacity:0.3;}.cls-11{fill:none;}.cls-12{opacity:0.5;}.cls-13,.cls-14,.cls-15,.cls-16{fill:#231f20;stroke:#231f20;stroke-miterlimit:10;mix-blend-mode:multiply;}.cls-13,.cls-14{stroke-width:6.76px;}.cls-14,.cls-16{opacity:0.1;}.cls-15,.cls-16{stroke-width:6.33px;}.cls-18{fill:#f8f9f4;}.cls-19{fill:#fff;}.cls-20{fill:#754823;}.cls-21{fill:#8f663b;opacity:0.52;}.cls-22{fill:#74431f;}.cls-23{fill:#633514;}.cls-24{fill:#905f3e;}</style></defs><title>outcomeMoosh_5</title><g class="cls-1"><g id="Layer_2" data-name="Layer 2"><g id="moosh"><path class="cls-2" d="M1089.73,763.38"/><path class="cls-3" d="M1284.56,675.68c1.76.28,3.51.59,5.26.89v-2.49Z"/><path class="cls-4" d="M766.73,738.5c-.43.13-.85.27-1.27.43Z"/><path class="cls-4" d="M768.37,740.45a19.53,19.53,0,0,0-2.91-1.51C765.29,738.91,767.31,739.9,768.37,740.45Z"/><path class="cls-4" d="M882.84,728.48l1.27.43C883.69,728.74,883.27,728.6,882.84,728.48Z"/><path class="cls-4" d="M884.11,728.91a19.49,19.49,0,0,0-2.91,1.51C882.25,729.87,884.27,728.88,884.11,728.91Z"/><path class="cls-5" d="M948.41,769.16a180.47,180.47,0,0,1-54.77-7c-12.44-3.57-30.47-10.22-25.6-26.83"/><ellipse class="cls-6" cx="825.07" cy="942.76" rx="344.4" ry="35.57"/><path class="cls-7" d="M1092.27,632.05c-64,55.13-139,105.19-226.07,99.16-5.48,3.06-10,7.85-11.53,13-4.87,16.61,13.16,23.26,25.6,26.83a180.47,180.47,0,0,0,54.77,7c21.38-.63,42.27-2.22,62.63-9.49,53.81-19.23,128.47-63.55,146.77-114.95Z"/><path class="cls-5" d="M903.77,8.8C850.61-6.12,791.53-1,739.22,16.22c-55.83,18.39-101.32,52.4-137.56,96.42a404.17,404.17,0,0,0-40.71,60.2c-60.44,108.41-81.83,250.95-74.2,375.56,1.85,30.19,5.12,60.33,11.74,89.69A294.75,294.75,0,0,0,510,676.7s0,0,0,0a8.34,8.34,0,0,0,.76,2c.28.74.56,1.5.85,2.23a12,12,0,0,0,1.64,4h0c.42,1,.86,2,1.29,3,.29.67.57,1.34.86,2,.78,1.77,1.56,3.54,2.37,5.27-.38-.83-.77-1.64-1.15-2.48.45,1,.93,2,1.39,3l-.24-.49.46,1c.65,1.39,1.3,2.77,2,4.14.45.92.91,1.82,1.37,2.73l-.25-.51.6,1.18-.35-.67c.49,1,1,1.95,1.48,2.9.31.58.63,1.15.94,1.73q.88,1.64,1.78,3.25,1.09,2,2.22,3.9c.41.7.81,1.42,1.22,2.11-.41-.69-.81-1.4-1.21-2.1q.81,1.39,1.63,2.77c-.14-.23-.29-.44-.42-.67.19.32.39.63.59.95.8,1.34,1.63,2.65,2.45,4,.58.92,1.16,1.85,1.75,2.76l1.21,1.84c.41.62.83,1.22,1.24,1.83l.41.6c.5.73,1,1.48,1.51,2.21q2.23,3.18,4.54,6.26l.22.29q2.72,3.59,5.56,7l.25.3a220.33,220.33,0,0,0,46,41.72l.5.35c2.12,1.44,4.27,2.83,6.44,4.2l1.35.85q3.05,1.9,6.16,3.7l1.8,1q3,1.71,6.05,3.34l2.05,1.08c2,1,4,2.08,6.06,3.08l2.11,1c2.06,1,4.12,2,6.21,2.9l1.88.82c2.2,1,4.39,1.92,6.62,2.84l.13.05q8.16,3.34,16.56,6.21l.06,0c1.87.64,3.76,1.24,5.64,1.84,1.15.37,2.3.75,3.45,1.11,1.69.52,3.39,1,5.09,1.51,1.38.4,2.75.81,4.13,1.19,1.6.45,3.21.87,4.82,1.29s3,.79,4.54,1.17,3.08.75,4.63,1.12l.75.17a63.88,63.88,0,0,1,4.3-11.14c28.6,9,61.72,15.44,100.2,18.14l111.8-2,11.65-.21a45.74,45.74,0,0,1,34.81-20.58c11.6-.79,27.53-13.25,34.72-20,11.4-10.69,27.92-24,40.69-36.8,1.48-1.48,2.72-2.72,3.82-3.81,1.34-1.79,3.46-4.49,6.64-8.42,2.23-2.75,4.92-5,7-7.93,5-6.95,9.75-16.6,15.32-24.43q3-4.07,0,.54l7-10.5c2-2.66,4.52-5.11,6.71-7.69-1.73,1.38,5-12.5,6.77-15.18,13.9-21.51,36.72-32.95,59-18.52.36.23.69.52,1,.77,8.28-30.3,13-62,15.46-91.26C1176.37,359.49,1108.18,66.21,903.77,8.8Z"/><path class="cls-8" d="M591.38,764.29c-15.13-14-30.6-26.87-40.7-46.33-4.93-9.5-8.06-20.6-14.94-28.55-2.18-2.51-4.44-4.86-6.71-7.18a19.45,19.45,0,0,1-9.22,2.12,22.57,22.57,0,0,1-7.6-1.29,12,12,0,0,0,1,1.94,235.11,235.11,0,0,0,29.67,52.39l.22.29q2.72,3.59,5.56,7l.25.3a220.35,220.35,0,0,0,46,41.72l.5.34c2.12,1.44,4.27,2.83,6.44,4.2l1.35.85q3.05,1.9,6.16,3.7l1.8,1q3,1.71,6.05,3.34l2.05,1.08c2,1,4,2.08,6.06,3.08l2.11,1c2.06,1,4.12,2,6.21,2.9l1.88.82c2.2,1,4.39,1.92,6.62,2.84l.13,0q8.16,3.34,16.56,6.21l.06,0c1.87.64,3.76,1.24,5.64,1.84,1.15.37,2.3.75,3.46,1.11,1.69.52,3.39,1,5.09,1.51,1.38.4,2.75.81,4.13,1.19,1.6.45,3.21.87,4.82,1.29s3,.79,4.54,1.17,3.08.75,4.63,1.12l.75.17c.44-1.57,1-3.09,1.5-4.6C655.62,813.29,621.5,792.25,591.38,764.29Z"/><path class="cls-5" d="M908.23,832.57c-41.53,3.94-78.62,4.35-111.8,2l-57.79,1A574.24,574.24,0,0,0,817.41,839c31.72-.7,66.61-1.42,101.54-5.28.21-.33.44-.64.65-1C915.79,832.72,912,832.67,908.23,832.57Z"/><path class="cls-5" d="M658.82,818.19q-8.39-2.87-16.56-6.21Q650.42,815.32,658.82,818.19Z"/><path class="cls-5" d="M673.06,822.66c-1.7-.5-3.4-1-5.09-1.51C669.66,821.68,671.36,822.17,673.06,822.66Z"/><path class="cls-5" d="M642.14,811.93c-2.22-.91-4.42-1.87-6.62-2.84C637.71,810.06,639.91,811,642.14,811.93Z"/><path class="cls-5" d="M664.52,820c-1.88-.6-3.77-1.2-5.64-1.84C660.74,818.84,662.63,819.44,664.52,820Z"/><path class="cls-5" d="M617.21,800.2q-3-1.63-6.05-3.34Q614.16,798.57,617.21,800.2Z"/><path class="cls-5" d="M633.64,808.27c-2.09-.94-4.15-1.91-6.21-2.9C629.49,806.36,631.55,807.34,633.64,808.27Z"/><path class="cls-5" d="M625.32,804.36c-2-1-4.05-2-6.06-3.08C621.27,802.33,623.28,803.36,625.32,804.36Z"/><path class="cls-5" d="M682,825.15c-1.61-.42-3.22-.85-4.82-1.29C678.79,824.3,680.4,824.72,682,825.15Z"/><path class="cls-5" d="M601.84,791.27c-2.17-1.37-4.32-2.76-6.44-4.2C597.53,788.51,599.68,789.9,601.84,791.27Z"/><path class="cls-5" d="M729,834.42l-3.25-.48C726.83,834.1,727.91,834.27,729,834.42Z"/><path class="cls-5" d="M709.9,831.35c-1.42-.26-2.83-.54-4.24-.81C707.07,830.81,708.49,831.09,709.9,831.35Z"/><path class="cls-5" d="M719.41,833c-1.31-.21-2.61-.44-3.92-.66C716.8,832.55,718.11,832.78,719.41,833Z"/><path class="cls-5" d="M700.49,829.5l-4.47-1Z"/><path class="cls-5" d="M691.18,827.43q-2.32-.55-4.63-1.12Q688.86,826.89,691.18,827.43Z"/><path class="cls-5" d="M609.36,795.82q-3.1-1.81-6.16-3.7Q606.25,794,609.36,795.82Z"/><polygon class="cls-5" points="796.43 834.6 738.64 835.65 796.43 834.6 796.43 834.6"/><path class="cls-5" d="M548.68,744.7q-2.83-3.44-5.56-7Q545.84,741.27,548.68,744.7Z"/><path class="cls-8" d="M908.23,832.57l-111.8,2C829.61,836.93,866.7,836.51,908.23,832.57Z"/><polygon class="cls-8" points="796.43 834.6 908.23 832.57 796.43 834.6 796.43 834.6"/><path class="cls-8" d="M677.19,823.85c-1.38-.38-2.76-.79-4.13-1.19C674.43,823.06,675.81,823.47,677.19,823.85Z"/><path class="cls-8" d="M686.55,826.31c-1.52-.38-3-.77-4.54-1.17C683.52,825.54,685,825.94,686.55,826.31Z"/><path class="cls-8" d="M725.75,833.94c-2.11-.31-4.23-.62-6.33-1C721.52,833.32,723.63,833.63,725.75,833.94Z"/><path class="cls-8" d="M738.64,835.65q-4.83-.56-9.64-1.23Q733.81,835.08,738.64,835.65Z"/><path class="cls-8" d="M595.4,787.07l-.5-.35Z"/><path class="cls-8" d="M668,821.16c-1.16-.36-2.3-.74-3.45-1.11C665.67,820.42,666.81,820.8,668,821.16Z"/><path class="cls-8" d="M715.5,832.33c-1.87-.32-3.73-.64-5.59-1C711.76,831.69,713.63,832,715.5,832.33Z"/><path class="cls-8" d="M705.66,830.54q-2.59-.5-5.17-1Q703.07,830,705.66,830.54Z"/><path class="cls-8" d="M696,828.54q-2.43-.54-4.85-1.11Q693.6,828,696,828.54Z"/><path class="cls-8" d="M543.12,737.68l-.22-.29Z"/><path class="cls-8" d="M627.43,805.37l-2.11-1Z"/><path class="cls-8" d="M619.26,801.28l-2.05-1.08Z"/><path class="cls-8" d="M635.52,809.09l-1.88-.82Z"/><path class="cls-8" d="M611.16,796.86l-1.8-1Z"/><path class="cls-8" d="M658.88,818.21l-.06,0Z"/><path class="cls-8" d="M642.26,812l-.13-.05Z"/><path class="cls-8" d="M603.2,792.12l-1.35-.85Z"/><path class="cls-8" d="M548.93,745l-.25-.3Z"/><path class="cls-5" d="M908.23,832.57c3.73.1,7.56.15,11.37.21l.29-.42Z"/><path class="cls-9" d="M908.23,832.57c3.73.1,7.56.15,11.37.21l.29-.42Z"/><path class="cls-5" d="M919.6,832.78c-.21.33-.45.63-.65,1,2.5-.28,5-.53,7.51-.84C924.13,832.88,921.89,832.82,919.6,832.78Z"/><path class="cls-10" d="M919.6,832.78c-.21.33-.45.63-.65,1,2.5-.28,5-.53,7.51-.84C924.13,832.88,921.89,832.82,919.6,832.78Z"/><path class="cls-5" d="M1083.45,677.57c-1.73,2.68-8.5,16.56-6.77,15.18-2.19,2.58-4.76,5-6.71,7.69l-7,10.5q2.93-4.61,0-.54c-5.57,7.83-10.31,17.48-15.32,24.43-2.08,2.88-4.77,5.17-7,7.93-3.19,3.93-5.31,6.63-6.64,8.42-1.11,1.1-2.35,2.33-3.82,3.81-12.77,12.84-29.29,26.11-40.69,36.8-7.18,6.74-23.12,19.2-34.72,20a45.74,45.74,0,0,0-34.81,20.58l12.4-.22c59.89-8.12,118.72-26.83,160.6-72.47l.64-.7h-.43l.66-.26c.83-.92,1.69-1.79,2.51-2.73q3.14-3.61,6.08-7.44c19-24.69,32.16-55.9,41.13-88.73-.35-.25-.69-.54-1-.77C1120.16,644.62,1097.35,656.06,1083.45,677.57Z"/><path class="cls-8" d="M1146.33,648.79c-1.56-1-17.07-8.31-18.63-9.08-9.4,35.35-16.65,61-34.81,85.24-18,24-37,47.74-61.62,63.05a161.8,161.8,0,0,1-41.67,18.3c-15.31,4.32-30.93,12.65-47,11.54-9.83-.68-16.86,5.73-22.72,14.53l12.4-.22c59.89-8.12,118.72-26.83,160.6-72.47l.64-.7h-.43l.66-.26c.83-.92,1.69-1.79,2.51-2.73q3.14-3.61,6.08-7.44c19-24.69,32.16-55.9,41.13-88.73C1143.13,659.57,1146.68,649,1146.33,648.79Z"/><path class="cls-5" d="M919.6,832.78c2.29,0,4.53.1,6.85.13,1.94-.24,3.89-.51,5.83-.77l-12.4.22Z"/><path class="cls-9" d="M919.6,832.78c2.29,0,4.53.1,6.85.13,1.94-.24,3.89-.51,5.83-.77l-12.4.22Z"/><path class="cls-10" d="M919.6,832.78c2.29,0,4.53.1,6.85.13,1.94-.24,3.89-.51,5.83-.77l-12.4.22Z"/><path class="cls-5" d="M815.51,807.71c-3.87-1.94-27.9-5.69-32-8.63a244.59,244.59,0,0,0-25-15.59c-24.58-3.55-52.9-6-89.48-5.66a23.71,23.71,0,0,1-3.52,2.69.9.9,0,0,1,.09.26c.55,15.12,1.38,35.05-6.09,48.72-4.15,7.59-12.11,7.75-19.69,9.12-22.09,4-43.52,9.57-65.29,15-22.46,5.6-60.8,12-69,37.38-4.06,12.29,4.51,26.7,14,34.09,17.51,13.62,41.55,14.47,63.07,13.72,50.54-1.77,107.17-.7,152.64-5.65,16.31-1.78,33.8-.37,45-14.12,10.5-12.85,13.91-45.95,10.27-61.15C787.39,845.18,801.7,816.35,815.51,807.71Z"/><path class="cls-5" d="M839,800.1a90.74,90.74,0,0,0,12.13-6.94,244.59,244.59,0,0,1,25.39-15c24.66-3,53-4.74,89.59-3.53a23.71,23.71,0,0,0,3.46,2.77.93.93,0,0,0-.1.25c-.68,11.24,8.54,61.15,16.81,63.43,38.7,10.65,80.22,14.91,117.55,29.56,10.48,4.11,23,10.83,23.21,23.61,1.62,11.59-5,23.82-14.93,31.16-17.83,13.2-41.88,13.48-63.38,12.22-50.48-3-101-3.89-151.58-4-16.41,0-33.78-1.17-44.69-15.19-10.19-13.09-8.53-30.45-4.53-45.56C851.25,860.21,852.59,809.07,839,800.1Z"/><path class="cls-5" d="M854.69,858.79c-.93-4.91,0-10-1.47-14.84-2.2-7.08-13.47-12.15-24.54-13.11-12.1-1.05-27.55,2-37.12,6.81-9.86,5-11.15,11-9.83,18.3a5.15,5.15,0,0,0,1.61,3.44c-.68-.56,11.1-14.41,13-15.47,10.28-5.8,23.58-7.07,35-4.69,3.14.66,6.44,1.74,8.36,4.31,5.65,7.56,2.34,15.69,3.67,23.94.57,3.58-.1,4.8,4.27,5.9,2.33.59,6.37.2,7.15-2.59C855.92,866.56,855.5,863.11,854.69,858.79Z"/><path class="cls-11" d="M1131,759l-.73.7Q1138,758.82,1131,759Z"/><path class="cls-5" d="M1131,759l.26-.25-.76.26Z"/><path class="cls-12" d="M1131,759l.26-.25-.76.26Z"/><path class="cls-2" d="M1070.87,187.38l.26.25Z"/><path class="cls-2" d="M1163,321.48a1.41,1.41,0,0,0-.35-.23,1.37,1.37,0,0,1,.35.23,2,2,0,0,0,.32.24A2,2,0,0,1,1163,321.48Z"/><path class="cls-2" d="M1169.52,363.52l-.47-.55.84,1Z"/><path class="cls-5" d="M859.76,905.37c-21.44-17-4.61-34.37-4.29-52.65,0-.29-.06-.56-.07-.84,1.51-.6,2.6-1.58,2.48-3,0-.35-.17-.63-.2-1l0-.1c-.62-3.41-2.16-15.79-5.3-17.79-19.73-17.11-69.63,7.25-69.63,29.72,0,4.88,9,13.29,9,8.42,0-6.49-1.84-13.78,2-19.63,6.08-9.32,25.14-8.06,34.67-7.72,5.89.21,12.37,2.79,14.42,8.31a24.35,24.35,0,0,1,1.18,4.74,14.71,14.71,0,0,1,1.12,5.88,50.73,50.73,0,0,1-2,12c0,.31.08.61.09.93.19,4.36.15,8.71,0,13.05.3,5.56,1,11.19,1.71,16.58.09.72.22,1.43.34,2.15a27.44,27.44,0,0,0,5.91,6.27C856,914.55,864.54,909.15,859.76,905.37Z"/><path class="cls-8" d="M748.35,914.69c-45.47,5-102.1,3.88-152.64,5.65-21.52.75-45.56-.1-63.07-13.72-9.15-7.11-17.39-20.72-14.39-32.68-5.92,4.5-10.56,10-12.85,17.07-4.06,12.29,4.51,26.7,14,34.09,17.52,13.62,41.55,14.47,63.07,13.72,50.54-1.77,107.17-.69,152.64-5.65,16.31-1.78,33.8-.37,45-14.12a40.85,40.85,0,0,0,6.33-12.25C775.66,913.9,761.62,913.24,748.35,914.69Z"/><path class="cls-8" d="M810.42,811.75a32.25,32.25,0,0,1,5.09-4,15.15,15.15,0,0,0-2.38-.82Q811.7,809.28,810.42,811.75Z"/><path class="cls-8" d="M1122,907.43c-17.83,13.2-41.88,13.48-63.38,12.22-50.48-3-101-3.89-151.58-4-9.55,0-19.41-.44-28.15-3.53-11.68,0-22.33-.85-31.22-10-.9-.92-1.73-1.88-2.57-2.82a36.66,36.66,0,0,0,7.36,19.15c10.91,14,28.28,15.14,44.68,15.19,50.57.14,101.1,1.06,151.58,4,21.5,1.27,45.55,1,63.38-12.22,7.37-5.45,12.9-13.6,14.61-22.17A39.77,39.77,0,0,1,1122,907.43Z"/><path class="cls-4" d="M1134.15,406.19c2.08,9.09-6.9,15.27-20,19-14.34,4.05-24-.43-27.54-15-3.73-15.52.48-29.52,16.22-34.78C1123.3,368.56,1127.09,385.88,1134.15,406.19Z"/><path class="cls-4" d="M1093.33,329.08c10.35-.11,17.57,3.36,19.79,13.06,2.28,9.95-4.23,13.79-12.55,15.86-9.55,2.38-14.41-2-16.94-10.88C1080.77,337.14,1087.8,333.5,1093.33,329.08Z"/><path class="cls-4" d="M1106.24,469.75c-8,1.49-16.17-.46-18.35-9.22-2-8.13,2.52-16,11.14-18.16,7.59-1.92,13.83,1.44,16,10.06C1117,460.52,1115.05,466.43,1106.24,469.75Z"/><path class="cls-4" d="M509.09,416.42C506.39,428.2,518,436.22,535,441c18.58,5.26,31.17-.56,35.7-19.44,4.83-20.12-.63-38.26-21-45.08C523.16,367.64,518.24,390.1,509.09,416.42Z"/><path class="cls-4" d="M562,316.47c-13.42-.14-22.78,4.35-25.66,16.93-2.95,12.89,5.48,17.87,16.27,20.55,12.38,3.08,18.68-2.65,22-14.1C578.29,326.92,569.18,322.19,562,316.47Z"/><path class="cls-11" d="M1141.17,759l-.73.7Q1148.2,758.88,1141.17,759Z"/><path class="cls-5" d="M1141.17,759l.26-.25-.76.26Z"/><path class="cls-12" d="M1141.17,759l.26-.25-.76.26Z"/><path class="cls-13" d="M726.24,151.75c-9.47,13.63-22.53,23.84-36.32,33-20.56,13.72-46.56,23.08-67.25,15.66-7.4-2.65-8.7-10.74-1.69-17.39a1.67,1.67,0,0,1,2.07-.31c10.46,7.32,28.77,6.11,42.15,1.26,22.93-8.33,45.68-24.91,64.1-42,1.37-1.27,3.19-.09,2.26,1.48Q729.07,147.69,726.24,151.75Z"/><path class="cls-14" d="M751.66,346.72c-9.47,13.63-22.53,23.84-36.32,33-20.56,13.72-46.56,23.08-67.25,15.66-7.4-2.65-8.7-10.74-1.69-17.39a1.67,1.67,0,0,1,2.07-.31c10.46,7.32,28.77,6.11,42.15,1.26,22.93-8.33,45.68-24.91,64.1-42,1.37-1.27,3.19-.09,2.26,1.48Q754.48,342.65,751.66,346.72Z"/><path class="cls-14" d="M765.81,337.95c-2.19,16.45-9.14,31.5-17.2,46-12,21.6-30.86,41.82-52.65,44.67-7.79,1-12.64-5.57-9.45-14.7a1.67,1.67,0,0,1,1.7-1.22c12.65,1.72,28.39-7.72,38.06-18.15,16.59-17.89,29.24-43,37.81-66.66.64-1.76,2.8-1.53,2.68.28Q766.46,333,765.81,337.95Z"/><path class="cls-15" d="M903.78,163.28c12.37,10.86,27.24,18.17,42.55,24.48,22.82,9.4,49.66,14.16,67.24,4.65,6.29-3.4,5.46-10.8-2.82-15.78a1.7,1.7,0,0,0-2,0c-8,8-25.52,9.46-39.34,7-23.69-4.25-49.3-15.92-71-28.63-1.61-.95-3,.37-1.75,1.64Q900.09,160,903.78,163.28Z"/><path class="cls-16" d="M893.48,354.38c12.37,10.86,27.24,18.17,42.55,24.48,22.82,9.4,49.66,14.16,67.24,4.65,6.29-3.4,5.46-10.8-2.82-15.78a1.7,1.7,0,0,0-2,0c-8,8-25.52,9.46-39.34,7-23.69-4.25-49.3-15.92-71-28.63-1.61-.95-3,.37-1.75,1.64Q889.79,351.14,893.48,354.38Z"/><path class="cls-16" d="M880.47,363.47c9.44,13.48,22.16,24.11,35.54,33.86,19.95,14.54,44.89,25.52,64.22,20.45,6.91-1.81,7.86-9.2,1-16a1.7,1.7,0,0,0-2-.47c-9.66,5.87-27,3.15-39.87-2.54-22-9.74-44.13-27.14-62.16-44.62-1.34-1.3-3-.36-2.09,1.17Q877.65,359.45,880.47,363.47Z"/><path class="cls-17" d="M961.59,214.73C927.38,214.6,901,233.66,891,263c50.89-3.59,108.39,11.3,144,46.17a93.25,93.25,0,0,0,1.76-17.72C1037,244.61,1007.87,214.91,961.59,214.73Z"/><path class="cls-17" d="M755.33,267.68c-9.31-28.25-36.08-48.7-72.6-49.56-35.48-.83-63.26,30.88-63.58,71.75a82,82,0,0,0,3.7,25.32C653.25,280.77,710.92,269.17,755.33,267.68Z"/><path class="cls-2" d="M1081,187.45l.26.25Z"/><path class="cls-2" d="M1173.21,321.55a1.41,1.41,0,0,0-.35-.23,1.37,1.37,0,0,1,.35.23,2,2,0,0,0,.32.24A2,2,0,0,1,1173.21,321.55Z"/><path class="cls-2" d="M1179.7,363.58l-.48-.55.85,1Z"/><path class="cls-18" d="M1035,309.15C999.39,274.29,941.88,259.4,891,263a83.91,83.91,0,0,0-4.42,27.83c.25,34.26,19.46,61.45,48,71.82a38.34,38.34,0,0,1-.9-3.87c-4.56-26.18,15.23-47.1,37.85-46.82a31.39,31.39,0,0,1,19.13,6.35c.33,0,.63-.1,1-.1a13.47,13.47,0,0,1,13.47,13.47,13.31,13.31,0,0,1-1.73,6.48,51.74,51.74,0,0,1,1.68,17C1020.51,345,1031.09,329.16,1035,309.15Z"/><path class="cls-18" d="M622.85,315.19c6.22,19.81,20.07,34.69,38.87,41.85a34.46,34.46,0,0,1-2.31-9.41,34,34,0,0,1,51.19-32.83,14.92,14.92,0,0,1,16.69,21.35,35.29,35.29,0,0,1,.57,14.58c18.84-12.09,30.67-33.25,31.1-59.25a72.08,72.08,0,0,0-3.63-23.81C710.92,269.17,653.25,280.77,622.85,315.19Z"/><path class="cls-5" d="M727.3,336.15a15,15,0,0,1-10.48,8,25.07,25.07,0,0,1-3.64,13.57,67.66,67.66,0,0,0,14.69-7A35.29,35.29,0,0,0,727.3,336.15Z"/><path class="cls-5" d="M670.84,346.73a22.67,22.67,0,0,1,29.68-23.95,15,15,0,0,1,10.09-8,34,34,0,0,0-51.19,32.83,34.46,34.46,0,0,0,2.31,9.41,71.32,71.32,0,0,0,15.85,4A24.28,24.28,0,0,1,670.84,346.73Z"/><path d="M698.9,329.43a14.87,14.87,0,0,1,1.62-6.65,22.67,22.67,0,0,0-29.68,23.95A24.28,24.28,0,0,0,677.57,361a80.17,80.17,0,0,0,10.38.75,76.32,76.32,0,0,0,25.22-4.06,25.07,25.07,0,0,0,3.64-13.57,15,15,0,0,1-17.91-14.73Z"/><path class="cls-19" d="M727.3,336.15a14.85,14.85,0,0,0,1.66-6.72,14.93,14.93,0,0,0-18.34-14.63c.56.33,1.13.58,1.69.94A34.45,34.45,0,0,1,727.3,336.15Z"/><path class="cls-19" d="M700.52,322.78a23.86,23.86,0,0,1,5.58,2.68,22.67,22.67,0,0,1,10.71,18.7,15,15,0,0,0,10.48-8,34.45,34.45,0,0,0-15-20.41c-.55-.36-1.13-.62-1.69-.94A15,15,0,0,0,700.52,322.78Z"/><path class="cls-19" d="M706.1,325.46a23.86,23.86,0,0,0-5.58-2.68,14.87,14.87,0,0,0-1.62,6.65,15,15,0,0,0,17.91,14.73A22.67,22.67,0,0,0,706.1,325.46Z"/><path class="cls-5" d="M1003.34,338.14a13.38,13.38,0,0,1-10.7,6.88,35.29,35.29,0,0,1-.77,16.71,70.58,70.58,0,0,0,13.14-6.63A51.74,51.74,0,0,0,1003.34,338.14Z"/><path class="cls-5" d="M945.28,356.56c-3.07-17.59,10.23-31.64,25.43-31.45a22.27,22.27,0,0,1,8.38,1.68,13.41,13.41,0,0,1,11.55-8.49,31.39,31.39,0,0,0-19.13-6.35c-22.63-.27-42.42,20.64-37.85,46.82a38.34,38.34,0,0,0,.9,3.87,74.38,74.38,0,0,0,14.56,3.66A26.67,26.67,0,0,1,945.28,356.56Z"/><path d="M978.14,331.66a13.39,13.39,0,0,1,.95-4.88,22.27,22.27,0,0,0-8.38-1.68c-15.2-.19-28.49,13.86-25.43,31.45a26.67,26.67,0,0,0,3.83,9.74,79.12,79.12,0,0,0,11,.93,86.16,86.16,0,0,0,31.71-5.49,35.29,35.29,0,0,0,.77-16.71c-.35,0-.68.1-1,.1A13.47,13.47,0,0,1,978.14,331.66Z"/><path class="cls-19" d="M1003.34,338.14a13.31,13.31,0,0,0,1.73-6.48A13.47,13.47,0,0,0,991.6,318.2c-.33,0-.64.07-1,.1C996.92,323.1,1001.15,330.19,1003.34,338.14Z"/><path class="cls-19" d="M979.08,326.78c7.48,3.11,12,10.22,13.56,18.24a13.38,13.38,0,0,0,10.7-6.88c-2.19-8-6.42-15-12.7-19.85A13.41,13.41,0,0,0,979.08,326.78Z"/><path class="cls-19" d="M979.08,326.78a13.4,13.4,0,0,0,12.52,18.35c.36,0,.69-.08,1-.1C991.06,337,986.56,329.89,979.08,326.78Z"/><path d="M1037.39,527.77c-29-11.08-55.22-1.37-79.69,14.89-4.87,3.24-13.29,11.64-19.09,12.65-10.44,1.81-14.54-8-20.68-13.71-9.51-8.84-22.5-12.85-35.09-15-12-2.06-25.65-1.94-36.55,4.29-4.43,2.53-7.05,6.84-11.07,9.58-6.92,4.72-11.92,2-19.29-1.94-10.71-5.74-16.94-16.9-27.75-22.13-9.51-4.6-22.12-4.15-32.26-2.49-11.81,1.93-18.34,7.08-25.52,16.27-7,9-9.7,17.78-23.57,9.27-5.19-3.19-9.59-9.3-14.85-12.85-10.23-6.89-23.77-16.68-36-19.54-9-2.1-19.41-1-29.05.84-.65.39-1.31.77-2,1.11a151,151,0,0,0-22.91,13.63c-5.24,7-9.12,14.76-13.36,22.49.13.16.27.3.39.46,1.28,1.67,2.65,3.26,4,4.86.68-1.11,1.35-2.23,2.05-3.28l-.06,0,.21-.18a27.47,27.47,0,0,1,7.31-7.68,55.83,55.83,0,0,1,6.48-3.56c1-.5,4.38-2.52.78-.36.2-.1.41-.2.63-.3a25.08,25.08,0,0,1,7.44-2.58,54.74,54.74,0,0,1,24.29-2.94,18,18,0,0,1,2.18.35c6.52.66,12.84,2.85,20,7.1,11.28,6.68,20.24,13.71,30.09,22.16,7.07,6.06,15.28,9,24.63,7.6,22.36-3.45,27.06-32.49,49.85-31.05,13.12.83,18.7,11.78,28.87,18.54C805.92,559.6,816,565,825.63,566.5c7.93,1.26,14.15-.1,20.5-4.94,2.91-2.22,4.81-5.78,7.72-7.86,9.12-6.51,18.39-6.37,29-3.95,13.09,3,19.61,10,28.71,18.52,11.17,1.85,22.48,2.48,33.54-.27,16.51-4.1,30.56-15.05,45.76-22.31,22.28-10.64,42.7-10.53,60.82-.76,1.76-1.82,3.57-3.61,5.44-5.36A74.65,74.65,0,0,0,1037.39,527.77Z"/><ellipse class="cls-7" cx="808.02" cy="684.75" rx="175.92" ry="88.51"/><path class="cls-4" d="M653.78,739.57c34.14,14.13,70.63,12.95,104.77,0a33.24,33.24,0,0,1,10.62-1.91c5.7-2,11.89-4.13,12.61-4.51,11.2-6,10.43-20.79,3.37-29.9-5.79-7.48-16.51-9.51-25.25-11.08,1.57-.85,3.12-1.73,4.66-2.56a19,19,0,0,0,5.29-3.57,2.71,2.71,0,0,0-1.1.5c6.2-4.76,12.39-9.51,12.54-18.08.33-18.13-23.95-29.25-38.39-19.63-40.82,27.18-97,11.09-119.33-34.19L509.86,661.71A816.82,816.82,0,0,0,642,739.57C645.54,740.75,650.25,738.4,653.78,739.57Z"/><path class="cls-7" d="M794.89,754.26c-3-10.17-17.61-18.88-28.16-15.76l-1.27.43a19.53,19.53,0,0,1,2.91,1.51c.42.22.7.37.61.36s-.41-.24-.61-.36c-1.06-.55-3.08-1.54-2.91-1.51.42-.17.84-.31,1.27-.43l2.44-.84a33.24,33.24,0,0,0-10.62,1.91c-34.14,12.95-70.63,14.13-104.77,0-3.53-1.18-8.24,1.18-11.77,0a816.82,816.82,0,0,1-132.15-77.86l-4.74,2c18.3,51.4,93,95.72,146.77,114.95,20.35,7.27,41.25,8.86,62.63,9.49a180.47,180.47,0,0,0,54.77-7C781.73,777.53,799.76,770.88,794.89,754.26Z"/><path class="cls-4" d="M1092.27,632.05,1026,604.62c-22.33,45.27-78.52,61.37-119.33,34.19-14.44-9.62-38.72,1.5-38.39,19.63.16,8.57,6.34,13.32,12.54,18.08a2.7,2.7,0,0,0-1.1-.5,19,19,0,0,0,5.29,3.57c1.55.83,3.1,1.71,4.66,2.56-8.74,1.57-19.46,3.61-25.25,11.08-7.06,9.1-7.82,23.88,3.37,29.9.82.44,8.83,3.22,15.05,5.35.43.13.85.27,1.27.43.17,0-1.85,1-2.91,1.51-.2.12-.41.23-.61.36s.19-.14.61-.36a19.49,19.49,0,0,1,2.91-1.51l-1.27-.43"/><path class="cls-5" d="M638.53,769.69c20.36,7.27,41.25,8.86,62.63,9.49a180.47,180.47,0,0,0,54.77-7c12.44-3.57,30.47-10.22,25.6-26.83-3.1-10.58-18.83-19.59-29.43-15.33-.23,0,3.83,1.92,3.52,1.88a20.27,20.27,0,0,0-3.52-1.88c6.35-2.17,15.45-5.31,16.32-5.78,11.2-6,10.43-20.79,3.37-29.9-5.79-7.48-11.68-7.42-20.42-9,1.57-.85,3.12-1.73,4.66-2.56a19,19,0,0,0,5.29-3.57,2.7,2.7,0,0,0-1.1.5c6.2-4.76,12.39-9.51,12.54-18.09.33-18.13-24.39-10.92-38.39-.67-41.67,30.49-96.14-9-115.12-65.27L501.52,653.32C519.82,704.72,584.71,750.46,638.53,769.69Z"/><path class="cls-5" d="M948.41,769.16c21.39-.09,42.27-2.22,62.63-9.49,53.81-19.23,119.84-42.46,139-127.61l-118.37-48.76c-6.76,62.52-74.83,98.13-116.5,67.64-14-10.25-38.72-17.46-38.39.67.16,8.57,6.34,13.32,12.54,18.09a2.7,2.7,0,0,0-1.1-.5,19,19,0,0,0,5.29,3.57c1.55.83,3.1,1.71,4.66,2.56-8.74,1.57-14.62,1.51-20.42,9-7.06,9.1-7.82,23.88,3.37,29.9.88.47,10,3.62,16.32,5.78a20.27,20.27,0,0,0-3.52,1.88c-.31,0,3.75-1.92,3.52-1.88-12.81-5.16-29.8,7.28-31.15,20.4-.69,6.69,3.6,13.1,9.17,16.86,9.28,6.27,22.26,8.33,33.22,9.79A290.25,290.25,0,0,0,948.41,769.16Z"/><path class="cls-19" d="M55.56,484.2c.48.6,0,1.2,0,1.92-.12,1.68.12,3.48-.12,5a5.52,5.52,0,0,1-.84,1.92,10.39,10.39,0,0,1-1,1.68c-1.32.84-3.24-.6-4.92.12-1.2-1-2.52,0-3.84-1.08-1.44.48-2.76-.12-4.2-.24-.48,0-1,.24-1.44.12a14,14,0,0,0-2.4-.6,12.32,12.32,0,0,0-2,.12h-2c-2-.12-4.44-.36-7.32-.6a30.8,30.8,0,0,0-7.44,0c-.72,1.44-.24,3.24-.12,4.92s.24,3.48.36,5.16c0,.48-.24,1-.24,1.44,0,1,.24,2.52.24,3.84,0,1-.36,1.8.12,2.76a8.3,8.3,0,0,0,2.4.36,25.07,25.07,0,0,0,3,.12c1.68-.12,3.36-.12,5-.12,2.64,0,5,0,8.16-.24,1.44-.12,2.76-.6,4.08.12a21.19,21.19,0,0,1,2.52-.36,11.07,11.07,0,0,1,1.92.12c.36,0,.72-.24,1-.24,1.44.12,2.64.36,4,.36a6.31,6.31,0,0,1,2-.24c.72,0,.72.72,1,1.2.6,1.32.48,2.4.36,4.32-.12.12.24.24.12.6a8.16,8.16,0,0,0-.36,1.44,12,12,0,0,0,.6,5.16,9,9,0,0,1-1.2,2.4c-.6-.12-1.08.36-1.56.36a4,4,0,0,1-1.68-.6c-.24-.48-1.32.48-1.2-.6-.6-.24-.6.6-1,.72-.6.24-1.68,0-2.16.6a3.44,3.44,0,0,0-2.88-.12,9,9,0,0,0-2.88-.48c-.72-.36-2,.48-2.76.6a5.18,5.18,0,0,0-3.84.48c-.84.12-.72-.72-1.44-.6-.6.48-2,.12-2.52.72-.84-.84-2.64.24-3.48-.72-.36.6-1,.12-1.68.24s-1.2.24-1.8.24c-.84.12-1.8-.48-2.64,0s-.36,1.32-.48,2.16a6.34,6.34,0,0,0-.36,1.44c0,.6.36,1.2.24,1.8A19,19,0,0,1,18,536a5.68,5.68,0,0,0-.36,1.08c-.24,1.32.12,2.64-.72,3.72a2.73,2.73,0,0,1,.36,1.32c.12,1.2.12,2.64.12,4a12.65,12.65,0,0,1-.24,3,6.32,6.32,0,0,0-.36,1.44c-.12.84.36,1.8.12,2.64,1.44.84,3.12.36,5.16.36.36,0,.6-.24.84-.24,1.8.12,4.68-.24,7-.24a14.9,14.9,0,0,0,3.24.12,14.35,14.35,0,0,1,4-.36c.24.12.72-.12.72-.12,1.08,0,1.92.24,2.88.24a36.6,36.6,0,0,0,3.72-.24,10.64,10.64,0,0,1,1.68-.36c.24,0,.72.24,1,.12a6.78,6.78,0,0,1,.84-.12,2.82,2.82,0,0,1,1,.24c1,0,1.92-.6,3.24-.36.48.36.36,1.08.84,1.44-.12.72.6.72.72,1.32.24,3.72-.48,7.32-.6,11.4-.24.48-.84.6-1.44,1s-1,.72-1.56.72a11.23,11.23,0,0,1-1.92-.48c-.72,0-1.44.24-2.28.24-1.32,0-2.88-.24-4.44-.36-.36,0-.72-.24-1-.24a5.63,5.63,0,0,1-3.12-.36c-.72-.12-1,.48-1.56.48a25.16,25.16,0,0,0-5.4-.48c-1.44-.12-2.76.24-4.32.24-1.2.12-2.52-.12-3.84,0s-2.52.36-3.72.24c-.72,0-1.32-.36-2-.36-.36-.12-.36.12-.6.12a8.2,8.2,0,0,0-1.44-.36c-1.32-.24-2.76-.12-4-1a4.54,4.54,0,0,1-1.8,0,2.41,2.41,0,0,1-.72.24,1.4,1.4,0,0,0-.84-.24c-1.08.12-2,.72-3.12.48-.24-.12-.36-.6-.72-.36a6.33,6.33,0,0,1-.6-1.8,6,6,0,0,1-.48-1.56c-.12-.72.12-1.32,0-1.92a9,9,0,0,0-.84-2.16c.36-1.68-.24-3.12-.12-5,.24-.48,0-.6,0-.72,0-.6.24-1.08.24-1.56a6.32,6.32,0,0,0-.36-1.44c-.12-.72.12-.48,0-1.32-.12-1.08-1-2.64-.48-4.08a3.08,3.08,0,0,1,.24-.6c0-.36-.36-.6-.36-1A24.79,24.79,0,0,1,1,540.11a9.31,9.31,0,0,0-.24-1.92c0-.24.36-.48.24-.84,0-.12-.36-.12-.36-.6s.24-1.32.24-1.92c0-.12-.24-.36-.24-.72s.6-1.56-.12-2.16c.72-1.56,0-3.24,0-5a7,7,0,0,1,.24-2.16c0-.6-.24-1.2-.24-1.68a22.16,22.16,0,0,0,.12-2.88c0-.48.24-1,.24-1.44a6,6,0,0,1-.36-1.56c0-.6,0-1.08.36-1.32-.36-.72-.72-1.2-.12-1.92-.12-.48-.24-.84-.6-1,0-.6.48-.6.48-1.2s-.48-.36-.6-.72a8.41,8.41,0,0,0,.24-3.48c0-.48.24-1.08.24-1.56a9.69,9.69,0,0,1-.12-1.8c0-.36.36-.72.36-1.08.36-1.44.12-2.88.72-4-1-1.92.12-4.92.12-7.68.12-1.92-.24-4,0-6.36a3.71,3.71,0,0,1,.24-.84,20.87,20.87,0,0,1-.6-2.64,5.58,5.58,0,0,1,.72-2.4c.24-.6.48-1.2,1.08-1.44,6.72,1.2,13.32-.24,19.2.24,1.68.12,3.36.72,5,.84a23.91,23.91,0,0,0,3.72-.36c.36,0,.72.24,1.08.24s.84-.12,1.2-.12c.72,0,1.44.36,2.16.36a31,31,0,0,0,3.48.36,26.07,26.07,0,0,1,3.12-.12c1.44,0,3.72.6,5.52.72.24,0,.48-.24.84-.24s.84.36,1.32.48c2,.24,4,0,6,.24C56.4,481.32,57.24,483.72,55.56,484.2Z"/><path class="cls-19" d="M168.24,504.12c-.12.24-.12.6-.24.72a4.56,4.56,0,0,1-1.2,1.56,8.75,8.75,0,0,1-2.16,4.2c.24.72-.24,1.32-.72,2.16a11.31,11.31,0,0,1-.36,1.08c-.12.36-.6.6-.84.84s-.12.72-.6,1V517c-1,1.68-1.8,3.6-2.76,5.4-.36.48-.48,1.32-1.2,1.44-.12,1.92-1.32,3.12-2,4.68-.6,1-.84,2.16-1.68,3a7.06,7.06,0,0,1-1.2,3.12c-.36.6-.48,1.08-1,1.44,0,.84-.36,1.08-.24,1.92-.12.36-.48.6-.6.84s-.12.84-.24,1.08-.48.48-.6.84-.12.72-.24,1c-.36.6-.84,1-1.2,1.56a5.1,5.1,0,0,0-.36,1.44c-.12.12-.48.84-.6,1s-.24.6-.48,1-.24.36-.36.6-.12.48-.24.72a25.29,25.29,0,0,0-1.56,3.12c-.24.36-.12.48-.24.72-.24.6-.72,1.08-1.08,1.8a13.38,13.38,0,0,1-.36,1.56,37.5,37.5,0,0,1-1.8,4c-.48,2.4,0,4.68-1.56,6a11.13,11.13,0,0,1-2.88.12,9.58,9.58,0,0,1-1-1.92c-1.08-1.08-1.44-2.76-2.64-3.72a10.24,10.24,0,0,0-.48-2c-.12-.72-1-.84-.72-1.92a7.12,7.12,0,0,1-1.68-3.72,6.6,6.6,0,0,1-.72-1,4.93,4.93,0,0,1-1-1.56c0-.24-.12-.6-.12-.84-.12,0-.36-.12-.48-.12a2.66,2.66,0,0,1-.12-1.08c-.24-.48-.72-.6-1.2-1,.12-1.08-1-1.68-1.44-2.52-.24-.36-.36-1-.6-1.32a10.63,10.63,0,0,0-.72-1.2c-.12-.36,0-.6-.12-.84-.48-.24-.36-.48-.36-.6-.6-1.08-1.32-2.52-1.92-3.84a11,11,0,0,1-1.8-2.76c-.24-.36-.48-.48-.6-.84-.12-.12.12-.48,0-.72s-.6-.48-.72-.84c-.12-.12,0-.36,0-.6s-.48-.6-.6-1a14.05,14.05,0,0,0-.48-2.16c-.12,0-.36-.12-.48-.12a5.18,5.18,0,0,1,.12-.6c-.12-.24-.48-.36-.6-.6s.12-.84-.36-.84a15.75,15.75,0,0,0-1.92,4.32,1.09,1.09,0,0,1-1,.12,21.54,21.54,0,0,1-.84,6.72,4.07,4.07,0,0,1-1.08,2.28,22.72,22.72,0,0,1-1.68,5.28,1.78,1.78,0,0,0-.12.72c-.24.48-.36,1.08-.72,1.8s-1.08,1.32-1,2.28c-1.2.24-1,1.92-2.16,2,.12.72-.36.84-.24,1.56-.12.6-.6.84-.84,1.32.12.84-.36,1.08-.24,1.92-.36,0-.12.72-.6.72.12,1.92-1,2.4-1.08,4.08a12.54,12.54,0,0,0-1,1.32v1.8c-.72.48-1,1-1.92.84-.72.36-.84,1.08-1.44,1.44-.84-.12-1.92.24-2.76-.12-.84-.72-.6-.6-1.08-1.56-.12-.24-.24-.36-.36-.6s-.24-.6-.6-1.2c-.12-.36-.36-.48-.72-1s-.36-1.08-.72-1.8c-.6-.12-.72-1.08-1-1.56-.6-1-1.2-2.88-2.28-3.72a8.6,8.6,0,0,0-1.2-3.48l-.72-1.8a9.83,9.83,0,0,0-.84-1.56,13.66,13.66,0,0,0-1.32-1.32c-.12-.24,0-.24-.12-.48-.36-.24-.48-1.32-.72-2-1-1.2-1.32-2.88-2.64-3.6.12-1.32-.84-1.68-1-2.88-.84-.72-1-2-1.68-3.36-.24-.6-.84-1.2-1.08-1.8-.12-.24,0-.6-.12-1-.36-1.08-.84-2.28-1.32-3.48-.12-.24-.24-.36-.36-.6s0-.48-.24-.84a5.6,5.6,0,0,0-.72-1.08,10.6,10.6,0,0,0-1-2c-.36-.24-.24-.48-.36-.6a4.17,4.17,0,0,1-.72-1.08l-1.08-1.8c-.36-.6-.72-1.44-1-1.92a4.89,4.89,0,0,0-1.08-2.64c-.6-1-1-2.4-1.68-3.48v-1.56c-.12-.6-1.08-.36-1.32-.84-.12-.84-.84-1.32-1.32-2.16-.36-.6-.6-1.8-.84-2.28s-.48-1.8-1-2.52a1.4,1.4,0,0,1,.6-1.32,6.31,6.31,0,0,1-.48-2.16c.24-.48.72-.72,1-1.2a4.22,4.22,0,0,0,2.52-.84,5.2,5.2,0,0,0,2.52-.6c.36-.12.84.36,1.32.48.72.12,1.8-.24,2.76-.12s1.68.24,2.28.24A7.37,7.37,0,0,1,79,496a2.76,2.76,0,0,1,2.16,1.56c.12.6,0,1,.12,1.56a11.61,11.61,0,0,1,1.68,4.08,15,15,0,0,0,.6,3.48c.36.72.84,1.2,1.2,1.8a6.37,6.37,0,0,0,.36,1.2,3.39,3.39,0,0,1,.48,2.16c.36.36.6,1,1,1.32.24,1.32.48,2.64.84,4,.36.84,1,1.56,1.2,2.28a14.07,14.07,0,0,0,.48,2.4,8.39,8.39,0,0,0,1,1.2,20.47,20.47,0,0,0,1.08,3.24,4.93,4.93,0,0,1,.36,1c.24,1.2.12,2.52.48,3.72.12.24.36.36.36.6s0,.48,0,.72c.6,1.8,1.68,3.24,2,4.92.48-.36.6-1.08,1.44-1.08.24-.6.12-1.32.36-1.92a.79.79,0,0,0,.36-.84c.36-.48,1-.72,1.2-1.32.12-.12,0-.36.12-.6s.48-.48.72-1a8.94,8.94,0,0,0,.84-1.44c.24-.6.6-1.08.84-1.56.48-1.2.72-2.4,1.2-3.48.12-.24,0-.6.24-1,0-.24.48-.36.6-.6a6.93,6.93,0,0,1,.6-1.68c.24-.6.84-1,1.2-1.56s.48-1.32.84-1.92c.72-.84,1.32-1.68,1.92-2.4s1.2-2.64,2.28-3.24a15.47,15.47,0,0,1,.6-2.52c-.24-.6.36-.36.72-.36-.12-.84.36-1.08.24-1.8a27.72,27.72,0,0,0,3.24-6.84,7.59,7.59,0,0,1,1.44-2.76c.24-.12.72.12,1,.12.6-.12.84-.36,1.2-.24,1,.36,1.08,1.2,1.92,1.8,0,2.28,1.32,3.48,1.44,5.88,1,1.32,1.08,3.6,1.92,5.28.24.6.12.48-.12,1,1,1,2,1.8,1.8,3.84.24.72.72,1,1.08,1.56a8.54,8.54,0,0,0,1,1.8v1.2c0,.48.6.72.72,1.32s0,1.08.12,1.56a3.22,3.22,0,0,0,1.2,1.56,29.28,29.28,0,0,0,1.68,3.36c.72,1.32,1.44,2.52,2.16,4l.36.72a12,12,0,0,0,.84,1.8c0,.24.36.48.48.72s.12.72.24,1,.36.48.48.6a4.33,4.33,0,0,1,.36.84c.84-.36,1-1.32,1.32-2.16a4.88,4.88,0,0,1,.6-1.08c.12-.48,0-1,.12-1.32.36-.72,1-1,1.2-1.56.48-1.32.72-2.76,1.68-3.48-.12-1.2.48-1.44.84-2a7.83,7.83,0,0,1,.84-3.48,9.63,9.63,0,0,1,1.2-2.76c.12-.12.48-.24.6-.48s0-.72.24-1a17.74,17.74,0,0,1,1-1.56c.36-.48.48-1.2,1-1.32.24-1.56,1.32-2.64,1.92-3.84s.84-2.76,1.8-3.84c-.36-.6.36-1.2.36-1.56a7,7,0,0,0,.24-1.56.72.72,0,0,0,.48-.12,5,5,0,0,1,1-2.16c.6-.84,1-1.8,1.56-2,.84-.36,1.68,0,3,0s1.92-.36,2.88.48c1.2-.72,3.24,0,5.16-.12,1,0,1.8-.48,2.52-.48a2.78,2.78,0,0,1,2.52,1.44c.12.24.36.48.36.72C169.56,502.68,168.72,503.28,168.24,504.12Z"/><path class="cls-19" d="M274.55,504.12c-.12.24-.12.6-.24.72a4.56,4.56,0,0,1-1.2,1.56,8.75,8.75,0,0,1-2.16,4.2c.24.72-.24,1.32-.72,2.16a11.31,11.31,0,0,1-.36,1.08c-.12.36-.6.6-.84.84s-.12.72-.6,1V517c-1,1.68-1.8,3.6-2.76,5.4-.36.48-.48,1.32-1.2,1.44-.12,1.92-1.32,3.12-2,4.68-.6,1-.84,2.16-1.68,3a7.06,7.06,0,0,1-1.2,3.12c-.36.6-.48,1.08-1,1.44,0,.84-.36,1.08-.24,1.92-.12.36-.48.6-.6.84s-.12.84-.24,1.08-.48.48-.6.84-.12.72-.24,1c-.36.6-.84,1-1.2,1.56a5.1,5.1,0,0,0-.36,1.44c-.12.12-.48.84-.6,1s-.24.6-.48,1-.24.36-.36.6-.12.48-.24.72a25.29,25.29,0,0,0-1.56,3.12c-.24.36-.12.48-.24.72-.24.6-.72,1.08-1.08,1.8a13.38,13.38,0,0,1-.36,1.56,37.5,37.5,0,0,1-1.8,4c-.48,2.4,0,4.68-1.56,6a11.13,11.13,0,0,1-2.88.12,9.58,9.58,0,0,1-1-1.92c-1.08-1.08-1.44-2.76-2.64-3.72a10.24,10.24,0,0,0-.48-2c-.12-.72-1-.84-.72-1.92a7.12,7.12,0,0,1-1.68-3.72,6.6,6.6,0,0,1-.72-1,4.93,4.93,0,0,1-1-1.56c0-.24-.12-.6-.12-.84-.12,0-.36-.12-.48-.12a2.66,2.66,0,0,1-.12-1.08c-.24-.48-.72-.6-1.2-1,.12-1.08-1-1.68-1.44-2.52-.24-.36-.36-1-.6-1.32a10.63,10.63,0,0,0-.72-1.2c-.12-.36,0-.6-.12-.84-.48-.24-.36-.48-.36-.6-.6-1.08-1.32-2.52-1.92-3.84a11,11,0,0,1-1.8-2.76c-.24-.36-.48-.48-.6-.84-.12-.12.12-.48,0-.72s-.6-.48-.72-.84c-.12-.12,0-.36,0-.6s-.48-.6-.6-1a14.05,14.05,0,0,0-.48-2.16c-.12,0-.36-.12-.48-.12a5.18,5.18,0,0,1,.12-.6c-.12-.24-.48-.36-.6-.6s.12-.84-.36-.84a15.75,15.75,0,0,0-1.92,4.32,1.09,1.09,0,0,1-1,.12,21.54,21.54,0,0,1-.84,6.72,4.07,4.07,0,0,1-1.08,2.28,22.72,22.72,0,0,1-1.68,5.28,1.78,1.78,0,0,0-.12.72c-.24.48-.36,1.08-.72,1.8s-1.08,1.32-1,2.28c-1.2.24-1,1.92-2.16,2,.12.72-.36.84-.24,1.56-.12.6-.6.84-.84,1.32.12.84-.36,1.08-.24,1.92-.36,0-.12.72-.6.72.12,1.92-1,2.4-1.08,4.08a12.54,12.54,0,0,0-1,1.32v1.8c-.72.48-1,1-1.92.84-.72.36-.84,1.08-1.44,1.44-.84-.12-1.92.24-2.76-.12-.84-.72-.6-.6-1.08-1.56-.12-.24-.24-.36-.36-.6s-.24-.6-.6-1.2c-.12-.36-.36-.48-.72-1s-.36-1.08-.72-1.8c-.6-.12-.72-1.08-1-1.56-.6-1-1.2-2.88-2.28-3.72a8.6,8.6,0,0,0-1.2-3.48l-.72-1.8a9.83,9.83,0,0,0-.84-1.56,13.66,13.66,0,0,0-1.32-1.32c-.12-.24,0-.24-.12-.48-.36-.24-.48-1.32-.72-2-1-1.2-1.32-2.88-2.64-3.6.12-1.32-.84-1.68-1-2.88-.84-.72-1-2-1.68-3.36-.24-.6-.84-1.2-1.08-1.8-.12-.24,0-.6-.12-1-.36-1.08-.84-2.28-1.32-3.48-.12-.24-.24-.36-.36-.6s0-.48-.24-.84a5.6,5.6,0,0,0-.72-1.08,10.6,10.6,0,0,0-1-2c-.36-.24-.24-.48-.36-.6a4.17,4.17,0,0,1-.72-1.08l-1.08-1.8c-.36-.6-.72-1.44-1-1.92a4.89,4.89,0,0,0-1.08-2.64c-.6-1-1-2.4-1.68-3.48v-1.56c-.12-.6-1.08-.36-1.32-.84-.12-.84-.84-1.32-1.32-2.16-.36-.6-.6-1.8-.84-2.28s-.48-1.8-1-2.52a1.4,1.4,0,0,1,.6-1.32,6.31,6.31,0,0,1-.48-2.16c.24-.48.72-.72,1-1.2a4.22,4.22,0,0,0,2.52-.84,5.2,5.2,0,0,0,2.52-.6c.36-.12.84.36,1.32.48.72.12,1.8-.24,2.76-.12s1.68.24,2.28.24a7.37,7.37,0,0,1,2.16-.36,2.76,2.76,0,0,1,2.16,1.56c.12.6,0,1,.12,1.56a11.61,11.61,0,0,1,1.68,4.08,15,15,0,0,0,.6,3.48c.36.72.84,1.2,1.2,1.8a6.37,6.37,0,0,0,.36,1.2,3.39,3.39,0,0,1,.48,2.16c.36.36.6,1,1,1.32.24,1.32.48,2.64.84,4,.36.84,1,1.56,1.2,2.28a14.07,14.07,0,0,0,.48,2.4,8.39,8.39,0,0,0,1,1.2,20.47,20.47,0,0,0,1.08,3.24,4.93,4.93,0,0,1,.36,1c.24,1.2.12,2.52.48,3.72.12.24.36.36.36.6s0,.48,0,.72c.6,1.8,1.68,3.24,2,4.92.48-.36.6-1.08,1.44-1.08.24-.6.12-1.32.36-1.92a.79.79,0,0,0,.36-.84c.36-.48,1-.72,1.2-1.32.12-.12,0-.36.12-.6s.48-.48.72-1a8.94,8.94,0,0,0,.84-1.44c.24-.6.6-1.08.84-1.56.48-1.2.72-2.4,1.2-3.48.12-.24,0-.6.24-1,0-.24.48-.36.6-.6a6.93,6.93,0,0,1,.6-1.68c.24-.6.84-1,1.2-1.56s.48-1.32.84-1.92c.72-.84,1.32-1.68,1.92-2.4s1.2-2.64,2.28-3.24A15.47,15.47,0,0,1,216,509c-.24-.6.36-.36.72-.36-.12-.84.36-1.08.24-1.8A27.72,27.72,0,0,0,220.2,500a7.59,7.59,0,0,1,1.44-2.76c.24-.12.72.12,1,.12.6-.12.84-.36,1.2-.24,1,.36,1.08,1.2,1.92,1.8,0,2.28,1.32,3.48,1.44,5.88,1,1.32,1.08,3.6,1.92,5.28.24.6.12.48-.12,1,1,1,2,1.8,1.8,3.84.24.72.72,1,1.08,1.56a8.54,8.54,0,0,0,1,1.8v1.2c0,.48.6.72.72,1.32s0,1.08.12,1.56a3.22,3.22,0,0,0,1.2,1.56,29.28,29.28,0,0,0,1.68,3.36c.72,1.32,1.44,2.52,2.16,4l.36.72a12,12,0,0,0,.84,1.8c0,.24.36.48.48.72s.12.72.24,1,.36.48.48.6a4.33,4.33,0,0,1,.36.84c.84-.36,1-1.32,1.32-2.16a4.88,4.88,0,0,1,.6-1.08c.12-.48,0-1,.12-1.32.36-.72,1-1,1.2-1.56.48-1.32.72-2.76,1.68-3.48-.12-1.2.48-1.44.84-2a7.83,7.83,0,0,1,.84-3.48,9.63,9.63,0,0,1,1.2-2.76c.12-.12.48-.24.6-.48s0-.72.24-1a17.74,17.74,0,0,1,1-1.56c.36-.48.48-1.2,1-1.32.24-1.56,1.32-2.64,1.92-3.84s.84-2.76,1.8-3.84c-.36-.6.36-1.2.36-1.56a7,7,0,0,0,.24-1.56.72.72,0,0,0,.48-.12,5,5,0,0,1,1-2.16c.6-.84,1-1.8,1.56-2,.84-.36,1.68,0,3,0s1.92-.36,2.88.48c1.2-.72,3.24,0,5.16-.12,1,0,1.8-.48,2.52-.48a2.78,2.78,0,0,1,2.52,1.44c.12.24.36.48.36.72C275.87,502.68,275,503.28,274.55,504.12Z"/><path class="cls-19" d="M380.87,504.12c-.12.24-.12.6-.24.72a4.56,4.56,0,0,1-1.2,1.56,8.75,8.75,0,0,1-2.16,4.2c.24.72-.24,1.32-.72,2.16a11.31,11.31,0,0,1-.36,1.08c-.12.36-.6.6-.84.84s-.12.72-.6,1V517c-1,1.68-1.8,3.6-2.76,5.4-.36.48-.48,1.32-1.2,1.44-.12,1.92-1.32,3.12-2,4.68-.6,1-.84,2.16-1.68,3a7.06,7.06,0,0,1-1.2,3.12c-.36.6-.48,1.08-1,1.44,0,.84-.36,1.08-.24,1.92-.12.36-.48.6-.6.84s-.12.84-.24,1.08-.48.48-.6.84-.12.72-.24,1c-.36.6-.84,1-1.2,1.56a5.1,5.1,0,0,0-.36,1.44c-.12.12-.48.84-.6,1s-.24.6-.48,1-.24.36-.36.6-.12.48-.24.72a25.29,25.29,0,0,0-1.56,3.12c-.24.36-.12.48-.24.72-.24.6-.72,1.08-1.08,1.8a13.38,13.38,0,0,1-.36,1.56,37.5,37.5,0,0,1-1.8,4c-.48,2.4,0,4.68-1.56,6a11.13,11.13,0,0,1-2.88.12,9.58,9.58,0,0,1-1-1.92c-1.08-1.08-1.44-2.76-2.64-3.72a10.24,10.24,0,0,0-.48-2c-.12-.72-1-.84-.72-1.92a7.12,7.12,0,0,1-1.68-3.72,6.6,6.6,0,0,1-.72-1,4.93,4.93,0,0,1-1-1.56c0-.24-.12-.6-.12-.84-.12,0-.36-.12-.48-.12a2.66,2.66,0,0,1-.12-1.08c-.24-.48-.72-.6-1.2-1,.12-1.08-1-1.68-1.44-2.52-.24-.36-.36-1-.6-1.32a10.63,10.63,0,0,0-.72-1.2c-.12-.36,0-.6-.12-.84-.48-.24-.36-.48-.36-.6-.6-1.08-1.32-2.52-1.92-3.84a11,11,0,0,1-1.8-2.76c-.24-.36-.48-.48-.6-.84-.12-.12.12-.48,0-.72s-.6-.48-.72-.84c-.12-.12,0-.36,0-.6s-.48-.6-.6-1a14.05,14.05,0,0,0-.48-2.16c-.12,0-.36-.12-.48-.12a5.18,5.18,0,0,1,.12-.6c-.12-.24-.48-.36-.6-.6s.12-.84-.36-.84a15.75,15.75,0,0,0-1.92,4.32,1.09,1.09,0,0,1-1,.12,21.54,21.54,0,0,1-.84,6.72,4.07,4.07,0,0,1-1.08,2.28,22.72,22.72,0,0,1-1.68,5.28,1.78,1.78,0,0,0-.12.72c-.24.48-.36,1.08-.72,1.8s-1.08,1.32-1,2.28c-1.2.24-1,1.92-2.16,2,.12.72-.36.84-.24,1.56-.12.6-.6.84-.84,1.32.12.84-.36,1.08-.24,1.92-.36,0-.12.72-.6.72.12,1.92-1,2.4-1.08,4.08a12.54,12.54,0,0,0-1,1.32v1.8c-.72.48-1,1-1.92.84-.72.36-.84,1.08-1.44,1.44-.84-.12-1.92.24-2.76-.12-.84-.72-.6-.6-1.08-1.56-.12-.24-.24-.36-.36-.6s-.24-.6-.6-1.2c-.12-.36-.36-.48-.72-1s-.36-1.08-.72-1.8c-.6-.12-.72-1.08-1-1.56-.6-1-1.2-2.88-2.28-3.72a8.6,8.6,0,0,0-1.2-3.48l-.72-1.8a9.83,9.83,0,0,0-.84-1.56,13.66,13.66,0,0,0-1.32-1.32c-.12-.24,0-.24-.12-.48-.36-.24-.48-1.32-.72-2-1-1.2-1.32-2.88-2.64-3.6.12-1.32-.84-1.68-1-2.88-.84-.72-1-2-1.68-3.36-.24-.6-.84-1.2-1.08-1.8-.12-.24,0-.6-.12-1-.36-1.08-.84-2.28-1.32-3.48-.12-.24-.24-.36-.36-.6s0-.48-.24-.84a5.6,5.6,0,0,0-.72-1.08,10.6,10.6,0,0,0-1-2c-.36-.24-.24-.48-.36-.6a4.17,4.17,0,0,1-.72-1.08l-1.08-1.8c-.36-.6-.72-1.44-1-1.92a4.89,4.89,0,0,0-1.08-2.64c-.6-1-1-2.4-1.68-3.48v-1.56c-.12-.6-1.08-.36-1.32-.84-.12-.84-.84-1.32-1.32-2.16-.36-.6-.6-1.8-.84-2.28s-.48-1.8-1-2.52a1.4,1.4,0,0,1,.6-1.32,6.31,6.31,0,0,1-.48-2.16c.24-.48.72-.72,1-1.2a4.22,4.22,0,0,0,2.52-.84,5.2,5.2,0,0,0,2.52-.6c.36-.12.84.36,1.32.48.72.12,1.8-.24,2.76-.12s1.68.24,2.28.24a7.37,7.37,0,0,1,2.16-.36,2.76,2.76,0,0,1,2.16,1.56c.12.6,0,1,.12,1.56a11.61,11.61,0,0,1,1.68,4.08,15,15,0,0,0,.6,3.48c.36.72.84,1.2,1.2,1.8a6.37,6.37,0,0,0,.36,1.2,3.39,3.39,0,0,1,.48,2.16c.36.36.6,1,1,1.32.24,1.32.48,2.64.84,4,.36.84,1,1.56,1.2,2.28a14.07,14.07,0,0,0,.48,2.4,8.39,8.39,0,0,0,1,1.2,20.47,20.47,0,0,0,1.08,3.24,4.93,4.93,0,0,1,.36,1c.24,1.2.12,2.52.48,3.72.12.24.36.36.36.6s0,.48,0,.72c.6,1.8,1.68,3.24,2,4.92.48-.36.6-1.08,1.44-1.08.24-.6.12-1.32.36-1.92a.79.79,0,0,0,.36-.84c.36-.48,1-.72,1.2-1.32.12-.12,0-.36.12-.6s.48-.48.72-1A8.94,8.94,0,0,0,312,529c.24-.6.6-1.08.84-1.56.48-1.2.72-2.4,1.2-3.48.12-.24,0-.6.24-1,0-.24.48-.36.6-.6a6.93,6.93,0,0,1,.6-1.68c.24-.6.84-1,1.2-1.56s.48-1.32.84-1.92c.72-.84,1.32-1.68,1.92-2.4s1.2-2.64,2.28-3.24a15.47,15.47,0,0,1,.6-2.52c-.24-.6.36-.36.72-.36-.12-.84.36-1.08.24-1.8a27.72,27.72,0,0,0,3.24-6.84,7.59,7.59,0,0,1,1.44-2.76c.24-.12.72.12,1,.12.6-.12.84-.36,1.2-.24,1,.36,1.08,1.2,1.92,1.8,0,2.28,1.32,3.48,1.44,5.88,1,1.32,1.08,3.6,1.92,5.28.24.6.12.48-.12,1,1,1,2,1.8,1.8,3.84.24.72.72,1,1.08,1.56a8.54,8.54,0,0,0,1,1.8v1.2c0,.48.6.72.72,1.32s0,1.08.12,1.56a3.22,3.22,0,0,0,1.2,1.56,29.28,29.28,0,0,0,1.68,3.36c.72,1.32,1.44,2.52,2.16,4l.36.72a12,12,0,0,0,.84,1.8c0,.24.36.48.48.72s.12.72.24,1,.36.48.48.6a4.33,4.33,0,0,1,.36.84c.84-.36,1-1.32,1.32-2.16a4.88,4.88,0,0,1,.6-1.08c.12-.48,0-1,.12-1.32.36-.72,1-1,1.2-1.56.48-1.32.72-2.76,1.68-3.48-.12-1.2.48-1.44.84-2a7.83,7.83,0,0,1,.84-3.48,9.63,9.63,0,0,1,1.2-2.76c.12-.12.48-.24.6-.48s0-.72.24-1a17.74,17.74,0,0,1,1-1.56c.36-.48.48-1.2,1-1.32.24-1.56,1.32-2.64,1.92-3.84s.84-2.76,1.8-3.84c-.36-.6.36-1.2.36-1.56a7,7,0,0,0,.24-1.56.72.72,0,0,0,.48-.12,5,5,0,0,1,1-2.16c.6-.84,1-1.8,1.56-2,.84-.36,1.68,0,3,0s1.92-.36,2.88.48c1.2-.72,3.24,0,5.16-.12,1,0,1.8-.48,2.52-.48a2.78,2.78,0,0,1,2.52,1.44c.12.24.36.48.36.72C382.19,502.68,381.35,503.28,380.87,504.12Z"/><path class="cls-19" d="M404.51,564.83a7.3,7.3,0,0,1-1.44,2.52c-1.32.24-2.64,0-4.32.12a18.56,18.56,0,0,0-2.52.12,15.28,15.28,0,0,1-2.28.12c-.6-.12-1-.6-1.56-.6a6.58,6.58,0,0,1-1.08-.84c0-1.2-.6-1.8-.6-3.12-.48-.6-1.2-1-1.68-1.68a8.37,8.37,0,0,1-.24-3.72c0-.36.24-.6.36-1a4.69,4.69,0,0,0,0-1.32c.12-.36.84-.48.48-.84.72-.24,1.08-1,1.56-1.44,1.32-.12,2-.84,3.12-1.56.12,0,.36-.36.36-.36.24,0,.48.12.6,0s.36-.48.6-.6a13.77,13.77,0,0,1,2.52-.24,6.29,6.29,0,0,1,2.16.24c.6.24,1,1,1.44,1.32.24.12.48.12.6.24a4.22,4.22,0,0,1,1.2,1,4.46,4.46,0,0,1-.12,2.52,7.41,7.41,0,0,1,1,2.76,29.21,29.21,0,0,1,.72,3.12A10,10,0,0,1,404.51,564.83Zm1.56-79.32c-.12,1.32,0,2.76-.12,3.72-.12.6-.12,3.12-.12,4.56,0,.36.24.72.24,1-.12,1.68-.72,2.88-.48,4.44,0,.48.12,1.08.12,2,0,.24-.24.6-.24,1s.36,1,.36,1.56a12.3,12.3,0,0,1-.48,1.68c0,.72.24,1.44.24,1.92-.12,1.08-.72,1.68-.72,3.12a4.31,4.31,0,0,1,0,2.16c-.12.48-.36,1.08-.48,1.68a44.89,44.89,0,0,0,.36,5.28c0,1.2.12,2.4,0,3.84,0,.36-.12.72-.12,1.2,0,1.92.12,4,0,6,0,1.08-.48,2.16-.48,3.24,0,.6.36,1.08.36,1.8a30,30,0,0,1-.24,4.44,20.37,20.37,0,0,1-.12,2.88,5.81,5.81,0,0,1-1.56,2c-.72.24-1.32-.24-2.16-.24-.6.12-.48.48-1.56.36-.48,0-1-.36-1.56-.36s-1.2,0-1.68-.12-1-.48-1.32-.6c-.72-.12-1.2,0-1.56-.24a1.69,1.69,0,0,0-1-.72,12,12,0,0,0-.48-3,6.3,6.3,0,0,0,0-4.2c.12-.48.36-.84.48-1.32s-.12-.6-.12-1,.12-.72.12-1-.12-.6-.12-1,.24-.72.24-1.08c-.12-.72-.48-1.32-.6-2,0-.48.24-.48.24-.84a4.25,4.25,0,0,0-.12-.72.75.75,0,0,1,.36-.6.56.56,0,0,0-.24-.6,30.12,30.12,0,0,0,.48-3.24c0-1.08-.72-2.16-.12-3.12a4.06,4.06,0,0,1-.72-1.8c0-.48.36-1.08.48-1.92a21,21,0,0,1-.36-2.88,3.08,3.08,0,0,1,.6-1.68c-.12-.48-.24-.72-.36-1.2a2.43,2.43,0,0,0-.12-.6,5.2,5.2,0,0,0,.12-.6c-.12-2.64.24-6.72-.36-9.84a1.9,1.9,0,0,0,0-.84c-.24-1.08-.6-3.24-.84-4.8a10,10,0,0,0,.72-2.52,14.07,14.07,0,0,0-.6-1.32c-.48-1.8.12-4-.48-5.52a7.89,7.89,0,0,0,.48-1.32c0-.6-.24-1.2-.24-1.92a6,6,0,0,1,.6-1.56c1.32-.36,2.88-.24,4.08-.84a9.08,9.08,0,0,1,2.52-.12h.84c2.88.12,5.76.24,7.56,1.08a11.37,11.37,0,0,1,.6,4C406.43,484,406.07,484.68,406.07,485.52Z"/><path class="cls-20" d="M1703.28,911.51c0,10.12-6.69,18.65-15.67,22.3-10.48,4.27-21.8,3.1-32.8,3-16.11-.16-32,5.41-48.11,3.14-10-1.41-21.7-5-28.54-13.14a19.86,19.86,0,0,1-4.94-15.29c.54-4.74,3.55-10.87,7.31-13.86-2.19-4.35-1.69-9.64.22-14.56,2.63-6.77,10.8-9.06,17.18-10.52-3.8-4.15-5-10.84-1.23-15.56a16.32,16.32,0,0,1,8.88-5.46,58.56,58.56,0,0,1,9.23-1.85l.23,1.3a71,71,0,0,0-7.33,1.88c-3,.85-6.11,1.78-8.37,4.07a9.67,9.67,0,0,0-2.7,9.18c.83,3.43,3.16,5.64,5.16,8.36.29.4-.25.82-.62.63a11.65,11.65,0,0,1-1.87-1.23c-5.72,1.48-13.88,3.27-16.66,9.36a21.54,21.54,0,0,0-1.77,9.43c.15,3.34,1.66,5.93,3.65,8.5a.47.47,0,0,1-.65.67,13.34,13.34,0,0,1-2.37-2.53c-1.88,1.66-3.21,4.24-4.32,6.46a16.91,16.91,0,0,0-1.73,11.59c1.39,5.57,5.2,9.91,9.88,12.92,10.79,6.95,24.1,9,36.61,7.82,8.32-.75,16.53-2.43,24.85-3.07,6.51-.5,13,0,19.48,0,11.09,0,24.52-1.32,31.35-11.63,4.54-6.86,4.62-15,1.21-22.4a19.78,19.78,0,0,0-7.44-9c-1.94-1.23-4-2.35-6-3.47l.64-1.15c4.33,2.1,8.65,4,11.75,8A28.31,28.31,0,0,1,1703.28,911.51Z"/><path class="cls-20" d="M1698.87,901c3.41,7.43,3.33,15.54-1.21,22.4-6.83,10.31-20.26,11.62-31.35,11.63-6.51,0-13-.52-19.48,0-8.32.65-16.54,2.32-24.85,3.07-12.5,1.13-25.82-.87-36.61-7.82-4.68-3-8.49-7.35-9.88-12.92a16.91,16.91,0,0,1,1.73-11.59c1.1-2.22,2.43-4.8,4.32-6.46a13.34,13.34,0,0,0,2.37,2.53.47.47,0,0,0,.65-.67c-2-2.56-3.5-5.16-3.65-8.5a21.54,21.54,0,0,1,1.77-9.43c2.77-6.08,10.93-7.87,16.66-9.36a11.65,11.65,0,0,0,1.87,1.23c.36.19.91-.23.62-.63-2-2.73-4.34-4.93-5.16-8.36a9.67,9.67,0,0,1,2.7-9.18c2.25-2.29,5.4-3.22,8.37-4.07a71,71,0,0,1,7.33-1.88,20.66,20.66,0,0,1,4-.32c.7,0,.69-1.08,0-1.11-.93,0-1.84,0-2.74,0-3-4.41-1.08-9,2.22-12.77,3.49-4,8.51-5.82,13.56-6.75s9.92-.19,15,.5a8.26,8.26,0,0,0,5.06-.94c0,.11-.09.22-.15.33-.79,1.61-2.38,2.73-3.77,4.34a4.63,4.63,0,0,0-1.35,3.24c.1,2.31,2.79,3.9,4.48,4.89,3,1.73,6.2,2.9,9.24,4.47a9.88,9.88,0,0,1,3.79,3.21c2.38,3.29,1.75,6.48,1.16,10.18-.07.43.47.91.8.48a7.22,7.22,0,0,0,.83-1.31h.07l.53,0c7.61-.54,15.69,2.82,19.86,9.52a11.72,11.72,0,0,1,.23,11.35c-1.53,3-4.55,4.33-6.78,6.57a.41.41,0,0,0,.39.69,12.3,12.3,0,0,0,1.39-.47l.07,0,2.48,1.37c2,1.11,4,2.24,6,3.47A19.78,19.78,0,0,1,1698.87,901Z"/><path class="cls-20" d="M1690.05,869.34c3.08,6.39,0,13.88-5.81,17.08l1.85.92-.64,1.15-2.48-1.37-.07,0a12.3,12.3,0,0,1-1.39.47.41.41,0,0,1-.39-.69c2.23-2.25,5.25-3.62,6.78-6.57a11.72,11.72,0,0,0-.23-11.35c-4.17-6.71-12.26-10.07-19.86-9.52l0-1.46C1676.45,857,1686,861,1690.05,869.34Z"/><path class="cls-20" d="M1665.43,848.44c1.92,2.67,3.16,6.29,2.34,9.49l0,1.46-.53,0h-.07a7.22,7.22,0,0,1-.83,1.31c-.34.43-.87,0-.8-.48.6-3.7,1.22-6.89-1.16-10.18a9.88,9.88,0,0,0-3.79-3.21c-3-1.57-6.28-2.75-9.24-4.47-1.69-1-4.38-2.58-4.48-4.89a4.63,4.63,0,0,1,1.35-3.24c1.39-1.61,3-2.73,3.77-4.34l1,.24a5.83,5.83,0,0,1-.84,1.36c-1.15,1.45-4.83,4.48-3.45,6.5,1.86,2.71,5.95,4,8.77,5.31S1663.55,845.81,1665.43,848.44Z"/><path class="cls-20" d="M1653.11,826.91a2.65,2.65,0,0,1,.08,1.23,3.57,3.57,0,0,1-.15,2l-1-.24c.05-.11.1-.22.15-.33a8.26,8.26,0,0,1-5.06.94c-5.12-.7-9.85-1.47-15-.5s-10.07,2.72-13.56,6.75c-3.3,3.81-5.18,8.35-2.22,12.77.9,0,1.81-.06,2.74,0,.69,0,.7,1.13,0,1.11a20.66,20.66,0,0,0-4,.32l-.23-1.3c-5.52-5.38,1.7-15.12,6.94-18a33.07,33.07,0,0,1,16.18-3.89,27.2,27.2,0,0,1,6.94.71,24.67,24.67,0,0,0,3,.76c1.27.18,4.88.17,4.47-2.14a.42.42,0,0,1,.08-.32v0c0-.32.43-.46.48-.13a.33.33,0,0,0,0,.07A.38.38,0,0,1,1653.11,826.91Z"/><path class="cls-21" d="M1614.58,863.62a1.39,1.39,0,0,1,1.54,1.13,3.15,3.15,0,0,1-.08,1.07c-.05.37,0,.75-.1,1.12a3.05,3.05,0,0,1-.15.77q.08-.34-.06.22.06-.33-.06.19a1.17,1.17,0,0,1-2,.29q.28.21-.14-.16t-.12-.19a1.67,1.67,0,0,1-.23-.43,4.08,4.08,0,0,1-.26-1.6C1612.92,865.09,1613.48,863.7,1614.58,863.62Z"/><path class="cls-21" d="M1613.53,928.5a5.79,5.79,0,0,0-1.21-2.75,10.29,10.29,0,0,0-.69-.89l-.16-.19q.33.44-.3-.39a7.91,7.91,0,0,0-1.55-1.4c-1.65-1.2-3.79.77-3.29,2.53a7.1,7.1,0,0,0,2.11,3.34,8,8,0,0,0,1.77,1.11,4.76,4.76,0,0,0,1,.35,9.13,9.13,0,0,0,1.17,0C1613.32,930.3,1613.72,929.28,1613.53,928.5Z"/><path class="cls-22" d="M1687.51,903a2.68,2.68,0,0,0-2.94,1.2c-.92,1.43-.54,3.31-1,4.92a9.69,9.69,0,0,0-.3,5.81,1.84,1.84,0,0,0,2.67,1.09,6.56,6.56,0,0,0,2.75-2.16,11.88,11.88,0,0,0,1.76-3.46C1691.2,907.83,1690.7,903.67,1687.51,903Z"/><path class="cls-22" d="M1676.83,873.18a2.68,2.68,0,0,0-2.94,1.2c-.92,1.43-.54,3.31-1,4.92a9.69,9.69,0,0,0-.3,5.81,1.84,1.84,0,0,0,2.67,1.09A6.56,6.56,0,0,0,1678,884a11.88,11.88,0,0,0,1.76-3.46C1680.52,878,1680,873.82,1676.83,873.18Z"/><path class="cls-22" d="M1611.42,858.33a1.72,1.72,0,0,1,1.47,1.4c.21,1.07-.46,2.1-.55,3.17a6.2,6.2,0,0,1-1.19,3.53,1.18,1.18,0,0,1-1.84,0,4.2,4.2,0,0,1-1.13-1.94,7.6,7.6,0,0,1-.23-2.47C1608.09,860.32,1609.37,858,1611.42,858.33Z"/><path class="cls-22" d="M1614,918.24a4.74,4.74,0,0,0-.95-.85c-.09-.07-.92-.45-.69-.27-.41-.33-.82-.54-1.25-.83.3.2-.28-.32-.35-.42a2.86,2.86,0,0,0-2.37-1.29,2.17,2.17,0,0,0-2.06,2.71c0,.12.14.49.18.64l.05.38a2.92,2.92,0,0,0,.32.84,5.22,5.22,0,0,0,2,2c1.39.81,4.21,1,5.39-.71A1.76,1.76,0,0,0,1614,918.24Z"/><path class="cls-23" d="M1702.15,910.63a44.54,44.54,0,0,0-.34-4.57,20.06,20.06,0,0,1-.8,6.83,29,29,0,0,1-4,6.48,31.58,31.58,0,0,1-12.49,8.75,42,42,0,0,1-15.75,2.72c-3.35,0-6.69-.41-10-.5-4.1-.1-8.2,0-12.29.26-7.82.41-15.62,1.22-23.44,1.64-6.52.35-13.53.75-20-.6-8.8-1.85-18.54-7-23.39-14.81a14.16,14.16,0,0,1-2.05-10.77,11.76,11.76,0,0,1,.78-3.4,1.44,1.44,0,0,0-.86-.66c-3.16,4.63-5.2,11.88-3,17.38a27.78,27.78,0,0,0,6.19,8A46.09,46.09,0,0,0,1608,939.11c15.68,1.27,31.34-1.86,47-2.35,6.6-.21,13.2.72,19.78-.07a42.77,42.77,0,0,0,9.14-2.13,3.06,3.06,0,0,1,1.37-1c6.29-2.32,12.62-6.21,15.43-12.53A21.4,21.4,0,0,0,1702.15,910.63Z"/><path class="cls-24" d="M1594.16,876.52c-4.7-.28-8.73,3.86-10.45,7.87a12.18,12.18,0,0,0,2,13.25c.55.64,1.43-.17,1.1-.85a15.32,15.32,0,0,1-.66-11.37c1.42-4.13,4.53-6.32,8.13-8.41A.27.27,0,0,0,1594.16,876.52Z"/><path class="cls-24" d="M1599.76,910.05c-2.86-.76-5.75-1.42-8.59-2.24-3-.86-5.3-2.66-8.09-3.88-.59-.26-1.48.34-1,1,4,5.55,11.35,5.62,17.55,6.12C1600.21,911.11,1600.3,910.2,1599.76,910.05Z"/><path class="cls-24" d="M1601.65,857.73a.57.57,0,0,0-.69-.69c-2.06.56-3,3.11-3.21,5a7.72,7.72,0,0,0,2.34,7,.74.74,0,0,0,1.16-.89,10.87,10.87,0,0,1-1-5.5C1600.3,860.85,1601.35,859.41,1601.65,857.73Z"/><path class="cls-24" d="M1674.6,861a.07.07,0,0,0,0,.13c2.77,1.87,5.57,3.23,7.77,5.83s2.86,6.17,4,9.37a.74.74,0,0,0,1.42,0C1689.68,868.83,1682,860.82,1674.6,861Z"/><path class="cls-24" d="M1663.66,851.23c-.62-1.46-1.85-3.35-3.68-3a.63.63,0,0,0-.27,1,16.28,16.28,0,0,1,3.4,7.61c.1.59,1,.54,1.14,0A8.43,8.43,0,0,0,1663.66,851.23Z"/><path class="cls-24" d="M1696.55,899.32c-.21-.37-4.2-6.06-4.81-4.71-.74,1.65,1.76,4.69,2.52,6,1.78,3.17,3.64,6.77,4.21,10.39.12.75,1.25.53,1.28-.17A21.15,21.15,0,0,0,1696.55,899.32Z"/><path class="cls-24" d="M1638.19,831.62a35.3,35.3,0,0,0-7.17-.29,23.77,23.77,0,0,0-7,2.05c-3.79,1.71-8,5.61-7.84,10.12a0,0,0,0,0,0,0c1.63-.72,2.4-2.35,3.59-3.59a19.94,19.94,0,0,1,5.61-4.15,37,37,0,0,1,12.8-3.22A.47.47,0,0,0,1638.19,831.62Z"/></g></g></g></svg>