<svg xmlns="http://www.w3.org/2000/svg" viewBox="0 0 1756.58 1182.32"><defs><style>.cls-1{isolation:isolate;}.cls-2{fill:#48395f;}.cls-3{fill:#e9951b;}.cls-4{fill:#36a9e1;}.cls-5{fill:#e6892d;}.cls-6{fill:#d446e3;}.cls-7{fill:#fde01b;}.cls-8{fill:#f39200;}.cls-9{fill:#dedc00;}.cls-10{fill:#c6c6c6;}.cls-11{fill:#32c19d;}.cls-12{fill:#b448be;}.cls-13{fill:#fff;}.cls-14{fill:#c6c105;}.cls-15{fill:#ddbdee;}.cls-16,.cls-17,.cls-28{fill:#231f20;}.cls-16,.cls-17{stroke:#231f20;stroke-miterlimit:10;mix-blend-mode:multiply;}.cls-16{stroke-width:5.38px;}.cls-16,.cls-17,.cls-24{opacity:0.3;}.cls-17{stroke-width:7.6px;}.cls-18{fill:#05ab8c;}.cls-19{fill:#008f76;}.cls-20{fill:none;}.cls-21,.cls-23{fill:#005b49;}.cls-21{opacity:0.5;}.cls-22{fill:#944f90;}.cls-23{opacity:0.7;}.cls-24{fill:#55676f;}.cls-25{fill:#241d1f;}.cls-26{fill:#e77c8d;}.cls-27{fill:#f8f9f4;}.cls-29{fill:#b6dad0;opacity:0.6;}</style></defs><title>outcomeMoosh_2b</title><g class="cls-1"><g id="Layer_2" data-name="Layer 2"><g id="moosh"><ellipse class="cls-2" cx="696.33" cy="1146.74" rx="344.4" ry="35.57"/><path class="cls-3" d="M1289.92,438.45s87.55,13.68,120.3-11.12l14.8,42.75s-104.31.89-149.11-29Z"/><path class="cls-4" d="M1467.07,418.22s15.65-16.67,39.52-12.33l-3.51,24.82-40.47,12.67Z"/><path class="cls-5" d="M1162,459.64s19.88-28.84,76.79-34l25.38,31.71s-97.95,1-113.67,19.86Z"/><polygon class="cls-6" points="1422.32 383.82 1438.76 341.83 1463.31 339.6 1445.24 388.49 1422.32 383.82"/><polygon class="cls-7" points="1051.25 239.99 1031.81 169.89 1065.44 179.28 1051.25 239.99"/><path class="cls-8" d="M1331.75,273.75s6.35-2.49,16.15-5.71c3.44-1,7.25-2.12,11.78-3,38.83-5,78.08,6.11,115.62-1.79,13.19-3.45-9.84-21.61-16.43-32.26-1.73,5.78-2.33,11.46-8.83,14.3-37.23,11.25-76.88-4.27-111.19,15.84-3.82,2.19-7.42,4.45-10.69,6.78a79.88,79.88,0,0,0-8.81,7.15Z"/><path class="cls-9" d="M1349,222.34c9.49-7,10.4-21.74,3.1-27.83-1.32-2.13-5.48,1.62-9.35,1.9l-10.45,2.94L1327,228.62s5.26-1.65,10.71-3.23S1349,222.34,1349,222.34Z"/><path class="cls-10" d="M1412.08,221.51c6.82-9.44,20.52-19.69,14.92-32.69-.73-4.4-1.12-8.65-1.12-8.65s-4.4,2.13-9.69,5.21c-8.24,5.18-16.76,10.45-24.06,16.74,4.67,1.83,5.17,7.41,8.79,9.18C1405.91,216.26,1412.08,221.51,1412.08,221.51Z"/><path class="cls-11" d="M1398.16,285.37c11.3,8.55,25.2,12.91,37.39,20.54l9.46,5.19,3.8,2.08a91.87,91.87,0,0,1,2.3-11.84c1.46-3.45,5.72-6.09,7.55-10.76-19.17-.51-37.43-3.35-56.13-4.82Z"/><polygon class="cls-10" points="1428.83 491.74 1473.05 462.66 1497.78 491.41 1428.83 491.74"/><path class="cls-5" d="M1224.28,125.85c8.71-14.12,17-34,5.77-46.47-2.54-3.14-16.64,2.63-18.46,7.3-11.77,19.07-10.76,42.6-20.2,62.58,9.54-6.49,20.19-13.08,28.19-20Z"/><path class="cls-11" d="M1093.65,156.23c13.47-20.49,21.39-44.83,23.6-70.1a72.83,72.83,0,0,0,.47-8.76,157.46,157.46,0,0,0-.11-28.67l-35.76-19.25s3.37,19.55,5.65,42.77c.4,2.7.73,5.4,1.09,8.16,5,30.72,2.4,63.58-11.9,91.88a16.7,16.7,0,0,0,7.65-5.77A105.93,105.93,0,0,0,1093.65,156.23Z"/><path class="cls-4" d="M1281.42,139.2l12.13-7.51,7-4.36c16.79-5.06,29.06-18.55,22.88-37.11-8.52,5.27-19.58,7.4-28.31,14l-8.28,4.88-14.19,8.41Z"/><path class="cls-9" d="M1142.24,188c4-17.55,28-38.85,17.42-53.31-2.29-1-4.52-2.07-6.73-3.14-6.62-3.15-13-6.37-20-8.27a166.62,166.62,0,0,0,2,30q.8,4.91,1.92,9.73c2.54,6.89,3.15,13.59,4.77,19.85C1142.06,186,1142.24,188,1142.24,188Z"/><path class="cls-12" d="M1390.75,331.73s-110.2,31.12-129.67,54.48l36.95,2.31s81.35-4.09,112.21,21.63Z"/><polygon class="cls-7" points="1494.54 279.94 1527.57 293.67 1550.83 266.5 1547.98 302.15 1581.01 315.88 1546.22 324.19 1543.37 359.85 1524.72 329.32 1489.92 337.63 1513.19 310.46 1494.54 279.94"/><path class="cls-5" d="M1060.15,41.18A150.24,150.24,0,0,0,1069,4.89q.24-2,.41-4Q1058.6.54,1047.83,0c-.06.89-.12,1.78-.2,2.71a129.47,129.47,0,0,1-6.56,31.43,104.84,104.84,0,0,1-4.21,10.36c-1-1.35-2-2.69-3-4-1.77-2.22-3.42-4.44-5.29-6.65-.89-1.05-1.73-2.09-2.65-3.15l-2.88-3.24c-2-2.1-3.91-4.16-6-6.16s-4.27-3.93-6.58-5.78c-1.15-.93-2.39-1.8-3.6-2.68L1005,11.56l-1-.62-1-.58a36,36,0,0,0-9.1-3.82,23.65,23.65,0,0,0-11.27-.3,21.83,21.83,0,0,0-10.28,5.67,31,31,0,0,0-6,8.43A49.11,49.11,0,0,0,963.07,29a65.76,65.76,0,0,0-1.77,8.57,94.43,94.43,0,0,0-.84,16.72,106.13,106.13,0,0,0,1.79,16.21c.51,2.66,1.1,5.3,1.86,7.93a70.32,70.32,0,0,0,2.66,7.81,52,52,0,0,0,3.8,7.68,35.93,35.93,0,0,0,5.8,7.37,23.26,23.26,0,0,0,9.52,5.65l1.47.39c.5.1,1,.17,1.52.24s1,.14,1.53.17h1.52c.5,0,1,0,1.51-.06l1.45-.21c.48-.08,1-.14,1.43-.26l1.34-.37,1.33-.41,1.21-.5,1.2-.52.3-.13.46-.24.38-.2,3-1.59,3-1.58,3.2-1.94,3.18-2c1.07-.64,2-1.36,3-2,1.93-1.39,3.9-2.69,5.68-4.21a112.35,112.35,0,0,0,10.29-9.18c2.65-2.67,5.11-5.44,7.41-8.26l.27.51c.58,1.17,1.1,2.36,1.66,3.54.27.59.56,1.18.81,1.78l.72,1.81c4,9.59,6,19.84,5,29.76a46.59,46.59,0,0,1-3.75,14.33,51.18,51.18,0,0,1-8.06,12.54A70.08,70.08,0,0,1,1013.46,156,90.57,90.57,0,0,1,996,161.76c-2-4.16-4.21-8.44-6.6-12.82a171.71,171.71,0,0,0-12.7-20.31,61.67,61.67,0,0,0-8.73-9.69A24.81,24.81,0,0,0,962.1,115a12.38,12.38,0,0,0-7.74-1.14,12.92,12.92,0,0,0-6.84,4.15,26.08,26.08,0,0,0-4.11,6.25l-.79,1.66-.69,1.68c-.48,1.12-.85,2.27-1.25,3.41l-.3.86s-.08.27-.1.32l-.06.21-.12.42-.46,1.7a14.89,14.89,0,0,0-.4,1.84l-.34,2a28,28,0,0,0,.05,7.89,25.58,25.58,0,0,0,.93,4,24.82,24.82,0,0,0,1.69,3.77,25.88,25.88,0,0,0,2.29,3.46,29,29,0,0,0,2.87,3A31.43,31.43,0,0,0,950,163c.57.38,1.15.72,1.73,1.08l.87.53.9.46a45,45,0,0,0,7.48,3,60.19,60.19,0,0,0,7.83,1.77,76.64,76.64,0,0,0,16,.79,96.58,96.58,0,0,0,12.42-1.49c6.05,11.92,10.88,22.56,14.75,31.37s6.75,15.85,8.69,20.64,2.91,7.37,2.91,7.37-.9-2.61-2.68-7.46-4.44-12-8-20.93-8-19.46-13.56-31.42a98.44,98.44,0,0,0,17.34-5.29,78.62,78.62,0,0,0,28.05-19,60.55,60.55,0,0,0,10-14.56,56.5,56.5,0,0,0,5.1-17.19c1.57-12-.54-24.07-4.62-35l-.75-2.06c-.26-.68-.56-1.34-.84-2-.58-1.33-1.12-2.69-1.73-4-1-2-2-4.07-3-6.06.33-.52.67-1,1-1.56A123.36,123.36,0,0,0,1060.15,41.18Zm-75.8,122.37a69.86,69.86,0,0,1-14.64-.25,53.68,53.68,0,0,1-7-1.34,38.78,38.78,0,0,1-6.49-2.4l-.77-.36-.73-.42c-.48-.28-1-.54-1.45-.84a25.5,25.5,0,0,1-2.64-2,23.31,23.31,0,0,1-2.31-2.24,20.23,20.23,0,0,1-1.82-2.58,19.23,19.23,0,0,1-1.38-2.81,20.17,20.17,0,0,1-.8-3,22.69,22.69,0,0,1-.24-6.36l.22-1.55a10.75,10.75,0,0,1,.29-1.62l.41-1.71.18-.74.25-.81c.33-1.07.64-2.16,1-3.18l.57-1.55.66-1.49c1.72-3.91,4.32-7.45,7.56-8.22a8.19,8.19,0,0,1,5.17.67,20.91,20.91,0,0,1,5,3.17,58.13,58.13,0,0,1,8.46,8.84A168.74,168.74,0,0,1,987,150.3c2.39,4.07,4.58,8.05,6.65,11.94A88.48,88.48,0,0,1,984.36,163.55Zm35.88-94.31a93.62,93.62,0,0,1-8.34,7.94c-1.44,1.33-3.08,2.47-4.67,3.69-.8.58-1.6,1.27-2.41,1.78l-2.44,1.61-2.48,1.65-2.94,1.68-3,1.69-.35.2,0,0-.38.17-.37.19-.32.09a3.34,3.34,0,0,1-1.92.2,5.83,5.83,0,0,1-2.51-1.46,26.78,26.78,0,0,1-5.91-9,53.77,53.77,0,0,1-2.26-6c-.68-2.09-1.24-4.26-1.74-6.47a87.12,87.12,0,0,1-1.7-27.68,43.33,43.33,0,0,1,3.18-12.78,16.72,16.72,0,0,1,2.92-4.53,7.35,7.35,0,0,1,3.38-2.1c2.39-.74,6.36.11,10.33,2.29A59.8,59.8,0,0,1,1008,31c1.89,1.69,3.74,3.52,5.56,5.35l2.65,2.79c.89,1,1.81,2,2.72,3,1.72,1.9,3.41,4,5.13,6s3.27,4.18,4.91,6.27l1.32,1.84A93.93,93.93,0,0,1,1020.24,69.25Z"/><path class="cls-6" d="M1368.68,148.68s82.77-31.63,120-14.2l5.57-44.89s-102.2,20.87-139.79,59.47Z"/><polygon class="cls-7" points="1444.1 70.08 1484.16 49.38 1483.84 24.74 1437.08 47.77 1444.1 70.08"/><polygon class="cls-7" points="1442.7 172.65 1498.78 218.99 1503.92 184.46 1442.7 172.65"/><path class="cls-12" d="M820.71,172.42s.19-6.82-.1-17.13c-.21-3.58-.46-7.54-1.12-12.12C811,105,787.29,71.78,782,33.79c-1.22-13.57,23.66,1.94,35.92,4.53-4.86,3.58-10,6.08-10.47,13.15,2,38.84,30.06,70.89,22.76,110-.77,4.34-1.68,8.49-2.75,12.36a79.85,79.85,0,0,1-3.74,10.71Z"/><path class="cls-9" d="M863.24,138.81c3.41-11.31,16.94-17.15,25.14-12.34,2.45.52.33,5.7,1.38,9.44l.77,10.83-25.77,14.82s-.24-5.51-.59-11.17S863.24,138.81,863.24,138.81Z"/><path class="cls-10" d="M842.65,79.14c6.58-9.62,11.57-26,25.71-25.11,4.39-.8,8.52-1.88,8.52-1.88S876.35,57,875.25,63c-2.08,9.51-4.16,19.31-7.6,28.31-3.3-3.77-8.72-2.36-11.61-5.16C849.67,83.18,842.65,79.14,842.65,79.14Z"/><path class="cls-11" d="M787.28,113.87c-11.87-7.74-20.69-19.33-32-28.22l-8.09-7.14L744,75.64a91.88,91.88,0,0,0,10.36-6.17c2.76-2.54,3.79-7.45,7.56-10.74,7,17.86,15.83,34.08,23.54,51.18C786.61,112.42,787.28,113.87,787.28,113.87Z"/><path class="cls-3" d="M1381.12,17.83c13.14-10.12,32-20.46,45.62-10.55,3.39,2.2-.9,16.82-5.35,19.12-17.75,13.68-41.26,15.11-60.15,26.57,5.47-10.16,10.92-21.43,17-30.11C1380,19.8,1381.12,17.83,1381.12,17.83Z"/><path class="cls-9" d="M1570.75,83.67c19-15.52,42.38-25.92,67.28-30.74a72.85,72.85,0,0,1,8.67-1.37,157.46,157.46,0,0,1,28.52-2.86l22.86,33.57s-19.79-1.33-43.12-1.19c-2.73-.12-5.45-.17-8.23-.23-31.07-1.83-63.49,4.2-90.15,21.36a16.7,16.7,0,0,1,4.94-8.21A105.91,105.91,0,0,1,1570.75,83.67Z"/><path class="cls-4" d="M744.86,186.22l3-14,1.71-8.1c-.93-17.51,7.61-33.63,27.17-34.1-2.08,9.8-.33,20.93-3.57,31.37-.61,3.23-1.22,6.44-1.79,9.44l-3.1,16.2Z"/><polygon class="cls-10" points="1315.68 82.7 1300.81 55.32 1322.25 32.72 1291.62 38.4 1276.74 11.03 1272.68 41.92 1242.05 47.61 1270.17 61.01 1266.12 91.9 1287.56 69.3 1315.68 82.7"/><path class="cls-11" d="M1506.1,160.83s2.69.62,7.7,1.89,12.36,3.18,21.65,5.83,20.53,6,33.26,10.44c6.36,2.22,13.09,4.71,20.09,7.62a171.72,171.72,0,0,1,21.51,10.53,61.65,61.65,0,0,1,10.54,7.68,24.8,24.8,0,0,1,4.52,5.41,12.38,12.38,0,0,1,1.93,7.58,12.92,12.92,0,0,1-3.42,7.23,26.08,26.08,0,0,1-5.79,4.73l-1.57,1-1.6.86c-1.07.6-2.17,1.08-3.27,1.6l-.83.38-.31.13-.2.08-.41.16-1.64.64a14.86,14.86,0,0,1-1.79.59l-1.91.54a28,28,0,0,1-7.86.77,25.61,25.61,0,0,1-4-.51,24.82,24.82,0,0,1-3.92-1.29,25.86,25.86,0,0,1-3.68-1.92,29,29,0,0,1-3.26-2.54,31.45,31.45,0,0,1-2.87-2.94c-.43-.52-.83-1.07-1.25-1.61l-.62-.81-.55-.85a45,45,0,0,1-3.8-7.12,60.15,60.15,0,0,1-2.57-7.6,76.65,76.65,0,0,1-2.44-15.87,97.77,97.77,0,0,1,3.86-32.41,78.62,78.62,0,0,1,16-29.87A60.55,60.55,0,0,1,1601,119.66a56.51,56.51,0,0,1,16.57-6.86c11.74-2.81,24-2,35.25,1l2.13.53c.71.19,1.39.42,2.09.63,1.39.43,2.79.84,4.16,1.3,2.71,1,5.46,1.93,8.09,3.1a163.51,163.51,0,0,1,15.44,7.48c2.45,1.43,4.93,2.81,7.34,4.29s4.77,2.94,7.16,4.57c1.14.77,2.25,1.5,3.41,2.31l3.52,2.53c2.29,1.72,4.55,3.46,6.75,5.33s4.35,3.84,6.43,5.94c1,1,2,2.19,3,3.3l1.45,1.79.72.9.68,1a36,36,0,0,1,4.74,8.66,23.65,23.65,0,0,1,1.47,11.17,21.83,21.83,0,0,1-4.57,10.81,31,31,0,0,1-7.76,6.85,49.11,49.11,0,0,1-8.3,4.14,65.73,65.73,0,0,1-8.34,2.65,94.44,94.44,0,0,1-16.54,2.57,106.12,106.12,0,0,1-16.3-.1c-2.7-.24-5.39-.55-8.08-1a70.38,70.38,0,0,1-8-1.84,52,52,0,0,1-8-3,35.92,35.92,0,0,1-7.93-5,23.26,23.26,0,0,1-6.6-8.88l-.54-1.42c-.15-.49-.27-1-.39-1.49s-.24-1-.33-1.5l-.16-1.51c0-.5-.1-1-.09-1.51l.05-1.47c0-.48,0-1,.11-1.45l.23-1.37.27-1.36.37-1.25.39-1.25.1-.31.19-.48.16-.4,1.27-3.17,1.26-3.14,1.6-3.39,1.62-3.36c.53-1.13,1.15-2.11,1.72-3.17,1.18-2.06,2.27-4.16,3.6-6.09a112.37,112.37,0,0,1,8.07-11.18,114.36,114.36,0,0,1,18.56-18,123.39,123.39,0,0,1,19.66-12.39,150.25,150.25,0,0,1,35.18-12.52A162.29,162.29,0,0,1,1747.59,89c5.58-.39,8.72-.31,9-.3l-.88,22.39c.27,0-2.11-.14-6.86,0a140.58,140.58,0,0,0-20.62,2.4,129.47,129.47,0,0,0-30.58,9.78,98.52,98.52,0,0,0-32.76,24.36,93.6,93.6,0,0,0-7,9.12c-1.18,1.57-2.14,3.32-3.19,5-.5.86-1.09,1.72-1.52,2.58l-1.35,2.6-1.38,2.63-1.36,3.1-1.37,3.13-.17.39c0-.06-.17.41,0-.08l0,.1-.13.39-.15.39c0,.11,0,.22-.06.33a3.34,3.34,0,0,0,0,1.93,5.83,5.83,0,0,0,1.71,2.35,26.78,26.78,0,0,0,9.55,4.94,53.79,53.79,0,0,0,6.21,1.62c2.14.46,4.37.79,6.62,1.06a87.12,87.12,0,0,0,27.71-1.17,43.33,43.33,0,0,0,12.38-4.49,16.73,16.73,0,0,0,4.2-3.38,7.35,7.35,0,0,0,1.73-3.58c.49-2.45-.77-6.31-3.35-10a59.78,59.78,0,0,0-9.74-10.77c-1.88-1.71-3.89-3.35-5.9-5l-3-2.34c-1.05-.79-2.2-1.59-3.3-2.39-2.07-1.52-4.37-3-6.54-4.47s-4.49-2.82-6.75-4.23a151.61,151.61,0,0,0-14-7.36c-2.38-1.15-4.83-2.06-7.26-3.05-1.22-.46-2.46-.85-3.7-1.29-.62-.21-1.23-.44-1.85-.62l-1.87-.53c-9.94-2.94-20.35-3.89-30.12-1.89a46.59,46.59,0,0,0-13.86,5.22,51.18,51.18,0,0,0-11.64,9.32,70.08,70.08,0,0,0-15,26.16,90.23,90.23,0,0,0-4.5,29.72,69.85,69.85,0,0,0,1.76,14.53,53.68,53.68,0,0,0,2.06,6.82,38.78,38.78,0,0,0,3.06,6.21l.44.73.49.68c.33.45.64.92,1,1.36a25.58,25.58,0,0,0,2.22,2.42,23.3,23.3,0,0,0,2.47,2.07,20.22,20.22,0,0,0,2.75,1.54,19.24,19.24,0,0,0,2.93,1.08,20.17,20.17,0,0,0,3.1.48,22.69,22.69,0,0,0,6.35-.42l1.52-.38a10.77,10.77,0,0,0,1.58-.46l1.66-.59.72-.26.78-.33c1-.44,2.08-.86,3.05-1.37l1.48-.73,1.41-.81c3.71-2.11,7-5.06,7.4-8.37a8.19,8.19,0,0,0-1.2-5.07,20.91,20.91,0,0,0-3.67-4.66,58.15,58.15,0,0,0-9.67-7.5,168.75,168.75,0,0,0-20.77-11c-6.83-3.11-13.44-5.79-19.7-8.2-12.53-4.81-23.64-8.51-32.83-11.46s-16.47-5.07-21.43-6.5S1506.1,160.83,1506.1,160.83Z"/><path class="cls-3" d="M718.56,516.66s-93.47-8-126.22,20.67l-18.8-44s110.09-8.68,159.62,19.58Z"/><path class="cls-4" d="M673.91,449.52s-20.28-13.21-20.19-38.9l26.52-.95L701,449.51Z"/><path class="cls-5" d="M797.47,382.07s-33.75-15.37-49.7-73.71L776.1,276s19.22,101.9,41.81,114.79Z"/><polygon class="cls-6" points="618.82 458.77 572 449.44 565.12 424.27 619.42 434.01 618.82 458.77"/><polygon class="cls-7" points="650.27 562.71 606.78 626.28 591.44 592.65 650.27 562.71"/><path class="cls-8" d="M572.2,239.68s-3.77-6.16-9-15.77c-1.7-3.4-3.55-7.16-5.36-11.72-12.37-39.55-8.13-82.52-23.34-120.17-6-13.1-20.69,14.26-30.57,23.11,6.35.72,12.38.3,16.54,6.54,18.64,36.71,9.83,80.93,37.16,112.94,3,3.58,6,6.9,9,9.89a84.57,84.57,0,0,0,9.08,7.86Z"/><path class="cls-9" d="M515.43,231.28c-9.1-8.58-24.59-6.8-29.58,1.94-2,1.77,2.71,5.41,3.72,9.39l5,10.35H526s-2.69-5.18-5.36-10.56S515.43,231.28,515.43,231.28Z"/><path class="cls-10" d="M502.84,165.65c-11.11-5.36-24.33-17.73-36.84-9.48-4.45,1.58-8.81,2.77-8.81,2.77s3,4.19,7.23,9.13c6.93,7.62,14,15.53,21.92,22,1-5.2,6.76-6.77,7.94-10.86C498.52,173.06,502.84,165.65,502.84,165.65Z"/><path class="cls-11" d="M572,168.3c6.81-13.37,8.78-28.66,14.46-42.78,1.46-4.31,2.74-8.11,3.65-10.82l1.46-4.34a97.29,97.29,0,0,1-12.76-.2c-3.87-.88-7.41-4.83-12.61-5.87,3,20.08,3.46,39.63,5.4,59.39C571.83,166.61,572,168.3,572,168.3Z"/><polygon class="cls-10" points="772.37 454.49 733.85 413.8 759.22 382.69 772.37 454.49"/><path class="cls-5" d="M469.06,370.45c-16.33-6.45-38.59-11.43-49.51,2.62-2.81,3.23,5.84,16.85,11,17.89,22.06,8.73,46.4,3.3,69,9.43-8.54-8.73-17.38-18.61-26.08-25.67Z"/><path class="cls-11" d="M493.94,509.66c-23.86-10.23-50.7-14-77.44-11.58a77.11,77.11,0,0,0-9.22,1.14,166.7,166.7,0,0,0-29.86,5.43L364,545.5s19.75-7.15,43.52-13.83c2.74-.92,5.49-1.77,8.3-2.65,31.08-11,65.82-14.31,98-4.66a17.68,17.68,0,0,0-7.43-6.9A112.13,112.13,0,0,0,493.94,509.66Z"/><path class="cls-4" d="M441.33,317.12l-10.08-11.25-5.85-6.53c-8.39-16.56-24.73-26.85-42.93-17,7.08,7.9,11.35,19,19.83,26.91l6.63,7.72,11.4,13.22Z"/><path class="cls-9" d="M518,453.12c-19-.93-45.68-21.93-58.79-8.26-.63,2.57-1.32,5.09-2,7.59-2.06,7.49-4.22,14.76-4.91,22.33a176.39,176.39,0,0,0,30.93-7.68q5-1.74,9.79-3.81c6.71-3.93,13.58-5.81,19.8-8.66C516,453.67,518,453.12,518,453.12Z"/><path class="cls-12" d="M590.14,245.17S643,354.24,671,370.2l-4.45-38.94s-19.37-84,1.71-121Z"/><polygon class="cls-7" points="551.35 385.28 559.52 348.31 526.88 329.11 564.58 325.45 572.75 288.48 587.87 323.2 625.56 319.55 597.22 344.66 612.34 379.37 579.7 360.17 551.35 385.28"/><path class="cls-5" d="M582.3,569.25s-2.5,1.5-7.14,4.41-11.41,7.21-19.9,12.89-18.71,12.71-30,21.27c-5.66,4.28-11.61,8.95-17.65,14.11a178.65,178.65,0,0,0-17.91,17.26A61.54,61.54,0,0,0,482,649.64a22.13,22.13,0,0,0-2.37,5.82,8.67,8.67,0,0,0,.26,5.51c1.41,3.23,5.58,5.29,10,6.35l1.67.41,1.72.31c1.14.23,2.33.35,3.51.5l.89.11.81.05,1.86.11a11.41,11.41,0,0,0,1.74,0l1.66-.06a24,24,0,0,0,6.59-1.43,21.36,21.36,0,0,0,3-1.4,20.37,20.37,0,0,0,2.67-2,21.42,21.42,0,0,0,2.35-2.38,24.63,24.63,0,0,0,1.9-2.83,27,27,0,0,0,1.55-3.12c.22-.55.4-1.12.6-1.67l.3-.84.23-.87a41.07,41.07,0,0,0,1.29-7.21,56.84,56.84,0,0,0,.1-7.55,73.94,73.94,0,0,0-2.46-15.3,95.52,95.52,0,0,0-13.28-28.92,74.19,74.19,0,0,0-22.93-22.22A54.18,54.18,0,0,0,471.09,565a49.32,49.32,0,0,0-15.63-1.25c-10.52.82-20.83,4.84-30.09,10.74l-1.75,1.08c-.58.37-1.13.79-1.7,1.18-1.13.8-2.27,1.56-3.38,2.39-2.18,1.72-4.41,3.36-6.49,5.23A160.52,160.52,0,0,0,399.92,596c-1.88,2.1-3.79,4.15-5.62,6.28s-3.68,4.32-5.35,6.46c-.88,1.13-1.82,2.29-2.65,3.4l-2.42,3.28c-1.57,2.23-3.14,4.5-4.55,6.79A63.3,63.3,0,0,0,372.58,636c-1.53,4.54-1.68,8.83-.47,11.19a7.78,7.78,0,0,0,2.81,3.13,17.7,17.7,0,0,0,5.27,2.2,45.87,45.87,0,0,0,13.91.94,92.23,92.23,0,0,0,28.53-6.92c2.21-.93,4.38-1.92,6.42-3A56.93,56.93,0,0,0,434.9,640c3.65-2.41,6.73-5.31,8.26-7.82a6.18,6.18,0,0,0,1.05-2.89,3.54,3.54,0,0,0-.57-2c-.06-.1-.11-.21-.16-.32l-.27-.35-.25-.36-.06-.09c.34.44,0,0,.05.07l-.29-.35-2.31-2.78-2.29-2.76-2.18-2.27-2.14-2.25c-.69-.75-1.55-1.46-2.3-2.18-1.57-1.43-3.06-2.92-4.72-4.18a99.14,99.14,0,0,0-9.82-7.22,104.3,104.3,0,0,0-40.46-15.19,137.08,137.08,0,0,0-34-1,148.82,148.82,0,0,0-21.68,3.59c-4.88,1.21-7.26,2.07-7,2l-7.45-22.52c.27-.09,3.44-1.09,9.24-2.32a171.82,171.82,0,0,1,25.2-3.36,159.06,159.06,0,0,1,39.46,2.44,130.61,130.61,0,0,1,23.63,6.85A121.06,121.06,0,0,1,428,585.69a119,119,0,0,1,11.48,9c1.92,1.58,3.64,3.39,5.44,5.14.89.91,1.81,1.72,2.68,2.72l2.63,2.95,2.62,3,2.21,2.83,2.22,2.85.28.36.33.43.19.29.76,1.15.74,1.17.67,1.31.64,1.33c.2.45.36,1,.54,1.44l.48,1.48c.15.5.24,1,.34,1.56l.28,1.59c.06.54.08,1.08.11,1.62s0,1.09,0,1.63l-.14,1.61a24.63,24.63,0,0,1-4.12,11,38,38,0,0,1-6.61,7.42,55.06,55.06,0,0,1-7.3,5.39,74.5,74.5,0,0,1-7.65,4.22c-2.59,1.28-5.24,2.38-7.92,3.41a112.37,112.37,0,0,1-16.56,4.87,100,100,0,0,1-17.58,2.22,69.6,69.6,0,0,1-9.26-.25A52,52,0,0,1,376,667.6a32.87,32.87,0,0,1-9.9-4.7,23.11,23.11,0,0,1-7.81-9.66,25,25,0,0,1-1.78-11.8,38.15,38.15,0,0,1,2.29-10.19l.41-1.18.47-1.12.95-2.24c.7-1.42,1.38-2.88,2.13-4.25q2.25-4.13,4.8-7.93c1.69-2.55,3.48-5,5.31-7.4l2.84-3.6c.94-1.16,1.86-2.23,2.79-3.35,2-2.36,4-4.49,6-6.75s4.14-4.34,6.21-6.51a173.14,173.14,0,0,1,13.52-12.13c2.33-2,4.85-3.71,7.32-5.52,1.26-.88,2.57-1.7,3.85-2.54.65-.41,1.28-.85,1.94-1.25l2-1.16c10.6-6.27,22.82-10.73,35.58-11.31a59.82,59.82,0,0,1,18.87,2.12,64.1,64.1,0,0,1,17,7.73,83.23,83.23,0,0,1,25,25.71,103.5,103.5,0,0,1,13.42,31.84,81.15,81.15,0,0,1,2.16,16.87,63.66,63.66,0,0,1-.39,8.48,47.62,47.62,0,0,1-1.78,8.36l-.31,1-.39,1c-.27.67-.51,1.34-.8,2a33.3,33.3,0,0,1-2.06,3.83,30.73,30.73,0,0,1-2.57,3.54,27.39,27.39,0,0,1-3.18,3,26.27,26.27,0,0,1-3.61,2.47,27.11,27.11,0,0,1-4,1.7,29.62,29.62,0,0,1-8.22,1.52h-2.1a15.75,15.75,0,0,1-2-.07l-1.86-.17-.46,0-.23,0-.35,0-1-.15c-1.27-.2-2.53-.37-3.79-.67l-1.88-.4-1.87-.52a27.6,27.6,0,0,1-7.28-3.12,13.68,13.68,0,0,1-5.6-6.36,13.11,13.11,0,0,1-.25-8.28,26.26,26.26,0,0,1,3-6.83,65.27,65.27,0,0,1,8.48-10.9,181.77,181.77,0,0,1,18.81-17c6.26-5,12.38-9.52,18.21-13.63,11.65-8.23,22.11-14.94,30.78-20.36s15.59-9.5,20.32-12.26S582.3,569.25,582.3,569.25Z"/><path class="cls-6" d="M435,224.41S386.65,144,397.91,102l-47.82,2.54S390.82,207.19,438,239.19Z"/><polygon class="cls-7" points="339.07 160.4 310.06 122.49 284.43 127.41 317.12 171.86 339.07 160.4"/><polygon class="cls-7" points="446.23 142.82 484.12 75.76 447.17 76.82 446.23 142.82"/><path class="cls-12" d="M224.39,386s-7.19-.67-18.1-1.08c-3.8,0-8,0-12.88.35-41,6.33-77.65,29.07-118.15,32-14.42.35,3.68-24.86,7.27-37.63,3.45,5.38,5.73,11,13.17,12,41.17.55,77-26.85,117.76-16.43,4.53,1.11,8.85,2.36,12.86,3.76a84.54,84.54,0,0,1,11.06,4.69Z"/><path class="cls-9" d="M191.83,338.71c-11.71-4.38-16.95-19.08-11.3-27.41.72-2.55,6,0,10.07-.8l11.49-.06L216,338.69s-5.84-.13-11.84-.15S191.83,338.71,191.83,338.71Z"/><path class="cls-10" d="M127.37,356.34c-9.7-7.61-26.64-14-24.75-28.89-.54-4.69-1.39-9.13-1.39-9.13s5.1.88,11.38,2.46c9.9,2.86,20.11,5.73,29.38,10-4.21,3.22-3.09,9-6.25,11.91C132.12,349.2,127.37,356.34,127.37,356.34Z"/><path class="cls-11" d="M160.23,417.23c-9,12-21.85,20.51-32,31.84l-8.11,8-3.26,3.23A97.27,97.27,0,0,0,111,449c-2.5-3.09-7.6-4.52-10.83-8.73,19.35-6.13,37.1-14.37,55.69-21.33Z"/><path class="cls-3" d="M296.31,235.75c-13-11.81-27.27-29.6-19.47-45.59,1.66-3.94,17.7-2.19,20.92,2,17.56,16,23.42,40.19,38.86,57.76-11.6-3.81-24.37-7.4-34.54-12.09Z"/><path class="cls-9" d="M229.55,174.43C209.85,157.52,194.67,135.07,185,110a77.12,77.12,0,0,1-3-8.78A166.72,166.72,0,0,1,173.7,72L204.44,42s2.29,20.87,6.77,45.16c.38,2.87.83,5.71,1.28,8.62,3.86,32.73,16.17,65.39,39,90a17.68,17.68,0,0,1-9.47-3.63A112.13,112.13,0,0,1,229.55,174.43Z"/><path class="cls-4" d="M236.21,234.36l-14.54-4.09-8.44-2.37c-18.56-.23-35-10.36-34.14-31.06,10.21,2.87,22.08,1.8,32.89,5.94l9.85,2.54,16.89,4.4Z"/><path class="cls-4" d="M330.06,116.81c-9.23-16.68-39.82-31.34-33.33-49.13,2-1.7,4-3.43,5.93-5.16,5.81-5.14,11.39-10.29,17.88-14.25a176.38,176.38,0,0,1,6.73,31.15q.63,5.23.9,10.46c-.57,7.76.77,14.75,1,21.59C329.68,114.76,330.06,116.81,330.06,116.81Z"/><path class="cls-7" d="M239.22,422s121.23-.59,147.87,17.47l-36.92,13.17s-84,19.65-107.83,54.85Z"/><polygon class="cls-10" points="345.89 303.07 316.31 326.71 284.69 305.88 298.02 341.32 268.44 364.95 306.27 363.22 319.6 398.66 329.65 362.15 367.47 360.42 335.85 339.58 345.89 303.07"/><path class="cls-13" d="M1097.16,728.52c-38.92-207.31,44.81-331,45.1-332.34l2.59.57c-.28,1.3-86.5,125-47.68,331.78Z"/><path class="cls-13" d="M831.94,651.42C767.75,557.21,729.66,432.53,709,344.54c-22.36-95.31-29.66-169.33-29.73-170.07l2.92-.28c.07.74,7.35,74.6,29.67,169.72,20.59,87.74,58.56,212,122.49,305.86Z"/><path class="cls-11" d="M1597.53,508.22s-12.16,4.38-13.21,7.13,5.86,4.43,3.17,7.85l-2.69,3.42c-1.6,2-1.46,7.86,2.42,7s7.76-4.56,7.8.15l0,4.71s4.77.84,8-2,2.77-2.4,4.16-.79,9.75,1.93,12.89-13.55"/><ellipse class="cls-11" cx="1662.1" cy="462.66" rx="85.14" ry="70.95" transform="translate(103.14 1201.78) rotate(-40.92)"/><path class="cls-13" d="M1627.34,518.85s70.25,13,93.1-92C1720.44,426.84,1742.59,534.85,1627.34,518.85Z"/><path class="cls-13" d="M1274.94,539.26a22.85,22.85,0,0,1-1.09,2.62,21.93,21.93,0,0,1-.9,4.07c-.09.18-.09.54-.18.72s-.27.36-.27.54c-.27,1.09-.09,1.9-.36,2.8a2,2,0,0,1-.36.45,1.93,1.93,0,0,1,0,.72c-.09.36-.18.72-.27,1.18s-.09.91-.18,1.27-.27.18-.36.45.09.36,0,.54a2,2,0,0,1-.27.45c-.09.18,0,.45,0,.63l-.36.36c0,.18.09.45,0,.63a5,5,0,0,0-.45.72c-.09.27-.09.63-.18,1a44.36,44.36,0,0,1-.9,4.52,2.35,2.35,0,0,1-.18.45c-.09.09-.18.45-.36.72s-.36,1.72-.63,2.44a9.42,9.42,0,0,1-.45,1.9c-.09.18-.09.45-.18.72s-.27.18-.27.36a18.36,18.36,0,0,1-.45,2.53,1.89,1.89,0,0,0-.36.54c-.09.27.09.63,0,.91s-.27.36-.27.54a19.13,19.13,0,0,1-.54,2.17c-.09.27-.27.45-.27.63a5.89,5.89,0,0,0,0,1.27,15,15,0,0,1-.54,1.9,16.7,16.7,0,0,1-.36,2.08,17.17,17.17,0,0,1-.9,2.53,3.74,3.74,0,0,0-.27.72,4.37,4.37,0,0,0,0,1.09c-.09.18-.27.36-.36.54a42.51,42.51,0,0,1-1.09,4.61c.18.45.18,1.09.36,1.54a6.72,6.72,0,0,1-.63,1.09,7.17,7.17,0,0,1-.27,1.36,6.55,6.55,0,0,0-1.09,2.26c-.18.45-.63.54-.72,1a7.12,7.12,0,0,0-.18,1.81c.09.27-.27.27-.36.45-.36.45-.27,1.09-1.18,1.36-1.54.63-2.71-2-3.44-3-1-.81-1.45-2-2.26-3.08a12.62,12.62,0,0,1-1.09-1.63,4.53,4.53,0,0,1-.72-1.09,16.27,16.27,0,0,1-1.54-2.8,16.69,16.69,0,0,1-3-4.71,2.38,2.38,0,0,0-.27-.72c-.09-.18-.36-.27-.45-.45a19.17,19.17,0,0,0-1-1.9c-.09-.18-.09-.45-.27-.63a4.35,4.35,0,0,0-.81-1c.09-.72-.45-1-.72-1.36.09-.45-.27-.54,0-.91a15.41,15.41,0,0,1-1-1.27,5.5,5.5,0,0,0-.27-1.18c-.18-.54-.45-1.09-.63-1.63-.09-.18-.09-.36-.18-.45a6.07,6.07,0,0,1-.54-1.09c-.09-.18.09-.54,0-.81-.36-.27-.18-.45-.27-.63a17.28,17.28,0,0,0-.81-2.62c0-.09.09-.36,0-.45s-.45-.36-.54-.72,0-.72-.09-1-.36-.54-.45-.81.09-.36,0-.54a4,4,0,0,1-.54-1.09c-.36-1.09-.63-2.26-1.09-3.35.09-.9.18-1.36-.27-1.9-.72.27-.72,1.18-.9,1.9a16.83,16.83,0,0,1-.63,2c-.36,1-.9,1.81-1.36,2.8a3.67,3.67,0,0,0-.45.81c-.18.54-.18,1.27-.36,1.72-.27.63-.81,1.27-1.09,1.9-.54.91-.9,1.81-1.45,2.71A20.1,20.1,0,0,0,1227,576c-.27.72-.36,1.54-.63,2.26-.18.45-.36,1.18-.63,1.72-.54,1.45-.91,2.62-2,3.44-.09.27,0,.54-.09.9-.09,0-.27.18-.36.27s.09.36,0,.54-.36.36-.45.45a12.56,12.56,0,0,1-.54,1.18c-.09,0-.27.09-.36.09-.18.36.09.63-.27,1-.18.18-.36.27-.45.45a14.67,14.67,0,0,1-.9,1.63c-.09.09-.18.27-.36.36a3.79,3.79,0,0,1-.54.72c-.18.18-.27.81-.45,1.18-.27.54-.54.81-.81,1.36,0,.09-.09.27-.09.36a5.29,5.29,0,0,0-.81,2.62c-.27.27-.36.72-.72.9-.18.54.27.54.27,1-.81.63-.54,2-1,3.08,0,.09-.27.18-.45.36-.18.36-.09.63-.45.91a1.17,1.17,0,0,1-1.72,0c-.09-.18-.09-.36-.18-.45s-.36-.09-.36-.18a4.17,4.17,0,0,1-.45-.9c-.09-.27-.36-.63-.45-.91-.18-.45-.09-1.09-.27-1.54-.18-.63-.45-1.18-.63-1.81-.09-.18.09-.45,0-.54s-.27-.18-.27-.36a3.85,3.85,0,0,1-.18-1,5.44,5.44,0,0,0-.54-1c0-.45,0-.91.18-1.09-.09-.27-.27-.27-.45-.72.18-.27,0-.45-.09-.72s0-.63-.09-1c-.09-.09-.27-.18-.36-.36s.18-.36-.09-.36c0-.54-.09-1.09.18-1.36-.09-.36-.45-.72-.54-1.18s.09-1.09-.45-1.36c.18-1-.63-1.9-.9-2.9a14.45,14.45,0,0,1-.27-2.08c-.09-.27-.18-.63-.27-1a4.05,4.05,0,0,1-.09-1c-.18-.63-.72-1.27-.54-1.81,0-.09-.81-1-.27-1.36a5.19,5.19,0,0,1-.9-1.72c-.09-.36.09-.72-.09-1.18-.09-.27-.36-.45-.45-.72-.09-.72-.09-1.72-.18-2.8-.09-.45-.18-.81-.27-1.27s0-1.09-.09-1.54l-.27-.54a5.71,5.71,0,0,1-.18-.63,4.48,4.48,0,0,1-.36-1.18c-.18-.54,0-1.08-.18-1.54,0-.27-.27-.45-.27-.63a7.92,7.92,0,0,0-.54-2.53,2.25,2.25,0,0,0-.09-.72c-.09-.18-.27-.27-.27-.45s.09-.45,0-.72c0-.09-.27-.18-.27-.36a1.42,1.42,0,0,0,0-.63c0-.18-.09-.36-.09-.54-.27-.81-.45-1.36-.72-2.26a5.28,5.28,0,0,0-.36-1.63c-.18-.27-.63-.63-.72-1a8.12,8.12,0,0,1-.27-1.45,1.8,1.8,0,0,0-.54-1.18,5.63,5.63,0,0,0-1.09-3.08,7.31,7.31,0,0,0-1-2.44c-.09-.18,0-.45-.09-.72-.09-.09-.36-.27-.45-.45a3.5,3.5,0,0,1-.54-1,4.47,4.47,0,0,1-.27-1.18c-.09-.27-.36-.63-.45-.91a7.12,7.12,0,0,0-.27-1.18,2.86,2.86,0,0,1-.36-1.9,4.47,4.47,0,0,1-.72-1.63,2.72,2.72,0,0,1-.27-.81c0-.36.18-.63,0-.91a17.86,17.86,0,0,1,3.08-.36c.36,0,.63.27.9.27h.54c.45,0,.72-.36,1.36-.36.27,0,.54.18.9.18,2-.09,4.71-.36,6.7-.63a3.92,3.92,0,0,1,1.9,1.36c.36.81,0,2.26.36,3.35.18.72.36,1.81.63,2.71a10.17,10.17,0,0,1,.54,1.9c0,.09.18.18.09.45s-.18.18,0,.72c.09.09.27.18.27.27.09.36-.09.72,0,1,.18.81.72,1.36.81,2.08s0,1.27.18,1.9c.18,1.36,1.09,2.71.63,4.25-.09.27.18.27.27.45.18.36.18,1.09.36,1.63.09.36.36.63.45,1s0,.81.09,1.18c.18.63.45,1.36.72,2.08a5.54,5.54,0,0,0,.27,1c.09.27.36.63.36.91.09.45,0,1.08.09,1.63.09.36.54.72.18,1.18a5.25,5.25,0,0,1,.9,2.17,2.28,2.28,0,0,0,.18.45,16.68,16.68,0,0,1,.54,2.08c.09.45.45,1,.54,1.45a5.28,5.28,0,0,0,.27,1.72c0,.09.27.27.27.36s-.09.27,0,.45a5.77,5.77,0,0,0,.72,1.27c.36-.09.27-.54.45-.81a4.23,4.23,0,0,1,.45-.9c.09-.27.18-.72.27-1s.09-.72.18-1,.36-.27.45-.45.09-.45.18-.63c.27-.63.45-1.54.72-2.44a14.8,14.8,0,0,1,.81-1.72,12.69,12.69,0,0,0,.9-1.45c.36-.63.54-1.45,1.18-1.9a5.7,5.7,0,0,1,.81-2.17s.27-.18.27-.27c.18-.36.27-.9.81-1a4,4,0,0,1,.54-1.45c.45-.9.91-1.72,1.45-2.71,0-.09,0-.36.09-.45a5.55,5.55,0,0,0,.81-1.18,1.49,1.49,0,0,1,.45-.54c0-.09-.09-.27,0-.45.18-.45.36-.81.54-1.27s.27-1.09.54-1.63a13.24,13.24,0,0,0,.72-1.18c.18-.45.18-1,.36-1.54s.36-.91.45-1.36a10,10,0,0,1,.18-1.54c.09-.45.36-.9.45-1.36.27-1,.36-2,.63-3a4.94,4.94,0,0,1,1.09-2.53,3,3,0,0,1,2.35.27c.36.36.36,1.18,1,1.27-.18.45.09.91.27,1.36a6.8,6.8,0,0,0,.54,1.18c0,.09.27.27.27.27.18.72.27,1.72,1,2.08.09.54.27,1,.36,1.45.09.27.09.54.18.72s.36.27.36.45c.18.27,0,.54.18.72.45.45.45,1.45,1,1.63a7.81,7.81,0,0,0,.27,1.54c-.09.45.45.54.63.81s.09.63.18.81a22.91,22.91,0,0,1,1.09,2.8,3.44,3.44,0,0,1,.45,1.54c.72,1,.72,2.71,1.45,3.71.18.63,0,.91.18,1.36a8.33,8.33,0,0,0,.72,1.18c.18.45.18,1,.36,1.45s.36.63.54,1a6.52,6.52,0,0,0,.81,1.81,3.05,3.05,0,0,1,.27.72c.36.9,1,2,1.45,3,.18.36.27,1.09.54,1.63s.72,1.27,1.09,1.9c.09.09.36.18.45.45s.18,1.27.91,1-.09-.72,0-1.27c.45-.63.18-1.45.36-2.17a14,14,0,0,1,.63-2.08c.18-.72.27-1.45.45-2.17s.18-1.54.36-2.35c.09-.63.36-1.18.45-1.9s0-1.45.09-2.17a8,8,0,0,1,.27-1.27c.09-.45.09-1,.18-1.36.18-.54.63-1,.81-1.54s.09-1.45.18-2.08a5.49,5.49,0,0,0,0-1.72c.63-.63.54-1.63.9-2.44.09-.18.27-.09.36-.27s-.09-.36,0-.45c.27-.81.45-1.45.72-2.44a5.43,5.43,0,0,1,.36-.72,26.15,26.15,0,0,1,.36-2.62c0-.27.36-.54.45-.72s-.09-.45,0-.63.27-.27.27-.27c.09-.36-.09-.81,0-1.18a6.54,6.54,0,0,1,.45-.81c.18-.36.36-.63.63-.72,0-.54-.36-.72-.27-1.36.45,0,.18-.36.45-.54.63-.54,2.08-.36,3.35-.36.81-.09,1.36-.27,1.9.18,1-.45,2.35-.18,3.71-.27.81,0,1.45.27,2.17.27,1-.09,1.9-.54,2.71,0,.27.45.18,1.09.63,1.36A12,12,0,0,1,1274.94,539.26Z"/><path class="cls-13" d="M1325.6,577.72a22.21,22.21,0,0,1-.09,5.52,9.36,9.36,0,0,1-.36.91,5.09,5.09,0,0,1,0,1.18,2.88,2.88,0,0,0-.27.81c-.18,1,0,2.08-.09,3.08s-.36,2-.36,2.9c0,.54.09,1.08.09,1.63.09,1.45-.45,3-.27,4.25.18.81,1.09,1.72.9,2.62s-1.63,1.54-2.9,1.54a5.87,5.87,0,0,1-1-.18c-.27,0-.45.18-.72.18a32.59,32.59,0,0,1-6.24-1.45,7.17,7.17,0,0,0-1.27-1.54c.09-1.09-.27-1.9.09-3.35,0-.18.27-.27.27-.54a3.3,3.3,0,0,0,0-1.36,3.32,3.32,0,0,1,.81-1.81c-.72-.81.18-1.81.18-2.62a9.69,9.69,0,0,1,.09-2.26,1.73,1.73,0,0,0,.27-.72c0-.09-.09-.36-.09-.54a3.22,3.22,0,0,1,.18-.91,13.51,13.51,0,0,1,.18-1.9c0-.36.27-.72.27-1.09s-.09-.63-.09-.91c0-.63.45-1.45,0-2.08.36-.36.27-1.18.45-1.72a4.43,4.43,0,0,0,.36-1.72c0-.27-.09-.63-.09-.9a36.66,36.66,0,0,0,.09-5.52,7.21,7.21,0,0,0-.27-1.36,3.19,3.19,0,0,0-.09-.54c0-.27.18-.36.09-.63s-.18-.9-.18-1.27-.09-1.09-.18-1.36c-.09-.54-.54-1-.63-1.45a14.62,14.62,0,0,1-.27-1.81,9.64,9.64,0,0,0-1-.72,6.31,6.31,0,0,1-.9-.72c-.81-.72-1.36-1.63-3.17-1.36a4.85,4.85,0,0,0-.9.27c-1,.09-2.35.09-3.62.18a19,19,0,0,0-2.53.36c-.27.09-.54.09-.72.18-.81.27-1.18.91-1.72,1.36-.36.27-.63.54-.9.72s-.54.63-.9.72c-.27.45-.27,1.18-.9,1.18a12.38,12.38,0,0,1-1.36,3.17c-.18.27-.18.54-.36.81-.18.54-.45,1-.72,1.63a15.17,15.17,0,0,0-.63,2.71c-.09.27-.27.63-.36.9-.09.81.09,1.63-.45,2.17a27,27,0,0,1-.09,4.71c-.18.91-.45,1.9-.54,2.71a14.88,14.88,0,0,0-.18,4,8.26,8.26,0,0,1-.54,3.8c.27.36.18,1.09.36,1.54.18.72-.54.54-.45,1.18.27.18,0,.81.45.9.36.54.18,1.27.36,2.17.09.27.27.45.27.63a3.68,3.68,0,0,1,0,1.72c.27.72,1.09,1.27,1.09,2.08,0,.36-.45.81-.45,1.27a5.79,5.79,0,0,1-1.09.63c-.45,0-.81-.27-1.45-.36a7.08,7.08,0,0,0-1.45-.18c-1.18,0-2.44.27-3.62.36a10,10,0,0,0-2.81.09c-.36-.36-.45-.9-1-1.18.18-2.17-.09-4,.54-5.43.09-.27-.18-.36-.27-.54-.18-.54.27-1.27.18-2.17a3.9,3.9,0,0,1,.09-.45,1.28,1.28,0,0,0-.36-.18c0-.27.09-.63.09-.9a6.36,6.36,0,0,1-.27-1.27c-.18-2,0-4.43,0-7.33v-.45c.09-.63-.27-1.09-.27-1.72,0-.27.18-.63.18-.91s-.27-.72-.27-1.18c0-.81.18-1.63.18-2.44a7.64,7.64,0,0,1,.09-1.18c.09-1.09.18-2.44.18-3.62a17.38,17.38,0,0,1,.09-3c.09-1.36.36-4.43.54-5.61a27.54,27.54,0,0,0,.09-4v-1.27c.09-1.09-.09-2.08-.09-3.08,0-.36.18-.81.18-1.18a18.15,18.15,0,0,0-.36-2.17,6.82,6.82,0,0,0,0-1.36,3.22,3.22,0,0,0-.27-1c-.09-1.54.27-3.17-.45-4.52.18-2.08,0-4.16.18-6.33.09-1.63.18-3.44.18-5.34,1.09-.9,2.71-.72,4.25-.81a21.8,21.8,0,0,1,2.26-.27c.27,0,.36.18.54.18a8,8,0,0,1,2.08-.09c.72-.18.36.63,1,.63.45-.09.45.45.72.54-.36.81,0,1.81-.18,2.8-.09.18-.36.36-.36.54s.18.27.18.45c-.18,1.18-.54,3.8-.63,5.52s-.09,3.71-.09,4.71a37.47,37.47,0,0,0-.09,5.52c.09.63.36,1,.09,1.63-.09.36-.45,1.09-.27,1.63.63.18.91-.81,1.45-1.36a3.2,3.2,0,0,0,.63-.27c.27-.18.63-.81,1-1.08.18-.18.36-.18.63-.27s.36-.54.72-.72a10.12,10.12,0,0,0,1.45-.9c.27-.18.45-.54.72-.72s.45,0,.63-.09.27-.18.45-.27c1-.36,2-.63,3.26-1l.36-.27a12.58,12.58,0,0,0,1.81-.27c.72-.09,1.63-.27,2.35-.36s1.72.18,2.62.18c1.27.09,2.81.09,4.07.27.27.09.63.27,1,.36a3,3,0,0,1,1.36.45,8.8,8.8,0,0,1,2,2.08c.09.09,0,.27.09.45s.36,0,.45.09.09.36.09.45.27.18.36.36c.27.36.27,1.09,1,1.18a6.92,6.92,0,0,0,1,1.45,10.63,10.63,0,0,1,.63,1.81,9.81,9.81,0,0,1,.72,1.72c.09.36,0,.81.09,1.18,0,.09.27.18.27.27s.09.36.18.45c.18.54.45,1.18.63,1.81.09.18,0,.45,0,.72,0,.09.27.27.27.27.09.27.09.72.18,1a31.57,31.57,0,0,1,.9,4c.18,1.36-.18,2.8-.09,4.25a8.58,8.58,0,0,1,.36,1.63c-.18.72.18,2.9.09,3.53Z"/><path class="cls-13" d="M1385.41,575.45c-.09.54.36,1.45-.09,1.9.72.63.27,1.45.09,2.44-.09.54.09,1.18,0,1.54s-.36.54-.45.81-.18.72-.45.72a4.07,4.07,0,0,1-.36,2.08c-.09.18-.09.45-.18.72s-.27.36-.27.54.09.63,0,.9-.36.54-.45.81c-.36.91-.72,1.81-1.09,2.81a13.1,13.1,0,0,1-1.72,3.17,5.12,5.12,0,0,1,0,1.18,7.17,7.17,0,0,0-1.54,1.72,5.33,5.33,0,0,1-.9,1.45c-.45.54-1.09.81-1.63,1.36-.63,0-.54.18-1,0a6.37,6.37,0,0,1-3.08,1.72,2,2,0,0,0-.45.27c-.27,0-.54-.09-.72,0a8.93,8.93,0,0,1-2.35.63c-.27,0-.63-.18-.9-.18-.45.09-.81.36-1.36.45-.9.18-2,.09-3.08.18-.18,0-.27.18-.36.18s-.18-.18-.36-.18-.36.27-.54.27h-.63c-.27,0-.63-.09-.81,0a6.53,6.53,0,0,1-2.53.36c-.27-.09-.18.27-.45.27-1.45.09-3.71.36-4.89-.54a1.77,1.77,0,0,1-1.18.09c-.27,0-.36-.18-.63-.27h-.54a9.27,9.27,0,0,1-3.53-1.36,2.5,2.5,0,0,0-.81-.09c-.81-.45-1.27-1.09-2.44-1.18,0-.45-.36-.45-.27-.91-.45.27-.63-.27-.9-.45s-.63-.27-.9-.45a4.14,4.14,0,0,0-.63-.63c-.27-.18-.72-.27-.9-.45a4,4,0,0,1-.72-.91c-.18-.18-.72-.36-.54-.81-.45-.36-.81-.72-1.27-1.09-.09-.45-.36-.63-.27-1.18-.27-.27-.45-.27-.72-.63-.09-.09-.09-.27-.18-.36-.36-.09-.18-.27-.27-.36-.18-.27-.45-.63-.72-1a16.62,16.62,0,0,1-.54-1.63c-.09-.27,0-.36-.09-.63a2.07,2.07,0,0,1-.27-1.54c-.18-.36-.63-.54-.72-.9-.18-.91-.09-1.72-.27-2.53-.09-.54-.63-1-.36-1.63-.36-.36-.45-1-.81-1.27.18-.72-.27-1.45-.27-2.35a8,8,0,0,1,.18-1.36v-1.54a9.57,9.57,0,0,1,.54-1.9c.09-.63,0-1.27.45-1.45-.45-1.54.54-2.71.54-4.25.27-.18.27-.81.54-1,0-1.27.63-1.9.81-2.9.63-.27.81-.91,1.18-1.45.18-.18.36-.18.45-.27.27-.18.27-1,.9-.9.18-.45,0-.27,0-.81.72-.27,1-1,1.72-1.45.18-.09.54-.18.72-.27s.36-.27.54-.45a6.89,6.89,0,0,0,.81-.81,9,9,0,0,1,1.54-1,6.92,6.92,0,0,1,1.54-1.18c.18-.09.45-.45.72-.54a2,2,0,0,1,.72-.09c.36-.18,1.09-.81,1.63-.45a5.31,5.31,0,0,1,3.8-1.09c.45.09.45-.36.72-.36a17.47,17.47,0,0,1,3.26-.27c.45,0,.91.18,1.27.18a8.7,8.7,0,0,0,1.63-.27c.36,0,.63-.09.91-.09a5.8,5.8,0,0,1,2.17,0c.27.09.63.36.9.36s.72-.18,1-.18.72.27,1,.36a3.47,3.47,0,0,0,.9.27c.36.09.81,0,1.18.09a4.45,4.45,0,0,1,1.45.45c.45.09,1,.36,1.45.45,1.63.27,3-.09,4.52.54.27.09.63.45,1,.63.09,0,.36-.09.45,0s.36.45.54.54c.27.27.72.18.54.63a11.8,11.8,0,0,1,3.53,2.26,2.84,2.84,0,0,0,.54,1.45c.45.45.81.9,1.27,1.36.18.18.09.54.27,1a14.8,14.8,0,0,0,1.09,2c0,.91.09.72.45,1.45s.54,1.72,1.36,2.08c-.09.63.45,1.27.54,1.9a22.91,22.91,0,0,1,.09,2.44c0,.27-.18.54-.09.72,0,.45.18.9.18,1.36C1385.59,575,1385.41,575.18,1385.41,575.45Zm-10.5-2.08a4.35,4.35,0,0,0,0-1.09c-.18-1.18-.81-2.17-1.09-3.53a10.71,10.71,0,0,0-.18-2.35c-.45-.18-.36-.72-.63-1-.27-.45-.9-.63-1-1.18a10.29,10.29,0,0,1-1.72-.9,8.38,8.38,0,0,1-1.72-.18c-.54-.18-.81-.54-1.27-.63-.9-.09-1,.45-2,.27-.63-.27-.81-1-1.36-1.36a2.61,2.61,0,0,0-1.18-.09c-.36-.09-.36-.54-.9-.45-1,.27-2.26.91-3.62.36a2.64,2.64,0,0,0-1.09.63c0-.36-.72-.09-1-.18-1,.63-2.44,1.18-3.35,1.63-.27.09-.45,0-.63.18-.36.18-.63.72-.9,1a10.3,10.3,0,0,1-1,1,3.33,3.33,0,0,1-.63.27c-1.09.54-1.63,1.63-2.62,2.08-.09.9-.9,1.36-1.27,2.17-.27.63-.36,1.63-.63,2.17a6.12,6.12,0,0,1-.27.72c-.45,1.36,0,2.81-.72,4,.36.18.18.72.27,1.18.18.63.54,1.18.27,1.9-.09.18-.36.09-.27.45.27.09.27.45.36.72a2,2,0,0,1,.45.72c.09.09-.09.27,0,.45.09.36.63.72.36,1.27.54.18.45.9.9,1.09-.27.63.63,1.27.36,2.35a2,2,0,0,1,.45.27c.09.18,0,.36.09.63.27.27.63.54.63,1,.63.18,1,.9,1.54,1.36.27.27.54.36.81.63.54.36.81.72,1.18,1,.09.09.18.27.27.27.36.18.81.18,1.18.36s.63.54.9.63c.91.36,2.08.18,2.9,1.09,1,0,1.54.45,2.71.36.45,0,.63.45,1.18.45a7.21,7.21,0,0,1,1.18-.27,9,9,0,0,1,1.63.18,7.51,7.51,0,0,0,1.9-.81,2.48,2.48,0,0,1,1.63-.72c.09-.54.63-.81,1-1.18a5,5,0,0,0,1.36-1.45,11.58,11.58,0,0,1,.9-1.09,25,25,0,0,0,2-3.35,9.05,9.05,0,0,0,.9-1.9c.09-.18,0-.45,0-.72.09-.45.45-.63.18-.81a5.38,5.38,0,0,0,.36-2.17c.63-.63.45-1.45.63-2.53.09-.54.45-1,.45-1.45a19.77,19.77,0,0,0,.18-3.08C1375.09,573.55,1374.91,573.55,1374.91,573.37Zm69.31-3.35c-.09.54.36,1.45-.09,1.9.72.63.27,1.45.09,2.44-.09.54.09,1.18,0,1.54s-.36.54-.45.81-.18.72-.45.72a4.06,4.06,0,0,1-.36,2.08c-.09.18-.09.45-.18.72s-.27.36-.27.54.09.63,0,.9-.36.54-.45.81c-.36.91-.72,1.81-1.09,2.8a13.07,13.07,0,0,1-1.72,3.17,5.13,5.13,0,0,1,0,1.18,7.16,7.16,0,0,0-1.54,1.72,5.32,5.32,0,0,1-.9,1.45c-.45.54-1.09.81-1.63,1.36-.63,0-.54.18-1,0a6.39,6.39,0,0,1-3.08,1.72,2,2,0,0,0-.45.27c-.27,0-.54-.09-.72,0a9,9,0,0,1-2.35.63c-.27,0-.63-.18-.9-.18-.45.09-.81.36-1.36.45-.9.18-2,.09-3.08.18-.18,0-.27.18-.36.18s-.18-.18-.36-.18-.36.27-.54.27h-.63c-.27,0-.63-.09-.81,0a6.53,6.53,0,0,1-2.53.36c-.27-.09-.18.27-.45.27-1.45.09-3.71.36-4.89-.54a1.76,1.76,0,0,1-1.18.09c-.27,0-.36-.18-.63-.27h-.54a9.25,9.25,0,0,1-3.53-1.36,2.52,2.52,0,0,0-.81-.09c-.81-.45-1.27-1.09-2.44-1.18,0-.45-.36-.45-.27-.9-.45.27-.63-.27-.9-.45s-.63-.27-.9-.45a4.18,4.18,0,0,0-.63-.63c-.27-.18-.72-.27-.9-.45a4,4,0,0,1-.72-.9c-.18-.18-.72-.36-.54-.81-.45-.36-.81-.72-1.27-1.09-.09-.45-.36-.63-.27-1.18-.27-.27-.45-.27-.72-.63-.09-.09-.09-.27-.18-.36-.36-.09-.18-.27-.27-.36-.18-.27-.45-.63-.72-1a16.39,16.39,0,0,1-.54-1.63c-.09-.27,0-.36-.09-.63a2.08,2.08,0,0,1-.27-1.54c-.18-.36-.63-.54-.72-.91-.18-.9-.09-1.72-.27-2.53-.09-.54-.63-1-.36-1.63-.36-.36-.45-1-.81-1.27.18-.72-.27-1.45-.27-2.35a8,8,0,0,1,.18-1.36v-1.54a9.54,9.54,0,0,1,.54-1.9c.09-.63,0-1.27.45-1.45-.45-1.54.54-2.71.54-4.25.27-.18.27-.81.54-1,0-1.27.63-1.9.81-2.9.63-.27.81-.9,1.18-1.45.18-.18.36-.18.45-.27.27-.18.27-1,.9-.91.18-.45,0-.27,0-.81.72-.27,1-1,1.72-1.45.18-.09.54-.18.72-.27s.36-.27.54-.45a6.88,6.88,0,0,0,.81-.81,9,9,0,0,1,1.54-1,6.89,6.89,0,0,1,1.54-1.18c.18-.09.45-.45.72-.54a2,2,0,0,1,.72-.09c.36-.18,1.09-.81,1.63-.45a5.31,5.31,0,0,1,3.8-1.09c.45.09.45-.36.72-.36a17.48,17.48,0,0,1,3.26-.27c.45,0,.9.18,1.27.18a8.71,8.71,0,0,0,1.63-.27c.36,0,.63-.09.9-.09a5.84,5.84,0,0,1,2.17,0c.27.09.63.36.9.36s.72-.18,1-.18.72.27,1,.36a3.43,3.43,0,0,0,.9.27c.36.09.81,0,1.18.09a4.47,4.47,0,0,1,1.45.45c.45.09,1,.36,1.45.45,1.63.27,3-.09,4.52.54.27.09.63.45,1,.63.09,0,.36-.09.45,0s.36.45.54.54c.27.27.72.18.54.63a11.8,11.8,0,0,1,3.53,2.26,2.84,2.84,0,0,0,.54,1.45c.45.45.81.91,1.27,1.36.18.18.09.54.27,1a14.86,14.86,0,0,0,1.09,2c0,.91.09.72.45,1.45s.54,1.72,1.36,2.08c-.09.63.45,1.27.54,1.9a22.92,22.92,0,0,1,.09,2.44c0,.27-.18.54-.09.72,0,.45.18.91.18,1.36C1444.4,569.57,1444.22,569.75,1444.22,570Zm-10.5-2.08a4.35,4.35,0,0,0,0-1.09c-.18-1.18-.81-2.17-1.09-3.53a10.71,10.71,0,0,0-.18-2.35c-.45-.18-.36-.72-.63-1-.27-.45-.91-.63-1-1.18a10.37,10.37,0,0,1-1.72-.9,8.3,8.3,0,0,1-1.72-.18c-.54-.18-.81-.54-1.27-.63-.9-.09-1,.45-2,.27-.63-.27-.81-1-1.36-1.36a2.6,2.6,0,0,0-1.18-.09c-.36-.09-.36-.54-.9-.45-1,.27-2.26.9-3.62.36a2.65,2.65,0,0,0-1.09.63c0-.36-.72-.09-1-.18-1,.63-2.44,1.18-3.35,1.63-.27.09-.45,0-.63.18-.36.18-.63.72-.91,1a10.28,10.28,0,0,1-1,1,3.2,3.2,0,0,1-.63.27c-1.09.54-1.63,1.63-2.62,2.08-.09.91-.9,1.36-1.27,2.17-.27.63-.36,1.63-.63,2.17a6.12,6.12,0,0,1-.27.72c-.45,1.36,0,2.8-.72,4,.36.18.18.72.27,1.18.18.63.54,1.18.27,1.9-.09.18-.36.09-.27.45.27.09.27.45.36.72a2,2,0,0,1,.45.72c.09.09-.09.27,0,.45.09.36.63.72.36,1.27.54.18.45.91.9,1.09-.27.63.63,1.27.36,2.35a2,2,0,0,1,.45.27c.09.18,0,.36.09.63.27.27.63.54.63,1,.63.18,1,.91,1.54,1.36.27.27.54.36.81.63.54.36.81.72,1.18,1,.09.09.18.27.27.27.36.18.81.18,1.18.36s.63.54.91.63c.9.36,2.08.18,2.9,1.09,1,0,1.54.45,2.71.36.45,0,.63.45,1.18.45a7.12,7.12,0,0,1,1.18-.27,8.94,8.94,0,0,1,1.63.18,7.44,7.44,0,0,0,1.9-.81,2.48,2.48,0,0,1,1.63-.72c.09-.54.63-.81,1-1.18a5,5,0,0,0,1.36-1.45,11.58,11.58,0,0,1,.9-1.09,25.12,25.12,0,0,0,2-3.35,9.05,9.05,0,0,0,.9-1.9c.09-.18,0-.45,0-.72.09-.45.45-.63.18-.81a5.38,5.38,0,0,0,.36-2.17c.63-.63.45-1.45.63-2.53.09-.54.45-1,.45-1.45a19.75,19.75,0,0,0,.18-3.08C1433.91,568.13,1433.73,568.13,1433.73,567.94Z"/><path class="cls-13" d="M1507.83,579.8c0,.18-.18.54-.18.81s.18.54.18.81a6.49,6.49,0,0,0-.45,1.27c-.27.91-.27,2-.54,3.17a7,7,0,0,1-.63,1.45c-.09.36,0,.54-.18.9a17.09,17.09,0,0,1-.9,1.9c-.18.45-.18,1-.72,1.09,0,1.36-.91,1.54-1,2.8a3,3,0,0,0-1,1.9,4.54,4.54,0,0,0-1.18,1.09,19.69,19.69,0,0,0-3.17,3,2.09,2.09,0,0,0-1.63,1.18,3,3,0,0,0-1.63.63c-.45.18-.09-.45-.54-.27-.45,0-.18.45-.45.54s-.54.09-.72.18c-.45.18-.81.36-1.27.54-.27.09-.18.18-.72.27s-.72.27-1.27.45a3.94,3.94,0,0,1-.45-.09,1.33,1.33,0,0,1-.18.36c-.18,0-.54-.18-.81-.18a11.4,11.4,0,0,0-2.53.09,15.3,15.3,0,0,1-3.17.36c-.54-.09-.54-.27-.81-.18s-.9-.36-1.27-.45a1.85,1.85,0,0,0-.45.09,10.81,10.81,0,0,1-2.17-.27c-.18-.09-.36-.27-.54-.36-.54-.09-1.09-.09-1.63-.18a14.41,14.41,0,0,1-1.9-.45c-.27-.09-.72-.09-1-.18s-.45-.36-.72-.45c-.54-.18-1.27-.18-1.63-.72-.45-.18-.36.18-.81.09-.63-.54-2.08-.36-2.35-1.18-1,.36-2-.54-2.62-1.09-.9,1.54.72,4.07-.27,6,.27.81.81,1.54.27,2.35-.09.54.45.45.54.81v1.9c.09.63-.72.27-.81.72.09.63.36.18.63.45a26.11,26.11,0,0,0,.36,4.52,2.15,2.15,0,0,0,.27,1.09c.27.81,1,1.18,1.09,1.9a3.75,3.75,0,0,1-.18,1.45,1.67,1.67,0,0,1-2.35.36c-2.44.36-4.43,1.18-6.88,1.45a3.41,3.41,0,0,1-2.17.91c-.27,0-.09.27-.18.36-.09.27-.45.36-.63.63s-.18,0-.72.27c-.09,0-.09.27-.27.27a5.58,5.58,0,0,1-1.72-.63,2.13,2.13,0,0,0-.18-.72,1.91,1.91,0,0,1-.27-.63c0-.27.09-1.27.18-1.9a3.41,3.41,0,0,1,.36-1.45,2.26,2.26,0,0,1-.27-1.18,28.11,28.11,0,0,1,.54-4.43v-2.26c.18-1.45.54-2.8.72-4.16,0-.18-.18-.18-.18-.36a2.68,2.68,0,0,0,.18-.81c0-.63.09-1.36.09-2.35,0-.27-.18-.27-.18-.54,0-.09.18-.27.18-.45,0-.45-.27-.91-.27-1.36,0-.18.09-1.09.18-1.63a7.13,7.13,0,0,1,.45-1.27,18.4,18.4,0,0,1-.18-3.8V592.1a15.3,15.3,0,0,0,.36-2c0-.54-.27-1.09-.27-1.63s.18-1,.18-1.45c0-.18-.09-.72-.09-1a31.4,31.4,0,0,0,.45-3.53,6.39,6.39,0,0,0,.09-1.27c-.09-1.45-.09-2.62-.09-4.25,0-.27.18-.54.18-.72,0-.45-.27-.81-.27-1.18s.18-.54.18-.9-.18-.72-.09-1a7.93,7.93,0,0,1,.18-1.45c0-.72-.36-1.36.18-2.08-.18-.36-.09-.63-.18-1a3,3,0,0,0,0-.91,4.08,4.08,0,0,0-.27-1c0-.45.09-.81.09-1.18-.09-.63-.36-1.36-.45-2.08-.09-2.17.18-4.43,0-6.42a1.81,1.81,0,0,1,.18-.54,10.22,10.22,0,0,0-.27-1.63,34.9,34.9,0,0,0-.72-4.43,1.57,1.57,0,0,1,2.35-.63c.18.09.18.54.54.63a14.77,14.77,0,0,0,3.8-.72,3.1,3.1,0,0,0,.9-.09c.09,0,.27-.27.27-.27.18-.09.45,0,.63,0a3.19,3.19,0,0,1,1-.27,2.87,2.87,0,0,1,1.9,1.18c-.18.72-.09,1.36-.27,2.08a4.09,4.09,0,0,1-.27,1c-.09.45.09,1.09,0,1.45a6.87,6.87,0,0,0-.54,1.63c.63-.18,1-.72,1.63-.81.72-1,2.08-1.36,3-2.17.54-.09.72-.18,1,.18.54-.36.54-.81,1.09-1.18a15,15,0,0,0,1.45-.54,3.74,3.74,0,0,0,1.36-.63c.54.18,1.09-.27,1.63-.45a8.59,8.59,0,0,1,1.63-.36,11.15,11.15,0,0,1,1.72-.27,15.15,15.15,0,0,1,3.35-.54c.63,0,1.27.27,2.08.36,1.36.18,2.71.18,3.62,1,.45.09.45-.27.9-.18a5.41,5.41,0,0,1,.72.36c.27.09.45.18.72.27s.18.36.27.45.27,0,.45.18.45.45.63.54c.36.18.81.18,1.18.36a11,11,0,0,0,3.08,1.09,6.59,6.59,0,0,0,1.18.9c.27.18.63.45,1.09.72.27.18.63.27.63.63.45-.09.45.09.81.09,0,.45.63.27.72.63s.18.27.54.63a2,2,0,0,1,.45.27c.09.09.09.27.18.45.63.72.72,1.18,1.36,1.63.36.18.72.91,1,1.36l.72.72a8.09,8.09,0,0,1,1.45,1.9c.09.27.18.45.27.72s.36.36.45.63a1.89,1.89,0,0,0,.36,1,8.78,8.78,0,0,1,.63.81s.27.18.27.27-.09.36,0,.45.36.27.36.45-.09.54,0,.81a3.28,3.28,0,0,1,.27.63,10.13,10.13,0,0,1,.45,1.18c.09.63-.36,1.36.27,1.9a10.32,10.32,0,0,0,.18,2.35C1508,576.9,1507.83,578.35,1507.83,579.8Zm-11.67-7.15a7.59,7.59,0,0,1-.63-2.35,2.89,2.89,0,0,1-.9-1.72,6.79,6.79,0,0,1-1.36-1.81,8.72,8.72,0,0,1-1.27-1.9,7.44,7.44,0,0,1-2.17-1.81,11.91,11.91,0,0,1-1-.91c-.18-.18-.63-.18-.9-.36s-.45-.27-.72-.45c-.09,0-.18-.27-.27-.27-.54-.27-1.09,0-1.27-.45-1.45.18-3.17-.18-4.52.18a9.39,9.39,0,0,1-1-.63c-.36-.18-.54-.63-1.09-.54-.36,0-.45.18-.72.27-.72.27-.72.18-1.18.54a2.86,2.86,0,0,0-.54.36c-.09.09-.09.27-.18.36s-.36,0-.45.09a2.41,2.41,0,0,1-.54.45c-.45.09-.45-.27-.81-.18-.18,1.18-1.54,1-2.08,1.9-.45-.18-.54.27-1,.27a3.31,3.31,0,0,1-1.18,1.08c-.36.27-.63.72-1.09.54a1.8,1.8,0,0,1-1.18,1.36c0,.63-.63.72-.63,1.45-.27,0-.63.54-.72.63-.27.45-.36.81-.63,1.36-.36.91-1.27,1.81-1.09,2.71a1.13,1.13,0,0,1-.72.54c.45.9.18,1.9.27,3,0,.45.27.91.27,1.27s-.18.72-.18,1.08c0,.81.36,1.72.36,2.62,0,.45-.27.91-.18,1.45a7.17,7.17,0,0,1,1.09,2.53,4.1,4.1,0,0,1,1.54,2.44,9.25,9.25,0,0,1,1.63,1.63,14.69,14.69,0,0,1,3.62,1l.54.27c.18.09.27.36.45.45s.54.09.72.18c1.09.36,2.26.09,3.53.36.27.09.54.36.81.45a5.54,5.54,0,0,1,.63.18c.18.09.09.27.36.27a12.78,12.78,0,0,1,1.81-.36c.18,0,.45.18.72.18s.36-.27.54-.27c.36-.09.81.09,1.09,0s.36-.27.54-.27a9.34,9.34,0,0,0,1.45-.45,9.75,9.75,0,0,0,3.44-1.36c1-.09,1.27-.9,2.35-.81-.09-.63.45-.63.63-1,.45-.09.54-.63,1-.72.27-.81.9-1.18,1.18-1.9.36,0,.36-.36.63-.36-.27-.72.45-1.18.63-1.81a16.25,16.25,0,0,0,.18-2.17,18.47,18.47,0,0,0,.45-2.17,24.08,24.08,0,0,0,.18-5A9.37,9.37,0,0,0,1496.15,572.65Z"/><path class="cls-13" d="M1528,599.25a5.5,5.5,0,0,1-1.09,1.9c-1,.18-2,0-3.26.09a14.11,14.11,0,0,0-1.9.09,11.5,11.5,0,0,1-1.72.09c-.45-.09-.72-.45-1.18-.45a5,5,0,0,1-.81-.63c0-.9-.45-1.36-.45-2.35-.36-.45-.9-.72-1.27-1.27a6.32,6.32,0,0,1-.18-2.8c0-.27.18-.45.27-.72a3.5,3.5,0,0,0,0-1c.09-.27.63-.36.36-.63.54-.18.81-.72,1.18-1.09a4.84,4.84,0,0,0,2.35-1.18c.09,0,.27-.27.27-.27.18,0,.36.09.45,0s.27-.36.45-.45a10.37,10.37,0,0,1,1.9-.18,4.75,4.75,0,0,1,1.63.18c.45.18.72.72,1.09,1,.18.09.36.09.45.18a3.19,3.19,0,0,1,.91.72,3.37,3.37,0,0,1-.09,1.9,5.58,5.58,0,0,1,.72,2.08,22,22,0,0,1,.54,2.35A7.48,7.48,0,0,1,1528,599.25Zm1.18-59.81c-.09,1,0,2.08-.09,2.8-.09.45-.09,2.35-.09,3.44,0,.27.18.54.18.72-.09,1.27-.54,2.17-.36,3.35,0,.36.09.81.09,1.54,0,.18-.18.45-.18.72s.27.72.27,1.18a9.33,9.33,0,0,1-.36,1.27c0,.54.18,1.08.18,1.45-.09.81-.54,1.27-.54,2.35a3.25,3.25,0,0,1,0,1.63c-.09.36-.27.81-.36,1.27a34,34,0,0,0,.27,4c0,.91.09,1.81,0,2.9,0,.27-.09.54-.09.91,0,1.45.09,3,0,4.52,0,.81-.36,1.63-.36,2.44,0,.45.27.81.27,1.36a22.48,22.48,0,0,1-.18,3.35,15.4,15.4,0,0,1-.09,2.17,4.37,4.37,0,0,1-1.18,1.54c-.54.18-1-.18-1.63-.18-.45.09-.36.36-1.18.27-.36,0-.72-.27-1.18-.27s-.9,0-1.27-.09-.72-.36-1-.45c-.54-.09-.9,0-1.18-.18a1.27,1.27,0,0,0-.72-.54,9.09,9.09,0,0,0-.36-2.26,4.75,4.75,0,0,0,0-3.17c.09-.36.27-.63.36-1s-.09-.45-.09-.72.09-.54.09-.72-.09-.45-.09-.72.18-.54.18-.81c-.09-.54-.36-1-.45-1.54,0-.36.18-.36.18-.63a3.18,3.18,0,0,0-.09-.54.57.57,0,0,1,.27-.45.42.42,0,0,0-.18-.45,22.77,22.77,0,0,0,.36-2.44c0-.81-.54-1.63-.09-2.35a3.06,3.06,0,0,1-.54-1.36c0-.36.27-.81.36-1.45a15.83,15.83,0,0,1-.27-2.17,2.33,2.33,0,0,1,.45-1.27c-.09-.36-.18-.54-.27-.9a1.84,1.84,0,0,0-.09-.45,3.88,3.88,0,0,0,.09-.45c-.09-2,.18-5.07-.27-7.42a1.43,1.43,0,0,0,0-.63c-.18-.81-.45-2.44-.63-3.62a7.51,7.51,0,0,0,.54-1.9,10.69,10.69,0,0,0-.45-1c-.36-1.36.09-3-.36-4.16a6,6,0,0,0,.36-1c0-.45-.18-.91-.18-1.45a4.54,4.54,0,0,1,.45-1.18,16.8,16.8,0,0,0,3.08-.63,6.87,6.87,0,0,1,1.9-.09h.63c2.17.09,4.34.18,5.7.81a8.55,8.55,0,0,1,.45,3C1529.45,538.26,1529.18,538.81,1529.18,539.44Z"/><path class="cls-13" d="M1349.13,647.84a22.85,22.85,0,0,1-1.09,2.62,22,22,0,0,1-.9,4.07c-.09.18-.09.54-.18.72s-.27.36-.27.54c-.27,1.09-.09,1.9-.36,2.8a2,2,0,0,1-.36.45,1.93,1.93,0,0,1,0,.72c-.09.36-.18.72-.27,1.18s-.09.91-.18,1.27-.27.18-.36.45.09.36,0,.54a2,2,0,0,1-.27.45c-.09.18,0,.45,0,.63l-.36.36c0,.18.09.45,0,.63a5,5,0,0,0-.45.72c-.09.27-.09.63-.18,1a44.23,44.23,0,0,1-.9,4.52,2.35,2.35,0,0,1-.18.45c-.09.09-.18.45-.36.72s-.36,1.72-.63,2.44a9.43,9.43,0,0,1-.45,1.9c-.09.18-.09.45-.18.72s-.27.18-.27.36a18.22,18.22,0,0,1-.45,2.53,1.89,1.89,0,0,0-.36.54c-.09.27.09.63,0,.91s-.27.36-.27.54a19,19,0,0,1-.54,2.17c-.09.27-.27.45-.27.63a5.9,5.9,0,0,0,0,1.27,15.07,15.07,0,0,1-.54,1.9,16.7,16.7,0,0,1-.36,2.08,17.17,17.17,0,0,1-.9,2.53,3.74,3.74,0,0,0-.27.72,4.37,4.37,0,0,0,0,1.09c-.09.18-.27.36-.36.54a42.51,42.51,0,0,1-1.09,4.61c.18.45.18,1.09.36,1.54a6.72,6.72,0,0,1-.63,1.09,7.21,7.21,0,0,1-.27,1.36,6.54,6.54,0,0,0-1.09,2.26c-.18.45-.63.54-.72,1a7.12,7.12,0,0,0-.18,1.81c.09.27-.27.27-.36.45-.36.45-.27,1.09-1.18,1.36-1.54.63-2.71-2-3.44-3-1-.81-1.45-2-2.26-3.08a12.62,12.62,0,0,1-1.09-1.63,4.53,4.53,0,0,1-.72-1.09,16.3,16.3,0,0,1-1.54-2.8,16.69,16.69,0,0,1-3-4.71,2.38,2.38,0,0,0-.27-.72c-.09-.18-.36-.27-.45-.45a19.17,19.17,0,0,0-1-1.9c-.09-.18-.09-.45-.27-.63a4.35,4.35,0,0,0-.81-1c.09-.72-.45-1-.72-1.36.09-.45-.27-.54,0-.91a15.41,15.41,0,0,1-1-1.27,5.5,5.5,0,0,0-.27-1.18c-.18-.54-.45-1.09-.63-1.63-.09-.18-.09-.36-.18-.45a6.1,6.1,0,0,1-.54-1.09c-.09-.18.09-.54,0-.81-.36-.27-.18-.45-.27-.63a17.28,17.28,0,0,0-.81-2.62c0-.09.09-.36,0-.45s-.45-.36-.54-.72,0-.72-.09-1-.36-.54-.45-.81.09-.36,0-.54a4,4,0,0,1-.54-1.09c-.36-1.09-.63-2.26-1.09-3.35.09-.9.18-1.36-.27-1.9-.72.27-.72,1.18-.9,1.9a16.83,16.83,0,0,1-.63,2c-.36,1-.9,1.81-1.36,2.8a3.67,3.67,0,0,0-.45.81c-.18.54-.18,1.27-.36,1.72-.27.63-.81,1.27-1.09,1.9-.54.91-.9,1.81-1.45,2.71a20.1,20.1,0,0,0-1.72,2.44c-.27.72-.36,1.54-.63,2.26-.18.45-.36,1.18-.63,1.72-.54,1.45-.91,2.62-2,3.44-.09.27,0,.54-.09.9-.09,0-.27.18-.36.27s.09.36,0,.54-.36.36-.45.45a12.56,12.56,0,0,1-.54,1.18c-.09,0-.27.09-.36.09-.18.36.09.63-.27,1-.18.18-.36.27-.45.45a14.67,14.67,0,0,1-.9,1.63c-.09.09-.18.27-.36.36a3.79,3.79,0,0,1-.54.72c-.18.18-.27.81-.45,1.18-.27.54-.54.81-.81,1.36,0,.09-.09.27-.09.36a5.29,5.29,0,0,0-.81,2.62c-.27.27-.36.72-.72.9-.18.54.27.54.27,1-.81.63-.54,2-1,3.08,0,.09-.27.18-.45.36-.18.36-.09.63-.45.91a1.17,1.17,0,0,1-1.72,0c-.09-.18-.09-.36-.18-.45s-.36-.09-.36-.18a4.17,4.17,0,0,1-.45-.9c-.09-.27-.36-.63-.45-.91-.18-.45-.09-1.09-.27-1.54-.18-.63-.45-1.18-.63-1.81-.09-.18.09-.45,0-.54s-.27-.18-.27-.36a3.85,3.85,0,0,1-.18-1,5.44,5.44,0,0,0-.54-1c0-.45,0-.91.18-1.09-.09-.27-.27-.27-.45-.72.18-.27,0-.45-.09-.72s0-.63-.09-1c-.09-.09-.27-.18-.36-.36s.18-.36-.09-.36c0-.54-.09-1.09.18-1.36-.09-.36-.45-.72-.54-1.18s.09-1.09-.45-1.36c.18-1-.63-1.9-.91-2.9a14.52,14.52,0,0,1-.27-2.08c-.09-.27-.18-.63-.27-1a4.05,4.05,0,0,1-.09-1c-.18-.63-.72-1.27-.54-1.81,0-.09-.81-1-.27-1.36a5.18,5.18,0,0,1-.91-1.72c-.09-.36.09-.72-.09-1.18-.09-.27-.36-.45-.45-.72-.09-.72-.09-1.72-.18-2.8-.09-.45-.18-.81-.27-1.27s0-1.09-.09-1.54l-.27-.54a5.71,5.71,0,0,1-.18-.63,4.48,4.48,0,0,1-.36-1.18c-.18-.54,0-1.08-.18-1.54,0-.27-.27-.45-.27-.63a7.92,7.92,0,0,0-.54-2.53,2.25,2.25,0,0,0-.09-.72c-.09-.18-.27-.27-.27-.45s.09-.45,0-.72c0-.09-.27-.18-.27-.36a1.43,1.43,0,0,0,0-.63c0-.18-.09-.36-.09-.54-.27-.81-.45-1.36-.72-2.26a5.28,5.28,0,0,0-.36-1.63c-.18-.27-.63-.63-.72-1a8.12,8.12,0,0,1-.27-1.45,1.8,1.8,0,0,0-.54-1.18,5.63,5.63,0,0,0-1.09-3.08,7.31,7.31,0,0,0-1-2.44c-.09-.18,0-.45-.09-.72-.09-.09-.36-.27-.45-.45a3.5,3.5,0,0,1-.54-1,4.48,4.48,0,0,1-.27-1.18c-.09-.27-.36-.63-.45-.91a7.09,7.09,0,0,0-.27-1.18,2.86,2.86,0,0,1-.36-1.9,4.48,4.48,0,0,1-.72-1.63,2.72,2.72,0,0,1-.27-.81c0-.36.18-.63,0-.91a17.86,17.86,0,0,1,3.08-.36c.36,0,.63.27.91.27h.54c.45,0,.72-.36,1.36-.36.27,0,.54.18.9.18,2-.09,4.71-.36,6.7-.63a3.92,3.92,0,0,1,1.9,1.36c.36.81,0,2.26.36,3.35.18.72.36,1.81.63,2.71a10.17,10.17,0,0,1,.54,1.9c0,.09.18.18.09.45s-.18.18,0,.72c.09.09.27.18.27.27.09.36-.09.72,0,1,.18.81.72,1.36.81,2.08s0,1.27.18,1.9c.18,1.36,1.09,2.71.63,4.25-.09.27.18.27.27.45.18.36.18,1.09.36,1.63.09.36.36.63.45,1s0,.81.09,1.18c.18.63.45,1.36.72,2.08a5.54,5.54,0,0,0,.27,1c.09.27.36.63.36.91.09.45,0,1.09.09,1.63.09.36.54.72.18,1.18a5.25,5.25,0,0,1,.9,2.17,2.31,2.31,0,0,0,.18.45,16.58,16.58,0,0,1,.54,2.08c.09.45.45,1,.54,1.45a5.28,5.28,0,0,0,.27,1.72c0,.09.27.27.27.36s-.09.27,0,.45a5.77,5.77,0,0,0,.72,1.27c.36-.09.27-.54.45-.81a4.21,4.21,0,0,1,.45-.9c.09-.27.18-.72.27-1s.09-.72.18-1,.36-.27.45-.45.09-.45.18-.63c.27-.63.45-1.54.72-2.44a14.8,14.8,0,0,1,.81-1.72,12.69,12.69,0,0,0,.9-1.45c.36-.63.54-1.45,1.18-1.9a5.7,5.7,0,0,1,.81-2.17s.27-.18.27-.27c.18-.36.27-.9.81-1a4,4,0,0,1,.54-1.45c.45-.9.91-1.72,1.45-2.71,0-.09,0-.36.09-.45a5.52,5.52,0,0,0,.81-1.18,1.49,1.49,0,0,1,.45-.54c0-.09-.09-.27,0-.45.18-.45.36-.81.54-1.27s.27-1.09.54-1.63a13.5,13.5,0,0,0,.72-1.18c.18-.45.18-1,.36-1.54s.36-.9.45-1.36a10.1,10.1,0,0,1,.18-1.54c.09-.45.36-.91.45-1.36.27-1,.36-2,.63-3a4.94,4.94,0,0,1,1.09-2.53,3,3,0,0,1,2.35.27c.36.36.36,1.18,1,1.27-.18.45.09.91.27,1.36a6.8,6.8,0,0,0,.54,1.18c0,.09.27.27.27.27.18.72.27,1.72,1,2.08.09.54.27,1,.36,1.45.09.27.09.54.18.72s.36.27.36.45c.18.27,0,.54.18.72.45.45.45,1.45,1,1.63a7.81,7.81,0,0,0,.27,1.54c-.09.45.45.54.63.81s.09.63.18.81a22.91,22.91,0,0,1,1.09,2.8,3.44,3.44,0,0,1,.45,1.54c.72,1,.72,2.71,1.45,3.71.18.63,0,.91.18,1.36a8.38,8.38,0,0,0,.72,1.18c.18.45.18,1,.36,1.45s.36.63.54,1a6.51,6.51,0,0,0,.81,1.81,3.05,3.05,0,0,1,.27.72c.36.9,1,2,1.45,3,.18.36.27,1.09.54,1.63s.72,1.27,1.09,1.9c.09.09.36.18.45.45s.18,1.27.9,1-.09-.72,0-1.27c.45-.63.18-1.45.36-2.17a14,14,0,0,1,.63-2.08c.18-.72.27-1.45.45-2.17s.18-1.54.36-2.35c.09-.63.36-1.18.45-1.9s0-1.45.09-2.17a8,8,0,0,1,.27-1.27c.09-.45.09-1,.18-1.36.18-.54.63-1,.81-1.54s.09-1.45.18-2.08a5.49,5.49,0,0,0,0-1.72c.63-.63.54-1.63.9-2.44.09-.18.27-.09.36-.27s-.09-.36,0-.45c.27-.81.45-1.45.72-2.44a5.43,5.43,0,0,1,.36-.72,26.05,26.05,0,0,1,.36-2.62c0-.27.36-.54.45-.72s-.09-.45,0-.63.27-.27.27-.27c.09-.36-.09-.81,0-1.18a6.54,6.54,0,0,1,.45-.81c.18-.36.36-.63.63-.72,0-.54-.36-.72-.27-1.36.45,0,.18-.36.45-.54.63-.54,2.08-.36,3.35-.36.81-.09,1.36-.27,1.9.18,1-.45,2.35-.18,3.71-.27.81,0,1.45.27,2.17.27,1-.09,1.9-.54,2.71,0,.27.45.18,1.09.63,1.36A12,12,0,0,1,1349.13,647.84Z"/><path class="cls-13" d="M1399.79,686.29a22.21,22.21,0,0,1-.09,5.52,9.36,9.36,0,0,1-.36.91,5.09,5.09,0,0,1,0,1.18,2.88,2.88,0,0,0-.27.81c-.18,1,0,2.08-.09,3.08s-.36,2-.36,2.9c0,.54.09,1.08.09,1.63.09,1.45-.45,3-.27,4.25.18.81,1.09,1.72.9,2.62s-1.63,1.54-2.9,1.54a5.88,5.88,0,0,1-1-.18c-.27,0-.45.18-.72.18a32.59,32.59,0,0,1-6.24-1.45,7.17,7.17,0,0,0-1.27-1.54c.09-1.09-.27-1.9.09-3.35,0-.18.27-.27.27-.54a3.3,3.3,0,0,0,0-1.36,3.32,3.32,0,0,1,.81-1.81c-.72-.81.18-1.81.18-2.62a9.69,9.69,0,0,1,.09-2.26,1.73,1.73,0,0,0,.27-.72c0-.09-.09-.36-.09-.54a3.21,3.21,0,0,1,.18-.91,13.51,13.51,0,0,1,.18-1.9c0-.36.27-.72.27-1.09s-.09-.63-.09-.91c0-.63.45-1.45,0-2.08.36-.36.27-1.18.45-1.72a4.43,4.43,0,0,0,.36-1.72c0-.27-.09-.63-.09-.9a36.59,36.59,0,0,0,.09-5.52,7.21,7.21,0,0,0-.27-1.36,3.19,3.19,0,0,0-.09-.54c0-.27.18-.36.09-.63s-.18-.9-.18-1.27-.09-1.09-.18-1.36c-.09-.54-.54-1-.63-1.45a14.72,14.72,0,0,1-.27-1.81,9.5,9.5,0,0,0-1-.72,6.31,6.31,0,0,1-.9-.72c-.81-.72-1.36-1.63-3.17-1.36a4.85,4.85,0,0,0-.9.27c-1,.09-2.35.09-3.62.18a19,19,0,0,0-2.53.36c-.27.09-.54.09-.72.18-.81.27-1.18.91-1.72,1.36-.36.27-.63.54-.9.72s-.54.63-.9.72c-.27.45-.27,1.18-.9,1.18a12.38,12.38,0,0,1-1.36,3.17c-.18.27-.18.54-.36.81-.18.54-.45,1-.72,1.63a15.12,15.12,0,0,0-.63,2.71c-.09.27-.27.63-.36.9-.09.81.09,1.63-.45,2.17a27,27,0,0,1-.09,4.71c-.18.91-.45,1.9-.54,2.71a14.88,14.88,0,0,0-.18,4,8.26,8.26,0,0,1-.54,3.8c.27.36.18,1.09.36,1.54.18.72-.54.54-.45,1.18.27.18,0,.81.45.9.36.54.18,1.27.36,2.17.09.27.27.45.27.63a3.67,3.67,0,0,1,0,1.72c.27.72,1.09,1.27,1.09,2.08,0,.36-.45.81-.45,1.27a5.79,5.79,0,0,1-1.09.63c-.45,0-.81-.27-1.45-.36a7,7,0,0,0-1.45-.18c-1.18,0-2.44.27-3.62.36a10,10,0,0,0-2.81.09c-.36-.36-.45-.9-1-1.18.18-2.17-.09-4,.54-5.43.09-.27-.18-.36-.27-.54-.18-.54.27-1.27.18-2.17a3.9,3.9,0,0,1,.09-.45,1.28,1.28,0,0,0-.36-.18c0-.27.09-.63.09-.9a6.36,6.36,0,0,1-.27-1.27c-.18-2,0-4.43,0-7.33v-.45c.09-.63-.27-1.09-.27-1.72,0-.27.18-.63.18-.91s-.27-.72-.27-1.18c0-.81.18-1.63.18-2.44a7.64,7.64,0,0,1,.09-1.18c.09-1.09.18-2.44.18-3.62a17.38,17.38,0,0,1,.09-3c.09-1.36.36-4.43.54-5.61a27.46,27.46,0,0,0,.09-4v-1.27c.09-1.09-.09-2.08-.09-3.08,0-.36.18-.81.18-1.18a18.15,18.15,0,0,0-.36-2.17,6.82,6.82,0,0,0,0-1.36,3.22,3.22,0,0,0-.27-1c-.09-1.54.27-3.17-.45-4.52.18-2.08,0-4.16.18-6.33.09-1.63.18-3.44.18-5.34,1.09-.91,2.71-.72,4.25-.81a21.8,21.8,0,0,1,2.26-.27c.27,0,.36.18.54.18a8,8,0,0,1,2.08-.09c.72-.18.36.63,1,.63.45-.09.45.45.72.54-.36.81,0,1.81-.18,2.8-.09.18-.36.36-.36.54s.18.27.18.45c-.18,1.18-.54,3.8-.63,5.52s-.09,3.71-.09,4.71a37.47,37.47,0,0,0-.09,5.52c.09.63.36,1,.09,1.63-.09.36-.45,1.09-.27,1.63.63.18.91-.81,1.45-1.36a3.2,3.2,0,0,0,.63-.27c.27-.18.63-.81,1-1.09.18-.18.36-.18.63-.27s.36-.54.72-.72a10.12,10.12,0,0,0,1.45-.9c.27-.18.45-.54.72-.72s.45,0,.63-.09.27-.18.45-.27c1-.36,2-.63,3.26-1l.36-.27a12.57,12.57,0,0,0,1.81-.27c.72-.09,1.63-.27,2.35-.36s1.72.18,2.62.18c1.27.09,2.81.09,4.07.27.27.09.63.27,1,.36a3,3,0,0,1,1.36.45,8.8,8.8,0,0,1,2,2.08c.09.09,0,.27.09.45s.36,0,.45.09.09.36.09.45.27.18.36.36c.27.36.27,1.09,1,1.18a6.9,6.9,0,0,0,1,1.45,10.68,10.68,0,0,1,.63,1.81,9.85,9.85,0,0,1,.72,1.72c.09.36,0,.81.09,1.18,0,.09.27.18.27.27s.09.36.18.45c.18.54.45,1.18.63,1.81.09.18,0,.45,0,.72,0,.09.27.27.27.27.09.27.09.72.18,1a31.57,31.57,0,0,1,.9,4c.18,1.36-.18,2.8-.09,4.25a8.58,8.58,0,0,1,.36,1.63c-.18.72.18,2.9.09,3.53Z"/><path class="cls-13" d="M1459.6,684c-.09.54.36,1.45-.09,1.9.72.63.27,1.45.09,2.44-.09.54.09,1.18,0,1.54s-.36.54-.45.81-.18.72-.45.72a4.07,4.07,0,0,1-.36,2.08c-.09.18-.09.45-.18.72s-.27.36-.27.54.09.63,0,.9-.36.54-.45.81c-.36.91-.72,1.81-1.09,2.81a13.09,13.09,0,0,1-1.72,3.17,5.12,5.12,0,0,1,0,1.18,7.17,7.17,0,0,0-1.54,1.72,5.33,5.33,0,0,1-.9,1.45c-.45.54-1.09.81-1.63,1.36-.63,0-.54.18-1,0a6.39,6.39,0,0,1-3.08,1.72,2,2,0,0,0-.45.27c-.27,0-.54-.09-.72,0a8.93,8.93,0,0,1-2.35.63c-.27,0-.63-.18-.9-.18-.45.09-.81.36-1.36.45-.9.18-2,.09-3.08.18-.18,0-.27.18-.36.18s-.18-.18-.36-.18-.36.27-.54.27h-.63c-.27,0-.63-.09-.81,0a6.53,6.53,0,0,1-2.53.36c-.27-.09-.18.27-.45.27-1.45.09-3.71.36-4.89-.54a1.77,1.77,0,0,1-1.18.09c-.27,0-.36-.18-.63-.27h-.54a9.27,9.27,0,0,1-3.53-1.36,2.49,2.49,0,0,0-.81-.09c-.81-.45-1.27-1.09-2.44-1.18,0-.45-.36-.45-.27-.91-.45.27-.63-.27-.9-.45s-.63-.27-.9-.45a4.18,4.18,0,0,0-.63-.63c-.27-.18-.72-.27-.9-.45a4,4,0,0,1-.72-.91c-.18-.18-.72-.36-.54-.81-.45-.36-.81-.72-1.27-1.09-.09-.45-.36-.63-.27-1.18-.27-.27-.45-.27-.72-.63-.09-.09-.09-.27-.18-.36-.36-.09-.18-.27-.27-.36-.18-.27-.45-.63-.72-1A16.51,16.51,0,0,1,1409,698c-.09-.27,0-.36-.09-.63a2.07,2.07,0,0,1-.27-1.54c-.18-.36-.63-.54-.72-.9-.18-.91-.09-1.72-.27-2.53-.09-.54-.63-1-.36-1.63-.36-.36-.45-1-.81-1.27.18-.72-.27-1.45-.27-2.35a8,8,0,0,1,.18-1.36v-1.54a9.57,9.57,0,0,1,.54-1.9c.09-.63,0-1.27.45-1.45-.45-1.54.54-2.71.54-4.25.27-.18.27-.81.54-1,0-1.27.63-1.9.81-2.9.63-.27.81-.91,1.18-1.45.18-.18.36-.18.45-.27.27-.18.27-1,.9-.9.18-.45,0-.27,0-.81.72-.27,1-1,1.72-1.45.18-.09.54-.18.72-.27s.36-.27.54-.45a6.92,6.92,0,0,0,.81-.81,9,9,0,0,1,1.54-1,6.92,6.92,0,0,1,1.54-1.18c.18-.09.45-.45.72-.54a2,2,0,0,1,.72-.09c.36-.18,1.09-.81,1.63-.45a5.31,5.31,0,0,1,3.8-1.09c.45.09.45-.36.72-.36a17.47,17.47,0,0,1,3.26-.27c.45,0,.91.18,1.27.18a8.7,8.7,0,0,0,1.63-.27c.36,0,.63-.09.91-.09a5.8,5.8,0,0,1,2.17,0c.27.09.63.36.9.36s.72-.18,1-.18.72.27,1,.36a3.47,3.47,0,0,0,.9.27c.36.09.81,0,1.18.09a4.45,4.45,0,0,1,1.45.45c.45.09,1,.36,1.45.45,1.63.27,3-.09,4.52.54.27.09.63.45,1,.63.09,0,.36-.09.45,0s.36.45.54.54c.27.27.72.18.54.63a11.8,11.8,0,0,1,3.53,2.26,2.84,2.84,0,0,0,.54,1.45c.45.45.81.9,1.27,1.36.18.18.09.54.27,1a14.75,14.75,0,0,0,1.09,2c0,.91.09.72.45,1.45s.54,1.72,1.36,2.08c-.09.63.45,1.27.54,1.9a22.91,22.91,0,0,1,.09,2.44c0,.27-.18.54-.09.72,0,.45.18.9.18,1.36C1459.78,683.58,1459.6,683.76,1459.6,684Zm-10.5-2.08a4.35,4.35,0,0,0,0-1.09c-.18-1.18-.81-2.17-1.09-3.53a10.74,10.74,0,0,0-.18-2.35c-.45-.18-.36-.72-.63-1-.27-.45-.9-.63-1-1.18a10.37,10.37,0,0,1-1.72-.9,8.38,8.38,0,0,1-1.72-.18c-.54-.18-.81-.54-1.27-.63-.9-.09-1,.45-2,.27-.63-.27-.81-1-1.36-1.36a2.61,2.61,0,0,0-1.18-.09c-.36-.09-.36-.54-.9-.45-1,.27-2.26.91-3.62.36a2.64,2.64,0,0,0-1.09.63c0-.36-.72-.09-1-.18-1,.63-2.44,1.18-3.35,1.63-.27.09-.45,0-.63.18-.36.18-.63.72-.91,1a10.3,10.3,0,0,1-1,1,3.33,3.33,0,0,1-.63.27c-1.09.54-1.63,1.63-2.62,2.08-.09.9-.9,1.36-1.27,2.17-.27.63-.36,1.63-.63,2.17a6.2,6.2,0,0,1-.27.72c-.45,1.36,0,2.81-.72,4,.36.18.18.72.27,1.18.18.63.54,1.18.27,1.9-.09.18-.36.09-.27.45.27.09.27.45.36.72a2,2,0,0,1,.45.72c.09.09-.09.27,0,.45.09.36.63.72.36,1.27.54.18.45.9.9,1.09-.27.63.63,1.27.36,2.35a2,2,0,0,1,.45.27c.09.18,0,.36.09.63.27.27.63.54.63,1,.63.18,1,.9,1.54,1.36.27.27.54.36.81.63.54.36.81.72,1.18,1,.09.09.18.27.27.27.36.18.81.18,1.18.36s.63.54.9.63c.91.36,2.08.18,2.9,1.09,1,0,1.54.45,2.71.36.45,0,.63.45,1.18.45a7.21,7.21,0,0,1,1.18-.27,9,9,0,0,1,1.63.18,7.51,7.51,0,0,0,1.9-.81,2.48,2.48,0,0,1,1.63-.72c.09-.54.63-.81,1-1.18a5,5,0,0,0,1.36-1.45,11.43,11.43,0,0,1,.9-1.08,25.07,25.07,0,0,0,2-3.35,9.05,9.05,0,0,0,.9-1.9c.09-.18,0-.45,0-.72.09-.45.45-.63.18-.81a5.38,5.38,0,0,0,.36-2.17c.63-.63.45-1.45.63-2.53.09-.54.45-1,.45-1.45a19.77,19.77,0,0,0,.18-3.08C1449.28,682.13,1449.1,682.13,1449.1,681.95Zm69.31-3.35c-.09.54.36,1.45-.09,1.9.72.63.27,1.45.09,2.44-.09.54.09,1.18,0,1.54s-.36.54-.45.81-.18.72-.45.72a4.07,4.07,0,0,1-.36,2.08c-.09.18-.09.45-.18.72s-.27.36-.27.54.09.63,0,.9-.36.54-.45.81c-.36.91-.72,1.81-1.09,2.8a13.07,13.07,0,0,1-1.72,3.17,5.13,5.13,0,0,1,0,1.18,7.16,7.16,0,0,0-1.54,1.72,5.32,5.32,0,0,1-.9,1.45c-.45.54-1.09.81-1.63,1.36-.63,0-.54.18-1,0a6.38,6.38,0,0,1-3.08,1.72,2,2,0,0,0-.45.27c-.27,0-.54-.09-.72,0a9,9,0,0,1-2.35.63c-.27,0-.63-.18-.9-.18-.45.09-.81.36-1.36.45-.9.18-2,.09-3.08.18-.18,0-.27.18-.36.18s-.18-.18-.36-.18-.36.27-.54.27h-.63c-.27,0-.63-.09-.81,0a6.53,6.53,0,0,1-2.53.36c-.27-.09-.18.27-.45.27-1.45.09-3.71.36-4.89-.54a1.76,1.76,0,0,1-1.18.09c-.27,0-.36-.18-.63-.27h-.54a9.26,9.26,0,0,1-3.53-1.36,2.52,2.52,0,0,0-.81-.09c-.81-.45-1.27-1.09-2.44-1.18,0-.45-.36-.45-.27-.9-.45.27-.63-.27-.9-.45s-.63-.27-.9-.45a4.18,4.18,0,0,0-.63-.63c-.27-.18-.72-.27-.9-.45a4,4,0,0,1-.72-.9c-.18-.18-.72-.36-.54-.81-.45-.36-.81-.72-1.27-1.09-.09-.45-.36-.63-.27-1.18-.27-.27-.45-.27-.72-.63-.09-.09-.09-.27-.18-.36-.36-.09-.18-.27-.27-.36-.18-.27-.45-.63-.72-1a16.61,16.61,0,0,1-.54-1.63c-.09-.27,0-.36-.09-.63a2.08,2.08,0,0,1-.27-1.54c-.18-.36-.63-.54-.72-.91-.18-.9-.09-1.72-.27-2.53-.09-.54-.63-1-.36-1.63-.36-.36-.45-1-.81-1.27.18-.72-.27-1.45-.27-2.35a8,8,0,0,1,.18-1.36v-1.54a9.52,9.52,0,0,1,.54-1.9c.09-.63,0-1.27.45-1.45-.45-1.54.54-2.71.54-4.25.27-.18.27-.81.54-1,0-1.27.63-1.9.81-2.9.63-.27.81-.9,1.18-1.45.18-.18.36-.18.45-.27.27-.18.27-1,.9-.91.18-.45,0-.27,0-.81.72-.27,1-1,1.72-1.45.18-.09.54-.18.72-.27s.36-.27.54-.45a6.92,6.92,0,0,0,.81-.81,9,9,0,0,1,1.54-1,6.89,6.89,0,0,1,1.54-1.18c.18-.09.45-.45.72-.54a2,2,0,0,1,.72-.09c.36-.18,1.09-.81,1.63-.45a5.31,5.31,0,0,1,3.8-1.09c.45.09.45-.36.72-.36a17.48,17.48,0,0,1,3.26-.27c.45,0,.9.18,1.27.18a8.71,8.71,0,0,0,1.63-.27c.36,0,.63-.09.9-.09a5.84,5.84,0,0,1,2.17,0c.27.09.63.36.9.36s.72-.18,1-.18.72.27,1,.36a3.43,3.43,0,0,0,.9.27c.36.09.81,0,1.18.09a4.47,4.47,0,0,1,1.45.45c.45.09,1,.36,1.45.45,1.63.27,3-.09,4.52.54.27.09.63.45,1,.63.09,0,.36-.09.45,0s.36.45.54.54c.27.27.72.18.54.63a11.8,11.8,0,0,1,3.53,2.26,2.84,2.84,0,0,0,.54,1.45c.45.45.81.9,1.27,1.36.18.18.09.54.27,1a14.92,14.92,0,0,0,1.09,2c0,.91.09.72.45,1.45s.54,1.72,1.36,2.08c-.09.63.45,1.27.54,1.9a22.92,22.92,0,0,1,.09,2.44c0,.27-.18.54-.09.72,0,.45.18.91.18,1.36C1518.59,678.15,1518.41,678.33,1518.41,678.6Zm-10.5-2.08a4.35,4.35,0,0,0,0-1.09c-.18-1.18-.81-2.17-1.09-3.53a10.71,10.71,0,0,0-.18-2.35c-.45-.18-.36-.72-.63-1-.27-.45-.9-.63-1-1.18a10.3,10.3,0,0,1-1.72-.91,8.31,8.31,0,0,1-1.72-.18c-.54-.18-.81-.54-1.27-.63-.9-.09-1,.45-2,.27-.63-.27-.81-1-1.36-1.36a2.6,2.6,0,0,0-1.18-.09c-.36-.09-.36-.54-.9-.45-1,.27-2.26.9-3.62.36a2.65,2.65,0,0,0-1.09.63c0-.36-.72-.09-1-.18-1,.63-2.44,1.18-3.35,1.63-.27.09-.45,0-.63.18-.36.18-.63.72-.9,1a10.34,10.34,0,0,1-1,1,3.21,3.21,0,0,1-.63.27c-1.09.54-1.63,1.63-2.62,2.08-.09.91-.9,1.36-1.27,2.17-.27.63-.36,1.63-.63,2.17a6.12,6.12,0,0,1-.27.72c-.45,1.36,0,2.8-.72,4,.36.18.18.72.27,1.18.18.63.54,1.18.27,1.9-.09.18-.36.09-.27.45.27.09.27.45.36.72a2,2,0,0,1,.45.72c.09.09-.09.27,0,.45.09.36.63.72.36,1.27.54.18.45.9.9,1.08-.27.63.63,1.27.36,2.35a2,2,0,0,1,.45.27c.09.18,0,.36.09.63.27.27.63.54.63,1,.63.18,1,.91,1.54,1.36.27.27.54.36.81.63.54.36.81.72,1.18,1,.09.09.18.27.27.27.36.18.81.18,1.18.36s.63.54.91.63c.9.36,2.08.18,2.9,1.09,1,0,1.54.45,2.71.36.45,0,.63.45,1.18.45a7.11,7.11,0,0,1,1.18-.27,8.94,8.94,0,0,1,1.63.18,7.44,7.44,0,0,0,1.9-.81,2.48,2.48,0,0,1,1.63-.72c.09-.54.63-.81,1-1.18a5,5,0,0,0,1.36-1.45,11.58,11.58,0,0,1,.9-1.09,25.12,25.12,0,0,0,2-3.35,9.08,9.08,0,0,0,.9-1.9c.09-.18,0-.45,0-.72.09-.45.45-.63.18-.81a5.38,5.38,0,0,0,.36-2.17c.63-.63.45-1.45.63-2.53.09-.54.45-1,.45-1.45a19.75,19.75,0,0,0,.18-3.08C1508.1,676.7,1507.92,676.7,1507.92,676.52Z"/><path class="cls-13" d="M1582,688.37c0,.18-.18.54-.18.81s.18.54.18.81a6.49,6.49,0,0,0-.45,1.27c-.27.91-.27,2-.54,3.17a7,7,0,0,1-.63,1.45c-.09.36,0,.54-.18.9a17.09,17.09,0,0,1-.9,1.9c-.18.45-.18,1-.72,1.09,0,1.36-.91,1.54-1,2.8a3,3,0,0,0-1,1.9,4.54,4.54,0,0,0-1.18,1.09,19.69,19.69,0,0,0-3.17,3,2.09,2.09,0,0,0-1.63,1.18,3,3,0,0,0-1.63.63c-.45.18-.09-.45-.54-.27-.45,0-.18.45-.45.54s-.54.09-.72.18c-.45.18-.81.36-1.27.54-.27.09-.18.18-.72.27s-.72.27-1.27.45a3.94,3.94,0,0,1-.45-.09,1.33,1.33,0,0,1-.18.36c-.18,0-.54-.18-.81-.18a11.4,11.4,0,0,0-2.53.09,15.3,15.3,0,0,1-3.17.36c-.54-.09-.54-.27-.81-.18s-.9-.36-1.27-.45a1.85,1.85,0,0,0-.45.09,10.81,10.81,0,0,1-2.17-.27c-.18-.09-.36-.27-.54-.36-.54-.09-1.09-.09-1.63-.18a14.41,14.41,0,0,1-1.9-.45c-.27-.09-.72-.09-1-.18s-.45-.36-.72-.45c-.54-.18-1.27-.18-1.63-.72-.45-.18-.36.18-.81.09-.63-.54-2.08-.36-2.35-1.18-1,.36-2-.54-2.62-1.09-.9,1.54.72,4.07-.27,6,.27.81.81,1.54.27,2.35-.09.54.45.45.54.81v1.9c.09.63-.72.27-.81.72.09.63.36.18.63.45a26.11,26.11,0,0,0,.36,4.52,2.15,2.15,0,0,0,.27,1.09c.27.81,1,1.18,1.09,1.9a3.75,3.75,0,0,1-.18,1.45,1.67,1.67,0,0,1-2.35.36c-2.44.36-4.43,1.18-6.88,1.45a3.41,3.41,0,0,1-2.17.91c-.27,0-.09.27-.18.36-.09.27-.45.36-.63.63s-.18,0-.72.27c-.09,0-.09.27-.27.27a5.58,5.58,0,0,1-1.72-.63,2.13,2.13,0,0,0-.18-.72,1.91,1.91,0,0,1-.27-.63c0-.27.09-1.27.18-1.9a3.41,3.41,0,0,1,.36-1.45,2.26,2.26,0,0,1-.27-1.18,28.11,28.11,0,0,1,.54-4.43V719.5c.18-1.45.54-2.8.72-4.16,0-.18-.18-.18-.18-.36a2.68,2.68,0,0,0,.18-.81c0-.63.09-1.36.09-2.35,0-.27-.18-.27-.18-.54,0-.09.18-.27.18-.45,0-.45-.27-.9-.27-1.36,0-.18.09-1.09.18-1.63a7.1,7.1,0,0,1,.45-1.27,18.4,18.4,0,0,1-.18-3.8v-2.08a15.3,15.3,0,0,0,.36-2c0-.54-.27-1.09-.27-1.63s.18-1,.18-1.45c0-.18-.09-.72-.09-1a31.4,31.4,0,0,0,.45-3.53,6.39,6.39,0,0,0,.09-1.27c-.09-1.45-.09-2.62-.09-4.25,0-.27.18-.54.18-.72,0-.45-.27-.81-.27-1.18s.18-.54.18-.9-.18-.72-.09-1a7.93,7.93,0,0,1,.18-1.45c0-.72-.36-1.36.18-2.08-.18-.36-.09-.63-.18-1a3,3,0,0,0,0-.91,4.08,4.08,0,0,0-.27-1c0-.45.09-.81.09-1.18-.09-.63-.36-1.36-.45-2.08-.09-2.17.18-4.43,0-6.42a1.81,1.81,0,0,1,.18-.54,10.22,10.22,0,0,0-.27-1.63,34.9,34.9,0,0,0-.72-4.43,1.57,1.57,0,0,1,2.35-.63c.18.09.18.54.54.63a14.77,14.77,0,0,0,3.8-.72,3.1,3.1,0,0,0,.9-.09c.09,0,.27-.27.27-.27.18-.09.45,0,.63,0a3.19,3.19,0,0,1,1-.27,2.87,2.87,0,0,1,1.9,1.18c-.18.72-.09,1.36-.27,2.08a4.09,4.09,0,0,1-.27,1c-.09.45.09,1.09,0,1.45A6.87,6.87,0,0,0,1537,665c.63-.18,1-.72,1.63-.81.72-1,2.08-1.36,3-2.17.54-.09.72-.18,1,.18.54-.36.54-.81,1.09-1.18a15,15,0,0,0,1.45-.54,3.74,3.74,0,0,0,1.36-.63c.54.18,1.09-.27,1.63-.45a8.59,8.59,0,0,1,1.63-.36,11.15,11.15,0,0,1,1.72-.27,15.15,15.15,0,0,1,3.35-.54c.63,0,1.27.27,2.08.36,1.36.18,2.71.18,3.62,1,.45.09.45-.27.9-.18a5.41,5.41,0,0,1,.72.36c.27.09.45.18.72.27s.18.36.27.45.27,0,.45.18.45.45.63.54c.36.18.81.18,1.18.36a11,11,0,0,0,3.08,1.09,6.64,6.64,0,0,0,1.18.91c.27.18.63.45,1.09.72.27.18.63.27.63.63.45-.09.45.09.81.09,0,.45.63.27.72.63s.18.27.54.63a2,2,0,0,1,.45.27c.09.09.09.27.18.45.63.72.72,1.18,1.36,1.63.36.18.72.91,1,1.36l.72.72a8.09,8.09,0,0,1,1.45,1.9c.09.27.18.45.27.72s.36.36.45.63a1.89,1.89,0,0,0,.36,1,8.78,8.78,0,0,1,.63.81s.27.18.27.27-.09.36,0,.45.36.27.36.45-.09.54,0,.81a3.28,3.28,0,0,1,.27.63,10.13,10.13,0,0,1,.45,1.18c.09.63-.36,1.36.27,1.9a10.3,10.3,0,0,0,.18,2.35C1582.2,685.48,1582,686.93,1582,688.37Zm-11.67-7.15a7.59,7.59,0,0,1-.63-2.35,2.89,2.89,0,0,1-.9-1.72,6.79,6.79,0,0,1-1.36-1.81,8.72,8.72,0,0,1-1.27-1.9,7.44,7.44,0,0,1-2.17-1.81,11.91,11.91,0,0,1-1-.91c-.18-.18-.63-.18-.9-.36s-.45-.27-.72-.45c-.09,0-.18-.27-.27-.27-.54-.27-1.09,0-1.27-.45-1.45.18-3.17-.18-4.52.18a9.55,9.55,0,0,1-1-.63c-.36-.18-.54-.63-1.09-.54-.36,0-.45.18-.72.27-.72.27-.72.18-1.18.54a2.82,2.82,0,0,0-.54.36c-.09.09-.09.27-.18.36s-.36,0-.45.09a2.41,2.41,0,0,1-.54.45c-.45.09-.45-.27-.81-.18-.18,1.18-1.54,1-2.08,1.9-.45-.18-.54.27-1,.27a3.31,3.31,0,0,1-1.18,1.09c-.36.27-.63.72-1.09.54a1.8,1.8,0,0,1-1.18,1.36c0,.63-.63.72-.63,1.45-.27,0-.63.54-.72.63-.27.45-.36.81-.63,1.36-.36.91-1.27,1.81-1.09,2.71a1.13,1.13,0,0,1-.72.54c.45.9.18,1.9.27,3,0,.45.27.91.27,1.27s-.18.72-.18,1.08c0,.81.36,1.72.36,2.62,0,.45-.27.91-.18,1.45a7.17,7.17,0,0,1,1.09,2.53,4.1,4.1,0,0,1,1.54,2.44,9.25,9.25,0,0,1,1.63,1.63,14.69,14.69,0,0,1,3.62,1l.54.27c.18.09.27.36.45.45s.54.09.72.18c1.09.36,2.26.09,3.53.36.27.09.54.36.81.45a5.54,5.54,0,0,1,.63.18c.18.09.09.27.36.27a12.78,12.78,0,0,1,1.81-.36c.18,0,.45.18.72.18s.36-.27.54-.27c.36-.09.81.09,1.09,0s.36-.27.54-.27a9.34,9.34,0,0,0,1.45-.45,9.75,9.75,0,0,0,3.44-1.36c1-.09,1.27-.9,2.35-.81-.09-.63.45-.63.63-1,.45-.09.54-.63,1-.72.27-.81.9-1.18,1.18-1.9.36,0,.36-.36.63-.36-.27-.72.45-1.18.63-1.81a16.25,16.25,0,0,0,.18-2.17,18.47,18.47,0,0,0,.45-2.17,24.08,24.08,0,0,0,.18-5A9.37,9.37,0,0,0,1570.34,681.22Z"/><path class="cls-13" d="M1602.19,707.83a5.5,5.5,0,0,1-1.09,1.9c-1,.18-2,0-3.26.09a14,14,0,0,0-1.9.09,11.49,11.49,0,0,1-1.72.09c-.45-.09-.72-.45-1.18-.45a5,5,0,0,1-.81-.63c0-.9-.45-1.36-.45-2.35-.36-.45-.9-.72-1.27-1.27a6.32,6.32,0,0,1-.18-2.8c0-.27.18-.45.27-.72a3.5,3.5,0,0,0,0-1c.09-.27.63-.36.36-.63.54-.18.81-.72,1.18-1.09a4.84,4.84,0,0,0,2.35-1.18c.09,0,.27-.27.27-.27.18,0,.36.09.45,0s.27-.36.45-.45a10.37,10.37,0,0,1,1.9-.18,4.75,4.75,0,0,1,1.63.18c.45.18.72.72,1.09,1,.18.09.36.09.45.18a3.17,3.17,0,0,1,.91.72,3.37,3.37,0,0,1-.09,1.9,5.58,5.58,0,0,1,.72,2.08,22,22,0,0,1,.54,2.35A7.48,7.48,0,0,1,1602.19,707.83Zm1.18-59.81c-.09,1,0,2.08-.09,2.8-.09.45-.09,2.35-.09,3.44,0,.27.18.54.18.72-.09,1.27-.54,2.17-.36,3.35,0,.36.09.81.09,1.54,0,.18-.18.45-.18.72s.27.72.27,1.18a9.33,9.33,0,0,1-.36,1.27c0,.54.18,1.08.18,1.45-.09.81-.54,1.27-.54,2.35a3.25,3.25,0,0,1,0,1.63c-.09.36-.27.81-.36,1.27a34,34,0,0,0,.27,4c0,.91.09,1.81,0,2.9,0,.27-.09.54-.09.91,0,1.45.09,3,0,4.52,0,.81-.36,1.63-.36,2.44,0,.45.27.81.27,1.36a22.47,22.47,0,0,1-.18,3.35,15.4,15.4,0,0,1-.09,2.17,4.37,4.37,0,0,1-1.18,1.54c-.54.18-1-.18-1.63-.18-.45.09-.36.36-1.18.27-.36,0-.72-.27-1.18-.27s-.9,0-1.27-.09-.72-.36-1-.45c-.54-.09-.9,0-1.18-.18a1.27,1.27,0,0,0-.72-.54,9.09,9.09,0,0,0-.36-2.26,4.75,4.75,0,0,0,0-3.17c.09-.36.27-.63.36-1s-.09-.45-.09-.72.09-.54.09-.72-.09-.45-.09-.72.18-.54.18-.81c-.09-.54-.36-1-.45-1.54,0-.36.18-.36.18-.63a3.18,3.18,0,0,0-.09-.54.57.57,0,0,1,.27-.45.42.42,0,0,0-.18-.45,22.77,22.77,0,0,0,.36-2.44c0-.81-.54-1.63-.09-2.35a3.06,3.06,0,0,1-.54-1.36c0-.36.27-.81.36-1.45a15.83,15.83,0,0,1-.27-2.17,2.33,2.33,0,0,1,.45-1.27c-.09-.36-.18-.54-.27-.91a1.84,1.84,0,0,0-.09-.45,3.88,3.88,0,0,0,.09-.45c-.09-2,.18-5.07-.27-7.42a1.43,1.43,0,0,0,0-.63c-.18-.81-.45-2.44-.63-3.62a7.52,7.52,0,0,0,.54-1.9,10.6,10.6,0,0,0-.45-1c-.36-1.36.09-3-.36-4.16a6,6,0,0,0,.36-1c0-.45-.18-.91-.18-1.45a4.54,4.54,0,0,1,.45-1.18,16.8,16.8,0,0,0,3.08-.63,6.87,6.87,0,0,1,1.9-.09h.63c2.17.09,4.34.18,5.7.81a8.56,8.56,0,0,1,.45,3C1603.64,646.84,1603.37,647.38,1603.37,648Z"/><path class="cls-4" d="M144.35,257.68s6,13.12,9.15,14,4.39-6.93,8.44-4.25l4,2.68c2.4,1.59,8.88.9,7.55-3.34s-5.79-8.21-.55-8.7l5.24-.49s.49-5.38-2.92-8.71-2.92-2.86-1.27-4.55,1.24-11-16.27-13.09"/><ellipse class="cls-4" cx="87.68" cy="190.05" rx="79.22" ry="95.06" transform="translate(-109.54 119.97) rotate(-45.67)"/><path class="cls-13" d="M153.41,223.54s8-79.36-111-95.08C42.43,128.46,160.57,93.82,153.41,223.54Z"/><path class="cls-14" d="M666.83,173.66s-3.3,12.39-1.65,14.8,6.93-2.28,8.19,1.85l1.26,4.13c.75,2.45,5.59,5.64,7.06,2s.66-8.91,4.53-6.28l3.87,2.63s3.38-3.41,2.92-7.63-.39-3.61,1.7-3.84,7.08-6.86-3.77-18.17"/><ellipse class="cls-9" cx="666.16" cy="95.24" rx="70.41" ry="84.49" transform="translate(-6.39 72.59) rotate(-6.21)"/><path class="cls-13" d="M692.34,155.34S742.66,105.4,669.9,27.41C669.9,27.41,770.53,70.38,692.34,155.34Z"/><path class="cls-8" d="M1131.36,375.51s-10.36,11.88-9.85,15.43,8.88,1.25,8,6.48l-.84,5.24c-.5,3.11,3.1,9.25,6.72,6s5.56-9.47,8.41-4.47l2.85,5s5.58-1.93,7.36-6.83,1.53-4.2,4-3.31,11.53-3.73,5.7-22.09"/><ellipse class="cls-8" cx="1173.15" cy="288.63" rx="103.87" ry="86.56" transform="translate(501.16 1292.62) rotate(-70.03)"/><path class="cls-13" d="M1169.43,369.15s82.6-27.81,44.63-153.32C1214.07,215.82,1301.78,317.82,1169.43,369.15Z"/><polygon class="cls-15" points="1571.38 601.44 1580.07 600.31 1573.85 606.48 1574.99 615.17 1568.81 608.95 1560.12 610.09 1566.34 603.91 1565.21 595.22 1571.38 601.44"/><polygon class="cls-15" points="1207 685.42 1208.33 700.35 1198.22 689.29 1183.3 690.62 1194.36 680.51 1193.03 665.59 1203.14 676.65 1218.06 675.32 1207 685.42"/><polygon class="cls-15" points="1299.62 491.94 1300.95 506.86 1290.84 495.8 1275.92 497.13 1286.97 487.02 1285.64 472.1 1295.75 483.16 1310.67 481.83 1299.62 491.94"/><polygon class="cls-15" points="686.06 376.42 680.73 412.05 703.91 439.64 668.28 434.3 640.69 457.49 646.03 421.85 622.85 394.27 658.48 399.6 686.06 376.42"/><polygon class="cls-15" points="935.56 491.6 914.86 507.33 912.96 533.26 897.22 512.56 871.29 510.66 891.99 494.93 893.9 468.99 909.63 489.7 935.56 491.6"/><polygon class="cls-15" points="468.96 617.01 443.03 615.15 424.47 633.36 426.33 607.43 408.12 588.87 434.06 590.73 452.62 572.52 450.75 598.45 468.96 617.01"/><polygon class="cls-15" points="781.68 505.11 767.48 515.91 766.17 533.71 755.38 519.5 737.58 518.19 751.79 507.39 753.09 489.6 763.89 503.81 781.68 505.11"/><polygon class="cls-15" points="748.02 629.74 733.81 640.54 732.5 658.33 721.71 644.13 703.91 642.82 718.12 632.02 719.43 614.23 730.22 628.43 748.02 629.74"/><polygon class="cls-15" points="840.68 504.48 830.36 499.8 820.02 504.44 824.7 494.12 820.05 483.78 830.38 488.46 840.72 483.81 836.04 494.14 840.68 504.48"/><polygon class="cls-15" points="759.22 455.79 748.89 451.11 738.56 455.76 743.23 445.43 738.59 435.09 748.91 439.77 759.25 435.13 754.57 445.45 759.22 455.79"/><path class="cls-16" d="M1266.8,910.47c5.28-8.38,4.57-17,2.35-25.57-3.31-12.77-14.92-26.2-38-31.82-8.25-2-16.8.24-17.51,5.27-.06.44.51.83,1.33.92,15,1.63,28.19,9.24,34.13,16.17,10.18,11.87,12.53,26.48,11,39.56-.11,1,2.41,1.28,3.14.38A50.8,50.8,0,0,0,1266.8,910.47Z"/><path class="cls-17" d="M1233,1008.58c6-16,5.77-32.77,4-49.49-2.59-24.93-13.68-51.49-37-63.41-8.36-4.26-17.28-.29-18.33,9.44A1.71,1.71,0,0,0,1183,907c15.31,3.82,28.39,19.18,34.05,32.88,9.71,23.47,11.21,51.93,8.84,77.24a1.69,1.69,0,0,0,3.2.89Q1231.22,1013.36,1233,1008.58Z"/><path class="cls-18" d="M1138.51,1112.46c6.84-8.48,12-19.27,16.87-27,19.13-30.5,24.58-50.75,22.27-83-4.12-57.62-11.56-119.7-87.55-188.71L1020.42,921c38,34,38.45,93.11.9,125.47-3.68,3.17-7.35,6.13-8.66,10a19.41,19.41,0,0,0,5.49,24.07c2.5,2,4.82,3.92,7.89,5.17,5.21,2.12,10.61,1.85,15.88.32a24.11,24.11,0,0,0,7.1-3.34c-.28,14.51,3.49,21,15.48,25.81,15.83,6.34,24.72-2.9,33.75-12.58a32.11,32.11,0,0,0-1.56,3.8c-5,14.74,6.82,28.34,22.16,25.87C1126.86,1124.25,1133.19,1119.05,1138.51,1112.46Z"/><path class="cls-19" d="M1040.2,1081.76a19.41,19.41,0,0,1-5.49-24.07c1.31-3.83,5-6.8,8.66-10,37.55-32.36,37.12-91.44-.89-125.47l61.73-95c-4.42-4.48-9.1-9-14.09-13.51L1020.42,921c38,34,38.45,93.11.9,125.47-3.68,3.17-7.35,6.13-8.66,10a19.41,19.41,0,0,0,5.49,24.07c2.5,2,4.82,3.92,7.89,5.17,5.21,2.12,10.61,1.85,15.89.32a24.54,24.54,0,0,0,2.61-1C1043,1084,1041.64,1082.91,1040.2,1081.76Z"/><path class="cls-19" d="M1063,1072.21c-2.11,1.45-10.55,7.78-12.51,9.76-2.59,2.63-.15,6.13-1.41,5.32.62,11.3,4.77,16.91,15.4,21.17,7.74,3.1,13.81,2.46,19.06-.11C1074,1103.64,1062.78,1085.39,1063,1072.21Z"/><path class="cls-19" d="M1107.89,1099.74c.48-1.43,7.79-17.58,8.35-18.72-7,7.49-20.88,4.8-19.94,30.74,2.56,9.14,11.64,15.53,22.56,13.77a24.35,24.35,0,0,0,6.72-2.17C1119,1118.65,1104.83,1108.82,1107.89,1099.74Z"/><path class="cls-18" d="M311.45,733.95c-10.88,19-16.19,39.45-20.64,60.61a182.42,182.42,0,0,0-2.8,55.75c1.32,13,4.72,32.14,22.12,30.26,11.08-1.2,22.86-15.23,20.51-26.54.08-.23-2.59,3.47-2.49,3.17a20.49,20.49,0,0,0,2.49-3.17c1,6.7,2.52,16.32,2.84,17.27,4,12.21,18.83,14.09,29.14,8.7,8.47-4.43,12.41-14.73,15.54-23.15.57,1.71,1.17,3.41,1.72,5.1a19.23,19.23,0,0,0,2.6,5.9,2.73,2.73,0,0,0-.3-1.18c3.63,7,7.25,14,15.75,15.71,18,3.57,33.38-18.6,26.39-34.69-19.75-45.47,6.3-98.49,55.34-112.62L452,608.47C397.63,617.49,340.2,683.85,311.45,733.95Z"/><path class="cls-18" d="M693.34,1007.44c-2.78-3.38-23.45-16.7-26.07-21.12a247.24,247.24,0,0,0-16.74-24.67c-21.26-13.36-46.42-27.23-80.36-41.92a24,24,0,0,1-4.36,1,.91.91,0,0,1,0,.28c-5.69,14.19-13.1,33-25.61,42.51-6.95,5.31-14.37,2.19-21.93.36-22.06-5.35-44.13-9-66.47-12.91-23-4-61.09-13.85-79.12,6.23-8.79,9.69-6.78,26.52-1,37.25,10.6,19.76,32.45,30.41,52.65,38.54,47.42,19.09,99.31,43.3,143.35,57.37,15.8,5,31.38,13.52,47.4,5.42,15-7.56,31.69-36.75,34.56-52.28C652,1030.53,677,1009.76,693.34,1007.44Z"/><path class="cls-18" d="M687,1009.09c4-1.86,15.1-4.27,19.36-7.14,7.1-4.79,16.33.54,26.07-4.42,24.93-3,53.6-4.79,90.56-3.57a24,24,0,0,0,3.49,2.8.94.94,0,0,0-.1.25c-.68,11.36,8.63,61.81,17,64.11,39.12,10.77,81.09,15.07,118.82,29.88,10.6,4.16,23.23,10.95,23.47,23.86,1.63,11.71-5.06,24.07-15.1,31.5-18,13.34-42.34,13.63-64.07,12.35-51-3-102.11-3.93-153.22-4.07-16.58,0-34.14-1.18-45.17-15.35-10.3-13.23-8.63-30.78-4.58-46.06C706.87,1080.46,728.06,1015.48,687,1009.09Z"/><path class="cls-20" d="M1005,978.12l-.74.71Q1012.08,978,1005,978.12Z"/><path class="cls-18" d="M1005,978.12l.27-.25-.76.26Z"/><path class="cls-21" d="M1005,978.12l.27-.25-.76.26Z"/><path class="cls-22" d="M1097.07,492.68l.19.32Z"/><path class="cls-22" d="M1145.49,690.92l-.31-.66.56,1.18Z"/><path class="cls-22" d="M1085.05,951.06"/><path class="cls-19" d="M587.42,1078.74c-44-14.07-95.93-38.28-143.35-57.37-20.2-8.13-42-18.78-52.65-38.54-5.54-10.32-7.57-26.27.11-36.1-7.32,1.73-13.87,4.94-18.87,10.5-8.79,9.69-6.78,26.52-1,37.25,10.6,19.76,32.46,30.41,52.65,38.54,47.42,19.09,99.31,43.3,143.35,57.37,15.8,5,31.38,13.52,47.4,5.42a41.29,41.29,0,0,0,10.87-8.72C613,1089.22,600.27,1082.85,587.42,1078.74Z"/><path class="cls-19" d="M687,1009.09a32.6,32.6,0,0,1,6.36-1.65,15.32,15.32,0,0,0-1.86-1.73Q689.18,1007.33,687,1009.09Z"/><path class="cls-19" d="M980.32,1129c-18,13.35-42.37,13.64-64.12,12.36-51.07-3-102.19-3.93-153.35-4.08-9.66,0-19.64-.44-28.48-3.57-11.81,0-22.59-.85-31.59-10.13-.91-.93-1.75-1.9-2.6-2.85a37.09,37.09,0,0,0,7.45,19.37c11,14.18,28.61,15.32,45.21,15.37,51.16.14,102.28,1.07,153.35,4.08,21.75,1.28,46.08,1,64.12-12.36,7.45-5.52,13-13.76,14.78-22.43A40.23,40.23,0,0,1,980.32,1129Z"/><path class="cls-18" d="M1023.68,235.82c-46-31.57-104.24-45.88-159.91-46.39-59.42-.54-114,17.22-163,47.57a408.55,408.55,0,0,0-58.53,44.39C549.14,365.5,482.33,495,449.13,616.74c-8,29.49-14.71,59.41-17.92,89.66a298,298,0,0,0-1.54,40.69s0,0,0,0a8.43,8.43,0,0,0,.07,2.19c0,.8,0,1.61.09,2.41a12.16,12.16,0,0,0,.27,4.36h0c.07,1.11.18,2.19.26,3.29.06.73.11,1.47.18,2.2.17,2,.35,3.89.56,5.81-.1-.91-.21-1.82-.29-2.74.11,1.11.24,2.2.36,3.3,0-.19,0-.37-.07-.55,0,.36.09.71.13,1.07.17,1.54.35,3.08.55,4.6.13,1,.28,2,.43,3.06,0-.19,0-.38-.07-.56.06.44.12.88.19,1.32,0-.25-.08-.5-.12-.76.16,1.09.3,2.18.47,3.26.1.66.23,1.31.33,2q.31,1.86.65,3.69.41,2.24.86,4.45c.16.8.31,1.62.48,2.42-.17-.79-.32-1.61-.48-2.4q.32,1.6.66,3.18c-.06-.26-.13-.51-.19-.78.08.37.17.73.25,1.1.34,1.54.7,3.07,1.06,4.59.26,1.07.51,2.15.78,3.21q.28,1.08.56,2.15c.19.72.4,1.43.6,2.15l.2.71c.24.87.47,1.74.72,2.6q1.1,3.77,2.32,7.46l.12.35q1.44,4.32,3,8.53l.14.37A222.72,222.72,0,0,0,475.17,880l.37.49c1.56,2.07,3.17,4.1,4.8,6.11l1,1.26q2.3,2.81,4.7,5.54l1.38,1.58q2.31,2.61,4.7,5.17l1.61,1.7c1.58,1.66,3.17,3.3,4.8,4.92.56.56,1.13,1.1,1.69,1.65,1.65,1.61,3.31,3.22,5,4.79.5.47,1,.93,1.53,1.39,1.79,1.64,3.58,3.27,5.41,4.87l.1.09q6.72,5.85,13.83,11.32l0,0c1.58,1.22,3.19,2.4,4.8,3.6,1,.73,2,1.47,2.95,2.19,1.44,1,2.91,2.07,4.38,3.1,1.19.83,2.37,1.67,3.57,2.48,1.39.95,2.79,1.88,4.2,2.81s2.63,1.74,4,2.59,2.71,1.72,4.07,2.57l.66.41a64.58,64.58,0,0,1,7.73-9.27c24.45,17.9,54.05,34.84,90,49.93l107.67,34.4,11.22,3.59a46.23,46.23,0,0,1,40-8.38c11.36,3,30.66-3.73,39.73-7.85,14.38-6.53,34.51-13.87,50.91-22,1.89-.94,3.48-1.72,4.9-2.41,1.86-1.28,4.77-3.18,9.1-5.9,3-1.91,6.35-3.23,9.28-5.31,7.06-5,14.73-12.72,22.61-18.4q4.17-2.93-.13.53l10.15-7.77c2.73-1.91,6-3.42,8.92-5.18-2.1.76,8.88-10.33,11.41-12.33,20.3-16.07,45.85-19.6,62.48,1.45.27.34.49.72.75,1.07,17.77-26.31,32.61-55.09,44.47-82.32C1170.6,660.1,1200.68,357.22,1023.68,235.82Z"/><path class="cls-19" d="M479.1,857.38c-9.91-18.37-20.56-35.67-23.9-57.57-1.63-10.7-1-22.34-5-32.18-1.27-3.11-2.67-6.09-4.09-9.05a19.66,19.66,0,0,1-9.51-1,22.82,22.82,0,0,1-6.85-3.7,12.15,12.15,0,0,0,.33,2.19,237.65,237.65,0,0,0,11.37,59.79l.12.35q1.44,4.32,3,8.53l.14.37A222.74,222.74,0,0,0,475.18,880l.37.49c1.56,2.07,3.17,4.1,4.8,6.11l1,1.26q2.3,2.81,4.7,5.54l1.38,1.58q2.31,2.61,4.7,5.17l1.61,1.7c1.58,1.66,3.17,3.3,4.8,4.92l1.69,1.65c1.65,1.61,3.31,3.22,5,4.79.51.47,1,.93,1.53,1.39,1.79,1.64,3.58,3.27,5.41,4.87l.11.09q6.72,5.85,13.83,11.32l0,0c1.58,1.22,3.19,2.4,4.8,3.6,1,.73,2,1.47,2.95,2.19,1.44,1,2.91,2.07,4.38,3.1,1.19.83,2.37,1.67,3.57,2.48,1.39.95,2.79,1.88,4.2,2.81s2.63,1.74,4,2.59,2.71,1.72,4.07,2.57l.66.41c.93-1.35,1.92-2.65,2.93-3.91C524.65,925.17,498.83,893.94,479.1,857.38Z"/><path class="cls-18" d="M760.17,1025.74c-41-9.73-76.67-21.39-107.67-34.4l-55.65-17.78a580.46,580.46,0,0,0,74.29,28.84c30.59,9.64,64.22,20.29,98.91,28,.31-.25.63-.47.94-.71C767.36,1028.34,763.71,1027,760.17,1025.74Z"/><path class="cls-18" d="M526.13,930.89q-7.1-5.48-13.83-11.32Q519,925.41,526.13,930.89Z"/><path class="cls-18" d="M538.3,939.81c-1.46-1-2.93-2-4.38-3.1C535.37,937.76,536.83,938.78,538.3,939.81Z"/><path class="cls-18" d="M512.19,919.48c-1.83-1.6-3.63-3.23-5.41-4.87C508.57,916.25,510.36,917.88,512.19,919.48Z"/><path class="cls-18" d="M531,934.52c-1.61-1.19-3.22-2.38-4.8-3.6C527.75,932.15,529.37,933.33,531,934.52Z"/><path class="cls-18" d="M492.14,900.15q-2.39-2.55-4.7-5.17Q489.76,897.6,492.14,900.15Z"/><path class="cls-18" d="M505.25,913.22c-1.69-1.57-3.35-3.18-5-4.79C501.9,910,503.55,911.64,505.25,913.22Z"/><path class="cls-18" d="M498.56,906.77c-1.63-1.62-3.22-3.26-4.8-4.92C495.34,903.51,496.93,905.15,498.56,906.77Z"/><path class="cls-18" d="M546.06,945.09c-1.41-.93-2.81-1.86-4.2-2.81C543.25,943.24,544.66,944.16,546.06,945.09Z"/><path class="cls-18" d="M480.34,886.61c-1.63-2-3.24-4-4.8-6.11Q477.89,883.6,480.34,886.61Z"/><path class="cls-18" d="M588,969.24c-1-.5-2-1-3-1.52C586.05,968.23,587,968.75,588,969.24Z"/><path class="cls-18" d="M570.74,960.1c-1.27-.71-2.53-1.43-3.8-2.16C568.21,958.66,569.47,959.39,570.74,960.1Z"/><path class="cls-18" d="M579.31,964.76c-1.18-.63-2.36-1.27-3.53-1.91C577,963.49,578.13,964.13,579.31,964.76Z"/><path class="cls-18" d="M562.34,955.27q-2-1.17-4-2.37Q560.35,954.09,562.34,955.27Z"/><path class="cls-18" d="M554.09,950.26q-2-1.28-4.07-2.57Q552,949,554.09,950.26Z"/><path class="cls-18" d="M486.05,893.41q-2.38-2.74-4.7-5.54Q483.66,890.67,486.05,893.41Z"/><polygon class="cls-18" points="652.5 991.33 596.85 973.55 652.5 991.33 652.5 991.33"/><path class="cls-18" d="M444.59,824.76q-1.6-4.21-3-8.53Q443,820.54,444.59,824.76Z"/><path class="cls-19" d="M760.17,1025.74,652.5,991.33C683.5,1004.35,719.14,1016,760.17,1025.74Z"/><polygon class="cls-19" points="652.5 991.33 760.17 1025.74 652.5 991.33 652.5 991.33"/><path class="cls-19" d="M541.87,942.29c-1.2-.82-2.38-1.65-3.57-2.48C539.48,940.64,540.67,941.47,541.87,942.29Z"/><path class="cls-19" d="M550,947.69c-1.33-.85-2.65-1.72-4-2.59Q548,946.4,550,947.69Z"/><path class="cls-19" d="M585.06,967.73c-1.92-1-3.85-2-5.75-3C581.22,965.76,583.14,966.75,585.06,967.73Z"/><path class="cls-19" d="M596.85,973.55q-4.44-2.11-8.83-4.31Q592.41,971.44,596.85,973.55Z"/><path class="cls-19" d="M475.54,880.5l-.37-.49Z"/><path class="cls-19" d="M533.92,936.71c-1-.72-2-1.46-2.95-2.19C532,935.25,532.93,936,533.92,936.71Z"/><path class="cls-19" d="M575.78,962.85c-1.68-.91-3.37-1.82-5-2.75C572.41,961,574.1,961.94,575.78,962.85Z"/><path class="cls-19" d="M566.94,957.94q-2.32-1.32-4.61-2.67Q564.63,956.62,566.94,957.94Z"/><path class="cls-19" d="M558.37,952.89q-2.15-1.3-4.28-2.63Q556.22,951.59,558.37,952.89Z"/><path class="cls-19" d="M441.56,816.22l-.12-.35Z"/><path class="cls-19" d="M500.25,908.42c-.56-.55-1.13-1.1-1.69-1.65C499.11,907.33,499.68,907.87,500.25,908.42Z"/><path class="cls-19" d="M493.76,901.85l-1.61-1.7Z"/><path class="cls-19" d="M506.78,914.61c-.51-.47-1-.92-1.53-1.39C505.75,913.69,506.27,914.14,506.78,914.61Z"/><path class="cls-19" d="M487.44,895l-1.38-1.58Z"/><path class="cls-19" d="M526.17,930.93l0,0Z"/><path class="cls-19" d="M512.3,919.57l-.1-.09Z"/><path class="cls-19" d="M481.36,887.87l-1-1.26Z"/><path class="cls-19" d="M444.73,825.13l-.14-.37Z"/><path class="cls-18" d="M760.17,1025.74c3.54,1.31,7.19,2.6,10.81,3.89l.41-.31Z"/><path class="cls-23" d="M760.17,1025.74c3.54,1.31,7.19,2.6,10.81,3.89l.41-.31Z"/><path class="cls-18" d="M771,1029.63c-.31.24-.63.46-.94.71,2.48.55,5,1.12,7.46,1.64C775.29,1031.2,773.17,1030.41,771,1029.63Z"/><path class="cls-24" d="M771,1029.63c-.31.24-.63.46-.94.71,2.48.55,5,1.12,7.46,1.64C775.29,1031.2,773.17,1030.41,771,1029.63Z"/><path class="cls-18" d="M978.26,934.33c-2.53,2-13.52,13.09-11.41,12.33-2.93,1.76-6.19,3.27-8.92,5.18l-10.15,7.77q4.3-3.47.13-.53c-7.88,5.68-15.55,13.38-22.61,18.4-2.93,2.08-6.25,3.4-9.28,5.31-4.33,2.72-7.23,4.62-9.1,5.9-1.42.69-3,1.46-4.9,2.41-16.4,8.13-36.52,15.47-50.91,22-9.07,4.12-28.37,10.86-39.73,7.85a46.23,46.23,0,0,0-40,8.38l11.94,3.82c60,11.7,122.35,12.92,177.28-17.15l.84-.46-.42-.13.72,0c1.09-.61,2.2-1.17,3.29-1.8q4.18-2.43,8.24-5.14c26.24-17.45,49-43,68.21-71.56-.26-.35-.48-.74-.75-1.07C1024.12,914.74,998.56,918.26,978.26,934.33Z"/><path class="cls-19" d="M1047.8,927.22c-1.17-1.48-13.63-13.5-14.88-14.74-20.48,30.78-35.78,53-61,70.27-25,17.13-50.89,33.68-79.47,40.32a163.55,163.55,0,0,1-45.84,4c-16.06-.84-33.72,2.06-48.72-4.23-9.18-3.85-18,0-26.47,6.52l11.94,3.82c60,11.7,122.35,12.92,177.28-17.15l.84-.46-.42-.13.72,0c1.09-.61,2.2-1.17,3.29-1.8q4.18-2.43,8.24-5.14c26.24-17.45,49-43,68.21-71.56C1041.24,936.51,1048.07,927.56,1047.8,927.22Z"/><path class="cls-18" d="M771,1029.63c2.18.78,4.31,1.57,6.52,2.35,1.94.4,3.89.78,5.83,1.16l-11.94-3.82Z"/><path class="cls-23" d="M771,1029.63c2.18.78,4.31,1.57,6.52,2.35,1.94.4,3.89.78,5.83,1.16l-11.94-3.82Z"/><path class="cls-24" d="M771,1029.63c2.18.78,4.31,1.57,6.52,2.35,1.94.4,3.89.78,5.83,1.16l-11.94-3.82Z"/><path class="cls-17" d="M796,316.89c-13.38-10.62-29.37-15.65-45.8-19.18-24.5-5.27-53.2-3-71.77,15.56-6.64,6.62-5.63,16.34,3.29,20.35a1.71,1.71,0,0,0,2.15-.67c8.38-13.37,27-21,41.82-22.18,25.33-2,52.85,5.45,76.17,15.55a1.69,1.69,0,0,0,1.84-2.77Q800,320.05,796,316.89Z"/><path class="cls-17" d="M981.21,388.77c16.75-3.36,33.27-.55,49.51,3.8,24.21,6.48,48.7,21.6,56.8,46.56,2.89,8.92-2.43,17.11-12.2,16.62a1.71,1.71,0,0,1-1.61-1.58c-1.37-15.72-14.48-31-27.12-38.8-21.65-13.28-49.52-19.23-74.89-20.87a1.69,1.69,0,0,1-.37-3.3Q976.22,389.77,981.21,388.77Z"/><path class="cls-25" d="M1028,753.05c-.36-8.44-3.81-16.5-9.11-24-10.16-14.44-22.11-23.18-36.45-32a132.38,132.38,0,0,0-12.8,10.71c-.26.18-.51.38-.78.55l0,0,0,0c-.53.35-1.08.66-1.63,1l-.53.27q-.63.32-1.28.59l-.51.21a22.43,22.43,0,0,1-3.67,1.09l-.29.05q-.84.16-1.68.26l-.26,0a24.27,24.27,0,0,1-5.93-.1h0a24.66,24.66,0,0,1-5.79-1.55l0,0a23.28,23.28,0,0,1-3.47-1.76l0,0c-.51-.32-1-.65-1.48-1l-.16-.12a19.91,19.91,0,0,1-2.67-2.42l-.18-.2q-.49-.55-.93-1.14l-.22-.3a16.45,16.45,0,0,1-1.69-2.93c-.06-.13-.11-.26-.16-.38q-.25-.6-.45-1.22c0-.15-.1-.3-.14-.45a15.21,15.21,0,0,1-.37-1.59v-.06a15.38,15.38,0,0,1-.18-1.71c0-.17,0-.34,0-.5q0-.65,0-1.33c0-.18,0-.35,0-.53a17,17,0,0,1,.26-1.84c.21-1,.37-2,.5-2.93l0-.11v-.11q.18-1.4.26-2.69v0c0-.32,0-.64,0-1,0-.05,0-.1,0-.15.43-1.52.84-3.06,1.25-4.59-4,4.43-8,9-12.67,12.18A20.77,20.77,0,0,1,909.63,695c-10.68-1.53-21-10.31-18.29-22a64.22,64.22,0,0,0,1.52-9c.16-.53.31-1.07.46-1.6-5.41,5-14.08,9.18-26.51,7.06-7.12-1.21-14.09-4.76-17.53-11.2s-2.54-13.9-1.41-20.84q1.65-1.72,3.32-3.41l1.43-1.45-3.75-1.14c-.09.52-.17,1-.26,1.57h0q-.24,1.8-.47,3.61a88.75,88.75,0,0,0-8.38,8.28l-.61.48c-6.19,4.59-15.88,5.21-24,1.88-10.26-4.19-12.2-12.05-12.27-20.53,0-1.53-.44-7.58.58-8.83a133.25,133.25,0,0,0-11.36,12.76l-.66.61c-13.21,11.74-36.66,4.23-35.73-12.56a38.61,38.61,0,0,0-.2-7c.35-2.66.65-5.33,1-8a9.27,9.27,0,0,1,.5-.9l.32-1c-.71,1-1.33,2-1.38,2a35.48,35.48,0,0,1-4.5,5.93,39.19,39.19,0,0,1-11.89,8.95c-21.94,10.34-36.74-12-37.14-30.54-9,10.69-18.31,22.62-34,16.54a17.07,17.07,0,0,1-10.85-11.91,27.65,27.65,0,0,1-.57-3.51c-.14-1.31-.43-9.82-.32-14.29-.25.24-.48.45-.63.62a17.47,17.47,0,0,0-1.9,2.44c-3.61,5.5-4.8,12.34-10.95,15.74-5.08,2.81-11.1,3.08-16.7,1.95a32.29,32.29,0,0,1-6.08-1.83,23.82,23.82,0,0,1-12.83-13.34,60,60,0,0,1-3.43-15.21c-.06-.49-.06-1.21-.17-1.82-18.13-1.51-36.69-.25-52.37,9.63-51,32.07-28.57,94.8-2.66,136.31a301.9,301.9,0,0,0,52.54,62.69c15.56-4.4,31.93-5.34,48.05-6.47,15.84-1.11,37.79,1.08,51.32,10A93.39,93.39,0,0,1,719,791.78c6.22-1.51,12.39-2.68,17.79-3.95,41.07-9.66,105.28,26.6,113.41,72.29,4,0,7.94-.13,11.95-.4,30.51-2.05,61.78-8.87,89.07-22.57a182.05,182.05,0,0,0,40.67-27.92c12.68-11.52,28.34-26.61,34.11-42.94A34.9,34.9,0,0,0,1028,753.05Z"/><path class="cls-26" d="M736.8,787.83c-5.41,1.27-11.57,2.44-17.79,3.95a93.39,93.39,0,0,0-18.23-16.11c-13.53-8.92-35.48-11.11-51.32-10-16.12,1.13-32.49,2.07-48.05,6.47q10.72,9.8,22.35,18.65l.38-.05c.08.17.15.34.23.51C671.54,827,728.83,850.48,787.18,855.3c21.28,1.76,41.85,4.9,63,4.82C842.08,814.43,777.87,778.17,736.8,787.83Zm70.1,40.4c.68-1.42,1-1.62.54.28Z"/><path class="cls-13" d="M938.94,672.21c-.18-.12,0-.06-.29-.21s-.51-.28-.83-.45Q918,660.83,897.69,651l-.32-.12-.66-.25h0l-1.24-.46,1,.36.1-.09c-2.14-1-4.27-2.09-6.41-3.11q-39.47-18.78-80.49-34.06l-2.26-.83h0l-.11,0-1.2-.45v0h0v0l-3.52-1.29q-8.79-3.2-17.64-6.23a873.17,873.17,0,0,0-172.62-40q-4.16-.52-8.37-.87c.12.61.11,1.33.17,1.82a60,60,0,0,0,3.43,15.21,23.82,23.82,0,0,0,12.83,13.34,32.29,32.29,0,0,0,6.08,1.83c5.6,1.13,11.62.87,16.7-1.95,6.15-3.41,7.34-10.24,10.95-15.74a17.47,17.47,0,0,1,1.9-2.44c.16-.17.38-.38.63-.62-.12,4.47.18,13,.32,14.29a27.65,27.65,0,0,0,.57,3.51,17.07,17.07,0,0,0,10.85,11.91c15.69,6.08,25-5.85,34-16.54.41,18.52,15.21,40.89,37.14,30.54a39.19,39.19,0,0,0,11.89-8.95,35.48,35.48,0,0,0,4.5-5.93c0-.08.67-1,1.38-2l-.32,1a9.27,9.27,0,0,0-.5.9c-.3,2.67-.6,5.33-1,8a38.61,38.61,0,0,1,.2,7c-.93,16.79,22.53,24.3,35.73,12.56l.66-.61a131.47,131.47,0,0,1,11.11-12.5l.09.08c-.79,1.7-.43,7.07-.42,8.5.07,8.48,2,16.34,12.27,20.53,8.16,3.33,17.85,2.71,24-1.88l.61-.48a85.51,85.51,0,0,1,7.76-7.72l.45.15-.11.11c-1.13,6.94-2,14.39,1.41,20.84s10.41,10,17.53,11.2c12.43,2.11,21.1-2.06,26.51-7.06-.16.53-.31,1.07-.46,1.6a64.22,64.22,0,0,1-1.52,9c-2.76,11.68,7.61,20.45,18.29,22a20.77,20.77,0,0,0,15.16-3.72c4.67-3.15,8.67-7.75,12.67-12.18-.41,1.53-.81,3.06-1.25,4.59,0,.05,0,.1,0,.15,0,.31,0,.63,0,1v0q-.07,1.29-.26,2.69v.11l0,.11c-.13.94-.29,1.91-.5,2.93a17,17,0,0,0-.26,1.84c0,.18,0,.35,0,.53q0,.67,0,1.33c0,.17,0,.34,0,.5a15.38,15.38,0,0,0,.18,1.71v.06a15.21,15.21,0,0,0,.37,1.59c0,.15.09.3.14.45q.2.62.45,1.22c.05.13.1.26.16.38a16.45,16.45,0,0,0,1.69,2.93l.22.3q.44.58.93,1.14l.18.2a19.91,19.91,0,0,0,2.67,2.42l.16.12c.48.35,1,.69,1.48,1l0,0a23.28,23.28,0,0,0,3.47,1.76h0a24.68,24.68,0,0,0,5.8,1.55h0a24.29,24.29,0,0,0,5.94.1l.26,0q.84-.1,1.68-.26l.29-.05a22.43,22.43,0,0,0,3.67-1.09l.51-.21q.64-.27,1.28-.59l.53-.27c.55-.29,1.1-.61,1.63-1l0,0,0,0c.27-.18.52-.37.78-.55a132.38,132.38,0,0,1,12.8-10.71c-1.57-1-3.16-1.93-4.79-2.9Q962.9,685.34,947.83,677c-2.84-1.57-5.69-3.1-8.54-4.65"/><path class="cls-27" d="M1049.42,546.22c-15.08,43.82-54.23,62.85-98,47.63-40.21-14-59.52-55.08-45.6-97.06,14.18-42.77,54.37-62.94,96.53-48.44C1046.6,463.57,1064.83,501.46,1049.42,546.22Z"/><path class="cls-27" d="M692.65,500.17c-39-13.49-56.49-51-42.48-91.21,13.59-39,50.49-60.34,84.18-48,43.84,16,62.72,57,49.12,95C769.36,495.33,731.63,513.64,692.65,500.17Z"/><path class="cls-22" d="M1114.07,449.57l.17.33Z"/><path class="cls-18" d="M757.69,444.76a34.43,34.43,0,0,0-61,13.33,37.22,37.22,0,0,0,12.65,36.78C741.67,520.75,783,477.26,757.69,444.76Z"/><path class="cls-28" d="M748.6,452a23,23,0,0,0-40.66,8.89,24.82,24.82,0,0,0,8.44,24.53C737.92,502.72,765.51,473.72,748.6,452Z"/><circle class="cls-13" cx="754.8" cy="458.39" r="15.19" transform="translate(78.03 1025.69) rotate(-71.24)"/><path class="cls-18" d="M1013.12,519.36c-21.57-7.62-47.31,6-51.45,32.51-3,19.33,9,38.67,25.43,44.25C1029.16,610.41,1056.69,534.75,1013.12,519.36Z"/><path class="cls-28" d="M1008.08,531.7c-14.49-5.12-31.78,4-34.56,21.84-2,13,6,26,17.08,29.73C1018.85,592.86,1037.35,542,1008.08,531.7Z"/><circle class="cls-13" cx="1025.95" cy="544.77" r="13.61" transform="translate(180.19 1341.03) rotate(-71.24)"/><path class="cls-29" d="M1115,691.07c-1,9.38-11.57,12.38-25.33,11.66-15-.78-22.88-8.23-21.49-23.31,1.48-16.07,10.06-28.1,26.83-28C1116.86,651.52,1114.86,669.34,1115,691.07Z"/><path class="cls-29" d="M1101,604c9.94,3.26,15.73,8.93,14.7,18.94-1.06,10.26-8.53,11.82-17.17,11.1-9.91-.83-13.13-6.64-12.68-15.92C1086.36,607.63,1094.27,606.42,1101,604Z"/><path class="cls-29" d="M1067.63,742.83c-8.16-1.18-15.33-5.69-14.57-14.79.71-8.44,7.61-14.47,16.57-13.76,7.89.63,12.77,5.88,12,14.83C1081,737.51,1077.15,742.52,1067.63,742.83Z"/><path class="cls-29" d="M513.41,497.67c-6.42,10.4,2.12,21.86,16.83,32,16.08,11.07,30,9.59,40.49-7,11.16-17.68,11.84-36.83-5.47-50C542.74,455.56,530.73,475.45,513.41,497.67Z"/><path class="cls-29" d="M596.55,419.21c-12.8-4.5-23.22-3.24-30.06,7.86-7,11.38-.56,18.89,8.89,25,10.85,7,18.74,3.53,25.61-6.36C608.74,434.5,601.56,427,596.55,419.21Z"/></g></g></g></svg>