<svg xmlns="http://www.w3.org/2000/svg" viewBox="0 0 576.04 587.84"><defs><style>.cls-1{isolation:isolate;}.cls-2{fill:#05ab8c;}.cls-3{fill:#008f76;}.cls-4,.cls-7{fill:#005b49;}.cls-4{opacity:0.7;}.cls-5{fill:#55676f;}.cls-5,.cls-8{opacity:0.3;}.cls-6{fill:none;}.cls-7{opacity:0.5;}.cls-14,.cls-8{fill:#231f20;}.cls-8{stroke:#231f20;stroke-miterlimit:10;stroke-width:1.98px;mix-blend-mode:multiply;}.cls-9{fill:#241d1f;}.cls-10{fill:#e77c8d;}.cls-11{fill:#fff;}.cls-12{fill:#f8f9f4;}.cls-13{fill:#944f90;}.cls-15{fill:#b6dad0;opacity:0.6;}</style></defs><title>MooshSupermarket</title><g class="cls-1"><g id="Layer_2" data-name="Layer 2"><g id="Layer_1-2" data-name="Layer 1"><path class="cls-2" d="M565.77,480c2.68-6.19,4-13.49,5.59-18.92,6.36-21.37,6.25-34.36-.47-53.21-12-33.7-26.74-69.51-83.52-98.09l-23.81,75.55c28.33,14,38.38,49.19,21.33,74.72-1.67,2.5-3.37,4.88-3.52,7.38a12,12,0,0,0,7.27,13.45,19.77,19.77,0,0,0,5.57,1.78,14.73,14.73,0,0,0,9.53-2.44,14.93,14.93,0,0,0,3.68-3.17c2.24,8.7,5.56,12,13.51,12.83,10.5,1.16,14.27-5.83,18.06-13.1a19.88,19.88,0,0,0-.3,2.52c-.52,9.62,8.77,15.78,17.51,11.76C560.77,488.93,563.69,484.78,565.77,480Z"/><path class="cls-3" d="M502,477.94a12,12,0,0,1-7.27-13.45c.15-2.5,1.85-4.88,3.52-7.38,17-25.54,7-60.72-21.33-74.72L498,315.46c-3.38-1.94-6.92-3.85-10.65-5.73l-23.81,75.55c28.33,14,38.38,49.19,21.33,74.72-1.67,2.5-3.37,4.88-3.52,7.38a12,12,0,0,0,7.27,13.45,19.78,19.78,0,0,0,5.57,1.78,14.73,14.73,0,0,0,9.53-2.44,15.2,15.2,0,0,0,1.4-1C504.09,478.82,503.07,478.39,502,477.94Z"/><path class="cls-3" d="M514.06,468.45c-1,1.21-5,6.39-5.85,7.9-1.11,2,.93,3.68,0,3.41,2.24,6.64,5.65,9.3,12.7,10.08,5.13.57,8.65-.82,11.35-3.23C525.81,485.4,516.09,476.37,514.06,468.45Z"/><path class="cls-3" d="M545.39,477.45c.05-.94,1.74-11.78,1.88-12.55-2.93,5.63-11.66,6.33-6.8,21.65A12.13,12.13,0,0,0,556.21,491a15.08,15.08,0,0,0,3.65-2.41C555.16,486.89,545.07,483.38,545.39,477.45Z"/><path class="cls-2" d="M339.35,5.51c-33.28-9.35-70.26-6.15-103,4.64-35,11.52-63.43,32.8-86.12,60.36a253,253,0,0,0-25.48,37.69C86.89,176.07,73.5,265.3,78.28,343.31c1.16,18.9,3.2,37.77,7.35,56.15a184.52,184.52,0,0,0,7.2,24.17v0c-.5,1.36.12,1.55.48,1.27.18.47.35.94.53,1.4a7.53,7.53,0,0,0,1,2.5h0c.26.64.54,1.25.81,1.88l.54,1.25c.49,1.11,1,2.21,1.48,3.3-.24-.52-.48-1-.72-1.55.28.63.58,1.24.87,1.86l-.15-.31.29.6c.41.87.82,1.74,1.24,2.59.28.57.57,1.14.86,1.71l-.15-.32.37.74-.22-.42c.31.61.61,1.22.93,1.82.19.37.39.72.59,1.08q.55,1,1.12,2,.69,1.23,1.39,2.44c.26.44.5.89.76,1.32-.26-.43-.5-.88-.76-1.32l1,1.73-.26-.42.37.59c.5.84,1,1.66,1.53,2.48.36.58.72,1.16,1.09,1.73l.76,1.15.78,1.14.26.38c.32.46.62.93.94,1.38q1.4,2,2.84,3.92l.14.18q1.7,2.25,3.48,4.4l.16.19A137.93,137.93,0,0,0,146,492.51l.31.22c1.33.9,2.68,1.77,4,2.63l.85.54q1.91,1.19,3.86,2.31l1.13.65q1.88,1.07,3.79,2.09l1.28.68c1.26.66,2.52,1.3,3.79,1.93l1.32.63c1.29.62,2.58,1.23,3.89,1.82l1.18.51c1.37.6,2.75,1.2,4.14,1.77l.08,0q5.11,2.09,10.36,3.89h0c1.17.4,2.35.77,3.53,1.15l2.16.69c1.06.33,2.12.63,3.18.94l2.59.75c1,.28,2,.54,3,.81l2.84.73,2.9.7.47.11a40,40,0,0,1,2.69-7c17.9,5.63,38.64,9.67,62.73,11.36l70-1.27,7.3-.13a28.63,28.63,0,0,1,21.79-12.89c7.26-.5,17.24-8.29,21.73-12.51,7.13-6.69,17.48-15,25.47-23l2.39-2.39c.84-1.12,2.16-2.81,4.16-5.27,1.4-1.72,3.08-3.16,4.38-5,3.14-4.35,6.1-10.39,9.59-15.29q1.86-2.55,0,.34l4.41-6.58c1.22-1.67,2.83-3.2,4.2-4.81-1.08.86,3.15-7.82,4.24-9.5,8.7-13.47,23-20.63,36.93-11.59.22.14.43.33.65.48a320.61,320.61,0,0,0,9.68-57.13C510,225.05,467.32,41.45,339.35,5.51Z"/><path class="cls-3" d="M143.79,478.46c-9.47-8.79-19.16-16.82-25.48-29-3.09-5.95-5-12.9-9.35-17.87-3-3.48-6.27-6.46-9.3-9.83a9,9,0,0,1-4.94-2.24,28,28,0,0,0-1.88,4.15c-.51,1.38.14,1.56.5,1.26l.41,1.05a7.51,7.51,0,0,0,1.12,2.86,147.2,147.2,0,0,0,18.57,32.8l.14.18q1.7,2.25,3.48,4.4l.16.19A137.93,137.93,0,0,0,146,492.51l.31.22c1.33.9,2.68,1.77,4,2.63l.85.54q1.91,1.19,3.86,2.31l1.13.65q1.88,1.07,3.79,2.09l1.28.68c1.26.66,2.52,1.3,3.79,1.93l1.32.63c1.29.62,2.58,1.23,3.89,1.82l1.18.51c1.37.6,2.75,1.2,4.14,1.77l.08,0q5.11,2.09,10.36,3.89h0c1.17.4,2.35.77,3.53,1.15l2.16.69c1.06.33,2.12.63,3.18.94l2.59.75c1,.28,2,.54,3,.81l2.84.73,2.9.7.47.11c.28-1,.6-1.93.94-2.88C184,509.14,162.64,496,143.79,478.46Z"/><path class="cls-2" d="M342.14,521.21a426.07,426.07,0,0,1-70,1.27l-36.18.66a359.49,359.49,0,0,0,49.31,2.12c19.86-.44,41.7-.89,63.57-3.31.13-.21.28-.4.41-.6C346.87,521.3,344.47,521.27,342.14,521.21Z"/><path class="cls-2" d="M186,512.2q-5.25-1.8-10.36-3.89Q180.75,510.41,186,512.2Z"/><path class="cls-2" d="M194.91,515c-1.06-.31-2.13-.62-3.18-.94C192.79,514.39,193.85,514.7,194.91,515Z"/><path class="cls-2" d="M175.56,508.29c-1.39-.57-2.77-1.17-4.14-1.77C172.79,507.12,174.16,507.72,175.56,508.29Z"/><path class="cls-2" d="M189.57,513.37c-1.18-.38-2.36-.75-3.53-1.15C187.21,512.62,188.39,513,189.57,513.37Z"/><path class="cls-2" d="M160,500.95q-1.91-1-3.79-2.09Q158,499.93,160,500.95Z"/><path class="cls-2" d="M170.24,506c-1.31-.59-2.6-1.2-3.89-1.82C167.64,504.8,168.93,505.41,170.24,506Z"/><path class="cls-2" d="M165,503.55c-1.28-.62-2.54-1.27-3.79-1.93C162.49,502.28,163.75,502.93,165,503.55Z"/><path class="cls-2" d="M200.52,516.56c-1-.26-2-.53-3-.81Z"/><path class="cls-2" d="M150.33,495.35c-1.36-.86-2.7-1.73-4-2.63C147.63,493.63,149,494.5,150.33,495.35Z"/><path class="cls-2" d="M229.94,522.37l-2-.3Z"/><path class="cls-2" d="M218,520.44l-2.66-.51Z"/><path class="cls-2" d="M223.94,521.47l-2.45-.41Z"/><path class="cls-2" d="M212.09,519.29l-2.8-.6Z"/><path class="cls-2" d="M206.26,518l-2.9-.7Z"/><path class="cls-2" d="M155,498.2q-1.94-1.13-3.86-2.31Q153.09,497.08,155,498.2Z"/><polygon class="cls-2" points="272.15 522.48 235.97 523.14 272.15 522.48 272.15 522.48"/><path class="cls-2" d="M117.05,466.2q-1.77-2.15-3.48-4.4Q115.28,464.05,117.05,466.2Z"/><path class="cls-2" d="M117.21,466.39A137.9,137.9,0,0,0,146,492.51,137.93,137.93,0,0,1,117.21,466.39Z"/><path class="cls-3" d="M342.14,521.21l-70,1.27A426.07,426.07,0,0,0,342.14,521.21Z"/><polygon class="cls-3" points="272.15 522.48 342.14 521.21 272.15 522.48 272.15 522.48"/><path class="cls-3" d="M197.5,515.75l-2.59-.75Z"/><path class="cls-3" d="M203.36,517.29l-2.84-.73Z"/><path class="cls-3" d="M227.9,522.07c-1.32-.19-2.65-.39-4-.6C225.25,521.68,226.58,521.88,227.9,522.07Z"/><path class="cls-3" d="M236,523.14q-3-.35-6-.77Q232.95,522.78,236,523.14Z"/><path class="cls-3" d="M146.3,492.73l-.31-.22Z"/><path class="cls-3" d="M191.73,514.06l-2.16-.69Z"/><path class="cls-3" d="M221.48,521.06c-1.17-.2-2.34-.4-3.5-.61C219.15,520.66,220.32,520.86,221.48,521.06Z"/><path class="cls-3" d="M215.33,519.94l-3.24-.65Z"/><path class="cls-3" d="M209.29,518.68l-3-.69Z"/><path class="cls-3" d="M113.57,461.8l-.14-.18Z"/><path class="cls-3" d="M166.35,504.18l-1.32-.63Z"/><path class="cls-3" d="M161.24,501.62l-1.28-.68Z"/><path class="cls-3" d="M171.41,506.51l-1.18-.51Z"/><path class="cls-3" d="M156.16,498.85,155,498.2Z"/><path class="cls-3" d="M186,512.22h0Z"/><path class="cls-3" d="M175.64,508.32l-.08,0Z"/><path class="cls-3" d="M151.18,495.89l-.85-.54Z"/><path class="cls-3" d="M117.21,466.39l-.16-.19Z"/><path class="cls-2" d="M342.14,521.21c2.33.06,4.73.09,7.12.13l.18-.26Z"/><path class="cls-4" d="M342.14,521.21c2.33.06,4.73.09,7.12.13l.18-.26Z"/><path class="cls-2" d="M349.26,521.34c-.13.2-.28.4-.41.6,1.57-.17,3.13-.33,4.7-.52C352.09,521.41,350.69,521.37,349.26,521.34Z"/><path class="cls-5" d="M349.26,521.34c-.13.2-.28.4-.41.6,1.57-.17,3.13-.33,4.7-.52C352.09,521.41,350.69,521.37,349.26,521.34Z"/><path class="cls-2" d="M451.83,424.18c-1.09,1.68-5.32,10.37-4.24,9.5-1.37,1.62-3,3.15-4.2,4.81L439,445.07q1.83-2.89,0-.34c-3.49,4.9-6.45,10.94-9.59,15.29-1.3,1.81-3,3.24-4.38,5-2,2.46-3.32,4.15-4.16,5.27l-2.39,2.39c-8,8-18.34,16.35-25.47,23-4.5,4.22-14.47,12-21.73,12.51a28.63,28.63,0,0,0-21.79,12.89l7.76-.14c37.5-5.08,74.32-16.79,100.54-45.37l.4-.44h-.27l.42-.16c.52-.58,1.06-1.12,1.57-1.71q2-2.26,3.81-4.65c11.91-15.46,20.13-35,25.75-55.55-.22-.15-.43-.34-.65-.48C474.81,403.55,460.53,410.71,451.83,424.18Z"/><path class="cls-3" d="M492.27,395.52c-.93.7-9.86-4-12.74,4.95-5.88,22.13-10.42,38.21-21.79,53.36s-23.13,29.88-38.57,39.47a101.29,101.29,0,0,1-26.09,11.45c-9.58,2.71-19.36,7.92-29.41,7.22-6.15-.43-10.55,3.59-14.23,9.1l7.76-.14c37.5-5.08,74.32-16.79,100.54-45.37l.4-.44h-.27l.42-.16c.52-.58,1.06-1.12,1.57-1.71q2-2.26,3.81-4.65c11.91-15.46,20.13-35,25.75-55.55C489.45,413.78,497.39,391.66,492.27,395.52Z"/><path class="cls-2" d="M349.26,521.34c1.44,0,2.84.06,4.29.08l3.65-.48-7.76.14Z"/><path class="cls-4" d="M349.26,521.34c1.44,0,2.84.06,4.29.08l3.65-.48-7.76.14Z"/><path class="cls-5" d="M349.26,521.34c1.44,0,2.84.06,4.29.08l3.65-.48-7.76.14Z"/><path class="cls-2" d="M5.95,399.14C1.4,411.89.42,425,0,438.36a113,113,0,0,0,4.43,34.28c2.24,7.79,6.41,19.07,16.81,16,6.62-1.95,12.25-11.8,9.58-18.44,0-.15-1.2,2.4-1.17,2.2a12.69,12.69,0,0,0,1.17-2.2c1.36,4,3.33,9.67,3.63,10.21,3.77,7,13,6.51,18.72,2.09,4.68-3.63,5.94-10.34,6.92-15.82.53,1,1.09,2,1.61,2.92A11.91,11.91,0,0,0,64,472.93a1.69,1.69,0,0,0-.31-.69c3,3.88,6,7.75,11.33,7.84,11.35.2,18.29-15,12.26-24-17-25.54-7-60.72,21.32-74.73L77.81,307.19C45.65,318.68,18,365.44,5.95,399.14Z"/><path class="cls-2" d="M284.09,505.65c-2.42-1.21-17.47-3.56-20.06-5.4a153.12,153.12,0,0,0-15.67-9.76,358.32,358.32,0,0,0-56-3.54,14.84,14.84,0,0,1-2.2,1.68.57.57,0,0,1,.06.16c.34,9.46.86,21.94-3.81,30.5-2.6,4.75-7.58,4.85-12.32,5.71-13.83,2.51-27.24,6-40.87,9.39-14.06,3.5-38.06,7.51-43.23,23.4-2.54,7.69,2.82,16.72,8.77,21.34,11,8.52,26,9.06,39.48,8.59,31.64-1.11,67.09-.44,95.56-3.54,10.21-1.11,21.16-.23,28.19-8.84,6.57-8,8.71-28.76,6.43-38.28C266.49,529.1,275.45,511.05,284.09,505.65Z"/><path class="cls-2" d="M298.79,500.88a56.81,56.81,0,0,0,7.59-4.35,153.12,153.12,0,0,1,15.9-9.38,358.32,358.32,0,0,1,56.09-2.21,14.84,14.84,0,0,0,2.16,1.74.58.58,0,0,0-.06.16c-.42,7,5.35,38.28,10.52,39.71,24.23,6.67,50.22,9.33,73.59,18.5,6.56,2.58,14.39,6.78,14.53,14.78,1,7.25-3.14,14.91-9.35,19.51-11.16,8.26-26.22,8.44-39.68,7.65-31.6-1.86-63.24-2.43-94.89-2.52-10.27,0-21.15-.73-28-9.51-6.38-8.2-5.34-19.07-2.84-28.52C306.47,538.51,307.31,506.5,298.79,500.88Z"/><path class="cls-2" d="M308.62,537.62c-.58-3.07,0-6.26-.92-9.29-1.38-4.43-8.43-7.6-15.36-8.21-7.58-.66-17.25,1.24-23.24,4.26-6.17,3.11-7,6.88-6.15,11.46.54,3,8.14,3,7.59,0-.51-2.82-1.07-5.12,2.56-7.28,3.47-2.07,12-4,16.57-3.81,9.15.47,10.62,3.62,10.9,8.26.2,3.47,1.71,7.52.75,10.92-.84,3,6.49,4.22,7.34,1.2A15.23,15.23,0,0,0,308.62,537.62Z"/><path class="cls-6" d="M481.59,475.13l-.46.44Q486,475,481.59,475.13Z"/><path class="cls-2" d="M481.59,475.13l.16-.16-.47.16Z"/><path class="cls-7" d="M481.59,475.13l.16-.16-.47.16Z"/><path class="cls-8" d="M222,98.39c-10-3.57-20.34-3.33-30.68-2.12-15.42,1.79-31.79,8.86-39,23.42-2.58,5.21,0,10.7,6,11.28a1.06,1.06,0,0,0,1.13-.82c2.25-9.51,11.67-17.72,20.11-21.34,14.46-6.19,32.07-7.33,47.76-6.05a1,1,0,0,0,.52-2Q225,99.45,222,98.39Z"/><path class="cls-8" d="M344.9,103.66c9.15-5.31,19.4-6.95,29.79-7.63,15.49-1,32.86,3,42.58,16,3.47,4.66,2,10.52-3.85,12.17a1.06,1.06,0,0,1-1.26-.61c-3.93-8.94-14.68-15.32-23.63-17.35-15.34-3.48-32.87-1.41-48.07,2.68a1,1,0,0,1-.88-1.86Q342.17,105.24,344.9,103.66Z"/><path class="cls-9" d="M444.91,308c-1.89-4.88-5.52-8.91-10.12-12.27-8.84-6.45-17.58-9.19-27.74-11.49a82,82,0,0,0-5.37,8.83c-.12.16-.23.32-.35.48v0l0,0c-.24.31-.5.6-.77.89l-.26.26q-.31.31-.63.6l-.26.23a13.89,13.89,0,0,1-1.93,1.37l-.16.09q-.46.26-.93.49l-.14.07a15,15,0,0,1-3.5,1.12h0a15.27,15.27,0,0,1-3.7.25h0a14.41,14.41,0,0,1-2.39-.34h0c-.36-.08-.72-.18-1.07-.3l-.12,0a12.33,12.33,0,0,1-2.05-.89l-.14-.08q-.4-.23-.77-.48l-.19-.13a10.19,10.19,0,0,1-1.58-1.38l-.17-.19q-.26-.3-.5-.62l-.17-.24a9.42,9.42,0,0,1-.53-.86l0,0a9.52,9.52,0,0,1-.45-1l-.11-.29q-.14-.38-.25-.78c0-.11-.06-.21-.08-.32a10.52,10.52,0,0,1-.21-1.13c-.08-.64-.18-1.24-.29-1.82v-.14q-.17-.86-.39-1.63v0c-.05-.19-.11-.38-.17-.57l0-.09c0-1-.12-2-.18-2.94-1.46,3.39-2.89,6.89-5,9.67a12.86,12.86,0,0,1-8.15,5.2c-6.57,1.23-14.39-1.85-15.1-9.25a39.77,39.77,0,0,0-.9-5.58c0-.34,0-.69,0-1-2.18,4-6.43,8.19-14.14,9.42-4.42.71-9.21,0-12.51-3.08s-4.26-7.65-5-11.94q.62-1.34,1.27-2.66l.55-1.13-2.43.08c.05.32.11.65.16,1h0q.22,1.11.44,2.21A55,55,0,0,0,313,282l-.26.4c-2.71,3.92-8.27,6.22-13.72,5.89-6.85-.41-9.56-4.64-11.29-9.6-.31-.89-1.77-4.36-1.42-5.29a82.53,82.53,0,0,0-4.12,9.75l-.26.49c-5.4,9.52-20.66,9.78-23.46-.25a23.91,23.91,0,0,0-1.52-4.09c-.32-1.63-.68-3.25-1-4.87a5.74,5.74,0,0,1,.11-.63v-.65c-.22.72-.39,1.41-.4,1.47a22,22,0,0,1-1.46,4.37,24.27,24.27,0,0,1-5.19,7.62c-10.81,10.43-23.94.27-27.87-10.51-3.13,8.05-6.23,16.91-16.64,16.47a10.57,10.57,0,0,1-8.73-4.82,17.12,17.12,0,0,1-1-1.94c-.34-.74-2.21-5.68-3-8.32-.1.19-.19.36-.25.49a10.82,10.82,0,0,0-.63,1.81c-1,3.94-.36,8.19-3.28,11.41a15.14,15.14,0,0,1-9.41,4.47,20,20,0,0,1-3.93.14,14.75,14.75,0,0,1-10.18-5.27,37.17,37.17,0,0,1-5-8.24c-.13-.28-.27-.7-.46-1-10.94,2.73-21.56,7.16-28.79,16.07-23.49,29,2.13,61.28,25.59,80.47a187,187,0,0,0,43.29,26.3c8.25-5.68,17.66-9.49,26.89-13.37,9.07-3.81,22.38-6.89,32.09-4.36a57.84,57.84,0,0,1,13.9,5.82c3.35-2.13,6.73-4,9.65-5.86,22.16-13.85,67-5.37,80.9,19.8,2.32-.8,4.63-1.66,6.93-2.61,17.48-7.28,34.46-17.5,47.74-31a112.75,112.75,0,0,0,18.29-24.47c5.14-9.28,11.32-21.25,11.45-32A21.61,21.61,0,0,0,444.91,308Z"/><path class="cls-10" d="M281.05,386.35c-2.92,1.82-6.3,3.73-9.65,5.86a57.84,57.84,0,0,0-13.9-5.82c-9.71-2.54-23,.55-32.09,4.36-9.23,3.87-18.64,7.69-26.89,13.37q8.24,3.61,16.82,6.48l.21-.11.24.25c34.79,11.58,73.06,13.93,108.24,5.13,12.83-3.21,25.52-5.46,37.92-9.73C348.09,381,303.21,372.51,281.05,386.35Zm49.15,9.73c.11-1,.24-1.14.37.06Z"/><path class="cls-11" d="M376.56,278.29c-.13,0,0,0-.21-.07s-.36-.06-.57-.1q-13.77-2.33-27.63-4.07h-.64l-.82,0,.64,0,0-.07c-1.46-.18-2.92-.38-4.38-.55q-26.88-3.15-54-3.94l-1.49,0h-.07l-.8,0h0l-2.32-.05q-5.79-.13-11.58-.14a540.77,540.77,0,0,0-109.2,10.92c-1.69.35-3.39.73-5.08,1.15.19.34.33.76.46,1a37.17,37.17,0,0,0,5,8.24,14.75,14.75,0,0,0,10.18,5.27,20,20,0,0,0,3.93-.14,15.14,15.14,0,0,0,9.41-4.47c2.93-3.22,2.27-7.47,3.28-11.41a10.82,10.82,0,0,1,.63-1.81c.06-.13.15-.3.25-.49.82,2.64,2.69,7.58,3,8.32a17.12,17.12,0,0,0,1,1.94,10.57,10.57,0,0,0,8.73,4.82c10.41.44,13.51-8.42,16.64-16.47,3.93,10.78,17.06,20.95,27.87,10.51a24.27,24.27,0,0,0,5.19-7.62,22,22,0,0,0,1.46-4.37c0-.06.18-.74.4-1.47v.65a5.74,5.74,0,0,0-.11.63c.35,1.62.71,3.25,1,4.87a23.91,23.91,0,0,1,1.52,4.09c2.8,10,18.05,9.76,23.46.25l.26-.49a81.42,81.42,0,0,1,4-9.54l.07,0c-.13,1.15,1.15,4.23,1.45,5.07,1.73,5,4.43,9.18,11.29,9.6,5.45.33,11-2,13.72-5.89l.26-.4a53,53,0,0,1,3-6.07h.29l0,.08c.72,4.3,1.67,8.84,5,11.94s8.09,3.79,12.51,3.08c7.71-1.24,12-5.41,14.14-9.42,0,.34,0,.69,0,1a39.77,39.77,0,0,1,.9,5.58c.71,7.4,8.54,10.48,15.1,9.25a12.86,12.86,0,0,0,8.15-5.2c2.11-2.78,3.54-6.27,5-9.67.06,1,.13,2,.18,2.94l0,.09c.06.18.11.38.17.57v0q.21.77.39,1.63V288c.11.58.21,1.18.29,1.82a10.52,10.52,0,0,0,.21,1.13c0,.11.06.21.08.32q.11.4.25.78l.11.29a9.52,9.52,0,0,0,.45,1l0,0a9.42,9.42,0,0,0,.53.86l.17.24q.24.32.5.62l.17.19a10.19,10.19,0,0,0,1.58,1.38l.19.13q.37.25.77.48l.14.08a12.33,12.33,0,0,0,2.05.89l.12,0c.35.11.7.21,1.07.3h0a14.41,14.41,0,0,0,2.39.34h0a15.28,15.28,0,0,0,3.71-.24h0a15,15,0,0,0,3.5-1.12l.14-.07q.47-.23.93-.49l.16-.09a13.89,13.89,0,0,0,1.93-1.37l.26-.23q.32-.29.63-.6l.26-.26c.26-.28.52-.58.77-.89l0,0v0c.12-.16.23-.32.35-.48a82,82,0,0,1,5.37-8.83l-3.39-.74q-10.43-2.23-20.93-4.12c-2-.36-4-.69-5.94-1"/><path class="cls-12" d="M416.26,182.41c-.12,28.7-19.29,47.66-48,47.45-26.36-.19-45.87-20.45-46.07-47.83-.2-27.91,19.35-47.74,47-47.63C398.15,134.5,416.38,153.09,416.26,182.41Z"/><path class="cls-12" d="M197.87,226.46c-25.57-.14-43.28-18.66-43.07-45,.2-25.59,17.59-45.44,39.8-44.92,28.9.68,48.13,20.93,47.72,45.93C241.89,208.34,223.41,226.59,197.87,226.46Z"/><path class="cls-13" d="M444,117.31l.16.16Z"/><path class="cls-13" d="M501.65,201.26a.88.88,0,0,0-.22-.14.85.85,0,0,1,.22.14,1.22,1.22,0,0,0,.2.15A1.23,1.23,0,0,1,501.65,201.26Z"/><path class="cls-13" d="M505.72,227.57l-.3-.34.53.61Z"/><path class="cls-13" d="M505.08,446.51"/><path class="cls-2" d="M225,181a21.32,21.32,0,0,0-33.1,20A23,23,0,0,0,206.62,220C230.72,228.76,246.31,195,225,181Z"/><path class="cls-14" d="M221.1,187.09A14.22,14.22,0,0,0,199,200.41a15.37,15.37,0,0,0,9.83,12.7C224.93,218.94,235.33,196.44,221.1,187.09Z"/><circle class="cls-11" cx="226" cy="189.58" r="9.41"/><path class="cls-2" d="M389.62,173.89c-14.16-.17-26.55,12.92-23.7,29.31,2.08,11.94,13,20.89,23.72,20.89C417.16,224.08,418.24,174.23,389.62,173.89Z"/><path class="cls-14" d="M389.12,182.12c-9.51-.12-17.84,8.68-15.92,19.69,1.4,8,8.71,14,15.94,14C407.62,215.85,408.34,182.36,389.12,182.12Z"/><circle class="cls-11" cx="402.2" cy="186.23" r="8.43"/><path class="cls-2" d="M311.79,562c-13.42-10.62-2.88-21.52-2.68-33,0-.18,0-.35,0-.53.95-.38,1.63-1,1.55-1.89,0-.22-.1-.39-.14-.6h0l0-.06a7.48,7.48,0,0,0-3.69-5c-12.35-10.71-43.22-1.61-43.22,12.45,0,3.06,7.59,3.06,7.59,0,0-4.92,3.1-9.11,10.63-11.24a28.06,28.06,0,0,1,12.66-.35l.47.13c.51.12,1,.26,1.47.41,10.91,4,1.35,16.09.94,22.07-.54,7.83,1.26,14.69,9.11,20.91C309.45,567.78,314.79,564.41,311.79,562Z"/><path class="cls-3" d="M242.05,572.62c-28.46,3.1-63.92,2.43-95.56,3.54-13.47.47-28.52-.06-39.48-8.59-5.73-4.45-10.89-13-9-20.46a22,22,0,0,0-8,10.68c-2.54,7.69,2.82,16.72,8.77,21.34,11,8.52,26,9.06,39.48,8.59,31.64-1.11,67.09-.43,95.56-3.54,10.21-1.11,21.16-.23,28.19-8.84a25.57,25.57,0,0,0,4-7.67C259.15,572.13,250.36,571.71,242.05,572.62Z"/><path class="cls-3" d="M280.91,508.18a20.19,20.19,0,0,1,3.19-2.53,9.49,9.49,0,0,0-1.49-.51Q281.71,506.63,280.91,508.18Z"/><path class="cls-3" d="M476,568.08c-11.16,8.26-26.22,8.44-39.68,7.65-31.6-1.86-63.24-2.43-94.89-2.52-6,0-12.15-.28-17.62-2.21-7.31,0-14-.53-19.55-6.27-.56-.58-1.08-1.17-1.61-1.77a23,23,0,0,0,4.61,12c6.83,8.78,17.7,9.48,28,9.51,31.66.09,63.29.66,94.9,2.52,13.46.79,28.51.61,39.68-7.65a23.59,23.59,0,0,0,9.15-13.88A24.9,24.9,0,0,1,476,568.08Z"/><path class="cls-3" d="M13.45,481.33c-3.93-8.18-5.52-16.7-6-25.38a56.94,56.94,0,0,1-1.85-34.08,100,100,0,0,1,.34-17.92c.27-2.59.65-5.14,1.08-7.67-.36,1-.73,1.93-1.07,2.87C1.4,411.89.42,425,0,438.36a112.94,112.94,0,0,0,4.43,34.28c2.24,7.79,6.41,19.07,16.81,16a9.85,9.85,0,0,0,1.24-.47C18.93,487.76,15.54,485.68,13.45,481.33Z"/><path class="cls-3" d="M87.71,471a11.28,11.28,0,0,1-2.33,2.69c-.18.16-.37.3-.55.45a14,14,0,0,1-2,1.33,12.41,12.41,0,0,1-3,1.1.74.74,0,0,1-.82.19,13.64,13.64,0,0,1-4.35,0A12.86,12.86,0,0,1,67.18,473a14.18,14.18,0,0,1-5.53-5.42,9.93,9.93,0,0,1-.71-1.5,8.77,8.77,0,0,0-.82.61C63.08,474.33,70,480,75,480.08c6,.1,10.75-4.12,13-9.44h-.07C87.85,470.77,87.8,470.91,87.71,471Z"/><path class="cls-3" d="M40.59,462.8c-.08.12-.14.25-.22.37S40.46,463.06,40.59,462.8Z"/><path class="cls-3" d="M56.22,477.07a14.26,14.26,0,0,1-7.95,5.21c-3,.67-4.66.39-7.67-.14-3.38-.59-6.19-3.58-7.86-6.4-.13-.23-.24-.46-.35-.7.38,1,.83,2.21,1.41,3.6.34.94.6,1.63.69,1.79,3.77,7,13,6.51,18.72,2.09a14.9,14.9,0,0,0,4.48-6.34c-.29.06-.66.2-1,.3Z"/><path class="cls-15" d="M483.57,254.29c1.3,5.69-4.32,9.56-12.53,11.88-9,2.54-15.05-.27-17.24-9.39-2.33-9.72.3-18.48,10.15-21.77C476.78,230.73,479.15,241.57,483.57,254.29Z"/><path class="cls-15" d="M458,206c6.48-.07,11,2.1,12.39,8.18,1.42,6.23-2.65,8.63-7.86,9.93-6,1.49-9-1.28-10.61-6.81C450.15,211.06,454.55,208.78,458,206Z"/><path class="cls-15" d="M466.1,294.07c-5,.93-10.13-.29-11.49-5.77a9.2,9.2,0,0,1,7-11.37c4.75-1.2,8.66.9,10,6.3C472.86,288.3,471.61,292,466.1,294.07Z"/><path class="cls-15" d="M92.27,260.69c-1.69,7.38,5.6,12.39,16.24,15.4,11.63,3.29,19.51-.35,22.35-12.17,3-12.59-.39-24-13.16-28.22C101.08,230.15,98,244.21,92.27,260.69Z"/><path class="cls-15" d="M125.39,198.12c-8.4-.09-14.26,2.72-16.06,10.6-1.85,8.07,3.43,11.19,10.18,12.87,7.75,1.93,11.69-1.66,13.75-8.83C135.59,204.66,129.88,201.7,125.39,198.12Z"/></g></g></g></svg>