<svg xmlns="http://www.w3.org/2000/svg" xmlns:xlink="http://www.w3.org/1999/xlink" viewBox="0 0 943.03 840.95"><defs><style>.cls-1{fill:none;}.cls-2{isolation:isolate;}.cls-3{clip-path:url(#clip-path);}.cls-4{fill:#05ab8c;}.cls-5{fill:#008f76;}.cls-6,.cls-8{fill:#005b49;}.cls-6{opacity:0.7;}.cls-7{fill:#55676f;}.cls-7,.cls-9{opacity:0.3;}.cls-8{opacity:0.5;}.cls-15,.cls-9{fill:#231f20;}.cls-9{stroke:#231f20;stroke-miterlimit:10;stroke-width:6.73px;mix-blend-mode:multiply;}.cls-10{fill:#241d1f;}.cls-11{fill:#e77c8d;}.cls-12{fill:#fff;}.cls-13{fill:#f8f9f4;}.cls-14{fill:#944f90;}.cls-16{fill:#b6dad0;opacity:0.6;}</style><clipPath id="clip-path" transform="translate(0 -70.92)"><rect class="cls-1" x="42.31" width="909.96" height="422.08"/></clipPath></defs><title>titleMoosh_1</title><g class="cls-2"><g id="Layer_2" data-name="Layer 2"><g id="moosh"><g class="cls-3"><path class="cls-4" d="M889,757.54c3.83-8.86,5.68-19.3,8-27.07,9.1-30.57,8.94-49.15-.67-76.12C879.12,606.14,858,554.9,776.81,514L742.76,622.1c40.53,20,54.9,70.37,30.52,106.9-2.39,3.58-4.82,7-5,10.56a17.2,17.2,0,0,0,10.4,19.24,28.28,28.28,0,0,0,8,2.54c5,.57,9.5-.94,13.64-3.49a21.36,21.36,0,0,0,5.27-4.54c3.2,12.45,8,17.1,19.33,18.36,15,1.66,20.41-8.34,25.83-18.74a28.45,28.45,0,0,0-.43,3.61c-.75,13.76,12.54,22.58,25.05,16.83C881.82,770.38,886,764.43,889,757.54Z" transform="translate(0 -70.92)"/><path class="cls-5" d="M768.66,596.46l23.39-74.25c-4.83-2.77-9.9-5.51-15.24-8.19l-23.45,74.41A19.57,19.57,0,0,1,768.66,596.46Z" transform="translate(0 -70.92)"/><path class="cls-5" d="M815,741.08c-1.45,1.74-7.16,9.14-8.36,11.3-1.59,2.86,1.33,5.27.05,4.88,3.21,9.5,8.08,13.31,18.16,14.42,7.34.81,12.37-1.17,16.24-4.62C831.8,765.32,817.9,752.4,815,741.08Z" transform="translate(0 -70.92)"/><path class="cls-5" d="M859.81,753.95c.07-1.34,2.49-16.85,2.69-18-4.19,8.05-16.68,9-9.73,31,4.35,7.19,13.62,10.5,22.52,6.41a21.58,21.58,0,0,0,5.22-3.44C873.78,767.46,859.35,762.43,859.81,753.95Z" transform="translate(0 -70.92)"/><path class="cls-4" d="M565.05,78.8C517.44,65.44,464.53,70,417.68,85.45c-50,16.47-90.74,46.93-123.2,86.35A362,362,0,0,0,258,225.71c-54.13,97.09-73.28,224.74-66.45,336.35,1.65,27,4.58,54,10.52,80.32A264,264,0,0,0,212.4,677s0,0,0,0a7.47,7.47,0,0,0,.68,1.82c.25.67.5,1.34.76,2a10.77,10.77,0,0,0,1.47,3.58h0c.38.91.77,1.79,1.16,2.69l.77,1.79c.7,1.59,1.4,3.17,2.12,4.72-.34-.74-.69-1.47-1-2.22.41.9.83,1.77,1.24,2.66l-.22-.44.41.86c.58,1.24,1.17,2.48,1.77,3.7.4.82.82,1.63,1.23,2.44l-.22-.45.54,1.05-.31-.6c.44.87.87,1.74,1.33,2.6.28.52.56,1,.84,1.55q.79,1.47,1.6,2.91,1,1.76,2,3.49c.37.63.72,1.27,1.09,1.89-.37-.62-.72-1.26-1.09-1.88q.73,1.25,1.46,2.48c-.12-.2-.26-.39-.38-.6.17.29.35.56.53.85.72,1.2,1.46,2.37,2.2,3.55.52.83,1,1.66,1.57,2.47l1.08,1.64c.37.55.74,1.09,1.11,1.64l.37.54c.45.66.89,1.33,1.35,2q2,2.85,4.07,5.6l.2.26q2.44,3.22,5,6.29l.22.27a197.33,197.33,0,0,0,41.17,37.37l.45.31c1.9,1.29,3.83,2.53,5.77,3.76l1.21.77q2.73,1.7,5.52,3.31l1.61.93q2.69,1.53,5.42,3l1.84,1c1.8.94,3.6,1.86,5.43,2.76l1.89.9c1.84.88,3.69,1.76,5.56,2.6l1.68.73c2,.87,3.93,1.72,5.93,2.54l.11,0q7.31,3,14.83,5.56l.05,0c1.67.57,3.36,1.11,5.05,1.65,1,.33,2.06.67,3.09,1,1.51.47,3,.91,4.55,1.35,1.23.36,2.46.72,3.7,1.07,1.43.4,2.88.78,4.32,1.16s2.71.71,4.06,1,2.76.67,4.15,1l.67.15a57.21,57.21,0,0,1,3.85-10c25.61,8.05,55.27,13.83,89.74,16.24L569,816.55l10.44-.19a41,41,0,0,1,31.17-18.43c10.39-.71,24.66-11.86,31.09-17.9,10.21-9.58,25-21.47,36.44-33,1.32-1.33,2.43-2.43,3.43-3.41,1.2-1.6,3.1-4,6-7.54,2-2.47,4.41-4.52,6.27-7.1,4.49-6.22,8.73-14.87,13.72-21.88q2.66-3.65,0,.49l6.3-9.41c1.75-2.39,4-4.57,6-6.89-1.55,1.23,4.51-11.19,6.06-13.6,12.45-19.26,32.88-29.51,52.83-16.58.32.21.62.47.93.69,7.41-27.13,11.66-55.51,13.85-81.73C809.19,392.88,748.12,130.21,565.05,78.8Z" transform="translate(0 -70.92)"/><path class="cls-5" d="M285.28,755.4c-13.55-12.58-27.41-24.06-36.45-41.49-4.41-8.51-7.21-18.45-13.38-25.57-1.95-2.25-4-4.35-6-6.43a17.42,17.42,0,0,1-8.26,1.9,20.21,20.21,0,0,1-6.8-1.15,10.76,10.76,0,0,0,.9,1.74,210.56,210.56,0,0,0,26.57,46.92l.2.26q2.44,3.22,5,6.29l.22.27a197.34,197.34,0,0,0,41.17,37.37l.45.31c1.9,1.29,3.83,2.53,5.77,3.76l1.21.77q2.73,1.7,5.52,3.31l1.61.93q2.69,1.53,5.42,3l1.84,1c1.8.94,3.6,1.86,5.43,2.76l1.89.9c1.84.88,3.69,1.76,5.56,2.6l1.68.73c2,.87,3.93,1.72,5.93,2.54l.11,0q7.31,3,14.83,5.56l.05,0c1.67.57,3.36,1.11,5.05,1.65,1,.33,2.06.67,3.09,1,1.51.47,3,.91,4.55,1.35,1.23.36,2.46.72,3.7,1.07,1.43.4,2.88.78,4.32,1.16s2.71.71,4.06,1,2.76.67,4.15,1l.67.15c.4-1.4.85-2.77,1.34-4.12C342.81,799.29,312.25,780.44,285.28,755.4Z" transform="translate(0 -70.92)"/><path class="cls-4" d="M569,816.55c-37.2,3.53-70.41,3.9-100.13,1.81l-51.75.94a514.27,514.27,0,0,0,70.54,3c28.41-.63,59.65-1.27,90.94-4.73.18-.3.39-.57.58-.86C575.82,816.69,572.38,816.65,569,816.55Z" transform="translate(0 -70.92)"/><path class="cls-4" d="M345.68,803.67q-7.52-2.57-14.83-5.56Q338.16,801.1,345.68,803.67Z" transform="translate(0 -70.92)"/><path class="cls-4" d="M358.43,807.68c-1.52-.44-3-.88-4.55-1.35C355.38,806.8,356.91,807.24,358.43,807.68Z" transform="translate(0 -70.92)"/><path class="cls-4" d="M330.74,798.06c-2-.82-4-1.67-5.93-2.54C326.77,796.39,328.74,797.25,330.74,798.06Z" transform="translate(0 -70.92)"/><path class="cls-4" d="M350.78,805.34c-1.69-.54-3.38-1.08-5.05-1.65C347.4,804.26,349.09,804.8,350.78,805.34Z" transform="translate(0 -70.92)"/><path class="cls-4" d="M308.41,787.56q-2.73-1.46-5.42-3Q305.68,786.1,308.41,787.56Z" transform="translate(0 -70.92)"/><path class="cls-4" d="M323.13,794.79c-1.87-.84-3.72-1.71-5.56-2.6C319.41,793.08,321.26,794,323.13,794.79Z" transform="translate(0 -70.92)"/><path class="cls-4" d="M315.67,791.29c-1.82-.89-3.63-1.82-5.43-2.76C312,789.47,313.85,790.4,315.67,791.29Z" transform="translate(0 -70.92)"/><path class="cls-4" d="M366.45,809.9c-1.44-.38-2.89-.76-4.32-1.16C363.56,809.15,365,809.53,366.45,809.9Z" transform="translate(0 -70.92)"/><path class="cls-4" d="M294.65,779.57c-1.94-1.22-3.87-2.47-5.77-3.76C290.78,777.09,292.71,778.34,294.65,779.57Z" transform="translate(0 -70.92)"/><path class="cls-4" d="M408.53,818.21l-2.91-.43Z" transform="translate(0 -70.92)"/><path class="cls-4" d="M391.43,815.46l-3.8-.73Z" transform="translate(0 -70.92)"/><path class="cls-4" d="M399.94,816.93c-1.17-.19-2.34-.39-3.51-.59C397.61,816.53,398.77,816.74,399.94,816.93Z" transform="translate(0 -70.92)"/><path class="cls-4" d="M383,813.8l-4-.86Z" transform="translate(0 -70.92)"/><path class="cls-4" d="M374.66,811.95q-2.08-.49-4.15-1Q372.58,811.46,374.66,811.95Z" transform="translate(0 -70.92)"/><path class="cls-4" d="M301.38,783.64q-2.78-1.62-5.52-3.31Q298.59,782,301.38,783.64Z" transform="translate(0 -70.92)"/><polygon class="cls-4" points="468.92 747.45 417.16 748.39 468.92 747.45 468.92 747.45"/><path class="cls-4" d="M247,737.86q-2.54-3.08-5-6.29Q244.5,734.78,247,737.86Z" transform="translate(0 -70.92)"/><path class="cls-5" d="M569,816.55l-100.13,1.81C498.63,820.45,531.85,820.08,569,816.55Z" transform="translate(0 -70.92)"/><polygon class="cls-5" points="468.92 747.45 569.04 745.63 468.92 747.45 468.92 747.45"/><path class="cls-5" d="M362.13,808.75c-1.24-.34-2.47-.71-3.7-1.07C359.66,808,360.89,808.4,362.13,808.75Z" transform="translate(0 -70.92)"/><path class="cls-5" d="M370.51,811c-1.36-.34-2.71-.69-4.06-1C367.8,810.26,369.15,810.61,370.51,811Z" transform="translate(0 -70.92)"/><path class="cls-5" d="M405.62,817.78c-1.89-.27-3.79-.55-5.67-.85C401.83,817.23,403.72,817.5,405.62,817.78Z" transform="translate(0 -70.92)"/><path class="cls-5" d="M417.16,819.31q-4.33-.5-8.63-1.1Q412.84,818.8,417.16,819.31Z" transform="translate(0 -70.92)"/><path class="cls-5" d="M288.88,775.81l-.45-.31Z" transform="translate(0 -70.92)"/><path class="cls-5" d="M353.87,806.33c-1-.32-2.06-.66-3.09-1C351.81,805.67,352.84,806,353.87,806.33Z" transform="translate(0 -70.92)"/><path class="cls-5" d="M396.44,816.33c-1.67-.28-3.34-.57-5-.88C393.09,815.76,394.77,816.05,396.44,816.33Z" transform="translate(0 -70.92)"/><path class="cls-5" d="M387.63,814.73q-2.32-.45-4.63-.93Q385.31,814.28,387.63,814.73Z" transform="translate(0 -70.92)"/><path class="cls-5" d="M379,812.94q-2.17-.48-4.34-1Q376.82,812.46,379,812.94Z" transform="translate(0 -70.92)"/><path class="cls-5" d="M242.06,731.57l-.2-.26Z" transform="translate(0 -70.92)"/><path class="cls-5" d="M317.56,792.2l-1.89-.9Z" transform="translate(0 -70.92)"/><path class="cls-5" d="M310.25,788.53l-1.84-1Z" transform="translate(0 -70.92)"/><path class="cls-5" d="M324.81,795.53l-1.68-.73Z" transform="translate(0 -70.92)"/><path class="cls-5" d="M303,784.57l-1.61-.93Z" transform="translate(0 -70.92)"/><path class="cls-5" d="M345.73,803.69l-.05,0Z" transform="translate(0 -70.92)"/><path class="cls-5" d="M330.85,798.11l-.11,0Z" transform="translate(0 -70.92)"/><path class="cls-5" d="M295.86,780.33l-1.21-.77Z" transform="translate(0 -70.92)"/><path class="cls-5" d="M247.26,738.13l-.22-.27Z" transform="translate(0 -70.92)"/><path class="cls-4" d="M569,816.55c3.34.09,6.77.13,10.18.19l.26-.38Z" transform="translate(0 -70.92)"/><path class="cls-6" d="M569,816.55c3.34.09,6.77.13,10.18.19l.26-.38Z" transform="translate(0 -70.92)"/><path class="cls-4" d="M579.22,816.74c-.19.29-.4.57-.58.86,2.24-.25,4.48-.47,6.72-.75C583.29,816.83,581.28,816.78,579.22,816.74Z" transform="translate(0 -70.92)"/><path class="cls-7" d="M579.22,816.74c-.19.29-.4.57-.58.86,2.24-.25,4.48-.47,6.72-.75C583.29,816.83,581.28,816.78,579.22,816.74Z" transform="translate(0 -70.92)"/><path class="cls-4" d="M726,677.74c-1.55,2.4-7.61,14.83-6.06,13.6-2,2.31-4.26,4.5-6,6.89l-6.3,9.41q2.62-4.13,0-.49c-5,7-9.23,15.65-13.72,21.88-1.86,2.58-4.27,4.63-6.27,7.1-2.85,3.52-4.75,5.94-6,7.54-1,1-2.1,2.09-3.43,3.41-11.44,11.5-26.23,23.39-36.44,33-6.43,6-20.7,17.19-31.09,17.9a41,41,0,0,0-31.17,18.43l11.1-.2c53.64-7.27,106.32-24,143.83-64.9l.57-.63h-.39l.6-.23c.75-.82,1.51-1.61,2.25-2.45q2.81-3.23,5.45-6.66c17-22.12,28.8-50.06,36.83-79.46-.31-.22-.61-.48-.93-.69C758.85,648.23,738.41,658.47,726,677.74Z" transform="translate(0 -70.92)"/><path class="cls-5" d="M782.28,652c-1.4-.91-15.28-7.45-16.68-8.13-8.41,31.66-14.91,54.66-31.17,76.34-16.13,21.5-33.1,42.75-55.18,56.47A144.9,144.9,0,0,1,641.91,793c-13.71,3.87-27.7,11.33-42.08,10.33-8.8-.61-15.1,5.13-20.35,13l11.1-.2c53.64-7.27,106.32-24,143.83-64.9l.57-.63h-.39l.6-.23c.75-.82,1.51-1.61,2.25-2.45q2.81-3.23,5.45-6.66c17-22.12,28.8-50.06,36.83-79.46C779.41,661.62,782.6,652.17,782.28,652Z" transform="translate(0 -70.92)"/><path class="cls-4" d="M579.22,816.74c2.05,0,4.06.09,6.14.11,1.74-.22,3.48-.45,5.22-.69l-11.1.2Z" transform="translate(0 -70.92)"/><path class="cls-6" d="M579.22,816.74c2.05,0,4.06.09,6.14.11,1.74-.22,3.48-.45,5.22-.69l-11.1.2Z" transform="translate(0 -70.92)"/><path class="cls-7" d="M579.22,816.74c2.05,0,4.06.09,6.14.11,1.74-.22,3.48-.45,5.22-.69l-11.1.2Z" transform="translate(0 -70.92)"/><path class="cls-4" d="M149,518.74c9.05-17.11,13.13-35.43,16.43-54.3a161.62,161.62,0,0,0,.79-49.45c-1.57-11.48-5.16-28.31-20.51-26.12-9.78,1.4-19.78,14.18-17.35,24.13-.07.2,2.19-3.15,2.11-2.88a18.16,18.16,0,0,0-2.11,2.88c-1.11-5.9-2.73-14.37-3-15.21-3.9-10.69-17.1-11.9-26.07-6.82-7.37,4.18-10.54,13.42-13.05,21-.55-1.5-1.14-3-1.68-4.46A17,17,0,0,0,82,402.34a2.42,2.42,0,0,0,.3,1c-3.43-6.11-6.85-12.2-14.43-13.43-16-2.62-29,17.48-22.31,31.52C64.45,461.12,43,508.86,0,522.86L28.3,634.13C76.2,624.48,125,564,149,518.74Z" transform="translate(0 -70.92)"/><path class="cls-4" d="M486,794.29c-3.46-1.73-25-5.09-28.7-7.73a219,219,0,0,0-22.42-14,512.6,512.6,0,0,0-80.14-5.06,21.23,21.23,0,0,1-3.15,2.41.81.81,0,0,1,.08.23c.49,13.54,1.23,31.39-5.46,43.63-3.72,6.8-10.85,6.94-17.63,8.17-19.79,3.59-39,8.57-58.47,13.43-20.11,5-54.45,10.74-61.84,33.48-3.63,11,4,23.92,12.55,30.53,15.69,12.19,37.21,13,56.49,12.29,45.26-1.58,96-.62,136.7-5.06,14.61-1.59,30.27-.33,40.33-12.65,9.4-11.5,12.46-41.15,9.2-54.76C460.83,827.84,473.63,802,486,794.29Z" transform="translate(0 -70.92)"/><path class="cls-4" d="M507,787.48a81.27,81.27,0,0,0,10.86-6.22,219,219,0,0,1,22.74-13.43,512.6,512.6,0,0,1,80.24-3.16,21.23,21.23,0,0,0,3.1,2.48.83.83,0,0,0-.09.22c-.6,10.06,7.65,54.77,15.05,56.8,34.66,9.54,71.84,13.35,105.27,26.47,9.39,3.68,20.58,9.7,20.79,21.14,1.45,10.38-4.49,21.33-13.37,27.91-16,11.82-37.51,12.07-56.76,10.94C649.64,908,604.39,907.16,559.1,907c-14.69,0-30.25-1-40-13.6-9.12-11.72-7.64-27.27-4.06-40.81C518,841.3,519.21,795.5,507,787.48Z" transform="translate(0 -70.92)"/><path class="cls-4" d="M521.09,840c-.83-4.4,0-9-1.32-13.29-2-6.34-12.06-10.88-22-11.74-10.84-.94-24.67,1.78-33.25,6.09-8.83,4.44-10,9.84-8.81,16.39a4.62,4.62,0,0,0,1.44,3.08c-.61-.5,9.94-12.91,11.62-13.85,9.2-5.2,21.12-6.33,31.34-4.2,2.81.59,5.76,1.56,7.49,3.86,5.06,6.77,2.1,14.06,3.28,21.44.51,3.2-.09,4.3,3.83,5.29,2.09.53,5.7.17,6.4-2.32C522.2,847,521.82,843.9,521.09,840Z" transform="translate(0 -70.92)"/><path class="cls-1" d="M768.54,750.64l-.65.63Q774.84,750.5,768.54,750.64Z" transform="translate(0 -70.92)"/><path class="cls-4" d="M768.54,750.64l.24-.23-.68.23Z" transform="translate(0 -70.92)"/><path class="cls-8" d="M768.54,750.64l.24-.23-.68.23Z" transform="translate(0 -70.92)"/><path class="cls-9" d="M397.17,211.67c-14.25-5.1-29.1-4.76-43.89-3-22.05,2.56-45.47,12.67-55.78,33.5-3.68,7.45-.07,15.31,8.56,16.13a1.51,1.51,0,0,0,1.62-1.18c3.22-13.6,16.69-25.35,28.76-30.52,20.69-8.86,45.88-10.49,68.33-8.66a1.49,1.49,0,0,0,.75-2.85Q401.42,213.19,397.17,211.67Z" transform="translate(0 -70.92)"/><path class="cls-9" d="M573,219.21c13.09-7.59,27.76-9.94,42.62-10.92,22.15-1.46,47,4.25,60.91,22.87,5,6.66,2.83,15-5.5,17.42a1.51,1.51,0,0,1-1.8-.87c-5.62-12.79-21-21.92-33.81-24.82-22-5-47-2-68.77,3.83a1.49,1.49,0,0,1-1.25-2.67Q569.09,221.48,573,219.21Z" transform="translate(0 -70.92)"/><path class="cls-10" d="M716.07,511.48c-2.71-7-7.9-12.75-14.48-17.56-12.64-9.22-25.15-13.15-39.69-16.43a117.29,117.29,0,0,0-7.68,12.63c-.17.23-.32.46-.5.68l0,0,0,0c-.35.44-.72.86-1.1,1.27l-.36.37q-.44.45-.9.86l-.37.33a19.87,19.87,0,0,1-2.77,2l-.23.13q-.66.37-1.34.7l-.21.1a21.5,21.5,0,0,1-5,1.61h0a21.85,21.85,0,0,1-5.3.35h0a20.62,20.62,0,0,1-3.41-.48h0c-.52-.12-1-.26-1.52-.42l-.17-.05a17.64,17.64,0,0,1-2.93-1.27l-.2-.12q-.57-.32-1.1-.69l-.27-.19a14.57,14.57,0,0,1-2.26-2l-.24-.28q-.38-.43-.72-.89l-.25-.34a13.48,13.48,0,0,1-.76-1.23l0,0a13.63,13.63,0,0,1-.64-1.38c-.05-.14-.1-.28-.15-.42q-.2-.55-.36-1.12c0-.15-.08-.3-.12-.46a15,15,0,0,1-.3-1.62c-.12-.92-.26-1.78-.42-2.6l0-.1,0-.1q-.24-1.23-.55-2.33v0c-.08-.28-.16-.55-.24-.81l0-.13c-.07-1.4-.17-2.8-.26-4.2-2.09,4.85-4.13,9.85-7.15,13.83a18.4,18.4,0,0,1-11.65,7.44c-9.39,1.76-20.59-2.65-21.61-13.24a56.9,56.9,0,0,0-1.29-8c0-.49,0-1-.07-1.48-3.12,5.74-9.2,11.71-20.23,13.48-6.32,1-13.18,0-17.9-4.4S533,471.95,532,465.8q.89-1.92,1.81-3.81l.79-1.62-3.47.11c.07.46.15.93.23,1.39h0q.31,1.58.63,3.16a78.63,78.63,0,0,0-4.67,9.33l-.38.57c-3.88,5.61-11.84,8.9-19.63,8.43-9.8-.59-13.67-6.63-16.14-13.73-.45-1.28-2.53-6.23-2-7.57A118.06,118.06,0,0,0,483.23,476c-.12.23-.25.47-.38.7-7.73,13.62-29.55,14-33.55-.35a34.21,34.21,0,0,0-2.17-5.85c-.46-2.33-1-4.65-1.48-7a8.22,8.22,0,0,1,.16-.9l0-.92c-.32,1-.56,2-.58,2.1a31.44,31.44,0,0,1-2.09,6.26A34.73,34.73,0,0,1,435.71,481c-15.46,14.93-34.25.38-39.86-15-4.48,11.52-8.91,24.19-23.81,23.56a15.12,15.12,0,0,1-12.49-6.9,24.49,24.49,0,0,1-1.48-2.78c-.49-1.06-3.16-8.12-4.34-11.9-.14.27-.27.52-.35.7a15.47,15.47,0,0,0-.9,2.59c-1.46,5.64-.51,11.72-4.7,16.33-3.46,3.81-8.44,5.74-13.46,6.39a28.61,28.61,0,0,1-5.62.2,21.11,21.11,0,0,1-14.57-7.53,53.18,53.18,0,0,1-7.21-11.78c-.19-.4-.39-1-.66-1.48-15.64,3.9-30.85,10.25-41.19,23-33.61,41.42,3,87.67,36.6,115.12A267.48,267.48,0,0,0,363.6,649c11.8-8.13,25.26-13.58,38.47-19.12,13-5.45,32-9.86,45.91-6.23A82.74,82.74,0,0,1,467.85,632c4.79-3,9.63-5.77,13.8-8.38,31.7-19.81,95.9-7.68,115.74,28.33,3.32-1.14,6.62-2.37,9.91-3.74,25-10.41,49.3-25,68.29-44.31a161.3,161.3,0,0,0,26.16-35c7.36-13.28,16.19-30.4,16.38-45.74A30.92,30.92,0,0,0,716.07,511.48Z" transform="translate(0 -70.92)"/><path class="cls-11" d="M481.66,623.63c-4.17,2.61-9,5.34-13.8,8.38A82.74,82.74,0,0,0,448,623.69c-13.89-3.63-32.93.79-45.91,6.23-13.2,5.54-26.67,11-38.47,19.12q11.79,5.17,24.06,9.27l.3-.15.34.36c49.77,16.57,104.52,19.93,154.84,7.34,18.35-4.59,36.5-7.82,54.25-13.91C577.56,616,513.36,603.82,481.66,623.63ZM552,637.55c.16-1.38.34-1.63.53.08Z" transform="translate(0 -70.92)"/><path class="cls-12" d="M618.29,469c-.19,0,0,0-.3-.1s-.51-.09-.82-.14q-19.7-3.34-39.53-5.83h-.3l-.62,0h0l-1.17,0,.91,0,.06-.11c-2.09-.26-4.17-.54-6.26-.78q-38.46-4.51-77.23-5.64l-2.13-.06h-.1l-1.14,0v0h0v0l-3.32-.08q-8.28-.18-16.57-.2a773.61,773.61,0,0,0-156.22,15.62c-2.42.5-4.85,1-7.27,1.65.27.48.47,1.08.66,1.48a53.18,53.18,0,0,0,7.21,11.78,21.11,21.11,0,0,0,14.57,7.53,28.61,28.61,0,0,0,5.62-.2c5-.65,10-2.58,13.46-6.39,4.19-4.61,3.24-10.68,4.7-16.33a15.47,15.47,0,0,1,.9-2.59c.08-.18.21-.43.35-.7,1.18,3.78,3.85,10.84,4.34,11.9a24.49,24.49,0,0,0,1.48,2.78,15.12,15.12,0,0,0,12.49,6.9c14.89.63,19.33-12,23.81-23.56,5.62,15.42,24.4,30,39.86,15a34.73,34.73,0,0,0,7.42-10.89,31.44,31.44,0,0,0,2.09-6.26c0-.08.26-1.06.58-2.1l0,.92a8.22,8.22,0,0,0-.16.9c.51,2.32,1,4.64,1.48,7a34.21,34.21,0,0,1,2.17,5.85c4,14.35,25.82,14,33.55.35.13-.23.25-.46.38-.7A116.48,116.48,0,0,1,489,462.35l.1,0c-.18,1.65,1.65,6.05,2.07,7.25,2.47,7.1,6.34,13.14,16.14,13.73,7.8.47,15.75-2.81,19.63-8.43l.38-.57a75.76,75.76,0,0,1,4.31-8.69H532l-.06.12c1,6.14,2.4,12.65,7.12,17.08s11.58,5.42,17.9,4.4c11-1.77,17.11-7.74,20.23-13.48,0,.49,0,1,.07,1.48a56.9,56.9,0,0,1,1.29,8c1,10.59,12.21,15,21.61,13.24a18.4,18.4,0,0,0,11.65-7.44c3-4,5.07-9,7.15-13.83.09,1.4.19,2.8.26,4.2l0,.13c.08.26.16.54.24.81v0q.31,1.1.55,2.33l0,.1,0,.1c.16.83.3,1.68.42,2.6a15,15,0,0,0,.3,1.62c0,.15.08.3.12.46q.16.57.36,1.12c.05.14.1.28.15.42a13.63,13.63,0,0,0,.64,1.38l0,0a13.48,13.48,0,0,0,.76,1.23l.25.34q.34.46.72.89l.24.28a14.57,14.57,0,0,0,2.26,2l.27.19q.54.36,1.1.69l.2.12a17.64,17.64,0,0,0,2.93,1.27l.17.05c.5.16,1,.3,1.52.42h0a20.62,20.62,0,0,0,3.41.48h0a21.87,21.87,0,0,0,5.31-.35h0a21.52,21.52,0,0,0,5-1.61l.21-.1q.68-.32,1.34-.7l.23-.13a19.87,19.87,0,0,0,2.77-2l.37-.33q.46-.41.9-.86l.36-.37c.38-.4.75-.82,1.1-1.27l0,0,0,0c.17-.22.33-.46.5-.68a117.29,117.29,0,0,1,7.68-12.63c-1.59-.36-3.2-.71-4.85-1.07q-14.92-3.18-29.94-5.9c-2.83-.51-5.66-1-8.49-1.47" transform="translate(0 -70.92)"/><path class="cls-13" d="M675.08,331.87c-.17,41.06-27.59,68.18-68.64,67.88-37.71-.27-65.62-29.25-65.91-68.43-.29-39.92,27.68-68.29,67.18-68.14C649.17,263.33,675.25,289.93,675.08,331.87Z" transform="translate(0 -70.92)"/><path class="cls-13" d="M362.65,394.88c-36.58-.2-61.92-26.69-61.62-64.42.29-36.6,25.17-65,56.94-64.26,41.35,1,68.86,29.95,68.27,65.7C425.64,369,399.19,395.08,362.65,394.88Z" transform="translate(0 -70.92)"/><path class="cls-14" d="M714.7,238.74l.23.23Z" transform="translate(0 -70.92)"/><path class="cls-14" d="M797.24,358.84a1.27,1.27,0,0,0-.31-.2,1.22,1.22,0,0,1,.31.2,1.75,1.75,0,0,0,.29.21A1.76,1.76,0,0,1,797.24,358.84Z" transform="translate(0 -70.92)"/><path class="cls-14" d="M803.05,396.48l-.42-.49.76.88Z" transform="translate(0 -70.92)"/><path class="cls-14" d="M802.14,709.68" transform="translate(0 -70.92)"/><path class="cls-4" d="M404,290.76a30.5,30.5,0,0,0-47.36,28.56,33,33,0,0,0,21.1,27.25C412.25,359.07,434.56,310.8,404,290.76Z" transform="translate(0 -70.92)"/><path class="cls-15" d="M398.49,299.46a20.34,20.34,0,0,0-31.58,19A22,22,0,0,0,381,336.68C404,345,418.85,312.83,398.49,299.46Z" transform="translate(0 -70.92)"/><circle class="cls-12" cx="405.5" cy="232.09" r="13.46"/><path class="cls-4" d="M635.68,281.87c-20.26-.25-38,18.49-33.9,41.93,3,17.08,18.55,29.88,33.94,29.88C675.08,353.68,676.61,282.37,635.68,281.87Z" transform="translate(0 -70.92)"/><path class="cls-15" d="M635,293.65c-13.61-.17-25.52,12.42-22.77,28.17,2,11.47,12.46,20.07,22.8,20.07C661.43,341.89,662.46,294,635,293.65Z" transform="translate(0 -70.92)"/><circle class="cls-12" cx="653.68" cy="228.61" r="12.06"/><path class="cls-4" d="M525.63,881.75c-19.2-15.19-4.13-30.78-3.84-47.15,0-.26-.05-.5-.06-.75,1.35-.54,2.33-1.42,2.22-2.7,0-.31-.15-.56-.18-.86l0-.09c-.56-3.06-1.94-14.14-4.75-15.93-17.67-15.33-62.36,6.49-62.36,26.62,0,4.37,8.09,11.9,8.1,7.54,0-5.81-1.65-12.34,1.78-17.58,5.45-8.34,22.51-7.21,31-6.91,5.27.19,11.08,2.5,12.92,7.44a21.81,21.81,0,0,1,1.06,4.24,13.18,13.18,0,0,1,1,5.26,45.43,45.43,0,0,1-1.78,10.76c0,.28.07.55.08.83.17,3.9.13,7.8,0,11.69.27,5,.91,10,1.53,14.85.08.64.2,1.28.3,1.92a24.58,24.58,0,0,0,5.29,5.61C522.28,890,529.92,885.14,525.63,881.75Z" transform="translate(0 -70.92)"/><path class="cls-5" d="M425.86,890.1c-40.72,4.44-91.44,3.48-136.7,5.06-19.28.68-40.8-.09-56.49-12.29-8.19-6.37-15.57-18.55-12.89-29.27-5.3,4-9.46,9-11.5,15.28-3.64,11,4,23.92,12.55,30.53,15.69,12.19,37.21,13,56.49,12.29,45.26-1.58,96-.62,136.7-5.06,14.61-1.59,30.27-.33,40.33-12.65A36.59,36.59,0,0,0,460,883C450.32,889.39,437.74,888.8,425.86,890.1Z" transform="translate(0 -70.92)"/><path class="cls-5" d="M481.45,797.91a28.89,28.89,0,0,1,4.56-3.62,13.57,13.57,0,0,0-2.13-.74Q482.6,795.69,481.45,797.91Z" transform="translate(0 -70.92)"/><path class="cls-5" d="M760.47,883.6c-16,11.82-37.51,12.07-56.76,10.94-45.21-2.66-90.47-3.48-135.75-3.61-8.55,0-17.38-.39-25.21-3.16-10.46,0-20-.76-28-9-.8-.83-1.55-1.68-2.3-2.53a32.83,32.83,0,0,0,6.59,17.15c9.77,12.55,25.33,13.56,40,13.6,45.29.13,90.54,1,135.76,3.61,19.25,1.13,40.79.88,56.76-10.94,6.6-4.88,11.55-12.18,13.08-19.86A35.62,35.62,0,0,1,760.47,883.6Z" transform="translate(0 -70.92)"/><path class="cls-5" d="M155.27,400.85c3.88,12.39,4.37,24.78,3.27,37.16a81.46,81.46,0,0,1-4.39,48.62A143.12,143.12,0,0,1,150,511.94c-.92,3.61-2,7.15-3.11,10.64.71-1.29,1.43-2.58,2.1-3.84,9.05-17.11,13.13-35.43,16.43-54.3a161.57,161.57,0,0,0,.79-49.45c-1.57-11.48-5.16-28.31-20.51-26.12a14.09,14.09,0,0,0-1.86.41C148.83,390.61,153.2,394.25,155.27,400.85Z" transform="translate(0 -70.92)"/><path class="cls-5" d="M48,400.15a16.14,16.14,0,0,1,3.85-3.32c.28-.19.58-.35.88-.52a20.09,20.09,0,0,1,3.08-1.47,17.76,17.76,0,0,1,4.5-.93,1.06,1.06,0,0,1,1.2-.11,19.52,19.52,0,0,1,6.16.91,18.39,18.39,0,0,1,9.8,6.86,20.29,20.29,0,0,1,6.71,8.81,14.21,14.21,0,0,1,.69,2.27,12.55,12.55,0,0,0,1.28-.7c-2.61-11.41-11.18-20.84-18.28-22-8.48-1.38-16.07,3.62-20.38,10.69h.1C47.76,400.48,47.87,400.29,48,400.15Z" transform="translate(0 -70.92)"/><path class="cls-5" d="M113,421.49c.13-.16.26-.33.39-.48S113.27,421.15,113,421.49Z" transform="translate(0 -70.92)"/><path class="cls-5" d="M93.84,398.07a20.39,20.39,0,0,1,12.32-5.74c4.45-.32,6.67.41,10.83,1.77,4.67,1.53,8,6.34,9.81,10.68.14.35.24.71.36,1.06-.32-1.55-.72-3.3-1.26-5.38-.29-1.4-.52-2.42-.61-2.68-3.9-10.69-17.1-11.9-26.07-6.82A21.32,21.32,0,0,0,91.57,399c.43,0,1-.14,1.49-.22Z" transform="translate(0 -70.92)"/><path class="cls-4" d="M924.29,518.74c9.05-17.11,13.13-35.43,16.43-54.3A161.62,161.62,0,0,0,941.5,415c-1.57-11.48-5.16-28.31-20.51-26.12-9.78,1.4-19.78,14.18-17.35,24.13-.07.2,2.19-3.15,2.11-2.88a18.16,18.16,0,0,0-2.11,2.88c-1.11-5.9-2.73-14.37-3-15.21-3.9-10.69-17.1-11.9-26.07-6.82-7.37,4.18-10.54,13.42-13.05,21-.55-1.5-1.14-3-1.68-4.46a17,17,0,0,0-2.48-5.14,2.42,2.42,0,0,0,.3,1c-3.43-6.11-6.85-12.2-14.43-13.43-16-2.62-29,17.48-22.31,31.52,18.87,39.66-2.59,87.4-45.57,101.4l28.3,111.27C851.52,624.48,900.35,564,924.29,518.74Z" transform="translate(0 -70.92)"/><path class="cls-5" d="M930.59,400.85c3.88,12.39,4.37,24.78,3.27,37.16a81.46,81.46,0,0,1-4.39,48.62,143.12,143.12,0,0,1-4.17,25.31c-.92,3.61-2,7.15-3.11,10.64.71-1.29,1.43-2.58,2.1-3.84,9.05-17.11,13.13-35.43,16.43-54.3A161.57,161.57,0,0,0,941.5,415c-1.57-11.48-5.16-28.31-20.51-26.12a14.09,14.09,0,0,0-1.86.41C924.15,390.61,928.52,394.25,930.59,400.85Z" transform="translate(0 -70.92)"/><path class="cls-5" d="M823.34,400.15a16.14,16.14,0,0,1,3.85-3.32c.28-.19.58-.35.88-.52a20.09,20.09,0,0,1,3.08-1.47,17.76,17.76,0,0,1,4.5-.93,1.06,1.06,0,0,1,1.2-.11,19.52,19.52,0,0,1,6.16.91,18.39,18.39,0,0,1,9.8,6.86,20.29,20.29,0,0,1,6.71,8.81,14.21,14.21,0,0,1,.69,2.27,12.55,12.55,0,0,0,1.28-.7c-2.61-11.41-11.18-20.84-18.28-22-8.48-1.38-16.07,3.62-20.38,10.69h.1C823.08,400.48,823.19,400.29,823.34,400.15Z" transform="translate(0 -70.92)"/><path class="cls-5" d="M888.34,421.49c.13-.16.26-.33.39-.48S888.59,421.15,888.34,421.49Z" transform="translate(0 -70.92)"/><path class="cls-5" d="M869.16,398.07a20.39,20.39,0,0,1,12.32-5.74c4.45-.32,6.67.41,10.83,1.77,4.67,1.53,8,6.34,9.81,10.68.14.35.24.71.36,1.06-.32-1.55-.72-3.3-1.26-5.38-.29-1.4-.52-2.42-.61-2.68-3.9-10.69-17.1-11.9-26.07-6.82a21.32,21.32,0,0,0-7.65,8.05c.43,0,1-.14,1.49-.22Z" transform="translate(0 -70.92)"/><path class="cls-5" d="M787.37,735.41c.21-3.58,2.64-7,5-10.56,22.47-33.68,13.82-84.81-19.7-107.39-.6,4.64-6,21.75-7.12,26.38-.33,1.36.13,2.38-.39,3.6,20.87,24.35,26.65,53.73,8.07,81.57-2.39,3.58-4.82,7-5,10.56a17.2,17.2,0,0,0,10.4,19.24,28.3,28.3,0,0,0,8,2.54c5,.57,9.5-.94,13.64-3.49a21.67,21.67,0,0,0,2-1.46c-1.51-.49-3-1.1-4.47-1.74A17.2,17.2,0,0,1,787.37,735.41Z" transform="translate(0 -70.92)"/><path class="cls-16" d="M771.37,434.7c1.87,8.14-6.18,13.68-17.92,17-12.84,3.63-21.54-.39-24.67-13.43-3.34-13.9.43-26.44,14.53-31.15C761.65,401,765.05,416.51,771.37,434.7Z" transform="translate(0 -70.92)"/><path class="cls-16" d="M734.82,365.64c9.27-.1,15.74,3,17.73,11.7,2,8.91-3.79,12.35-11.24,14.2-8.55,2.13-12.91-1.83-15.17-9.75C723.57,372.86,729.86,369.59,734.82,365.64Z" transform="translate(0 -70.92)"/><path class="cls-16" d="M746.37,491.62c-7.18,1.33-14.49-.41-16.44-8.26-1.81-7.28,2.26-14.31,10-16.26,6.8-1.72,12.39,1.29,14.32,9C756.06,483.35,754.27,488.65,746.37,491.62Z" transform="translate(0 -70.92)"/><path class="cls-16" d="M211.58,443.86c-2.42,10.55,8,17.73,23.23,22,16.64,4.71,27.92-.5,32-17.41,4.33-18-.56-34.27-18.83-40.37C224.18,400.17,219.77,420.29,211.58,443.86Z" transform="translate(0 -70.92)"/><path class="cls-16" d="M259,354.35c-12-.12-20.4,3.9-23,15.16-2.64,11.55,4.91,16,14.57,18.41,11.09,2.76,16.73-2.38,19.67-12.63C273.55,363.7,265.4,359.47,259,354.35Z" transform="translate(0 -70.92)"/></g></g></g></g></svg>