<svg xmlns="http://www.w3.org/2000/svg" viewBox="0 0 273.22 156.95"><defs><style>.cls-1{isolation:isolate;}.cls-2{fill:#9e1a2b;}.cls-3{fill:#b01a3d;}.cls-4{fill:#cfaa90;}.cls-4,.cls-7{mix-blend-mode:multiply;}.cls-5{fill:#e3b057;}.cls-6{fill:#69a63b;}.cls-7{fill:#bad985;}</style></defs><title>Cherries</title><g class="cls-1"><g id="Layer_2" data-name="Layer 2"><g id="Layer_1-2" data-name="Layer 1"><circle class="cls-2" cx="13.13" cy="43.09" r="13.13" transform="translate(-9.28 4.01) rotate(-12.89)"/><path class="cls-3" d="M17.53,52A14.42,14.42,0,1,0,28.38,34.68,14.41,14.41,0,0,0,17.53,52Z"/><path class="cls-4" d="M10.1,55.73a12.64,12.64,0,0,0,5.93,0,11.87,11.87,0,0,0,2.55-.85,15,15,0,0,1-1.06-3.06,14.18,14.18,0,0,1,1.73-10.7Z"/><path class="cls-5" d="M37.74.83A3.09,3.09,0,0,0,33.36,1L30,4.64a3,3,0,0,0-.76,2.5A54,54,0,0,0,14.09,32.56a1.67,1.67,0,0,0,1.21,2,1.58,1.58,0,0,0,.41.06,1.67,1.67,0,0,0,1.62-1.26A51.53,51.53,0,0,1,28.6,12.48a46.17,46.17,0,0,0,.66,26.27,1.67,1.67,0,0,0,1.58,1.12,1.5,1.5,0,0,0,.55-.1,1.66,1.66,0,0,0,1-2.12A42.47,42.47,0,0,1,33,9.7a3.05,3.05,0,0,0,1.58-.87l3.35-3.63A3.11,3.11,0,0,0,37.74.83Z"/><path class="cls-6" d="M33.76,4.1a26.89,26.89,0,0,0,8.45,22.26,25.62,25.62,0,0,0,22.61,6.05,26.87,26.87,0,0,0-8.47-22.23A25.64,25.64,0,0,0,33.76,4.1Z"/><path class="cls-7" d="M33.76,4.1a26.87,26.87,0,0,0,8.45,22.25,25.64,25.64,0,0,0,22.6,6.06L53.93,22.67l-.82,6.09-1.22-8.12Z"/><circle class="cls-2" cx="61.15" cy="101.83" r="13.13" transform="translate(-21.17 16.2) rotate(-12.89)"/><path class="cls-3" d="M65.55,110.7A14.42,14.42,0,1,0,76.39,93.42,14.41,14.41,0,0,0,65.55,110.7Z"/><path class="cls-4" d="M58.12,114.47a12.64,12.64,0,0,0,5.93,0,11.87,11.87,0,0,0,2.55-.85,15,15,0,0,1-1.06-3.06,14.18,14.18,0,0,1,1.73-10.7Z"/><path class="cls-5" d="M85.75,59.56a3.09,3.09,0,0,0-4.38.17L78,63.38a3,3,0,0,0-.76,2.5A54,54,0,0,0,62.11,91.3a1.67,1.67,0,0,0,1.21,2,1.58,1.58,0,0,0,.41.06,1.67,1.67,0,0,0,1.62-1.26,51.53,51.53,0,0,1,11.27-20.9,46.17,46.17,0,0,0,.66,26.27,1.67,1.67,0,0,0,1.58,1.12,1.5,1.5,0,0,0,.55-.1,1.66,1.66,0,0,0,1-2.12A42.47,42.47,0,0,1,81,68.44a3.05,3.05,0,0,0,1.58-.87l3.35-3.63A3.11,3.11,0,0,0,85.75,59.56Z"/><path class="cls-6" d="M81.77,62.84A26.89,26.89,0,0,0,90.22,85.1a25.62,25.62,0,0,0,22.61,6.05,26.87,26.87,0,0,0-8.47-22.23A25.64,25.64,0,0,0,81.77,62.84Z"/><path class="cls-7" d="M81.78,62.84A26.87,26.87,0,0,0,90.22,85.1a25.64,25.64,0,0,0,22.6,6.06L102,81.41l-.82,6.09-1.22-8.12Z"/><circle class="cls-2" cx="165.57" cy="64.48" r="13.13" transform="translate(-10.21 38.55) rotate(-12.89)"/><path class="cls-3" d="M170,73.35a14.42,14.42,0,1,0,10.84-17.28A14.41,14.41,0,0,0,170,73.35Z"/><path class="cls-4" d="M162.54,77.12a12.64,12.64,0,0,0,5.93,0,11.87,11.87,0,0,0,2.55-.85A15,15,0,0,1,170,73.23a14.18,14.18,0,0,1,1.73-10.7Z"/><path class="cls-5" d="M190.18,22.21a3.09,3.09,0,0,0-4.38.17L182.44,26a3,3,0,0,0-.76,2.5,54,54,0,0,0-15.16,25.41,1.67,1.67,0,0,0,1.21,2,1.58,1.58,0,0,0,.41.06,1.67,1.67,0,0,0,1.62-1.26A51.53,51.53,0,0,1,181,33.87a46.17,46.17,0,0,0,.66,26.27,1.67,1.67,0,0,0,1.58,1.12,1.5,1.5,0,0,0,.55-.1,1.66,1.66,0,0,0,1-2.12,42.47,42.47,0,0,1,.57-27.95,3.05,3.05,0,0,0,1.58-.87l3.35-3.63A3.11,3.11,0,0,0,190.18,22.21Z"/><path class="cls-6" d="M186.19,25.49a26.89,26.89,0,0,0,8.45,22.26,25.62,25.62,0,0,0,22.61,6.05,26.87,26.87,0,0,0-8.47-22.23A25.64,25.64,0,0,0,186.19,25.49Z"/><path class="cls-7" d="M186.2,25.49a26.87,26.87,0,0,0,8.45,22.25,25.64,25.64,0,0,0,22.6,6.06l-10.88-9.74-.82,6.09L204.33,42Z"/><circle class="cls-2" cx="129.39" cy="136.87" r="13.13" transform="translate(-27.27 32.31) rotate(-12.89)"/><path class="cls-3" d="M133.79,145.74a14.42,14.42,0,1,0,10.84-17.28A14.41,14.41,0,0,0,133.79,145.74Z"/><path class="cls-4" d="M126.36,149.51a12.64,12.64,0,0,0,5.93,0,11.87,11.87,0,0,0,2.55-.85,15,15,0,0,1-1.06-3.06,14.18,14.18,0,0,1,1.73-10.7Z"/><path class="cls-5" d="M154,94.61a3.09,3.09,0,0,0-4.38.17l-3.35,3.65a3,3,0,0,0-.76,2.5,54,54,0,0,0-15.16,25.41,1.67,1.67,0,0,0,1.21,2,1.58,1.58,0,0,0,.41.06,1.67,1.67,0,0,0,1.62-1.26,51.53,51.53,0,0,1,11.27-20.9,46.17,46.17,0,0,0,.66,26.27,1.67,1.67,0,0,0,1.58,1.12,1.5,1.5,0,0,0,.55-.1,1.66,1.66,0,0,0,1-2.12,42.47,42.47,0,0,1,.57-27.95,3.05,3.05,0,0,0,1.58-.87L154.17,99A3.11,3.11,0,0,0,154,94.61Z"/><path class="cls-6" d="M150,97.88a26.89,26.89,0,0,0,8.45,22.26,25.62,25.62,0,0,0,22.61,6.05A26.87,26.87,0,0,0,172.61,104,25.64,25.64,0,0,0,150,97.88Z"/><path class="cls-7" d="M150,97.89a26.87,26.87,0,0,0,8.45,22.25,25.64,25.64,0,0,0,22.6,6.06l-10.88-9.74-.82,6.09-1.22-8.12Z"/><circle class="cls-2" cx="221.43" cy="125.85" r="13.13" transform="translate(-22.49 52.56) rotate(-12.89)"/><path class="cls-3" d="M225.83,134.71a14.42,14.42,0,1,0,10.84-17.28A14.41,14.41,0,0,0,225.83,134.71Z"/><path class="cls-4" d="M218.4,138.48a12.64,12.64,0,0,0,5.93,0,11.87,11.87,0,0,0,2.55-.85,15,15,0,0,1-1.06-3.06,14.18,14.18,0,0,1,1.73-10.7Z"/><path class="cls-5" d="M246,83.58a3.09,3.09,0,0,0-4.38.17l-3.35,3.65a3,3,0,0,0-.76,2.5,54,54,0,0,0-15.16,25.41,1.67,1.67,0,0,0,1.21,2,1.58,1.58,0,0,0,.41.06,1.67,1.67,0,0,0,1.62-1.26,51.53,51.53,0,0,1,11.27-20.9,46.17,46.17,0,0,0,.66,26.27,1.67,1.67,0,0,0,1.58,1.12,1.5,1.5,0,0,0,.55-.1,1.66,1.66,0,0,0,1-2.12,42.47,42.47,0,0,1,.57-27.95,3.05,3.05,0,0,0,1.58-.87L246.21,88A3.11,3.11,0,0,0,246,83.58Z"/><path class="cls-6" d="M242.06,86.86a26.89,26.89,0,0,0,8.45,22.26,25.62,25.62,0,0,0,22.61,6.05,26.87,26.87,0,0,0-8.47-22.23A25.64,25.64,0,0,0,242.06,86.86Z"/><path class="cls-7" d="M242.06,86.86a26.87,26.87,0,0,0,8.45,22.25,25.64,25.64,0,0,0,22.6,6.06l-10.88-9.74-.82,6.09-1.22-8.12Z"/></g></g></g></svg>