<svg xmlns="http://www.w3.org/2000/svg" viewBox="0 0 273.48 192.65"><defs><style>.cls-1{fill:#8c6196;}.cls-2{fill:#9e70a1;}.cls-3{fill:#82a63b;}</style></defs><title>Berries</title><g id="Layer_2" data-name="Layer 2"><g id="Layer_1-2" data-name="Layer 1"><ellipse class="cls-1" cx="38.43" cy="155.35" rx="8.51" ry="9.36"/><ellipse class="cls-2" cx="31.18" cy="143.88" rx="8.51" ry="9.35"/><ellipse class="cls-2" cx="46.15" cy="143.88" rx="8.51" ry="9.35"/><ellipse class="cls-1" cx="23.47" cy="131.25" rx="8.51" ry="9.36"/><ellipse class="cls-1" cx="38.43" cy="131.25" rx="8.51" ry="9.36"/><ellipse class="cls-1" cx="53.39" cy="131.25" rx="8.51" ry="9.36"/><ellipse class="cls-2" cx="16.22" cy="119.79" rx="8.5" ry="9.36"/><ellipse class="cls-2" cx="31.18" cy="119.79" rx="8.51" ry="9.36"/><ellipse class="cls-2" cx="46.15" cy="119.79" rx="8.51" ry="9.36"/><ellipse class="cls-2" cx="61.11" cy="119.79" rx="8.51" ry="9.36"/><ellipse class="cls-1" cx="8.5" cy="107.16" rx="8.51" ry="9.36"/><ellipse class="cls-1" cx="23.47" cy="107.16" rx="8.51" ry="9.36"/><ellipse class="cls-1" cx="38.43" cy="107.16" rx="8.51" ry="9.36"/><ellipse class="cls-1" cx="53.39" cy="107.16" rx="8.51" ry="9.36"/><ellipse class="cls-1" cx="68.36" cy="107.16" rx="8.5" ry="9.36"/><ellipse class="cls-2" cx="16.22" cy="95.84" rx="8.5" ry="9.36"/><ellipse class="cls-2" cx="31.18" cy="95.84" rx="8.51" ry="9.36"/><ellipse class="cls-2" cx="46.15" cy="95.84" rx="8.51" ry="9.36"/><ellipse class="cls-2" cx="61.11" cy="95.84" rx="8.51" ry="9.36"/><path class="cls-3" d="M50.21,72.58a14.41,14.41,0,0,0-4.24.63,16.87,16.87,0,0,0,.26-3,18.42,18.42,0,0,0-7.72-15,19.36,19.36,0,0,0-7.75,15.28A17.51,17.51,0,0,0,31,73.34a14.36,14.36,0,0,0-16.31,5.29,15.19,15.19,0,0,0,12,6.09h9.12V82.41a2.53,2.53,0,0,1,.28-1.17A2.56,2.56,0,0,1,37.32,80a2.53,2.53,0,0,1,1.1-.25,2.57,2.57,0,0,1,1.32.36,2.75,2.75,0,0,1,.55.43,2,2,0,0,1,.32.39,2.58,2.58,0,0,1,.45,1.48v2.31h9.39A14.48,14.48,0,0,0,62.2,78.66,15.26,15.26,0,0,0,50.21,72.58Z"/><ellipse class="cls-1" cx="137.93" cy="183.3" rx="8.51" ry="9.36"/><ellipse class="cls-2" cx="130.69" cy="171.83" rx="8.51" ry="9.35"/><ellipse class="cls-2" cx="145.65" cy="171.83" rx="8.51" ry="9.35"/><ellipse class="cls-1" cx="122.97" cy="159.2" rx="8.51" ry="9.36"/><ellipse class="cls-1" cx="137.93" cy="159.2" rx="8.51" ry="9.36"/><ellipse class="cls-1" cx="152.89" cy="159.2" rx="8.51" ry="9.36"/><ellipse class="cls-2" cx="115.72" cy="147.73" rx="8.5" ry="9.36"/><ellipse class="cls-2" cx="130.69" cy="147.73" rx="8.51" ry="9.36"/><ellipse class="cls-2" cx="145.65" cy="147.73" rx="8.51" ry="9.36"/><ellipse class="cls-2" cx="160.61" cy="147.73" rx="8.51" ry="9.36"/><ellipse class="cls-1" cx="108.01" cy="135.1" rx="8.51" ry="9.36"/><ellipse class="cls-1" cx="122.97" cy="135.1" rx="8.51" ry="9.36"/><ellipse class="cls-1" cx="137.93" cy="135.1" rx="8.51" ry="9.36"/><ellipse class="cls-1" cx="152.89" cy="135.1" rx="8.51" ry="9.36"/><ellipse class="cls-1" cx="167.86" cy="135.1" rx="8.5" ry="9.36"/><ellipse class="cls-2" cx="115.72" cy="123.79" rx="8.5" ry="9.36"/><ellipse class="cls-2" cx="130.69" cy="123.79" rx="8.51" ry="9.36"/><ellipse class="cls-2" cx="145.65" cy="123.79" rx="8.51" ry="9.36"/><ellipse class="cls-2" cx="160.61" cy="123.79" rx="8.51" ry="9.36"/><path class="cls-3" d="M149.71,100.52a14.41,14.41,0,0,0-4.24.63,16.87,16.87,0,0,0,.26-3,18.42,18.42,0,0,0-7.72-15,19.36,19.36,0,0,0-7.75,15.28,17.51,17.51,0,0,0,.22,2.79,14.36,14.36,0,0,0-16.31,5.29,15.19,15.19,0,0,0,12,6.09h9.12v-2.31a2.53,2.53,0,0,1,.28-1.17,2.56,2.56,0,0,1,1.27-1.23,2.53,2.53,0,0,1,1.1-.25,2.57,2.57,0,0,1,1.32.36,2.75,2.75,0,0,1,.55.43,2,2,0,0,1,.32.39,2.58,2.58,0,0,1,.45,1.48v2.31h9.39a14.48,14.48,0,0,0,11.77-6.06A15.26,15.26,0,0,0,149.71,100.52Z"/><ellipse class="cls-1" cx="235.05" cy="100.09" rx="8.51" ry="9.36"/><ellipse class="cls-2" cx="227.8" cy="88.62" rx="8.51" ry="9.35"/><ellipse class="cls-2" cx="242.77" cy="88.62" rx="8.51" ry="9.35"/><ellipse class="cls-1" cx="220.08" cy="75.99" rx="8.51" ry="9.36"/><ellipse class="cls-1" cx="235.05" cy="75.99" rx="8.51" ry="9.36"/><ellipse class="cls-1" cx="250.01" cy="75.99" rx="8.51" ry="9.36"/><ellipse class="cls-2" cx="212.84" cy="64.52" rx="8.5" ry="9.36"/><ellipse class="cls-2" cx="227.8" cy="64.52" rx="8.51" ry="9.36"/><ellipse class="cls-2" cx="242.77" cy="64.52" rx="8.51" ry="9.36"/><ellipse class="cls-2" cx="257.73" cy="64.52" rx="8.51" ry="9.36"/><ellipse class="cls-1" cx="205.12" cy="51.89" rx="8.51" ry="9.36"/><ellipse class="cls-1" cx="220.08" cy="51.89" rx="8.51" ry="9.36"/><ellipse class="cls-1" cx="235.05" cy="51.89" rx="8.51" ry="9.36"/><ellipse class="cls-1" cx="250.01" cy="51.89" rx="8.51" ry="9.36"/><ellipse class="cls-1" cx="264.97" cy="51.89" rx="8.5" ry="9.36"/><ellipse class="cls-2" cx="212.84" cy="40.58" rx="8.5" ry="9.36"/><ellipse class="cls-2" cx="227.8" cy="40.58" rx="8.51" ry="9.36"/><ellipse class="cls-2" cx="242.77" cy="40.58" rx="8.51" ry="9.36"/><ellipse class="cls-2" cx="257.73" cy="40.58" rx="8.51" ry="9.36"/><path class="cls-3" d="M246.82,17.32a14.41,14.41,0,0,0-4.24.63,16.87,16.87,0,0,0,.26-3,18.42,18.42,0,0,0-7.72-15,19.36,19.36,0,0,0-7.75,15.28,17.51,17.51,0,0,0,.22,2.79,14.36,14.36,0,0,0-16.31,5.29,15.19,15.19,0,0,0,12,6.09h9.12V27.15a2.53,2.53,0,0,1,.28-1.17,2.56,2.56,0,0,1,1.27-1.23,2.53,2.53,0,0,1,1.1-.25,2.57,2.57,0,0,1,1.32.36,2.75,2.75,0,0,1,.55.43,2,2,0,0,1,.32.39,2.58,2.58,0,0,1,.45,1.48v2.31h9.39a14.48,14.48,0,0,0,11.77-6.06A15.26,15.26,0,0,0,246.82,17.32Z"/></g></g></svg>