<svg xmlns="http://www.w3.org/2000/svg" viewBox="0 0 462.59 129.35"><defs><style>.cls-1{isolation:isolate;}.cls-2{fill:#9cd99e;}.cls-3{fill:#edc46e;}.cls-4{fill:#e8d1b5;mix-blend-mode:multiply;}.cls-5{fill:#ffd46e;}.cls-6{fill:#a0642f;}</style></defs><title>Icecream</title><g class="cls-1"><g id="Layer_2" data-name="Layer 2"><g id="Layer_1-2" data-name="Layer 1"><circle class="cls-2" cx="26.1" cy="25.79" r="25.79" transform="translate(-0.05 0.05) rotate(-0.12)"/><path class="cls-3" d="M52.24,34.19l-1,4L48.17,50.48,46.39,57.6,44.56,65l-.84,3.33v.07l-1.4,5.58-.42,1.69L41.06,79l-1.81,7.25-1.4,5.59L36.56,97l-.84,3.33-.94,3.77L33.06,111l-1.83,7.34-.83,3.35-1.19,4.76v0l-.34,1.36a2.9,2.9,0,0,1-5.12,0l-.33-1.26L22,121.07l-.86-3.34-1.77-7L18,105.17l-1.38-5.43-.85-3.34-.89-3.51-1.82-7.16L11.2,78.41l-.84-3.36h0L8.93,69.46,8.5,67.73l-.86-3.34-1.83-7.2L4.39,51.61,1.28,39.35,0,34.3Z"/><path class="cls-4" d="M52.24,34.19H51.05l-11.94,12-4.6-4.58,7.36-7.39H37.69l-5.28,5.3-4.6-4.58.7-.7H22.93l.7.7-4.58,4.59-5.29-5.27H9.58L17,41.64l-4.57,4.6L.4,34.3H0l1.28,5.05,9,9-4.57,4.6L4.39,51.61l1.42,5.58,4.51,4.51-2.69,2.7.86,3.34,3.93-3.95L17,68.37,12.45,73l-3.51-3.5L10.34,75h0l.84,3.36,1.26-1.26,4.59,4.57-4,4,1.82,7.16,2.2,2.19L15.77,96.4l.85,3.34,2.56-2.57,4.6,4.58-4.58,4.6L18,105.17l1.42,5.58,4.38,4.36-2.62,2.63.86,3.34,3.86-3.87,4.5,4.49.83-3.35L28,115.1l4.58-4.59.49.49,1.73-6.91-2.24,2.24L28,101.75l4.58-4.6,3.19,3.18L36.56,97,34.62,95l3.24-3.25,1.4-5.59-.06.06-4.6-4.58,4.58-4.59L41.06,79l.83-3.34L41.26,75l1.05-1.06,1.4-5.58L39.17,72.9l-4.6-4.57,4.58-4.6,4.57,4.55L44.56,65l-3.33-3.31L45.81,57l.57.57,1.78-7.12-2.36,2.37-4.6-4.58,10-10.07ZM37,48.28l-4.58,4.6-4.6-4.58,4.58-4.59ZM21.2,68.36l4.58-4.6,4.6,4.58L25.8,72.93Zm9.22,13.33-4.58,4.6-4.6-4.58,4.58-4.59ZM21.17,55l4.58-4.6L30.36,55l-4.58,4.6Zm4.55-18,4.6,4.57-4.58,4.6-4.6-4.58Zm-6.67,6.7,4.6,4.57-4.58,4.6-4.59-4.58ZM7.82,55l4.58-4.6L17,55l-4.57,4.6Zm6.7,6.67,4.57-4.6,4.6,4.58-4.58,4.6Zm0,13.35,4.57-4.59L23.72,75l-4.58,4.6Zm0,13.36,4.58-4.6,4.6,4.58L19.16,93Zm15.9,20L25.88,113l-4.6-4.57,4.58-4.6Zm-4.61-8.76-4.6-4.58,4.58-4.6,4.6,4.58Zm11.25-11.3L32.53,93l-4.6-4.58,4.58-4.6Zm0-13.36L32.5,79.6,27.9,75l4.58-4.6Zm-4.61-8.75-4.6-4.58,4.58-4.6,4.6,4.58Zm11.25-11.3-4.58,4.6L34.53,55l4.59-4.6Z"/><rect class="cls-5" x="0.02" y="34.25" width="52.24" height="15.69" transform="translate(-0.09 0.05) rotate(-0.12)"/><path class="cls-2" d="M22.67,34.25a8.22,8.22,0,1,1-8.23-8.2A8.22,8.22,0,0,1,22.67,34.25Z"/><circle class="cls-2" cx="23.51" cy="33.74" r="5.61" transform="translate(-0.06 0.05) rotate(-0.11)"/><rect class="cls-6" x="34.94" y="13.5" width="1.97" height="2.65" transform="translate(-2.15 22.6) rotate(-33.96)"/><rect class="cls-6" x="6.86" y="14.45" width="1.97" height="3.05" transform="translate(-0.04 0.02) rotate(-0.15)"/><polygon class="cls-6" points="35.8 9.59 32.85 8.09 33.74 6.33 36.7 7.83 35.8 9.59"/><rect class="cls-6" x="31.73" y="20.65" width="1.97" height="2.69" transform="translate(-5.66 31.01) rotate(-47.13)"/><rect class="cls-6" x="30.16" y="1.84" width="2.14" height="1.97" transform="matrix(1, 0, 0, 1, 0, 0.05)"/><polygon class="cls-6" points="47.67 19.22 45.36 17.04 46.72 15.61 49.02 17.79 47.67 19.22"/><rect class="cls-6" x="47.38" y="23.37" width="1.97" height="4.78" transform="translate(-4.8 12.47) rotate(-14)"/><rect class="cls-6" x="40.73" y="24.57" width="1.97" height="3.55" transform="translate(-4.19 8.26) rotate(-10.77)"/><polygon class="cls-6" points="23.43 26.07 22.71 24.24 25.31 23.21 26.04 25.04 23.43 26.07"/><rect class="cls-6" x="9.43" y="28.47" width="2.63" height="1.97" transform="translate(-20.19 34.52) rotate(-79.25)"/><polygon class="cls-6" points="18.87 22.94 16.9 22.94 16.89 21.53 18.86 21.53 18.87 22.94"/><rect class="cls-6" x="10.37" y="6.13" width="3.38" height="1.97" transform="matrix(0.8, -0.6, 0.6, 0.8, -1.86, 8.65)"/><rect class="cls-6" x="1.24" y="23.91" width="2.74" height="1.97" transform="translate(-22.42 24.54) rotate(-83.2)"/><rect class="cls-6" x="41.51" y="7.81" width="1.98" height="2.91" transform="translate(2.22 25.7) rotate(-34.5)"/><polygon class="cls-6" points="42.84 18.85 40.54 18.86 40.54 16.89 42.84 16.88 42.84 18.85"/><rect class="cls-6" x="24.78" y="6.24" width="3.64" height="1.97" transform="translate(-0.92 8.81) rotate(-18.5)"/><rect class="cls-6" x="20.92" y="1.42" width="3.88" height="1.97" transform="translate(0.04 5.17) rotate(-12.92)"/><polygon class="cls-6" points="18.21 15.29 15.09 13.55 16.04 11.83 19.17 13.56 18.21 15.29"/><rect class="cls-6" x="25.63" y="12.94" width="1.98" height="3.79" transform="translate(6.14 37.41) rotate(-76.91)"/><circle class="cls-2" cx="108.16" cy="25.79" r="25.79" transform="translate(-0.05 0.22) rotate(-0.12)"/><path class="cls-3" d="M134.3,34.19l-1,4-3.07,12.29-1.78,7.12L126.62,65l-.84,3.33v.07l-1.4,5.58L124,75.62,123.13,79l-1.81,7.25-1.4,5.59L118.63,97l-.84,3.33-.94,3.77L115.12,111l-1.83,7.34-.83,3.35-1.19,4.76v0l-.34,1.36a2.9,2.9,0,0,1-5.12,0l-.33-1.26-1.38-5.46-.86-3.34-1.77-7-1.42-5.58-1.38-5.43-.85-3.34-.89-3.51-1.82-7.16-1.86-7.32-.84-3.36h0L91,69.46l-.44-1.73-.86-3.34-1.83-7.2-1.42-5.58L83.35,39.35,82.06,34.3Z"/><path class="cls-4" d="M134.3,34.19h-1.18l-11.94,12-4.6-4.58,7.36-7.39h-4.18l-5.28,5.3-4.6-4.58.7-.7H105l.7.7-4.58,4.59-5.29-5.27H91.64L99,41.64l-4.57,4.6-12-11.94h-.4l1.28,5.05,9,9-4.57,4.6-1.33-1.33,1.42,5.58,4.51,4.51-2.69,2.7.86,3.34,3.93-3.95,4.59,4.58L94.51,73,91,69.46,92.41,75h0l.84,3.36,1.26-1.26,4.59,4.57-4,4,1.82,7.16,2.2,2.19L97.83,96.4l.85,3.34,2.56-2.57,4.6,4.58-4.58,4.6-1.2-1.19,1.42,5.58,4.38,4.36-2.62,2.63.86,3.34L108,117.2l4.5,4.49.83-3.35L110,115.1l4.58-4.59.49.49,1.73-6.91-2.24,2.24-4.6-4.58,4.58-4.6,3.19,3.18.84-3.33L116.68,95l3.24-3.25,1.4-5.59-.06.06-4.6-4.58,4.58-4.59L123.13,79l.83-3.34-.63-.63,1.05-1.06,1.4-5.58-4.55,4.55-4.6-4.57,4.58-4.6,4.57,4.55.84-3.33-3.33-3.31,4.58-4.6.57.57,1.78-7.12-2.36,2.37-4.6-4.58,10-10.07ZM119.09,48.28l-4.58,4.6-4.6-4.58,4.58-4.59ZM103.26,68.36l4.58-4.6,4.6,4.58-4.58,4.59Zm9.22,13.33-4.58,4.6-4.6-4.58,4.58-4.59ZM103.24,55l4.58-4.6,4.6,4.58-4.58,4.6Zm4.55-18,4.6,4.57-4.58,4.6-4.6-4.58Zm-6.67,6.7,4.6,4.57-4.58,4.6-4.59-4.58ZM89.88,55l4.58-4.6L99.06,55l-4.57,4.6Zm6.7,6.67,4.57-4.6,4.6,4.58-4.58,4.6Zm0,13.35,4.57-4.59,4.6,4.57-4.58,4.6Zm0,13.36,4.58-4.6,4.6,4.58L101.23,93Zm15.9,20L107.95,113l-4.6-4.57,4.58-4.6Zm-4.61-8.76-4.6-4.58,4.58-4.6,4.6,4.58Zm11.25-11.3L114.59,93,110,88.38l4.58-4.6Zm0-13.36-4.59,4.6L110,75l4.58-4.6Zm-4.61-8.75-4.6-4.58,4.58-4.6,4.6,4.58Zm11.25-11.3-4.58,4.6L116.6,55l4.59-4.6Z"/><rect class="cls-5" x="82.08" y="34.25" width="52.24" height="15.69" transform="translate(-0.09 0.22) rotate(-0.12)"/><path class="cls-2" d="M104.74,34.25a8.22,8.22,0,1,1-8.23-8.2A8.22,8.22,0,0,1,104.74,34.25Z"/><circle class="cls-2" cx="105.57" cy="33.74" r="5.61" transform="translate(-0.06 0.2) rotate(-0.11)"/><rect class="cls-6" x="117.01" y="13.5" width="1.97" height="2.65" transform="translate(11.85 68.45) rotate(-33.96)"/><rect class="cls-6" x="88.93" y="14.45" width="1.97" height="3.05" transform="matrix(1, 0, 0, 1, -0.04, 0.24)"/><polygon class="cls-6" points="117.87 9.59 114.91 8.09 115.8 6.33 118.76 7.83 117.87 9.59"/><rect class="cls-6" x="113.79" y="20.65" width="1.97" height="2.69" transform="translate(20.57 91.15) rotate(-47.13)"/><rect class="cls-6" x="112.23" y="1.84" width="2.14" height="1.97" transform="matrix(1, 0, 0, 1, 0, 0.17)"/><polygon class="cls-6" points="129.73 19.22 127.43 17.04 128.78 15.61 131.09 17.79 129.73 19.22"/><rect class="cls-6" x="129.44" y="23.37" width="1.97" height="4.78" transform="translate(-2.36 32.32) rotate(-14)"/><rect class="cls-6" x="122.79" y="24.57" width="1.97" height="3.55" transform="translate(-2.74 23.6) rotate(-10.77)"/><polygon class="cls-6" points="105.5 26.07 104.77 24.24 107.38 23.21 108.11 25.04 105.5 26.07"/><rect class="cls-6" x="91.5" y="28.47" width="2.63" height="1.97" transform="translate(46.57 115.15) rotate(-79.25)"/><polygon class="cls-6" points="100.93 22.94 98.96 22.94 98.96 21.53 100.93 21.53 100.93 22.94"/><rect class="cls-6" x="92.44" y="6.13" width="3.38" height="1.97" transform="translate(14.52 57.84) rotate(-36.83)"/><rect class="cls-6" x="83.31" y="23.91" width="2.74" height="1.97" transform="translate(49.93 106.03) rotate(-83.2)"/><rect class="cls-6" x="123.57" y="7.81" width="1.98" height="2.91" transform="translate(16.66 72.18) rotate(-34.5)"/><polygon class="cls-6" points="124.91 18.85 122.61 18.86 122.61 16.89 124.91 16.88 124.91 18.85"/><rect class="cls-6" x="106.85" y="6.24" width="3.64" height="1.97" transform="matrix(0.95, -0.32, 0.32, 0.95, 3.32, 34.85)"/><rect class="cls-6" x="102.98" y="1.42" width="3.88" height="1.97" transform="translate(2.12 23.52) rotate(-12.92)"/><polygon class="cls-6" points="100.27 15.29 97.15 13.55 98.11 11.83 101.23 13.56 100.27 15.29"/><rect class="cls-6" x="107.69" y="12.94" width="1.98" height="3.79" transform="translate(69.61 117.34) rotate(-76.91)"/><circle class="cls-2" cx="190.23" cy="25.79" r="25.79" transform="translate(-0.05 0.39) rotate(-0.12)"/><path class="cls-3" d="M216.36,34.19l-1,4-3.07,12.29-1.78,7.12L208.69,65l-.84,3.33v.07l-1.4,5.58L206,75.62,205.19,79l-1.81,7.25L202,91.8,200.69,97l-.84,3.33-.94,3.77L197.18,111l-1.83,7.34-.83,3.35-1.19,4.76v0l-.34,1.36a2.9,2.9,0,0,1-5.12,0l-.33-1.26-1.38-5.46-.86-3.34-1.77-7-1.42-5.58-1.38-5.43-.85-3.34L179,92.89l-1.82-7.16-1.86-7.32-.84-3.36h0l-1.41-5.58-.44-1.73-.86-3.34-1.83-7.2-1.42-5.58-3.11-12.25-1.28-5.05Z"/><path class="cls-4" d="M216.36,34.19h-1.18l-11.94,12-4.6-4.58L206,34.22h-4.18l-5.28,5.3-4.6-4.58.7-.7h-5.58l.7.7-4.58,4.59-5.29-5.27h-4.18l7.39,7.36-4.57,4.6-12-11.94h-.4l1.28,5.05,9,9-4.57,4.6-1.33-1.33,1.42,5.58,4.51,4.51-2.69,2.7.86,3.34,3.93-3.95,4.59,4.58L176.58,73l-3.51-3.5L174.47,75h0l.84,3.36,1.26-1.26,4.59,4.57-4,4L179,92.89l2.2,2.19L179.9,96.4l.85,3.34,2.56-2.57,4.6,4.58-4.58,4.6-1.2-1.19,1.42,5.58,4.38,4.36-2.62,2.63.86,3.34L190,117.2l4.5,4.49.83-3.35-3.25-3.24,4.58-4.59.49.49,1.73-6.91-2.24,2.24-4.6-4.58,4.58-4.6,3.19,3.18.84-3.33L198.75,95,202,91.8l1.4-5.59-.06.06-4.6-4.58,4.58-4.59L205.19,79l.83-3.34-.63-.63,1.05-1.06,1.4-5.58-4.55,4.55-4.6-4.57,4.58-4.6,4.57,4.55.84-3.33-3.33-3.31,4.58-4.6.57.57,1.78-7.12-2.36,2.37-4.6-4.58,10-10.07ZM201.15,48.28l-4.58,4.6L192,48.3l4.58-4.59ZM185.33,68.36l4.58-4.6,4.6,4.58-4.58,4.59Zm9.22,13.33L190,86.3l-4.6-4.58,4.58-4.59ZM185.3,55l4.58-4.6,4.6,4.58-4.58,4.6Zm4.55-18,4.6,4.57-4.58,4.6-4.6-4.58Zm-6.67,6.7,4.6,4.57-4.58,4.6-4.59-4.58ZM171.94,55l4.58-4.6L181.12,55l-4.57,4.6Zm6.7,6.67,4.57-4.6,4.6,4.58-4.58,4.6Zm0,13.35,4.57-4.59,4.6,4.57-4.58,4.6Zm0,13.36,4.58-4.6,4.6,4.58L183.29,93Zm15.9,20L190,113l-4.6-4.57,4.58-4.6ZM190,99.66l-4.6-4.58,4.58-4.6,4.6,4.58Zm11.25-11.3L196.65,93l-4.6-4.58,4.58-4.6Zm0-13.36-4.59,4.6L192,75l4.58-4.6Zm-4.61-8.75L192,61.66l4.58-4.6,4.6,4.58Zm11.25-11.3-4.58,4.6L198.66,55l4.59-4.6Z"/><rect class="cls-5" x="164.14" y="34.25" width="52.24" height="15.69" transform="translate(-0.09 0.39) rotate(-0.12)"/><path class="cls-2" d="M186.8,34.25a8.22,8.22,0,1,1-8.23-8.2A8.22,8.22,0,0,1,186.8,34.25Z"/><circle class="cls-2" cx="187.64" cy="33.74" r="5.61" transform="translate(-0.06 0.36) rotate(-0.11)"/><rect class="cls-6" x="199.07" y="13.5" width="1.97" height="2.65" transform="translate(25.85 114.29) rotate(-33.96)"/><rect class="cls-6" x="170.99" y="14.45" width="1.97" height="3.05" transform="matrix(1, 0, 0, 1, -0.04, 0.45)"/><polygon class="cls-6" points="199.93 9.59 196.98 8.09 197.87 6.33 200.83 7.83 199.93 9.59"/><rect class="cls-6" x="195.86" y="20.65" width="1.97" height="2.69" transform="translate(46.81 151.3) rotate(-47.13)"/><rect class="cls-6" x="194.29" y="1.84" width="2.14" height="1.97" transform="matrix(1, 0, 0, 1, 0, 0.3)"/><polygon class="cls-6" points="211.8 19.22 209.49 17.04 210.85 15.61 213.15 17.79 211.8 19.22"/><rect class="cls-6" x="211.5" y="23.37" width="1.97" height="4.78" transform="translate(0.08 52.17) rotate(-14)"/><rect class="cls-6" x="204.86" y="24.57" width="1.97" height="3.55" transform="translate(-1.3 38.93) rotate(-10.77)"/><polygon class="cls-6" points="187.56 26.07 186.84 24.24 189.44 23.21 190.17 25.04 187.56 26.07"/><rect class="cls-6" x="173.56" y="28.47" width="2.63" height="1.97" transform="translate(113.33 195.77) rotate(-79.25)"/><polygon class="cls-6" points="183 22.94 181.03 22.94 181.02 21.53 182.99 21.53 183 22.94"/><rect class="cls-6" x="174.5" y="6.13" width="3.38" height="1.97" transform="translate(30.89 107.03) rotate(-36.83)"/><rect class="cls-6" x="165.37" y="23.91" width="2.74" height="1.97" transform="translate(122.29 187.52) rotate(-83.2)"/><rect class="cls-6" x="205.64" y="7.81" width="1.98" height="2.91" transform="translate(31.09 118.67) rotate(-34.5)"/><polygon class="cls-6" points="206.97 18.85 204.67 18.86 204.67 16.89 206.97 16.88 206.97 18.85"/><rect class="cls-6" x="188.91" y="6.24" width="3.64" height="1.97" transform="translate(7.56 60.89) rotate(-18.5)"/><rect class="cls-6" x="185.04" y="1.42" width="3.88" height="1.97" transform="translate(4.2 41.87) rotate(-12.92)"/><polygon class="cls-6" points="182.34 15.29 179.22 13.55 180.17 11.83 183.29 13.56 182.34 15.29"/><rect class="cls-6" x="189.76" y="12.94" width="1.98" height="3.79" transform="translate(133.09 197.27) rotate(-76.91)"/><circle class="cls-2" cx="272.29" cy="25.79" r="25.79" transform="translate(-0.05 0.56) rotate(-0.12)"/><path class="cls-3" d="M298.43,34.19l-1,4-3.07,12.29-1.78,7.12L290.75,65l-.84,3.33v.07l-1.4,5.58-.42,1.69L287.25,79l-1.81,7.25L284,91.8,282.76,97l-.84,3.33-.94,3.77L279.25,111l-1.83,7.34-.83,3.35-1.19,4.76v0l-.34,1.36a2.9,2.9,0,0,1-5.12,0l-.33-1.26-1.38-5.46-.86-3.34-1.77-7-1.42-5.58-1.38-5.43L262,96.4l-.89-3.51-1.82-7.16-1.86-7.32-.84-3.36h0l-1.41-5.58-.44-1.73-.86-3.34L252,57.19l-1.42-5.58-3.11-12.25-1.28-5.05Z"/><path class="cls-4" d="M298.43,34.19h-1.18l-11.94,12-4.6-4.58,7.36-7.39h-4.18l-5.28,5.3L274,34.94l.7-.7h-5.58l.7.7-4.58,4.59-5.29-5.27h-4.18l7.39,7.36-4.57,4.6-12-11.94h-.4l1.28,5.05,9,9-4.57,4.6-1.33-1.33L252,57.19l4.51,4.51-2.69,2.7.86,3.34,3.93-3.95,4.59,4.58L258.64,73l-3.51-3.5L256.54,75h0l.84,3.36,1.26-1.26,4.59,4.57-4,4,1.82,7.16,2.2,2.19L262,96.4l.85,3.34,2.56-2.57,4.6,4.58-4.58,4.6-1.2-1.19,1.42,5.58,4.38,4.36-2.62,2.63.86,3.34,3.86-3.87,4.5,4.49.83-3.35-3.25-3.24,4.58-4.59.49.49,1.73-6.91-2.24,2.24-4.6-4.58,4.58-4.6,3.19,3.18.84-3.33L280.81,95,284,91.8l1.4-5.59-.06.06-4.6-4.58,4.58-4.59L287.25,79l.83-3.34-.63-.63,1.05-1.06,1.4-5.58-4.55,4.55-4.6-4.57,4.58-4.6,4.57,4.55.84-3.33-3.33-3.31L292,57l.57.57,1.78-7.12L292,52.86l-4.6-4.58,10-10.07ZM283.22,48.28l-4.58,4.6L274,48.3l4.58-4.59ZM267.39,68.36l4.58-4.6,4.6,4.58L272,72.93Zm9.22,13.33L272,86.3l-4.6-4.58L272,77.12ZM267.36,55l4.58-4.6,4.6,4.58L272,59.58Zm4.55-18,4.6,4.57-4.58,4.6-4.6-4.58Zm-6.67,6.7,4.6,4.57-4.58,4.6-4.59-4.58ZM254,55l4.58-4.6L263.19,55l-4.57,4.6Zm6.7,6.67,4.57-4.6,4.6,4.58-4.58,4.6Zm0,13.35,4.57-4.59,4.6,4.57-4.58,4.6Zm0,13.36,4.58-4.6,4.6,4.58L265.35,93Zm15.9,20L272.08,113l-4.6-4.57,4.58-4.6ZM272,99.66l-4.6-4.58,4.58-4.6,4.6,4.58Zm11.25-11.3L278.72,93l-4.6-4.58,4.58-4.6Zm0-13.36-4.59,4.6L274.09,75l4.58-4.6Zm-4.61-8.75-4.6-4.58,4.58-4.6,4.6,4.58Zm11.25-11.3-4.58,4.6L280.73,55l4.59-4.6Z"/><rect class="cls-5" x="246.21" y="34.25" width="52.24" height="15.69" transform="translate(-0.09 0.55) rotate(-0.12)"/><path class="cls-2" d="M268.86,34.25a8.22,8.22,0,1,1-8.23-8.2A8.22,8.22,0,0,1,268.86,34.25Z"/><circle class="cls-2" cx="269.7" cy="33.74" r="5.61" transform="translate(-0.06 0.52) rotate(-0.11)"/><rect class="cls-6" x="281.14" y="13.5" width="1.97" height="2.65" transform="translate(39.85 160.14) rotate(-33.96)"/><rect class="cls-6" x="253.06" y="14.45" width="1.97" height="3.05" transform="matrix(1, 0, 0, 1, -0.04, 0.67)"/><polygon class="cls-6" points="282 9.59 279.04 8.09 279.93 6.33 282.89 7.83 282 9.59"/><rect class="cls-6" x="277.92" y="20.65" width="1.97" height="2.69" transform="translate(73.04 211.44) rotate(-47.13)"/><rect class="cls-6" x="276.35" y="1.84" width="2.14" height="1.97" transform="matrix(1, 0, 0, 1, 0, 0.42)"/><polygon class="cls-6" points="293.86 19.22 291.56 17.04 292.91 15.61 295.21 17.79 293.86 19.22"/><rect class="cls-6" x="293.57" y="23.37" width="1.97" height="4.78" transform="translate(2.52 72.03) rotate(-14)"/><rect class="cls-6" x="286.92" y="24.57" width="1.97" height="3.55" transform="translate(0.15 54.27) rotate(-10.77)"/><polygon class="cls-6" points="269.63 26.07 268.9 24.24 271.5 23.21 272.23 25.04 269.63 26.07"/><rect class="cls-6" x="255.63" y="28.47" width="2.63" height="1.97" transform="translate(180.1 276.4) rotate(-79.25)"/><polygon class="cls-6" points="265.06 22.94 263.09 22.94 263.09 21.53 265.05 21.53 265.06 22.94"/><rect class="cls-6" x="256.56" y="6.13" width="3.38" height="1.97" transform="matrix(0.8, -0.6, 0.6, 0.8, 47.26, 156.21)"/><rect class="cls-6" x="247.43" y="23.91" width="2.74" height="1.97" transform="translate(194.64 269) rotate(-83.2)"/><rect class="cls-6" x="287.7" y="7.81" width="1.98" height="2.91" transform="translate(45.52 165.15) rotate(-34.5)"/><polygon class="cls-6" points="289.04 18.85 286.74 18.86 286.73 16.89 289.03 16.88 289.04 18.85"/><rect class="cls-6" x="270.97" y="6.24" width="3.64" height="1.97" transform="translate(11.8 86.93) rotate(-18.5)"/><rect class="cls-6" x="267.11" y="1.42" width="3.88" height="1.97" transform="translate(6.27 60.22) rotate(-12.92)"/><polygon class="cls-6" points="264.4 15.29 261.28 13.55 262.24 11.83 265.36 13.56 264.4 15.29"/><rect class="cls-6" x="271.82" y="12.94" width="1.98" height="3.79" transform="translate(196.57 277.2) rotate(-76.91)"/><circle class="cls-2" cx="354.36" cy="25.79" r="25.79" transform="translate(-0.05 0.73) rotate(-0.12)"/><path class="cls-3" d="M380.49,34.19l-1,4-3.07,12.29-1.78,7.12L372.81,65,372,68.28v.07l-1.4,5.58-.42,1.69L369.32,79l-1.81,7.25-1.4,5.59L364.82,97l-.84,3.33-.94,3.77L361.31,111l-1.83,7.34-.83,3.35-1.19,4.76v0l-.34,1.36a2.9,2.9,0,0,1-5.12,0l-.33-1.26-1.38-5.46-.86-3.34-1.77-7-1.42-5.58-1.38-5.43L344,96.4l-.89-3.51-1.82-7.16-1.86-7.32-.84-3.36h0l-1.41-5.58-.44-1.73-.86-3.34-1.83-7.2-1.42-5.58-3.11-12.25-1.28-5.05Z"/><path class="cls-4" d="M380.49,34.19h-1.18l-11.94,12-4.6-4.58,7.36-7.39h-4.18l-5.28,5.3-4.6-4.58.7-.7h-5.58l.7.7-4.58,4.59L342,34.27h-4.18l7.39,7.36-4.57,4.6-12-11.94h-.4l1.28,5.05,9,9L334,52.94l-1.33-1.33,1.42,5.58,4.51,4.51-2.69,2.7.86,3.34,3.93-3.95,4.59,4.58L340.7,73l-3.51-3.5L338.6,75h0l.84,3.36,1.26-1.26,4.59,4.57-4,4,1.82,7.16,2.2,2.19L344,96.4l.85,3.34,2.56-2.57,4.6,4.58-4.58,4.6-1.2-1.19,1.42,5.58,4.38,4.36-2.62,2.63.86,3.34,3.86-3.87,4.5,4.49.83-3.35-3.25-3.24,4.58-4.59.49.49,1.73-6.91-2.24,2.24-4.6-4.58,4.58-4.6,3.19,3.18.84-3.33L362.87,95l3.24-3.25,1.4-5.59-.06.06-4.6-4.58,4.58-4.59L369.32,79l.83-3.34-.63-.63,1.05-1.06,1.4-5.58-4.55,4.55-4.6-4.57,4.58-4.6L372,68.28l.84-3.33-3.33-3.31,4.58-4.6.57.57,1.78-7.12-2.36,2.37-4.6-4.58,10-10.07ZM365.28,48.28l-4.58,4.6-4.6-4.58,4.58-4.59ZM349.45,68.36l4.58-4.6,4.6,4.58-4.58,4.59Zm9.22,13.33-4.58,4.6-4.6-4.58,4.58-4.59ZM349.43,55l4.58-4.6,4.6,4.58L354,59.58ZM354,37l4.6,4.57L354,46.21l-4.6-4.58Zm-6.67,6.7,4.6,4.57-4.58,4.6-4.59-4.58ZM336.07,55l4.58-4.6L345.25,55l-4.57,4.6Zm6.7,6.67,4.57-4.6,4.6,4.58-4.58,4.6Zm0,13.35,4.57-4.59L352,75l-4.58,4.6Zm0,13.36,4.58-4.6,4.6,4.58L347.42,93Zm15.9,20L354.14,113l-4.6-4.57,4.58-4.6Zm-4.61-8.76-4.6-4.58,4.58-4.6,4.6,4.58Zm11.25-11.3L360.78,93l-4.6-4.58,4.58-4.6Zm0-13.36-4.59,4.6L356.15,75l4.58-4.6Zm-4.61-8.75-4.6-4.58,4.58-4.6,4.6,4.58ZM372,54.95l-4.58,4.6L362.79,55l4.59-4.6Z"/><rect class="cls-5" x="328.27" y="34.25" width="52.24" height="15.69" transform="translate(-0.08 0.72) rotate(-0.12)"/><path class="cls-2" d="M350.93,34.25a8.22,8.22,0,1,1-8.23-8.2A8.22,8.22,0,0,1,350.93,34.25Z"/><circle class="cls-2" cx="351.77" cy="33.74" r="5.61" transform="translate(-0.06 0.67) rotate(-0.11)"/><rect class="cls-6" x="363.2" y="13.5" width="1.97" height="2.65" transform="translate(53.85 205.98) rotate(-33.96)"/><rect class="cls-6" x="335.12" y="14.45" width="1.97" height="3.05" transform="translate(-0.04 0.88) rotate(-0.15)"/><polygon class="cls-6" points="364.06 9.59 361.1 8.09 361.99 6.33 364.95 7.83 364.06 9.59"/><rect class="cls-6" x="359.98" y="20.65" width="1.97" height="2.69" transform="translate(99.27 271.59) rotate(-47.13)"/><rect class="cls-6" x="358.42" y="1.84" width="2.14" height="1.97" transform="matrix(1, 0, 0, 1, 0, 0.54)"/><polygon class="cls-6" points="375.93 19.22 373.62 17.04 374.98 15.61 377.28 17.79 375.93 19.22"/><rect class="cls-6" x="375.63" y="23.37" width="1.97" height="4.78" transform="translate(4.96 91.88) rotate(-14)"/><rect class="cls-6" x="368.98" y="24.57" width="1.97" height="3.55" transform="translate(1.59 69.6) rotate(-10.77)"/><polygon class="cls-6" points="351.69 26.07 350.96 24.24 353.57 23.21 354.3 25.04 351.69 26.07"/><rect class="cls-6" x="337.69" y="28.47" width="2.63" height="1.97" transform="translate(246.86 357.02) rotate(-79.25)"/><polygon class="cls-6" points="347.12 22.94 345.15 22.94 345.15 21.53 347.12 21.53 347.12 22.94"/><rect class="cls-6" x="338.63" y="6.13" width="3.38" height="1.97" transform="translate(63.64 205.4) rotate(-36.83)"/><rect class="cls-6" x="329.5" y="23.91" width="2.74" height="1.97" transform="translate(266.99 350.49) rotate(-83.2)"/><rect class="cls-6" x="369.76" y="7.81" width="1.98" height="2.91" transform="translate(59.96 211.63) rotate(-34.5)"/><polygon class="cls-6" points="371.1 18.85 368.8 18.86 368.8 16.89 371.1 16.88 371.1 18.85"/><rect class="cls-6" x="353.04" y="6.24" width="3.64" height="1.97" transform="translate(16.04 112.97) rotate(-18.5)"/><rect class="cls-6" x="349.17" y="1.42" width="3.88" height="1.97" transform="translate(8.35 78.56) rotate(-12.92)"/><polygon class="cls-6" points="346.46 15.29 343.34 13.55 344.3 11.83 347.42 13.56 346.46 15.29"/><rect class="cls-6" x="353.89" y="12.94" width="1.98" height="3.79" transform="translate(260.04 357.13) rotate(-76.91)"/><circle class="cls-2" cx="436.42" cy="25.79" r="25.79" transform="translate(-0.05 0.9) rotate(-0.12)"/><path class="cls-3" d="M462.56,34.19l-1,4-3.07,12.29-1.78,7.12L454.88,65,454,68.28v.07l-1.4,5.58-.42,1.69L451.38,79l-1.81,7.25-1.4,5.59L446.88,97l-.84,3.33-.94,3.77L443.38,111l-1.83,7.34-.83,3.35-1.19,4.76v0l-.34,1.36a2.9,2.9,0,0,1-5.12,0l-.33-1.26-1.38-5.46-.86-3.34-1.77-7-1.42-5.58-1.38-5.43-.85-3.34-.89-3.51-1.82-7.16-1.86-7.32-.84-3.36h0l-1.41-5.58-.44-1.73L418,64.39l-1.83-7.2-1.42-5.58L411.6,39.35l-1.28-5.05Z"/><path class="cls-4" d="M462.56,34.19h-1.18l-11.94,12-4.6-4.58,7.36-7.39H448l-5.28,5.3-4.6-4.58.7-.7h-5.58l.7.7-4.58,4.59-5.29-5.27H419.9l7.39,7.36-4.57,4.6-12-11.94h-.4l1.28,5.05,9,9L416,52.94l-1.33-1.33,1.42,5.58,4.51,4.51L418,64.39l.86,3.34,3.93-3.95,4.59,4.58L422.77,73l-3.51-3.5L420.66,75h0l.84,3.36,1.26-1.26,4.59,4.57-4,4,1.82,7.16,2.2,2.19-1.31,1.31.85,3.34,2.56-2.57,4.6,4.58-4.58,4.6-1.2-1.19,1.42,5.58,4.38,4.36-2.62,2.63.86,3.34,3.86-3.87,4.5,4.49.83-3.35-3.25-3.24,4.58-4.59.49.49,1.73-6.91-2.24,2.24-4.6-4.58,4.58-4.6,3.19,3.18.84-3.33L444.94,95l3.24-3.25,1.4-5.59-.06.06-4.6-4.58,4.58-4.59L451.38,79l.83-3.34-.63-.63,1.05-1.06,1.4-5.58-4.55,4.55-4.6-4.57,4.58-4.6L454,68.28l.84-3.33-3.33-3.31,4.58-4.6.57.57,1.78-7.12-2.36,2.37-4.6-4.58,10-10.07ZM447.34,48.28l-4.58,4.6-4.6-4.58,4.58-4.59ZM431.52,68.36l4.58-4.6,4.6,4.58-4.58,4.59Zm9.22,13.33-4.58,4.6-4.6-4.58,4.58-4.59ZM431.49,55l4.58-4.6,4.6,4.58-4.58,4.6ZM436,37l4.6,4.57-4.58,4.6-4.6-4.58Zm-6.67,6.7,4.6,4.57-4.58,4.6-4.59-4.58ZM418.14,55l4.58-4.6L427.31,55l-4.57,4.6Zm6.7,6.67,4.57-4.6,4.6,4.58-4.58,4.6Zm0,13.35,4.57-4.59L434,75l-4.58,4.6Zm0,13.36,4.58-4.6,4.6,4.58L429.48,93Zm15.9,20L436.2,113l-4.6-4.57,4.58-4.6Zm-4.61-8.76-4.6-4.58,4.58-4.6,4.6,4.58Zm11.25-11.3L442.84,93l-4.6-4.58,4.58-4.6Zm0-13.36-4.59,4.6L438.22,75l4.58-4.6Zm-4.61-8.75-4.6-4.58,4.58-4.6,4.6,4.58ZM454,54.95l-4.58,4.6L444.85,55l4.59-4.6Z"/><rect class="cls-5" x="410.33" y="34.25" width="52.24" height="15.69" transform="translate(-0.08 0.89) rotate(-0.12)"/><path class="cls-2" d="M433,34.25a8.22,8.22,0,1,1-8.23-8.2A8.22,8.22,0,0,1,433,34.25Z"/><circle class="cls-2" cx="433.83" cy="33.74" r="5.61" transform="translate(-0.06 0.83) rotate(-0.11)"/><rect class="cls-6" x="445.26" y="13.5" width="1.97" height="2.65" transform="translate(67.85 251.83) rotate(-33.96)"/><rect class="cls-6" x="417.18" y="14.45" width="1.97" height="3.05" transform="translate(-0.04 1.09) rotate(-0.15)"/><polygon class="cls-6" points="446.12 9.59 443.17 8.09 444.06 6.33 447.02 7.83 446.12 9.59"/><rect class="cls-6" x="442.05" y="20.65" width="1.97" height="2.69" transform="translate(125.51 331.73) rotate(-47.13)"/><rect class="cls-6" x="440.48" y="1.84" width="2.14" height="1.97" transform="matrix(1, 0, 0, 1, 0, 0.67)"/><polygon class="cls-6" points="457.99 19.22 455.68 17.04 457.04 15.61 459.34 17.79 457.99 19.22"/><rect class="cls-6" x="457.7" y="23.37" width="1.97" height="4.78" transform="translate(7.39 111.73) rotate(-14)"/><rect class="cls-6" x="451.05" y="24.57" width="1.97" height="3.55" transform="matrix(0.98, -0.19, 0.19, 0.98, 3.04, 84.94)"/><polygon class="cls-6" points="433.75 26.07 433.03 24.24 435.63 23.21 436.36 25.04 433.75 26.07"/><rect class="cls-6" x="419.75" y="28.47" width="2.63" height="1.97" transform="translate(313.62 437.65) rotate(-79.25)"/><polygon class="cls-6" points="429.19 22.94 427.22 22.94 427.21 21.53 429.18 21.53 429.19 22.94"/><rect class="cls-6" x="420.69" y="6.13" width="3.38" height="1.97" transform="translate(80.01 254.59) rotate(-36.83)"/><rect class="cls-6" x="411.56" y="23.91" width="2.74" height="1.97" transform="translate(339.35 431.98) rotate(-83.2)"/><rect class="cls-6" x="451.83" y="7.81" width="1.98" height="2.91" transform="translate(74.39 258.11) rotate(-34.5)"/><polygon class="cls-6" points="453.16 18.85 450.86 18.86 450.86 16.89 453.16 16.88 453.16 18.85"/><rect class="cls-6" x="435.1" y="6.24" width="3.64" height="1.97" transform="translate(20.28 139.01) rotate(-18.5)"/><rect class="cls-6" x="431.24" y="1.42" width="3.88" height="1.97" transform="translate(10.43 96.91) rotate(-12.92)"/><polygon class="cls-6" points="428.53 15.29 425.41 13.55 426.36 11.83 429.49 13.56 428.53 15.29"/><rect class="cls-6" x="435.95" y="12.94" width="1.98" height="3.79" transform="translate(323.52 437.06) rotate(-76.91)"/></g></g></g></svg>