<svg xmlns="http://www.w3.org/2000/svg" viewBox="0 0 210.89 91.82"><defs><style>.cls-1{fill:#ff6526;}.cls-2{fill:#ffa83a;}.cls-3{fill:#fe8b28;}.cls-4{fill:#e8e1dc;}.cls-5{fill:#d6cabd;}</style></defs><title>Juice</title><g id="Layer_2" data-name="Layer 2"><g id="Layer_1-2" data-name="Layer 1"><rect class="cls-1" y="21.53" width="22.53" height="70.29"/><polygon class="cls-1" points="11.27 3.78 0 21.53 22.53 21.53 11.27 3.78"/><polygon class="cls-2" points="51.13 3.78 11.27 3.78 22.48 21.53 62.39 21.53 51.13 3.78"/><rect class="cls-3" x="22.48" y="21.53" width="39.91" height="70.29"/><rect class="cls-3" x="11.91" width="39.86" height="4.62"/><rect class="cls-1" x="10.67" width="1.24" height="4.62"/><circle class="cls-4" cx="42.43" cy="56.68" r="7.51"/><rect class="cls-4" x="36.31" y="69.58" width="12.26" height="4.62"/><path class="cls-4" d="M47,44.26c-3.43-1.68-5.62-1.68-9.05,0l-1.5-3.07C41,39,43.9,39,48.46,41.19Z"/><rect class="cls-5" x="4.1" y="39.15" width="14.33" height="35.05"/><rect class="cls-1" x="74.25" y="21.53" width="22.53" height="70.29"/><polygon class="cls-1" points="85.52 3.78 74.25 21.53 96.78 21.53 85.52 3.78"/><polygon class="cls-2" points="125.38 3.78 85.52 3.78 96.73 21.53 136.64 21.53 125.38 3.78"/><rect class="cls-3" x="96.73" y="21.53" width="39.91" height="70.29"/><rect class="cls-3" x="86.16" width="39.86" height="4.62"/><rect class="cls-1" x="84.92" width="1.24" height="4.62"/><circle class="cls-4" cx="116.69" cy="56.68" r="7.51"/><rect class="cls-4" x="110.56" y="69.58" width="12.26" height="4.62"/><path class="cls-4" d="M121.21,44.26c-3.43-1.68-5.62-1.68-9.05,0l-1.5-3.07c4.57-2.24,7.49-2.24,12.05,0Z"/><rect class="cls-5" x="78.35" y="39.15" width="14.33" height="35.05"/><rect class="cls-1" x="148.5" y="21.53" width="22.53" height="70.29"/><polygon class="cls-1" points="159.77 3.78 148.5 21.53 171.03 21.53 159.77 3.78"/><polygon class="cls-2" points="199.63 3.78 159.77 3.78 170.98 21.53 210.89 21.53 199.63 3.78"/><rect class="cls-3" x="170.98" y="21.53" width="39.91" height="70.29"/><rect class="cls-3" x="160.42" width="39.86" height="4.62"/><rect class="cls-1" x="159.17" width="1.24" height="4.62"/><circle class="cls-4" cx="190.94" cy="56.68" r="7.51"/><rect class="cls-4" x="184.81" y="69.58" width="12.26" height="4.62"/><path class="cls-4" d="M195.46,44.26c-3.43-1.68-5.62-1.68-9.05,0l-1.5-3.07c4.57-2.24,7.49-2.24,12.05,0Z"/><rect class="cls-5" x="152.6" y="39.15" width="14.33" height="35.05"/></g></g></svg>