<svg xmlns="http://www.w3.org/2000/svg" viewBox="0 0 419.88 147.07"><defs><style>.cls-1{fill:#fff;}.cls-2{fill:#ecf0f1;}.cls-3{fill:#4c9bc4;}.cls-4{fill:#77b9db;}</style></defs><title>Milk</title><g id="Layer_2" data-name="Layer 2"><g id="Layer_1-2" data-name="Layer 1"><rect class="cls-1" y="36.22" width="82.81" height="110.85"/><path class="cls-1" d="M73.06,1.2A1.2,1.2,0,0,0,71.87,0H11.14A1.2,1.2,0,0,0,10,1.2V32.61a1.19,1.19,0,0,0,1.19,1.2H71.87a1.19,1.19,0,0,0,1.19-1.2V1.2Z"/><polygon class="cls-2" points="82.81 36.22 0 36.22 9.95 9.95 72.87 9.95 82.81 36.22"/><polygon class="cls-3" points="55.47 23.8 28.84 23.72 28.84 20.01 55.47 20.09 55.47 23.8"/><path class="cls-3" d="M55.47,23.47c0,3.06-6,5.57-13.32,5.57s-13.32-2.5-13.32-5.57,6-5.57,13.32-5.57S55.47,20.39,55.47,23.47Z"/><path class="cls-4" d="M55.47,20.28c0,3.07-6,5.57-13.32,5.57s-13.32-2.5-13.32-5.57,6-5.55,13.32-5.55S55.47,17.21,55.47,20.28Z"/><path class="cls-4" d="M82.81,55.55V36.22H0V55.55Z"/><rect class="cls-4" y="136.19" width="82.81" height="10.88"/><rect class="cls-4" y="131" width="82.81" height="2.56"/><rect class="cls-1" x="112.36" y="36.22" width="82.81" height="110.85"/><path class="cls-1" d="M185.42,1.2A1.2,1.2,0,0,0,184.23,0H123.49a1.2,1.2,0,0,0-1.19,1.2V32.61a1.19,1.19,0,0,0,1.19,1.2h60.74a1.19,1.19,0,0,0,1.19-1.2V1.2Z"/><polygon class="cls-2" points="195.17 36.22 112.36 36.22 122.31 9.95 185.22 9.95 195.17 36.22"/><polygon class="cls-3" points="167.83 23.8 141.19 23.72 141.19 20.01 167.83 20.09 167.83 23.8"/><path class="cls-3" d="M167.83,23.47c0,3.06-6,5.57-13.32,5.57s-13.32-2.5-13.32-5.57,6-5.57,13.32-5.57S167.83,20.39,167.83,23.47Z"/><path class="cls-4" d="M167.83,20.28c0,3.07-6,5.57-13.32,5.57s-13.32-2.5-13.32-5.57,6-5.55,13.32-5.55S167.83,17.21,167.83,20.28Z"/><path class="cls-4" d="M195.17,55.55V36.22H112.36V55.55Z"/><rect class="cls-4" x="112.36" y="136.19" width="82.81" height="10.88"/><rect class="cls-4" x="112.36" y="131" width="82.81" height="2.56"/><rect class="cls-1" x="224.71" y="36.22" width="82.81" height="110.85"/><path class="cls-1" d="M297.77,1.2A1.2,1.2,0,0,0,296.59,0H235.85a1.2,1.2,0,0,0-1.19,1.2V32.61a1.19,1.19,0,0,0,1.19,1.2h60.74a1.19,1.19,0,0,0,1.19-1.2V1.2Z"/><polygon class="cls-2" points="307.52 36.22 224.71 36.22 234.66 9.95 297.58 9.95 307.52 36.22"/><polygon class="cls-3" points="280.18 23.8 253.55 23.72 253.55 20.01 280.18 20.09 280.18 23.8"/><path class="cls-3" d="M280.18,23.47c0,3.06-6,5.57-13.32,5.57s-13.32-2.5-13.32-5.57,6-5.57,13.32-5.57S280.18,20.39,280.18,23.47Z"/><path class="cls-4" d="M280.18,20.28c0,3.07-6,5.57-13.32,5.57s-13.32-2.5-13.32-5.57,6-5.55,13.32-5.55S280.18,17.21,280.18,20.28Z"/><path class="cls-4" d="M307.52,55.55V36.22H224.71V55.55Z"/><rect class="cls-4" x="224.71" y="136.19" width="82.81" height="10.88"/><rect class="cls-4" x="224.71" y="131" width="82.81" height="2.56"/><rect class="cls-1" x="337.07" y="36.22" width="82.81" height="110.85"/><path class="cls-1" d="M410.13,1.2A1.2,1.2,0,0,0,408.94,0H348.21A1.2,1.2,0,0,0,347,1.2V32.61a1.19,1.19,0,0,0,1.19,1.2h60.74a1.19,1.19,0,0,0,1.19-1.2V1.2Z"/><polygon class="cls-2" points="419.88 36.22 337.07 36.22 347.02 9.95 409.93 9.95 419.88 36.22"/><polygon class="cls-3" points="392.54 23.8 365.9 23.72 365.9 20.01 392.54 20.09 392.54 23.8"/><path class="cls-3" d="M392.54,23.47c0,3.06-6,5.57-13.32,5.57s-13.32-2.5-13.32-5.57,6-5.57,13.32-5.57S392.54,20.39,392.54,23.47Z"/><path class="cls-4" d="M392.54,20.28c0,3.07-6,5.57-13.32,5.57s-13.32-2.5-13.32-5.57,6-5.55,13.32-5.55S392.54,17.21,392.54,20.28Z"/><path class="cls-4" d="M419.88,55.55V36.22H337.07V55.55Z"/><rect class="cls-4" x="337.07" y="136.19" width="82.81" height="10.88"/><rect class="cls-4" x="337.07" y="131" width="82.81" height="2.56"/></g></g></svg>