<svg xmlns="http://www.w3.org/2000/svg" viewBox="0 0 563.68 470.74"><defs><style>.cls-1{isolation:isolate;}.cls-2{fill:#c7ab5d;}.cls-3{fill:#de382e;}.cls-4{fill:#91a63b;}.cls-5{fill:#d6e0bf;mix-blend-mode:multiply;}.cls-6{font-size:29.42px;fill:#a6a6a6;font-family:Helvetica-Bold, Helvetica;font-weight:700;}</style></defs><title>Apples</title><g class="cls-1"><g id="Layer_2" data-name="Layer 2"><g id="Layer_1-2" data-name="Layer 1"><rect class="cls-2" x="167.27" y="209.99" width="11.29" height="4.4" transform="translate(-39.52 384.82) rotate(-89.92)"/><path class="cls-3" d="M207,245.36a34.14,34.14,0,1,1-47.11-31.65,24,24,0,0,1,2.35-.85,9.74,9.74,0,0,1,2.38-.28,10.29,10.29,0,0,1,8.3,4.22,10.33,10.33,0,0,1,8.33-4.18,10.14,10.14,0,0,1,2.38.29,24.3,24.3,0,0,1,2.34.86,34.08,34.08,0,0,1,21,31.59Z"/><path class="cls-4" d="M172.65,212.52a27.82,27.82,0,0,0,22,11.17,26.5,26.5,0,0,0,21.54-11.1,27.82,27.82,0,0,0-22-11.14A26.56,26.56,0,0,0,172.65,212.52Z"/><path class="cls-5" d="M172.65,212.53a27.81,27.81,0,0,0,22,11.17,26.52,26.52,0,0,0,21.53-11.09l-15.11.11,3.61,5.24-6.58-5.37Z"/><rect class="cls-2" x="514.8" y="59.24" width="11.29" height="4.4" transform="translate(458.28 581.8) rotate(-89.92)"/><path class="cls-3" d="M554.51,94.61A34.14,34.14,0,1,1,507.41,63a24,24,0,0,1,2.35-.85,9.74,9.74,0,0,1,2.38-.28,10.29,10.29,0,0,1,8.3,4.22,10.33,10.33,0,0,1,8.33-4.18,10.14,10.14,0,0,1,2.38.29,24.3,24.3,0,0,1,2.34.86,34.08,34.08,0,0,1,21,31.59Z"/><path class="cls-4" d="M520.18,61.76a27.82,27.82,0,0,0,22,11.17,26.5,26.5,0,0,0,21.54-11.1,27.82,27.82,0,0,0-22-11.14A26.56,26.56,0,0,0,520.18,61.76Z"/><path class="cls-5" d="M520.18,61.77a27.81,27.81,0,0,0,22,11.17,26.52,26.52,0,0,0,21.53-11.09L548.57,62l3.61,5.24-6.58-5.37Z"/><rect class="cls-2" x="422.02" y="379.74" width="11.29" height="4.4" transform="translate(45.14 809.08) rotate(-89.92)"/><path class="cls-3" d="M461.74,415.11a34.14,34.14,0,1,1-47.11-31.65,24,24,0,0,1,2.35-.85,9.74,9.74,0,0,1,2.38-.28,10.29,10.29,0,0,1,8.3,4.22,10.33,10.33,0,0,1,8.33-4.18,10.14,10.14,0,0,1,2.38.29,24.3,24.3,0,0,1,2.34.86,34.08,34.08,0,0,1,21,31.59Z"/><path class="cls-4" d="M427.4,382.26a27.82,27.82,0,0,0,22,11.17,26.5,26.5,0,0,0,21.54-11.1,27.82,27.82,0,0,0-22-11.14A26.56,26.56,0,0,0,427.4,382.26Z"/><path class="cls-5" d="M427.41,382.27a27.81,27.81,0,0,0,22,11.17,26.52,26.52,0,0,0,21.53-11.09l-15.11.11,3.61,5.24-6.58-5.37Z"/><rect class="cls-2" x="28.56" y="8.54" width="11.29" height="4.4" transform="translate(23.42 44.94) rotate(-89.92)"/><path class="cls-3" d="M68.28,43.91A34.14,34.14,0,1,1,21.17,12.25a24,24,0,0,1,2.35-.85,9.74,9.74,0,0,1,2.38-.28,10.29,10.29,0,0,1,8.3,4.22,10.33,10.33,0,0,1,8.33-4.18,10.14,10.14,0,0,1,2.38.29,24.3,24.3,0,0,1,2.34.86,34.08,34.08,0,0,1,21,31.59Z"/><path class="cls-4" d="M33.94,11.07a27.82,27.82,0,0,0,22,11.17,26.5,26.5,0,0,0,21.54-11.1A27.82,27.82,0,0,0,55.49,0,26.56,26.56,0,0,0,33.94,11.07Z"/><path class="cls-5" d="M33.95,11.07a27.81,27.81,0,0,0,22,11.17A26.52,26.52,0,0,0,77.44,11.15l-15.11.11,3.61,5.24-6.58-5.37Z"/><text class="cls-6" transform="translate(0 456.59)">Apples</text></g></g></g></svg>