<svg xmlns="http://www.w3.org/2000/svg" viewBox="0 0 141.97 104.35"><defs><style>.cls-1{fill:#b9825f;}.cls-2{fill:#f2f2d6;}</style></defs><title>BrownRoll</title><g id="Layer_2" data-name="Layer 2"><g id="Layer_1-2" data-name="Layer 1"><path class="cls-1" d="M66.63,79.6a3.27,3.27,0,0,1,0,.33c0,.27,0,.54,0,.8s0,.3,0,.45-.05.5-.08.75,0,.26,0,.4-.09.55-.15.82c0,.1,0,.2,0,.3a17.86,17.86,0,0,1-.65,2.31.44.44,0,0,1,0,.07c-.13.36-.27.72-.42,1.07a.64.64,0,0,1,0,.11c-3.2,7.6-11.2,13.62-21.37,16.1a.81.81,0,0,1-.23.06H43.4a44.44,44.44,0,0,1-20.06,0h-.06l-.53-.13C10.58,100.07,1.53,92,.18,82.17c0,0,0,0,0-.08-.05-.39-.1-.79-.12-1.18a.09.09,0,0,1,0,0c0-.41,0-.82,0-1.24,0-.11,0-.23,0-.33,0-.27,0-.54,0-.8s0-.3,0-.45,0-.5.08-.74,0-.27.05-.41.09-.55.15-.82c0-.1,0-.2.06-.3.12-.58.26-1.14.44-1.71.06-.2.13-.4.2-.6a.31.31,0,0,1,0-.06c.13-.37.27-.73.42-1.08l0-.11c3.2-7.6,11.2-13.62,21.37-16.1a.93.93,0,0,1,.23-.06h.11a44.44,44.44,0,0,1,20.06,0h.07c.17,0,.34.08.52.12,10.91,2.71,19.3,9.5,21.9,17.93a18.79,18.79,0,0,1,.66,3,.2.2,0,0,1,0,.08,10.81,10.81,0,0,1,.12,1.18.09.09,0,0,1,0,0c0,.21,0,.42,0,.62S66.63,79.39,66.63,79.6Z"/><path class="cls-1" d="M65.15,81.34c.15-.36.29-.71.41-1.08a.3.3,0,0,1,0-.06,19,19,0,0,0,.64-2.3c0-.1,0-.2.06-.3.05-.27.1-.55.14-.83s0-.27.05-.41.06-.49.08-.74,0-.3,0-.45,0-.53,0-.8c0-.11,0-.23,0-.34,0-.41,0-.83,0-1.24a.15.15,0,0,0,0,0c0-.4-.07-.79-.12-1.18a.43.43,0,0,1,0-.08c-1.35-9.79-10.39-17.9-22.57-20.92l-.52-.12h-.06a44.55,44.55,0,0,0-20.06,0h-.11l-.23.06C12.72,53,4.72,59,1.52,66.64l0,.1c-.15.36-.29.72-.41,1.08l0,.06a19.36,19.36,0,0,0-.64,2.31l-.06.3c-.05.27-.1.55-.14.82s0,.27-.05.41-.06.5-.08.74,0,.3,0,.45,0,.53,0,.8,0,.23,0,.34c0,.41,0,.83,0,1.24a.29.29,0,0,0,0,0c0,.4.07.79.12,1.18a.63.63,0,0,1,0,.08c1.35,9.8,10.39,17.9,22.57,20.92l.52.12h.07a44.52,44.52,0,0,0,20.06,0l.11,0,.23-.05C53.91,95.07,61.91,89,65.11,81.45Z"/><circle class="cls-2" cx="53.85" cy="71.92" r="1.54"/><circle class="cls-2" cx="31.05" cy="71.22" r="0.77"/><circle class="cls-2" cx="39.98" cy="60.9" r="1.85"/><circle class="cls-2" cx="24.88" cy="61.98" r="1.46"/><circle class="cls-2" cx="11.85" cy="67.3" r="1.08"/><circle class="cls-2" cx="15.55" cy="71.22" r="0.77"/><circle class="cls-2" cx="6.38" cy="78.16" r="1.31"/><circle class="cls-2" cx="16.32" cy="81.32" r="0.46"/><circle class="cls-2" cx="29.42" cy="79.47" r="1.39"/><path class="cls-2" d="M43.26,82.59a1.42,1.42,0,1,1-1.43-1.42A1.42,1.42,0,0,1,43.26,82.59Z"/><circle class="cls-2" cx="44.38" cy="74.59" r="1.46"/><circle class="cls-2" cx="52.31" cy="78.08" r="1.15"/><circle class="cls-2" cx="48.69" cy="68.37" r="1.39"/><circle class="cls-2" cx="53.47" cy="59.82" r="1.39"/><circle class="cls-2" cx="42.91" cy="54.7" r="1.39"/><circle class="cls-2" cx="61.48" cy="70.38" r="1.31"/><circle class="cls-2" cx="59.02" cy="75.08" r="0.77"/><circle class="cls-2" cx="37.29" cy="76.85" r="0.85"/><circle class="cls-2" cx="23.42" cy="84.98" r="1.23"/><circle class="cls-2" cx="37.29" cy="85.64" r="1.23"/><circle class="cls-2" cx="31.05" cy="87.8" r="1.23"/><circle class="cls-2" cx="21.49" cy="69.07" r="1.31"/><circle class="cls-2" cx="20.18" cy="76.57" r="0.92"/><circle class="cls-2" cx="16.79" cy="59.67" r="1.71"/><circle class="cls-2" cx="27.11" cy="55.5" r="1.54"/><circle class="cls-2" cx="33.32" cy="55.04" r="1.04"/><circle class="cls-2" cx="32.97" cy="61.38" r="0.77"/><circle class="cls-2" cx="36.44" cy="63.44" r="0.77"/><circle class="cls-2" cx="27.11" cy="67.76" r="0.77"/><circle class="cls-2" cx="12.93" cy="76.05" r="0.77"/><circle class="cls-2" cx="17.56" cy="64.68" r="0.77"/><circle class="cls-2" cx="12.63" cy="61.98" r="0.77"/><circle class="cls-2" cx="8.77" cy="63.44" r="0.77"/><circle class="cls-2" cx="21.49" cy="54.7" r="0.77"/><circle class="cls-2" cx="47.92" cy="59.05" r="0.77"/><circle class="cls-2" cx="52.7" cy="65.45" r="0.77"/><circle class="cls-2" cx="58.71" cy="80.86" r="0.77"/><circle class="cls-2" cx="51.16" cy="87.79" r="0.77"/><circle class="cls-2" cx="35.67" cy="90.41" r="0.77"/><circle class="cls-2" cx="24.65" cy="90.41" r="0.77"/><circle class="cls-2" cx="17.56" cy="86.87" r="0.77"/><circle class="cls-2" cx="9.54" cy="70.84" r="0.77"/><circle class="cls-2" cx="47.92" cy="81.17" r="0.77"/><circle class="cls-2" cx="59.79" cy="64.98" r="0.77"/><circle class="cls-2" cx="5.69" cy="69.76" r="1.08"/><circle class="cls-2" cx="38.6" cy="67.76" r="1.39"/><path class="cls-1" d="M142,79.6a3.27,3.27,0,0,1,0,.33c0,.27,0,.54,0,.8s0,.3,0,.45-.05.5-.08.75,0,.26,0,.4-.09.55-.15.82c0,.1,0,.2,0,.3a17.86,17.86,0,0,1-.65,2.31.44.44,0,0,1,0,.07c-.13.36-.27.72-.42,1.07a.64.64,0,0,1,0,.11c-3.2,7.6-11.2,13.62-21.37,16.1a.81.81,0,0,1-.23.06h-.11a44.44,44.44,0,0,1-20.06,0h-.06l-.53-.13c-12.18-3-21.22-11.13-22.57-20.92,0,0,0,0,0-.08-.05-.39-.1-.79-.12-1.18a.09.09,0,0,1,0,0c0-.41,0-.82,0-1.24,0-.11,0-.23,0-.33,0-.27,0-.54,0-.8s0-.3,0-.45,0-.5.08-.74,0-.27.05-.41.09-.55.15-.82c0-.1,0-.2.06-.3.12-.58.26-1.14.44-1.71.06-.2.13-.4.2-.6a.31.31,0,0,1,0-.06c.13-.37.27-.73.42-1.08l0-.11c3.2-7.6,11.2-13.62,21.37-16.1a.93.93,0,0,1,.23-.06h.11a44.44,44.44,0,0,1,20.06,0h.07c.17,0,.34.08.52.12,10.91,2.71,19.3,9.5,21.9,17.93a18.79,18.79,0,0,1,.66,3,.2.2,0,0,1,0,.08,10.81,10.81,0,0,1,.12,1.18.09.09,0,0,1,0,0c0,.21,0,.42,0,.62S142,79.39,142,79.6Z"/><path class="cls-1" d="M140.5,81.34c.15-.36.29-.71.41-1.08a.3.3,0,0,1,0-.06,19,19,0,0,0,.64-2.3c0-.1,0-.2.06-.3.05-.27.1-.55.14-.83s0-.27.05-.41.06-.49.08-.74,0-.3,0-.45,0-.53,0-.8c0-.11,0-.23,0-.34,0-.41,0-.83,0-1.24a.15.15,0,0,0,0,0c0-.4-.07-.79-.12-1.18a.43.43,0,0,1,0-.08c-1.35-9.79-10.39-17.9-22.57-20.92l-.52-.12h-.06a44.55,44.55,0,0,0-20.06,0h-.11l-.23.06C88.06,53,80.07,59,76.87,66.64l0,.1c-.15.36-.29.72-.41,1.08l0,.06a19.36,19.36,0,0,0-.64,2.31l-.06.3c-.05.27-.1.55-.14.82s0,.27-.05.41-.06.5-.08.74,0,.3,0,.45,0,.53,0,.8,0,.23,0,.34c0,.41,0,.83,0,1.24a.29.29,0,0,0,0,0c0,.4.07.79.12,1.18a.63.63,0,0,1,0,.08c1.35,9.8,10.39,17.9,22.57,20.92l.52.12h.07a44.52,44.52,0,0,0,20.06,0l.11,0,.23-.05c10.17-2.49,18.17-8.51,21.37-16.11Z"/><circle class="cls-2" cx="129.19" cy="71.92" r="1.54"/><circle class="cls-2" cx="106.39" cy="71.22" r="0.77"/><circle class="cls-2" cx="115.32" cy="60.9" r="1.85"/><circle class="cls-2" cx="100.22" cy="61.98" r="1.46"/><circle class="cls-2" cx="87.2" cy="67.3" r="1.08"/><circle class="cls-2" cx="90.9" cy="71.22" r="0.77"/><circle class="cls-2" cx="81.73" cy="78.16" r="1.31"/><circle class="cls-2" cx="91.67" cy="81.32" r="0.46"/><circle class="cls-2" cx="104.77" cy="79.47" r="1.39"/><path class="cls-2" d="M118.6,82.59a1.42,1.42,0,1,1-1.43-1.42A1.42,1.42,0,0,1,118.6,82.59Z"/><circle class="cls-2" cx="119.72" cy="74.59" r="1.46"/><circle class="cls-2" cx="127.66" cy="78.08" r="1.15"/><circle class="cls-2" cx="124.03" cy="68.37" r="1.39"/><circle class="cls-2" cx="128.81" cy="59.82" r="1.39"/><circle class="cls-2" cx="118.25" cy="54.7" r="1.39"/><circle class="cls-2" cx="136.83" cy="70.38" r="1.31"/><circle class="cls-2" cx="134.36" cy="75.08" r="0.77"/><circle class="cls-2" cx="112.63" cy="76.85" r="0.85"/><circle class="cls-2" cx="98.76" cy="84.98" r="1.23"/><circle class="cls-2" cx="112.63" cy="85.64" r="1.23"/><circle class="cls-2" cx="106.39" cy="87.8" r="1.23"/><circle class="cls-2" cx="96.83" cy="69.07" r="1.31"/><circle class="cls-2" cx="95.52" cy="76.57" r="0.92"/><circle class="cls-2" cx="92.13" cy="59.67" r="1.71"/><circle class="cls-2" cx="102.46" cy="55.5" r="1.54"/><circle class="cls-2" cx="108.66" cy="55.04" r="1.04"/><circle class="cls-2" cx="108.31" cy="61.38" r="0.77"/><circle class="cls-2" cx="111.78" cy="63.44" r="0.77"/><circle class="cls-2" cx="102.46" cy="67.76" r="0.77"/><circle class="cls-2" cx="88.28" cy="76.05" r="0.77"/><circle class="cls-2" cx="92.9" cy="64.68" r="0.77"/><circle class="cls-2" cx="87.97" cy="61.98" r="0.77"/><circle class="cls-2" cx="84.11" cy="63.44" r="0.77"/><circle class="cls-2" cx="96.83" cy="54.7" r="0.77"/><circle class="cls-2" cx="123.26" cy="59.05" r="0.77"/><circle class="cls-2" cx="128.04" cy="65.45" r="0.77"/><circle class="cls-2" cx="134.05" cy="80.86" r="0.77"/><circle class="cls-2" cx="126.5" cy="87.79" r="0.77"/><circle class="cls-2" cx="111.01" cy="90.41" r="0.77"/><circle class="cls-2" cx="99.99" cy="90.41" r="0.77"/><circle class="cls-2" cx="92.9" cy="86.87" r="0.77"/><circle class="cls-2" cx="84.88" cy="70.84" r="0.77"/><circle class="cls-2" cx="123.26" cy="81.17" r="0.77"/><circle class="cls-2" cx="135.13" cy="64.98" r="0.77"/><circle class="cls-2" cx="81.03" cy="69.76" r="1.08"/><circle class="cls-2" cx="113.94" cy="67.76" r="1.39"/><path class="cls-1" d="M105.15,30.3a3.27,3.27,0,0,1,0,.33c0,.27,0,.54,0,.8s0,.3,0,.45-.05.5-.08.75,0,.26,0,.4-.09.55-.15.82c0,.1,0,.2,0,.3a17.86,17.86,0,0,1-.65,2.31.44.44,0,0,1,0,.07c-.13.36-.27.72-.42,1.07a.64.64,0,0,1,0,.11c-3.2,7.6-11.2,13.62-21.37,16.1a.81.81,0,0,1-.23.06h-.11A43.8,43.8,0,0,1,71.84,55a44.16,44.16,0,0,1-10-1.13h-.06l-.53-.13c-12.18-3-21.22-11.13-22.57-20.92,0,0,0,0,0-.08-.05-.39-.1-.79-.12-1.18a.09.09,0,0,1,0,0c0-.41,0-.82,0-1.24,0-.11,0-.23,0-.33,0-.27,0-.54,0-.8s0-.3,0-.45,0-.5.08-.74,0-.27.05-.41.09-.55.15-.82c0-.1,0-.2.06-.3.12-.58.26-1.14.44-1.71.06-.2.13-.4.2-.6a.31.31,0,0,1,0-.06c.13-.37.27-.73.42-1.08l0-.11c3.2-7.6,11.2-13.62,21.37-16.1a.93.93,0,0,1,.23-.06h.11a44.44,44.44,0,0,1,20.06,0h.07c.17,0,.34.08.52.12,10.91,2.71,19.3,9.5,21.9,17.93a18.79,18.79,0,0,1,.66,3,.2.2,0,0,1,0,.08A10.81,10.81,0,0,1,105.1,29a.09.09,0,0,1,0,0c0,.21,0,.42,0,.62S105.15,30.09,105.15,30.3Z"/><path class="cls-1" d="M103.68,32c.15-.36.29-.71.41-1.08a.3.3,0,0,1,0-.06,19,19,0,0,0,.64-2.3c0-.1,0-.2.06-.3.05-.27.1-.55.14-.83s0-.27.05-.41.06-.49.08-.74,0-.3,0-.45,0-.53,0-.8c0-.11,0-.23,0-.34,0-.41,0-.83,0-1.24a.15.15,0,0,0,0,0c0-.4-.07-.79-.12-1.18a.43.43,0,0,1,0-.08c-1.35-9.79-10.39-17.9-22.57-20.92l-.52-.12h-.06a44.55,44.55,0,0,0-20.06,0h-.11l-.23.06C51.24,3.71,43.25,9.73,40,17.34l0,.1c-.15.36-.29.72-.41,1.08l0,.06a19.36,19.36,0,0,0-.64,2.31l-.06.3c-.05.27-.1.55-.14.82s0,.27-.05.41-.06.5-.08.74,0,.3,0,.45,0,.53,0,.8,0,.23,0,.34c0,.41,0,.83,0,1.24a.29.29,0,0,0,0,0c0,.4.07.79.12,1.18a.63.63,0,0,1,0,.08c1.35,9.8,10.39,17.9,22.57,20.92l.52.12h.07a44,44,0,0,0,10,1.13,44.09,44.09,0,0,0,10.08-1.16l.11,0,.23-.05c10.17-2.49,18.17-8.51,21.37-16.11Z"/><circle class="cls-2" cx="92.38" cy="22.61" r="1.54"/><circle class="cls-2" cx="69.57" cy="21.92" r="0.77"/><circle class="cls-2" cx="78.51" cy="11.6" r="1.85"/><circle class="cls-2" cx="63.4" cy="12.67" r="1.46"/><circle class="cls-2" cx="50.38" cy="17.99" r="1.08"/><circle class="cls-2" cx="54.08" cy="21.92" r="0.77"/><circle class="cls-2" cx="44.91" cy="28.86" r="1.31"/><circle class="cls-2" cx="54.85" cy="32.01" r="0.46"/><circle class="cls-2" cx="67.95" cy="30.17" r="1.39"/><path class="cls-2" d="M81.78,33.29a1.42,1.42,0,1,1-1.43-1.42A1.42,1.42,0,0,1,81.78,33.29Z"/><circle class="cls-2" cx="82.9" cy="25.28" r="1.46"/><circle class="cls-2" cx="90.84" cy="28.78" r="1.15"/><circle class="cls-2" cx="87.21" cy="19.07" r="1.39"/><circle class="cls-2" cx="91.99" cy="10.52" r="1.39"/><circle class="cls-2" cx="81.44" cy="5.39" r="1.39"/><circle class="cls-2" cx="100.01" cy="21.07" r="1.31"/><circle class="cls-2" cx="97.54" cy="25.77" r="0.77"/><circle class="cls-2" cx="75.81" cy="27.55" r="0.85"/><circle class="cls-2" cx="61.94" cy="35.68" r="1.23"/><circle class="cls-2" cx="75.81" cy="36.34" r="1.23"/><circle class="cls-2" cx="69.57" cy="38.49" r="1.23"/><circle class="cls-2" cx="60.01" cy="19.76" r="1.31"/><circle class="cls-2" cx="58.7" cy="27.27" r="0.92"/><circle class="cls-2" cx="55.31" cy="10.36" r="1.71"/><circle class="cls-2" cx="65.64" cy="6.2" r="1.54"/><circle class="cls-2" cx="71.84" cy="5.74" r="1.04"/><circle class="cls-2" cx="71.5" cy="12.07" r="0.77"/><circle class="cls-2" cx="74.96" cy="14.14" r="0.77"/><circle class="cls-2" cx="65.64" cy="18.45" r="0.77"/><circle class="cls-2" cx="51.46" cy="26.75" r="0.77"/><circle class="cls-2" cx="56.08" cy="15.37" r="0.77"/><circle class="cls-2" cx="51.15" cy="12.67" r="0.77"/><circle class="cls-2" cx="47.3" cy="14.14" r="0.77"/><circle class="cls-2" cx="60.01" cy="5.39" r="0.77"/><circle class="cls-2" cx="86.44" cy="9.75" r="0.77"/><circle class="cls-2" cx="91.22" cy="16.14" r="0.77"/><circle class="cls-2" cx="97.23" cy="31.55" r="0.77"/><circle class="cls-2" cx="89.68" cy="38.49" r="0.77"/><circle class="cls-2" cx="74.19" cy="41.11" r="0.77"/><circle class="cls-2" cx="63.17" cy="41.11" r="0.77"/><circle class="cls-2" cx="56.08" cy="37.57" r="0.77"/><circle class="cls-2" cx="48.07" cy="21.54" r="0.77"/><circle class="cls-2" cx="86.44" cy="31.87" r="0.77"/><circle class="cls-2" cx="98.31" cy="15.68" r="0.77"/><circle class="cls-2" cx="44.21" cy="20.46" r="1.08"/><circle class="cls-2" cx="77.12" cy="18.45" r="1.39"/></g></g></svg>