<svg xmlns="http://www.w3.org/2000/svg" viewBox="0 0 228.71 80.88"><defs><style>.cls-1{isolation:isolate;}.cls-2{fill:#a35240;}.cls-3{fill:#c77d40;}.cls-4{fill:#f7e8d4;}.cls-5{fill:#e59ca3;}.cls-6{fill:#d16b7a;}.cls-7{fill:#c77d82;opacity:0.18;mix-blend-mode:multiply;}</style></defs><title>Steak</title><g class="cls-1"><g id="Layer_2" data-name="Layer 2"><g id="Layer_1-2" data-name="Layer 1"><path class="cls-2" d="M226.13,35.4h0l0,0c-.12-.21-.24-.42-.37-.63-13.87-23.36-72.65-38.55-94.31,0-.23.4-.45.8-.67,1.21l0,.08h0a30.75,30.75,0,0,0,47.44,37.38h0l.25-.23.54-.49c5.62-5.17,10.7-11.65,25.43-8h0A20,20,0,0,0,226.13,35.4Z"/><rect class="cls-2" x="127.28" y="39.11" width="15.54" height="10.8"/><rect class="cls-2" x="213.17" y="34.85" width="15.54" height="11.18"/><path class="cls-3" d="M226.13,24.22h0l0,0-.37-.63C211.87.2,153.09-15,131.43,23.52c-.23.4-.45.8-.67,1.21l0,.08h0a30.75,30.75,0,0,0,47.44,37.38h0l.25-.23.54-.49c5.62-5.17,10.7-11.66,25.43-8h0a20,20,0,0,0,21.73-29.29Z"/><path class="cls-4" d="M158,63.81a24.9,24.9,0,0,1-24.87-24.87A24.56,24.56,0,0,1,136,27.51l.05-.1c.16-.32.34-.63.52-.94l0-.08c9.53-16.95,26-20.51,38.14-20.51,20.81,0,40.06,10.74,46,20.68l.26.44.08.14a14.06,14.06,0,0,1-15.34,20.61l-.12,0c-.72-.17-1.39-.33-2-.45l-.06,0a32,32,0,0,0-7.29-.92c-6,0-9.82,2.18-13.16,4.1l-.92.53a49.17,49.17,0,0,0-5.72,4.85l-.08.08L175,57.13l-.42.38-.25.22A24.86,24.86,0,0,1,158,63.81Z"/><path class="cls-5" d="M217.17,39.45c-1.88,3-5.51,4.67-10,4.67a22.34,22.34,0,0,1-6-.88,22.5,22.5,0,0,0-6.12-.85,24.69,24.69,0,0,0-6.87,1,32.38,32.38,0,0,0-4.4,1.61q-1.26.56-2.55,1.24a37,37,0,0,0-6.71,5c-3.34,2.89-6.81,5.89-11.46,7.16a19.46,19.46,0,0,1-5.05.67h0a19.27,19.27,0,0,1-3.36-.29,19,19,0,0,1-1.92-.43,21.28,21.28,0,0,1-11.88-8.71,18.59,18.59,0,0,1-3.14-9.76,19.2,19.2,0,0,1,0-2,23.6,23.6,0,0,1,1.39-6.61,33,33,0,0,1,12.63-15.73c.54-.37,1.09-.73,1.66-1.07a39.06,39.06,0,0,1,9.23-4.12l.61-.17q1.11-.32,2.22-.56a45.08,45.08,0,0,1,10-1.12A54.79,54.79,0,0,1,198.8,14c.93.44,1.81.88,2.66,1.34h0a66,66,0,0,1,8.46,5.31c.68.5,1.31,1,1.89,1.5a27.18,27.18,0,0,1,2.83,2.72C220.77,31.72,218.61,37.17,217.17,39.45Z"/><path class="cls-4" d="M205.17,17.48c-4-1.88-8,0-10.08,1.21a21.93,21.93,0,0,1-11.21,2.9h-.12c-8.26,0-14.1-5.15-20.45-11.44q1.11-.32,2.22-.56c5.74,5.59,11.1,10,18.24,10h.11c4.27,0,8.13-2.08,9.32-4s.41-3.33-1.28-4.34C193.82,10.52,204.74,14.77,205.17,17.48Z"/><path class="cls-4" d="M158.05,34.61c-2.33,4-7,6.11-13.12,6.11a33.06,33.06,0,0,1-7.15-.85,19.2,19.2,0,0,1,0-2c8.78,2.08,15.78.52,18.55-4.25s1-11.32-4.53-18.09c.54-.37,1.09-.73,1.66-1.07C159.39,21.85,161.16,29.26,158.05,34.61Z"/><path class="cls-4" d="M188.25,43.39a32.38,32.38,0,0,0-4.4,1.61,77.55,77.55,0,0,0-11.73.15c-10.53,1.44-16.35,6.13-17.42,13.62a19,19,0,0,1-1.92-.43c1.24-8.29,9.49-17.91,34.73-16.67C190.19,41.81,185.76,43.24,188.25,43.39Z"/><path class="cls-4" d="M218.22,30.77c-3.85-7.91-14-5.43-18.3-3.85-8.84,3.25-7,8.3-21,10.07-.54.07-6.75-11.05-6.43-11.5s4.56-1.15,5.1-1.12c8.83.51,12.79,2,20.72.18,5.45-1.25,10.67-3.7,8.25-6.18C208.68,17.74,218.22,27.49,218.22,30.77Z"/><path class="cls-4" d="M147.76,18.74A5.16,5.16,0,0,1,154.92,20l1.16-1.86s-2.21-3.93,1-5.6c1.62-.85-1.67-1.35-1.67-1.35Z"/><path class="cls-4" d="M144.25,38.76c-2.4-.18-6.75-1.46-5.62-5.73.85-3.22-2-1.57-2-1.57L135.05,40l3.19,6.79s1.07,0,.56-1.4c-1-2.89.92-5,4.8-4.7S144.25,38.76,144.25,38.76Z"/><path class="cls-4" d="M158.88,59.07c-2.42-.06-4.36-1.67-2.7-5s-.77-2.37-.77-2.37-4,6.07-8.62,3.82c-5-2.43,4.58,4.51,4.58,4.51Z"/><path class="cls-4" d="M178.26,48.21c2-1.75,2.54-3.47-2-3.33-3.84.12,1-1.8,1-1.8s11.42-2.89,21.68-.38c5.49,1.34-19.37,6.19-19.37,6.19Z"/><path class="cls-4" d="M170.27,13.91c-1.93-1.67-2.86-5.31,2.41-5.34s-.2-1.53-.2-1.53l-4.87.53-3.89.91-7,2.7,1.1,1s5.59-1.82,8.36.78C168.68,15.24,170.27,13.91,170.27,13.91Z"/><ellipse class="cls-4" cx="176.16" cy="30.77" rx="11.65" ry="6.4"/><ellipse class="cls-6" cx="176.29" cy="30.77" rx="7.95" ry="3.85"/><path class="cls-7" d="M213.17,30.43c1.81,1.85,1,7.53-2.89,9.16s-14.67,1.09-15.6-1.91S207.77,24.93,213.17,30.43Z"/><path class="cls-7" d="M149.8,22.64c2.62,0,5.56,6.38,3.76,9.16s-8.23,5.67-10.74,3.82S145.6,22.64,149.8,22.64Z"/><path class="cls-2" d="M98.85,35.4h0l0,0c-.12-.21-.24-.42-.37-.63C84.59,11.38,25.81-3.8,4.15,34.7c-.23.4-.45.8-.67,1.21l0,.08h0A30.75,30.75,0,0,0,50.89,73.36h0l.25-.23.54-.49c5.62-5.17,10.7-11.65,25.43-8h0A20,20,0,0,0,98.85,35.4Z"/><rect class="cls-2" y="39.11" width="15.54" height="10.8"/><rect class="cls-2" x="85.89" y="34.85" width="15.54" height="11.18"/><path class="cls-3" d="M98.85,24.22h0l0,0-.37-.63C84.59.2,25.81-15,4.15,23.52c-.23.4-.45.8-.67,1.21l0,.08h0A30.75,30.75,0,0,0,50.89,62.18h0l.25-.23.54-.49c5.62-5.17,10.7-11.66,25.43-8h0A20,20,0,0,0,98.85,24.22Z"/><path class="cls-4" d="M30.75,63.81A24.9,24.9,0,0,1,5.89,38.94,24.56,24.56,0,0,1,8.67,27.51l.05-.1c.16-.32.34-.63.52-.94l0-.08c9.53-16.95,26-20.51,38.14-20.51,20.81,0,40.06,10.74,46,20.68l.26.44.08.14A14.06,14.06,0,0,1,78.39,47.76l-.12,0c-.72-.17-1.39-.33-2-.45l-.06,0a32,32,0,0,0-7.29-.92c-6,0-9.82,2.18-13.16,4.1L54.8,51a49.17,49.17,0,0,0-5.72,4.85l-.08.08L47.7,57.13l-.42.38-.25.22A24.86,24.86,0,0,1,30.75,63.81Z"/><path class="cls-5" d="M89.89,39.45c-1.88,3-5.51,4.67-10,4.67a22.34,22.34,0,0,1-6-.88,22.5,22.5,0,0,0-6.12-.85,24.69,24.69,0,0,0-6.87,1A32.38,32.38,0,0,0,56.58,45q-1.26.56-2.55,1.24a37,37,0,0,0-6.71,5C44,54.13,40.51,57.13,35.85,58.4a19.46,19.46,0,0,1-5.05.67h0a19.27,19.27,0,0,1-3.36-.29,19,19,0,0,1-1.92-.43,21.28,21.28,0,0,1-11.88-8.71,18.59,18.59,0,0,1-3.14-9.76,19.2,19.2,0,0,1,0-2,23.6,23.6,0,0,1,1.39-6.61A33,33,0,0,1,24.55,15.53c.54-.37,1.09-.73,1.66-1.07a39.06,39.06,0,0,1,9.23-4.12l.61-.17q1.11-.32,2.22-.56a45.08,45.08,0,0,1,10-1.12A54.79,54.79,0,0,1,71.52,14c.93.44,1.81.88,2.66,1.34h0a66,66,0,0,1,8.46,5.31c.68.5,1.31,1,1.89,1.5a27.18,27.18,0,0,1,2.83,2.72C93.49,31.72,91.33,37.17,89.89,39.45Z"/><path class="cls-4" d="M77.89,17.48c-4-1.88-8,0-10.08,1.21a21.93,21.93,0,0,1-11.21,2.9h-.12c-8.26,0-14.1-5.15-20.45-11.44q1.11-.32,2.22-.56c5.74,5.59,11.1,10,18.24,10h.11c4.27,0,8.13-2.08,9.32-4s.41-3.33-1.28-4.34C66.54,10.52,77.46,14.77,77.89,17.48Z"/><path class="cls-4" d="M30.77,34.61c-2.33,4-7,6.11-13.12,6.11a33.06,33.06,0,0,1-7.15-.85,19.2,19.2,0,0,1,0-2c8.78,2.08,15.78.52,18.55-4.25s1-11.32-4.53-18.09c.54-.37,1.09-.73,1.66-1.07C32.11,21.85,33.88,29.26,30.77,34.61Z"/><path class="cls-4" d="M61,43.39A32.38,32.38,0,0,0,56.58,45a77.55,77.55,0,0,0-11.73.15C34.32,46.6,28.51,51.28,27.43,58.78a19,19,0,0,1-1.92-.43C26.75,50.06,35,40.44,60.25,41.68,62.91,41.81,58.48,43.24,61,43.39Z"/><path class="cls-4" d="M90.94,30.77c-3.85-7.91-14-5.43-18.3-3.85-8.84,3.25-7,8.3-21,10.07-.54.07-6.75-11.05-6.43-11.5s4.56-1.15,5.1-1.12c8.83.51,12.79,2,20.72.18,5.45-1.25,10.67-3.7,8.25-6.18C81.4,17.74,90.94,27.49,90.94,30.77Z"/><path class="cls-4" d="M20.48,18.74A5.16,5.16,0,0,1,27.64,20l1.16-1.86s-2.21-3.93,1-5.6c1.62-.85-1.67-1.35-1.67-1.35Z"/><path class="cls-4" d="M17,38.76c-2.4-.18-6.75-1.46-5.62-5.73.85-3.22-2-1.57-2-1.57L7.77,40,11,46.79s1.07,0,.56-1.4c-1-2.89.92-5,4.8-4.7S17,38.76,17,38.76Z"/><path class="cls-4" d="M31.6,59.07c-2.42-.06-4.36-1.67-2.7-5s-.77-2.37-.77-2.37-4,6.07-8.62,3.82c-5-2.43,4.58,4.51,4.58,4.51Z"/><path class="cls-4" d="M51,48.21c2-1.75,2.54-3.47-2-3.33-3.84.12,1-1.8,1-1.8s11.42-2.89,21.68-.38C77.1,44,52.24,48.89,52.24,48.89Z"/><path class="cls-4" d="M43,13.91c-1.93-1.67-2.86-5.31,2.41-5.34S45.19,7,45.19,7l-4.87.53-3.89.91-7,2.7,1.1,1s5.59-1.82,8.36.78C41.4,15.24,43,13.91,43,13.91Z"/><ellipse class="cls-4" cx="48.88" cy="30.77" rx="11.65" ry="6.4"/><ellipse class="cls-6" cx="49.01" cy="30.77" rx="7.95" ry="3.85"/><path class="cls-7" d="M85.89,30.43c1.81,1.85,1,7.53-2.89,9.16s-14.67,1.09-15.6-1.91S80.49,24.93,85.89,30.43Z"/><path class="cls-7" d="M22.52,22.64c2.62,0,5.56,6.38,3.76,9.16s-8.23,5.67-10.74,3.82S18.32,22.64,22.52,22.64Z"/></g></g></g></svg>