<svg xmlns="http://www.w3.org/2000/svg" viewBox="0 0 230.97 100.92"><defs><style>.cls-1{fill:#bac9db;}.cls-2{fill:#2982ba;}.cls-3{fill:#f5f0ee;}</style></defs><title>Tuna</title><g id="Layer_2" data-name="Layer 2"><g id="Layer_1-2" data-name="Layer 1"><rect class="cls-1" y="96.88" width="63.09" height="4.04"/><rect class="cls-2" x="2.36" y="57.71" width="58.36" height="39.17"/><rect class="cls-2" x="31.2" y="57.71" width="29.53" height="39.17"/><rect class="cls-1" y="53.67" width="63.09" height="4.04"/><rect class="cls-1" y="53.67" width="31.4" height="4.04"/><rect class="cls-1" y="96.88" width="31.4" height="4.04"/><path class="cls-3" d="M50.71,81.53H46A14.56,14.56,0,0,0,31.4,67l-.2,0V87.74H50.71Z"/><path class="cls-3" d="M16.84,81.53H11.68v6.21H31.2V67A14.55,14.55,0,0,0,16.84,81.53Z"/><path class="cls-2" d="M38.93,79.43h0a.3.3,0,0,1,0-.44h0a4.6,4.6,0,0,0,1-2.45l-3.2,1.7a2.25,2.25,0,0,1-.46-.07h0l-.35-.32H35.8l-.2-.38h-.15l-.2-.49h-.1l-.23-.44-.12.08-.31-.43-.13.12-.32-.48-.17.11-.28-.41-.14.11-.28-.34-.18.07L32.66,75l-.15.11-.34-.36-.18.12-.41-.35-.12.14L31,74.31l-.17.15-.49-.27-.17.18-.48-.28-.16.19L29.08,74l-.18.18L28.46,74l-1.23,1.71h0a7.88,7.88,0,0,0-1.56.81,9.5,9.5,0,0,0-2.4,2.33h0l0,.06a.53.53,0,0,0-.08.19.56.56,0,0,0,0,.13.5.5,0,0,0,0,.16h0a.58.58,0,0,0,.14.25l0,0,.05.05A10.19,10.19,0,0,0,26,81.6a8.51,8.51,0,0,0,3.83.92,8.42,8.42,0,0,0,3-.57l.55.25a2.47,2.47,0,0,0,1.17-.34c.47-.32.91-1.43,1.29-1.59a2.33,2.33,0,0,1,.91-.14h0L40,81.86A4.56,4.56,0,0,0,38.93,79.43Z"/><rect class="cls-1" x="83.94" y="96.88" width="63.09" height="4.04"/><rect class="cls-2" x="86.3" y="57.71" width="58.36" height="39.17"/><rect class="cls-2" x="115.14" y="57.71" width="29.53" height="39.17"/><rect class="cls-1" x="83.94" y="53.67" width="63.09" height="4.04"/><rect class="cls-1" x="83.94" y="53.67" width="31.4" height="4.04"/><rect class="cls-1" x="83.94" y="96.88" width="31.4" height="4.04"/><path class="cls-3" d="M134.66,81.53H129.9A14.56,14.56,0,0,0,115.34,67l-.2,0V87.74h19.52Z"/><path class="cls-3" d="M100.78,81.53H95.62v6.21h19.51V67A14.55,14.55,0,0,0,100.78,81.53Z"/><path class="cls-2" d="M122.87,79.43h0a.3.3,0,0,1,0-.44h0a4.6,4.6,0,0,0,1-2.45l-3.2,1.7a2.25,2.25,0,0,1-.46-.07h0l-.35-.32h-.14l-.2-.38h-.15l-.2-.49h-.1l-.23-.44-.12.08-.31-.43-.13.12-.32-.48-.17.11-.28-.41-.14.11-.28-.34-.18.07-.34-.39-.15.11-.34-.36-.18.12-.41-.35-.12.14-.44-.31-.17.15-.49-.27-.17.18-.48-.28-.16.19L113,74l-.18.18L112.4,74l-1.23,1.71h0a7.88,7.88,0,0,0-1.56.81,9.5,9.5,0,0,0-2.4,2.33h0l0,.06a.53.53,0,0,0-.08.19.56.56,0,0,0,0,.13.5.5,0,0,0,0,.16h0a.58.58,0,0,0,.14.25l0,0,.05.05a10.19,10.19,0,0,0,2.62,1.9,8.51,8.51,0,0,0,3.83.92,8.42,8.42,0,0,0,3-.57l.55.25a2.47,2.47,0,0,0,1.17-.34c.47-.32.91-1.43,1.29-1.59a2.33,2.33,0,0,1,.91-.14h0l3.22,1.71A4.56,4.56,0,0,0,122.87,79.43Z"/><rect class="cls-1" x="167.88" y="96.88" width="63.09" height="4.04"/><rect class="cls-2" x="170.25" y="57.71" width="58.36" height="39.17"/><rect class="cls-2" x="199.08" y="57.71" width="29.53" height="39.17"/><rect class="cls-1" x="167.88" y="53.67" width="63.09" height="4.04"/><rect class="cls-1" x="167.88" y="53.67" width="31.4" height="4.04"/><rect class="cls-1" x="167.88" y="96.88" width="31.4" height="4.04"/><path class="cls-3" d="M218.6,81.53h-4.75A14.56,14.56,0,0,0,199.28,67l-.2,0V87.74H218.6Z"/><path class="cls-3" d="M184.72,81.53h-5.16v6.21h19.51V67A14.55,14.55,0,0,0,184.72,81.53Z"/><path class="cls-2" d="M206.81,79.43h0a.3.3,0,0,1,0-.44h0a4.6,4.6,0,0,0,1-2.45l-3.2,1.7a2.25,2.25,0,0,1-.46-.07h0l-.35-.32h-.14l-.2-.38h-.15l-.2-.49H203l-.23-.44-.12.08-.31-.43-.13.12-.32-.48-.17.11-.28-.41-.14.11-.28-.34-.18.07-.34-.39-.15.11-.34-.36-.18.12-.41-.35-.12.14-.44-.31-.17.15-.49-.27-.17.18-.48-.28-.16.19L197,74l-.18.18-.45-.24-1.23,1.71h0a7.88,7.88,0,0,0-1.56.81,9.5,9.5,0,0,0-2.4,2.33h0l0,.06a.53.53,0,0,0-.08.19.56.56,0,0,0,0,.13.5.5,0,0,0,0,.16h0a.58.58,0,0,0,.14.25l0,0,.05.05a10.19,10.19,0,0,0,2.62,1.9,8.51,8.51,0,0,0,3.83.92,8.42,8.42,0,0,0,3-.57l.55.25a2.47,2.47,0,0,0,1.17-.34c.47-.32.91-1.43,1.29-1.59a2.33,2.33,0,0,1,.91-.14h0l3.22,1.71A4.56,4.56,0,0,0,206.81,79.43Z"/><rect class="cls-1" x="41.97" y="43.21" width="63.09" height="4.04"/><rect class="cls-2" x="44.33" y="4.04" width="58.36" height="39.17"/><rect class="cls-2" x="73.17" y="4.04" width="29.53" height="39.17"/><rect class="cls-1" x="41.97" width="63.09" height="4.04"/><rect class="cls-1" x="41.97" width="31.4" height="4.04"/><rect class="cls-1" x="41.97" y="43.21" width="31.4" height="4.04"/><path class="cls-3" d="M92.68,27.86H87.93A14.56,14.56,0,0,0,73.37,13.3l-.2,0V34.07H92.68Z"/><path class="cls-3" d="M58.81,27.86H53.65v6.21H73.17V13.32A14.55,14.55,0,0,0,58.81,27.86Z"/><path class="cls-2" d="M80.9,25.77h0a.3.3,0,0,1,0-.44h0a4.6,4.6,0,0,0,1-2.45l-3.2,1.7a2.25,2.25,0,0,1-.46-.07h0l-.35-.32h-.14l-.2-.38h-.15l-.2-.49h-.1l-.23-.44-.12.08-.31-.43-.13.12L76,22.16l-.17.11-.28-.41-.14.11-.28-.34-.18.07-.34-.39-.15.11L74.15,21l-.18.12-.41-.35-.12.14L73,20.64l-.17.15-.49-.27-.17.18-.48-.28-.16.19-.47-.24-.18.18-.45-.24L69.2,22h0a7.88,7.88,0,0,0-1.56.81,9.5,9.5,0,0,0-2.4,2.33h0l0,.06a.53.53,0,0,0-.08.19.56.56,0,0,0,0,.13.5.5,0,0,0,0,.16h0a.58.58,0,0,0,.14.25l0,0,.05.05A10.19,10.19,0,0,0,68,27.93a8.51,8.51,0,0,0,3.83.92,8.42,8.42,0,0,0,3-.57l.55.25a2.47,2.47,0,0,0,1.17-.34c.47-.32.91-1.43,1.29-1.59a2.33,2.33,0,0,1,.91-.14h0l3.22,1.71A4.56,4.56,0,0,0,80.9,25.77Z"/><rect class="cls-1" x="125.91" y="43.21" width="63.09" height="4.04"/><rect class="cls-2" x="128.28" y="4.04" width="58.36" height="39.17"/><rect class="cls-2" x="157.11" y="4.04" width="29.53" height="39.17"/><rect class="cls-1" x="125.91" width="63.09" height="4.04"/><rect class="cls-1" x="125.91" width="31.4" height="4.04"/><rect class="cls-1" x="125.91" y="43.21" width="31.4" height="4.04"/><path class="cls-3" d="M176.63,27.86h-4.75A14.56,14.56,0,0,0,157.31,13.3l-.2,0V34.07h19.52Z"/><path class="cls-3" d="M142.75,27.86H137.6v6.21h19.51V13.32A14.55,14.55,0,0,0,142.75,27.86Z"/><path class="cls-2" d="M164.84,25.77h0a.3.3,0,0,1,0-.44h0a4.6,4.6,0,0,0,1-2.45l-3.2,1.7a2.25,2.25,0,0,1-.46-.07h0l-.35-.32h-.14l-.2-.38h-.15l-.2-.49h-.1l-.23-.44-.12.08-.31-.43-.13.12-.32-.48-.17.11-.28-.41-.14.11-.28-.34-.18.07-.34-.39-.15.11-.34-.36-.18.12-.41-.35-.12.14-.44-.31-.17.15-.49-.27-.17.18-.48-.28-.16.19-.47-.24-.18.18-.45-.24L153.14,22h0a7.88,7.88,0,0,0-1.56.81,9.5,9.5,0,0,0-2.4,2.33h0l0,.06a.53.53,0,0,0-.08.19.56.56,0,0,0,0,.13.5.5,0,0,0,0,.16h0a.58.58,0,0,0,.14.25l0,0,.05.05a10.19,10.19,0,0,0,2.62,1.9,8.51,8.51,0,0,0,3.83.92,8.42,8.42,0,0,0,3-.57l.55.25a2.47,2.47,0,0,0,1.17-.34c.47-.32.91-1.43,1.29-1.59a2.33,2.33,0,0,1,.91-.14h0l3.22,1.71A4.56,4.56,0,0,0,164.84,25.77Z"/></g></g></svg>