<svg xmlns="http://www.w3.org/2000/svg" viewBox="0 0 179.35 190.57"><defs><style>.cls-1{fill:#fff;}.cls-2{fill:#01959f;}.cls-3{fill:#bdb6aa;}.cls-4{fill:#e0eef1;}.cls-5{fill:#2fbfc7;}</style></defs><title>Yoghurt</title><g id="Layer_2" data-name="Layer 2"><g id="Layer_1-2" data-name="Layer 1"><polygon class="cls-1" points="4.43 104.68 4.43 112.14 11.57 190.57 41.43 190.57 41.43 104.68 4.43 104.68"/><polygon class="cls-1" points="78.42 104.68 78.42 112.14 71.29 190.57 41.43 190.57 41.43 104.68 78.42 104.68"/><path class="cls-2" d="M67.51,135.4H58.15a18.45,18.45,0,0,0-33.45,0H15.34v15.67H24.7a18.45,18.45,0,0,0,33.45,0h9.36Z"/><rect class="cls-3" x="4.43" y="104.68" width="73.99" height="7.46"/><path class="cls-4" d="M41.43,98.22H3.27L0,100.34H41.43Z"/><rect class="cls-5" y="100.34" width="41.43" height="7.82"/><path class="cls-4" d="M82.86,100.34l-3.27-2.12H41.43v2.12Z"/><path class="cls-5" d="M82.86,100.34H41.43v7.82l41.23.06.2-.13Z"/><path class="cls-2" d="M41.43,110.21H79.59l3.07-2-41.23-.06Z"/><path class="cls-2" d="M0,108.16c1.28.83,2,1.23,3.27,2.05H41.43v-2.05Z"/><polygon class="cls-1" points="100.93 104.68 100.93 112.14 108.07 190.57 137.93 190.57 137.93 104.68 100.93 104.68"/><polygon class="cls-1" points="174.92 104.68 174.92 112.14 167.78 190.57 137.93 190.57 137.93 104.68 174.92 104.68"/><path class="cls-2" d="M164,135.4h-9.36a18.45,18.45,0,0,0-33.45,0h-9.36v15.67h9.36a18.45,18.45,0,0,0,33.45,0H164Z"/><rect class="cls-3" x="100.93" y="104.68" width="73.99" height="7.46"/><path class="cls-4" d="M137.93,98.22H99.77l-3.27,2.12h41.43Z"/><rect class="cls-5" x="96.5" y="100.34" width="41.43" height="7.82"/><path class="cls-4" d="M179.35,100.34l-3.27-2.12H137.93v2.12Z"/><path class="cls-5" d="M179.35,100.34H137.93v7.82l41.23.06.2-.13Z"/><path class="cls-2" d="M137.93,110.21h38.16l3.07-2-41.23-.06Z"/><path class="cls-2" d="M96.5,108.16c1.28.83,2,1.23,3.27,2.05h38.16v-2.05Z"/><polygon class="cls-1" points="52.94 6.46 52.94 13.93 60.07 92.35 89.93 92.35 89.93 6.46 52.94 6.46"/><polygon class="cls-1" points="126.92 6.46 126.92 13.93 119.79 92.35 89.93 92.35 89.93 6.46 126.92 6.46"/><path class="cls-2" d="M116,37.17h-9.36a18.45,18.45,0,0,0-33.45,0H63.84V52.84h9.36a18.45,18.45,0,0,0,33.45,0H116Z"/><rect class="cls-3" x="52.93" y="6.46" width="73.99" height="7.46"/><path class="cls-4" d="M89.93,0H51.77L48.5,2.12H89.93Z"/><rect class="cls-5" x="48.5" y="2.12" width="41.43" height="7.82"/><path class="cls-4" d="M131.36,2.12,128.09,0H89.93V2.12Z"/><path class="cls-5" d="M131.36,2.12H89.93V9.94l41.23.06.2-.13Z"/><path class="cls-2" d="M89.93,12h38.16l3.07-2L89.93,9.94Z"/><path class="cls-2" d="M48.5,9.94c1.28.83,2,1.23,3.27,2.05H89.93V9.94Z"/></g></g></svg>