<svg xmlns="http://www.w3.org/2000/svg" viewBox="0 0 243.72 217.7"><defs><style>.cls-1{fill:#ffcf17;}.cls-2{fill:#f8ac00;}.cls-3{fill:#273e45;}.cls-4{fill:#90a82a;}.cls-5{fill:#9eb53c;}.cls-6{fill:#7f4b21;}.cls-7{fill:#99623d;}.cls-8{fill:#73b017;}</style></defs><title>Bananas</title><g id="Layer_2" data-name="Layer 2"><g id="Layer_1-2" data-name="Layer 1"><path class="cls-1" d="M54.45.1C53,1.1,48.5,9.87,52.31,22.51A46.53,46.53,0,0,0,88.14,54.73a47.09,47.09,0,0,0,46.28-15.58c5.91-7,7.4-13.91,7.28-17.85-.47-.9-2.33-1.24-3.66-3-.52.39-1.22.88-2.53,1.77-7.5,5.22-21.9,17.27-42.81,12.71C64.5,27.79,57.06-1.92,54.45.1Z"/><path class="cls-2" d="M66.49,30.5a42.17,42.17,0,0,0,22.78,12c20.92,4.56,37.72-5.67,43-11.78a47.23,47.23,0,0,0,7.63-10.81l.23.13c.72.44,1.33.75,1.56,1.23.13,3.9-1.35,10.8-7.28,17.82A47,47,0,0,1,88.14,54.7,46.55,46.55,0,0,1,52.31,22.49C48.5,9.82,53,1.09,54.47.08,56.14-1.25,51.78,15.94,66.49,30.5Z"/><path class="cls-3" d="M56.06,1.22c0,.19-.33-.15-.65-.18s-.27.18-.71.1c-.26-.08-.18-.19-.55-.23-.15,0-.49.16-.46,0A4.11,4.11,0,0,1,54.45.1C54.85-.19,55.34.2,56.06,1.22Z"/><path class="cls-4" d="M144.53,8.48c-1.56-.38-2.89-.13-3.51,1.4l-5.4,12.34A2.91,2.91,0,0,0,137.17,26a3,3,0,0,0,3.69-1.8l4.7-12.35C146.19,10.27,146,8.82,144.53,8.48Z"/><path class="cls-5" d="M137.12,25.91a2.88,2.88,0,0,1-1.5-3.69L141,9.88c.63-1.53,2-1.78,3.51-1.4,0,0,.07,0,.09,0Z"/><path class="cls-1" d="M45,18.46c-1.31,1.49-3.62,12,4,24.41,7,12,23.79,25.82,47.06,24.31,23.32-.74,39.11-16.56,44.88-29.44,4.34-9.12,4-16.85,2.78-21-.75-.83-2.81-.69-4.74-2.19-.43.55-1,1.27-2.18,2.58-6.52,7.64-18.49,24.49-42,25.41C63.43,45.11,47.25,15.59,45,18.46Z"/><path class="cls-2" d="M66.29,47.44a46.45,46.45,0,0,0,27.57,6.45c23.53-.94,38.55-16.51,42.5-24.49a52.16,52.16,0,0,0,5.09-13.6l.27,0a4.72,4.72,0,0,1,2,.87c1.22,4.14,1.56,11.89-2.79,21C135.17,50.59,119.38,66.42,96,67.16,72.8,68.65,55.95,54.82,49,42.84c-7.57-12.39-5.26-22.92-4-24.41C46.47,16.57,46.61,36,66.29,47.44Z"/><path class="cls-3" d="M47.06,19.19c0,.22-.4-.09-.73,0s-.26.26-.74.28c-.3,0-.25-.12-.64,0-.18,0-.46.29-.47.12A3.65,3.65,0,0,1,45,18.46C45.38,18,46,18.3,47.06,19.19Z"/><path class="cls-6" d="M144.53,8.48a1.83,1.83,0,0,1,1.32,2.3,7.66,7.66,0,0,0-4.47-1.54C142,8.39,143,8.1,144.53,8.48Z"/><path class="cls-7" d="M144.08,9.79a8.21,8.21,0,0,0-2.71-.55c.62-.85,1.6-1.14,3.16-.76a.29.29,0,0,1,.12,0Z"/><path class="cls-8" d="M144.64,9c-1.83,0-3.18.54-3.5,2.36l-3,14.7a3.21,3.21,0,0,0,2.56,3.69,3.31,3.31,0,0,0,3.6-2.82l2.18-14.54C146.83,10.53,146.23,9,144.64,9Z"/><path class="cls-5" d="M140.65,29.7A3.22,3.22,0,0,1,138.17,26l3-14.7c.32-1.82,1.67-2.4,3.5-2.36l.08,0Z"/><path class="cls-1" d="M38.7,43.27c-1.06,1.92-1.09,13.94,10.06,25.64,10.4,11.39,32,22.49,56.93,15.37C130.9,78,144.36,57,147.59,41.66c2.57-10.94.4-19.28-1.91-23.49-1-.74-3.23-.08-5.66-1.27-.36.7-.85,1.61-1.77,3.32-5.3,9.85-14.35,31-39.72,37.54C65,67.94,40.44,39.61,38.7,43.27Z"/><path class="cls-2" d="M68.66,69.8a51.62,51.62,0,0,0,31.52.51c25.36-6.56,38-27,40.46-36.66a58.49,58.49,0,0,0,2.35-16h.3a5.1,5.1,0,0,1,2.39.47c2.31,4.22,4.48,12.55,1.91,23.5C144.33,57,130.9,77.94,105.69,84.24c-24.95,7.12-46.55-4-56.95-15.36-11.16-11.71-11.11-23.71-10-25.63C39.82,40.86,44.56,62,68.66,69.8Z"/><path class="cls-3" d="M41.08,43.61c.07.23-.43,0-.8.15s-.21.35-.72.49c-.33.08-.3-.08-.72.1-.17.07-.44.43-.48.23a4,4,0,0,1,.35-1.3C39,42.72,39.74,42.88,41.08,43.61Z"/><path class="cls-6" d="M144.64,9a2,2,0,0,1,2,2.2,8.69,8.69,0,0,0-5.24-.64C141.83,9.47,142.82,8.92,144.64,9Z"/><path class="cls-7" d="M144.44,10.52a9,9,0,0,0-3.08,0c.46-1.07,1.45-1.61,3.28-1.56a.26.26,0,0,1,.11,0Z"/><path class="cls-1" d="M139.56,125.15c-.45,1.74,2,11.26,13.23,18.21a46.53,46.53,0,0,0,48.19.42,47.09,47.09,0,0,0,24.36-42.32c-.24-9.2-3.67-15.32-6.36-18.19-1-.36-2.56.61-4.74.16-.13.64-.33,1.46-.72,3-2.17,8.87-5,27.45-23.66,37.87C165.43,139.24,140.19,121.91,139.56,125.15Z"/><path class="cls-2" d="M168.72,140a42.17,42.17,0,0,0,25-6.08c18.7-10.43,24.51-29.23,24.44-37.31a47.23,47.23,0,0,0-1.44-13.15l.25-.05a3.92,3.92,0,0,1,2-.11c2.68,2.84,6.14,9,6.34,18.17A47,47,0,0,1,201,143.76a46.55,46.55,0,0,1-48.18-.41c-11.24-7-13.67-16.47-13.22-18.22C139.94,123,148.06,138.79,168.72,140Z"/><path class="cls-3" d="M141.51,124.92c.09.17-.34.11-.6.3s-.09.31-.46.54-.26,0-.56.2c-.12.1-.26.44-.34.3a4.11,4.11,0,0,1,0-1.11C139.67,124.66,140.3,124.63,141.51,124.92Z"/><path class="cls-4" d="M212.62,71.78c-1.42.74-2.25,1.81-1.7,3.37L215,88a2.91,2.91,0,0,0,3.63,1.78A3,3,0,0,0,220.25,86L215.59,73.6C215,72,213.91,71.1,212.62,71.78Z"/><path class="cls-5" d="M218.61,89.75A2.88,2.88,0,0,1,215,88l-4.13-12.82c-.55-1.56.28-2.63,1.7-3.37,0,0,.06,0,.08,0Z"/><path class="cls-1" d="M144.67,145.14c0,2,5.25,11.41,19.12,15.67,13.15,4.37,34.93,3.59,51.36-12.94,17-16,18.34-38.31,14.14-51.78-2.79-9.71-8.15-15.28-11.82-17.57-1.12-.13-2.56,1.34-5,1.49,0,.7.06,1.63.08,3.38.17,10,2.36,30.6-14.65,46.86C176.09,152.94,144.42,141.53,144.67,145.14Z"/><path class="cls-2" d="M179.78,152.78a46.45,46.45,0,0,0,24.93-13.43c17-16.28,18-37.9,15.64-46.49a52.16,52.16,0,0,0-5.19-13.56l.23-.14a4.72,4.72,0,0,1,2.07-.67c3.66,2.29,9,7.88,11.81,17.58,4.22,13.47,2.87,35.78-14.13,51.78-16.43,16.51-38.22,17.31-51.36,12.93-13.88-4.27-19.12-13.69-19.12-15.68C144.49,142.77,157.49,157.28,179.78,152.78Z"/><path class="cls-3" d="M146.67,144.35c.15.16-.36.2-.55.47s0,.37-.37.7-.27.07-.51.39c-.11.14-.15.52-.27.4a3.65,3.65,0,0,1-.3-1.16C144.63,144.58,145.3,144.37,146.67,144.35Z"/><path class="cls-6" d="M212.62,71.78a1.83,1.83,0,0,1,2.51.85,7.66,7.66,0,0,0-4.37,1.81C210.66,73.39,211.2,72.52,212.62,71.78Z"/><path class="cls-7" d="M213.15,73.06a8.21,8.21,0,0,0-2.4,1.38c-.1-1,.44-1.92,1.86-2.66a.29.29,0,0,1,.12-.05Z"/><path class="cls-8" d="M213,72.07c-1.4,1.18-2,2.51-1.06,4.08l7.5,13a3.21,3.21,0,0,0,4.37,1.07,3.31,3.31,0,0,0,.83-4.5l-8-12.34C215.7,71.8,214.23,71,213,72.07Z"/><path class="cls-5" d="M223.76,90.26a3.22,3.22,0,0,1-4.3-1.12l-7.5-13c-1-1.57-.33-2.91,1.06-4.08l.07,0Z"/><path class="cls-1" d="M156.35,167.93c.48,2.14,8.41,11.17,24.52,12.55,15.33,1.65,38.85-4.32,52.84-26.18,14.71-21.42,10.93-46,3.17-59.68-5.32-9.9-12.47-14.72-17-16.34-1.25.13-2.47,2.07-5.08,2.8.19.76.43,1.77.87,3.66,2.55,10.89,9.76,32.72-4.9,54.43C192.39,169,155.23,164,156.35,167.93Z"/><path class="cls-2" d="M196.36,168a51.62,51.62,0,0,0,24-20.49C235,125.77,230.93,102,226.37,93.22a58.49,58.49,0,0,0-8.83-13.54l.23-.2a5.1,5.1,0,0,1,2.1-1.22c4.52,1.63,11.66,6.43,17,16.34,7.74,13.68,11.54,38.26-3.17,59.67-14,21.85-37.5,27.85-52.85,26.2-16.12-1.39-24-10.41-24.5-12.56C155.59,165.39,173.16,178.1,196.36,168Z"/><path class="cls-3" d="M158.35,166.61c.21.12-.32.29-.5.64s.08.4-.22.84c-.19.28-.28.14-.47.55-.08.16,0,.61-.21.49a4,4,0,0,1-.6-1.21C156.19,167.33,156.87,166.94,158.35,166.61Z"/><path class="cls-6" d="M213,72.07a2,2,0,0,1,2.92.36,8.69,8.69,0,0,0-4.35,3C211.24,74.31,211.63,73.25,213,72.07Z"/><path class="cls-7" d="M213.9,73.37a9,9,0,0,0-2.3,2c-.36-1.1,0-2.17,1.42-3.34a.26.26,0,0,1,.09-.06Z"/><path class="cls-1" d="M.05,162.1c-.45,1.74,2,11.26,13.23,18.21a46.53,46.53,0,0,0,48.19.42,47.09,47.09,0,0,0,24.36-42.32c-.24-9.2-3.67-15.32-6.36-18.19-1-.36-2.56.61-4.74.16-.13.64-.33,1.46-.72,3-2.17,8.87-5,27.45-23.66,37.87C25.92,176.19.67,158.86.05,162.1Z"/><path class="cls-2" d="M29.21,176.91a42.17,42.17,0,0,0,25-6.08c18.7-10.43,24.51-29.23,24.44-37.31a47.23,47.23,0,0,0-1.44-13.15l.25-.05a3.92,3.92,0,0,1,2-.11c2.68,2.84,6.14,9,6.34,18.17a47,47,0,0,1-24.35,42.33,46.55,46.55,0,0,1-48.18-.41C2,173.33-.4,163.83.05,162.08.42,160,8.54,175.74,29.21,176.91Z"/><path class="cls-3" d="M2,161.87c.09.17-.34.11-.6.3s-.09.31-.46.54-.26,0-.56.2c-.12.1-.26.44-.34.3a4.11,4.11,0,0,1,0-1.11C.16,161.62.79,161.59,2,161.87Z"/><path class="cls-4" d="M73.11,108.73c-1.42.74-2.25,1.81-1.7,3.37l4.13,12.82a2.91,2.91,0,0,0,3.63,1.78,3,3,0,0,0,1.57-3.79l-4.66-12.37C75.53,109,74.4,108,73.11,108.73Z"/><path class="cls-5" d="M79.09,126.71a2.88,2.88,0,0,1-3.56-1.77L71.4,112.11c-.55-1.56.28-2.63,1.7-3.37,0,0,.06,0,.08,0Z"/><path class="cls-1" d="M5.16,182.09c0,2,5.25,11.41,19.12,15.67,13.15,4.37,34.93,3.59,51.36-12.94,17-16,18.34-38.31,14.14-51.78C87,123.34,81.63,117.76,78,115.47c-1.12-.13-2.56,1.34-5,1.49,0,.7.06,1.63.08,3.38.17,10,2.36,30.6-14.65,46.86C36.58,189.89,4.91,178.48,5.16,182.09Z"/><path class="cls-2" d="M40.27,189.74A46.45,46.45,0,0,0,65.2,176.31c17-16.28,18-37.9,15.64-46.49a52.16,52.16,0,0,0-5.19-13.56l.23-.14a4.72,4.72,0,0,1,2.07-.67c3.66,2.29,9,7.88,11.81,17.58,4.22,13.47,2.87,35.78-14.13,51.78-16.43,16.51-38.22,17.31-51.36,12.93-13.88-4.27-19.12-13.69-19.12-15.68C5,179.73,18,194.23,40.27,189.74Z"/><path class="cls-3" d="M7.16,181.3c.15.16-.36.2-.55.47s0,.37-.37.7-.27.07-.51.39c-.11.14-.15.52-.27.4a3.65,3.65,0,0,1-.3-1.16C5.12,181.54,5.79,181.33,7.16,181.3Z"/><path class="cls-6" d="M73.11,108.73a1.83,1.83,0,0,1,2.51.85,7.66,7.66,0,0,0-4.37,1.81C71.14,110.35,71.69,109.48,73.11,108.73Z"/><path class="cls-7" d="M73.64,110a8.21,8.21,0,0,0-2.4,1.38c-.1-1,.44-1.92,1.86-2.66a.29.29,0,0,1,.12-.05Z"/><path class="cls-8" d="M73.51,109c-1.4,1.18-2,2.51-1.06,4.08l7.5,13a3.21,3.21,0,0,0,4.37,1.07,3.31,3.31,0,0,0,.83-4.5l-8-12.34C76.19,108.75,74.72,108,73.51,109Z"/><path class="cls-5" d="M84.25,127.21a3.22,3.22,0,0,1-4.3-1.12l-7.5-13c-1-1.57-.33-2.91,1.06-4.08l.07,0Z"/><path class="cls-1" d="M16.84,204.88c.48,2.14,8.41,11.17,24.52,12.55,15.33,1.65,38.85-4.32,52.84-26.18,14.71-21.42,10.93-46,3.17-59.68-5.32-9.9-12.47-14.72-17-16.34-1.25.13-2.47,2.07-5.08,2.8.19.76.43,1.77.87,3.66,2.55,10.89,9.76,32.72-4.9,54.43C52.87,206,15.72,201,16.84,204.88Z"/><path class="cls-2" d="M56.85,204.93a51.62,51.62,0,0,0,24-20.49c14.66-21.71,10.61-45.46,6.05-54.26A58.49,58.49,0,0,0,78,116.64l.23-.2a5.1,5.1,0,0,1,2.1-1.22c4.52,1.63,11.66,6.43,17,16.34,7.74,13.68,11.54,38.26-3.17,59.67-14,21.85-37.5,27.85-52.85,26.2C25.2,216,17.29,207,16.82,204.87,16.08,202.34,33.65,215.06,56.85,204.93Z"/><path class="cls-3" d="M18.84,203.56c.21.12-.32.29-.5.64s.08.4-.22.84c-.19.28-.28.14-.47.55-.08.16,0,.61-.21.49a4,4,0,0,1-.6-1.21C16.68,204.29,17.36,203.9,18.84,203.56Z"/><path class="cls-6" d="M73.51,109a2,2,0,0,1,2.92.36,8.69,8.69,0,0,0-4.35,3C71.73,111.27,72.11,110.2,73.51,109Z"/><path class="cls-7" d="M74.39,110.32a9,9,0,0,0-2.3,2c-.36-1.1,0-2.17,1.42-3.34a.26.26,0,0,1,.09-.06Z"/></g></g></svg>