<svg xmlns="http://www.w3.org/2000/svg" width="88.34" height="88.34" viewBox="0 0 88.34 88.34">
  <g id="Layer_2" data-name="Layer 2" transform="translate(0.01)">
    <g id="Layer_1" data-name="Layer 1">
      <path id="Path_1" data-name="Path 1" d="M44.17,86.33A42.17,42.17,0,1,1,86.33,44.167,42.172,42.172,0,0,1,44.17,86.33Z" fill="#f15f64"/>
      <path id="Path_2" data-name="Path 2" d="M44.17,4A40.17,40.17,0,1,1,4,44.17,40.17,40.17,0,0,1,44.17,4m0-4A44.17,44.17,0,1,0,88.33,44.167,44.172,44.172,0,0,0,44.17,0Z" fill="#f15f64"/>
      <path id="Path_3" data-name="Path 3" d="M42.49,18.72a22.41,22.41,0,0,0-2.77,1.49,45.42,45.42,0,0,1,5.5,19.18,59.49,59.49,0,0,0-2.73-20.67Z" fill="#fff"/>
      <path id="Path_4" data-name="Path 4" d="M50.39,22.89A34.74,34.74,0,0,0,44.28,39.4c-.46-5.78.23-13.27,3.07-18.37Z" fill="#fff"/>
      <path id="Path_5" data-name="Path 5" d="M41.81,24.89a28.12,28.12,0,0,1,3.26,13.05c-.86-3.7-3.07-9-5.66-11Z" fill="#fff"/>
      <path id="Path_6" data-name="Path 6" d="M44.9,34.18c4.27,0,4.23,5.58,4.23,14.4S47.24,69.49,44.9,69.49,40.67,57.4,40.67,48.58,40.63,34.18,44.9,34.18Z" fill="#fff"/>
      <path id="Path_7" data-name="Path 7" d="M44.9,34.18c4.27,0,4.23,5.58,4.23,14.4S47.24,69.49,44.9,69.49,40.67,57.4,40.67,48.58,40.63,34.18,44.9,34.18Z" fill="#fff"/>
      <path id="Path_8" data-name="Path 8" d="M45.31,44.16c0,7.35-1.57,17.4-3.51,17.55.77,4.44,1.87,7.78,3.1,7.78,2.34,0,4.23-12.09,4.23-20.91s0-14.4-4.23-14.4h-.34C45.32,36.27,45.31,39.72,45.31,44.16Z" fill="#fff"/>
      <ellipse id="Ellipse_1" data-name="Ellipse 1" cx="1.03" cy="0.34" rx="1.03" ry="0.34" transform="translate(42.04 59.32)" fill="#fff"/>
      <ellipse id="Ellipse_2" data-name="Ellipse 2" cx="2.06" cy="0.34" rx="2.06" ry="0.34" transform="translate(43.07 44.86)" fill="#fff"/>
      <ellipse id="Ellipse_3" data-name="Ellipse 3" cx="1.71" cy="0.34" rx="1.71" ry="0.34" transform="translate(43.81 54.01)" fill="#fff"/>
      <path id="Path_9" data-name="Path 9" d="M49.09,43.36v-.68c-.92,0-1.66.16-1.66.34S48.16,43.35,49.09,43.36Z" fill="#fff"/>
      <path id="Path_10" data-name="Path 10" d="M43.42,47.82c0-.25-1-.45-2.23-.45h-.51v.87h.51C42.42,48.27,43.42,48.07,43.42,47.82Z" fill="#fff"/>
      <path id="Path_11" data-name="Path 11" d="M44.67,64.24c0,.2.82.37,1.83.37a7.692,7.692,0,0,0,.91-.06,3.455,3.455,0,0,1,.14-.6,7.329,7.329,0,0,0-1.06-.07C45.49,63.88,44.67,64,44.67,64.24Z" fill="#fff"/>
      <path id="Path_12" data-name="Path 12" d="M56.44,18.72a22.409,22.409,0,0,0-2.77,1.49,45.42,45.42,0,0,1,5.5,19.18A59.49,59.49,0,0,0,56.44,18.72Z" fill="#fff"/>
      <path id="Path_13" data-name="Path 13" d="M64.35,22.89A34.74,34.74,0,0,0,58.23,39.4c-.46-5.78.23-13.27,3.07-18.37Z" fill="#fff"/>
      <path id="Path_14" data-name="Path 14" d="M55.77,24.89A28.12,28.12,0,0,1,59,37.95c-.86-3.7-3.07-9-5.66-11Z" fill="#fff"/>
      <path id="Path_15" data-name="Path 15" d="M58.86,34.18c4.27,0,4.23,5.58,4.23,14.4S61.2,69.49,58.86,69.49,54.63,57.4,54.63,48.58,54.58,34.18,58.86,34.18Z" fill="#fff"/>
      <path id="Path_16" data-name="Path 16" d="M58.86,34.18c4.27,0,4.23,5.58,4.23,14.4S61.2,69.49,58.86,69.49,54.63,57.4,54.63,48.58,54.58,34.18,58.86,34.18Z" fill="#fff"/>
      <path id="Path_17" data-name="Path 17" d="M59.27,44.16c0,7.35-1.57,17.4-3.51,17.55.77,4.44,1.87,7.78,3.1,7.78,2.34,0,4.23-12.09,4.23-20.91s0-14.4-4.23-14.4h-.34C59.27,36.27,59.27,39.72,59.27,44.16Z" fill="#fff"/>
      <ellipse id="Ellipse_4" data-name="Ellipse 4" cx="1.03" cy="0.34" rx="1.03" ry="0.34" transform="translate(56 59.32)" fill="#fff"/>
      <ellipse id="Ellipse_5" data-name="Ellipse 5" cx="2.06" cy="0.34" rx="2.06" ry="0.34" transform="translate(57.03 44.86)" fill="#fff"/>
      <ellipse id="Ellipse_6" data-name="Ellipse 6" cx="1.71" cy="0.34" rx="1.71" ry="0.34" transform="translate(57.76 54.01)" fill="#fff"/>
      <path id="Path_18" data-name="Path 18" d="M63,43.36v-.68c-.92,0-1.66.16-1.66.34S62.12,43.35,63,43.36Z" fill="#fff"/>
      <path id="Path_19" data-name="Path 19" d="M57.37,47.82c0-.25-1-.45-2.23-.45h-.51v.87h.51C56.37,48.27,57.37,48.07,57.37,47.82Z" fill="#fff"/>
      <path id="Path_20" data-name="Path 20" d="M58.63,64.24c0,.2.82.37,1.83.37a7.692,7.692,0,0,0,.91-.06,3.455,3.455,0,0,1,.14-.6,7.329,7.329,0,0,0-1.06-.07C59.45,63.88,58.63,64,58.63,64.24Z" fill="#fff"/>
      <path id="Path_21" data-name="Path 21" d="M28.39,18.72a22.409,22.409,0,0,0-2.77,1.49,45.42,45.42,0,0,1,5.5,19.18,59.49,59.49,0,0,0-2.73-20.67Z" fill="#fff"/>
      <path id="Path_22" data-name="Path 22" d="M36.3,22.89A34.74,34.74,0,0,0,30.18,39.4c-.46-5.78.23-13.27,3.07-18.37Z" fill="#fff"/>
      <path id="Path_23" data-name="Path 23" d="M27.72,24.89A28.12,28.12,0,0,1,31,37.95c-.86-3.7-3.07-9-5.66-11Z" fill="#fff"/>
      <path id="Path_24" data-name="Path 24" d="M30.81,34.18c4.27,0,4.23,5.58,4.23,14.4s-1.89,20.91-4.23,20.91S26.58,57.4,26.58,48.58,26.54,34.18,30.81,34.18Z" fill="#fff"/>
      <path id="Path_25" data-name="Path 25" d="M30.81,34.18c4.27,0,4.23,5.58,4.23,14.4s-1.89,20.91-4.23,20.91S26.58,57.4,26.58,48.58,26.54,34.18,30.81,34.18Z" fill="#fff"/>
      <path id="Path_26" data-name="Path 26" d="M31.22,44.16c0,7.35-1.57,17.4-3.51,17.55.77,4.44,1.87,7.78,3.1,7.78C33.15,69.49,35,57.4,35,48.58s0-14.4-4.23-14.4h-.34C31.23,36.27,31.22,39.72,31.22,44.16Z" fill="#fff"/>
      <ellipse id="Ellipse_7" data-name="Ellipse 7" cx="1.03" cy="0.34" rx="1.03" ry="0.34" transform="translate(27.95 59.32)" fill="#fff"/>
      <ellipse id="Ellipse_8" data-name="Ellipse 8" cx="2.06" cy="0.34" rx="2.06" ry="0.34" transform="translate(28.98 44.86)" fill="#fff"/>
      <ellipse id="Ellipse_9" data-name="Ellipse 9" cx="1.71" cy="0.34" rx="1.71" ry="0.34" transform="translate(29.72 54.01)" fill="#fff"/>
      <path id="Path_27" data-name="Path 27" d="M35,43.36v-.68c-.92,0-1.66.16-1.66.34S34.07,43.35,35,43.36Z" fill="#fff"/>
      <path id="Path_28" data-name="Path 28" d="M29.33,47.82c0-.25-1-.45-2.23-.45h-.51v.87h.51C28.33,48.27,29.33,48.07,29.33,47.82Z" fill="#fff"/>
      <path id="Path_29" data-name="Path 29" d="M30.58,64.24c0,.2.82.37,1.83.37a7.692,7.692,0,0,0,.91-.06,3.455,3.455,0,0,1,.14-.6,7.329,7.329,0,0,0-1.06-.07C31.4,63.88,30.58,64,30.58,64.24Z" fill="#fff"/>
    </g>
  </g>
</svg>
