<svg xmlns="http://www.w3.org/2000/svg" viewBox="0 0 88.33 88.33"><defs><style>.cls-1{fill:#77b9db;}.cls-2{fill:#4c9bc4;}.cls-3{fill:#fff;}</style></defs><title>GardenButtonBlue</title><g id="Layer_2" data-name="Layer 2"><g id="Layer_1-2" data-name="Layer 1"><path class="cls-1" d="M44.17,86.33A42.17,42.17,0,1,1,86.33,44.17,42.21,42.21,0,0,1,44.17,86.33Z"/><path class="cls-2" d="M44.17,4A40.17,40.17,0,1,1,4,44.17,40.17,40.17,0,0,1,44.17,4m0-4A44.17,44.17,0,1,0,88.33,44.17,44.22,44.22,0,0,0,44.17,0Z"/><path class="cls-3" d="M42.49,18.72a22.41,22.41,0,0,0-2.77,1.49,45.42,45.42,0,0,1,5.5,19.18A59.49,59.49,0,0,0,42.49,18.72Z"/><path class="cls-3" d="M50.39,22.89A34.74,34.74,0,0,0,44.28,39.4c-.46-5.78.23-13.27,3.07-18.37Z"/><path class="cls-3" d="M41.81,24.89a28.12,28.12,0,0,1,3.26,13.05c-.86-3.7-3.07-9-5.66-11Z"/><path class="cls-3" d="M44.9,34.18c4.27,0,4.23,5.58,4.23,14.4S47.24,69.49,44.9,69.49,40.67,57.4,40.67,48.58,40.63,34.18,44.9,34.18Z"/><path class="cls-3" d="M44.9,34.18c4.27,0,4.23,5.58,4.23,14.4S47.24,69.49,44.9,69.49,40.67,57.4,40.67,48.58,40.63,34.18,44.9,34.18Z"/><path class="cls-3" d="M45.31,44.16c0,7.35-1.57,17.4-3.51,17.55.77,4.44,1.87,7.78,3.1,7.78,2.34,0,4.23-12.09,4.23-20.91s0-14.4-4.23-14.4c-.12,0-.23,0-.34,0C45.32,36.27,45.31,39.72,45.31,44.16Z"/><ellipse class="cls-3" cx="43.07" cy="59.66" rx="1.03" ry="0.34"/><ellipse class="cls-3" cx="45.13" cy="45.2" rx="2.06" ry="0.34"/><ellipse class="cls-3" cx="45.52" cy="54.35" rx="1.71" ry="0.34"/><path class="cls-3" d="M49.09,43.36c0-.23,0-.46,0-.68-.92,0-1.66.16-1.66.34S48.16,43.35,49.09,43.36Z"/><path class="cls-3" d="M43.42,47.82c0-.25-1-.45-2.23-.45h-.51c0,.29,0,.57,0,.87h.51C42.42,48.27,43.42,48.07,43.42,47.82Z"/><path class="cls-3" d="M44.67,64.24c0,.2.82.37,1.83.37a7.69,7.69,0,0,0,.91-.06c0-.2.1-.39.14-.6a7.33,7.33,0,0,0-1.06-.07C45.49,63.88,44.67,64,44.67,64.24Z"/><path class="cls-3" d="M56.44,18.72a22.41,22.41,0,0,0-2.77,1.49,45.42,45.42,0,0,1,5.5,19.18A59.49,59.49,0,0,0,56.44,18.72Z"/><path class="cls-3" d="M64.35,22.89A34.74,34.74,0,0,0,58.23,39.4c-.46-5.78.23-13.27,3.07-18.37Z"/><path class="cls-3" d="M55.77,24.89A28.12,28.12,0,0,1,59,37.95c-.86-3.7-3.07-9-5.66-11Z"/><path class="cls-3" d="M58.86,34.18c4.27,0,4.23,5.58,4.23,14.4s-1.89,20.91-4.23,20.91S54.63,57.4,54.63,48.58,54.58,34.18,58.86,34.18Z"/><path class="cls-3" d="M58.86,34.18c4.27,0,4.23,5.58,4.23,14.4s-1.89,20.91-4.23,20.91S54.63,57.4,54.63,48.58,54.58,34.18,58.86,34.18Z"/><path class="cls-3" d="M59.27,44.16c0,7.35-1.57,17.4-3.51,17.55.77,4.44,1.87,7.78,3.1,7.78,2.34,0,4.23-12.09,4.23-20.91s0-14.4-4.23-14.4c-.12,0-.23,0-.34,0C59.27,36.27,59.27,39.72,59.27,44.16Z"/><ellipse class="cls-3" cx="57.03" cy="59.66" rx="1.03" ry="0.34"/><ellipse class="cls-3" cx="59.09" cy="45.2" rx="2.06" ry="0.34"/><ellipse class="cls-3" cx="59.47" cy="54.35" rx="1.71" ry="0.34"/><path class="cls-3" d="M63,43.36c0-.23,0-.46,0-.68-.92,0-1.66.16-1.66.34S62.12,43.35,63,43.36Z"/><path class="cls-3" d="M57.37,47.82c0-.25-1-.45-2.23-.45h-.51c0,.29,0,.57,0,.87h.51C56.37,48.27,57.37,48.07,57.37,47.82Z"/><path class="cls-3" d="M58.63,64.24c0,.2.82.37,1.83.37a7.69,7.69,0,0,0,.91-.06c0-.2.1-.39.14-.6a7.33,7.33,0,0,0-1.06-.07C59.45,63.88,58.63,64,58.63,64.24Z"/><path class="cls-3" d="M28.39,18.72a22.41,22.41,0,0,0-2.77,1.49,45.42,45.42,0,0,1,5.5,19.18A59.49,59.49,0,0,0,28.39,18.72Z"/><path class="cls-3" d="M36.3,22.89A34.74,34.74,0,0,0,30.18,39.4c-.46-5.78.23-13.27,3.07-18.37Z"/><path class="cls-3" d="M27.72,24.89A28.12,28.12,0,0,1,31,37.95c-.86-3.7-3.07-9-5.66-11Z"/><path class="cls-3" d="M30.81,34.18c4.27,0,4.23,5.58,4.23,14.4s-1.89,20.91-4.23,20.91S26.58,57.4,26.58,48.58,26.54,34.18,30.81,34.18Z"/><path class="cls-3" d="M30.81,34.18c4.27,0,4.23,5.58,4.23,14.4s-1.89,20.91-4.23,20.91S26.58,57.4,26.58,48.58,26.54,34.18,30.81,34.18Z"/><path class="cls-3" d="M31.22,44.16c0,7.35-1.57,17.4-3.51,17.55.77,4.44,1.87,7.78,3.1,7.78C33.15,69.49,35,57.4,35,48.58s0-14.4-4.23-14.4c-.12,0-.23,0-.34,0C31.23,36.27,31.22,39.72,31.22,44.16Z"/><ellipse class="cls-3" cx="28.98" cy="59.66" rx="1.03" ry="0.34"/><ellipse class="cls-3" cx="31.04" cy="45.2" rx="2.06" ry="0.34"/><ellipse class="cls-3" cx="31.43" cy="54.35" rx="1.71" ry="0.34"/><path class="cls-3" d="M35,43.36c0-.23,0-.46,0-.68-.92,0-1.66.16-1.66.34S34.07,43.35,35,43.36Z"/><path class="cls-3" d="M29.33,47.82c0-.25-1-.45-2.23-.45h-.51c0,.29,0,.57,0,.87h.51C28.33,48.27,29.33,48.07,29.33,47.82Z"/><path class="cls-3" d="M30.58,64.24c0,.2.82.37,1.83.37a7.69,7.69,0,0,0,.91-.06c0-.2.1-.39.14-.6a7.33,7.33,0,0,0-1.06-.07C31.4,63.88,30.58,64,30.58,64.24Z"/></g></g></svg>