<svg xmlns="http://www.w3.org/2000/svg" viewBox="0 0 88.33 88.33"><defs><style>.cls-1{fill:#77b9db;}.cls-2{fill:#4c9bc4;}.cls-3{fill:#fff;}</style></defs><title>KitchenButtonBlue</title><g id="Layer_2" data-name="Layer 2"><g id="Layer_1-2" data-name="Layer 1"><path class="cls-1" d="M44.17,86.33A42.17,42.17,0,1,1,86.33,44.17,42.21,42.21,0,0,1,44.17,86.33Z"/><path class="cls-2" d="M44.17,4A40.17,40.17,0,1,1,4,44.17,40.17,40.17,0,0,1,44.17,4m0-4A44.17,44.17,0,1,0,88.33,44.17,44.22,44.22,0,0,0,44.17,0Z"/><path class="cls-3" d="M55.72,56.49v3.85c-3.5,2.14-7.15,2.8-11.56,2.8s-8.05-.66-11.56-2.8V56.49S36.76,59.56,44,59.64,55.72,56.49,55.72,56.49Z"/><path class="cls-3" d="M67.28,37.48c0-.07,0-.14,0-.21A10.1,10.1,0,0,0,57.19,28h0a9.5,9.5,0,0,0-1.35.09A14.44,14.44,0,0,0,30.91,31l-.11,0-.37,0h-.17l-.47,0h-.07c-.23,0-.47,0-.7,0h0a8.67,8.67,0,0,0,.13,17.28h.06l.55,0h.51l.25,0,.22,0,.3,0,.13,0a7.07,7.07,0,0,0,.82-.17,15.93,15.93,0,0,1,.68,4.62V54a21.49,21.49,0,0,0,23.11,0V52.54a16,16,0,0,1,.61-4.37l.42,0h.43l.7,0,.22,0,.62-.08.32-.05.35-.08c.21,0,.41-.1.61-.16l.2-.06A10.12,10.12,0,0,0,66.9,40.9c0-.06,0-.12,0-.18a10,10,0,0,0,.35-2.62c0-.14,0-.29,0-.43S67.28,37.54,67.28,37.48ZM38.57,51.16c0,.66-.33,1.2-.72,1.2s-.72-.54-.72-1.2V42.62c0-.67.32-1.2.72-1.2s.72.54.72,1.2Zm6.86,1.57a1.26,1.26,0,1,1-2.52,0V39.12a1.26,1.26,0,1,1,2.52,0Zm5.78-1.57c0,.66-.32,1.2-.72,1.2s-.73-.54-.73-1.2V42.62c0-.67.33-1.2.73-1.2s.72.54.72,1.2Z"/></g></g></svg>