<svg xmlns="http://www.w3.org/2000/svg" width="88.34" height="88.34" viewBox="0 0 88.34 88.34">
  <g id="Layer_2" data-name="Layer 2" transform="translate(0.01)">
    <g id="Layer_1" data-name="Layer 1">
      <path id="Path_30" data-name="Path 30" d="M44.17,86.33A42.17,42.17,0,1,1,86.33,44.167,42.172,42.172,0,0,1,44.17,86.33Z" fill="#f15f64"/>
      <path id="Path_31" data-name="Path 31" d="M44.17,4A40.17,40.17,0,1,1,4,44.17,40.17,40.17,0,0,1,44.17,4m0-4A44.17,44.17,0,1,0,88.33,44.167,44.172,44.172,0,0,0,44.17,0Z" fill="#f15f64"/>
      <path id="Path_32" data-name="Path 32" d="M55.72,56.49v3.85c-3.5,2.14-7.15,2.8-11.56,2.8s-8.05-.66-11.56-2.8V56.49s4.16,3.07,11.4,3.15A20.966,20.966,0,0,0,55.72,56.49Z" fill="#fff"/>
      <path id="Path_33" data-name="Path 33" d="M67.28,37.48v-.21A10.1,10.1,0,0,0,57.19,28h0a9.5,9.5,0,0,0-1.35.09A14.44,14.44,0,0,0,30.91,31H29.02a8.67,8.67,0,0,0,.13,17.28h2.02a7.07,7.07,0,0,0,.82-.17,15.93,15.93,0,0,1,.68,4.62V54a21.49,21.49,0,0,0,23.11,0V52.54a16,16,0,0,1,.61-4.37h1.77l.62-.08.32-.05.35-.08a2.2,2.2,0,0,0,.61-.16l.2-.06A10.12,10.12,0,0,0,66.9,40.9q0-.09,0-.18a10,10,0,0,0,.35-2.62v-.43C67.25,37.53,67.28,37.54,67.28,37.48ZM38.57,51.16c0,.66-.33,1.2-.72,1.2s-.72-.54-.72-1.2V42.62c0-.67.32-1.2.72-1.2s.72.54.72,1.2Zm6.86,1.57a1.26,1.26,0,1,1-2.52,0V39.12a1.26,1.26,0,0,1,2.52,0Zm5.78-1.57c0,.66-.32,1.2-.72,1.2s-.73-.54-.73-1.2V42.62c0-.67.33-1.2.73-1.2s.72.54.72,1.2Z" fill="#fff"/>
    </g>
  </g>
</svg>
