<?xml version="1.0" encoding="UTF-8" standalone="no"?>
<!DOCTYPE svg PUBLIC "-//W3C//DTD SVG 1.1//EN" "http://www.w3.org/Graphics/SVG/1.1/DTD/svg11.dtd">
<svg version="1.1" xmlns="http://www.w3.org/2000/svg" xmlns:xlink="http://www.w3.org/1999/xlink" preserveAspectRatio="xMidYMid meet" viewBox="242.69114941118727 144.91388413241998 45.00000000000006 45.00000000000006" width="150" height="150"><defs><path d="M274.69 146.91C280.21 146.91 284.69 151.39 284.69 156.91C284.69 162.91 284.69 170.91 284.69 176.91C284.69 182.44 280.21 186.91 274.69 186.91C268.69 186.91 260.69 186.91 254.69 186.91C249.17 186.91 244.69 182.44 244.69 176.91C244.69 170.91 244.69 162.91 244.69 156.91C244.69 151.39 249.17 146.91 254.69 146.91C260.69 146.91 268.69 146.91 274.69 146.91Z" id="a6leXe759"></path><path d="" id="c3DFPLyCz5"></path><path d="M274.01 156.73C274.73 156.73 275.32 157.31 275.32 158.04C275.32 158.3 275.32 157.78 275.32 158.04C275.32 158.76 274.73 159.35 274.01 159.35C270.02 159.35 259.36 159.35 255.38 159.35C254.65 159.35 254.07 158.76 254.07 158.04C254.07 157.78 254.07 158.3 254.07 158.04C254.07 157.31 254.65 156.73 255.38 156.73C259.36 156.73 270.02 156.73 274.01 156.73Z" id="m5vc0d6Jhr"></path><path d="M274.01 165.6C274.73 165.6 275.32 166.19 275.32 166.91C275.32 167.17 275.32 166.65 275.32 166.92C275.32 167.64 274.73 168.23 274.01 168.23C270.02 168.23 259.36 168.23 255.38 168.23C254.65 168.23 254.07 167.64 254.07 166.92C254.07 166.65 254.07 167.17 254.07 166.91C254.07 166.19 254.65 165.6 255.38 165.6C259.36 165.6 270.02 165.6 274.01 165.6Z" id="b1M9WOtb7Y"></path><path d="M274.01 174.85C274.73 174.85 275.32 175.44 275.32 176.16C275.32 176.42 275.32 175.9 275.32 176.17C275.32 176.89 274.73 177.48 274.01 177.48C270.02 177.48 259.36 177.48 255.38 177.48C254.65 177.48 254.07 176.89 254.07 176.17C254.07 175.9 254.07 176.42 254.07 176.16C254.07 175.44 254.65 174.85 255.38 174.85C259.36 174.85 270.02 174.85 274.01 174.85Z" id="bcDebrNva"></path></defs><g><g><use xlink:href="#a6leXe759" opacity="1" fill="#ffffff" fill-opacity="1"></use><g><use xlink:href="#a6leXe759" opacity="1" fill-opacity="0" stroke="#f15f64" stroke-width="4" stroke-opacity="1"></use></g></g><g><g><use xlink:href="#c3DFPLyCz5" opacity="1" fill-opacity="0" stroke="#9e492e" stroke-width="1" stroke-opacity="1"></use></g></g><g><use xlink:href="#m5vc0d6Jhr" opacity="1" fill="#f15f64" fill-opacity="1"></use><g><use xlink:href="#m5vc0d6Jhr" opacity="1" fill-opacity="0" stroke="#f15f64" stroke-width="2" stroke-opacity="1"></use></g></g><g><use xlink:href="#b1M9WOtb7Y" opacity="1" fill="#f15f64" fill-opacity="1"></use><g><use xlink:href="#b1M9WOtb7Y" opacity="1" fill-opacity="0" stroke="#f15f64" stroke-width="2" stroke-opacity="1"></use></g></g><g><use xlink:href="#bcDebrNva" opacity="1" fill="#f15f64" fill-opacity="1"></use><g><use xlink:href="#bcDebrNva" opacity="1" fill-opacity="0" stroke="#f15f64" stroke-width="2" stroke-opacity="1"></use></g></g></g></svg>