<svg xmlns="http://www.w3.org/2000/svg" width="88.34" height="88.34" viewBox="0 0 88.34 88.34">
  <g id="Layer_2" data-name="Layer 2" transform="translate(0.01)">
    <g id="Layer_1" data-name="Layer 1">
      <path id="Path_34" data-name="Path 34" d="M44.17,86.33A42.17,42.17,0,1,1,86.33,44.167,42.172,42.172,0,0,1,44.17,86.33Z" fill="#f15f64"/>
      <path id="Path_35" data-name="Path 35" d="M44.17,4A40.17,40.17,0,1,1,4,44.17,40.17,40.17,0,0,1,44.17,4m0-4A44.17,44.17,0,1,0,88.33,44.167,44.172,44.172,0,0,0,44.17,0Z" fill="#f15f64"/>
      <g id="_Group_" data-name="&lt;Group&gt;">
        <path id="Path_36" data-name="Path 36" d="M66.3,23.73v2.65H60.5c-2.82,0-2.82,2.16-2.82,2.16V52.9c0,3.32-2.48,3-2.48,3H33c-1.82,0-3-2.32-3-2.32S24.21,41,22.39,36.33s3.81-5,3.81-5H54.74V28.85c0-5.3,5.47-5.14,5.47-5.14ZM53.78,51.45A1,1,0,0,0,53,50.37H35.69a.74.74,0,0,0-.58.32,1.26,1.26,0,0,0-.24.76,1,1,0,0,0,.82,1.08H53A1,1,0,0,0,53.78,51.45Zm0-4.93a1,1,0,0,0-.92-1.08H33.54a.85.85,0,0,0-.65.32,1.18,1.18,0,0,0-.27.76,1,1,0,0,0,.92,1.08H52.87a1,1,0,0,0,.91-1.08Zm0-5.26a1,1,0,0,0-1-1.08H31.35a1,1,0,0,0-.72.31,1.11,1.11,0,0,0-.3.76,1,1,0,0,0,1,1.07H52.77a1,1,0,0,0,1.01-1.06Zm0-5.38A1.08,1.08,0,0,0,52.7,34.8H30A1.1,1.1,0,0,0,30,37H52.7a1.08,1.08,0,0,0,1.08-1.13Z" fill="#fff"/>
        <path id="Path_37" data-name="Path 37" d="M55.65,56.67a2.92,2.92,0,1,1-2.92,2.92,2.92,2.92,0,0,1,2.92-2.92ZM57,59.59a1.37,1.37,0,1,0-.38.988A1.37,1.37,0,0,0,57,59.59Z" fill="#fff"/>
        <path id="Path_38" data-name="Path 38" d="M33.26,56.67a2.92,2.92,0,1,1-2.92,2.92A2.92,2.92,0,0,1,33.26,56.67Zm1.37,2.92a1.37,1.37,0,1,0-.387.995,1.37,1.37,0,0,0,.387-.995Z" fill="#fff"/>
      </g>
    </g>
  </g>
</svg>
