<svg xmlns="http://www.w3.org/2000/svg" viewBox="0 0 88.33 88.33"><defs><style>.cls-1{fill:#77b9db;}.cls-2{fill:#4c9bc4;}.cls-3{fill:#fff;}</style></defs><title>SupermarketButtonBlue</title><g id="Layer_2" data-name="Layer 2"><g id="Layer_1-2" data-name="Layer 1"><path class="cls-1" d="M44.17,86.33A42.17,42.17,0,1,1,86.33,44.17,42.21,42.21,0,0,1,44.17,86.33Z"/><path class="cls-2" d="M44.17,4A40.17,40.17,0,1,1,4,44.17,40.17,40.17,0,0,1,44.17,4m0-4A44.17,44.17,0,1,0,88.33,44.17,44.22,44.22,0,0,0,44.17,0Z"/><g id="_Group_" data-name="&lt;Group&gt;"><path class="cls-3" d="M66.3,23.73v2.65H60.5c-2.82,0-2.82,2.16-2.82,2.16V52.9c0,3.32-2.48,3-2.48,3H33c-1.82,0-3-2.32-3-2.32S24.21,41,22.39,36.33s3.81-5,3.81-5H54.74l0-2.48c0-5.3,5.47-5.14,5.47-5.14ZM53.78,51.45A1,1,0,0,0,53,50.37H35.69a.74.74,0,0,0-.58.32,1.26,1.26,0,0,0-.24.76,1,1,0,0,0,.82,1.08H53A1,1,0,0,0,53.78,51.45Zm0-4.93a1,1,0,0,0-.92-1.08H33.54a.85.85,0,0,0-.65.32,1.18,1.18,0,0,0-.27.76,1,1,0,0,0,.92,1.08H52.87A1,1,0,0,0,53.78,46.52Zm0-5.26a1,1,0,0,0-1-1.08H31.35a1,1,0,0,0-.72.31,1.11,1.11,0,0,0-.3.76,1,1,0,0,0,1,1.07H52.77A1,1,0,0,0,53.78,41.26Zm0-5.38A1.08,1.08,0,0,0,52.7,34.8H30A1.08,1.08,0,0,0,30,37H52.7A1.08,1.08,0,0,0,53.78,35.87Z"/><path class="cls-3" d="M55.65,56.67a2.92,2.92,0,1,1-2.92,2.92A2.92,2.92,0,0,1,55.65,56.67ZM57,59.59A1.37,1.37,0,1,0,55.65,61,1.37,1.37,0,0,0,57,59.59Z"/><path class="cls-3" d="M33.26,56.67a2.92,2.92,0,1,1-2.92,2.92A2.92,2.92,0,0,1,33.26,56.67Zm1.37,2.92A1.37,1.37,0,1,0,33.26,61,1.37,1.37,0,0,0,34.63,59.59Z"/></g></g></g></svg>