<svg xmlns="http://www.w3.org/2000/svg" width="49.106" height="142.967" viewBox="0 0 49.106 142.967">
  <g id="Group_1" data-name="Group 1" transform="translate(0.001)">
    <g id="Layer_1" data-name="Layer 1">
      <path id="svg_25" d="M41.506,24.51c-2.9-3.82-5.924-7.41-7.789-10.45V0h-18.1V13.74c-1.865,3.11-4.986,6.84-7.978,10.77C3.66,29.76,0,35.39,0,40.47V53.7A6.807,6.807,0,0,0,2.553,59a2.135,2.135,0,0,0,.249.19h0a1.562,1.562,0,0,1,.449,1.08A1.582,1.582,0,0,1,2.8,61.35h0a1.416,1.416,0,0,0-.249.19A6.8,6.8,0,0,0,0,66.95v67.21a8.742,8.742,0,0,0,16.664,3.76,8.7,8.7,0,0,0,15.777,0A8.742,8.742,0,0,0,49.1,134.16V66.95a6.827,6.827,0,0,0-2.493-5.28h0a1.746,1.746,0,0,0-.359-.26h0a1.472,1.472,0,0,1-.409-1,1.512,1.512,0,0,1,.409-1h0a1.735,1.735,0,0,1,.359-.26h0A6.787,6.787,0,0,0,49.1,53.88V40.47C49.1,35.37,45.455,29.75,41.506,24.51Z" fill="#ede0d9"/>
      <path id="svg_26" d="M45.694,40.47V53.7A3.4,3.4,0,0,1,43.131,57a2.984,2.984,0,0,1-.768.11,3.2,3.2,0,0,0,0,6.4,2.248,2.248,0,0,1,.708.1A3.418,3.418,0,0,1,45.7,66.94V131.1c-1.247,1.24-2.473,2.48-3.73,3.72h-7.22l-2.3-4.88-2.314,4.88H18.948l-2.294-4.88-2.324,4.88H7.35c-1.486-1.47-2.493-2.52-3.989-4V66.95a3.4,3.4,0,0,1,2.623-3.31,3.123,3.123,0,0,1,.868-.12h.13a3.2,3.2,0,0,0,0-6.4h-.14a2.5,2.5,0,0,1-.788-.1A3.408,3.408,0,0,1,3.421,53.7V40.47c0-4.13,3.48-9.36,6.9-13.91.8-1,1.626-2.11,2.433-3.13.568-.73,1.117-1.46,1.655-2.16H34.675l1.606,2.07c.838,1.06,1.665,2.14,2.513,3.23C41.994,30.83,45.694,36.28,45.694,40.47Z" fill="#6b4242"/>
      <rect id="svg_27" width="19.337" height="10.04" transform="translate(14.999 0.01)" fill="#db3b3d"/>
      <path id="svg_28" d="M37.9,41.62a2.324,2.324,0,1,1-2.324-2.33A2.327,2.327,0,0,1,37.9,41.62Z" fill="#99524f"/>
      <path id="svg_29" d="M20.055,55.64a1.845,1.845,0,1,1-1.845-1.85A1.847,1.847,0,0,1,20.055,55.64Z" fill="#99524f"/>
      <path id="svg_30" d="M31.733,59.64a2.841,2.841,0,1,1-2.812-2.86A2.85,2.85,0,0,1,31.733,59.64Z" fill="#99524f"/>
      <path id="svg_31" d="M37.9,71.48a1.276,1.276,0,1,1-1.276-1.28A1.278,1.278,0,0,1,37.9,71.48Z" fill="#99524f"/>
      <circle id="svg_32" cx="1.566" cy="1.566" r="1.566" transform="translate(10.97 66.664)" fill="#99524f"/>
      <circle id="svg_33" cx="1.566" cy="1.566" r="1.566" transform="translate(27.325 34.904)" fill="#99524f"/>
      <rect id="svg_34" width="49.095" height="35.3" transform="translate(0 77.03)" fill="#db3b3d"/>
      <path id="svg_35" d="M18.22,39.29a4.827,4.827,0,1,1-4.827-4.84,4.833,4.833,0,0,1,4.827,4.84Z" fill="#f2f2f2"/>
      <ellipse id="svg_36" cx="12.196" cy="12.24" rx="12.196" ry="12.24" transform="translate(12.356 82.44)" fill="#ede0d9"/>
    </g>
  </g>
</svg>
