<svg xmlns="http://www.w3.org/2000/svg" width="69.82" height="77.85" viewBox="0 0 69.82 77.85">
  <g id="Layer_1" data-name="Layer 1" transform="translate(0 -86)">
    <path id="Path_4" data-name="Path 4" d="M62.26,101l1.73-15H5.83l1.68,14.5C26,100.14,44,101.06,62.26,101Z" fill="#26afe8" opacity="0.2"/>
    <path id="Path_5" data-name="Path 5" d="M7.51,100.58l6.79,58.59H55.52L62.26,101C44,101.06,26,100.14,7.51,100.58Z" fill="#aad8f8" opacity="0.9"/>
    <path id="Path_6" data-name="Path 6" d="M63.99,86.07l-8.47,73.09H14.31L5.83,86.07H0l8.97,77.78H60.85l8.97-77.78Z" fill="#e9f5fd"/>
    <path id="Path_7" data-name="Path 7" d="M25.27,162.74a.88.88,0,0,1-.87-.78l-4.12-37.44a.88.88,0,1,1,1.75-.19l4.12,37.44a.88.88,0,0,1-.78,1Z" fill="#e9f5fd"/>
    <path id="Path_8" data-name="Path 8" d="M44.56,162.74h-.1a.88.88,0,0,1-.78-1L47.8,124.3a.88.88,0,1,1,1.75.19L45.43,162a.88.88,0,0,1-.87.74Z" fill="#e9f5fd"/>
  </g>
</svg>
