<svg xmlns="http://www.w3.org/2000/svg" width="576.069" height="166.844" viewBox="0 0 576.069 166.844">
  <path id="BodyTop" d="M247.023,632.844a79.069,79.069,0,0,1-17.508-1.647,39.009,39.009,0,0,1-15.72-7.062,26.7,26.7,0,0,1-7.568-9.519c-1.362-2.928-2.676-7.355-1.2-11.821,2.057-6.324,7.216-11.315,15.772-15.259,7.32-3.375,15.971-5.414,22.922-7.053l.017,0c1.6-.376,3.1-.732,4.519-1.084,1.711-.426,3.436-.857,5.1-1.275,11.634-2.91,23.663-5.919,35.765-8.116.651-.118,1.313-.223,1.954-.324,4.177-.661,8.122-1.285,10.366-5.385a27.782,27.782,0,0,0,2.391-6.163c-.658-.209-1.25-.4-1.811-.587.608.2,1.216.393,1.8.581l.009,0,0-.01,0-.01-.09-.029c-.9-.287-1.826-.584-2.737-.895-3.478-1.193-6.964-2.5-10.36-3.89h-.08c-1.447-.594-2.9-1.225-4.14-1.77l-1.18-.51c-1.137-.512-2.337-1.073-3.89-1.82l-1.32-.63-.213-.106-.071-.035-.283-.141c-.651-.321-1.361-.681-2.168-1.1-.363-.187-.722-.373-1.055-.547l-1.28-.68c-1.261-.673-2.536-1.376-3.79-2.09l-1.049-.6-.081-.046-.149-.086-.007,0-.025-.014-.048-.028c-1.1-.635-2.2-1.3-3.281-1.962l-.138-.084-.023-.014-.139-.087-.049-.03-.85-.54-.7-.455-.052-.034c-1.068-.695-2.171-1.411-3.248-2.141l-.311-.221-.051-.035-.033-.022a137.857,137.857,0,0,1-28.736-26.133l-.16-.19c-1.181-1.427-2.352-2.908-3.479-4.4l-.14-.18c-.953-1.27-1.909-2.589-2.84-3.919-.175-.247-.347-.5-.513-.752l0,0c-.137-.205-.279-.417-.423-.624l-.26-.38-.78-1.14-.76-1.149c-.384-.592-.759-1.2-1.09-1.731-.47-.727-.956-1.515-1.53-2.479l-.148-.237-.78-1.35c-.06-.105-.121-.21-.182-.313-.461-.8-.929-1.616-1.391-2.44-.385-.675-.761-1.348-1.12-2l-.114-.2c-.159-.284-.323-.577-.477-.877-.232-.436-.459-.886-.678-1.321l0,0-.012-.024-.237-.47.22.42-.37-.74.15.32-.059-.116c-.267-.524-.541-1.063-.8-1.594-.412-.836-.818-1.694-1.21-2.525l-.03-.064-.162-.335c-.061-.135-.124-.267-.187-.4-.223-.505-.457-1.022-.683-1.522l-.01-.021-.009-.021c-.237-.524-.482-1.065-.718-1.6l-.54-1.25c-.1-.229-.2-.457-.3-.678-.172-.391-.349-.794-.514-1.2a7.489,7.489,0,0,1-1-2.5c-.1-.263-.2-.535-.3-.8l0-.006c-.074-.2-.149-.4-.225-.6a.5.5,0,0,1-.3.111.32.32,0,0,1-.272-.142c-.154-.221-.122-.661.09-1.238-.328-.878-.652-1.765-.962-2.634H601.743a185.309,185.309,0,0,1-9.919,24.99,128.112,128.112,0,0,1-13.465,21.948c-1.22,1.608-2.522,3.192-3.868,4.71-.3.345-.622.688-.908.991l-.012.013c-.222.237-.453.481-.675.729l-.427.162h.274l-.406.445a120.708,120.708,0,0,1-15.622,14.228A131.718,131.718,0,0,1,539.3,545.4a155.356,155.356,0,0,1-18.833,8.515,193.234,193.234,0,0,1-19.883,6.229c1.394,4.869,3.516,10.8,5.712,11.413,9.247,2.553,18.916,4.553,28.266,6.487,15.1,3.124,30.717,6.353,45.1,12.013,6.15,2.426,14.342,6.6,14.485,14.78a18.586,18.586,0,0,1-1.965,10.749,24.569,24.569,0,0,1-7.356,8.761,37.793,37.793,0,0,1-14.39,6.382,71.312,71.312,0,0,1-15.981,1.573c-2.732,0-5.65-.1-9.185-.3-27.33-1.613-57.388-2.414-94.594-2.52-5.038,0-10.37-.177-15.235-1.462a22.717,22.717,0,0,1-12.678-8.048,21.712,21.712,0,0,1-3.476-6.587,27.2,27.2,0,0,1-1.259-7.2,49.208,49.208,0,0,1,1.9-14.729,45.112,45.112,0,0,0,1.036-7.07,36.617,36.617,0,0,1-.594-4.267c-.139-2.237-.518-4.776-2.282-6.64s-4.648-2.93-9.123-3.4c-2.462.059-4.926.113-7.309.166h-.029l-1.043.023c-5.934.809-12.181,2.593-15.193,4.341a11,11,0,0,0-1.805,1.276,14.909,14.909,0,0,0-.132,6.189c1.139,4.754,1.179,12.307.1,19.71a60.982,60.982,0,0,1-2.437,10.553,25.653,25.653,0,0,1-4.1,8.018,18.832,18.832,0,0,1-4.823,4.225,22.364,22.364,0,0,1-5.581,2.4,62.388,62.388,0,0,1-12.449,1.759h-.006c-1.754.13-3.568.264-5.331.456-19.311,2.1-42.13,2.476-64.2,2.836h-.005c-10.411.17-21.176.346-31.358.7C250.947,632.8,248.9,632.844,247.023,632.844Zm52.677-76.1c-3.032-1.061-6.069-2.214-9.024-3.428,2.947,1.2,5.983,2.358,9.025,3.426Zm365.993-19.431a12.022,12.022,0,0,1-4.781-.978A11.751,11.751,0,0,1,657,533.609a12.378,12.378,0,0,1-3.278-9.3,19.834,19.834,0,0,1,.3-2.513c-3.391,6.5-6.9,13.219-15.842,13.22a20.3,20.3,0,0,1-2.217-.127c-4.1-.428-6.843-1.5-8.9-3.464-2.022-1.938-3.445-4.826-4.614-9.366a14.9,14.9,0,0,1-3.68,3.17,14.686,14.686,0,0,1-8.21,2.5c-.44,0-.884-.02-1.32-.059a19.749,19.749,0,0,1-5.57-1.78,12.018,12.018,0,0,1-6.091-5.488c-.39.054-.868.114-1.418.178l.46-.44h-.31l.47-.16-.16.16.144-.005.67-.015a11.9,11.9,0,0,1-1.033-7.68c.14-2.343,1.629-4.561,3.2-6.91l.315-.47A49.6,49.6,0,0,0,606.956,466H689.7c2.536,12.334,1.609,23.572-3.305,40.084-.494,1.687-.959,3.544-1.451,5.509A88.208,88.208,0,0,1,680.8,525c-2.424,5.571-5.555,9.189-9.57,11.06A13.2,13.2,0,0,1,665.693,537.313Zm-532.771-3.151a9.058,9.058,0,0,1-5.192-1.611,14.151,14.151,0,0,1-3.787-4.062,41.554,41.554,0,0,1-4.478-10.843,112.88,112.88,0,0,1-4.43-34.28c.151-4.8.415-11.106,1.123-17.365h78.4a49.922,49.922,0,0,0,7.761,35.085,13.778,13.778,0,0,1,2.224,7.885,17.8,17.8,0,0,1-2.123,8.125c-2.67,5-7.208,7.991-12.139,7.992l-.221,0a10.309,10.309,0,0,1-6.539-2.5,32.314,32.314,0,0,1-4.791-5.341,1.694,1.694,0,0,1,.31.69,11.873,11.873,0,0,1-2.3-3.33c-.487-.861-1.059-1.881-1.61-2.921l0,.031a52.52,52.52,0,0,1-2.069,8.573,15.418,15.418,0,0,1-4.848,7.216,15.619,15.619,0,0,1-9.346,3.259,11.175,11.175,0,0,1-5.345-1.269,9.8,9.8,0,0,1-4.029-4.08c-.274-.494-1.963-5.328-3.326-9.317.88,3.108.2,6.953-1.868,10.548-2.009,3.5-5.006,6.111-8.017,7A11.892,11.892,0,0,1,132.922,534.161Zm79.352-54.842c-.116-.248-.206-.444-.289-.634.085.189.18.4.291.634Z" transform="translate(-115 -466)" fill="#fff"/>
</svg>
