<svg xmlns="http://www.w3.org/2000/svg" width="573.542" height="421.001" viewBox="0 0 573.542 421.001">
  <path id="BodyBottom" d="M171.554,421h-78.4a96.865,96.865,0,0,1,4.827-21.856,230.214,230.214,0,0,1,28.222-54.072,143.215,143.215,0,0,1,20.243-23.14c7.649-6.887,15.375-11.794,22.964-14.582a512.078,512.078,0,0,1,3.184-51.9,474.73,474.73,0,0,1,8.715-51.739A404.081,404.081,0,0,1,195.923,154a323.455,323.455,0,0,1,20.863-45.8,253.707,253.707,0,0,1,25.48-37.69,213.683,213.683,0,0,1,18.107-19.438A191.915,191.915,0,0,1,280.709,34.32,179.7,179.7,0,0,1,303.355,20.57a177.771,177.771,0,0,1,25.031-10.416A206.4,206.4,0,0,1,358.528,2.67,187.725,187.725,0,0,1,389.668,0a154.307,154.307,0,0,1,41.718,5.514,159.251,159.251,0,0,1,20.886,7.473,161.3,161.3,0,0,1,19.286,10.085,171.023,171.023,0,0,1,17.72,12.481,187.93,187.93,0,0,1,16.188,14.66c19.633,19.943,36.495,45.541,50.116,76.082a380.675,380.675,0,0,1,16.756,45.468,462.729,462.729,0,0,1,11.586,48.1c2.971,15.961,5.223,32.449,6.691,49,1.424,16.053,2.12,32.258,2.069,48.166a181.4,181.4,0,0,1,15.754,10.46,151.981,151.981,0,0,1,13.051,10.884,132.355,132.355,0,0,1,19.413,22.7,152.936,152.936,0,0,1,12.865,23.389c3.534,7.882,6.49,15.9,9.159,23.4A97.661,97.661,0,0,1,666.7,421H583.955a52.608,52.608,0,0,0-2.576-8.113c0,.019-.01.037-.015.056v.005l-.017.066c-.069-.047-.133-.1-.176-.128-.773,2.763-1.59,5.493-2.427,8.114H183.9a185.435,185.435,0,0,1-5.633-18.933A52.287,52.287,0,0,0,171.554,421Z" transform="translate(-93.159 0)" fill="#fff"/>
</svg>
