<svg xmlns="http://www.w3.org/2000/svg" width="559.896" height="493.293" viewBox="0 0 559.896 493.293">
  <g id="MooshNonColour" transform="translate(-377 -507.551)">
    <g id="Eyebrows" transform="translate(377.036 413.004)">
      <path id="leftEyeBrow" d="M222,98.39c-10-3.57-20.34-3.33-30.68-2.12-15.42,1.79-31.79,8.86-39,23.42-2.58,5.21,0,10.7,6,11.28a1.06,1.06,0,0,0,1.13-.82c2.25-9.51,11.67-17.72,20.11-21.34,14.46-6.19,32.07-7.33,47.76-6.05a1.033,1.033,0,1,0,.52-2Q225,99.45,222,98.39Z" fill="#231f20" stroke="#231f20" stroke-miterlimit="10" stroke-width="1.98" opacity="0.3"/>
      <path id="rightEyeBrow" d="M344.9,103.66c9.15-5.31,19.4-6.95,29.79-7.63,15.49-1,32.86,3,42.58,16,3.47,4.66,2,10.52-3.85,12.17a1.06,1.06,0,0,1-1.26-.61c-3.93-8.94-14.68-15.32-23.63-17.35-15.34-3.48-32.87-1.41-48.07,2.68a1.029,1.029,0,1,1-.88-1.86Q342.17,105.24,344.9,103.66Z" fill="#231f20" stroke="#231f20" stroke-miterlimit="10" stroke-width="1.98" opacity="0.3"/>
    </g>
    <g id="Mouth" transform="translate(377.036 413.004)">
      <path id="Path_64" data-name="Path 64" d="M444.91,308c-1.89-4.88-5.52-8.91-10.12-12.27-8.84-6.45-17.58-9.19-27.74-11.49a81.991,81.991,0,0,0-5.37,8.83c-.12.16-.23.32-.35.48h0c-.24.31-.5.6-.77.89l-.26.26q-.31.31-.63.6l-.26.23a13.893,13.893,0,0,1-1.93,1.37l-.16.09q-.46.26-.93.49l-.14.07a15,15,0,0,1-3.5,1.12h0a15.269,15.269,0,0,1-3.7.25h0a14.41,14.41,0,0,1-2.39-.34h0a9.995,9.995,0,0,1-1.07-.3h-.12a12.328,12.328,0,0,1-2.05-.89l-.14-.08q-.4-.23-.77-.48l-.19-.13a10.192,10.192,0,0,1-1.58-1.38l-.17-.19q-.26-.3-.5-.62l-.17-.24a9.415,9.415,0,0,1-.53-.86h0a9.52,9.52,0,0,1-.45-1l-.11-.29q-.14-.38-.25-.78a1.874,1.874,0,0,0-.08-.32,10.523,10.523,0,0,1-.21-1.13c-.08-.64-.18-1.24-.29-1.82v-.14q-.17-.86-.39-1.63h0c-.05-.19-.11-.38-.17-.57v-.09c0-1-.12-2-.18-2.94-1.46,3.39-2.89,6.89-5,9.67a12.86,12.86,0,0,1-8.15,5.2c-6.57,1.23-14.39-1.85-15.1-9.25a39.764,39.764,0,0,0-.9-5.58v-1c-2.18,4-6.43,8.19-14.14,9.42-4.42.71-9.21,0-12.51-3.08s-4.26-7.65-5-11.94q.62-1.34,1.27-2.66l.55-1.13-2.43.08c.05.32.11.65.16,1h0q.22,1.11.44,2.21A54.992,54.992,0,0,0,313,282l-.26.4c-2.71,3.92-8.27,6.22-13.72,5.89-6.85-.41-9.56-4.64-11.29-9.6-.31-.89-1.77-4.36-1.42-5.29a82.531,82.531,0,0,0-4.12,9.75l-.26.49c-5.4,9.52-20.66,9.78-23.46-.25a23.908,23.908,0,0,0-1.52-4.09c-.32-1.63-.68-3.25-1-4.87a5.738,5.738,0,0,1,.11-.63v-.65c-.22.72-.39,1.41-.4,1.47a22,22,0,0,1-1.46,4.37,24.27,24.27,0,0,1-5.19,7.62c-10.81,10.43-23.94.27-27.87-10.51-3.13,8.05-6.23,16.91-16.64,16.47a10.57,10.57,0,0,1-8.73-4.82,17.121,17.121,0,0,1-1-1.94c-.34-.74-2.21-5.68-3-8.32-.1.19-.19.36-.25.49a10.818,10.818,0,0,0-.63,1.81c-1,3.94-.36,8.19-3.28,11.41a15.14,15.14,0,0,1-9.41,4.47,20,20,0,0,1-3.93.14,14.75,14.75,0,0,1-10.18-5.27,37.17,37.17,0,0,1-5-8.24,8.752,8.752,0,0,0-.46-1c-10.94,2.73-21.56,7.16-28.79,16.07-23.49,29,2.13,61.28,25.59,80.47a187,187,0,0,0,43.29,26.3c8.25-5.68,17.66-9.49,26.89-13.37,9.07-3.81,22.38-6.89,32.09-4.36a57.842,57.842,0,0,1,13.9,5.82c3.35-2.13,6.73-4,9.65-5.86,22.16-13.85,67-5.37,80.9,19.8,2.32-.8,4.63-1.66,6.93-2.61,17.48-7.28,34.46-17.5,47.74-31a112.75,112.75,0,0,0,18.29-24.47c5.14-9.28,11.32-21.25,11.45-32a21.61,21.61,0,0,0-1.65-8.09Z" fill="#241d1f"/>
      <path id="Path_65" data-name="Path 65" d="M281.05,386.35c-2.92,1.82-6.3,3.73-9.65,5.86a57.839,57.839,0,0,0-13.9-5.82c-9.71-2.54-23,.55-32.09,4.36-9.23,3.87-18.64,7.69-26.89,13.37q8.24,3.61,16.82,6.48l.21-.11.24.25c34.79,11.58,73.06,13.93,108.24,5.13,12.83-3.21,25.52-5.46,37.92-9.73C348.09,381,303.21,372.51,281.05,386.35Zm49.15,9.73c.11-1,.24-1.14.37.06Z" fill="#e77c8d"/>
      <path id="Path_66" data-name="Path 66" d="M376.56,278.29c-.13,0,0,0-.21-.07a3.783,3.783,0,0,0-.57-.1q-13.77-2.33-27.63-4.07h-.82v-.07c-1.46-.18-2.92-.38-4.38-.55q-26.88-3.15-54-3.94h-2.36l-2.32-.05q-5.79-.13-11.58-.14a540.778,540.778,0,0,0-109.2,10.92c-1.69.35-3.39.73-5.08,1.15.19.34.33.76.46,1a37.169,37.169,0,0,0,5,8.24,14.75,14.75,0,0,0,10.18,5.27,20,20,0,0,0,3.93-.14,15.14,15.14,0,0,0,9.41-4.47c2.93-3.22,2.27-7.47,3.28-11.41a10.82,10.82,0,0,1,.63-1.81c.06-.13.15-.3.25-.49.82,2.64,2.69,7.58,3,8.32a17.118,17.118,0,0,0,1,1.94,10.57,10.57,0,0,0,8.73,4.82c10.41.44,13.51-8.42,16.64-16.47,3.93,10.78,17.06,20.95,27.87,10.51a24.27,24.27,0,0,0,5.19-7.62,22,22,0,0,0,1.46-4.37c0-.06.18-.74.4-1.47v.65a5.735,5.735,0,0,0-.11.63c.35,1.62.71,3.25,1,4.87a23.908,23.908,0,0,1,1.52,4.09c2.8,10,18.05,9.76,23.46.25l.26-.49a81.418,81.418,0,0,1,4-9.54h.07c-.13,1.15,1.15,4.23,1.45,5.07,1.73,5,4.43,9.18,11.29,9.6,5.45.33,11-2,13.72-5.89l.26-.4a53,53,0,0,1,3-6.07h.29v.08c.72,4.3,1.67,8.84,5,11.94s8.09,3.79,12.51,3.08c7.71-1.24,12-5.41,14.14-9.42v1a39.774,39.774,0,0,1,.9,5.58c.71,7.4,8.54,10.48,15.1,9.25a12.86,12.86,0,0,0,8.15-5.2c2.11-2.78,3.54-6.27,5-9.67.06,1,.13,2,.18,2.94v.09c.06.18.11.38.17.57h0q.21.77.39,1.63V288c.11.58.21,1.18.29,1.82a10.523,10.523,0,0,0,.21,1.13,1.871,1.871,0,0,0,.08.32q.11.4.25.78l.11.29a9.518,9.518,0,0,0,.45,1h0a9.415,9.415,0,0,0,.53.86l.17.24q.24.32.5.62l.17.19a10.188,10.188,0,0,0,1.58,1.38l.19.13q.37.25.77.48l.14.08a12.33,12.33,0,0,0,2.05.89h.12c.35.11.7.21,1.07.3h0a14.41,14.41,0,0,0,2.39.34h0a15.282,15.282,0,0,0,3.71-.24h0a15,15,0,0,0,3.5-1.12l.14-.07q.47-.23.93-.49l.16-.09a13.888,13.888,0,0,0,1.93-1.37l.26-.23q.32-.29.63-.6l.26-.26c.26-.28.52-.58.77-.89h0c.12-.16.23-.32.35-.48a82,82,0,0,1,5.37-8.83l-3.39-.74q-10.43-2.23-20.93-4.12c-2-.36-4-.69-5.94-1" fill="#fff"/>
    </g>
    <g id="Eyes" transform="translate(377.036 413.004)">
      <g id="LeftEye">
        <path id="Path_68" data-name="Path 68" d="M197.87,226.46c-25.57-.14-43.28-18.66-43.07-45,.2-25.59,17.59-45.44,39.8-44.92,28.9.68,48.13,20.93,47.72,45.93C241.89,208.34,223.41,226.59,197.87,226.46Z" fill="#f8f9f4"/>
        <path id="Path_73" data-name="Path 73" d="M225,181a21.32,21.32,0,0,0-33.1,20,23,23,0,0,0,14.72,19C230.72,228.76,246.31,195,225,181Z" fill="#05ab8c"/>
        <path id="Path_74" data-name="Path 74" d="M221.1,187.09A14.22,14.22,0,0,0,199,200.41a15.37,15.37,0,0,0,9.83,12.7C224.93,218.94,235.33,196.44,221.1,187.09Z" fill="#231f20"/>
        <circle id="Ellipse_1" data-name="Ellipse 1" cx="9.41" cy="9.41" r="9.41" transform="translate(216.59 180.17)" fill="#fff"/>
      </g>
      <g id="RightEye">
        <path id="Path_67" data-name="Path 67" d="M416.26,182.41c-.12,28.7-19.29,47.66-48,47.45-26.36-.19-45.87-20.45-46.07-47.83-.2-27.91,19.35-47.74,47-47.63C398.15,134.5,416.38,153.09,416.26,182.41Z" fill="#f8f9f4"/>
        <path id="Path_75" data-name="Path 75" d="M389.62,173.89c-14.16-.17-26.55,12.92-23.7,29.31,2.08,11.94,13,20.89,23.72,20.89C417.16,224.08,418.24,174.23,389.62,173.89Z" fill="#05ab8c"/>
        <path id="Path_76" data-name="Path 76" d="M389.12,182.12c-9.51-.12-17.84,8.68-15.92,19.69,1.4,8,8.71,14,15.94,14C407.62,215.85,408.34,182.36,389.12,182.12Z" fill="#231f20"/>
        <circle id="Ellipse_2" data-name="Ellipse 2" cx="8.43" cy="8.43" r="8.43" transform="translate(393.77 177.8)" fill="#fff"/>
      </g>
    </g>
    <g id="Shadow" transform="translate(377.036 413.004)">
      <path id="RightThirdFingerShadow" d="M502,477.94a12,12,0,0,1-7.27-13.45c.15-2.5,1.85-4.88,3.52-7.38,10.455-15.707,8.158-51.522-5.469-60.815-3.025-2.067-10.164-.773-11.431,2.617,5.214,2.576,6.427,10.68,8.058,14.333a48.931,48.931,0,0,1,2.036,5.738,7.557,7.557,0,0,1,.432,1.882c1.341,11.071,2.764,24.506-7.006,39.135-1.67,2.5-3.37,4.88-3.52,7.38a12,12,0,0,0,7.27,13.45,19.78,19.78,0,0,0,5.57,1.78,14.73,14.73,0,0,0,9.53-2.44,15.188,15.188,0,0,0,1.4-1C504.09,478.82,503.07,478.39,502,477.94Z" fill="#008f76"/>
      <path id="rightMiddleFingerShadow" d="M514.06,468.45c-1,1.21-5,6.39-5.85,7.9-1.11,2,.93,3.68,0,3.41,2.24,6.64,5.65,9.3,12.7,10.08,5.13.57,8.65-.82,11.35-3.23C525.81,485.4,516.09,476.37,514.06,468.45Z" fill="#008f76"/>
      <path id="rightFirstFigerShadow" d="M545.39,477.45c.05-.94,1.74-11.78,1.88-12.55-2.93,5.63-11.66,6.33-6.8,21.65A12.13,12.13,0,0,0,556.21,491a15.079,15.079,0,0,0,3.65-2.41C555.16,486.89,545.07,483.38,545.39,477.45Z" fill="#008f76"/>
      <path id="leftBellyShadow" d="M143.79,478.46c-9.47-8.79-19.16-16.82-25.48-29-3.09-5.95-5-12.9-9.35-17.87-3-3.48-6.27-6.46-9.3-9.83a9,9,0,0,1-4.94-2.24,28,28,0,0,0-1.88,4.15c-.51,1.38.14,1.56.5,1.26l.41,1.05a7.51,7.51,0,0,0,1.12,2.86,147.2,147.2,0,0,0,18.57,32.8l.14.18q1.7,2.25,3.48,4.4l.16.19A137.93,137.93,0,0,0,146,492.51l.31.22c1.33.9,2.68,1.77,4,2.63l.85.54q1.91,1.19,3.86,2.31l1.13.65q1.88,1.07,3.79,2.09l1.28.68c1.26.66,2.52,1.3,3.79,1.93l1.32.63c1.29.62,2.58,1.23,3.89,1.82l1.18.51c1.37.6,2.75,1.2,4.14,1.77h.08q5.11,2.09,10.36,3.89h0c1.17.4.258.076,1.438.456l.781.266a1.9,1.9,0,0,0,.7.2c.388.1,2.832-4.437,1.679-4.673C167.5,500.478,162.64,496,143.79,478.46Z" fill="#008f76"/>
      <path id="rightBellyShadow" d="M492.571,396.149c-1.3-.6-10.161-4.629-13.041,4.321-5.88,22.13-10.42,38.21-21.79,53.36s-23.13,29.88-38.57,39.47c-8.474,3.992-5.12,3.015-13.358,5.742-9.58,2.71-28.823,12.632-20.394,16.23,2.7-.968,8.375-2.472,13.156-3.838,1.4-.4,3.2-.971,4.195-1.294,19.056-8.345,32.186-9.745,54.971-34.581l.4-.44h-.27l.42-.16c.52-.58,1.06-1.12,1.57-1.71q2-2.26,3.81-4.65c11.91-15.46,20.13-35,25.75-55.55C489.45,413.78,495.4,397.9,492.571,396.149Z" fill="#008f76"/>
      <path id="leftFootShadow" d="M242.05,572.62c-28.46,3.1-63.92,2.43-95.56,3.54-13.47.47-28.52-.06-39.48-8.59-5.73-4.45-10.89-13-9-20.46a22,22,0,0,0-8,10.68c-2.54,7.69,2.82,16.72,8.77,21.34,11,8.52,26,9.06,39.48,8.59,31.64-1.11,67.09-.43,95.56-3.54,10.21-1.11,21.16-.23,28.19-8.84a25.569,25.569,0,0,0,4-7.67C259.15,572.13,250.36,571.71,242.05,572.62Z" fill="#008f76"/>
      <path id="rightFoodShadow" d="M475.531,568.075c-11.13,8.251-26.149,8.431-39.573,7.642-31.515-1.858-63.069-2.427-94.633-2.517-5.984,0-9.478,1.276-18.913,0s-12.621-2.737-18.156-8.471c-.558-.579-1.077-1.169-1.606-1.768a23,23,0,0,0,4.6,11.988c6.812,8.771,17.652,9.47,27.924,9.5,31.574.09,63.119.659,94.643,2.517,13.424.789,28.433.609,39.573-7.642a23.568,23.568,0,0,0,9.125-13.866,24.849,24.849,0,0,1-2.982,2.617Z" transform="translate(0.477 0.025)" fill="#008f76"/>
      <path id="leftFirstFingerShadow" d="M13.45,481.33c-3.93-8.18-5.52-16.7-6-25.38A56.94,56.94,0,0,1,5.6,421.87a100,100,0,0,1,.34-17.92c.27-2.59.65-5.14,1.08-7.67-.36,1-.73,1.93-1.07,2.87C1.4,411.89.42,425,0,438.36a112.94,112.94,0,0,0,4.43,34.28c2.24,7.79,6.41,19.07,16.81,16a9.852,9.852,0,0,0,1.24-.47C18.93,487.76,15.54,485.68,13.45,481.33Z" fill="#008f76"/>
      <path id="leftThirdFingerShadow" d="M87.71,471a11.28,11.28,0,0,1-2.33,2.69c-.18.16-.37.3-.55.45a14,14,0,0,1-2,1.33,12.41,12.41,0,0,1-3,1.1.74.74,0,0,1-.82.19,13.642,13.642,0,0,1-4.35,0A12.86,12.86,0,0,1,67.18,473a14.18,14.18,0,0,1-5.53-5.42,9.931,9.931,0,0,1-.71-1.5,8.767,8.767,0,0,0-.82.61C63.08,474.33,70,480,75,480.08c6,.1,10.75-4.12,13-9.44h-.07A2.019,2.019,0,0,1,87.71,471Z" fill="#008f76"/>
      <path id="leftMiddleFingerShadow" d="M56.22,477.07a14.26,14.26,0,0,1-7.95,5.21c-3,.67-4.66.39-7.67-.14-3.38-.59-6.19-3.58-7.86-6.4-.13-.23-.24-.46-.35-.7.38,1,.83,2.21,1.41,3.6.34.94.6,1.63.69,1.79,3.77,7,13,6.51,18.72,2.09a14.9,14.9,0,0,0,4.48-6.34c-.29.06-.66.2-1,.3Z" fill="#008f76"/>
    </g>
    <g id="Spots" transform="translate(377.036 413.004)">
      <path id="Path_85" data-name="Path 85" d="M483.57,254.29c1.3,5.69-4.32,9.56-12.53,11.88-9,2.54-15.05-.27-17.24-9.39-2.33-9.72.3-18.48,10.15-21.77C476.78,230.73,479.15,241.57,483.57,254.29Z" fill="#b6dad0" opacity="0.6"/>
      <path id="Path_86" data-name="Path 86" d="M458,206c6.48-.07,11,2.1,12.39,8.18,1.42,6.23-2.65,8.63-7.86,9.93-6,1.49-9-1.28-10.61-6.81C450.15,211.06,454.55,208.78,458,206Z" fill="#b6dad0" opacity="0.6"/>
      <path id="Path_87" data-name="Path 87" d="M466.1,294.07c-5,.93-10.13-.29-11.49-5.77a9.2,9.2,0,0,1,7-11.37c4.75-1.2,8.66.9,10,6.3C472.86,288.3,471.61,292,466.1,294.07Z" fill="#b6dad0" opacity="0.6"/>
      <path id="Path_88" data-name="Path 88" d="M92.27,260.69c-1.69,7.38,5.6,12.39,16.24,15.4,11.63,3.29,19.51-.35,22.35-12.17,3-12.59-.39-24-13.16-28.22C101.08,230.15,98,244.21,92.27,260.69Z" fill="#b6dad0" opacity="0.6"/>
      <path id="Path_89" data-name="Path 89" d="M125.39,198.12c-8.4-.09-14.26,2.72-16.06,10.6-1.85,8.07,3.43,11.19,10.18,12.87,7.75,1.93,11.69-1.66,13.75-8.83C135.59,204.66,129.88,201.7,125.39,198.12Z" fill="#b6dad0" opacity="0.6"/>
    </g>
  </g>
</svg>
